M48
; DRILL file {KiCad 8.0.6} date 2024-11-01T18:27:41+0800
; FORMAT={-:-/ absolute / metric / decimal}
; #@! TF.CreationDate,2024-11-01T18:27:41+08:00
; #@! TF.GenerationSoftware,Kicad,Pcbnew,8.0.6
; #@! TF.FileFunction,MixedPlating,1,2
FMAT,2
METRIC
; #@! TA.AperFunction,Plated,PTH,ViaDrill
T1C0.300
; #@! TA.AperFunction,Plated,PTH,ViaDrill
T2C0.400
; #@! TA.AperFunction,Plated,PTH,ViaDrill
T3C0.500
; #@! TA.AperFunction,Plated,PTH,ComponentDrill
T4C0.600
; #@! TA.AperFunction,Plated,PTH,ComponentDrill
T5C1.000
; #@! TA.AperFunction,NonPlated,NPTH,ComponentDrill
T6C0.650
; #@! TA.AperFunction,NonPlated,NPTH,ComponentDrill
T7C2.200
%
G90
G05
T1
X2.738Y-13.22
X2.74Y-14.22
X2.74Y-15.72
X8.97Y-10.77
X9.81Y-16.78
X10.78Y-15.92
X11.9Y-7.02
X12.97Y-23.88
X14.1Y-11.66
X14.95Y-5.09
X14.95Y-5.93
X15.28Y-11.65
X15.48Y-23.91
X16.3Y-11.66
X16.87Y-18.96
X17.4Y-11.66
X17.79Y-23.93
X17.981Y-9.28
X18.28Y-13.58
X18.5Y-11.66
X18.981Y-9.28
X18.981Y-20.79
X19.36Y-17.94
X19.38Y-13.58
X19.6Y-11.66
X20.02Y-17.61
X20.02Y-18.33
X20.23Y-4.6
X20.34Y-24.03
X20.48Y-13.58
X20.7Y-11.66
X21.58Y-13.58
X22.68Y-13.58
X22.79Y-24.31
X22.996Y-9.42
X23.881Y-9.38
X23.881Y-11.82
X25.23Y-24.6
X26.04Y-8.15
X26.16Y-4.6
X26.251Y-10.37
X27.371Y-16.29
X27.61Y-24.64
X27.906Y-10.98
X28.7Y-4.6
X29.256Y-8.15
X32.67Y-4.6
X34.64Y-4.6
X37.22Y-4.6
X37.99Y-24.21
X39.371Y-11.43
X39.65Y-8.16
X39.871Y-9.79
X40.031Y-11.43
X40.58Y-8.16
X40.92Y-4.6
X41.54Y-8.16
X42.73Y-18.45
X43.13Y-24.21
X46.07Y-11.29
X46.88Y-15.38
X46.961Y-8.26
X49.49Y-7.92
X52.4Y-11.29
X54.6Y-11.47
X54.6Y-16.59
X55.47Y-11.47
X55.47Y-16.59
T2
X15.92Y-13.57
X15.92Y-14.52
X26.32Y-20.5
X29.101Y-17.18
X30.94Y-9.5
X37.59Y-17.45
X37.59Y-20.48
X41.231Y-17.45
T3
X5.24Y-21.53
X5.241Y-11.57
X13.36Y-17.28
X13.96Y-21.54
X14.94Y-10.37
X18.58Y-19.77
X41.23Y-19.78
X42.421Y-21.54
X49.501Y-10.35
T5
X3.781Y-1.34
X3.781Y-26.6
X6.321Y-1.34
X6.321Y-26.6
X8.861Y-1.34
X8.861Y-26.6
X11.401Y-1.34
X11.401Y-26.6
X13.941Y-1.34
X13.941Y-26.6
X16.481Y-1.34
X16.481Y-26.6
X19.021Y-1.34
X19.021Y-26.6
X21.561Y-1.34
X21.561Y-26.6
X24.101Y-1.34
X24.101Y-26.6
X26.641Y-1.34
X26.641Y-26.6
X29.181Y-1.34
X29.181Y-26.6
X31.721Y-1.34
X31.721Y-26.6
X34.261Y-1.34
X34.261Y-26.6
X36.801Y-1.34
X36.801Y-26.6
X39.341Y-1.34
X39.341Y-26.6
X41.881Y-1.34
X41.881Y-26.6
X44.421Y-1.34
X44.421Y-26.6
X46.961Y-1.34
X46.961Y-26.6
X49.501Y-1.34
X49.501Y-26.6
X52.041Y-1.34
X52.041Y-26.6
X57.531Y-10.175
X57.531Y-12.715
X57.531Y-15.255
X57.531Y-17.795
T6
X2.32Y-11.08
X2.32Y-16.86
T7
X0.201Y-3.16
X0.201Y-24.78
X55.7Y-3.16
X55.7Y-24.78
T4
G00X-0.93Y-9.645
M15
G01X-1.83Y-9.645
M16
G05
G00X-0.93Y-18.295
M15
G01X-1.83Y-18.295
M16
G05
G00X3.42Y-9.645
M15
G01X2.22Y-9.645
M16
G05
G00X3.42Y-18.295
M15
G01X2.22Y-18.295
M16
G05
M30
