%TF.GenerationSoftware,KiCad,Pcbnew,8.0.6*%
%TF.CreationDate,2024-11-01T18:27:38+08:00*%
%TF.ProjectId,UINIO-MCU-RP2040,55494e49-4f2d-44d4-9355-2d5250323034,Version 3.2.0*%
%TF.SameCoordinates,PX7155ac0PY525e6d0*%
%TF.FileFunction,Copper,L2,Bot*%
%TF.FilePolarity,Positive*%
%FSLAX46Y46*%
G04 Gerber Fmt 4.6, Leading zero omitted, Abs format (unit mm)*
G04 Created by KiCad (PCBNEW 8.0.6) date 2024-11-01 18:27:38*
%MOMM*%
%LPD*%
G01*
G04 APERTURE LIST*
%TA.AperFunction,ComponentPad*%
%ADD10O,2.100000X1.000000*%
%TD*%
%TA.AperFunction,ComponentPad*%
%ADD11O,1.900000X1.000000*%
%TD*%
%TA.AperFunction,ComponentPad*%
%ADD12R,1.700000X1.700000*%
%TD*%
%TA.AperFunction,ComponentPad*%
%ADD13O,1.700000X1.700000*%
%TD*%
%TA.AperFunction,ViaPad*%
%ADD14C,0.500000*%
%TD*%
%TA.AperFunction,ViaPad*%
%ADD15C,0.700000*%
%TD*%
%TA.AperFunction,ViaPad*%
%ADD16C,0.900000*%
%TD*%
%TA.AperFunction,Conductor*%
%ADD17C,0.300000*%
%TD*%
%TA.AperFunction,Conductor*%
%ADD18C,0.200000*%
%TD*%
%TA.AperFunction,Conductor*%
%ADD19C,0.500000*%
%TD*%
G04 APERTURE END LIST*
D10*
%TO.P,USB1,13,GND*%
%TO.N,GND*%
X2820000Y-9645000D03*
%TO.P,USB1,14,GND*%
X2820000Y-18295000D03*
D11*
%TO.P,USB1,15,GND*%
X-1380000Y-9645000D03*
%TO.P,USB1,16,GND*%
X-1380000Y-18295000D03*
%TD*%
D12*
%TO.P,J3,1,Pin_1*%
%TO.N,/VDD_3.3V*%
X57530972Y-10175000D03*
D13*
%TO.P,J3,2,Pin_2*%
%TO.N,Net-(J3-Pin_2)*%
X57530972Y-12715000D03*
%TO.P,J3,3,Pin_3*%
%TO.N,Net-(J3-Pin_3)*%
X57530972Y-15255000D03*
%TO.P,J3,4,Pin_4*%
%TO.N,GND*%
X57530972Y-17795000D03*
%TD*%
D12*
%TO.P,J2,1,Pin_1*%
%TO.N,GND*%
X3780972Y-1340000D03*
D13*
%TO.P,J2,2,Pin_2*%
%TO.N,/VDD_3.3V*%
X6320972Y-1340000D03*
%TO.P,J2,3,Pin_3*%
%TO.N,GND*%
X8860972Y-1340000D03*
%TO.P,J2,4,Pin_4*%
%TO.N,/LDO_EN*%
X11400972Y-1340000D03*
%TO.P,J2,5,Pin_5*%
%TO.N,/ADC_VREF*%
X13940972Y-1340000D03*
%TO.P,J2,6,Pin_6*%
%TO.N,/GPIO28_ADC2*%
X16480972Y-1340000D03*
%TO.P,J2,7,Pin_7*%
%TO.N,/GPIO27_ADC1*%
X19020972Y-1340000D03*
%TO.P,J2,8,Pin_8*%
%TO.N,/GPIO26_ADC0*%
X21560972Y-1340000D03*
%TO.P,J2,9,Pin_9*%
%TO.N,/GPIO24*%
X24100972Y-1340000D03*
%TO.P,J2,10,Pin_10*%
%TO.N,/GPIO23*%
X26640972Y-1340000D03*
%TO.P,J2,11,Pin_11*%
%TO.N,/GPIO22*%
X29180972Y-1340000D03*
%TO.P,J2,12,Pin_12*%
%TO.N,/GPIO21*%
X31720972Y-1340000D03*
%TO.P,J2,13,Pin_13*%
%TO.N,/GPIO20*%
X34260972Y-1340000D03*
%TO.P,J2,14,Pin_14*%
%TO.N,/GPIO19*%
X36800972Y-1340000D03*
%TO.P,J2,15,Pin_15*%
%TO.N,/GPIO18*%
X39340972Y-1340000D03*
%TO.P,J2,16,Pin_16*%
%TO.N,/GPIO17*%
X41880972Y-1340000D03*
%TO.P,J2,17,Pin_17*%
%TO.N,/GPIO16*%
X44420972Y-1340000D03*
%TO.P,J2,18,Pin_18*%
%TO.N,/RUN*%
X46960972Y-1340000D03*
%TO.P,J2,19,Pin_19*%
%TO.N,/VDD_3.3V*%
X49500972Y-1340000D03*
%TO.P,J2,20,Pin_20*%
%TO.N,GND*%
X52040972Y-1340000D03*
%TD*%
D12*
%TO.P,J1,1,Pin_1*%
%TO.N,GND*%
X3780972Y-26600000D03*
D13*
%TO.P,J1,2,Pin_2*%
%TO.N,/USB_5V*%
X6320972Y-26600000D03*
%TO.P,J1,3,Pin_3*%
%TO.N,/GPIO0*%
X8860972Y-26600000D03*
%TO.P,J1,4,Pin_4*%
%TO.N,/GPIO1*%
X11400972Y-26600000D03*
%TO.P,J1,5,Pin_5*%
%TO.N,/GPIO2*%
X13940972Y-26600000D03*
%TO.P,J1,6,Pin_6*%
%TO.N,/GPIO3*%
X16480972Y-26600000D03*
%TO.P,J1,7,Pin_7*%
%TO.N,/GPIO4*%
X19020972Y-26600000D03*
%TO.P,J1,8,Pin_8*%
%TO.N,/GPIO5*%
X21560972Y-26600000D03*
%TO.P,J1,9,Pin_9*%
%TO.N,/GPIO6*%
X24100972Y-26600000D03*
%TO.P,J1,10,Pin_10*%
%TO.N,/GPIO7*%
X26640972Y-26600000D03*
%TO.P,J1,11,Pin_11*%
%TO.N,/GPIO8*%
X29180972Y-26600000D03*
%TO.P,J1,12,Pin_12*%
%TO.N,/GPIO9*%
X31720972Y-26600000D03*
%TO.P,J1,13,Pin_13*%
%TO.N,/GPIO10*%
X34260972Y-26600000D03*
%TO.P,J1,14,Pin_14*%
%TO.N,/GPIO11*%
X36800972Y-26600000D03*
%TO.P,J1,15,Pin_15*%
%TO.N,/GPIO12*%
X39340972Y-26600000D03*
%TO.P,J1,16,Pin_16*%
%TO.N,/GPIO13*%
X41880972Y-26600000D03*
%TO.P,J1,17,Pin_17*%
%TO.N,/GPIO14*%
X44420972Y-26600000D03*
%TO.P,J1,18,Pin_18*%
%TO.N,/GPIO15*%
X46960972Y-26600000D03*
%TO.P,J1,19,Pin_19*%
%TO.N,/VDD_3.3V*%
X49500972Y-26600000D03*
%TO.P,J1,20,Pin_20*%
%TO.N,GND*%
X52040972Y-26600000D03*
%TD*%
D14*
%TO.N,GND*%
X15480000Y-23910000D03*
X27370972Y-16290000D03*
X20340000Y-24030000D03*
D15*
X15920000Y-13570000D03*
D14*
X17790000Y-23930000D03*
X43130000Y-24210000D03*
X40920000Y-4600000D03*
X18980972Y-9280000D03*
X20230000Y-4600000D03*
X14100000Y-11660000D03*
X46070000Y-11290000D03*
X39650000Y-8160000D03*
X17400000Y-11660000D03*
X39370972Y-11430000D03*
X28700000Y-4600000D03*
X19380000Y-13580000D03*
X19360000Y-17940000D03*
X9810000Y-16780000D03*
X20700000Y-11660000D03*
D15*
X37590000Y-20480000D03*
D14*
X20480000Y-13580000D03*
X27610000Y-24640000D03*
X55470000Y-16590000D03*
X18500000Y-11660000D03*
X40030972Y-11430000D03*
X55470000Y-11470000D03*
X34640000Y-4600000D03*
X22790000Y-24310000D03*
X12970000Y-23880000D03*
X19600000Y-11660000D03*
X21580000Y-13580000D03*
X41540000Y-8160000D03*
X37220000Y-4600000D03*
X26160000Y-4600000D03*
X22680000Y-13580000D03*
X20020000Y-17610000D03*
X32670000Y-4600000D03*
X18280000Y-13580000D03*
X54600000Y-16590000D03*
X14950000Y-5930000D03*
X25230000Y-24600000D03*
X20020000Y-18330000D03*
D15*
X26320000Y-20500000D03*
D14*
X54600000Y-11470000D03*
X23880972Y-11820000D03*
X16300000Y-11660000D03*
X14950000Y-5090000D03*
X10780000Y-15920000D03*
D15*
X15920000Y-14520000D03*
D14*
X37990000Y-24210000D03*
X15280000Y-11650000D03*
X17980972Y-9280000D03*
X23880972Y-9380000D03*
X40580000Y-8160000D03*
X49490000Y-7920000D03*
X52400000Y-11290000D03*
D15*
%TO.N,/VDD_3.3V*%
X37590000Y-17450000D03*
D16*
X14940000Y-10370000D03*
X49500972Y-10350000D03*
D15*
X30940000Y-9500000D03*
D14*
X22995972Y-9420000D03*
D16*
X18580000Y-19770000D03*
D14*
X39870972Y-9790000D03*
D15*
X26250972Y-10370000D03*
X41230972Y-17450000D03*
D16*
X13360000Y-17280000D03*
X41230000Y-19780000D03*
D15*
X29100972Y-17180000D03*
D14*
%TO.N,/GPIO25*%
X29255972Y-8150000D03*
X26040000Y-8150000D03*
%TO.N,/LDO_EN*%
X16870000Y-18960000D03*
X11900000Y-7020000D03*
%TO.N,/RUN*%
X46960972Y-8260000D03*
%TO.N,/GPIO29_ADC3*%
X42730000Y-18450000D03*
X27905972Y-10980000D03*
%TO.N,Net-(USB1-CC2)*%
X8970000Y-10770000D03*
X2740000Y-15720000D03*
%TO.N,/Boot_Select*%
X18980972Y-20790000D03*
X46880000Y-15380000D03*
D16*
%TO.N,/USB_5V*%
X13960000Y-21540000D03*
X42420972Y-21540000D03*
X5240000Y-21530000D03*
X5240972Y-11570000D03*
D14*
%TO.N,Net-(D4-A2)*%
X2740000Y-14220000D03*
X2737515Y-13220000D03*
%TD*%
D17*
%TO.N,GND*%
X26340000Y-20480000D02*
X26320000Y-20500000D01*
D18*
X39370972Y-11430000D02*
X40030972Y-11430000D01*
D17*
X37590000Y-20480000D02*
X26340000Y-20480000D01*
D19*
%TO.N,/VDD_3.3V*%
X18580000Y-19770000D02*
X18590000Y-19780000D01*
X22995972Y-9420000D02*
X22995972Y-10365000D01*
X23670972Y-10370000D02*
X26390972Y-10370000D01*
X26170000Y-19780000D02*
X41230972Y-19780000D01*
D17*
X30960972Y-9520972D02*
X30960972Y-10360000D01*
D19*
X14940000Y-10370000D02*
X23000972Y-10370000D01*
D17*
X41230972Y-19780000D02*
X41230972Y-17450000D01*
D19*
X26170000Y-19780000D02*
X29100972Y-19780000D01*
X23660972Y-10360000D02*
X23670972Y-10370000D01*
X23000972Y-10370000D02*
X23650972Y-10370000D01*
X18590000Y-19760000D02*
X18580000Y-19770000D01*
X49520972Y-10370000D02*
X57335972Y-10370000D01*
D17*
X39880972Y-9800000D02*
X39880972Y-10370000D01*
D19*
X18590000Y-19780000D02*
X26170000Y-19780000D01*
X22995972Y-10365000D02*
X23000972Y-10370000D01*
X23650972Y-10370000D02*
X23660972Y-10360000D01*
X18590000Y-17280000D02*
X18590000Y-19760000D01*
D17*
X41230972Y-17450000D02*
X37690000Y-17450000D01*
D19*
X13360000Y-17280000D02*
X18590000Y-17280000D01*
X29100972Y-19780000D02*
X29100972Y-17180000D01*
D18*
X39870972Y-9790000D02*
X39880972Y-9800000D01*
D19*
X49520972Y-10370000D02*
X49500972Y-10350000D01*
D17*
X30940000Y-9500000D02*
X30960972Y-9520972D01*
D19*
X39880972Y-10370000D02*
X49520972Y-10370000D01*
X31240972Y-10370000D02*
X39880972Y-10370000D01*
X26390972Y-10370000D02*
X31240972Y-10370000D01*
D18*
%TO.N,/GPIO25*%
X26040000Y-8150000D02*
X29255972Y-8150000D01*
%TO.N,/LDO_EN*%
X11910000Y-17450000D02*
X13420000Y-18960000D01*
X13420000Y-18960000D02*
X16870000Y-18960000D01*
X11910000Y-7030000D02*
X11910000Y-17450000D01*
X11900000Y-7020000D02*
X11910000Y-7030000D01*
X11900000Y-1839028D02*
X11400972Y-1340000D01*
X11900000Y-7020000D02*
X11900000Y-1839028D01*
D17*
%TO.N,/RUN*%
X46960972Y-8260000D02*
X46960972Y-1340000D01*
D18*
%TO.N,/GPIO29_ADC3*%
X27905972Y-10980000D02*
X37970000Y-10980000D01*
X37970000Y-10980000D02*
X42730000Y-15740000D01*
X42730000Y-15740000D02*
X42730000Y-18440000D01*
%TO.N,Net-(USB1-CC2)*%
X3620000Y-14840000D02*
X3620000Y-11680000D01*
X4530000Y-10770000D02*
X8970000Y-10770000D01*
X2740000Y-15720000D02*
X3620000Y-14840000D01*
X3620000Y-11680000D02*
X4530000Y-10770000D01*
%TO.N,/Boot_Select*%
X46870000Y-15380000D02*
X41160000Y-21090000D01*
X46880000Y-15380000D02*
X46870000Y-15380000D01*
X41160000Y-21090000D02*
X19280972Y-21090000D01*
X19280972Y-21090000D02*
X18980972Y-20790000D01*
D19*
%TO.N,/USB_5V*%
X13090000Y-21540000D02*
X11880000Y-21540000D01*
X11880000Y-21540000D02*
X42420972Y-21540000D01*
X5250000Y-21540000D02*
X11880000Y-21540000D01*
X5240972Y-21529028D02*
X5240972Y-11570000D01*
X5240000Y-21530000D02*
X5240972Y-21529028D01*
X5240000Y-21530000D02*
X5250000Y-21540000D01*
X13960000Y-21540000D02*
X13090000Y-21540000D01*
D18*
%TO.N,Net-(D4-A2)*%
X2740000Y-13222485D02*
X2737515Y-13220000D01*
X2740000Y-14220000D02*
X2740000Y-13222485D01*
%TD*%
%TA.AperFunction,Conductor*%
%TO.N,GND*%
G36*
X5268252Y-270185D02*
G01*
X5314007Y-322989D01*
X5323951Y-392147D01*
X5294926Y-455703D01*
X5288894Y-462181D01*
X5282477Y-468597D01*
X5146937Y-662169D01*
X5146936Y-662171D01*
X5047070Y-876335D01*
X5047066Y-876344D01*
X4985910Y-1104586D01*
X4985908Y-1104596D01*
X4965313Y-1339999D01*
X4965313Y-1340000D01*
X4985908Y-1575403D01*
X4985910Y-1575413D01*
X5047066Y-1803655D01*
X5047068Y-1803659D01*
X5047069Y-1803663D01*
X5134050Y-1990194D01*
X5146937Y-2017830D01*
X5146939Y-2017834D01*
X5194293Y-2085462D01*
X5282477Y-2211401D01*
X5449571Y-2378495D01*
X5546356Y-2446265D01*
X5643137Y-2514032D01*
X5643139Y-2514033D01*
X5643142Y-2514035D01*
X5857309Y-2613903D01*
X6085564Y-2675063D01*
X6273890Y-2691539D01*
X6320971Y-2695659D01*
X6320972Y-2695659D01*
X6320973Y-2695659D01*
X6361033Y-2692154D01*
X6556380Y-2675063D01*
X6784635Y-2613903D01*
X6998802Y-2514035D01*
X7192373Y-2378495D01*
X7359467Y-2211401D01*
X7495007Y-2017830D01*
X7594875Y-1803663D01*
X7656035Y-1575408D01*
X7676631Y-1340000D01*
X7656035Y-1104592D01*
X7594875Y-876337D01*
X7495007Y-662171D01*
X7489397Y-654158D01*
X7359466Y-468597D01*
X7353050Y-462181D01*
X7319565Y-400858D01*
X7324549Y-331166D01*
X7366421Y-275233D01*
X7431885Y-250816D01*
X7440731Y-250500D01*
X10281213Y-250500D01*
X10348252Y-270185D01*
X10394007Y-322989D01*
X10403951Y-392147D01*
X10374926Y-455703D01*
X10368894Y-462181D01*
X10362477Y-468597D01*
X10226937Y-662169D01*
X10226936Y-662171D01*
X10127070Y-876335D01*
X10127066Y-876344D01*
X10065910Y-1104586D01*
X10065908Y-1104596D01*
X10045313Y-1339999D01*
X10045313Y-1340000D01*
X10065908Y-1575403D01*
X10065910Y-1575413D01*
X10127066Y-1803655D01*
X10127068Y-1803659D01*
X10127069Y-1803663D01*
X10214050Y-1990194D01*
X10226937Y-2017830D01*
X10226939Y-2017834D01*
X10274293Y-2085462D01*
X10362473Y-2211396D01*
X10362478Y-2211402D01*
X10437205Y-2286129D01*
X10445532Y-2295334D01*
X10467045Y-2321653D01*
X10467047Y-2321655D01*
X10467048Y-2321656D01*
X11130686Y-2930942D01*
X11259361Y-3049078D01*
X11295431Y-3108917D01*
X11299500Y-3140420D01*
X11299500Y-6529336D01*
X11280494Y-6595308D01*
X11219545Y-6692307D01*
X11163685Y-6851943D01*
X11144751Y-7019997D01*
X11144751Y-7020002D01*
X11163685Y-7188056D01*
X11219545Y-7347693D01*
X11290493Y-7460604D01*
X11309500Y-7526577D01*
X11309500Y-17363330D01*
X11309499Y-17363348D01*
X11309499Y-17529054D01*
X11309498Y-17529054D01*
X11309499Y-17529057D01*
X11350423Y-17681785D01*
X11350424Y-17681786D01*
X11369639Y-17715067D01*
X11369639Y-17715070D01*
X11369641Y-17715070D01*
X11429479Y-17818714D01*
X11429481Y-17818717D01*
X11548349Y-17937585D01*
X11548355Y-17937590D01*
X12935139Y-19324374D01*
X12935149Y-19324385D01*
X12939479Y-19328715D01*
X12939480Y-19328716D01*
X13051284Y-19440520D01*
X13051286Y-19440521D01*
X13051290Y-19440524D01*
X13188209Y-19519573D01*
X13188216Y-19519577D01*
X13300019Y-19549534D01*
X13340942Y-19560500D01*
X13340943Y-19560500D01*
X16379337Y-19560500D01*
X16445308Y-19579505D01*
X16542310Y-19640456D01*
X16663621Y-19682904D01*
X16701943Y-19696314D01*
X16869997Y-19715249D01*
X16870000Y-19715249D01*
X16870003Y-19715249D01*
X17038056Y-19696314D01*
X17038059Y-19696313D01*
X17197690Y-19640456D01*
X17197692Y-19640454D01*
X17197694Y-19640454D01*
X17197697Y-19640452D01*
X17340884Y-19550481D01*
X17340884Y-19550480D01*
X17340890Y-19550477D01*
X17439325Y-19452041D01*
X17500644Y-19418559D01*
X17570336Y-19423543D01*
X17626270Y-19465414D01*
X17650687Y-19530878D01*
X17645666Y-19575714D01*
X17643252Y-19583670D01*
X17624901Y-19770000D01*
X17643252Y-19956331D01*
X17643253Y-19956333D01*
X17697604Y-20135502D01*
X17785862Y-20300623D01*
X17785864Y-20300626D01*
X17904642Y-20445357D01*
X18054084Y-20568001D01*
X18052780Y-20569589D01*
X18091573Y-20615998D01*
X18100289Y-20685322D01*
X18070141Y-20748352D01*
X18010702Y-20785078D01*
X17977883Y-20789500D01*
X14588163Y-20789500D01*
X14521124Y-20769815D01*
X14509504Y-20761358D01*
X14490625Y-20745864D01*
X14490624Y-20745863D01*
X14490621Y-20745861D01*
X14490619Y-20745860D01*
X14325502Y-20657604D01*
X14146333Y-20603253D01*
X14146331Y-20603252D01*
X13960000Y-20584901D01*
X13773668Y-20603253D01*
X13689322Y-20628838D01*
X13670254Y-20632466D01*
X13670319Y-20632888D01*
X13665932Y-20633562D01*
X12994805Y-20786404D01*
X12967270Y-20789500D01*
X6233789Y-20789500D01*
X6204607Y-20786017D01*
X6172450Y-20778230D01*
X6110039Y-20763118D01*
X6049515Y-20728209D01*
X6018284Y-20669988D01*
X5994534Y-20565112D01*
X5991472Y-20537725D01*
X5991472Y-12562726D01*
X5994568Y-12535192D01*
X6034975Y-12357766D01*
X6147409Y-11864063D01*
X6149722Y-11853374D01*
X6149722Y-11853371D01*
X6150731Y-11848710D01*
X6150826Y-11848730D01*
X6153764Y-11835295D01*
X6177719Y-11756331D01*
X6196071Y-11570000D01*
X6189832Y-11506654D01*
X6202851Y-11438008D01*
X6250916Y-11387298D01*
X6313235Y-11370500D01*
X8479337Y-11370500D01*
X8545308Y-11389505D01*
X8642310Y-11450456D01*
X8763621Y-11492904D01*
X8801943Y-11506314D01*
X8969997Y-11525249D01*
X8970000Y-11525249D01*
X8970003Y-11525249D01*
X9138056Y-11506314D01*
X9138059Y-11506313D01*
X9297690Y-11450456D01*
X9297692Y-11450454D01*
X9297694Y-11450454D01*
X9297697Y-11450452D01*
X9440884Y-11360481D01*
X9440885Y-11360480D01*
X9440890Y-11360477D01*
X9560477Y-11240890D01*
X9572106Y-11222383D01*
X9650452Y-11097697D01*
X9650454Y-11097694D01*
X9650454Y-11097692D01*
X9650456Y-11097690D01*
X9706313Y-10938059D01*
X9706313Y-10938058D01*
X9706314Y-10938056D01*
X9725249Y-10770002D01*
X9725249Y-10769997D01*
X9706314Y-10601943D01*
X9650454Y-10442305D01*
X9650452Y-10442302D01*
X9560481Y-10299115D01*
X9560476Y-10299109D01*
X9440890Y-10179523D01*
X9440884Y-10179518D01*
X9297697Y-10089547D01*
X9297694Y-10089545D01*
X9138056Y-10033685D01*
X8970003Y-10014751D01*
X8969997Y-10014751D01*
X8801943Y-10033685D01*
X8642307Y-10089545D01*
X8545309Y-10150494D01*
X8479337Y-10169500D01*
X4450940Y-10169500D01*
X4410019Y-10180464D01*
X4410019Y-10180465D01*
X4398062Y-10183669D01*
X4298214Y-10210423D01*
X4298209Y-10210426D01*
X4161290Y-10289475D01*
X4161282Y-10289481D01*
X3139481Y-11311282D01*
X3139479Y-11311285D01*
X3111736Y-11359339D01*
X3111735Y-11359341D01*
X3060423Y-11448214D01*
X3059708Y-11450884D01*
X3019499Y-11600943D01*
X3019499Y-11600945D01*
X3019499Y-11769046D01*
X3019500Y-11769059D01*
X3019500Y-12357766D01*
X2999815Y-12424805D01*
X2947011Y-12470560D01*
X2881617Y-12480986D01*
X2737519Y-12464751D01*
X2737512Y-12464751D01*
X2569458Y-12483685D01*
X2409820Y-12539545D01*
X2409817Y-12539547D01*
X2266630Y-12629518D01*
X2266624Y-12629523D01*
X2147038Y-12749109D01*
X2147033Y-12749115D01*
X2057062Y-12892302D01*
X2057060Y-12892305D01*
X2001200Y-13051943D01*
X1982266Y-13219997D01*
X1982266Y-13220002D01*
X2001201Y-13388056D01*
X2021495Y-13446055D01*
X2026529Y-13465248D01*
X2029973Y-13484572D01*
X2095482Y-13682799D01*
X2097828Y-13752629D01*
X2095711Y-13759919D01*
X2031447Y-13958315D01*
X2022273Y-13990161D01*
X2021230Y-13995509D01*
X2020857Y-13995436D01*
X2016204Y-14016167D01*
X2003686Y-14051943D01*
X1984751Y-14219997D01*
X1984751Y-14220002D01*
X2003685Y-14388056D01*
X2059545Y-14547694D01*
X2059547Y-14547697D01*
X2149518Y-14690884D01*
X2149523Y-14690890D01*
X2269109Y-14810476D01*
X2269112Y-14810478D01*
X2355892Y-14865007D01*
X2402183Y-14917342D01*
X2412830Y-14986395D01*
X2384455Y-15050244D01*
X2355892Y-15074993D01*
X2269112Y-15129521D01*
X2269109Y-15129523D01*
X2149523Y-15249109D01*
X2149518Y-15249115D01*
X2059547Y-15392302D01*
X2059545Y-15392305D01*
X2003685Y-15551943D01*
X1984751Y-15719997D01*
X1984751Y-15720002D01*
X2003685Y-15888056D01*
X2059545Y-16047694D01*
X2059547Y-16047697D01*
X2153227Y-16196786D01*
X2151392Y-16197938D01*
X2173865Y-16252990D01*
X2161106Y-16321685D01*
X2113233Y-16372577D01*
X2112510Y-16372998D01*
X1997335Y-16439494D01*
X1899496Y-16537333D01*
X1899492Y-16537338D01*
X1830313Y-16657161D01*
X1830312Y-16657164D01*
X1794500Y-16790817D01*
X1794500Y-16929183D01*
X1829844Y-17061087D01*
X1830312Y-17062835D01*
X1830313Y-17062838D01*
X1899492Y-17182661D01*
X1899494Y-17182664D01*
X1899495Y-17182665D01*
X1997335Y-17280505D01*
X2117164Y-17349688D01*
X2250817Y-17385500D01*
X2250819Y-17385500D01*
X2389181Y-17385500D01*
X2389183Y-17385500D01*
X2522836Y-17349688D01*
X2642665Y-17280505D01*
X2740505Y-17182665D01*
X2809688Y-17062836D01*
X2845500Y-16929183D01*
X2845500Y-16790817D01*
X2809688Y-16657164D01*
X2801511Y-16643001D01*
X2785039Y-16575104D01*
X2807891Y-16509077D01*
X2862812Y-16465886D01*
X2895015Y-16457782D01*
X2908059Y-16456313D01*
X3067690Y-16400456D01*
X3067692Y-16400454D01*
X3067694Y-16400454D01*
X3067697Y-16400452D01*
X3210884Y-16310481D01*
X3210885Y-16310480D01*
X3210890Y-16310477D01*
X3330477Y-16190890D01*
X3337604Y-16179548D01*
X3420452Y-16047697D01*
X3420455Y-16047691D01*
X3420456Y-16047690D01*
X3476313Y-15888059D01*
X3478456Y-15869037D01*
X3505519Y-15804625D01*
X3513985Y-15795248D01*
X3978506Y-15330728D01*
X3978511Y-15330724D01*
X3988714Y-15320520D01*
X3988716Y-15320520D01*
X4100520Y-15208716D01*
X4177445Y-15075477D01*
X4177725Y-15074993D01*
X4177774Y-15074907D01*
X4179577Y-15071785D01*
X4220501Y-14919057D01*
X4220501Y-14760943D01*
X4220501Y-14753348D01*
X4220500Y-14753330D01*
X4220500Y-12466250D01*
X4240185Y-12399211D01*
X4292989Y-12353456D01*
X4362147Y-12343512D01*
X4425703Y-12372537D01*
X4463477Y-12431315D01*
X4465403Y-12438713D01*
X4487375Y-12535192D01*
X4487376Y-12535194D01*
X4490472Y-12562729D01*
X4490472Y-20537170D01*
X4487340Y-20564865D01*
X4333711Y-21235339D01*
X4330320Y-21250935D01*
X4330248Y-21250919D01*
X4327275Y-21264476D01*
X4303252Y-21343668D01*
X4284901Y-21530000D01*
X4303252Y-21716331D01*
X4303253Y-21716333D01*
X4357604Y-21895502D01*
X4445862Y-22060623D01*
X4445864Y-22060626D01*
X4564642Y-22205357D01*
X4709373Y-22324135D01*
X4709376Y-22324137D01*
X4728089Y-22334139D01*
X4874499Y-22412396D01*
X5053666Y-22466746D01*
X5053668Y-22466747D01*
X5070374Y-22468392D01*
X5240000Y-22485099D01*
X5426331Y-22466747D01*
X5506409Y-22442454D01*
X5525113Y-22438328D01*
X5527765Y-22437953D01*
X5527779Y-22437953D01*
X6202072Y-22293260D01*
X6228088Y-22290500D01*
X11806082Y-22290500D01*
X12967275Y-22290500D01*
X12994809Y-22293595D01*
X13665935Y-22446437D01*
X13676625Y-22448750D01*
X13676627Y-22448750D01*
X13681284Y-22449758D01*
X13681263Y-22449852D01*
X13694703Y-22452793D01*
X13773666Y-22476746D01*
X13773668Y-22476747D01*
X13790374Y-22478392D01*
X13960000Y-22495099D01*
X14146331Y-22476747D01*
X14325501Y-22422396D01*
X14490625Y-22334136D01*
X14509497Y-22318647D01*
X14573806Y-22291334D01*
X14588163Y-22290500D01*
X41428247Y-22290500D01*
X41455781Y-22293595D01*
X42126907Y-22446437D01*
X42137597Y-22448750D01*
X42137599Y-22448750D01*
X42142256Y-22449758D01*
X42142235Y-22449852D01*
X42155675Y-22452793D01*
X42234638Y-22476746D01*
X42234640Y-22476747D01*
X42251346Y-22478392D01*
X42420972Y-22495099D01*
X42607303Y-22476747D01*
X42786473Y-22422396D01*
X42951597Y-22334136D01*
X43096329Y-22215357D01*
X43215108Y-22070625D01*
X43303368Y-21905501D01*
X43357719Y-21726331D01*
X43376071Y-21540000D01*
X43357719Y-21353669D01*
X43303368Y-21174499D01*
X43215108Y-21009375D01*
X43215107Y-21009373D01*
X43096329Y-20864642D01*
X42951598Y-20745864D01*
X42951595Y-20745862D01*
X42786474Y-20657604D01*
X42719862Y-20637397D01*
X42661423Y-20599099D01*
X42632967Y-20535287D01*
X42643528Y-20466220D01*
X42668174Y-20431059D01*
X46862607Y-16236626D01*
X46895752Y-16212945D01*
X47188136Y-16069781D01*
X47192927Y-16067211D01*
X47201419Y-16063475D01*
X47207682Y-16060458D01*
X47207690Y-16060456D01*
X47216722Y-16054780D01*
X47219284Y-16053291D01*
X47221050Y-16052127D01*
X47221061Y-16052122D01*
X47221070Y-16052114D01*
X47222169Y-16051391D01*
X47224361Y-16049980D01*
X47350890Y-15970477D01*
X47470477Y-15850890D01*
X47490477Y-15819061D01*
X47560452Y-15707697D01*
X47560454Y-15707694D01*
X47560454Y-15707692D01*
X47560456Y-15707690D01*
X47616313Y-15548059D01*
X47616313Y-15548058D01*
X47616314Y-15548056D01*
X47635249Y-15380002D01*
X47635249Y-15379997D01*
X47616314Y-15211943D01*
X47585860Y-15124913D01*
X47560456Y-15052310D01*
X47560455Y-15052309D01*
X47560454Y-15052305D01*
X47560452Y-15052302D01*
X47470481Y-14909115D01*
X47470476Y-14909109D01*
X47350890Y-14789523D01*
X47350884Y-14789518D01*
X47207697Y-14699547D01*
X47207694Y-14699545D01*
X47048056Y-14643685D01*
X46880003Y-14624751D01*
X46879997Y-14624751D01*
X46711943Y-14643685D01*
X46552305Y-14699545D01*
X46552302Y-14699547D01*
X46409115Y-14789518D01*
X46409109Y-14789523D01*
X46289523Y-14909109D01*
X46199539Y-15052317D01*
X46197074Y-15057436D01*
X46194941Y-15061657D01*
X46041331Y-15351687D01*
X46019432Y-15381331D01*
X43542181Y-17858583D01*
X43480858Y-17892068D01*
X43411166Y-17887084D01*
X43355233Y-17845212D01*
X43330816Y-17779748D01*
X43330500Y-17770902D01*
X43330500Y-15829060D01*
X43330501Y-15829047D01*
X43330501Y-15660944D01*
X43330501Y-15660943D01*
X43289577Y-15508216D01*
X43279293Y-15490403D01*
X43210524Y-15371290D01*
X43210518Y-15371282D01*
X39171416Y-11332181D01*
X39137931Y-11270858D01*
X39142915Y-11201166D01*
X39184787Y-11145233D01*
X39250251Y-11120816D01*
X39259097Y-11120500D01*
X39807054Y-11120500D01*
X48517374Y-11120500D01*
X48541850Y-11122939D01*
X49219563Y-11259403D01*
X49224046Y-11260284D01*
X49224050Y-11260284D01*
X49227454Y-11260953D01*
X49239536Y-11263964D01*
X49314641Y-11286747D01*
X49314640Y-11286747D01*
X49331346Y-11288392D01*
X49500972Y-11305099D01*
X49687303Y-11286747D01*
X49763901Y-11263510D01*
X49778075Y-11260478D01*
X49778035Y-11260278D01*
X50374450Y-11140185D01*
X50460093Y-11122939D01*
X50484570Y-11120500D01*
X55678174Y-11120500D01*
X55731510Y-11132556D01*
X56456078Y-11477792D01*
X56549342Y-11510119D01*
X56551972Y-11511066D01*
X56560712Y-11514325D01*
X56570050Y-11517808D01*
X56625985Y-11559677D01*
X56650405Y-11625140D01*
X56635555Y-11693414D01*
X56614403Y-11721672D01*
X56492475Y-11843600D01*
X56356937Y-12037169D01*
X56356936Y-12037171D01*
X56257070Y-12251335D01*
X56257066Y-12251344D01*
X56195910Y-12479586D01*
X56195908Y-12479596D01*
X56175313Y-12714999D01*
X56175313Y-12715000D01*
X56195908Y-12950403D01*
X56195910Y-12950413D01*
X56257066Y-13178655D01*
X56257068Y-13178659D01*
X56257069Y-13178663D01*
X56276345Y-13220000D01*
X56356937Y-13392830D01*
X56356939Y-13392834D01*
X56492473Y-13586395D01*
X56492478Y-13586402D01*
X56659569Y-13753493D01*
X56659575Y-13753498D01*
X56845130Y-13883425D01*
X56888755Y-13938002D01*
X56895949Y-14007500D01*
X56864426Y-14069855D01*
X56845130Y-14086575D01*
X56659569Y-14216505D01*
X56492477Y-14383597D01*
X56356937Y-14577169D01*
X56356936Y-14577171D01*
X56257070Y-14791335D01*
X56257066Y-14791344D01*
X56195910Y-15019586D01*
X56195908Y-15019596D01*
X56175313Y-15254999D01*
X56175313Y-15255000D01*
X56195908Y-15490403D01*
X56195910Y-15490413D01*
X56257066Y-15718655D01*
X56257068Y-15718659D01*
X56257069Y-15718663D01*
X56336060Y-15888059D01*
X56356937Y-15932830D01*
X56356939Y-15932834D01*
X56448416Y-16063475D01*
X56492477Y-16126401D01*
X56659571Y-16293495D01*
X56718132Y-16334500D01*
X56853137Y-16429032D01*
X56853139Y-16429033D01*
X56853142Y-16429035D01*
X57067309Y-16528903D01*
X57067315Y-16528904D01*
X57067316Y-16528905D01*
X57098778Y-16537335D01*
X57295564Y-16590063D01*
X57483890Y-16606539D01*
X57530971Y-16610659D01*
X57530972Y-16610659D01*
X57530973Y-16610659D01*
X57570206Y-16607226D01*
X57766380Y-16590063D01*
X57994635Y-16528903D01*
X58208802Y-16429035D01*
X58402373Y-16293495D01*
X58487819Y-16208049D01*
X58549142Y-16174564D01*
X58618834Y-16179548D01*
X58674767Y-16221420D01*
X58699184Y-16286884D01*
X58699500Y-16295730D01*
X58699500Y-24936519D01*
X58699305Y-24943472D01*
X58682602Y-25240893D01*
X58681045Y-25254711D01*
X58631730Y-25544953D01*
X58628636Y-25558510D01*
X58547133Y-25841413D01*
X58542540Y-25854537D01*
X58429879Y-26126527D01*
X58423846Y-26139056D01*
X58281436Y-26396726D01*
X58274038Y-26408500D01*
X58103676Y-26648604D01*
X58095006Y-26659476D01*
X57898830Y-26878997D01*
X57888997Y-26888830D01*
X57669476Y-27085006D01*
X57658604Y-27093676D01*
X57418500Y-27264038D01*
X57406726Y-27271436D01*
X57149056Y-27413846D01*
X57136527Y-27419879D01*
X56864537Y-27532540D01*
X56851413Y-27537133D01*
X56568510Y-27618636D01*
X56554953Y-27621730D01*
X56264711Y-27671045D01*
X56250893Y-27672602D01*
X55953472Y-27689305D01*
X55946519Y-27689500D01*
X50620730Y-27689500D01*
X50553691Y-27669815D01*
X50507936Y-27617011D01*
X50497992Y-27547853D01*
X50527017Y-27484297D01*
X50533049Y-27477819D01*
X50539467Y-27471401D01*
X50675007Y-27277830D01*
X50774875Y-27063663D01*
X50836035Y-26835408D01*
X50856631Y-26600000D01*
X50836035Y-26364592D01*
X50774875Y-26136337D01*
X50675007Y-25922171D01*
X50669397Y-25914158D01*
X50539466Y-25728597D01*
X50372374Y-25561506D01*
X50372367Y-25561501D01*
X50368095Y-25558510D01*
X50333493Y-25534281D01*
X50178806Y-25425967D01*
X50178802Y-25425965D01*
X50178800Y-25425964D01*
X49964635Y-25326097D01*
X49964631Y-25326096D01*
X49964627Y-25326094D01*
X49736385Y-25264938D01*
X49736375Y-25264936D01*
X49500973Y-25244341D01*
X49500971Y-25244341D01*
X49265568Y-25264936D01*
X49265558Y-25264938D01*
X49037316Y-25326094D01*
X49037307Y-25326098D01*
X48823143Y-25425964D01*
X48823141Y-25425965D01*
X48629569Y-25561505D01*
X48462477Y-25728597D01*
X48332547Y-25914158D01*
X48277970Y-25957783D01*
X48208472Y-25964977D01*
X48146117Y-25933454D01*
X48129397Y-25914158D01*
X47999466Y-25728597D01*
X47832374Y-25561506D01*
X47832367Y-25561501D01*
X47828095Y-25558510D01*
X47793493Y-25534281D01*
X47638806Y-25425967D01*
X47638802Y-25425965D01*
X47638800Y-25425964D01*
X47424635Y-25326097D01*
X47424631Y-25326096D01*
X47424627Y-25326094D01*
X47196385Y-25264938D01*
X47196375Y-25264936D01*
X46960973Y-25244341D01*
X46960971Y-25244341D01*
X46725568Y-25264936D01*
X46725558Y-25264938D01*
X46497316Y-25326094D01*
X46497307Y-25326098D01*
X46283143Y-25425964D01*
X46283141Y-25425965D01*
X46089569Y-25561505D01*
X45922477Y-25728597D01*
X45792547Y-25914158D01*
X45737970Y-25957783D01*
X45668472Y-25964977D01*
X45606117Y-25933454D01*
X45589397Y-25914158D01*
X45459466Y-25728597D01*
X45292374Y-25561506D01*
X45292367Y-25561501D01*
X45288095Y-25558510D01*
X45253493Y-25534281D01*
X45098806Y-25425967D01*
X45098802Y-25425965D01*
X45098800Y-25425964D01*
X44884635Y-25326097D01*
X44884631Y-25326096D01*
X44884627Y-25326094D01*
X44656385Y-25264938D01*
X44656375Y-25264936D01*
X44420973Y-25244341D01*
X44420971Y-25244341D01*
X44185568Y-25264936D01*
X44185558Y-25264938D01*
X43957316Y-25326094D01*
X43957307Y-25326098D01*
X43743143Y-25425964D01*
X43743141Y-25425965D01*
X43549569Y-25561505D01*
X43382477Y-25728597D01*
X43252547Y-25914158D01*
X43197970Y-25957783D01*
X43128472Y-25964977D01*
X43066117Y-25933454D01*
X43049397Y-25914158D01*
X42919466Y-25728597D01*
X42752374Y-25561506D01*
X42752367Y-25561501D01*
X42748095Y-25558510D01*
X42713493Y-25534281D01*
X42558806Y-25425967D01*
X42558802Y-25425965D01*
X42558800Y-25425964D01*
X42344635Y-25326097D01*
X42344631Y-25326096D01*
X42344627Y-25326094D01*
X42116385Y-25264938D01*
X42116375Y-25264936D01*
X41880973Y-25244341D01*
X41880971Y-25244341D01*
X41645568Y-25264936D01*
X41645558Y-25264938D01*
X41417316Y-25326094D01*
X41417307Y-25326098D01*
X41203143Y-25425964D01*
X41203141Y-25425965D01*
X41009569Y-25561505D01*
X40842477Y-25728597D01*
X40712547Y-25914158D01*
X40657970Y-25957783D01*
X40588472Y-25964977D01*
X40526117Y-25933454D01*
X40509397Y-25914158D01*
X40379466Y-25728597D01*
X40212374Y-25561506D01*
X40212367Y-25561501D01*
X40208095Y-25558510D01*
X40173493Y-25534281D01*
X40018806Y-25425967D01*
X40018802Y-25425965D01*
X40018800Y-25425964D01*
X39804635Y-25326097D01*
X39804631Y-25326096D01*
X39804627Y-25326094D01*
X39576385Y-25264938D01*
X39576375Y-25264936D01*
X39340973Y-25244341D01*
X39340971Y-25244341D01*
X39105568Y-25264936D01*
X39105558Y-25264938D01*
X38877316Y-25326094D01*
X38877307Y-25326098D01*
X38663143Y-25425964D01*
X38663141Y-25425965D01*
X38469569Y-25561505D01*
X38302477Y-25728597D01*
X38172547Y-25914158D01*
X38117970Y-25957783D01*
X38048472Y-25964977D01*
X37986117Y-25933454D01*
X37969397Y-25914158D01*
X37839466Y-25728597D01*
X37672374Y-25561506D01*
X37672367Y-25561501D01*
X37668095Y-25558510D01*
X37633493Y-25534281D01*
X37478806Y-25425967D01*
X37478802Y-25425965D01*
X37478800Y-25425964D01*
X37264635Y-25326097D01*
X37264631Y-25326096D01*
X37264627Y-25326094D01*
X37036385Y-25264938D01*
X37036375Y-25264936D01*
X36800973Y-25244341D01*
X36800971Y-25244341D01*
X36565568Y-25264936D01*
X36565558Y-25264938D01*
X36337316Y-25326094D01*
X36337307Y-25326098D01*
X36123143Y-25425964D01*
X36123141Y-25425965D01*
X35929569Y-25561505D01*
X35762477Y-25728597D01*
X35632547Y-25914158D01*
X35577970Y-25957783D01*
X35508472Y-25964977D01*
X35446117Y-25933454D01*
X35429397Y-25914158D01*
X35299466Y-25728597D01*
X35132374Y-25561506D01*
X35132367Y-25561501D01*
X35128095Y-25558510D01*
X35093493Y-25534281D01*
X34938806Y-25425967D01*
X34938802Y-25425965D01*
X34938800Y-25425964D01*
X34724635Y-25326097D01*
X34724631Y-25326096D01*
X34724627Y-25326094D01*
X34496385Y-25264938D01*
X34496375Y-25264936D01*
X34260973Y-25244341D01*
X34260971Y-25244341D01*
X34025568Y-25264936D01*
X34025558Y-25264938D01*
X33797316Y-25326094D01*
X33797307Y-25326098D01*
X33583143Y-25425964D01*
X33583141Y-25425965D01*
X33389569Y-25561505D01*
X33222477Y-25728597D01*
X33092547Y-25914158D01*
X33037970Y-25957783D01*
X32968472Y-25964977D01*
X32906117Y-25933454D01*
X32889397Y-25914158D01*
X32759466Y-25728597D01*
X32592374Y-25561506D01*
X32592367Y-25561501D01*
X32588095Y-25558510D01*
X32553493Y-25534281D01*
X32398806Y-25425967D01*
X32398802Y-25425965D01*
X32398800Y-25425964D01*
X32184635Y-25326097D01*
X32184631Y-25326096D01*
X32184627Y-25326094D01*
X31956385Y-25264938D01*
X31956375Y-25264936D01*
X31720973Y-25244341D01*
X31720971Y-25244341D01*
X31485568Y-25264936D01*
X31485558Y-25264938D01*
X31257316Y-25326094D01*
X31257307Y-25326098D01*
X31043143Y-25425964D01*
X31043141Y-25425965D01*
X30849569Y-25561505D01*
X30682477Y-25728597D01*
X30552547Y-25914158D01*
X30497970Y-25957783D01*
X30428472Y-25964977D01*
X30366117Y-25933454D01*
X30349397Y-25914158D01*
X30219466Y-25728597D01*
X30052374Y-25561506D01*
X30052367Y-25561501D01*
X30048095Y-25558510D01*
X30013493Y-25534281D01*
X29858806Y-25425967D01*
X29858802Y-25425965D01*
X29858800Y-25425964D01*
X29644635Y-25326097D01*
X29644631Y-25326096D01*
X29644627Y-25326094D01*
X29416385Y-25264938D01*
X29416375Y-25264936D01*
X29180973Y-25244341D01*
X29180971Y-25244341D01*
X28945568Y-25264936D01*
X28945558Y-25264938D01*
X28717316Y-25326094D01*
X28717307Y-25326098D01*
X28503143Y-25425964D01*
X28503141Y-25425965D01*
X28309569Y-25561505D01*
X28142477Y-25728597D01*
X28012547Y-25914158D01*
X27957970Y-25957783D01*
X27888472Y-25964977D01*
X27826117Y-25933454D01*
X27809397Y-25914158D01*
X27679466Y-25728597D01*
X27512374Y-25561506D01*
X27512367Y-25561501D01*
X27508095Y-25558510D01*
X27473493Y-25534281D01*
X27318806Y-25425967D01*
X27318802Y-25425965D01*
X27318800Y-25425964D01*
X27104635Y-25326097D01*
X27104631Y-25326096D01*
X27104627Y-25326094D01*
X26876385Y-25264938D01*
X26876375Y-25264936D01*
X26640973Y-25244341D01*
X26640971Y-25244341D01*
X26405568Y-25264936D01*
X26405558Y-25264938D01*
X26177316Y-25326094D01*
X26177307Y-25326098D01*
X25963143Y-25425964D01*
X25963141Y-25425965D01*
X25769569Y-25561505D01*
X25602477Y-25728597D01*
X25472547Y-25914158D01*
X25417970Y-25957783D01*
X25348472Y-25964977D01*
X25286117Y-25933454D01*
X25269397Y-25914158D01*
X25139466Y-25728597D01*
X24972374Y-25561506D01*
X24972367Y-25561501D01*
X24968095Y-25558510D01*
X24933493Y-25534281D01*
X24778806Y-25425967D01*
X24778802Y-25425965D01*
X24778800Y-25425964D01*
X24564635Y-25326097D01*
X24564631Y-25326096D01*
X24564627Y-25326094D01*
X24336385Y-25264938D01*
X24336375Y-25264936D01*
X24100973Y-25244341D01*
X24100971Y-25244341D01*
X23865568Y-25264936D01*
X23865558Y-25264938D01*
X23637316Y-25326094D01*
X23637307Y-25326098D01*
X23423143Y-25425964D01*
X23423141Y-25425965D01*
X23229569Y-25561505D01*
X23062477Y-25728597D01*
X22932547Y-25914158D01*
X22877970Y-25957783D01*
X22808472Y-25964977D01*
X22746117Y-25933454D01*
X22729397Y-25914158D01*
X22599466Y-25728597D01*
X22432374Y-25561506D01*
X22432367Y-25561501D01*
X22428095Y-25558510D01*
X22393493Y-25534281D01*
X22238806Y-25425967D01*
X22238802Y-25425965D01*
X22238800Y-25425964D01*
X22024635Y-25326097D01*
X22024631Y-25326096D01*
X22024627Y-25326094D01*
X21796385Y-25264938D01*
X21796375Y-25264936D01*
X21560973Y-25244341D01*
X21560971Y-25244341D01*
X21325568Y-25264936D01*
X21325558Y-25264938D01*
X21097316Y-25326094D01*
X21097307Y-25326098D01*
X20883143Y-25425964D01*
X20883141Y-25425965D01*
X20689569Y-25561505D01*
X20522477Y-25728597D01*
X20392547Y-25914158D01*
X20337970Y-25957783D01*
X20268472Y-25964977D01*
X20206117Y-25933454D01*
X20189397Y-25914158D01*
X20059466Y-25728597D01*
X19892374Y-25561506D01*
X19892367Y-25561501D01*
X19888095Y-25558510D01*
X19853493Y-25534281D01*
X19698806Y-25425967D01*
X19698802Y-25425965D01*
X19698800Y-25425964D01*
X19484635Y-25326097D01*
X19484631Y-25326096D01*
X19484627Y-25326094D01*
X19256385Y-25264938D01*
X19256375Y-25264936D01*
X19020973Y-25244341D01*
X19020971Y-25244341D01*
X18785568Y-25264936D01*
X18785558Y-25264938D01*
X18557316Y-25326094D01*
X18557307Y-25326098D01*
X18343143Y-25425964D01*
X18343141Y-25425965D01*
X18149569Y-25561505D01*
X17982477Y-25728597D01*
X17852547Y-25914158D01*
X17797970Y-25957783D01*
X17728472Y-25964977D01*
X17666117Y-25933454D01*
X17649397Y-25914158D01*
X17519466Y-25728597D01*
X17352374Y-25561506D01*
X17352367Y-25561501D01*
X17348095Y-25558510D01*
X17313493Y-25534281D01*
X17158806Y-25425967D01*
X17158802Y-25425965D01*
X17158800Y-25425964D01*
X16944635Y-25326097D01*
X16944631Y-25326096D01*
X16944627Y-25326094D01*
X16716385Y-25264938D01*
X16716375Y-25264936D01*
X16480973Y-25244341D01*
X16480971Y-25244341D01*
X16245568Y-25264936D01*
X16245558Y-25264938D01*
X16017316Y-25326094D01*
X16017307Y-25326098D01*
X15803143Y-25425964D01*
X15803141Y-25425965D01*
X15609569Y-25561505D01*
X15442477Y-25728597D01*
X15312547Y-25914158D01*
X15257970Y-25957783D01*
X15188472Y-25964977D01*
X15126117Y-25933454D01*
X15109397Y-25914158D01*
X14979466Y-25728597D01*
X14812374Y-25561506D01*
X14812367Y-25561501D01*
X14808095Y-25558510D01*
X14773493Y-25534281D01*
X14618806Y-25425967D01*
X14618802Y-25425965D01*
X14618800Y-25425964D01*
X14404635Y-25326097D01*
X14404631Y-25326096D01*
X14404627Y-25326094D01*
X14176385Y-25264938D01*
X14176375Y-25264936D01*
X13940973Y-25244341D01*
X13940971Y-25244341D01*
X13705568Y-25264936D01*
X13705558Y-25264938D01*
X13477316Y-25326094D01*
X13477307Y-25326098D01*
X13263143Y-25425964D01*
X13263141Y-25425965D01*
X13069569Y-25561505D01*
X12902477Y-25728597D01*
X12772547Y-25914158D01*
X12717970Y-25957783D01*
X12648472Y-25964977D01*
X12586117Y-25933454D01*
X12569397Y-25914158D01*
X12439466Y-25728597D01*
X12272374Y-25561506D01*
X12272367Y-25561501D01*
X12268095Y-25558510D01*
X12233493Y-25534281D01*
X12078806Y-25425967D01*
X12078802Y-25425965D01*
X12078800Y-25425964D01*
X11864635Y-25326097D01*
X11864631Y-25326096D01*
X11864627Y-25326094D01*
X11636385Y-25264938D01*
X11636375Y-25264936D01*
X11400973Y-25244341D01*
X11400971Y-25244341D01*
X11165568Y-25264936D01*
X11165558Y-25264938D01*
X10937316Y-25326094D01*
X10937307Y-25326098D01*
X10723143Y-25425964D01*
X10723141Y-25425965D01*
X10529569Y-25561505D01*
X10362477Y-25728597D01*
X10232547Y-25914158D01*
X10177970Y-25957783D01*
X10108472Y-25964977D01*
X10046117Y-25933454D01*
X10029397Y-25914158D01*
X9899466Y-25728597D01*
X9732374Y-25561506D01*
X9732367Y-25561501D01*
X9728095Y-25558510D01*
X9693493Y-25534281D01*
X9538806Y-25425967D01*
X9538802Y-25425965D01*
X9538800Y-25425964D01*
X9324635Y-25326097D01*
X9324631Y-25326096D01*
X9324627Y-25326094D01*
X9096385Y-25264938D01*
X9096375Y-25264936D01*
X8860973Y-25244341D01*
X8860971Y-25244341D01*
X8625568Y-25264936D01*
X8625558Y-25264938D01*
X8397316Y-25326094D01*
X8397307Y-25326098D01*
X8183143Y-25425964D01*
X8183141Y-25425965D01*
X7989569Y-25561505D01*
X7822477Y-25728597D01*
X7692547Y-25914158D01*
X7637970Y-25957783D01*
X7568472Y-25964977D01*
X7506117Y-25933454D01*
X7489397Y-25914158D01*
X7359466Y-25728597D01*
X7192374Y-25561506D01*
X7192367Y-25561501D01*
X7188095Y-25558510D01*
X7153493Y-25534281D01*
X6998806Y-25425967D01*
X6998802Y-25425965D01*
X6998800Y-25425964D01*
X6784635Y-25326097D01*
X6784631Y-25326096D01*
X6784627Y-25326094D01*
X6556385Y-25264938D01*
X6556375Y-25264936D01*
X6320973Y-25244341D01*
X6320971Y-25244341D01*
X6085568Y-25264936D01*
X6085558Y-25264938D01*
X5857316Y-25326094D01*
X5857307Y-25326098D01*
X5643143Y-25425964D01*
X5643141Y-25425965D01*
X5449569Y-25561505D01*
X5282477Y-25728597D01*
X5146937Y-25922169D01*
X5146936Y-25922171D01*
X5047070Y-26136335D01*
X5047066Y-26136344D01*
X4985910Y-26364586D01*
X4985908Y-26364596D01*
X4965313Y-26599999D01*
X4965313Y-26600000D01*
X4985908Y-26835403D01*
X4985910Y-26835413D01*
X5047066Y-27063655D01*
X5047068Y-27063659D01*
X5047069Y-27063663D01*
X5126976Y-27235023D01*
X5146937Y-27277830D01*
X5146939Y-27277834D01*
X5244535Y-27417214D01*
X5282473Y-27471396D01*
X5282478Y-27471402D01*
X5288895Y-27477819D01*
X5322380Y-27539142D01*
X5317396Y-27608834D01*
X5275524Y-27664767D01*
X5210060Y-27689184D01*
X5201214Y-27689500D01*
X-46519Y-27689500D01*
X-53472Y-27689305D01*
X-350894Y-27672602D01*
X-364712Y-27671045D01*
X-654954Y-27621730D01*
X-668511Y-27618636D01*
X-951414Y-27537133D01*
X-964538Y-27532540D01*
X-1236528Y-27419879D01*
X-1249057Y-27413846D01*
X-1506727Y-27271436D01*
X-1518501Y-27264038D01*
X-1758605Y-27093676D01*
X-1769477Y-27085006D01*
X-1988998Y-26888830D01*
X-1998831Y-26878997D01*
X-2032456Y-26841371D01*
X-2195007Y-26659476D01*
X-2203677Y-26648604D01*
X-2374039Y-26408500D01*
X-2381437Y-26396726D01*
X-2471585Y-26233616D01*
X-2523851Y-26139049D01*
X-2529880Y-26126527D01*
X-2642541Y-25854537D01*
X-2647134Y-25841413D01*
X-2728637Y-25558510D01*
X-2731731Y-25544953D01*
X-2765190Y-25348032D01*
X-2781047Y-25254703D01*
X-2782603Y-25240900D01*
X-2799305Y-24943471D01*
X-2799500Y-24936519D01*
X-2799500Y-24780000D01*
X-1904436Y-24780000D01*
X-1884827Y-25066680D01*
X-1826362Y-25348034D01*
X-1826361Y-25348037D01*
X-1730134Y-25618793D01*
X-1730135Y-25618793D01*
X-1597930Y-25873935D01*
X-1432216Y-26108700D01*
X-1347105Y-26199831D01*
X-1236081Y-26318708D01*
X-1013175Y-26500055D01*
X-768898Y-26648604D01*
X-767646Y-26649365D01*
X-621650Y-26712779D01*
X-504086Y-26763844D01*
X-227386Y-26841371D01*
X22892Y-26875771D01*
X57293Y-26880500D01*
X57294Y-26880500D01*
X344651Y-26880500D01*
X375342Y-26876281D01*
X629330Y-26841371D01*
X906030Y-26763844D01*
X1023594Y-26712779D01*
X1169589Y-26649365D01*
X1169592Y-26649363D01*
X1169597Y-26649361D01*
X1415119Y-26500055D01*
X1638025Y-26318708D01*
X1834161Y-26108698D01*
X1999873Y-25873936D01*
X2132076Y-25618797D01*
X2228306Y-25348032D01*
X2286770Y-25066686D01*
X2306380Y-24780000D01*
X53594592Y-24780000D01*
X53614201Y-25066680D01*
X53672666Y-25348034D01*
X53672667Y-25348037D01*
X53768894Y-25618793D01*
X53768893Y-25618793D01*
X53901098Y-25873935D01*
X54066812Y-26108700D01*
X54151923Y-26199831D01*
X54262947Y-26318708D01*
X54485853Y-26500055D01*
X54730130Y-26648604D01*
X54731382Y-26649365D01*
X54877378Y-26712779D01*
X54994942Y-26763844D01*
X55271642Y-26841371D01*
X55521920Y-26875771D01*
X55556321Y-26880500D01*
X55556322Y-26880500D01*
X55843679Y-26880500D01*
X55874370Y-26876281D01*
X56128358Y-26841371D01*
X56405058Y-26763844D01*
X56522622Y-26712779D01*
X56668617Y-26649365D01*
X56668620Y-26649363D01*
X56668625Y-26649361D01*
X56914147Y-26500055D01*
X57137053Y-26318708D01*
X57333189Y-26108698D01*
X57498901Y-25873936D01*
X57631104Y-25618797D01*
X57727334Y-25348032D01*
X57785798Y-25066686D01*
X57805408Y-24780000D01*
X57785798Y-24493314D01*
X57727334Y-24211968D01*
X57631105Y-23941206D01*
X57631106Y-23941206D01*
X57498901Y-23686064D01*
X57333187Y-23451299D01*
X57254554Y-23367105D01*
X57137053Y-23241292D01*
X56914147Y-23059945D01*
X56914146Y-23059944D01*
X56668617Y-22910634D01*
X56405063Y-22796158D01*
X56405061Y-22796157D01*
X56405058Y-22796156D01*
X56275578Y-22759877D01*
X56128364Y-22718630D01*
X56128359Y-22718629D01*
X56128358Y-22718629D01*
X55986018Y-22699064D01*
X55843679Y-22679500D01*
X55843678Y-22679500D01*
X55556322Y-22679500D01*
X55556321Y-22679500D01*
X55271642Y-22718629D01*
X55271635Y-22718630D01*
X55063861Y-22776845D01*
X54994942Y-22796156D01*
X54994939Y-22796156D01*
X54994936Y-22796158D01*
X54994935Y-22796158D01*
X54731382Y-22910634D01*
X54485853Y-23059944D01*
X54262950Y-23241289D01*
X54066812Y-23451299D01*
X53901098Y-23686064D01*
X53768894Y-23941206D01*
X53672667Y-24211962D01*
X53672666Y-24211965D01*
X53614201Y-24493319D01*
X53594592Y-24780000D01*
X2306380Y-24780000D01*
X2286770Y-24493314D01*
X2228306Y-24211968D01*
X2132077Y-23941206D01*
X2132078Y-23941206D01*
X1999873Y-23686064D01*
X1834159Y-23451299D01*
X1755526Y-23367105D01*
X1638025Y-23241292D01*
X1415119Y-23059945D01*
X1415118Y-23059944D01*
X1169589Y-22910634D01*
X906035Y-22796158D01*
X906033Y-22796157D01*
X906030Y-22796156D01*
X776550Y-22759877D01*
X629336Y-22718630D01*
X629331Y-22718629D01*
X629330Y-22718629D01*
X486990Y-22699064D01*
X344651Y-22679500D01*
X344650Y-22679500D01*
X57294Y-22679500D01*
X57293Y-22679500D01*
X-227386Y-22718629D01*
X-227393Y-22718630D01*
X-435167Y-22776845D01*
X-504086Y-22796156D01*
X-504089Y-22796156D01*
X-504092Y-22796158D01*
X-504093Y-22796158D01*
X-767646Y-22910634D01*
X-1013175Y-23059944D01*
X-1236078Y-23241289D01*
X-1432216Y-23451299D01*
X-1597930Y-23686064D01*
X-1730134Y-23941206D01*
X-1826361Y-24211962D01*
X-1826362Y-24211965D01*
X-1884827Y-24493319D01*
X-1904436Y-24780000D01*
X-2799500Y-24780000D01*
X-2799500Y-11010817D01*
X1794500Y-11010817D01*
X1794500Y-11149183D01*
X1829864Y-11281162D01*
X1830312Y-11282835D01*
X1830313Y-11282838D01*
X1899492Y-11402661D01*
X1899494Y-11402664D01*
X1899495Y-11402665D01*
X1997335Y-11500505D01*
X1997336Y-11500506D01*
X1997338Y-11500507D01*
X2014768Y-11510570D01*
X2117164Y-11569688D01*
X2250817Y-11605500D01*
X2250819Y-11605500D01*
X2389181Y-11605500D01*
X2389183Y-11605500D01*
X2522836Y-11569688D01*
X2642665Y-11500505D01*
X2740505Y-11402665D01*
X2809688Y-11282836D01*
X2845500Y-11149183D01*
X2845500Y-11010817D01*
X2809688Y-10877164D01*
X2747817Y-10770000D01*
X2740507Y-10757338D01*
X2740503Y-10757333D01*
X2642666Y-10659496D01*
X2642661Y-10659492D01*
X2522838Y-10590313D01*
X2522837Y-10590312D01*
X2522836Y-10590312D01*
X2389183Y-10554500D01*
X2250817Y-10554500D01*
X2117164Y-10590312D01*
X2117161Y-10590313D01*
X1997338Y-10659492D01*
X1997333Y-10659496D01*
X1899496Y-10757333D01*
X1899492Y-10757338D01*
X1830313Y-10877161D01*
X1830312Y-10877164D01*
X1794500Y-11010817D01*
X-2799500Y-11010817D01*
X-2799500Y-3160000D01*
X-1904436Y-3160000D01*
X-1884827Y-3446680D01*
X-1826362Y-3728034D01*
X-1826361Y-3728037D01*
X-1730134Y-3998793D01*
X-1730135Y-3998793D01*
X-1597930Y-4253935D01*
X-1432216Y-4488700D01*
X-1347105Y-4579831D01*
X-1236081Y-4698708D01*
X-1013175Y-4880055D01*
X-767646Y-5029365D01*
X-580791Y-5110526D01*
X-504086Y-5143844D01*
X-227386Y-5221371D01*
X22892Y-5255771D01*
X57293Y-5260500D01*
X57294Y-5260500D01*
X344651Y-5260500D01*
X375342Y-5256281D01*
X629330Y-5221371D01*
X906030Y-5143844D01*
X1018987Y-5094779D01*
X1169589Y-5029365D01*
X1169592Y-5029363D01*
X1169597Y-5029361D01*
X1415119Y-4880055D01*
X1638025Y-4698708D01*
X1834161Y-4488698D01*
X1999873Y-4253936D01*
X2132076Y-3998797D01*
X2228306Y-3728032D01*
X2286770Y-3446686D01*
X2306380Y-3160000D01*
X2286770Y-2873314D01*
X2228306Y-2591968D01*
X2132077Y-2321206D01*
X2132078Y-2321206D01*
X1999873Y-2066064D01*
X1834159Y-1831299D01*
X1755526Y-1747105D01*
X1638025Y-1621292D01*
X1415119Y-1439945D01*
X1415118Y-1439944D01*
X1169589Y-1290634D01*
X906035Y-1176158D01*
X906033Y-1176157D01*
X906030Y-1176156D01*
X776550Y-1139877D01*
X629336Y-1098630D01*
X629331Y-1098629D01*
X629330Y-1098629D01*
X486990Y-1079064D01*
X344651Y-1059500D01*
X344650Y-1059500D01*
X57294Y-1059500D01*
X57293Y-1059500D01*
X-227386Y-1098629D01*
X-227393Y-1098630D01*
X-435167Y-1156845D01*
X-504086Y-1176156D01*
X-504089Y-1176156D01*
X-504092Y-1176158D01*
X-504093Y-1176158D01*
X-767646Y-1290634D01*
X-1013175Y-1439944D01*
X-1236078Y-1621289D01*
X-1432216Y-1831299D01*
X-1597930Y-2066064D01*
X-1730134Y-2321206D01*
X-1826361Y-2591962D01*
X-1826362Y-2591965D01*
X-1884827Y-2873319D01*
X-1904436Y-3160000D01*
X-2799500Y-3160000D01*
X-2799500Y-3003480D01*
X-2799305Y-2996528D01*
X-2792386Y-2873314D01*
X-2782602Y-2699097D01*
X-2781048Y-2685298D01*
X-2731731Y-2395041D01*
X-2728637Y-2381489D01*
X-2711398Y-2321653D01*
X-2647133Y-2098582D01*
X-2642541Y-2085462D01*
X-2588411Y-1954780D01*
X-2529877Y-1813463D01*
X-2523855Y-1800957D01*
X-2381434Y-1543267D01*
X-2374039Y-1531499D01*
X-2309078Y-1439945D01*
X-2203670Y-1291385D01*
X-2195015Y-1280531D01*
X-1998821Y-1060991D01*
X-1989009Y-1051179D01*
X-1769469Y-854985D01*
X-1758615Y-846330D01*
X-1518496Y-675957D01*
X-1506733Y-668566D01*
X-1249043Y-526145D01*
X-1236537Y-520123D01*
X-964538Y-407459D01*
X-951418Y-402867D01*
X-668506Y-321361D01*
X-654959Y-318269D01*
X-364702Y-268952D01*
X-350903Y-267398D01*
X-90438Y-252770D01*
X-53471Y-250695D01*
X-46519Y-250500D01*
X-5830Y-250500D01*
X5201213Y-250500D01*
X5268252Y-270185D01*
G37*
%TD.AperFunction*%
%TA.AperFunction,Conductor*%
G36*
X55953471Y-250695D02*
G01*
X55994188Y-252981D01*
X56250900Y-267397D01*
X56264703Y-268953D01*
X56554953Y-318269D01*
X56568510Y-321363D01*
X56851413Y-402866D01*
X56864537Y-407459D01*
X57136527Y-520120D01*
X57149049Y-526149D01*
X57347673Y-635925D01*
X57406726Y-668563D01*
X57418500Y-675961D01*
X57658604Y-846323D01*
X57669476Y-854993D01*
X57888997Y-1051169D01*
X57898828Y-1061000D01*
X57932456Y-1098630D01*
X58095006Y-1280523D01*
X58103676Y-1291395D01*
X58274038Y-1531499D01*
X58281436Y-1543273D01*
X58423846Y-1800943D01*
X58429879Y-1813472D01*
X58542540Y-2085462D01*
X58547133Y-2098586D01*
X58628636Y-2381489D01*
X58631730Y-2395046D01*
X58681045Y-2685288D01*
X58682602Y-2699106D01*
X58699305Y-2996527D01*
X58699500Y-3003480D01*
X58699500Y-8731030D01*
X58679815Y-8798069D01*
X58627011Y-8843824D01*
X58557853Y-8853768D01*
X58532168Y-8847212D01*
X58488457Y-8830909D01*
X58488455Y-8830908D01*
X58428855Y-8824501D01*
X58428853Y-8824500D01*
X58428845Y-8824500D01*
X58428836Y-8824500D01*
X56633101Y-8824500D01*
X56633095Y-8824501D01*
X56573488Y-8830908D01*
X56438643Y-8881202D01*
X56438636Y-8881206D01*
X56323427Y-8967452D01*
X56323424Y-8967455D01*
X56237177Y-9082665D01*
X56237176Y-9082667D01*
X56224291Y-9117214D01*
X56187139Y-9169432D01*
X55677364Y-9591053D01*
X55613159Y-9618611D01*
X55598335Y-9619500D01*
X50495962Y-9619500D01*
X50465140Y-9615608D01*
X49808663Y-9447141D01*
X49791293Y-9443009D01*
X49787943Y-9442492D01*
X49770877Y-9438605D01*
X49687305Y-9413253D01*
X49687303Y-9413252D01*
X49500972Y-9394901D01*
X49314641Y-9413252D01*
X49219403Y-9442142D01*
X49196836Y-9446752D01*
X49193299Y-9447137D01*
X49193290Y-9447138D01*
X48536803Y-9615608D01*
X48505981Y-9619500D01*
X40694414Y-9619500D01*
X40627375Y-9599815D01*
X40581620Y-9547011D01*
X40577372Y-9536454D01*
X40551427Y-9462306D01*
X40461453Y-9319115D01*
X40461448Y-9319109D01*
X40341862Y-9199523D01*
X40341856Y-9199518D01*
X40198669Y-9109547D01*
X40198666Y-9109545D01*
X40039028Y-9053685D01*
X39870975Y-9034751D01*
X39870969Y-9034751D01*
X39702915Y-9053685D01*
X39543277Y-9109545D01*
X39543274Y-9109547D01*
X39400087Y-9199518D01*
X39400081Y-9199523D01*
X39280495Y-9319109D01*
X39280490Y-9319115D01*
X39190516Y-9462306D01*
X39164572Y-9536454D01*
X39123850Y-9593230D01*
X39058898Y-9618978D01*
X39047530Y-9619500D01*
X31919185Y-9619500D01*
X31852146Y-9599815D01*
X31806391Y-9547011D01*
X31797531Y-9506287D01*
X31795864Y-9506463D01*
X31791355Y-9463562D01*
X31776497Y-9322197D01*
X31741127Y-9213341D01*
X31721252Y-9152170D01*
X31721249Y-9152164D01*
X31631859Y-8997335D01*
X31578654Y-8938245D01*
X31512235Y-8864478D01*
X31512232Y-8864476D01*
X31512231Y-8864475D01*
X31512230Y-8864474D01*
X31367593Y-8759388D01*
X31204267Y-8686671D01*
X31204265Y-8686670D01*
X31076594Y-8659533D01*
X31029391Y-8649500D01*
X30850609Y-8649500D01*
X30819954Y-8656015D01*
X30675733Y-8686670D01*
X30675728Y-8686672D01*
X30512408Y-8759387D01*
X30367768Y-8864475D01*
X30248140Y-8997336D01*
X30158750Y-9152164D01*
X30158747Y-9152170D01*
X30103504Y-9322192D01*
X30103503Y-9322194D01*
X30098385Y-9370890D01*
X30088777Y-9462310D01*
X30084136Y-9506463D01*
X30081671Y-9506204D01*
X30065130Y-9562539D01*
X30012326Y-9608294D01*
X29960815Y-9619500D01*
X27030703Y-9619500D01*
X27013166Y-9618254D01*
X27012421Y-9618147D01*
X27012416Y-9618146D01*
X26670731Y-9569333D01*
X26382358Y-9528136D01*
X26374117Y-9526673D01*
X26340366Y-9519500D01*
X26340363Y-9519500D01*
X26323980Y-9519500D01*
X26310728Y-9518790D01*
X26309737Y-9518683D01*
X26300752Y-9517717D01*
X26299156Y-9517602D01*
X26299140Y-9517601D01*
X26204007Y-9519126D01*
X26198332Y-9519500D01*
X26161577Y-9519500D01*
X26127819Y-9526674D01*
X26119580Y-9528137D01*
X25488772Y-9618254D01*
X25471235Y-9619500D01*
X23870472Y-9619500D01*
X23803433Y-9599815D01*
X23757678Y-9547011D01*
X23746472Y-9495500D01*
X23746472Y-9469108D01*
X23747252Y-9455223D01*
X23748629Y-9443008D01*
X23751221Y-9420000D01*
X23750646Y-9414901D01*
X23747252Y-9384774D01*
X23746472Y-9370890D01*
X23746472Y-9346081D01*
X23739233Y-9309692D01*
X23737631Y-9299398D01*
X23732285Y-9251941D01*
X23732284Y-9251938D01*
X23724643Y-9230101D01*
X23720066Y-9213332D01*
X23717632Y-9201095D01*
X23717630Y-9201087D01*
X23698738Y-9155477D01*
X23696257Y-9148979D01*
X23682459Y-9109547D01*
X23676428Y-9092310D01*
X23670680Y-9083162D01*
X23661115Y-9064648D01*
X23661056Y-9064505D01*
X23626806Y-9013247D01*
X23624921Y-9010338D01*
X23616109Y-8996314D01*
X23586449Y-8949110D01*
X23466862Y-8829523D01*
X23466861Y-8829522D01*
X23405649Y-8791060D01*
X23402732Y-8789169D01*
X23351467Y-8754916D01*
X23351460Y-8754912D01*
X23351312Y-8754851D01*
X23332816Y-8745295D01*
X23323666Y-8739546D01*
X23323663Y-8739544D01*
X23323662Y-8739544D01*
X23266975Y-8719708D01*
X23260502Y-8717237D01*
X23214885Y-8698342D01*
X23214883Y-8698341D01*
X23214882Y-8698341D01*
X23208771Y-8697125D01*
X23202631Y-8695904D01*
X23185874Y-8691330D01*
X23164031Y-8683687D01*
X23164032Y-8683687D01*
X23132766Y-8680163D01*
X23116586Y-8678340D01*
X23106284Y-8676739D01*
X23069890Y-8669500D01*
X23069889Y-8669500D01*
X23045082Y-8669500D01*
X23031198Y-8668720D01*
X22995974Y-8664751D01*
X22995970Y-8664751D01*
X22960746Y-8668720D01*
X22946862Y-8669500D01*
X22922054Y-8669500D01*
X22885657Y-8676739D01*
X22875354Y-8678341D01*
X22827912Y-8683687D01*
X22827911Y-8683687D01*
X22806069Y-8691330D01*
X22789313Y-8695903D01*
X22777069Y-8698339D01*
X22777060Y-8698341D01*
X22731438Y-8717237D01*
X22724946Y-8719715D01*
X22668286Y-8739542D01*
X22668281Y-8739544D01*
X22659119Y-8745300D01*
X22640629Y-8754852D01*
X22640485Y-8754911D01*
X22640471Y-8754918D01*
X22589226Y-8789159D01*
X22586311Y-8791048D01*
X22525086Y-8829519D01*
X22525079Y-8829525D01*
X22405497Y-8949107D01*
X22405491Y-8949114D01*
X22367020Y-9010339D01*
X22365131Y-9013254D01*
X22330890Y-9064499D01*
X22330883Y-9064513D01*
X22330824Y-9064657D01*
X22321272Y-9083147D01*
X22315516Y-9092309D01*
X22315514Y-9092314D01*
X22295687Y-9148974D01*
X22293209Y-9155466D01*
X22274313Y-9201088D01*
X22274311Y-9201097D01*
X22271875Y-9213341D01*
X22267302Y-9230097D01*
X22259659Y-9251939D01*
X22259659Y-9251940D01*
X22254313Y-9299382D01*
X22252711Y-9309685D01*
X22245472Y-9346081D01*
X22245472Y-9370890D01*
X22244692Y-9384774D01*
X22241298Y-9414901D01*
X22240723Y-9420000D01*
X22243315Y-9443008D01*
X22244692Y-9455223D01*
X22245472Y-9469108D01*
X22245472Y-9495500D01*
X22225787Y-9562539D01*
X22172983Y-9608294D01*
X22121472Y-9619500D01*
X15932729Y-9619500D01*
X15905194Y-9616404D01*
X15901699Y-9615608D01*
X15234064Y-9463562D01*
X15223374Y-9461249D01*
X15223373Y-9461248D01*
X15218720Y-9460242D01*
X15218740Y-9460148D01*
X15205298Y-9457206D01*
X15126331Y-9433253D01*
X15126321Y-9433252D01*
X14940000Y-9414901D01*
X14939999Y-9414901D01*
X14753668Y-9433252D01*
X14753666Y-9433253D01*
X14574497Y-9487604D01*
X14409376Y-9575862D01*
X14409373Y-9575864D01*
X14264642Y-9694642D01*
X14145864Y-9839373D01*
X14145862Y-9839376D01*
X14057604Y-10004497D01*
X14003253Y-10183666D01*
X14003252Y-10183668D01*
X13984901Y-10370000D01*
X14003252Y-10556331D01*
X14003253Y-10556333D01*
X14057604Y-10735502D01*
X14145862Y-10900623D01*
X14145864Y-10900626D01*
X14264642Y-11045357D01*
X14409373Y-11164135D01*
X14409376Y-11164137D01*
X14574497Y-11252395D01*
X14574499Y-11252396D01*
X14753666Y-11306746D01*
X14753668Y-11306747D01*
X14770374Y-11308392D01*
X14940000Y-11325099D01*
X15126331Y-11306747D01*
X15210673Y-11281160D01*
X15229738Y-11277540D01*
X15229673Y-11277112D01*
X15234050Y-11276438D01*
X15234064Y-11276437D01*
X15905190Y-11123595D01*
X15932725Y-11120500D01*
X22927054Y-11120500D01*
X22927055Y-11120500D01*
X23074889Y-11120500D01*
X23577055Y-11120500D01*
X23597054Y-11120500D01*
X23744889Y-11120500D01*
X25471234Y-11120500D01*
X25488770Y-11121746D01*
X25489525Y-11121853D01*
X25489529Y-11121855D01*
X26119600Y-11211863D01*
X26127809Y-11213321D01*
X26161581Y-11220500D01*
X26177932Y-11220500D01*
X26191205Y-11221212D01*
X26200977Y-11222265D01*
X26202599Y-11222383D01*
X26202612Y-11222382D01*
X26202616Y-11222383D01*
X26297901Y-11220875D01*
X26303604Y-11220500D01*
X26340360Y-11220500D01*
X26340363Y-11220500D01*
X26374139Y-11213320D01*
X26382339Y-11211864D01*
X27012415Y-11121855D01*
X27012445Y-11121850D01*
X27013174Y-11121746D01*
X27030710Y-11120500D01*
X27072033Y-11120500D01*
X27139072Y-11140185D01*
X27184827Y-11192989D01*
X27189072Y-11203539D01*
X27195172Y-11220970D01*
X27225516Y-11307691D01*
X27225519Y-11307697D01*
X27315490Y-11450884D01*
X27315495Y-11450890D01*
X27435081Y-11570476D01*
X27435087Y-11570481D01*
X27578274Y-11660452D01*
X27578277Y-11660454D01*
X27578281Y-11660455D01*
X27578282Y-11660456D01*
X27624148Y-11676505D01*
X27737915Y-11716314D01*
X27905969Y-11735249D01*
X27905972Y-11735249D01*
X27905975Y-11735249D01*
X28074024Y-11716314D01*
X28074024Y-11716313D01*
X28074031Y-11716313D01*
X28129803Y-11696797D01*
X28149706Y-11691641D01*
X28167656Y-11688552D01*
X28482606Y-11586534D01*
X28520817Y-11580500D01*
X37669903Y-11580500D01*
X37736942Y-11600185D01*
X37757584Y-11616819D01*
X42093181Y-15952416D01*
X42126666Y-16013739D01*
X42129500Y-16040097D01*
X42129500Y-16853833D01*
X42109815Y-16920872D01*
X42057011Y-16966627D01*
X41987853Y-16976571D01*
X41924297Y-16947546D01*
X41913350Y-16936805D01*
X41803207Y-16814478D01*
X41803204Y-16814476D01*
X41803203Y-16814475D01*
X41803202Y-16814474D01*
X41658565Y-16709388D01*
X41495239Y-16636671D01*
X41495237Y-16636670D01*
X41362926Y-16608547D01*
X41320363Y-16599500D01*
X41141581Y-16599500D01*
X41117385Y-16604643D01*
X40966705Y-16636670D01*
X40966693Y-16636674D01*
X40962159Y-16638693D01*
X40943088Y-16645063D01*
X40943102Y-16645109D01*
X40941295Y-16645662D01*
X40939518Y-16646256D01*
X40938871Y-16646404D01*
X40456726Y-16794064D01*
X40420415Y-16799500D01*
X38181911Y-16799500D01*
X38114872Y-16779815D01*
X38109025Y-16775818D01*
X38017594Y-16709389D01*
X38017593Y-16709388D01*
X37854267Y-16636671D01*
X37854265Y-16636670D01*
X37721954Y-16608547D01*
X37679391Y-16599500D01*
X37500609Y-16599500D01*
X37476413Y-16604643D01*
X37325733Y-16636670D01*
X37325728Y-16636672D01*
X37162408Y-16709387D01*
X37017768Y-16814475D01*
X36898140Y-16947336D01*
X36808750Y-17102164D01*
X36808747Y-17102170D01*
X36753504Y-17272192D01*
X36753503Y-17272194D01*
X36734815Y-17450000D01*
X36753503Y-17627805D01*
X36753504Y-17627807D01*
X36808747Y-17797829D01*
X36808750Y-17797835D01*
X36898141Y-17952665D01*
X36904508Y-17959736D01*
X37017764Y-18085521D01*
X37017767Y-18085523D01*
X37017770Y-18085526D01*
X37162407Y-18190612D01*
X37325733Y-18263329D01*
X37500609Y-18300500D01*
X37500610Y-18300500D01*
X37679389Y-18300500D01*
X37679391Y-18300500D01*
X37854267Y-18263329D01*
X38017593Y-18190612D01*
X38109025Y-18124182D01*
X38174831Y-18100702D01*
X38181911Y-18100500D01*
X40420418Y-18100500D01*
X40456723Y-18105934D01*
X40484330Y-18114389D01*
X40542664Y-18152839D01*
X40566580Y-18196638D01*
X40575035Y-18224243D01*
X40580472Y-18260557D01*
X40580472Y-18905500D01*
X40560787Y-18972539D01*
X40507983Y-19018294D01*
X40456472Y-19029500D01*
X29975472Y-19029500D01*
X29908433Y-19009815D01*
X29862678Y-18957011D01*
X29851472Y-18905500D01*
X29851472Y-17959736D01*
X29852718Y-17942200D01*
X29852825Y-17941448D01*
X29852827Y-17941443D01*
X29933696Y-17375346D01*
X29936285Y-17364202D01*
X29936116Y-17364166D01*
X29937468Y-17357805D01*
X29937469Y-17357803D01*
X29940752Y-17326559D01*
X29941317Y-17322005D01*
X29949489Y-17264804D01*
X29953237Y-17229994D01*
X29953355Y-17228372D01*
X29953174Y-17216985D01*
X29953838Y-17202058D01*
X29956157Y-17180000D01*
X29952531Y-17145510D01*
X29952314Y-17141897D01*
X29951942Y-17139093D01*
X29951942Y-17139086D01*
X29951940Y-17139078D01*
X29951754Y-17137676D01*
X29951354Y-17134313D01*
X29947975Y-17102165D01*
X29937469Y-17002197D01*
X29911045Y-16920872D01*
X29882224Y-16832170D01*
X29882221Y-16832164D01*
X29872009Y-16814476D01*
X29792831Y-16677335D01*
X29736631Y-16614919D01*
X29673207Y-16544478D01*
X29673204Y-16544476D01*
X29673203Y-16544475D01*
X29673202Y-16544474D01*
X29528565Y-16439388D01*
X29365239Y-16366671D01*
X29365237Y-16366670D01*
X29213886Y-16334500D01*
X29190363Y-16329500D01*
X29011581Y-16329500D01*
X28988058Y-16334500D01*
X28836705Y-16366670D01*
X28836700Y-16366672D01*
X28673380Y-16439387D01*
X28528740Y-16544475D01*
X28409112Y-16677336D01*
X28319722Y-16832164D01*
X28319719Y-16832170D01*
X28264476Y-17002192D01*
X28264475Y-17002194D01*
X28245787Y-17180001D01*
X28251788Y-17237107D01*
X28252467Y-17250170D01*
X28252454Y-17264799D01*
X28252455Y-17264807D01*
X28260627Y-17322015D01*
X28261193Y-17326586D01*
X28264474Y-17357805D01*
X28265826Y-17364163D01*
X28265658Y-17364198D01*
X28268246Y-17375348D01*
X28349118Y-17941444D01*
X28349125Y-17941490D01*
X28349226Y-17942194D01*
X28350472Y-17959731D01*
X28350472Y-18905500D01*
X28330787Y-18972539D01*
X28277983Y-19018294D01*
X28226472Y-19029500D01*
X19573789Y-19029500D01*
X19544607Y-19026017D01*
X19457302Y-19004877D01*
X19396778Y-18969969D01*
X19365244Y-18910375D01*
X19343260Y-18807922D01*
X19340500Y-18781907D01*
X19340500Y-17206079D01*
X19311659Y-17061092D01*
X19311658Y-17061091D01*
X19311658Y-17061087D01*
X19311656Y-17061082D01*
X19255087Y-16924511D01*
X19255080Y-16924498D01*
X19172951Y-16801584D01*
X19172948Y-16801580D01*
X19068419Y-16697051D01*
X19068415Y-16697048D01*
X18945501Y-16614919D01*
X18945488Y-16614912D01*
X18808917Y-16558343D01*
X18808907Y-16558340D01*
X18663920Y-16529500D01*
X18663918Y-16529500D01*
X14352729Y-16529500D01*
X14325194Y-16526404D01*
X14249111Y-16509077D01*
X13654064Y-16373562D01*
X13643374Y-16371249D01*
X13643373Y-16371248D01*
X13638720Y-16370242D01*
X13638740Y-16370148D01*
X13625298Y-16367206D01*
X13546331Y-16343253D01*
X13406694Y-16329500D01*
X13360000Y-16324901D01*
X13359999Y-16324901D01*
X13173668Y-16343252D01*
X13173666Y-16343253D01*
X12994497Y-16397604D01*
X12829376Y-16485862D01*
X12829374Y-16485864D01*
X12713164Y-16581235D01*
X12648854Y-16608547D01*
X12579987Y-16596756D01*
X12528427Y-16549603D01*
X12510500Y-16485381D01*
X12510500Y-8149997D01*
X25284751Y-8149997D01*
X25284751Y-8150002D01*
X25303685Y-8318056D01*
X25359545Y-8477694D01*
X25359547Y-8477697D01*
X25449518Y-8620884D01*
X25449523Y-8620890D01*
X25569109Y-8740476D01*
X25569115Y-8740481D01*
X25712302Y-8830452D01*
X25712305Y-8830454D01*
X25712309Y-8830455D01*
X25712310Y-8830456D01*
X25778932Y-8853768D01*
X25871943Y-8886314D01*
X26039997Y-8905249D01*
X26040000Y-8905249D01*
X26040003Y-8905249D01*
X26208052Y-8886314D01*
X26208052Y-8886313D01*
X26208059Y-8886313D01*
X26263831Y-8866797D01*
X26283734Y-8861641D01*
X26301684Y-8858552D01*
X26616634Y-8756534D01*
X26654845Y-8750500D01*
X28641125Y-8750500D01*
X28679336Y-8756534D01*
X28785888Y-8791048D01*
X28994286Y-8858552D01*
X29026127Y-8867725D01*
X29026137Y-8867726D01*
X29031479Y-8868769D01*
X29031405Y-8869144D01*
X29052135Y-8873793D01*
X29087913Y-8886313D01*
X29087917Y-8886313D01*
X29087919Y-8886314D01*
X29255969Y-8905249D01*
X29255972Y-8905249D01*
X29255975Y-8905249D01*
X29424028Y-8886314D01*
X29438626Y-8881206D01*
X29583662Y-8830456D01*
X29583664Y-8830454D01*
X29583666Y-8830454D01*
X29583669Y-8830452D01*
X29726856Y-8740481D01*
X29726857Y-8740480D01*
X29726862Y-8740477D01*
X29846449Y-8620890D01*
X29936424Y-8477697D01*
X29936426Y-8477694D01*
X29936426Y-8477692D01*
X29936428Y-8477690D01*
X29992285Y-8318059D01*
X29992285Y-8318058D01*
X29992286Y-8318056D01*
X30011221Y-8150002D01*
X30011221Y-8149997D01*
X29992286Y-7981943D01*
X29936426Y-7822305D01*
X29936424Y-7822302D01*
X29846453Y-7679115D01*
X29846448Y-7679109D01*
X29726862Y-7559523D01*
X29726856Y-7559518D01*
X29583669Y-7469547D01*
X29583666Y-7469545D01*
X29424028Y-7413685D01*
X29255975Y-7394751D01*
X29255969Y-7394751D01*
X29087918Y-7413685D01*
X29087912Y-7413687D01*
X29032160Y-7433194D01*
X29012252Y-7438352D01*
X28994294Y-7441444D01*
X28679331Y-7543466D01*
X28641120Y-7549500D01*
X26654848Y-7549500D01*
X26616637Y-7543466D01*
X26360825Y-7460604D01*
X26301684Y-7441447D01*
X26284868Y-7436603D01*
X26269834Y-7432272D01*
X26264491Y-7431230D01*
X26264563Y-7430857D01*
X26243831Y-7426203D01*
X26208058Y-7413686D01*
X26040003Y-7394751D01*
X26039997Y-7394751D01*
X25871943Y-7413685D01*
X25712305Y-7469545D01*
X25712302Y-7469547D01*
X25569115Y-7559518D01*
X25569109Y-7559523D01*
X25449523Y-7679109D01*
X25449518Y-7679115D01*
X25359547Y-7822302D01*
X25359545Y-7822305D01*
X25303685Y-7981943D01*
X25284751Y-8149997D01*
X12510500Y-8149997D01*
X12510500Y-7494747D01*
X12529507Y-7428774D01*
X12580456Y-7347690D01*
X12636313Y-7188059D01*
X12655249Y-7020000D01*
X12655249Y-7019997D01*
X12636314Y-6851943D01*
X12622904Y-6813621D01*
X12580456Y-6692310D01*
X12569307Y-6674566D01*
X12519506Y-6595308D01*
X12500500Y-6529336D01*
X12500500Y-2941116D01*
X12502158Y-2920905D01*
X12510020Y-2873314D01*
X12623861Y-2184193D01*
X12654209Y-2121261D01*
X12713765Y-2084724D01*
X12783619Y-2086186D01*
X12841594Y-2125181D01*
X12847778Y-2133283D01*
X12902472Y-2211395D01*
X12902477Y-2211401D01*
X13069571Y-2378495D01*
X13166356Y-2446265D01*
X13263137Y-2514032D01*
X13263139Y-2514033D01*
X13263142Y-2514035D01*
X13477309Y-2613903D01*
X13705564Y-2675063D01*
X13893890Y-2691539D01*
X13940971Y-2695659D01*
X13940972Y-2695659D01*
X13940973Y-2695659D01*
X13981033Y-2692154D01*
X14176380Y-2675063D01*
X14404635Y-2613903D01*
X14618802Y-2514035D01*
X14812373Y-2378495D01*
X14979467Y-2211401D01*
X15109397Y-2025842D01*
X15163974Y-1982217D01*
X15233472Y-1975023D01*
X15295827Y-2006546D01*
X15312547Y-2025842D01*
X15442472Y-2211395D01*
X15442477Y-2211401D01*
X15609571Y-2378495D01*
X15706356Y-2446265D01*
X15803137Y-2514032D01*
X15803139Y-2514033D01*
X15803142Y-2514035D01*
X16017309Y-2613903D01*
X16245564Y-2675063D01*
X16433890Y-2691539D01*
X16480971Y-2695659D01*
X16480972Y-2695659D01*
X16480973Y-2695659D01*
X16521033Y-2692154D01*
X16716380Y-2675063D01*
X16944635Y-2613903D01*
X17158802Y-2514035D01*
X17352373Y-2378495D01*
X17519467Y-2211401D01*
X17649397Y-2025842D01*
X17703974Y-1982217D01*
X17773472Y-1975023D01*
X17835827Y-2006546D01*
X17852547Y-2025842D01*
X17982472Y-2211395D01*
X17982477Y-2211401D01*
X18149571Y-2378495D01*
X18246356Y-2446265D01*
X18343137Y-2514032D01*
X18343139Y-2514033D01*
X18343142Y-2514035D01*
X18557309Y-2613903D01*
X18785564Y-2675063D01*
X18973890Y-2691539D01*
X19020971Y-2695659D01*
X19020972Y-2695659D01*
X19020973Y-2695659D01*
X19061033Y-2692154D01*
X19256380Y-2675063D01*
X19484635Y-2613903D01*
X19698802Y-2514035D01*
X19892373Y-2378495D01*
X20059467Y-2211401D01*
X20189397Y-2025842D01*
X20243974Y-1982217D01*
X20313472Y-1975023D01*
X20375827Y-2006546D01*
X20392547Y-2025842D01*
X20522472Y-2211395D01*
X20522477Y-2211401D01*
X20689571Y-2378495D01*
X20786356Y-2446265D01*
X20883137Y-2514032D01*
X20883139Y-2514033D01*
X20883142Y-2514035D01*
X21097309Y-2613903D01*
X21325564Y-2675063D01*
X21513890Y-2691539D01*
X21560971Y-2695659D01*
X21560972Y-2695659D01*
X21560973Y-2695659D01*
X21601033Y-2692154D01*
X21796380Y-2675063D01*
X22024635Y-2613903D01*
X22238802Y-2514035D01*
X22432373Y-2378495D01*
X22599467Y-2211401D01*
X22729397Y-2025842D01*
X22783974Y-1982217D01*
X22853472Y-1975023D01*
X22915827Y-2006546D01*
X22932547Y-2025842D01*
X23062472Y-2211395D01*
X23062477Y-2211401D01*
X23229571Y-2378495D01*
X23326356Y-2446265D01*
X23423137Y-2514032D01*
X23423139Y-2514033D01*
X23423142Y-2514035D01*
X23637309Y-2613903D01*
X23865564Y-2675063D01*
X24053890Y-2691539D01*
X24100971Y-2695659D01*
X24100972Y-2695659D01*
X24100973Y-2695659D01*
X24141033Y-2692154D01*
X24336380Y-2675063D01*
X24564635Y-2613903D01*
X24778802Y-2514035D01*
X24972373Y-2378495D01*
X25139467Y-2211401D01*
X25269397Y-2025842D01*
X25323974Y-1982217D01*
X25393472Y-1975023D01*
X25455827Y-2006546D01*
X25472547Y-2025842D01*
X25602472Y-2211395D01*
X25602477Y-2211401D01*
X25769571Y-2378495D01*
X25866356Y-2446265D01*
X25963137Y-2514032D01*
X25963139Y-2514033D01*
X25963142Y-2514035D01*
X26177309Y-2613903D01*
X26405564Y-2675063D01*
X26593890Y-2691539D01*
X26640971Y-2695659D01*
X26640972Y-2695659D01*
X26640973Y-2695659D01*
X26681033Y-2692154D01*
X26876380Y-2675063D01*
X27104635Y-2613903D01*
X27318802Y-2514035D01*
X27512373Y-2378495D01*
X27679467Y-2211401D01*
X27809397Y-2025842D01*
X27863974Y-1982217D01*
X27933472Y-1975023D01*
X27995827Y-2006546D01*
X28012547Y-2025842D01*
X28142472Y-2211395D01*
X28142477Y-2211401D01*
X28309571Y-2378495D01*
X28406356Y-2446265D01*
X28503137Y-2514032D01*
X28503139Y-2514033D01*
X28503142Y-2514035D01*
X28717309Y-2613903D01*
X28945564Y-2675063D01*
X29133890Y-2691539D01*
X29180971Y-2695659D01*
X29180972Y-2695659D01*
X29180973Y-2695659D01*
X29221033Y-2692154D01*
X29416380Y-2675063D01*
X29644635Y-2613903D01*
X29858802Y-2514035D01*
X30052373Y-2378495D01*
X30219467Y-2211401D01*
X30349397Y-2025842D01*
X30403974Y-1982217D01*
X30473472Y-1975023D01*
X30535827Y-2006546D01*
X30552547Y-2025842D01*
X30682472Y-2211395D01*
X30682477Y-2211401D01*
X30849571Y-2378495D01*
X30946356Y-2446265D01*
X31043137Y-2514032D01*
X31043139Y-2514033D01*
X31043142Y-2514035D01*
X31257309Y-2613903D01*
X31485564Y-2675063D01*
X31673890Y-2691539D01*
X31720971Y-2695659D01*
X31720972Y-2695659D01*
X31720973Y-2695659D01*
X31761033Y-2692154D01*
X31956380Y-2675063D01*
X32184635Y-2613903D01*
X32398802Y-2514035D01*
X32592373Y-2378495D01*
X32759467Y-2211401D01*
X32889397Y-2025842D01*
X32943974Y-1982217D01*
X33013472Y-1975023D01*
X33075827Y-2006546D01*
X33092547Y-2025842D01*
X33222472Y-2211395D01*
X33222477Y-2211401D01*
X33389571Y-2378495D01*
X33486356Y-2446265D01*
X33583137Y-2514032D01*
X33583139Y-2514033D01*
X33583142Y-2514035D01*
X33797309Y-2613903D01*
X34025564Y-2675063D01*
X34213890Y-2691539D01*
X34260971Y-2695659D01*
X34260972Y-2695659D01*
X34260973Y-2695659D01*
X34301033Y-2692154D01*
X34496380Y-2675063D01*
X34724635Y-2613903D01*
X34938802Y-2514035D01*
X35132373Y-2378495D01*
X35299467Y-2211401D01*
X35429397Y-2025842D01*
X35483974Y-1982217D01*
X35553472Y-1975023D01*
X35615827Y-2006546D01*
X35632547Y-2025842D01*
X35762472Y-2211395D01*
X35762477Y-2211401D01*
X35929571Y-2378495D01*
X36026356Y-2446265D01*
X36123137Y-2514032D01*
X36123139Y-2514033D01*
X36123142Y-2514035D01*
X36337309Y-2613903D01*
X36565564Y-2675063D01*
X36753890Y-2691539D01*
X36800971Y-2695659D01*
X36800972Y-2695659D01*
X36800973Y-2695659D01*
X36841033Y-2692154D01*
X37036380Y-2675063D01*
X37264635Y-2613903D01*
X37478802Y-2514035D01*
X37672373Y-2378495D01*
X37839467Y-2211401D01*
X37969397Y-2025842D01*
X38023974Y-1982217D01*
X38093472Y-1975023D01*
X38155827Y-2006546D01*
X38172547Y-2025842D01*
X38302472Y-2211395D01*
X38302477Y-2211401D01*
X38469571Y-2378495D01*
X38566356Y-2446265D01*
X38663137Y-2514032D01*
X38663139Y-2514033D01*
X38663142Y-2514035D01*
X38877309Y-2613903D01*
X39105564Y-2675063D01*
X39293890Y-2691539D01*
X39340971Y-2695659D01*
X39340972Y-2695659D01*
X39340973Y-2695659D01*
X39381033Y-2692154D01*
X39576380Y-2675063D01*
X39804635Y-2613903D01*
X40018802Y-2514035D01*
X40212373Y-2378495D01*
X40379467Y-2211401D01*
X40509397Y-2025842D01*
X40563974Y-1982217D01*
X40633472Y-1975023D01*
X40695827Y-2006546D01*
X40712547Y-2025842D01*
X40842472Y-2211395D01*
X40842477Y-2211401D01*
X41009571Y-2378495D01*
X41106356Y-2446265D01*
X41203137Y-2514032D01*
X41203139Y-2514033D01*
X41203142Y-2514035D01*
X41417309Y-2613903D01*
X41645564Y-2675063D01*
X41833890Y-2691539D01*
X41880971Y-2695659D01*
X41880972Y-2695659D01*
X41880973Y-2695659D01*
X41921033Y-2692154D01*
X42116380Y-2675063D01*
X42344635Y-2613903D01*
X42558802Y-2514035D01*
X42752373Y-2378495D01*
X42919467Y-2211401D01*
X43049397Y-2025842D01*
X43103974Y-1982217D01*
X43173472Y-1975023D01*
X43235827Y-2006546D01*
X43252547Y-2025842D01*
X43382472Y-2211395D01*
X43382477Y-2211401D01*
X43549571Y-2378495D01*
X43646356Y-2446265D01*
X43743137Y-2514032D01*
X43743139Y-2514033D01*
X43743142Y-2514035D01*
X43957309Y-2613903D01*
X44185564Y-2675063D01*
X44373890Y-2691539D01*
X44420971Y-2695659D01*
X44420972Y-2695659D01*
X44420973Y-2695659D01*
X44461033Y-2692154D01*
X44656380Y-2675063D01*
X44884635Y-2613903D01*
X45098802Y-2514035D01*
X45292373Y-2378495D01*
X45459467Y-2211401D01*
X45583811Y-2033818D01*
X45638388Y-1990194D01*
X45707886Y-1983000D01*
X45770241Y-2014523D01*
X45797947Y-2052922D01*
X46262260Y-3057648D01*
X46299034Y-3137223D01*
X46310472Y-3189241D01*
X46310472Y-7672618D01*
X46308058Y-7696967D01*
X46236412Y-8054732D01*
X46231869Y-8071334D01*
X46224659Y-8091940D01*
X46224657Y-8091946D01*
X46205723Y-8259997D01*
X46205723Y-8260002D01*
X46224657Y-8428056D01*
X46280517Y-8587694D01*
X46280519Y-8587697D01*
X46370490Y-8730884D01*
X46370495Y-8730890D01*
X46490081Y-8850476D01*
X46490087Y-8850481D01*
X46633274Y-8940452D01*
X46633277Y-8940454D01*
X46633281Y-8940455D01*
X46633282Y-8940456D01*
X46705885Y-8965860D01*
X46792915Y-8996314D01*
X46960969Y-9015249D01*
X46960972Y-9015249D01*
X46960975Y-9015249D01*
X47129028Y-8996314D01*
X47129031Y-8996313D01*
X47288662Y-8940456D01*
X47288664Y-8940454D01*
X47288666Y-8940454D01*
X47288669Y-8940452D01*
X47431856Y-8850481D01*
X47431857Y-8850480D01*
X47431862Y-8850477D01*
X47551449Y-8730890D01*
X47560029Y-8717235D01*
X47641424Y-8587697D01*
X47641426Y-8587694D01*
X47641426Y-8587692D01*
X47641428Y-8587690D01*
X47697285Y-8428059D01*
X47697285Y-8428058D01*
X47697286Y-8428056D01*
X47716221Y-8260002D01*
X47716221Y-8259997D01*
X47697286Y-8091945D01*
X47697285Y-8091943D01*
X47697285Y-8091941D01*
X47690073Y-8071332D01*
X47685529Y-8054725D01*
X47613886Y-7696968D01*
X47611472Y-7672620D01*
X47611472Y-3189241D01*
X47617902Y-3160000D01*
X53594592Y-3160000D01*
X53614201Y-3446680D01*
X53672666Y-3728034D01*
X53672667Y-3728037D01*
X53768894Y-3998793D01*
X53768893Y-3998793D01*
X53901098Y-4253935D01*
X54066812Y-4488700D01*
X54151923Y-4579831D01*
X54262947Y-4698708D01*
X54485853Y-4880055D01*
X54731382Y-5029365D01*
X54918237Y-5110526D01*
X54994942Y-5143844D01*
X55271642Y-5221371D01*
X55521920Y-5255771D01*
X55556321Y-5260500D01*
X55556322Y-5260500D01*
X55843679Y-5260500D01*
X55874370Y-5256281D01*
X56128358Y-5221371D01*
X56405058Y-5143844D01*
X56518015Y-5094779D01*
X56668617Y-5029365D01*
X56668620Y-5029363D01*
X56668625Y-5029361D01*
X56914147Y-4880055D01*
X57137053Y-4698708D01*
X57333189Y-4488698D01*
X57498901Y-4253936D01*
X57631104Y-3998797D01*
X57727334Y-3728032D01*
X57785798Y-3446686D01*
X57805408Y-3160000D01*
X57785798Y-2873314D01*
X57727334Y-2591968D01*
X57631105Y-2321206D01*
X57631106Y-2321206D01*
X57498901Y-2066064D01*
X57333187Y-1831299D01*
X57254554Y-1747105D01*
X57137053Y-1621292D01*
X56914147Y-1439945D01*
X56914146Y-1439944D01*
X56668617Y-1290634D01*
X56405063Y-1176158D01*
X56405061Y-1176157D01*
X56405058Y-1176156D01*
X56275578Y-1139877D01*
X56128364Y-1098630D01*
X56128359Y-1098629D01*
X56128358Y-1098629D01*
X55986018Y-1079064D01*
X55843679Y-1059500D01*
X55843678Y-1059500D01*
X55556322Y-1059500D01*
X55556321Y-1059500D01*
X55271642Y-1098629D01*
X55271635Y-1098630D01*
X55063861Y-1156845D01*
X54994942Y-1176156D01*
X54994939Y-1176156D01*
X54994936Y-1176158D01*
X54994935Y-1176158D01*
X54731382Y-1290634D01*
X54485853Y-1439944D01*
X54262950Y-1621289D01*
X54066812Y-1831299D01*
X53901098Y-2066064D01*
X53768894Y-2321206D01*
X53672667Y-2591962D01*
X53672666Y-2591965D01*
X53614201Y-2873319D01*
X53594592Y-3160000D01*
X47617902Y-3160000D01*
X47622910Y-3137223D01*
X47663644Y-3049078D01*
X48123996Y-2052920D01*
X48169987Y-2000325D01*
X48237114Y-1980942D01*
X48304065Y-2000928D01*
X48338132Y-2033818D01*
X48462472Y-2211395D01*
X48462477Y-2211401D01*
X48629571Y-2378495D01*
X48726356Y-2446265D01*
X48823137Y-2514032D01*
X48823139Y-2514033D01*
X48823142Y-2514035D01*
X49037309Y-2613903D01*
X49265564Y-2675063D01*
X49453890Y-2691539D01*
X49500971Y-2695659D01*
X49500972Y-2695659D01*
X49500973Y-2695659D01*
X49541033Y-2692154D01*
X49736380Y-2675063D01*
X49964635Y-2613903D01*
X50178802Y-2514035D01*
X50372373Y-2378495D01*
X50539467Y-2211401D01*
X50675007Y-2017830D01*
X50774875Y-1803663D01*
X50836035Y-1575408D01*
X50856631Y-1340000D01*
X50836035Y-1104592D01*
X50774875Y-876337D01*
X50675007Y-662171D01*
X50669397Y-654158D01*
X50539466Y-468597D01*
X50533050Y-462181D01*
X50499565Y-400858D01*
X50504549Y-331166D01*
X50546421Y-275233D01*
X50611885Y-250816D01*
X50620731Y-250500D01*
X55905830Y-250500D01*
X55946519Y-250500D01*
X55953471Y-250695D01*
G37*
%TD.AperFunction*%
%TD*%
%TA.AperFunction,Conductor*%
%TO.N,GND*%
G36*
X39870972Y-11330000D02*
G01*
X39870972Y-11530000D01*
X39466643Y-11660970D01*
X39369972Y-11430000D01*
X39466643Y-11199030D01*
X39870972Y-11330000D01*
G37*
%TD.AperFunction*%
%TD*%
%TA.AperFunction,Conductor*%
%TO.N,/VDD_3.3V*%
G36*
X30944478Y-9500868D02*
G01*
X31253886Y-9629986D01*
X31260200Y-9636334D01*
X31260671Y-9643845D01*
X31113315Y-10187190D01*
X31107842Y-10194278D01*
X31102023Y-10195828D01*
X30819305Y-10195828D01*
X30811032Y-10192401D01*
X30808248Y-10187952D01*
X30620234Y-9644325D01*
X30620768Y-9635388D01*
X30626782Y-9629707D01*
X30935494Y-9500879D01*
X30944449Y-9500857D01*
X30944478Y-9500868D01*
G37*
%TD.AperFunction*%
%TD*%
%TA.AperFunction,Conductor*%
%TO.N,/GPIO29_ADC3*%
G36*
X28397878Y-10877378D02*
G01*
X28404692Y-10883187D01*
X28405972Y-10888508D01*
X28405972Y-11071491D01*
X28402545Y-11079764D01*
X28397877Y-11082622D01*
X28011884Y-11207652D01*
X28002958Y-11206941D01*
X27997486Y-11201038D01*
X27906861Y-10984515D01*
X27906829Y-10975563D01*
X27997486Y-10758960D01*
X28003842Y-10752652D01*
X28011883Y-10752347D01*
X28397878Y-10877378D01*
G37*
%TD.AperFunction*%
%TD*%
%TA.AperFunction,Conductor*%
%TO.N,GND*%
G36*
X40031972Y-11430000D02*
G01*
X39935301Y-11660970D01*
X39530972Y-11530000D01*
X39530972Y-11330000D01*
X39935301Y-11199030D01*
X40031972Y-11430000D01*
G37*
%TD.AperFunction*%
%TD*%
%TA.AperFunction,Conductor*%
%TO.N,/VDD_3.3V*%
G36*
X19469065Y-19527833D02*
G01*
X19476299Y-19533110D01*
X19478011Y-19539204D01*
X19478011Y-20020543D01*
X19474584Y-20028816D01*
X19468766Y-20031983D01*
X18761721Y-20183704D01*
X18752913Y-20182089D01*
X18748466Y-20176764D01*
X18683381Y-20020543D01*
X18580873Y-19774498D01*
X18580855Y-19765547D01*
X18748366Y-19363474D01*
X18754710Y-19357157D01*
X18761917Y-19356605D01*
X19469065Y-19527833D01*
G37*
%TD.AperFunction*%
%TD*%
%TA.AperFunction,Conductor*%
%TO.N,/USB_5V*%
G36*
X13956509Y-21310220D02*
G01*
X13960000Y-21318467D01*
X13960000Y-21775908D01*
X13956573Y-21784181D01*
X13948300Y-21787608D01*
X13946148Y-21787408D01*
X13565864Y-21716251D01*
X13558362Y-21711361D01*
X13556516Y-21702599D01*
X13559677Y-21696544D01*
X13939963Y-21310347D01*
X13948210Y-21306857D01*
X13956509Y-21310220D01*
G37*
%TD.AperFunction*%
%TD*%
%TA.AperFunction,Conductor*%
%TO.N,Net-(D4-A2)*%
G36*
X2958606Y-13311536D02*
G01*
X2964915Y-13317892D01*
X2965238Y-13325876D01*
X2842594Y-13711353D01*
X2836820Y-13718198D01*
X2831445Y-13719506D01*
X2648456Y-13719506D01*
X2640183Y-13716079D01*
X2637347Y-13711477D01*
X2509943Y-13325953D01*
X2510601Y-13317023D01*
X2516533Y-13311490D01*
X2732999Y-13220889D01*
X2741952Y-13220857D01*
X2958606Y-13311536D01*
G37*
%TD.AperFunction*%
%TD*%
%TA.AperFunction,Conductor*%
%TO.N,/VDD_3.3V*%
G36*
X26246330Y-10024124D02*
G01*
X26250892Y-10031829D01*
X26251010Y-10033451D01*
X26251972Y-10370000D01*
X26251972Y-10370066D01*
X26251010Y-10706548D01*
X26247559Y-10714812D01*
X26239277Y-10718215D01*
X26237655Y-10718097D01*
X25561017Y-10621435D01*
X25553312Y-10616873D01*
X25550972Y-10609853D01*
X25550972Y-10130147D01*
X25554399Y-10121874D01*
X25561017Y-10118565D01*
X26237656Y-10021902D01*
X26246330Y-10024124D01*
G37*
%TD.AperFunction*%
%TD*%
%TA.AperFunction,Conductor*%
%TO.N,/VDD_3.3V*%
G36*
X56688471Y-9423670D02*
G01*
X57522710Y-10166750D01*
X57526609Y-10174812D01*
X57523665Y-10183269D01*
X57523196Y-10183765D01*
X56686815Y-11019162D01*
X56678540Y-11022584D01*
X56673514Y-11021446D01*
X55837639Y-10623176D01*
X55831645Y-10616524D01*
X55830972Y-10612614D01*
X55830972Y-10125506D01*
X55834399Y-10117233D01*
X55835206Y-10116498D01*
X56673233Y-9423390D01*
X56681791Y-9420759D01*
X56688471Y-9423670D01*
G37*
%TD.AperFunction*%
%TD*%
%TA.AperFunction,Conductor*%
%TO.N,/VDD_3.3V*%
G36*
X41095806Y-17130601D02*
G01*
X41101116Y-17136428D01*
X41230091Y-17445494D01*
X41230114Y-17454449D01*
X41230091Y-17454506D01*
X41101116Y-17763571D01*
X41094767Y-17769886D01*
X41086892Y-17770252D01*
X40539246Y-17602533D01*
X40532339Y-17596834D01*
X40530972Y-17591346D01*
X40530972Y-17308653D01*
X40534399Y-17300380D01*
X40539246Y-17297466D01*
X41086893Y-17129747D01*
X41095806Y-17130601D01*
G37*
%TD.AperFunction*%
%TD*%
%TA.AperFunction,Conductor*%
%TO.N,/GPIO25*%
G36*
X26531906Y-8047378D02*
G01*
X26538720Y-8053187D01*
X26540000Y-8058508D01*
X26540000Y-8241491D01*
X26536573Y-8249764D01*
X26531905Y-8252622D01*
X26145912Y-8377652D01*
X26136986Y-8376941D01*
X26131514Y-8371038D01*
X26040889Y-8154515D01*
X26040857Y-8145563D01*
X26131514Y-7928960D01*
X26137870Y-7922652D01*
X26145911Y-7922347D01*
X26531906Y-8047378D01*
G37*
%TD.AperFunction*%
%TD*%
%TA.AperFunction,Conductor*%
%TO.N,/RUN*%
G36*
X46965461Y-1340865D02*
G01*
X47735033Y-1660612D01*
X47741358Y-1666951D01*
X47741349Y-1675906D01*
X47741165Y-1676325D01*
X47114111Y-3033208D01*
X47107529Y-3039281D01*
X47103490Y-3040000D01*
X46818454Y-3040000D01*
X46810181Y-3036573D01*
X46807833Y-3033208D01*
X46180778Y-1676325D01*
X46180418Y-1667378D01*
X46186491Y-1660796D01*
X46186885Y-1660622D01*
X46956483Y-1340864D01*
X46965438Y-1340856D01*
X46965461Y-1340865D01*
G37*
%TD.AperFunction*%
%TD*%
%TA.AperFunction,Conductor*%
%TO.N,/USB_5V*%
G36*
X6129065Y-21287833D02*
G01*
X6136299Y-21293110D01*
X6138011Y-21299204D01*
X6138011Y-21780543D01*
X6134584Y-21788816D01*
X6128766Y-21791983D01*
X5421721Y-21943704D01*
X5412913Y-21942089D01*
X5408466Y-21936764D01*
X5343381Y-21780543D01*
X5240873Y-21534498D01*
X5240855Y-21525547D01*
X5408366Y-21123474D01*
X5414710Y-21117157D01*
X5421917Y-21116605D01*
X6129065Y-21287833D01*
G37*
%TD.AperFunction*%
%TD*%
%TA.AperFunction,Conductor*%
%TO.N,/USB_5V*%
G36*
X13787011Y-21127946D02*
G01*
X13791581Y-21133350D01*
X13959125Y-21535500D01*
X13959144Y-21544455D01*
X13959125Y-21544500D01*
X13791581Y-21946649D01*
X13785236Y-21952968D01*
X13778183Y-21953557D01*
X13069102Y-21792072D01*
X13061796Y-21786894D01*
X13060000Y-21780664D01*
X13060000Y-21299335D01*
X13063427Y-21291062D01*
X13069101Y-21287927D01*
X13778183Y-21126442D01*
X13787011Y-21127946D01*
G37*
%TD.AperFunction*%
%TD*%
%TA.AperFunction,Conductor*%
%TO.N,/VDD_3.3V*%
G36*
X41235450Y-17450868D02*
G01*
X41449863Y-17540344D01*
X41544543Y-17579855D01*
X41550858Y-17586204D01*
X41551224Y-17594079D01*
X41383506Y-18141726D01*
X41377807Y-18148633D01*
X41372319Y-18150000D01*
X41089625Y-18150000D01*
X41081352Y-18146573D01*
X41078438Y-18141726D01*
X40910719Y-17594079D01*
X40911573Y-17585165D01*
X40917399Y-17579855D01*
X41226466Y-17450879D01*
X41235421Y-17450857D01*
X41235450Y-17450868D01*
G37*
%TD.AperFunction*%
%TD*%
%TA.AperFunction,Conductor*%
%TO.N,/VDD_3.3V*%
G36*
X26264283Y-10021901D02*
G01*
X26940927Y-10118565D01*
X26948632Y-10123127D01*
X26950972Y-10130147D01*
X26950972Y-10609853D01*
X26947545Y-10618126D01*
X26940927Y-10621435D01*
X26264288Y-10718097D01*
X26255613Y-10715875D01*
X26251051Y-10708170D01*
X26250933Y-10706556D01*
X26249972Y-10370000D01*
X26250933Y-10033449D01*
X26254384Y-10025187D01*
X26262666Y-10021784D01*
X26264283Y-10021901D01*
G37*
%TD.AperFunction*%
%TD*%
%TA.AperFunction,Conductor*%
%TO.N,/RUN*%
G36*
X47109656Y-7763427D02*
G01*
X47112855Y-7769403D01*
X47190061Y-8154937D01*
X47188326Y-8163722D01*
X47183106Y-8168027D01*
X46965489Y-8259109D01*
X46956535Y-8259142D01*
X46956455Y-8259109D01*
X46738837Y-8168027D01*
X46732528Y-8161672D01*
X46731882Y-8154939D01*
X46809089Y-7769403D01*
X46814073Y-7761963D01*
X46820561Y-7760000D01*
X47101383Y-7760000D01*
X47109656Y-7763427D01*
G37*
%TD.AperFunction*%
%TD*%
%TA.AperFunction,Conductor*%
%TO.N,/USB_5V*%
G36*
X5647621Y-11738418D02*
G01*
X5653940Y-11744763D01*
X5654529Y-11751816D01*
X5493045Y-12460898D01*
X5487867Y-12468204D01*
X5481637Y-12470000D01*
X5000307Y-12470000D01*
X4992034Y-12466573D01*
X4988899Y-12460898D01*
X4827414Y-11751816D01*
X4828918Y-11742988D01*
X4834321Y-11738418D01*
X5236473Y-11570873D01*
X5245424Y-11570855D01*
X5647621Y-11738418D01*
G37*
%TD.AperFunction*%
%TD*%
%TA.AperFunction,Conductor*%
%TO.N,/Boot_Select*%
G36*
X46658842Y-15288351D02*
G01*
X46876175Y-15377435D01*
X46882531Y-15383744D01*
X46882564Y-15383824D01*
X46971518Y-15600839D01*
X46971485Y-15609793D01*
X46965837Y-15615784D01*
X46600659Y-15794593D01*
X46591722Y-15795153D01*
X46587241Y-15792358D01*
X46457842Y-15662959D01*
X46454415Y-15654686D01*
X46455776Y-15649210D01*
X46476030Y-15610970D01*
X46644066Y-15293700D01*
X46650966Y-15287994D01*
X46658842Y-15288351D01*
G37*
%TD.AperFunction*%
%TD*%
%TA.AperFunction,Conductor*%
%TO.N,/GPIO25*%
G36*
X29158985Y-7923058D02*
G01*
X29164457Y-7928961D01*
X29255081Y-8145483D01*
X29255114Y-8154437D01*
X29255081Y-8154517D01*
X29164457Y-8371038D01*
X29158101Y-8377347D01*
X29150059Y-8377652D01*
X28764067Y-8252622D01*
X28757252Y-8246812D01*
X28755972Y-8241491D01*
X28755972Y-8058508D01*
X28759399Y-8050235D01*
X28764063Y-8047378D01*
X29150060Y-7922347D01*
X29158985Y-7923058D01*
G37*
%TD.AperFunction*%
%TD*%
%TA.AperFunction,Conductor*%
%TO.N,/VDD_3.3V*%
G36*
X15830898Y-10117927D02*
G01*
X15838204Y-10123105D01*
X15840000Y-10129335D01*
X15840000Y-10610664D01*
X15836573Y-10618937D01*
X15830898Y-10622072D01*
X15121816Y-10783557D01*
X15112988Y-10782053D01*
X15108418Y-10776649D01*
X15039265Y-10610664D01*
X14940873Y-10374498D01*
X14940855Y-10365547D01*
X15108418Y-9963349D01*
X15114763Y-9957031D01*
X15121816Y-9956442D01*
X15830898Y-10117927D01*
G37*
%TD.AperFunction*%
%TD*%
%TA.AperFunction,Conductor*%
%TO.N,/VDD_3.3V*%
G36*
X14250898Y-17027927D02*
G01*
X14258204Y-17033105D01*
X14260000Y-17039335D01*
X14260000Y-17520664D01*
X14256573Y-17528937D01*
X14250898Y-17532072D01*
X13541816Y-17693557D01*
X13532988Y-17692053D01*
X13528418Y-17686649D01*
X13459265Y-17520664D01*
X13360873Y-17284498D01*
X13360855Y-17275547D01*
X13528418Y-16873349D01*
X13534763Y-16867031D01*
X13541816Y-16866442D01*
X14250898Y-17027927D01*
G37*
%TD.AperFunction*%
%TD*%
%TA.AperFunction,Conductor*%
%TO.N,/VDD_3.3V*%
G36*
X49327816Y-9938035D02*
G01*
X49332659Y-9943605D01*
X49500097Y-10345500D01*
X49500116Y-10354455D01*
X49500097Y-10354500D01*
X49332457Y-10756879D01*
X49326112Y-10763198D01*
X49319347Y-10763849D01*
X48614340Y-10621890D01*
X48606907Y-10616897D01*
X48604950Y-10610420D01*
X48604950Y-10129076D01*
X48608377Y-10120803D01*
X48613739Y-10117744D01*
X49318951Y-9936772D01*
X49327816Y-9938035D01*
G37*
%TD.AperFunction*%
%TD*%
%TA.AperFunction,Conductor*%
%TO.N,/USB_5V*%
G36*
X42247983Y-21127946D02*
G01*
X42252553Y-21133350D01*
X42420097Y-21535500D01*
X42420116Y-21544455D01*
X42420097Y-21544500D01*
X42252553Y-21946649D01*
X42246208Y-21952968D01*
X42239155Y-21953557D01*
X41530074Y-21792072D01*
X41522768Y-21786894D01*
X41520972Y-21780664D01*
X41520972Y-21299335D01*
X41524399Y-21291062D01*
X41530073Y-21287927D01*
X42239155Y-21126442D01*
X42247983Y-21127946D01*
G37*
%TD.AperFunction*%
%TD*%
%TA.AperFunction,Conductor*%
%TO.N,/GPIO29_ADC3*%
G36*
X42829764Y-17953427D02*
G01*
X42832622Y-17958095D01*
X42957652Y-18344087D01*
X42956941Y-18353013D01*
X42951038Y-18358485D01*
X42734517Y-18449109D01*
X42725563Y-18449142D01*
X42725483Y-18449109D01*
X42508961Y-18358485D01*
X42502652Y-18352129D01*
X42502347Y-18344088D01*
X42627378Y-17958095D01*
X42633188Y-17951280D01*
X42638509Y-17950000D01*
X42821491Y-17950000D01*
X42829764Y-17953427D01*
G37*
%TD.AperFunction*%
%TD*%
%TA.AperFunction,Conductor*%
%TO.N,/Boot_Select*%
G36*
X19210753Y-20698525D02*
G01*
X19216767Y-20704183D01*
X19355517Y-20987565D01*
X19356709Y-20992710D01*
X19356709Y-21173375D01*
X19353282Y-21181648D01*
X19345009Y-21185075D01*
X19341060Y-21184388D01*
X18896818Y-21025099D01*
X18890187Y-21019081D01*
X18889754Y-21010137D01*
X18889941Y-21009649D01*
X18898993Y-20987565D01*
X18978120Y-20794516D01*
X18984427Y-20788162D01*
X19201799Y-20698512D01*
X19210753Y-20698525D01*
G37*
%TD.AperFunction*%
%TD*%
%TA.AperFunction,Conductor*%
%TO.N,/VDD_3.3V*%
G36*
X50388203Y-10117744D02*
G01*
X50395364Y-10123119D01*
X50396994Y-10129076D01*
X50396994Y-10610420D01*
X50393567Y-10618693D01*
X50387604Y-10621890D01*
X49682596Y-10763849D01*
X49673809Y-10762122D01*
X49669486Y-10756879D01*
X49608468Y-10610420D01*
X49501845Y-10354498D01*
X49501827Y-10345547D01*
X49669284Y-9943604D01*
X49675629Y-9937286D01*
X49682992Y-9936772D01*
X50388203Y-10117744D01*
G37*
%TD.AperFunction*%
%TD*%
%TA.AperFunction,Conductor*%
%TO.N,/VDD_3.3V*%
G36*
X18838817Y-18875416D02*
G01*
X18841984Y-18881234D01*
X18993704Y-19588278D01*
X18992089Y-19597086D01*
X18986764Y-19601533D01*
X18584500Y-19769125D01*
X18575545Y-19769144D01*
X18575500Y-19769125D01*
X18173476Y-19601634D01*
X18167157Y-19595289D01*
X18166605Y-19588081D01*
X18337834Y-18880936D01*
X18343111Y-18873701D01*
X18349205Y-18871989D01*
X18830544Y-18871989D01*
X18838817Y-18875416D01*
G37*
%TD.AperFunction*%
%TD*%
%TA.AperFunction,Conductor*%
%TO.N,/VDD_3.3V*%
G36*
X29437521Y-17179961D02*
G01*
X29445784Y-17183412D01*
X29449187Y-17191694D01*
X29449069Y-17193316D01*
X29352407Y-17869955D01*
X29347845Y-17877660D01*
X29340825Y-17880000D01*
X28861119Y-17880000D01*
X28852846Y-17876573D01*
X28849537Y-17869955D01*
X28752874Y-17193316D01*
X28755096Y-17184641D01*
X28762801Y-17180079D01*
X28764414Y-17179961D01*
X29100972Y-17179000D01*
X29437521Y-17179961D01*
G37*
%TD.AperFunction*%
%TD*%
%TA.AperFunction,Conductor*%
%TO.N,/LDO_EN*%
G36*
X12237197Y-1339983D02*
G01*
X12245465Y-1343420D01*
X12248882Y-1351697D01*
X12248726Y-1353590D01*
X12001618Y-2849411D01*
X11996888Y-2857015D01*
X11990074Y-2859204D01*
X11804557Y-2859204D01*
X11796644Y-2856123D01*
X10808917Y-1949291D01*
X10805141Y-1941171D01*
X10808211Y-1932759D01*
X10808508Y-1932449D01*
X11397539Y-1342437D01*
X11405805Y-1339005D01*
X12237197Y-1339983D01*
G37*
%TD.AperFunction*%
%TD*%
%TA.AperFunction,Conductor*%
%TO.N,/USB_5V*%
G36*
X5489898Y-20633620D02*
G01*
X5493036Y-20639309D01*
X5653572Y-21348192D01*
X5652057Y-21357018D01*
X5646661Y-21361576D01*
X5244500Y-21529125D01*
X5235545Y-21529144D01*
X5235500Y-21529125D01*
X4833361Y-21361586D01*
X4827042Y-21355241D01*
X4826457Y-21348176D01*
X4988890Y-20639280D01*
X4994078Y-20631981D01*
X5000294Y-20630193D01*
X5481625Y-20630193D01*
X5489898Y-20633620D01*
G37*
%TD.AperFunction*%
%TD*%
%TA.AperFunction,Conductor*%
%TO.N,Net-(D4-A2)*%
G36*
X2839764Y-13723427D02*
G01*
X2842622Y-13728095D01*
X2967652Y-14114087D01*
X2966941Y-14123013D01*
X2961038Y-14128485D01*
X2744517Y-14219109D01*
X2735563Y-14219142D01*
X2735483Y-14219109D01*
X2518961Y-14128485D01*
X2512652Y-14122129D01*
X2512347Y-14114088D01*
X2637378Y-13728095D01*
X2643188Y-13721280D01*
X2648509Y-13720000D01*
X2831491Y-13720000D01*
X2839764Y-13723427D01*
G37*
%TD.AperFunction*%
%TD*%
%TA.AperFunction,Conductor*%
%TO.N,/VDD_3.3V*%
G36*
X40107025Y-9789944D02*
G01*
X40115284Y-9793404D01*
X40118678Y-9801691D01*
X40118492Y-9803720D01*
X40032710Y-10278393D01*
X40027867Y-10285924D01*
X40021197Y-10288011D01*
X39740322Y-10288011D01*
X39732049Y-10284584D01*
X39728910Y-10278891D01*
X39642168Y-9895251D01*
X39643686Y-9886426D01*
X39649061Y-9881879D01*
X39868784Y-9789915D01*
X39873343Y-9789009D01*
X40107025Y-9789944D01*
G37*
%TD.AperFunction*%
%TD*%
M02*
