%TF.GenerationSoftware,KiCad,Pcbnew,8.0.6*%
%TF.CreationDate,2024-11-02T17:27:57+08:00*%
%TF.ProjectId,UINIO-MCU-RP2040,55494e49-4f2d-44d4-9355-2d5250323034,Version 3.2.0*%
%TF.SameCoordinates,PX7155ac0PY525e6d0*%
%TF.FileFunction,Legend,Bot*%
%TF.FilePolarity,Positive*%
%FSLAX46Y46*%
G04 Gerber Fmt 4.6, Leading zero omitted, Abs format (unit mm)*
G04 Created by KiCad (PCBNEW 8.0.6) date 2024-11-02 17:27:57*
%MOMM*%
%LPD*%
G01*
G04 APERTURE LIST*
%ADD10C,0.300000*%
%ADD11C,0.325000*%
%ADD12C,0.100000*%
%ADD13O,1.900000X1.000000*%
%ADD14O,2.100000X1.000000*%
%ADD15C,0.650000*%
%ADD16C,2.200000*%
%ADD17R,1.700000X1.700000*%
%ADD18O,1.700000X1.700000*%
G04 APERTURE END LIST*
D10*
G36*
X28762753Y-16344365D02*
G01*
X28866108Y-16528019D01*
X28870901Y-16599689D01*
X28870901Y-18401225D01*
X28820272Y-18599213D01*
X28652508Y-18699551D01*
X28564132Y-18707017D01*
X27607677Y-18707017D01*
X27409056Y-18656549D01*
X27305701Y-18472895D01*
X27300908Y-18401225D01*
X27300908Y-16599689D01*
X27351537Y-16401701D01*
X27519301Y-16301363D01*
X27607677Y-16293897D01*
X28564132Y-16293897D01*
X28762753Y-16344365D01*
G37*
G36*
X36828005Y-16356996D02*
G01*
X36846896Y-16459005D01*
X36846896Y-17584476D01*
X36755465Y-17759908D01*
X36653455Y-17778894D01*
X35978368Y-17778894D01*
X35802937Y-17687001D01*
X35783951Y-17584476D01*
X35783951Y-16459005D01*
X35875843Y-16284456D01*
X35978368Y-16265565D01*
X36653455Y-16265565D01*
X36828005Y-16356996D01*
G37*
G36*
X43524417Y-20002403D02*
G01*
X14033715Y-20002403D01*
X14033715Y-19557959D01*
X18871599Y-19557959D01*
X19918912Y-19557959D01*
X19918912Y-18707017D01*
X18871599Y-18707017D01*
X18871599Y-19557959D01*
X14033715Y-19557959D01*
X14033715Y-16599689D01*
X14478159Y-16599689D01*
X14478159Y-19501294D01*
X15552827Y-19501294D01*
X15552827Y-16599689D01*
X15603456Y-16401701D01*
X15771220Y-16301363D01*
X15859596Y-16293897D01*
X16703699Y-16293897D01*
X16902320Y-16344365D01*
X17005675Y-16528019D01*
X17010468Y-16599689D01*
X17010468Y-19501294D01*
X18085137Y-19501294D01*
X18085137Y-18544839D01*
X20408375Y-18544839D01*
X21337475Y-18544839D01*
X21389254Y-18283988D01*
X21568864Y-18387348D01*
X21763312Y-18471750D01*
X21901187Y-18517484D01*
X22101451Y-18568088D01*
X22304184Y-18597607D01*
X22380880Y-18600527D01*
X22633916Y-18600527D01*
X22844117Y-18581516D01*
X23048671Y-18515799D01*
X23222694Y-18403142D01*
X23268947Y-18360192D01*
X23395686Y-18195328D01*
X23475485Y-17999934D01*
X23507170Y-17797975D01*
X23509282Y-17725160D01*
X23509282Y-16349585D01*
X23820936Y-16349585D01*
X24327007Y-16349585D01*
X24327007Y-18651329D01*
X23820936Y-18651329D01*
X23820936Y-19501294D01*
X25908724Y-19501294D01*
X25908724Y-18651329D01*
X25402653Y-18651329D01*
X25402653Y-16599689D01*
X26225263Y-16599689D01*
X26225263Y-18401225D01*
X26234983Y-18615799D01*
X26270893Y-18837139D01*
X26333264Y-19027249D01*
X26436945Y-19206279D01*
X26501745Y-19280499D01*
X26660809Y-19401887D01*
X26860538Y-19488594D01*
X27068661Y-19536011D01*
X27271833Y-19555520D01*
X27381997Y-19557959D01*
X28788836Y-19557959D01*
X29003742Y-19548204D01*
X29225382Y-19512167D01*
X29415700Y-19449576D01*
X29594852Y-19345528D01*
X29669087Y-19280499D01*
X29790048Y-19121863D01*
X29876449Y-18922439D01*
X29923699Y-18714483D01*
X29943140Y-18511380D01*
X29945570Y-18401225D01*
X29945570Y-16599689D01*
X29936809Y-16406249D01*
X30257223Y-16406249D01*
X31332869Y-16406249D01*
X31332869Y-16318322D01*
X31657223Y-16318322D01*
X31657223Y-17612809D01*
X31672733Y-17818522D01*
X31727258Y-18022069D01*
X31821042Y-18196095D01*
X31905374Y-18295712D01*
X32060192Y-18416140D01*
X32244376Y-18497155D01*
X32457926Y-18538757D01*
X32589254Y-18544839D01*
X34421076Y-18544839D01*
X34421076Y-17722229D01*
X32898954Y-17722229D01*
X32723523Y-17630799D01*
X32704537Y-17528789D01*
X32704537Y-16431650D01*
X32726831Y-16374986D01*
X34736637Y-16374986D01*
X34736637Y-16459005D01*
X34736637Y-17669473D01*
X34752147Y-17875186D01*
X34806672Y-18078733D01*
X34900456Y-18252759D01*
X34984788Y-18352376D01*
X35139606Y-18472332D01*
X35323789Y-18553029D01*
X35537340Y-18594468D01*
X35668668Y-18600527D01*
X36963155Y-18600527D01*
X37168869Y-18585017D01*
X37318857Y-18544839D01*
X38318214Y-18544839D01*
X39247314Y-18544839D01*
X39299094Y-18283988D01*
X39478704Y-18387348D01*
X39673152Y-18471750D01*
X39811027Y-18517484D01*
X40011291Y-18568088D01*
X40214024Y-18597607D01*
X40290720Y-18600527D01*
X40347384Y-18600527D01*
X40542370Y-18584959D01*
X40738192Y-18529043D01*
X40924041Y-18417528D01*
X41058619Y-18275195D01*
X41230356Y-18376113D01*
X41417794Y-18458561D01*
X41601815Y-18517484D01*
X41804313Y-18564763D01*
X42007576Y-18593958D01*
X42147942Y-18600527D01*
X42204607Y-18600527D01*
X42414413Y-18581516D01*
X42618890Y-18515799D01*
X42793219Y-18403142D01*
X42839638Y-18360192D01*
X42966377Y-18195328D01*
X43046176Y-17999934D01*
X43077861Y-17797975D01*
X43079973Y-17725160D01*
X43079973Y-15499620D01*
X42032660Y-15499620D01*
X42032660Y-17557121D01*
X41984788Y-17675335D01*
X41866575Y-17722229D01*
X41838242Y-17722229D01*
X41634910Y-17707529D01*
X41440279Y-17672820D01*
X41245534Y-17624125D01*
X41222750Y-17617693D01*
X41222750Y-15499620D01*
X40175437Y-15499620D01*
X40175437Y-17557121D01*
X40128542Y-17675335D01*
X40009352Y-17722229D01*
X39981020Y-17722229D01*
X39777688Y-17707529D01*
X39583057Y-17672820D01*
X39388311Y-17624125D01*
X39365528Y-17617693D01*
X39365528Y-15499620D01*
X38318214Y-15499620D01*
X38318214Y-18544839D01*
X37318857Y-18544839D01*
X37372415Y-18530492D01*
X37546441Y-18436708D01*
X37646058Y-18352376D01*
X37766014Y-18198031D01*
X37846711Y-18014164D01*
X37888150Y-17800777D01*
X37894209Y-17669473D01*
X37894209Y-16374986D01*
X37878699Y-16169211D01*
X37824174Y-15965450D01*
X37730391Y-15791055D01*
X37646058Y-15691106D01*
X37491713Y-15571150D01*
X37307847Y-15490453D01*
X37094459Y-15449014D01*
X36963155Y-15442955D01*
X35668668Y-15442955D01*
X35462893Y-15458465D01*
X35259132Y-15512990D01*
X35084737Y-15606773D01*
X34984788Y-15691106D01*
X34864832Y-15845923D01*
X34784135Y-16030107D01*
X34742696Y-16243658D01*
X34736637Y-16374986D01*
X32726831Y-16374986D01*
X32751431Y-16312460D01*
X32870622Y-16265565D01*
X33079026Y-16268622D01*
X33281714Y-16275839D01*
X33510782Y-16287303D01*
X33713031Y-16299530D01*
X33932162Y-16314475D01*
X34168177Y-16332137D01*
X34421076Y-16352516D01*
X34421076Y-15559215D01*
X34220706Y-15538438D01*
X34025162Y-15519705D01*
X33771943Y-15497906D01*
X33527303Y-15479740D01*
X33291242Y-15465208D01*
X33063761Y-15454309D01*
X32844858Y-15447042D01*
X32634535Y-15443409D01*
X32532590Y-15442955D01*
X32322783Y-15461966D01*
X32118306Y-15527683D01*
X31943978Y-15640340D01*
X31897558Y-15683290D01*
X31770819Y-15848574D01*
X31691021Y-16044006D01*
X31659336Y-16245673D01*
X31657223Y-16318322D01*
X31332869Y-16318322D01*
X31332869Y-15499620D01*
X30257223Y-15499620D01*
X30257223Y-16406249D01*
X29936809Y-16406249D01*
X29935850Y-16385080D01*
X29899939Y-16163614D01*
X29837568Y-15973283D01*
X29733887Y-15793886D01*
X29669087Y-15719438D01*
X29510390Y-15598477D01*
X29310782Y-15512076D01*
X29102566Y-15464825D01*
X28899166Y-15445385D01*
X28788836Y-15442955D01*
X27381997Y-15442955D01*
X27167387Y-15452675D01*
X26945921Y-15488586D01*
X26755590Y-15550956D01*
X26576194Y-15654637D01*
X26501745Y-15719438D01*
X26380784Y-15878501D01*
X26294383Y-16078231D01*
X26247133Y-16286353D01*
X26227693Y-16489525D01*
X26225263Y-16599689D01*
X25402653Y-16599689D01*
X25402653Y-16349585D01*
X25908724Y-16349585D01*
X25908724Y-15499620D01*
X23820936Y-15499620D01*
X23820936Y-16349585D01*
X23509282Y-16349585D01*
X23509282Y-15499620D01*
X22461969Y-15499620D01*
X22461969Y-17557121D01*
X22415074Y-17675335D01*
X22296861Y-17722229D01*
X22099512Y-17722229D01*
X21891201Y-17709877D01*
X21690006Y-17677210D01*
X21499305Y-17630352D01*
X21455688Y-17617693D01*
X21455688Y-15499620D01*
X20408375Y-15499620D01*
X20408375Y-18544839D01*
X18085137Y-18544839D01*
X18085137Y-17609878D01*
X18449547Y-17609878D01*
X18449547Y-18432488D01*
X19918912Y-18432488D01*
X19918912Y-15499620D01*
X18871599Y-15499620D01*
X18871599Y-17609878D01*
X18449547Y-17609878D01*
X18085137Y-17609878D01*
X18085137Y-16599689D01*
X18075417Y-16385080D01*
X18039506Y-16163614D01*
X17977136Y-15973283D01*
X17873455Y-15793886D01*
X17808654Y-15719438D01*
X17649957Y-15598477D01*
X17450350Y-15512076D01*
X17242134Y-15464825D01*
X17038733Y-15445385D01*
X16928403Y-15442955D01*
X15634893Y-15442955D01*
X15419986Y-15452675D01*
X15198346Y-15488586D01*
X15008028Y-15550956D01*
X14828876Y-15654637D01*
X14754642Y-15719438D01*
X14633680Y-15878501D01*
X14547279Y-16078231D01*
X14500029Y-16286353D01*
X14480589Y-16489525D01*
X14478159Y-16599689D01*
X14033715Y-16599689D01*
X14033715Y-14998511D01*
X43524417Y-14998511D01*
X43524417Y-20002403D01*
G37*
D11*
G36*
X22970141Y-7981747D02*
G01*
X23304900Y-8946702D01*
X23688899Y-8946702D01*
X23167098Y-7568000D01*
X22773183Y-7568000D01*
X22251041Y-8946702D01*
X22635382Y-8946702D01*
X22970141Y-7981747D01*
G37*
G36*
X24016111Y-7548322D02*
G01*
X24095676Y-7549561D01*
X24177443Y-7552041D01*
X24261410Y-7555759D01*
X24347579Y-7560717D01*
X24435949Y-7566915D01*
X24526521Y-7574352D01*
X24595894Y-7580743D01*
X24666505Y-7587832D01*
X24666505Y-7834029D01*
X24575303Y-7827056D01*
X24489765Y-7821014D01*
X24409890Y-7815901D01*
X24335678Y-7811717D01*
X24250878Y-7807795D01*
X24174926Y-7805326D01*
X24095465Y-7804280D01*
X24046226Y-7823771D01*
X24026393Y-7873352D01*
X24026393Y-7951998D01*
X24706170Y-7951998D01*
X24706170Y-8316506D01*
X24705434Y-8343638D01*
X24694389Y-8418255D01*
X24666573Y-8489234D01*
X24622395Y-8547658D01*
X24594654Y-8571792D01*
X24529806Y-8607789D01*
X24460764Y-8626197D01*
X24390901Y-8631433D01*
X23996987Y-8631433D01*
X23961056Y-8630124D01*
X23887519Y-8617607D01*
X23824097Y-8591836D01*
X23765493Y-8547658D01*
X23741359Y-8520015D01*
X23705361Y-8455314D01*
X23686954Y-8386347D01*
X23681718Y-8316506D01*
X23681718Y-8306590D01*
X24026393Y-8306590D01*
X24041512Y-8360352D01*
X24105382Y-8385236D01*
X24282506Y-8385236D01*
X24333648Y-8372256D01*
X24361495Y-8306590D01*
X24361495Y-8198195D01*
X24026393Y-8198195D01*
X24026393Y-8306590D01*
X23681718Y-8306590D01*
X23681718Y-7843603D01*
X23682427Y-7818997D01*
X23693066Y-7750734D01*
X23719860Y-7684657D01*
X23762416Y-7628865D01*
X23778073Y-7614443D01*
X23836951Y-7576616D01*
X23906114Y-7554550D01*
X23977154Y-7548167D01*
X24016111Y-7548322D01*
G37*
G36*
X25477245Y-8326422D02*
G01*
X25406803Y-8321743D01*
X25335117Y-8307705D01*
X25262186Y-8284309D01*
X25221132Y-8267267D01*
X25221132Y-7568000D01*
X24876456Y-7568000D01*
X24876456Y-8611942D01*
X25181809Y-8611942D01*
X25201299Y-8483715D01*
X25265441Y-8533916D01*
X25330665Y-8573730D01*
X25396970Y-8603159D01*
X25464358Y-8622200D01*
X25532827Y-8630856D01*
X25555891Y-8631433D01*
X25644453Y-8631433D01*
X25644453Y-8326422D01*
X25477245Y-8326422D01*
G37*
G36*
X25738487Y-7843603D02*
G01*
X25811948Y-7838348D01*
X25882434Y-7833609D01*
X25971787Y-7828096D01*
X26055851Y-7823501D01*
X26134626Y-7819825D01*
X26208111Y-7817068D01*
X26292529Y-7814914D01*
X26368682Y-7814196D01*
X26417922Y-7833687D01*
X26437754Y-7883268D01*
X26437754Y-7951998D01*
X26014091Y-7951998D01*
X25943050Y-7958381D01*
X25873888Y-7980447D01*
X25815010Y-8018274D01*
X25799352Y-8032696D01*
X25756797Y-8088488D01*
X25730003Y-8154565D01*
X25719364Y-8222829D01*
X25718654Y-8247434D01*
X25718654Y-8316506D01*
X25725038Y-8387519D01*
X25747104Y-8456588D01*
X25784931Y-8515306D01*
X25799352Y-8530903D01*
X25855145Y-8573638D01*
X25921222Y-8600546D01*
X25989485Y-8611230D01*
X26014091Y-8611942D01*
X26683951Y-8611942D01*
X26683951Y-8355829D01*
X26132402Y-8355829D01*
X26082820Y-8335997D01*
X26063330Y-8286757D01*
X26082820Y-8237518D01*
X26132402Y-8218027D01*
X26486994Y-8218027D01*
X26558007Y-8211617D01*
X26627076Y-8189458D01*
X26685793Y-8151470D01*
X26701390Y-8136988D01*
X26744126Y-8081376D01*
X26771033Y-8015412D01*
X26781717Y-7947194D01*
X26782430Y-7922591D01*
X26782430Y-7843603D01*
X26776019Y-7772563D01*
X26753860Y-7703400D01*
X26715873Y-7644523D01*
X26701390Y-7628865D01*
X26645778Y-7586309D01*
X26579814Y-7559515D01*
X26511596Y-7548876D01*
X26486994Y-7548167D01*
X26399003Y-7548787D01*
X26309420Y-7550646D01*
X26218245Y-7553745D01*
X26148819Y-7556882D01*
X26078497Y-7560717D01*
X26007279Y-7565249D01*
X25935167Y-7570479D01*
X25862158Y-7576405D01*
X25788254Y-7583029D01*
X25738487Y-7587832D01*
X25738487Y-7843603D01*
G37*
G36*
X27328508Y-8572619D02*
G01*
X27328508Y-7568000D01*
X26983832Y-7568000D01*
X26983832Y-8306590D01*
X26836114Y-8306590D01*
X26836114Y-8572619D01*
X27328508Y-8572619D01*
G37*
G36*
X26983832Y-8966534D02*
G01*
X27328508Y-8966534D01*
X27328508Y-8690588D01*
X26983832Y-8690588D01*
X26983832Y-8966534D01*
G37*
G36*
X28297343Y-7548903D02*
G01*
X28371959Y-7559948D01*
X28442938Y-7587764D01*
X28501362Y-7631942D01*
X28525496Y-7659683D01*
X28561494Y-7724532D01*
X28579901Y-7793573D01*
X28585137Y-7863436D01*
X28585137Y-8316506D01*
X28584401Y-8343638D01*
X28573356Y-8418255D01*
X28545540Y-8489234D01*
X28501362Y-8547658D01*
X28473720Y-8571792D01*
X28409018Y-8607789D01*
X28340052Y-8626197D01*
X28270211Y-8631433D01*
X27817140Y-8631433D01*
X27781210Y-8630124D01*
X27707672Y-8617607D01*
X27644251Y-8591836D01*
X27585647Y-8547658D01*
X27561512Y-8520015D01*
X27525515Y-8455314D01*
X27507107Y-8386347D01*
X27501871Y-8316506D01*
X27501871Y-7892842D01*
X27846547Y-7892842D01*
X27846547Y-8286757D01*
X27861666Y-8340753D01*
X27925535Y-8365745D01*
X28161816Y-8365745D01*
X28215578Y-8350627D01*
X28240462Y-8286757D01*
X28240462Y-7892842D01*
X28227482Y-7841922D01*
X28161816Y-7814196D01*
X27925535Y-7814196D01*
X27874393Y-7827176D01*
X27846547Y-7892842D01*
X27501871Y-7892842D01*
X27501871Y-7863436D01*
X27503180Y-7827505D01*
X27515698Y-7753968D01*
X27541468Y-7690546D01*
X27585647Y-7631942D01*
X27613388Y-7607808D01*
X27678236Y-7571811D01*
X27747277Y-7553403D01*
X27817140Y-7548167D01*
X28270211Y-7548167D01*
X28297343Y-7548903D01*
G37*
G36*
X29336379Y-8345913D02*
G01*
X29261406Y-8341266D01*
X29187568Y-8328978D01*
X29116489Y-8311352D01*
X29100099Y-8306590D01*
X29100099Y-7568000D01*
X28755423Y-7568000D01*
X28755423Y-8611942D01*
X29060776Y-8611942D01*
X29080266Y-8513464D01*
X29144540Y-8551470D01*
X29209944Y-8581799D01*
X29270385Y-8602710D01*
X29339195Y-8620213D01*
X29408656Y-8630423D01*
X29434858Y-8631433D01*
X29523421Y-8631433D01*
X29594599Y-8625050D01*
X29663788Y-8602984D01*
X29722559Y-8565157D01*
X29738159Y-8550735D01*
X29780714Y-8495090D01*
X29807509Y-8429026D01*
X29818147Y-8360660D01*
X29818857Y-8335997D01*
X29818857Y-7568000D01*
X29474181Y-7568000D01*
X29474181Y-8277183D01*
X29454349Y-8326080D01*
X29405451Y-8345913D01*
X29336379Y-8345913D01*
G37*
G36*
X31246798Y-7548167D02*
G01*
X31163456Y-7548787D01*
X31077901Y-7550646D01*
X30990135Y-7553745D01*
X30900156Y-7558083D01*
X30831221Y-7562150D01*
X30761042Y-7566915D01*
X30689618Y-7572377D01*
X30616950Y-7578536D01*
X30543038Y-7585392D01*
X30518124Y-7587832D01*
X30518124Y-7853519D01*
X30597802Y-7848264D01*
X30673604Y-7843526D01*
X30745528Y-7839304D01*
X30835397Y-7834480D01*
X30918374Y-7830574D01*
X30994458Y-7827587D01*
X31063650Y-7825520D01*
X31140448Y-7824227D01*
X31168152Y-7824113D01*
X31234796Y-7845737D01*
X31239959Y-7850442D01*
X31266396Y-7914229D01*
X31266631Y-7922591D01*
X31266631Y-8001237D01*
X31252651Y-8068596D01*
X31194419Y-8113887D01*
X31148319Y-8119549D01*
X30734914Y-8119549D01*
X30734914Y-8395152D01*
X31108996Y-8395152D01*
X31176355Y-8409132D01*
X31221646Y-8467364D01*
X31227308Y-8513464D01*
X31227308Y-8552787D01*
X31213327Y-8620145D01*
X31155096Y-8665437D01*
X31108996Y-8671098D01*
X30537957Y-8671098D01*
X30537957Y-8946702D01*
X31207475Y-8946702D01*
X31276317Y-8943612D01*
X31347517Y-8932198D01*
X31416867Y-8908855D01*
X31479558Y-8869464D01*
X31491285Y-8858823D01*
X31535088Y-8802335D01*
X31564555Y-8731349D01*
X31578714Y-8656079D01*
X31581899Y-8592110D01*
X31576590Y-8522687D01*
X31558485Y-8456272D01*
X31527531Y-8400281D01*
X31477935Y-8347551D01*
X31416939Y-8309380D01*
X31384942Y-8296674D01*
X31449763Y-8271653D01*
X31511862Y-8228312D01*
X31561182Y-8169242D01*
X31593853Y-8104653D01*
X31601390Y-8083987D01*
X31616865Y-8013624D01*
X31621222Y-7942082D01*
X31621222Y-7922591D01*
X31618037Y-7853749D01*
X31606268Y-7782549D01*
X31582198Y-7713200D01*
X31541581Y-7650509D01*
X31530608Y-7638781D01*
X31471523Y-7594978D01*
X31405379Y-7568077D01*
X31336985Y-7553830D01*
X31258773Y-7548255D01*
X31246798Y-7548167D01*
G37*
G36*
X31733379Y-7863436D02*
G01*
X32087970Y-7863436D01*
X32087970Y-7568000D01*
X31733379Y-7568000D01*
X31733379Y-7863436D01*
G37*
G36*
X33247831Y-8513464D02*
G01*
X33241041Y-8442336D01*
X33220669Y-8375562D01*
X33186718Y-8313139D01*
X33139185Y-8255069D01*
X33105926Y-8223840D01*
X33051584Y-8179460D01*
X33011208Y-8148956D01*
X32587887Y-7843603D01*
X33247831Y-7843603D01*
X33247831Y-7568000D01*
X32184056Y-7568000D01*
X32184056Y-7942082D01*
X32893239Y-8454308D01*
X32893239Y-8552787D01*
X32879259Y-8620145D01*
X32821028Y-8665437D01*
X32774928Y-8671098D01*
X32223379Y-8671098D01*
X32223379Y-8946702D01*
X32853916Y-8946702D01*
X32927398Y-8943408D01*
X33003100Y-8931239D01*
X33076393Y-8906352D01*
X33135580Y-8869754D01*
X33154139Y-8853010D01*
X33199430Y-8791521D01*
X33227244Y-8721786D01*
X33241975Y-8649128D01*
X33247465Y-8578202D01*
X33247831Y-8552787D01*
X33247831Y-8513464D01*
G37*
G36*
X33359645Y-7863436D02*
G01*
X33714237Y-7863436D01*
X33714237Y-7568000D01*
X33359645Y-7568000D01*
X33359645Y-7863436D01*
G37*
G36*
X34643400Y-7548533D02*
G01*
X34714326Y-7554023D01*
X34786984Y-7568754D01*
X34856719Y-7596568D01*
X34918208Y-7641859D01*
X34934951Y-7660417D01*
X34971550Y-7719605D01*
X34996437Y-7792898D01*
X35008605Y-7868599D01*
X35011899Y-7942082D01*
X35011899Y-8572619D01*
X35011533Y-8597995D01*
X35006044Y-8668833D01*
X34991313Y-8741449D01*
X34963498Y-8811215D01*
X34918208Y-8872842D01*
X34899707Y-8889586D01*
X34840615Y-8926184D01*
X34767333Y-8951071D01*
X34691571Y-8963240D01*
X34617984Y-8966534D01*
X34243560Y-8966534D01*
X34218184Y-8966168D01*
X34147347Y-8960678D01*
X34074731Y-8945948D01*
X34004964Y-8918133D01*
X33943337Y-8872842D01*
X33926593Y-8854284D01*
X33889995Y-8795096D01*
X33865108Y-8721803D01*
X33852939Y-8646102D01*
X33849645Y-8572619D01*
X33849645Y-7942082D01*
X34204237Y-7942082D01*
X34204237Y-8572619D01*
X34209898Y-8618586D01*
X34255189Y-8676649D01*
X34322548Y-8690588D01*
X34538996Y-8690588D01*
X34585096Y-8684943D01*
X34643327Y-8639783D01*
X34657308Y-8572619D01*
X34657308Y-7942082D01*
X34651646Y-7896115D01*
X34606355Y-7838052D01*
X34538996Y-7824113D01*
X34322548Y-7824113D01*
X34276449Y-7829758D01*
X34218217Y-7874918D01*
X34204237Y-7942082D01*
X33849645Y-7942082D01*
X33850011Y-7916706D01*
X33855501Y-7845868D01*
X33870232Y-7773252D01*
X33898047Y-7703486D01*
X33943337Y-7641859D01*
X33961896Y-7625115D01*
X34021083Y-7588517D01*
X34094376Y-7563630D01*
X34170078Y-7551461D01*
X34243560Y-7548167D01*
X34617984Y-7548167D01*
X34643400Y-7548533D01*
G37*
D10*
G36*
X15742359Y-12930457D02*
G01*
X16279694Y-12930457D01*
X16279694Y-11479654D01*
X16274834Y-11372350D01*
X16256878Y-11261617D01*
X16225693Y-11166451D01*
X16173853Y-11076753D01*
X16141452Y-11039529D01*
X16062104Y-10979048D01*
X15962300Y-10935848D01*
X15858192Y-10912222D01*
X15756492Y-10902502D01*
X15701327Y-10901287D01*
X15054572Y-10901287D01*
X14947118Y-10906147D01*
X14836298Y-10924103D01*
X14741139Y-10955288D01*
X14651563Y-11007128D01*
X14614446Y-11039529D01*
X14553965Y-11119060D01*
X14510765Y-11218925D01*
X14487140Y-11322986D01*
X14477420Y-11424572D01*
X14476205Y-11479654D01*
X14476205Y-12930457D01*
X15013539Y-12930457D01*
X15013539Y-11479654D01*
X15038853Y-11380660D01*
X15122735Y-11330491D01*
X15166923Y-11326758D01*
X15588975Y-11326758D01*
X15688285Y-11351992D01*
X15739963Y-11443819D01*
X15742359Y-11479654D01*
X15742359Y-12930457D01*
G37*
G36*
X17534125Y-10929620D02*
G01*
X16490231Y-10929620D01*
X16490231Y-11354602D01*
X16743267Y-11354602D01*
X16743267Y-12505474D01*
X16490231Y-12505474D01*
X16490231Y-12930457D01*
X17534125Y-12930457D01*
X17534125Y-12505474D01*
X17281089Y-12505474D01*
X17281089Y-11354602D01*
X17534125Y-11354602D01*
X17534125Y-10929620D01*
G37*
G36*
X19496372Y-10929620D02*
G01*
X18937056Y-10929620D01*
X18286393Y-12068280D01*
X18286393Y-10929620D01*
X17749059Y-10929620D01*
X17749059Y-12930457D01*
X18308375Y-12930457D01*
X18958549Y-11792285D01*
X18958549Y-12930457D01*
X19496372Y-12930457D01*
X19496372Y-10929620D01*
G37*
G36*
X20752269Y-10929620D02*
G01*
X19708375Y-10929620D01*
X19708375Y-11354602D01*
X19961410Y-11354602D01*
X19961410Y-12505474D01*
X19708375Y-12505474D01*
X19708375Y-12930457D01*
X20752269Y-12930457D01*
X20752269Y-12505474D01*
X20499233Y-12505474D01*
X20499233Y-11354602D01*
X20752269Y-11354602D01*
X20752269Y-10929620D01*
G37*
G36*
X22247490Y-10902502D02*
G01*
X22349190Y-10912222D01*
X22453298Y-10935848D01*
X22553102Y-10979048D01*
X22632450Y-11039529D01*
X22664851Y-11076753D01*
X22716691Y-11166451D01*
X22747876Y-11261617D01*
X22765832Y-11372350D01*
X22770692Y-11479654D01*
X22770692Y-12380422D01*
X22769477Y-12435500D01*
X22759757Y-12537051D01*
X22736131Y-12641029D01*
X22692931Y-12740741D01*
X22632450Y-12820059D01*
X22595333Y-12852574D01*
X22505757Y-12904598D01*
X22410598Y-12935893D01*
X22299778Y-12953912D01*
X22192325Y-12958789D01*
X21488905Y-12958789D01*
X21433823Y-12957570D01*
X21332237Y-12947815D01*
X21228176Y-12924107D01*
X21128311Y-12880753D01*
X21048780Y-12820059D01*
X21016379Y-12782949D01*
X20964539Y-12693434D01*
X20933353Y-12598379D01*
X20915398Y-12487709D01*
X20910538Y-12380422D01*
X20910538Y-11479654D01*
X21448361Y-11479654D01*
X21448361Y-12380422D01*
X21450757Y-12416257D01*
X21502435Y-12508084D01*
X21601745Y-12533318D01*
X22079973Y-12533318D01*
X22124161Y-12529585D01*
X22208043Y-12479416D01*
X22233357Y-12380422D01*
X22233357Y-11479654D01*
X22230961Y-11443819D01*
X22179283Y-11351992D01*
X22079973Y-11326758D01*
X21601745Y-11326758D01*
X21557557Y-11330491D01*
X21473675Y-11380660D01*
X21448361Y-11479654D01*
X20910538Y-11479654D01*
X20911753Y-11424572D01*
X20921473Y-11322986D01*
X20945098Y-11218925D01*
X20988299Y-11119060D01*
X21048780Y-11039529D01*
X21086004Y-11007128D01*
X21175702Y-10955288D01*
X21270867Y-10924103D01*
X21381601Y-10906147D01*
X21488905Y-10901287D01*
X22192325Y-10901287D01*
X22247490Y-10902502D01*
G37*
G36*
X22926519Y-11717547D02*
G01*
X22926519Y-12142529D01*
X24111096Y-12142529D01*
X24111096Y-11717547D01*
X22926519Y-11717547D01*
G37*
G36*
X26014237Y-11982306D02*
G01*
X25644941Y-11323339D01*
X25232660Y-11323339D01*
X24863364Y-11982306D01*
X24863364Y-10929620D01*
X24326030Y-10929620D01*
X24326030Y-12930457D01*
X24885346Y-12930457D01*
X25438801Y-11906591D01*
X25992255Y-12930457D01*
X26551571Y-12930457D01*
X26551571Y-10929620D01*
X26014237Y-10929620D01*
X26014237Y-11982306D01*
G37*
G36*
X28395116Y-10959417D02*
G01*
X28276679Y-10949029D01*
X28162251Y-10939662D01*
X28051834Y-10931317D01*
X27945427Y-10923994D01*
X27843029Y-10917693D01*
X27744642Y-10912414D01*
X27619696Y-10906964D01*
X27501880Y-10903331D01*
X27391192Y-10901514D01*
X27338521Y-10901287D01*
X27237846Y-10905993D01*
X27133544Y-10923377D01*
X27031687Y-10958930D01*
X26948331Y-11011213D01*
X26921843Y-11035132D01*
X26857143Y-11122403D01*
X26817407Y-11219635D01*
X26796363Y-11319889D01*
X26788129Y-11434309D01*
X26787998Y-11451811D01*
X26787998Y-12352090D01*
X26792858Y-12459543D01*
X26810813Y-12570363D01*
X26841999Y-12665522D01*
X26893839Y-12755098D01*
X26926239Y-12792215D01*
X27005771Y-12852696D01*
X27105636Y-12895897D01*
X27209697Y-12919522D01*
X27311283Y-12929242D01*
X27366365Y-12930457D01*
X28395116Y-12930457D01*
X28395116Y-12505474D01*
X27479205Y-12505474D01*
X27379895Y-12480160D01*
X27329565Y-12396278D01*
X27325821Y-12352090D01*
X27325821Y-11451811D01*
X27359038Y-11359975D01*
X27448431Y-11326758D01*
X27548746Y-11327726D01*
X27574460Y-11328224D01*
X27673720Y-11330701D01*
X27720517Y-11332132D01*
X27820745Y-11335979D01*
X27873413Y-11337994D01*
X27974616Y-11342991D01*
X28073204Y-11349229D01*
X28175946Y-11356006D01*
X28278042Y-11362494D01*
X28382734Y-11368986D01*
X28395116Y-11369745D01*
X28395116Y-10959417D01*
G37*
G36*
X29845918Y-12930457D02*
G01*
X30383253Y-12930457D01*
X30383253Y-11479654D01*
X30378393Y-11372350D01*
X30360437Y-11261617D01*
X30329252Y-11166451D01*
X30277412Y-11076753D01*
X30245011Y-11039529D01*
X30165663Y-10979048D01*
X30065859Y-10935848D01*
X29961751Y-10912222D01*
X29860051Y-10902502D01*
X29804886Y-10901287D01*
X29158131Y-10901287D01*
X29050677Y-10906147D01*
X28939857Y-10924103D01*
X28844698Y-10955288D01*
X28755122Y-11007128D01*
X28718005Y-11039529D01*
X28657524Y-11119060D01*
X28614324Y-11218925D01*
X28590699Y-11322986D01*
X28580979Y-11424572D01*
X28579764Y-11479654D01*
X28579764Y-12930457D01*
X29117098Y-12930457D01*
X29117098Y-11479654D01*
X29142412Y-11380660D01*
X29226294Y-11330491D01*
X29270482Y-11326758D01*
X29692534Y-11326758D01*
X29791844Y-11351992D01*
X29843522Y-11443819D01*
X29845918Y-11479654D01*
X29845918Y-12930457D01*
G37*
G36*
X30593790Y-11717547D02*
G01*
X30593790Y-12142529D01*
X31778368Y-12142529D01*
X31778368Y-11717547D01*
X30593790Y-11717547D01*
G37*
G36*
X32530636Y-11520687D02*
G01*
X32899931Y-11520687D01*
X33223309Y-10929620D01*
X33808026Y-10929620D01*
X33453385Y-11553904D01*
X33543125Y-11587583D01*
X33624870Y-11646008D01*
X33688835Y-11726828D01*
X33723884Y-11800467D01*
X33751344Y-11898785D01*
X33765114Y-11999932D01*
X33768947Y-12099054D01*
X33768947Y-12352090D01*
X33767732Y-12407255D01*
X33758012Y-12508955D01*
X33734387Y-12613063D01*
X33691186Y-12712867D01*
X33630706Y-12792215D01*
X33593588Y-12824616D01*
X33504012Y-12876456D01*
X33408853Y-12907642D01*
X33298033Y-12925597D01*
X33190580Y-12930457D01*
X31993302Y-12930457D01*
X31993302Y-12505474D01*
X32530636Y-12505474D01*
X33077740Y-12505474D01*
X33121928Y-12501730D01*
X33205810Y-12451400D01*
X33231124Y-12352090D01*
X33231124Y-12099054D01*
X33227380Y-12054866D01*
X33177050Y-11970984D01*
X33077740Y-11945670D01*
X32530636Y-11945670D01*
X32530636Y-12505474D01*
X31993302Y-12505474D01*
X31993302Y-10929620D01*
X32530636Y-10929620D01*
X32530636Y-11520687D01*
G37*
G36*
X34545151Y-11492355D02*
G01*
X35205095Y-11492355D01*
X35260260Y-11493570D01*
X35361960Y-11503290D01*
X35466068Y-11526915D01*
X35565872Y-11570116D01*
X35645221Y-11630596D01*
X35677621Y-11667714D01*
X35729461Y-11757290D01*
X35760647Y-11852449D01*
X35778602Y-11963269D01*
X35783462Y-12070722D01*
X35783462Y-12352090D01*
X35782247Y-12407255D01*
X35772527Y-12508955D01*
X35748902Y-12613063D01*
X35705701Y-12712867D01*
X35645221Y-12792215D01*
X35608103Y-12824616D01*
X35518527Y-12876456D01*
X35423368Y-12907642D01*
X35312548Y-12925597D01*
X35205095Y-12930457D01*
X34007817Y-12930457D01*
X34007817Y-12505474D01*
X34545151Y-12505474D01*
X35092255Y-12505474D01*
X35136443Y-12501730D01*
X35220325Y-12451400D01*
X35245639Y-12352090D01*
X35245639Y-12070722D01*
X35241895Y-12026534D01*
X35191565Y-11942652D01*
X35092255Y-11917338D01*
X34545151Y-11917338D01*
X34545151Y-12505474D01*
X34007817Y-12505474D01*
X34007817Y-10929620D01*
X34545151Y-10929620D01*
X34545151Y-11492355D01*
G37*
G36*
X37433078Y-12295914D02*
G01*
X37423121Y-12191238D01*
X37393248Y-12093061D01*
X37343459Y-12001381D01*
X37273756Y-11916200D01*
X37224983Y-11870443D01*
X37146773Y-11806462D01*
X37088696Y-11762488D01*
X36523029Y-11354602D01*
X37433078Y-11354602D01*
X37433078Y-10929620D01*
X35882136Y-10929620D01*
X35882136Y-11487470D01*
X36895255Y-12219222D01*
X36895255Y-12352090D01*
X36869941Y-12451400D01*
X36786059Y-12501730D01*
X36741871Y-12505474D01*
X35938312Y-12505474D01*
X35938312Y-12930457D01*
X36854711Y-12930457D01*
X36961999Y-12925597D01*
X37072668Y-12907642D01*
X37167724Y-12876456D01*
X37257239Y-12824616D01*
X37294348Y-12792215D01*
X37355043Y-12712867D01*
X37398396Y-12613063D01*
X37422104Y-12508955D01*
X37431859Y-12407255D01*
X37433078Y-12352090D01*
X37433078Y-12295914D01*
G37*
G36*
X38757818Y-10902502D02*
G01*
X38859518Y-10912222D01*
X38963626Y-10935848D01*
X39063430Y-10979048D01*
X39142778Y-11039529D01*
X39175179Y-11076753D01*
X39227019Y-11166451D01*
X39258204Y-11261617D01*
X39276160Y-11372350D01*
X39281020Y-11479654D01*
X39281020Y-12380422D01*
X39279805Y-12435500D01*
X39270085Y-12537051D01*
X39246459Y-12641029D01*
X39203259Y-12740741D01*
X39142778Y-12820059D01*
X39105661Y-12852574D01*
X39016085Y-12904598D01*
X38920926Y-12935893D01*
X38810106Y-12953912D01*
X38702653Y-12958789D01*
X38167761Y-12958789D01*
X38112679Y-12957570D01*
X38011093Y-12947815D01*
X37907031Y-12924107D01*
X37807167Y-12880753D01*
X37727635Y-12820059D01*
X37695235Y-12782949D01*
X37643394Y-12693434D01*
X37612209Y-12598379D01*
X37594254Y-12487709D01*
X37589394Y-12380422D01*
X37589394Y-11479654D01*
X38127216Y-11479654D01*
X38127216Y-12380422D01*
X38129613Y-12416257D01*
X38181290Y-12508084D01*
X38280601Y-12533318D01*
X38589812Y-12533318D01*
X38634000Y-12529585D01*
X38717882Y-12479416D01*
X38743197Y-12380422D01*
X38743197Y-11479654D01*
X38740800Y-11443819D01*
X38689123Y-11351992D01*
X38589812Y-11326758D01*
X38280601Y-11326758D01*
X38236413Y-11330491D01*
X38152531Y-11380660D01*
X38127216Y-11479654D01*
X37589394Y-11479654D01*
X37590609Y-11424572D01*
X37600329Y-11322986D01*
X37623954Y-11218925D01*
X37667154Y-11119060D01*
X37727635Y-11039529D01*
X37764859Y-11007128D01*
X37854557Y-10955288D01*
X37949723Y-10924103D01*
X38060456Y-10906147D01*
X38167761Y-10901287D01*
X38702653Y-10901287D01*
X38757818Y-10902502D01*
G37*
G36*
X40449966Y-11323339D02*
G01*
X39409003Y-11323339D01*
X39409003Y-11737575D01*
X40090929Y-12930457D01*
X40689812Y-12930457D01*
X40014237Y-11748810D01*
X40449966Y-11748810D01*
X40449966Y-12170862D01*
X40987789Y-12170862D01*
X40987789Y-11748810D01*
X41184648Y-11748810D01*
X41184648Y-11323339D01*
X40987789Y-11323339D01*
X40987789Y-10929620D01*
X40449966Y-10929620D01*
X40449966Y-11323339D01*
G37*
G36*
X42452723Y-10902502D02*
G01*
X42554424Y-10912222D01*
X42658532Y-10935848D01*
X42758336Y-10979048D01*
X42837684Y-11039529D01*
X42870084Y-11076753D01*
X42921925Y-11166451D01*
X42953110Y-11261617D01*
X42971065Y-11372350D01*
X42975925Y-11479654D01*
X42975925Y-12380422D01*
X42974710Y-12435500D01*
X42964990Y-12537051D01*
X42941365Y-12641029D01*
X42898165Y-12740741D01*
X42837684Y-12820059D01*
X42800567Y-12852574D01*
X42710991Y-12904598D01*
X42615832Y-12935893D01*
X42505012Y-12953912D01*
X42397558Y-12958789D01*
X41862667Y-12958789D01*
X41807585Y-12957570D01*
X41705999Y-12947815D01*
X41601937Y-12924107D01*
X41502072Y-12880753D01*
X41422541Y-12820059D01*
X41390141Y-12782949D01*
X41338300Y-12693434D01*
X41307115Y-12598379D01*
X41289160Y-12487709D01*
X41284299Y-12380422D01*
X41284299Y-11479654D01*
X41822122Y-11479654D01*
X41822122Y-12380422D01*
X41824519Y-12416257D01*
X41876196Y-12508084D01*
X41975507Y-12533318D01*
X42284718Y-12533318D01*
X42328906Y-12529585D01*
X42412788Y-12479416D01*
X42438103Y-12380422D01*
X42438103Y-11479654D01*
X42435706Y-11443819D01*
X42384029Y-11351992D01*
X42284718Y-11326758D01*
X41975507Y-11326758D01*
X41931319Y-11330491D01*
X41847437Y-11380660D01*
X41822122Y-11479654D01*
X41284299Y-11479654D01*
X41285514Y-11424572D01*
X41295235Y-11322986D01*
X41318860Y-11218925D01*
X41362060Y-11119060D01*
X41422541Y-11039529D01*
X41459765Y-11007128D01*
X41549463Y-10955288D01*
X41644629Y-10924103D01*
X41755362Y-10906147D01*
X41862667Y-10901287D01*
X42397558Y-10901287D01*
X42452723Y-10902502D01*
G37*
D12*
%TO.C,HOLE\u002A\u002A*%
X57500000Y-24780000D02*
G75*
G02*
X53900000Y-24780000I-1800000J0D01*
G01*
X53900000Y-24780000D02*
G75*
G02*
X57500000Y-24780000I1800000J0D01*
G01*
X2000972Y-24780000D02*
G75*
G02*
X-1599028Y-24780000I-1800000J0D01*
G01*
X-1599028Y-24780000D02*
G75*
G02*
X2000972Y-24780000I1800000J0D01*
G01*
X2000972Y-3160000D02*
G75*
G02*
X-1599028Y-3160000I-1800000J0D01*
G01*
X-1599028Y-3160000D02*
G75*
G02*
X2000972Y-3160000I1800000J0D01*
G01*
X57500000Y-3160000D02*
G75*
G02*
X53900000Y-3160000I-1800000J0D01*
G01*
X53900000Y-3160000D02*
G75*
G02*
X57500000Y-3160000I1800000J0D01*
G01*
%TD*%
%LPC*%
D13*
%TO.C,USB1*%
X-1380000Y-18295000D03*
X-1380000Y-9645000D03*
D14*
X2820000Y-18295000D03*
X2820000Y-9645000D03*
D15*
X2320000Y-16860000D03*
X2320000Y-11080000D03*
%TD*%
D16*
%TO.C,HOLE\u002A\u002A*%
X55700000Y-24780000D03*
%TD*%
%TO.C,HOLE\u002A\u002A*%
X200972Y-24780000D03*
%TD*%
%TO.C,HOLE\u002A\u002A*%
X200972Y-3160000D03*
%TD*%
D17*
%TO.C,J3*%
X57530972Y-10175000D03*
D18*
X57530972Y-12715000D03*
X57530972Y-15255000D03*
X57530972Y-17795000D03*
%TD*%
D17*
%TO.C,J2*%
X3780972Y-1340000D03*
D18*
X6320972Y-1340000D03*
X8860972Y-1340000D03*
X11400972Y-1340000D03*
X13940972Y-1340000D03*
X16480972Y-1340000D03*
X19020972Y-1340000D03*
X21560972Y-1340000D03*
X24100972Y-1340000D03*
X26640972Y-1340000D03*
X29180972Y-1340000D03*
X31720972Y-1340000D03*
X34260972Y-1340000D03*
X36800972Y-1340000D03*
X39340972Y-1340000D03*
X41880972Y-1340000D03*
X44420972Y-1340000D03*
X46960972Y-1340000D03*
X49500972Y-1340000D03*
X52040972Y-1340000D03*
%TD*%
D17*
%TO.C,J1*%
X3780972Y-26600000D03*
D18*
X6320972Y-26600000D03*
X8860972Y-26600000D03*
X11400972Y-26600000D03*
X13940972Y-26600000D03*
X16480972Y-26600000D03*
X19020972Y-26600000D03*
X21560972Y-26600000D03*
X24100972Y-26600000D03*
X26640972Y-26600000D03*
X29180972Y-26600000D03*
X31720972Y-26600000D03*
X34260972Y-26600000D03*
X36800972Y-26600000D03*
X39340972Y-26600000D03*
X41880972Y-26600000D03*
X44420972Y-26600000D03*
X46960972Y-26600000D03*
X49500972Y-26600000D03*
X52040972Y-26600000D03*
%TD*%
D16*
%TO.C,HOLE\u002A\u002A*%
X55700000Y-3160000D03*
%TD*%
%LPD*%
M02*
