%TF.GenerationSoftware,KiCad,Pcbnew,8.0.4*%
%TF.CreationDate,2024-09-04T11:41:35+08:00*%
%TF.ProjectId,UINIO-MCU-RP2040,55494e49-4f2d-44d4-9355-2d5250323034,Version 3.0.0*%
%TF.SameCoordinates,PX73394ecPY5396ed0*%
%TF.FileFunction,Copper,L2,Bot*%
%TF.FilePolarity,Positive*%
%FSLAX46Y46*%
G04 Gerber Fmt 4.6, Leading zero omitted, Abs format (unit mm)*
G04 Created by KiCad (PCBNEW 8.0.4) date 2024-09-04 11:41:35*
%MOMM*%
%LPD*%
G01*
G04 APERTURE LIST*
%TA.AperFunction,ComponentPad*%
%ADD10O,2.100000X1.000000*%
%TD*%
%TA.AperFunction,ComponentPad*%
%ADD11O,1.900000X1.000000*%
%TD*%
%TA.AperFunction,ComponentPad*%
%ADD12R,1.700000X1.700000*%
%TD*%
%TA.AperFunction,ComponentPad*%
%ADD13O,1.700000X1.700000*%
%TD*%
%TA.AperFunction,ViaPad*%
%ADD14C,0.500000*%
%TD*%
%TA.AperFunction,ViaPad*%
%ADD15C,0.700000*%
%TD*%
%TA.AperFunction,ViaPad*%
%ADD16C,0.900000*%
%TD*%
%TA.AperFunction,Conductor*%
%ADD17C,0.500000*%
%TD*%
%TA.AperFunction,Conductor*%
%ADD18C,0.200000*%
%TD*%
%TA.AperFunction,Conductor*%
%ADD19C,0.300000*%
%TD*%
%TA.AperFunction,Conductor*%
%ADD20C,0.150000*%
%TD*%
G04 APERTURE END LIST*
D10*
%TO.P,USB1,13,GND*%
%TO.N,GND*%
X1139000Y-8365000D03*
%TO.P,USB1,14,GND*%
X1139000Y-17015000D03*
D11*
%TO.P,USB1,15,GND*%
X-3061000Y-8365000D03*
%TO.P,USB1,16,GND*%
X-3061000Y-17015000D03*
%TD*%
D12*
%TO.P,J3,1,Pin_1*%
%TO.N,/VDD_3.3V*%
X55550000Y-8895000D03*
D13*
%TO.P,J3,2,Pin_2*%
%TO.N,Net-(J3-Pin_2)*%
X55550000Y-11435000D03*
%TO.P,J3,3,Pin_3*%
%TO.N,Net-(J3-Pin_3)*%
X55550000Y-13975000D03*
%TO.P,J3,4,Pin_4*%
%TO.N,GND*%
X55550000Y-16515000D03*
%TD*%
D12*
%TO.P,J2,1,Pin_1*%
%TO.N,GND*%
X1800000Y-1340000D03*
D13*
%TO.P,J2,2,Pin_2*%
%TO.N,/VDD_3.3V*%
X4340000Y-1340000D03*
%TO.P,J2,3,Pin_3*%
%TO.N,GND*%
X6880000Y-1340000D03*
%TO.P,J2,4,Pin_4*%
%TO.N,/LDO_EN*%
X9420000Y-1340000D03*
%TO.P,J2,5,Pin_5*%
%TO.N,/ADC_VREF*%
X11960000Y-1340000D03*
%TO.P,J2,6,Pin_6*%
%TO.N,/GPIO28_ADC2*%
X14500000Y-1340000D03*
%TO.P,J2,7,Pin_7*%
%TO.N,/GPIO27_ADC1*%
X17040000Y-1340000D03*
%TO.P,J2,8,Pin_8*%
%TO.N,/GPIO26_ADC0*%
X19580000Y-1340000D03*
%TO.P,J2,9,Pin_9*%
%TO.N,/GPIO24*%
X22120000Y-1340000D03*
%TO.P,J2,10,Pin_10*%
%TO.N,/GPIO23*%
X24660000Y-1340000D03*
%TO.P,J2,11,Pin_11*%
%TO.N,/GPIO22*%
X27200000Y-1340000D03*
%TO.P,J2,12,Pin_12*%
%TO.N,/GPIO21*%
X29740000Y-1340000D03*
%TO.P,J2,13,Pin_13*%
%TO.N,/GPIO20*%
X32280000Y-1340000D03*
%TO.P,J2,14,Pin_14*%
%TO.N,/GPIO19*%
X34820000Y-1340000D03*
%TO.P,J2,15,Pin_15*%
%TO.N,/GPIO18*%
X37360000Y-1340000D03*
%TO.P,J2,16,Pin_16*%
%TO.N,/GPIO17*%
X39900000Y-1340000D03*
%TO.P,J2,17,Pin_17*%
%TO.N,/GPIO16*%
X42440000Y-1340000D03*
%TO.P,J2,18,Pin_18*%
%TO.N,/RUN*%
X44980000Y-1340000D03*
%TO.P,J2,19,Pin_19*%
%TO.N,/VDD_3.3V*%
X47520000Y-1340000D03*
%TO.P,J2,20,Pin_20*%
%TO.N,GND*%
X50060000Y-1340000D03*
%TD*%
D12*
%TO.P,J1,1,Pin_1*%
%TO.N,GND*%
X1800000Y-24060000D03*
D13*
%TO.P,J1,2,Pin_2*%
%TO.N,/VDD_5V*%
X4340000Y-24060000D03*
%TO.P,J1,3,Pin_3*%
%TO.N,/GPIO0*%
X6880000Y-24060000D03*
%TO.P,J1,4,Pin_4*%
%TO.N,/GPIO1*%
X9420000Y-24060000D03*
%TO.P,J1,5,Pin_5*%
%TO.N,/GPIO2*%
X11960000Y-24060000D03*
%TO.P,J1,6,Pin_6*%
%TO.N,/GPIO3*%
X14500000Y-24060000D03*
%TO.P,J1,7,Pin_7*%
%TO.N,/GPIO4*%
X17040000Y-24060000D03*
%TO.P,J1,8,Pin_8*%
%TO.N,/GPIO5*%
X19580000Y-24060000D03*
%TO.P,J1,9,Pin_9*%
%TO.N,/GPIO6*%
X22120000Y-24060000D03*
%TO.P,J1,10,Pin_10*%
%TO.N,/GPIO7*%
X24660000Y-24060000D03*
%TO.P,J1,11,Pin_11*%
%TO.N,/GPIO8*%
X27200000Y-24060000D03*
%TO.P,J1,12,Pin_12*%
%TO.N,/GPIO9*%
X29740000Y-24060000D03*
%TO.P,J1,13,Pin_13*%
%TO.N,/GPIO10*%
X32280000Y-24060000D03*
%TO.P,J1,14,Pin_14*%
%TO.N,/GPIO11*%
X34820000Y-24060000D03*
%TO.P,J1,15,Pin_15*%
%TO.N,/GPIO12*%
X37360000Y-24060000D03*
%TO.P,J1,16,Pin_16*%
%TO.N,/GPIO13*%
X39900000Y-24060000D03*
%TO.P,J1,17,Pin_17*%
%TO.N,/GPIO14*%
X42440000Y-24060000D03*
%TO.P,J1,18,Pin_18*%
%TO.N,/GPIO15*%
X44980000Y-24060000D03*
%TO.P,J1,19,Pin_19*%
%TO.N,/VDD_3.3V*%
X47520000Y-24060000D03*
%TO.P,J1,20,Pin_20*%
%TO.N,GND*%
X50060000Y-24060000D03*
%TD*%
D14*
%TO.N,GND*%
X51439028Y-6350000D03*
X25390000Y-15010000D03*
X31090000Y-3810000D03*
X16990000Y-17480000D03*
X25830000Y-8030000D03*
X21799028Y-12300000D03*
X33528000Y-3810000D03*
X8659028Y-10950000D03*
X17000000Y-8000000D03*
X10179028Y-10010000D03*
X52849028Y-7920000D03*
X13000000Y-5000000D03*
X21000000Y-5000000D03*
X16980000Y-16690000D03*
X12119028Y-10380000D03*
X20320000Y-22098000D03*
X37669028Y-6490000D03*
X15419028Y-10380000D03*
X37390000Y-10150000D03*
X11820000Y-16530000D03*
X4889028Y-12700000D03*
X8659028Y-14430000D03*
X17399028Y-12300000D03*
X22899028Y-12300000D03*
X7089028Y-14430000D03*
X35780000Y-19000000D03*
X18719028Y-10380000D03*
X18499028Y-12300000D03*
X53489028Y-15310000D03*
X10179028Y-10950000D03*
X39225829Y-18996801D03*
X16519028Y-10380000D03*
X38050000Y-10150000D03*
X53489028Y-10190000D03*
X17619028Y-10380000D03*
X19599028Y-12300000D03*
X39559028Y-6500000D03*
X20699028Y-12300000D03*
X4009028Y-12700000D03*
X17720000Y-16690000D03*
X14000000Y-5000000D03*
X16299028Y-12300000D03*
X52619028Y-15310000D03*
X7089028Y-10950000D03*
X28956000Y-3810000D03*
X11040000Y-15120000D03*
X18000000Y-5000000D03*
X13270000Y-13020000D03*
X13219028Y-10380000D03*
X12700000Y-22098000D03*
X10160000Y-22098000D03*
X32766000Y-21500000D03*
X50199028Y-5120000D03*
X51349028Y-12620000D03*
X52619028Y-10190000D03*
X21900000Y-10540000D03*
X50789028Y-5700000D03*
X14319028Y-10380000D03*
X17780000Y-22098000D03*
X16000000Y-8000000D03*
X21900000Y-8100000D03*
X52109028Y-7070000D03*
X24000000Y-5000000D03*
X38599028Y-6500000D03*
X47509028Y-6640000D03*
X36068000Y-21500000D03*
X50679028Y-11970000D03*
X15240000Y-22098000D03*
D15*
%TO.N,/VDD_3.3V*%
X35050000Y-18500000D03*
D16*
X11040000Y-9090000D03*
D15*
X47520000Y-9070000D03*
X28980000Y-7840000D03*
D14*
X21015000Y-8140000D03*
D16*
X15760000Y-18500000D03*
D14*
X37920000Y-8505000D03*
D15*
X24270000Y-9090000D03*
X39365000Y-16285000D03*
D16*
X11040000Y-13780000D03*
D15*
X27120000Y-15900000D03*
D16*
%TO.N,/VDD_5V*%
X9879028Y-19305000D03*
D15*
X40440000Y-20260000D03*
D14*
%TO.N,/GPIO25*%
X27275000Y-6870000D03*
X25090000Y-6870000D03*
D15*
%TO.N,/LDO_EN*%
X7809028Y-18300000D03*
D14*
%TO.N,/RUN*%
X44989028Y-6640000D03*
%TO.N,/GPIO29_ADC3*%
X38859028Y-17270000D03*
X25850000Y-9720000D03*
D15*
%TO.N,Net-(USB1-CC2)*%
X6090000Y-14430000D03*
X6090000Y-10950000D03*
D14*
%TO.N,/Boot_Select*%
X17000000Y-19510000D03*
X44899028Y-14100000D03*
D16*
%TO.N,/USB_5V*%
X4770000Y-16600000D03*
X3260000Y-10290000D03*
D14*
%TO.N,Net-(USB1-DN1)*%
X1052485Y-12947516D03*
X1050000Y-11940000D03*
%TD*%
D17*
%TO.N,GND*%
X39222630Y-19000000D02*
X39225829Y-18996801D01*
X35780000Y-19000000D02*
X39222630Y-19000000D01*
D18*
X37390000Y-10150000D02*
X38050000Y-10150000D01*
D17*
%TO.N,/VDD_3.3V*%
X15760000Y-18500000D02*
X11040000Y-13780000D01*
X21015000Y-8140000D02*
X21015000Y-9085000D01*
X21690000Y-9090000D02*
X24410000Y-9090000D01*
D19*
X27040000Y-18500000D02*
X35050000Y-18500000D01*
X38529028Y-18500000D02*
X35050000Y-18500000D01*
D17*
X15760000Y-18500000D02*
X27040000Y-18500000D01*
D19*
X39365000Y-17664028D02*
X38529028Y-18500000D01*
X37920000Y-9070000D02*
X37900000Y-9090000D01*
D17*
X11040000Y-13780000D02*
X11040000Y-9090000D01*
D19*
X37920000Y-8505000D02*
X37920000Y-9070000D01*
D17*
X21680000Y-9080000D02*
X21690000Y-9090000D01*
X21020000Y-9090000D02*
X21670000Y-9090000D01*
X47540000Y-9090000D02*
X55355000Y-9090000D01*
D19*
X27120000Y-18420000D02*
X27120000Y-15900000D01*
X28980000Y-7840000D02*
X28980000Y-9080000D01*
X39365000Y-16285000D02*
X39365000Y-17664028D01*
D17*
X21015000Y-9085000D02*
X21020000Y-9090000D01*
D19*
X27040000Y-18500000D02*
X27120000Y-18420000D01*
D17*
X21670000Y-9090000D02*
X21680000Y-9080000D01*
X47540000Y-9090000D02*
X47520000Y-9070000D01*
X37900000Y-9090000D02*
X47540000Y-9090000D01*
X29260000Y-9090000D02*
X37900000Y-9090000D01*
X24410000Y-9090000D02*
X29260000Y-9090000D01*
X11040000Y-9090000D02*
X21020000Y-9090000D01*
%TO.N,/VDD_5V*%
X9899028Y-20260000D02*
X40440000Y-20260000D01*
X9879028Y-19305000D02*
X9879028Y-20240000D01*
X8189028Y-20260000D02*
X9899028Y-20260000D01*
X9879028Y-20240000D02*
X9899028Y-20260000D01*
X4389028Y-24060000D02*
X8189028Y-20260000D01*
D18*
%TO.N,/GPIO25*%
X25090000Y-6870000D02*
X27275000Y-6870000D01*
D19*
%TO.N,/LDO_EN*%
X7809028Y-18300000D02*
X7809028Y-2950972D01*
X7809028Y-2950972D02*
X9420000Y-1340000D01*
%TO.N,/RUN*%
X44989028Y-6640000D02*
X44989028Y-1349028D01*
D18*
%TO.N,/GPIO29_ADC3*%
X38859028Y-17270000D02*
X33020000Y-17270000D01*
X25850000Y-10100000D02*
X25850000Y-9720000D01*
X33020000Y-17270000D02*
X25850000Y-10100000D01*
D19*
%TO.N,Net-(USB1-CC2)*%
X6090000Y-10950000D02*
X6090000Y-14430000D01*
D18*
%TO.N,/Boot_Select*%
X44899028Y-14100000D02*
X44889028Y-14100000D01*
X17010000Y-19520000D02*
X17000000Y-19510000D01*
X39469028Y-19520000D02*
X17010000Y-19520000D01*
X44889028Y-14100000D02*
X39469028Y-19520000D01*
D17*
%TO.N,/USB_5V*%
X3260000Y-10290000D02*
X3260000Y-15090000D01*
X3260000Y-15090000D02*
X4770000Y-16600000D01*
D18*
%TO.N,Net-(USB1-DN1)*%
X1052485Y-12947516D02*
X1050000Y-12945031D01*
D20*
X1050000Y-12945031D02*
X1050000Y-11940000D01*
%TD*%
%TA.AperFunction,Conductor*%
%TO.N,GND*%
G36*
X399600Y-270185D02*
G01*
X445355Y-322989D01*
X455850Y-387756D01*
X450000Y-442155D01*
X450000Y-1090000D01*
X1366988Y-1090000D01*
X1334075Y-1147007D01*
X1300000Y-1274174D01*
X1300000Y-1405826D01*
X1334075Y-1532993D01*
X1366988Y-1590000D01*
X450000Y-1590000D01*
X450000Y-2237844D01*
X456401Y-2297372D01*
X456403Y-2297379D01*
X506645Y-2432086D01*
X506649Y-2432093D01*
X592809Y-2547187D01*
X592812Y-2547190D01*
X707906Y-2633350D01*
X707913Y-2633354D01*
X842620Y-2683596D01*
X842627Y-2683598D01*
X902155Y-2689999D01*
X902172Y-2690000D01*
X1550000Y-2690000D01*
X1550000Y-1773012D01*
X1607007Y-1805925D01*
X1734174Y-1840000D01*
X1865826Y-1840000D01*
X1992993Y-1805925D01*
X2050000Y-1773012D01*
X2050000Y-2690000D01*
X2697828Y-2690000D01*
X2697844Y-2689999D01*
X2757372Y-2683598D01*
X2757379Y-2683596D01*
X2892086Y-2633354D01*
X2892093Y-2633350D01*
X3007187Y-2547190D01*
X3007190Y-2547187D01*
X3093350Y-2432093D01*
X3093354Y-2432086D01*
X3142422Y-2300529D01*
X3184293Y-2244595D01*
X3249757Y-2220178D01*
X3318030Y-2235030D01*
X3346285Y-2256181D01*
X3468599Y-2378495D01*
X3492248Y-2395054D01*
X3662165Y-2514032D01*
X3662167Y-2514033D01*
X3662170Y-2514035D01*
X3876337Y-2613903D01*
X3876343Y-2613904D01*
X3876344Y-2613905D01*
X3892538Y-2618244D01*
X4104592Y-2675063D01*
X4275319Y-2690000D01*
X4339999Y-2695659D01*
X4340000Y-2695659D01*
X4340001Y-2695659D01*
X4404681Y-2690000D01*
X4575408Y-2675063D01*
X4803663Y-2613903D01*
X5017830Y-2514035D01*
X5211401Y-2378495D01*
X5378495Y-2211401D01*
X5508730Y-2025405D01*
X5563307Y-1981781D01*
X5632805Y-1974587D01*
X5695160Y-2006110D01*
X5711879Y-2025405D01*
X5841890Y-2211078D01*
X6008917Y-2378105D01*
X6202421Y-2513600D01*
X6416507Y-2613429D01*
X6416516Y-2613433D01*
X6630000Y-2670634D01*
X6630000Y-1773012D01*
X6687007Y-1805925D01*
X6814174Y-1840000D01*
X6945826Y-1840000D01*
X7072993Y-1805925D01*
X7130000Y-1773012D01*
X7130000Y-2670634D01*
X7130898Y-2671324D01*
X7172101Y-2727752D01*
X7177029Y-2793892D01*
X7158528Y-2886900D01*
X7158528Y-10703409D01*
X7138843Y-10770448D01*
X7086039Y-10816203D01*
X7016881Y-10826147D01*
X6953325Y-10797122D01*
X6916597Y-10741727D01*
X6871252Y-10602171D01*
X6871251Y-10602170D01*
X6871250Y-10602165D01*
X6781859Y-10447335D01*
X6735003Y-10395296D01*
X6662235Y-10314478D01*
X6662232Y-10314476D01*
X6662231Y-10314475D01*
X6662230Y-10314474D01*
X6517593Y-10209388D01*
X6354267Y-10136671D01*
X6354265Y-10136670D01*
X6226594Y-10109533D01*
X6179391Y-10099500D01*
X6000609Y-10099500D01*
X5969954Y-10106015D01*
X5825733Y-10136670D01*
X5825728Y-10136672D01*
X5662408Y-10209387D01*
X5517768Y-10314475D01*
X5398140Y-10447336D01*
X5308750Y-10602164D01*
X5308747Y-10602170D01*
X5253504Y-10772192D01*
X5253503Y-10772194D01*
X5234815Y-10950000D01*
X5253503Y-11127805D01*
X5253504Y-11127807D01*
X5279444Y-11207642D01*
X5284038Y-11226888D01*
X5286406Y-11242107D01*
X5434064Y-11724246D01*
X5439500Y-11760557D01*
X5439500Y-13619441D01*
X5434064Y-13655752D01*
X5286405Y-14137896D01*
X5278633Y-14166180D01*
X5277667Y-14171423D01*
X5277423Y-14171378D01*
X5273251Y-14191417D01*
X5253503Y-14252197D01*
X5247362Y-14310623D01*
X5234815Y-14430000D01*
X5253503Y-14607805D01*
X5253504Y-14607807D01*
X5308747Y-14777829D01*
X5308750Y-14777835D01*
X5398141Y-14932665D01*
X5439812Y-14978946D01*
X5517764Y-15065521D01*
X5517767Y-15065523D01*
X5517770Y-15065526D01*
X5662407Y-15170612D01*
X5825733Y-15243329D01*
X6000609Y-15280500D01*
X6000610Y-15280500D01*
X6179389Y-15280500D01*
X6179391Y-15280500D01*
X6354267Y-15243329D01*
X6517593Y-15170612D01*
X6662230Y-15065526D01*
X6781859Y-14932665D01*
X6871250Y-14777835D01*
X6911866Y-14652834D01*
X6916597Y-14638272D01*
X6956034Y-14580596D01*
X7020393Y-14553398D01*
X7089239Y-14565313D01*
X7140715Y-14612557D01*
X7158528Y-14676590D01*
X7158528Y-17489441D01*
X7153092Y-17525752D01*
X7005433Y-18007896D01*
X6997661Y-18036180D01*
X6996695Y-18041423D01*
X6996451Y-18041378D01*
X6992279Y-18061419D01*
X6972531Y-18122198D01*
X6953843Y-18300000D01*
X6972531Y-18477805D01*
X6972532Y-18477807D01*
X7027775Y-18647829D01*
X7027778Y-18647835D01*
X7117169Y-18802665D01*
X7158840Y-18848946D01*
X7236792Y-18935521D01*
X7236795Y-18935523D01*
X7236798Y-18935526D01*
X7381435Y-19040612D01*
X7544761Y-19113329D01*
X7719637Y-19150500D01*
X7719638Y-19150500D01*
X7898417Y-19150500D01*
X7898419Y-19150500D01*
X8073295Y-19113329D01*
X8236621Y-19040612D01*
X8381258Y-18935526D01*
X8383554Y-18932977D01*
X8407176Y-18906741D01*
X8500887Y-18802665D01*
X8590278Y-18647835D01*
X8645525Y-18477803D01*
X8664213Y-18300000D01*
X8645525Y-18122197D01*
X8619581Y-18042350D01*
X8614987Y-18023099D01*
X8613727Y-18015000D01*
X8612621Y-18007895D01*
X8464964Y-17525752D01*
X8459528Y-17489442D01*
X8459528Y-6869997D01*
X24334751Y-6869997D01*
X24334751Y-6870002D01*
X24353685Y-7038056D01*
X24409545Y-7197694D01*
X24409547Y-7197697D01*
X24499518Y-7340884D01*
X24499523Y-7340890D01*
X24619109Y-7460476D01*
X24619115Y-7460481D01*
X24762302Y-7550452D01*
X24762305Y-7550454D01*
X24762309Y-7550455D01*
X24762310Y-7550456D01*
X24763602Y-7550908D01*
X24921943Y-7606314D01*
X25089997Y-7625249D01*
X25090000Y-7625249D01*
X25090003Y-7625249D01*
X25258052Y-7606314D01*
X25258052Y-7606313D01*
X25258059Y-7606313D01*
X25313831Y-7586797D01*
X25333734Y-7581641D01*
X25351684Y-7578552D01*
X25666634Y-7476534D01*
X25704845Y-7470500D01*
X26660153Y-7470500D01*
X26698364Y-7476534D01*
X26804916Y-7511048D01*
X27013314Y-7578552D01*
X27045155Y-7587725D01*
X27045165Y-7587726D01*
X27050507Y-7588769D01*
X27050433Y-7589144D01*
X27071163Y-7593793D01*
X27106941Y-7606313D01*
X27106945Y-7606313D01*
X27106947Y-7606314D01*
X27274997Y-7625249D01*
X27275000Y-7625249D01*
X27275003Y-7625249D01*
X27443056Y-7606314D01*
X27457654Y-7601206D01*
X27602690Y-7550456D01*
X27602692Y-7550454D01*
X27602694Y-7550454D01*
X27602697Y-7550452D01*
X27745884Y-7460481D01*
X27745885Y-7460480D01*
X27745890Y-7460477D01*
X27865477Y-7340890D01*
X27934852Y-7230481D01*
X27955452Y-7197697D01*
X27955454Y-7197694D01*
X27955454Y-7197692D01*
X27955456Y-7197690D01*
X28011313Y-7038059D01*
X28011313Y-7038058D01*
X28011314Y-7038056D01*
X28030249Y-6870002D01*
X28030249Y-6869997D01*
X28011314Y-6701943D01*
X27955454Y-6542305D01*
X27955452Y-6542302D01*
X27865481Y-6399115D01*
X27865476Y-6399109D01*
X27745890Y-6279523D01*
X27745884Y-6279518D01*
X27602697Y-6189547D01*
X27602694Y-6189545D01*
X27443056Y-6133685D01*
X27275003Y-6114751D01*
X27274997Y-6114751D01*
X27106946Y-6133685D01*
X27106940Y-6133687D01*
X27051188Y-6153194D01*
X27031280Y-6158352D01*
X27013322Y-6161444D01*
X26698359Y-6263466D01*
X26660148Y-6269500D01*
X25704848Y-6269500D01*
X25666637Y-6263466D01*
X25351690Y-6161449D01*
X25351691Y-6161449D01*
X25351684Y-6161447D01*
X25334868Y-6156603D01*
X25319834Y-6152272D01*
X25314491Y-6151230D01*
X25314563Y-6150857D01*
X25293831Y-6146203D01*
X25258058Y-6133686D01*
X25090003Y-6114751D01*
X25089997Y-6114751D01*
X24921943Y-6133685D01*
X24762305Y-6189545D01*
X24762302Y-6189547D01*
X24619115Y-6279518D01*
X24619109Y-6279523D01*
X24499523Y-6399109D01*
X24499518Y-6399115D01*
X24409547Y-6542302D01*
X24409545Y-6542305D01*
X24353685Y-6701943D01*
X24334751Y-6869997D01*
X8459528Y-6869997D01*
X8459528Y-3271780D01*
X8479213Y-3204741D01*
X8495842Y-3184102D01*
X8572366Y-3107578D01*
X8617230Y-3078889D01*
X9869447Y-2618238D01*
X9880142Y-2614846D01*
X9883663Y-2613903D01*
X9888022Y-2611870D01*
X9897637Y-2607867D01*
X9908384Y-2603915D01*
X9917982Y-2600274D01*
X9918031Y-2600254D01*
X9918049Y-2600248D01*
X9918180Y-2600196D01*
X9918409Y-2600107D01*
X9976058Y-2573265D01*
X9976063Y-2573260D01*
X9981543Y-2569987D01*
X9981641Y-2570152D01*
X9996342Y-2561358D01*
X10097830Y-2514035D01*
X10291401Y-2378495D01*
X10458495Y-2211401D01*
X10582199Y-2034734D01*
X10588425Y-2025842D01*
X10643002Y-1982217D01*
X10712500Y-1975023D01*
X10774855Y-2006546D01*
X10791575Y-2025842D01*
X10921500Y-2211395D01*
X10921505Y-2211401D01*
X11088599Y-2378495D01*
X11112248Y-2395054D01*
X11282165Y-2514032D01*
X11282167Y-2514033D01*
X11282170Y-2514035D01*
X11496337Y-2613903D01*
X11496343Y-2613904D01*
X11496344Y-2613905D01*
X11512538Y-2618244D01*
X11724592Y-2675063D01*
X11895319Y-2690000D01*
X11959999Y-2695659D01*
X11960000Y-2695659D01*
X11960001Y-2695659D01*
X12024681Y-2690000D01*
X12195408Y-2675063D01*
X12423663Y-2613903D01*
X12637830Y-2514035D01*
X12831401Y-2378495D01*
X12998495Y-2211401D01*
X13122199Y-2034734D01*
X13128425Y-2025842D01*
X13183002Y-1982217D01*
X13252500Y-1975023D01*
X13314855Y-2006546D01*
X13331575Y-2025842D01*
X13461500Y-2211395D01*
X13461505Y-2211401D01*
X13628599Y-2378495D01*
X13652248Y-2395054D01*
X13822165Y-2514032D01*
X13822167Y-2514033D01*
X13822170Y-2514035D01*
X14036337Y-2613903D01*
X14036343Y-2613904D01*
X14036344Y-2613905D01*
X14052538Y-2618244D01*
X14264592Y-2675063D01*
X14435319Y-2690000D01*
X14499999Y-2695659D01*
X14500000Y-2695659D01*
X14500001Y-2695659D01*
X14564681Y-2690000D01*
X14735408Y-2675063D01*
X14963663Y-2613903D01*
X15177830Y-2514035D01*
X15371401Y-2378495D01*
X15538495Y-2211401D01*
X15662199Y-2034734D01*
X15668425Y-2025842D01*
X15723002Y-1982217D01*
X15792500Y-1975023D01*
X15854855Y-2006546D01*
X15871575Y-2025842D01*
X16001500Y-2211395D01*
X16001505Y-2211401D01*
X16168599Y-2378495D01*
X16192248Y-2395054D01*
X16362165Y-2514032D01*
X16362167Y-2514033D01*
X16362170Y-2514035D01*
X16576337Y-2613903D01*
X16576343Y-2613904D01*
X16576344Y-2613905D01*
X16592538Y-2618244D01*
X16804592Y-2675063D01*
X16975319Y-2690000D01*
X17039999Y-2695659D01*
X17040000Y-2695659D01*
X17040001Y-2695659D01*
X17104681Y-2690000D01*
X17275408Y-2675063D01*
X17503663Y-2613903D01*
X17717830Y-2514035D01*
X17911401Y-2378495D01*
X18078495Y-2211401D01*
X18202199Y-2034734D01*
X18208425Y-2025842D01*
X18263002Y-1982217D01*
X18332500Y-1975023D01*
X18394855Y-2006546D01*
X18411575Y-2025842D01*
X18541500Y-2211395D01*
X18541505Y-2211401D01*
X18708599Y-2378495D01*
X18732248Y-2395054D01*
X18902165Y-2514032D01*
X18902167Y-2514033D01*
X18902170Y-2514035D01*
X19116337Y-2613903D01*
X19116343Y-2613904D01*
X19116344Y-2613905D01*
X19132538Y-2618244D01*
X19344592Y-2675063D01*
X19515319Y-2690000D01*
X19579999Y-2695659D01*
X19580000Y-2695659D01*
X19580001Y-2695659D01*
X19644681Y-2690000D01*
X19815408Y-2675063D01*
X20043663Y-2613903D01*
X20257830Y-2514035D01*
X20451401Y-2378495D01*
X20618495Y-2211401D01*
X20742199Y-2034734D01*
X20748425Y-2025842D01*
X20803002Y-1982217D01*
X20872500Y-1975023D01*
X20934855Y-2006546D01*
X20951575Y-2025842D01*
X21081500Y-2211395D01*
X21081505Y-2211401D01*
X21248599Y-2378495D01*
X21272248Y-2395054D01*
X21442165Y-2514032D01*
X21442167Y-2514033D01*
X21442170Y-2514035D01*
X21656337Y-2613903D01*
X21656343Y-2613904D01*
X21656344Y-2613905D01*
X21672538Y-2618244D01*
X21884592Y-2675063D01*
X22055319Y-2690000D01*
X22119999Y-2695659D01*
X22120000Y-2695659D01*
X22120001Y-2695659D01*
X22184681Y-2690000D01*
X22355408Y-2675063D01*
X22583663Y-2613903D01*
X22797830Y-2514035D01*
X22991401Y-2378495D01*
X23158495Y-2211401D01*
X23282199Y-2034734D01*
X23288425Y-2025842D01*
X23343002Y-1982217D01*
X23412500Y-1975023D01*
X23474855Y-2006546D01*
X23491575Y-2025842D01*
X23621500Y-2211395D01*
X23621505Y-2211401D01*
X23788599Y-2378495D01*
X23812248Y-2395054D01*
X23982165Y-2514032D01*
X23982167Y-2514033D01*
X23982170Y-2514035D01*
X24196337Y-2613903D01*
X24196343Y-2613904D01*
X24196344Y-2613905D01*
X24212538Y-2618244D01*
X24424592Y-2675063D01*
X24595319Y-2690000D01*
X24659999Y-2695659D01*
X24660000Y-2695659D01*
X24660001Y-2695659D01*
X24724681Y-2690000D01*
X24895408Y-2675063D01*
X25123663Y-2613903D01*
X25337830Y-2514035D01*
X25531401Y-2378495D01*
X25698495Y-2211401D01*
X25822199Y-2034734D01*
X25828425Y-2025842D01*
X25883002Y-1982217D01*
X25952500Y-1975023D01*
X26014855Y-2006546D01*
X26031575Y-2025842D01*
X26161500Y-2211395D01*
X26161505Y-2211401D01*
X26328599Y-2378495D01*
X26352248Y-2395054D01*
X26522165Y-2514032D01*
X26522167Y-2514033D01*
X26522170Y-2514035D01*
X26736337Y-2613903D01*
X26736343Y-2613904D01*
X26736344Y-2613905D01*
X26752538Y-2618244D01*
X26964592Y-2675063D01*
X27135319Y-2690000D01*
X27199999Y-2695659D01*
X27200000Y-2695659D01*
X27200001Y-2695659D01*
X27264681Y-2690000D01*
X27435408Y-2675063D01*
X27663663Y-2613903D01*
X27877830Y-2514035D01*
X28071401Y-2378495D01*
X28238495Y-2211401D01*
X28362199Y-2034734D01*
X28368425Y-2025842D01*
X28423002Y-1982217D01*
X28492500Y-1975023D01*
X28554855Y-2006546D01*
X28571575Y-2025842D01*
X28701500Y-2211395D01*
X28701505Y-2211401D01*
X28868599Y-2378495D01*
X28892248Y-2395054D01*
X29062165Y-2514032D01*
X29062167Y-2514033D01*
X29062170Y-2514035D01*
X29276337Y-2613903D01*
X29276343Y-2613904D01*
X29276344Y-2613905D01*
X29292538Y-2618244D01*
X29504592Y-2675063D01*
X29675319Y-2690000D01*
X29739999Y-2695659D01*
X29740000Y-2695659D01*
X29740001Y-2695659D01*
X29804681Y-2690000D01*
X29975408Y-2675063D01*
X30203663Y-2613903D01*
X30417830Y-2514035D01*
X30611401Y-2378495D01*
X30778495Y-2211401D01*
X30902199Y-2034734D01*
X30908425Y-2025842D01*
X30963002Y-1982217D01*
X31032500Y-1975023D01*
X31094855Y-2006546D01*
X31111575Y-2025842D01*
X31241500Y-2211395D01*
X31241505Y-2211401D01*
X31408599Y-2378495D01*
X31432248Y-2395054D01*
X31602165Y-2514032D01*
X31602167Y-2514033D01*
X31602170Y-2514035D01*
X31816337Y-2613903D01*
X31816343Y-2613904D01*
X31816344Y-2613905D01*
X31832538Y-2618244D01*
X32044592Y-2675063D01*
X32215319Y-2690000D01*
X32279999Y-2695659D01*
X32280000Y-2695659D01*
X32280001Y-2695659D01*
X32344681Y-2690000D01*
X32515408Y-2675063D01*
X32743663Y-2613903D01*
X32957830Y-2514035D01*
X33151401Y-2378495D01*
X33318495Y-2211401D01*
X33442199Y-2034734D01*
X33448425Y-2025842D01*
X33503002Y-1982217D01*
X33572500Y-1975023D01*
X33634855Y-2006546D01*
X33651575Y-2025842D01*
X33781500Y-2211395D01*
X33781505Y-2211401D01*
X33948599Y-2378495D01*
X33972248Y-2395054D01*
X34142165Y-2514032D01*
X34142167Y-2514033D01*
X34142170Y-2514035D01*
X34356337Y-2613903D01*
X34356343Y-2613904D01*
X34356344Y-2613905D01*
X34372538Y-2618244D01*
X34584592Y-2675063D01*
X34755319Y-2690000D01*
X34819999Y-2695659D01*
X34820000Y-2695659D01*
X34820001Y-2695659D01*
X34884681Y-2690000D01*
X35055408Y-2675063D01*
X35283663Y-2613903D01*
X35497830Y-2514035D01*
X35691401Y-2378495D01*
X35858495Y-2211401D01*
X35982199Y-2034734D01*
X35988425Y-2025842D01*
X36043002Y-1982217D01*
X36112500Y-1975023D01*
X36174855Y-2006546D01*
X36191575Y-2025842D01*
X36321500Y-2211395D01*
X36321505Y-2211401D01*
X36488599Y-2378495D01*
X36512248Y-2395054D01*
X36682165Y-2514032D01*
X36682167Y-2514033D01*
X36682170Y-2514035D01*
X36896337Y-2613903D01*
X36896343Y-2613904D01*
X36896344Y-2613905D01*
X36912538Y-2618244D01*
X37124592Y-2675063D01*
X37295319Y-2690000D01*
X37359999Y-2695659D01*
X37360000Y-2695659D01*
X37360001Y-2695659D01*
X37424681Y-2690000D01*
X37595408Y-2675063D01*
X37823663Y-2613903D01*
X38037830Y-2514035D01*
X38231401Y-2378495D01*
X38398495Y-2211401D01*
X38522199Y-2034734D01*
X38528425Y-2025842D01*
X38583002Y-1982217D01*
X38652500Y-1975023D01*
X38714855Y-2006546D01*
X38731575Y-2025842D01*
X38861500Y-2211395D01*
X38861505Y-2211401D01*
X39028599Y-2378495D01*
X39052248Y-2395054D01*
X39222165Y-2514032D01*
X39222167Y-2514033D01*
X39222170Y-2514035D01*
X39436337Y-2613903D01*
X39436343Y-2613904D01*
X39436344Y-2613905D01*
X39452538Y-2618244D01*
X39664592Y-2675063D01*
X39835319Y-2690000D01*
X39899999Y-2695659D01*
X39900000Y-2695659D01*
X39900001Y-2695659D01*
X39964681Y-2690000D01*
X40135408Y-2675063D01*
X40363663Y-2613903D01*
X40577830Y-2514035D01*
X40771401Y-2378495D01*
X40938495Y-2211401D01*
X41062199Y-2034734D01*
X41068425Y-2025842D01*
X41123002Y-1982217D01*
X41192500Y-1975023D01*
X41254855Y-2006546D01*
X41271575Y-2025842D01*
X41401500Y-2211395D01*
X41401505Y-2211401D01*
X41568599Y-2378495D01*
X41592248Y-2395054D01*
X41762165Y-2514032D01*
X41762167Y-2514033D01*
X41762170Y-2514035D01*
X41976337Y-2613903D01*
X41976343Y-2613904D01*
X41976344Y-2613905D01*
X41992538Y-2618244D01*
X42204592Y-2675063D01*
X42375319Y-2690000D01*
X42439999Y-2695659D01*
X42440000Y-2695659D01*
X42440001Y-2695659D01*
X42504681Y-2690000D01*
X42675408Y-2675063D01*
X42903663Y-2613903D01*
X43117830Y-2514035D01*
X43311401Y-2378495D01*
X43478495Y-2211401D01*
X43603587Y-2032751D01*
X43658163Y-1989127D01*
X43727661Y-1981933D01*
X43790016Y-2013456D01*
X43817413Y-2051193D01*
X44304139Y-3088302D01*
X44326781Y-3136546D01*
X44338528Y-3189227D01*
X44338528Y-6052618D01*
X44336114Y-6076967D01*
X44264468Y-6434732D01*
X44259925Y-6451334D01*
X44252715Y-6471940D01*
X44252713Y-6471946D01*
X44233779Y-6639997D01*
X44233779Y-6640002D01*
X44252713Y-6808056D01*
X44308573Y-6967694D01*
X44308575Y-6967697D01*
X44398546Y-7110884D01*
X44398551Y-7110890D01*
X44518137Y-7230476D01*
X44518143Y-7230481D01*
X44661330Y-7320452D01*
X44661333Y-7320454D01*
X44661337Y-7320455D01*
X44661338Y-7320456D01*
X44709576Y-7337335D01*
X44820971Y-7376314D01*
X44989025Y-7395249D01*
X44989028Y-7395249D01*
X44989031Y-7395249D01*
X45157084Y-7376314D01*
X45157087Y-7376313D01*
X45316718Y-7320456D01*
X45316720Y-7320454D01*
X45316722Y-7320454D01*
X45316725Y-7320452D01*
X45459912Y-7230481D01*
X45459913Y-7230480D01*
X45459918Y-7230477D01*
X45579505Y-7110890D01*
X45632424Y-7026671D01*
X45669480Y-6967697D01*
X45669482Y-6967694D01*
X45669482Y-6967692D01*
X45669484Y-6967690D01*
X45725341Y-6808059D01*
X45725341Y-6808058D01*
X45725342Y-6808056D01*
X45744277Y-6640002D01*
X45744277Y-6639997D01*
X45725342Y-6471945D01*
X45725341Y-6471943D01*
X45725341Y-6471941D01*
X45718129Y-6451332D01*
X45713585Y-6434725D01*
X45641942Y-6076968D01*
X45639528Y-6052620D01*
X45639528Y-3185961D01*
X45650711Y-3134499D01*
X45685767Y-3057648D01*
X52329500Y-3057648D01*
X52329500Y-3262351D01*
X52361522Y-3464534D01*
X52424781Y-3659223D01*
X52517715Y-3841613D01*
X52638028Y-4007213D01*
X52782786Y-4151971D01*
X52937749Y-4264556D01*
X52948390Y-4272287D01*
X53064607Y-4331503D01*
X53130776Y-4365218D01*
X53130778Y-4365218D01*
X53130781Y-4365220D01*
X53235137Y-4399127D01*
X53325465Y-4428477D01*
X53426557Y-4444488D01*
X53527648Y-4460500D01*
X53527649Y-4460500D01*
X53732351Y-4460500D01*
X53732352Y-4460500D01*
X53934534Y-4428477D01*
X54129219Y-4365220D01*
X54311610Y-4272287D01*
X54404590Y-4204732D01*
X54477213Y-4151971D01*
X54477215Y-4151968D01*
X54477219Y-4151966D01*
X54621966Y-4007219D01*
X54621968Y-4007215D01*
X54621971Y-4007213D01*
X54674732Y-3934590D01*
X54742287Y-3841610D01*
X54835220Y-3659219D01*
X54898477Y-3464534D01*
X54930500Y-3262352D01*
X54930500Y-3057648D01*
X54922048Y-3004286D01*
X54898477Y-2855465D01*
X54847673Y-2699107D01*
X54835220Y-2660781D01*
X54835218Y-2660778D01*
X54835218Y-2660776D01*
X54777342Y-2547190D01*
X54742287Y-2478390D01*
X54708651Y-2432093D01*
X54621971Y-2312786D01*
X54477213Y-2168028D01*
X54311613Y-2047715D01*
X54311612Y-2047714D01*
X54311610Y-2047713D01*
X54244377Y-2013456D01*
X54129223Y-1954781D01*
X53934534Y-1891522D01*
X53752410Y-1862677D01*
X53732352Y-1859500D01*
X53527648Y-1859500D01*
X53507590Y-1862677D01*
X53325465Y-1891522D01*
X53130776Y-1954781D01*
X52948386Y-2047715D01*
X52782786Y-2168028D01*
X52638028Y-2312786D01*
X52517715Y-2478386D01*
X52424781Y-2660776D01*
X52361522Y-2855465D01*
X52329500Y-3057648D01*
X45685767Y-3057648D01*
X45710109Y-3004286D01*
X46143409Y-2054394D01*
X46189141Y-2001571D01*
X46256172Y-1981857D01*
X46323220Y-2001512D01*
X46357801Y-2034734D01*
X46402511Y-2098586D01*
X46481505Y-2211401D01*
X46648599Y-2378495D01*
X46672248Y-2395054D01*
X46842165Y-2514032D01*
X46842167Y-2514033D01*
X46842170Y-2514035D01*
X47056337Y-2613903D01*
X47056343Y-2613904D01*
X47056344Y-2613905D01*
X47072538Y-2618244D01*
X47284592Y-2675063D01*
X47455319Y-2690000D01*
X47519999Y-2695659D01*
X47520000Y-2695659D01*
X47520001Y-2695659D01*
X47584681Y-2690000D01*
X47755408Y-2675063D01*
X47983663Y-2613903D01*
X48197830Y-2514035D01*
X48391401Y-2378495D01*
X48558495Y-2211401D01*
X48688730Y-2025405D01*
X48743307Y-1981781D01*
X48812805Y-1974587D01*
X48875160Y-2006110D01*
X48891879Y-2025405D01*
X49021890Y-2211078D01*
X49188917Y-2378105D01*
X49382421Y-2513600D01*
X49596507Y-2613429D01*
X49596516Y-2613433D01*
X49810000Y-2670634D01*
X49810000Y-1773012D01*
X49867007Y-1805925D01*
X49994174Y-1840000D01*
X50125826Y-1840000D01*
X50252993Y-1805925D01*
X50310000Y-1773012D01*
X50310000Y-2670633D01*
X50523483Y-2613433D01*
X50523492Y-2613429D01*
X50737578Y-2513600D01*
X50931082Y-2378105D01*
X51098105Y-2211082D01*
X51233600Y-2017578D01*
X51333429Y-1803492D01*
X51333432Y-1803486D01*
X51390636Y-1590000D01*
X50493012Y-1590000D01*
X50525925Y-1532993D01*
X50560000Y-1405826D01*
X50560000Y-1274174D01*
X50525925Y-1147007D01*
X50493012Y-1090000D01*
X51390636Y-1090000D01*
X51390635Y-1089999D01*
X51333432Y-876513D01*
X51333429Y-876507D01*
X51233600Y-662422D01*
X51233599Y-662420D01*
X51098113Y-468926D01*
X51098108Y-468920D01*
X51091369Y-462181D01*
X51057884Y-400858D01*
X51062868Y-331166D01*
X51104740Y-275233D01*
X51170204Y-250816D01*
X51179050Y-250500D01*
X53877485Y-250500D01*
X53884440Y-250695D01*
X54181866Y-267402D01*
X54195670Y-268958D01*
X54485926Y-318278D01*
X54499477Y-321372D01*
X54782380Y-402878D01*
X54795487Y-407464D01*
X55067451Y-520120D01*
X55067482Y-520133D01*
X55080009Y-526165D01*
X55326537Y-662420D01*
X55337676Y-668576D01*
X55349450Y-675974D01*
X55589551Y-846338D01*
X55600423Y-855008D01*
X55819944Y-1051187D01*
X55829776Y-1061020D01*
X56025941Y-1280532D01*
X56034605Y-1291395D01*
X56204966Y-1531499D01*
X56204974Y-1531510D01*
X56212372Y-1543285D01*
X56354780Y-1800957D01*
X56360813Y-1813485D01*
X56473470Y-2085466D01*
X56478063Y-2098590D01*
X56559567Y-2381496D01*
X56562661Y-2395054D01*
X56611973Y-2685290D01*
X56613530Y-2699107D01*
X56630278Y-2997333D01*
X56630473Y-3004286D01*
X56630473Y-7426086D01*
X56610788Y-7493125D01*
X56557984Y-7538880D01*
X56493220Y-7549375D01*
X56447873Y-7544500D01*
X56447864Y-7544500D01*
X54652129Y-7544500D01*
X54652123Y-7544501D01*
X54592516Y-7550908D01*
X54457671Y-7601202D01*
X54457664Y-7601206D01*
X54342455Y-7687452D01*
X54342452Y-7687455D01*
X54256205Y-7802665D01*
X54256204Y-7802667D01*
X54243319Y-7837214D01*
X54206167Y-7889432D01*
X53696392Y-8311053D01*
X53632187Y-8338611D01*
X53617363Y-8339500D01*
X48298897Y-8339500D01*
X48277829Y-8337697D01*
X48270329Y-8336404D01*
X48207108Y-8325504D01*
X47685294Y-8235538D01*
X47680583Y-8234632D01*
X47658804Y-8230003D01*
X47609391Y-8219500D01*
X47609388Y-8219500D01*
X47591125Y-8219500D01*
X47579830Y-8218773D01*
X47579815Y-8218958D01*
X47575243Y-8218562D01*
X47501725Y-8219224D01*
X47479085Y-8219428D01*
X47479083Y-8219428D01*
X47471685Y-8219495D01*
X47470569Y-8219500D01*
X47430609Y-8219500D01*
X47390684Y-8227986D01*
X47359401Y-8234635D01*
X47354690Y-8235541D01*
X46816709Y-8328294D01*
X46769670Y-8336404D01*
X46762170Y-8337697D01*
X46741102Y-8339500D01*
X38745192Y-8339500D01*
X38678153Y-8319815D01*
X38632398Y-8267011D01*
X38628151Y-8256455D01*
X38600457Y-8177313D01*
X38600452Y-8177302D01*
X38510481Y-8034115D01*
X38510476Y-8034109D01*
X38390890Y-7914523D01*
X38390884Y-7914518D01*
X38247697Y-7824547D01*
X38247694Y-7824545D01*
X38088056Y-7768685D01*
X37920003Y-7749751D01*
X37919997Y-7749751D01*
X37751943Y-7768685D01*
X37592305Y-7824545D01*
X37592302Y-7824547D01*
X37449115Y-7914518D01*
X37449109Y-7914523D01*
X37329523Y-8034109D01*
X37329518Y-8034115D01*
X37239547Y-8177302D01*
X37239542Y-8177313D01*
X37211849Y-8256455D01*
X37171128Y-8313231D01*
X37106175Y-8338978D01*
X37094808Y-8339500D01*
X29887738Y-8339500D01*
X29820699Y-8319815D01*
X29774944Y-8267011D01*
X29765000Y-8197853D01*
X29769174Y-8179189D01*
X29777117Y-8153252D01*
X29783594Y-8132103D01*
X29791365Y-8103823D01*
X29791365Y-8103816D01*
X29792331Y-8098582D01*
X29792575Y-8098627D01*
X29796745Y-8078591D01*
X29816497Y-8017803D01*
X29835185Y-7840000D01*
X29816497Y-7662197D01*
X29780189Y-7550452D01*
X29761252Y-7492170D01*
X29761249Y-7492164D01*
X29671859Y-7337335D01*
X29625003Y-7285296D01*
X29552235Y-7204478D01*
X29552232Y-7204476D01*
X29552231Y-7204475D01*
X29552230Y-7204474D01*
X29407593Y-7099388D01*
X29244267Y-7026671D01*
X29244265Y-7026670D01*
X29116594Y-6999533D01*
X29069391Y-6989500D01*
X28890609Y-6989500D01*
X28859954Y-6996015D01*
X28715733Y-7026670D01*
X28715728Y-7026672D01*
X28552408Y-7099387D01*
X28407768Y-7204475D01*
X28288140Y-7337336D01*
X28198750Y-7492164D01*
X28198747Y-7492170D01*
X28143504Y-7662192D01*
X28143503Y-7662194D01*
X28124815Y-7840000D01*
X28143503Y-8017805D01*
X28143504Y-8017807D01*
X28169444Y-8097642D01*
X28174038Y-8116888D01*
X28176406Y-8132105D01*
X28176407Y-8132108D01*
X28178823Y-8139997D01*
X28190251Y-8177313D01*
X28190826Y-8179188D01*
X28191636Y-8249053D01*
X28154546Y-8308265D01*
X28091331Y-8338025D01*
X28072262Y-8339500D01*
X25049731Y-8339500D01*
X25032194Y-8338254D01*
X25031449Y-8338147D01*
X25031444Y-8338146D01*
X24689759Y-8289333D01*
X24401386Y-8248136D01*
X24393145Y-8246673D01*
X24359394Y-8239500D01*
X24359391Y-8239500D01*
X24343008Y-8239500D01*
X24329756Y-8238790D01*
X24328765Y-8238683D01*
X24319780Y-8237717D01*
X24318184Y-8237602D01*
X24318168Y-8237601D01*
X24223035Y-8239126D01*
X24217360Y-8239500D01*
X24180605Y-8239500D01*
X24146847Y-8246674D01*
X24138608Y-8248137D01*
X23507800Y-8338254D01*
X23490263Y-8339500D01*
X21889500Y-8339500D01*
X21822461Y-8319815D01*
X21776706Y-8267011D01*
X21765500Y-8215500D01*
X21765500Y-8189108D01*
X21766280Y-8175223D01*
X21770249Y-8140000D01*
X21770249Y-8139997D01*
X21766280Y-8104774D01*
X21765500Y-8090890D01*
X21765500Y-8066081D01*
X21758261Y-8029692D01*
X21756659Y-8019398D01*
X21751313Y-7971941D01*
X21751312Y-7971938D01*
X21743671Y-7950101D01*
X21739094Y-7933332D01*
X21736660Y-7921095D01*
X21736658Y-7921087D01*
X21717766Y-7875477D01*
X21715285Y-7868979D01*
X21714358Y-7866332D01*
X21695456Y-7812310D01*
X21689708Y-7803162D01*
X21680143Y-7784648D01*
X21680084Y-7784505D01*
X21645834Y-7733247D01*
X21643949Y-7730338D01*
X21642189Y-7727537D01*
X21605477Y-7669110D01*
X21485890Y-7549523D01*
X21485889Y-7549522D01*
X21424677Y-7511060D01*
X21421760Y-7509169D01*
X21370495Y-7474916D01*
X21370488Y-7474912D01*
X21370340Y-7474851D01*
X21351844Y-7465295D01*
X21342694Y-7459546D01*
X21342691Y-7459544D01*
X21342690Y-7459544D01*
X21286003Y-7439708D01*
X21279530Y-7437237D01*
X21233913Y-7418342D01*
X21233911Y-7418341D01*
X21233910Y-7418341D01*
X21227799Y-7417125D01*
X21221659Y-7415904D01*
X21204902Y-7411330D01*
X21183059Y-7403687D01*
X21183060Y-7403687D01*
X21151794Y-7400163D01*
X21135614Y-7398340D01*
X21125312Y-7396739D01*
X21117821Y-7395249D01*
X21088918Y-7389500D01*
X21088917Y-7389500D01*
X21064110Y-7389500D01*
X21050226Y-7388720D01*
X21015002Y-7384751D01*
X21014998Y-7384751D01*
X20979774Y-7388720D01*
X20965890Y-7389500D01*
X20941082Y-7389500D01*
X20904685Y-7396739D01*
X20894382Y-7398341D01*
X20846940Y-7403687D01*
X20846939Y-7403687D01*
X20825097Y-7411330D01*
X20808341Y-7415903D01*
X20796097Y-7418339D01*
X20796088Y-7418341D01*
X20750466Y-7437237D01*
X20743974Y-7439715D01*
X20687314Y-7459542D01*
X20687309Y-7459544D01*
X20678147Y-7465300D01*
X20659657Y-7474852D01*
X20659513Y-7474911D01*
X20659499Y-7474918D01*
X20608254Y-7509159D01*
X20605339Y-7511048D01*
X20544114Y-7549519D01*
X20544107Y-7549525D01*
X20424525Y-7669107D01*
X20424519Y-7669114D01*
X20386048Y-7730339D01*
X20384159Y-7733254D01*
X20349918Y-7784499D01*
X20349911Y-7784513D01*
X20349852Y-7784657D01*
X20340300Y-7803147D01*
X20334544Y-7812309D01*
X20334542Y-7812314D01*
X20314715Y-7868974D01*
X20312237Y-7875466D01*
X20293341Y-7921088D01*
X20293339Y-7921097D01*
X20290903Y-7933341D01*
X20286330Y-7950097D01*
X20278687Y-7971939D01*
X20278687Y-7971940D01*
X20273341Y-8019382D01*
X20271739Y-8029685D01*
X20264500Y-8066081D01*
X20264500Y-8090890D01*
X20263720Y-8104774D01*
X20259751Y-8139997D01*
X20259751Y-8140000D01*
X20263720Y-8175223D01*
X20264500Y-8189108D01*
X20264500Y-8215500D01*
X20244815Y-8282539D01*
X20192011Y-8328294D01*
X20140500Y-8339500D01*
X12032729Y-8339500D01*
X12005194Y-8336404D01*
X11334064Y-8183562D01*
X11323374Y-8181249D01*
X11323373Y-8181248D01*
X11318720Y-8180242D01*
X11318740Y-8180148D01*
X11305298Y-8177206D01*
X11226331Y-8153253D01*
X11226321Y-8153252D01*
X11040000Y-8134901D01*
X11039999Y-8134901D01*
X10853668Y-8153252D01*
X10853666Y-8153253D01*
X10674497Y-8207604D01*
X10509376Y-8295862D01*
X10509373Y-8295864D01*
X10364642Y-8414642D01*
X10245864Y-8559373D01*
X10245862Y-8559376D01*
X10157604Y-8724497D01*
X10103253Y-8903666D01*
X10103252Y-8903668D01*
X10084901Y-9089999D01*
X10103253Y-9276331D01*
X10128838Y-9360677D01*
X10132465Y-9379743D01*
X10132887Y-9379679D01*
X10133560Y-9384055D01*
X10133561Y-9384063D01*
X10133562Y-9384064D01*
X10284695Y-10047692D01*
X10286404Y-10055194D01*
X10289500Y-10082729D01*
X10289500Y-12787269D01*
X10286404Y-12814803D01*
X10133568Y-13485906D01*
X10130242Y-13501279D01*
X10130148Y-13501258D01*
X10127206Y-13514701D01*
X10103253Y-13593667D01*
X10103252Y-13593669D01*
X10084901Y-13780000D01*
X10103252Y-13966331D01*
X10103253Y-13966333D01*
X10157604Y-14145502D01*
X10245862Y-14310623D01*
X10245864Y-14310626D01*
X10364642Y-14455357D01*
X10509372Y-14574134D01*
X10509373Y-14574134D01*
X10509375Y-14574136D01*
X10587112Y-14615686D01*
X10603162Y-14626613D01*
X10603418Y-14626265D01*
X10606988Y-14628884D01*
X11189617Y-14995363D01*
X11211276Y-15012644D01*
X14527353Y-18328721D01*
X14544634Y-18350380D01*
X14911094Y-18932977D01*
X14919652Y-18946261D01*
X14919567Y-18946315D01*
X14926973Y-18957866D01*
X14943343Y-18988492D01*
X14965862Y-19030623D01*
X14965864Y-19030626D01*
X15084642Y-19175357D01*
X15223905Y-19289647D01*
X15263239Y-19347392D01*
X15265110Y-19417237D01*
X15228922Y-19477005D01*
X15166167Y-19507721D01*
X15145240Y-19509500D01*
X10950799Y-19509500D01*
X10883760Y-19489815D01*
X10838005Y-19437011D01*
X10827396Y-19373347D01*
X10834127Y-19305000D01*
X10815775Y-19118668D01*
X10815774Y-19118666D01*
X10814155Y-19113329D01*
X10761424Y-18939499D01*
X10757938Y-18932977D01*
X10673165Y-18774376D01*
X10673163Y-18774373D01*
X10554385Y-18629642D01*
X10409654Y-18510864D01*
X10409651Y-18510862D01*
X10244530Y-18422604D01*
X10065361Y-18368253D01*
X10065359Y-18368252D01*
X9879028Y-18349901D01*
X9692696Y-18368252D01*
X9692694Y-18368253D01*
X9513525Y-18422604D01*
X9348404Y-18510862D01*
X9348401Y-18510864D01*
X9203670Y-18629642D01*
X9084892Y-18774373D01*
X9084890Y-18774376D01*
X8996632Y-18939497D01*
X8942281Y-19118666D01*
X8942280Y-19118668D01*
X8923929Y-19305000D01*
X8930660Y-19373347D01*
X8917641Y-19441993D01*
X8869575Y-19492703D01*
X8807257Y-19509500D01*
X8115107Y-19509500D01*
X8107291Y-19511055D01*
X8107286Y-19511056D01*
X7970123Y-19538339D01*
X7970115Y-19538341D01*
X7918452Y-19559741D01*
X7833536Y-19594914D01*
X7833526Y-19594919D01*
X7776642Y-19632929D01*
X7710610Y-19677049D01*
X5128550Y-22259109D01*
X5088079Y-22286089D01*
X3833093Y-22802811D01*
X3833086Y-22802814D01*
X3783827Y-22829043D01*
X3777955Y-22831973D01*
X3662168Y-22885966D01*
X3468600Y-23021503D01*
X3346284Y-23143819D01*
X3284961Y-23177303D01*
X3215269Y-23172319D01*
X3159336Y-23130447D01*
X3142421Y-23099470D01*
X3093354Y-22967913D01*
X3093350Y-22967906D01*
X3007190Y-22852812D01*
X3007187Y-22852809D01*
X2892093Y-22766649D01*
X2892086Y-22766645D01*
X2757379Y-22716403D01*
X2757372Y-22716401D01*
X2697844Y-22710000D01*
X2050000Y-22710000D01*
X2050000Y-23626988D01*
X1992993Y-23594075D01*
X1865826Y-23560000D01*
X1734174Y-23560000D01*
X1607007Y-23594075D01*
X1550000Y-23626988D01*
X1550000Y-22710000D01*
X902155Y-22710000D01*
X842627Y-22716401D01*
X842620Y-22716403D01*
X707913Y-22766645D01*
X707906Y-22766649D01*
X592812Y-22852809D01*
X592809Y-22852812D01*
X506649Y-22967906D01*
X506645Y-22967913D01*
X456403Y-23102620D01*
X456401Y-23102627D01*
X450000Y-23162155D01*
X450000Y-23810000D01*
X1366988Y-23810000D01*
X1334075Y-23867007D01*
X1300000Y-23994174D01*
X1300000Y-24125826D01*
X1334075Y-24252993D01*
X1366988Y-24310000D01*
X450000Y-24310000D01*
X450000Y-24957844D01*
X455850Y-25012244D01*
X443445Y-25081003D01*
X395836Y-25132141D01*
X332561Y-25149500D01*
X-2027491Y-25149500D01*
X-2034444Y-25149305D01*
X-2331866Y-25132602D01*
X-2345684Y-25131045D01*
X-2635926Y-25081730D01*
X-2649483Y-25078636D01*
X-2932386Y-24997133D01*
X-2945510Y-24992540D01*
X-3217500Y-24879879D01*
X-3230029Y-24873846D01*
X-3487699Y-24731436D01*
X-3499473Y-24724038D01*
X-3739577Y-24553676D01*
X-3750449Y-24545006D01*
X-3969970Y-24348830D01*
X-3979803Y-24338997D01*
X-4015731Y-24298794D01*
X-4175979Y-24119476D01*
X-4184649Y-24108604D01*
X-4355011Y-23868500D01*
X-4362409Y-23856726D01*
X-4395047Y-23797673D01*
X-4504823Y-23599049D01*
X-4510852Y-23586527D01*
X-4623513Y-23314537D01*
X-4628106Y-23301413D01*
X-4709609Y-23018510D01*
X-4712703Y-23004953D01*
X-4732846Y-22886400D01*
X-4762019Y-22714703D01*
X-4763575Y-22700900D01*
X-4780277Y-22403471D01*
X-4780472Y-22396519D01*
X-4780472Y-22127648D01*
X-3080500Y-22127648D01*
X-3080500Y-22332351D01*
X-3048478Y-22534534D01*
X-2985219Y-22729223D01*
X-2932864Y-22831973D01*
X-2905133Y-22886399D01*
X-2892285Y-22911613D01*
X-2771972Y-23077213D01*
X-2627214Y-23221971D01*
X-2499805Y-23314537D01*
X-2461610Y-23342287D01*
X-2345393Y-23401503D01*
X-2279224Y-23435218D01*
X-2279222Y-23435218D01*
X-2279219Y-23435220D01*
X-2174863Y-23469127D01*
X-2084535Y-23498477D01*
X-2021398Y-23508477D01*
X-1882352Y-23530500D01*
X-1882351Y-23530500D01*
X-1677649Y-23530500D01*
X-1677648Y-23530500D01*
X-1475466Y-23498477D01*
X-1280781Y-23435220D01*
X-1098390Y-23342287D01*
X-1005410Y-23274732D01*
X-932787Y-23221971D01*
X-932785Y-23221968D01*
X-932781Y-23221966D01*
X-788034Y-23077219D01*
X-788032Y-23077215D01*
X-788029Y-23077213D01*
X-735268Y-23004590D01*
X-667713Y-22911610D01*
X-574780Y-22729219D01*
X-511523Y-22534534D01*
X-479500Y-22332352D01*
X-479500Y-22127648D01*
X-511523Y-21925466D01*
X-574780Y-21730781D01*
X-574782Y-21730778D01*
X-574782Y-21730776D01*
X-608497Y-21664607D01*
X-667713Y-21548390D01*
X-675444Y-21537749D01*
X-788029Y-21382786D01*
X-932787Y-21238028D01*
X-1098387Y-21117715D01*
X-1098388Y-21117714D01*
X-1098390Y-21117713D01*
X-1185498Y-21073329D01*
X-1280777Y-21024781D01*
X-1475466Y-20961522D01*
X-1650005Y-20933878D01*
X-1677648Y-20929500D01*
X-1882352Y-20929500D01*
X-1906671Y-20933351D01*
X-2084535Y-20961522D01*
X-2279224Y-21024781D01*
X-2461614Y-21117715D01*
X-2627214Y-21238028D01*
X-2771972Y-21382786D01*
X-2892285Y-21548386D01*
X-2985219Y-21730776D01*
X-3048478Y-21925465D01*
X-3080500Y-22127648D01*
X-4780472Y-22127648D01*
X-4780472Y-16765000D01*
X-4480862Y-16765000D01*
X-3677988Y-16765000D01*
X-3695205Y-16774940D01*
X-3751060Y-16830795D01*
X-3790556Y-16899204D01*
X-3811000Y-16975504D01*
X-3811000Y-17054496D01*
X-3790556Y-17130796D01*
X-3751060Y-17199205D01*
X-3695205Y-17255060D01*
X-3677988Y-17265000D01*
X-4480862Y-17265000D01*
X-4472570Y-17306690D01*
X-4472570Y-17306692D01*
X-4397193Y-17488671D01*
X-4397186Y-17488684D01*
X-4287752Y-17652462D01*
X-4287749Y-17652466D01*
X-4148467Y-17791748D01*
X-4148463Y-17791751D01*
X-3984685Y-17901185D01*
X-3984672Y-17901192D01*
X-3802694Y-17976569D01*
X-3802682Y-17976572D01*
X-3609496Y-18014999D01*
X-3609492Y-18015000D01*
X-3311000Y-18015000D01*
X-3311000Y-17315000D01*
X-2811000Y-17315000D01*
X-2811000Y-18015000D01*
X-2512508Y-18015000D01*
X-2512505Y-18014999D01*
X-2319319Y-17976572D01*
X-2319307Y-17976569D01*
X-2137329Y-17901192D01*
X-2137316Y-17901185D01*
X-1973538Y-17791751D01*
X-1973534Y-17791748D01*
X-1834252Y-17652466D01*
X-1834249Y-17652462D01*
X-1724815Y-17488684D01*
X-1724808Y-17488671D01*
X-1649431Y-17306692D01*
X-1649431Y-17306690D01*
X-1641138Y-17265000D01*
X-2444012Y-17265000D01*
X-2426795Y-17255060D01*
X-2370940Y-17199205D01*
X-2331444Y-17130796D01*
X-2311000Y-17054496D01*
X-2311000Y-16975504D01*
X-2331444Y-16899204D01*
X-2370940Y-16830795D01*
X-2426795Y-16774940D01*
X-2444012Y-16765000D01*
X-1641138Y-16765000D01*
X-380862Y-16765000D01*
X372012Y-16765000D01*
X354795Y-16774940D01*
X298940Y-16830795D01*
X259444Y-16899204D01*
X239000Y-16975504D01*
X239000Y-17054496D01*
X259444Y-17130796D01*
X298940Y-17199205D01*
X354795Y-17255060D01*
X372012Y-17265000D01*
X-380862Y-17265000D01*
X-372570Y-17306690D01*
X-372570Y-17306692D01*
X-297193Y-17488671D01*
X-297186Y-17488684D01*
X-187752Y-17652462D01*
X-187749Y-17652466D01*
X-48467Y-17791748D01*
X-48463Y-17791751D01*
X115315Y-17901185D01*
X115328Y-17901192D01*
X297306Y-17976569D01*
X297318Y-17976572D01*
X490504Y-18014999D01*
X490508Y-18015000D01*
X889000Y-18015000D01*
X889000Y-17315000D01*
X1389000Y-17315000D01*
X1389000Y-18015000D01*
X1787492Y-18015000D01*
X1787495Y-18014999D01*
X1980681Y-17976572D01*
X1980693Y-17976569D01*
X2162671Y-17901192D01*
X2162684Y-17901185D01*
X2326462Y-17791751D01*
X2326466Y-17791748D01*
X2465748Y-17652466D01*
X2465751Y-17652462D01*
X2575185Y-17488684D01*
X2575192Y-17488671D01*
X2650569Y-17306692D01*
X2650569Y-17306690D01*
X2658862Y-17265000D01*
X1905988Y-17265000D01*
X1923205Y-17255060D01*
X1979060Y-17199205D01*
X2018556Y-17130796D01*
X2039000Y-17054496D01*
X2039000Y-16975504D01*
X2018556Y-16899204D01*
X1979060Y-16830795D01*
X1923205Y-16774940D01*
X1905988Y-16765000D01*
X2658862Y-16765000D01*
X2650569Y-16723309D01*
X2650569Y-16723307D01*
X2575192Y-16541328D01*
X2575185Y-16541315D01*
X2465751Y-16377537D01*
X2465748Y-16377533D01*
X2326466Y-16238251D01*
X2326462Y-16238248D01*
X2162684Y-16128814D01*
X2162671Y-16128807D01*
X1980693Y-16053430D01*
X1980681Y-16053427D01*
X1787495Y-16015000D01*
X1389000Y-16015000D01*
X1389000Y-16715000D01*
X889000Y-16715000D01*
X889000Y-16114049D01*
X908685Y-16047010D01*
X951004Y-16006660D01*
X961665Y-16000505D01*
X1059505Y-15902665D01*
X1128688Y-15782836D01*
X1164500Y-15649183D01*
X1164500Y-15510817D01*
X1128688Y-15377164D01*
X1059505Y-15257335D01*
X961665Y-15159495D01*
X961664Y-15159494D01*
X961661Y-15159492D01*
X841838Y-15090313D01*
X841837Y-15090312D01*
X841836Y-15090312D01*
X708183Y-15054500D01*
X569817Y-15054500D01*
X436164Y-15090312D01*
X436161Y-15090313D01*
X316338Y-15159492D01*
X316333Y-15159496D01*
X218496Y-15257333D01*
X218492Y-15257338D01*
X149313Y-15377161D01*
X149312Y-15377164D01*
X113500Y-15510817D01*
X113500Y-15649183D01*
X142672Y-15758053D01*
X149312Y-15782835D01*
X149313Y-15782838D01*
X218492Y-15902661D01*
X223441Y-15909110D01*
X221944Y-15910258D01*
X250446Y-15962454D01*
X245462Y-16032146D01*
X203590Y-16088079D01*
X176734Y-16103373D01*
X115321Y-16128811D01*
X115315Y-16128814D01*
X-48463Y-16238248D01*
X-48467Y-16238251D01*
X-187749Y-16377533D01*
X-187752Y-16377537D01*
X-297186Y-16541315D01*
X-297193Y-16541328D01*
X-372570Y-16723307D01*
X-372570Y-16723309D01*
X-380862Y-16765000D01*
X-1641138Y-16765000D01*
X-1649431Y-16723309D01*
X-1649431Y-16723307D01*
X-1724808Y-16541328D01*
X-1724815Y-16541315D01*
X-1834249Y-16377537D01*
X-1834252Y-16377533D01*
X-1973534Y-16238251D01*
X-1973538Y-16238248D01*
X-2137316Y-16128814D01*
X-2137329Y-16128807D01*
X-2319307Y-16053430D01*
X-2319319Y-16053427D01*
X-2512505Y-16015000D01*
X-2811000Y-16015000D01*
X-2811000Y-16715000D01*
X-3311000Y-16715000D01*
X-3311000Y-16015000D01*
X-3609496Y-16015000D01*
X-3802682Y-16053427D01*
X-3802694Y-16053430D01*
X-3984672Y-16128807D01*
X-3984685Y-16128814D01*
X-4148463Y-16238248D01*
X-4148467Y-16238251D01*
X-4287749Y-16377533D01*
X-4287752Y-16377537D01*
X-4397186Y-16541315D01*
X-4397193Y-16541328D01*
X-4472570Y-16723307D01*
X-4472570Y-16723309D01*
X-4480862Y-16765000D01*
X-4780472Y-16765000D01*
X-4780472Y-11939997D01*
X294751Y-11939997D01*
X294751Y-11940002D01*
X313686Y-12108056D01*
X341172Y-12186609D01*
X344994Y-12199850D01*
X351498Y-12228218D01*
X351499Y-12228220D01*
X418155Y-12401018D01*
X423917Y-12470649D01*
X418375Y-12489698D01*
X353014Y-12661672D01*
X353014Y-12661674D01*
X338712Y-12705126D01*
X338710Y-12705136D01*
X338309Y-12708207D01*
X332399Y-12733079D01*
X316172Y-12779457D01*
X316170Y-12779462D01*
X297236Y-12947513D01*
X297236Y-12947518D01*
X316170Y-13115572D01*
X372030Y-13275210D01*
X372032Y-13275213D01*
X462003Y-13418400D01*
X462008Y-13418406D01*
X581594Y-13537992D01*
X581600Y-13537997D01*
X724787Y-13627968D01*
X724790Y-13627970D01*
X724794Y-13627971D01*
X724795Y-13627972D01*
X797398Y-13653376D01*
X884428Y-13683830D01*
X1052482Y-13702765D01*
X1052485Y-13702765D01*
X1052488Y-13702765D01*
X1220541Y-13683830D01*
X1220544Y-13683829D01*
X1380175Y-13627972D01*
X1380177Y-13627970D01*
X1380179Y-13627970D01*
X1380182Y-13627968D01*
X1523369Y-13537997D01*
X1523370Y-13537996D01*
X1523375Y-13537993D01*
X1642962Y-13418406D01*
X1647266Y-13411557D01*
X1732937Y-13275213D01*
X1732939Y-13275210D01*
X1732939Y-13275208D01*
X1732941Y-13275206D01*
X1788798Y-13115575D01*
X1788798Y-13115574D01*
X1788799Y-13115572D01*
X1807734Y-12947518D01*
X1807734Y-12947513D01*
X1788799Y-12779461D01*
X1788798Y-12779457D01*
X1762789Y-12705126D01*
X1760336Y-12698118D01*
X1756677Y-12685571D01*
X1749848Y-12656555D01*
X1749846Y-12656550D01*
X1735562Y-12620145D01*
X1683470Y-12487386D01*
X1677308Y-12417791D01*
X1683213Y-12397466D01*
X1748490Y-12228246D01*
X1748498Y-12228225D01*
X1748500Y-12228220D01*
X1748503Y-12228213D01*
X1763355Y-12183644D01*
X1763821Y-12180136D01*
X1769694Y-12155550D01*
X1786313Y-12108059D01*
X1805249Y-11940000D01*
X1805249Y-11939997D01*
X1786314Y-11771943D01*
X1750785Y-11670408D01*
X1730456Y-11612310D01*
X1730455Y-11612309D01*
X1730454Y-11612305D01*
X1730452Y-11612302D01*
X1640481Y-11469115D01*
X1640476Y-11469109D01*
X1520890Y-11349523D01*
X1520884Y-11349518D01*
X1377697Y-11259547D01*
X1377694Y-11259545D01*
X1218056Y-11203685D01*
X1050003Y-11184751D01*
X1049997Y-11184751D01*
X881943Y-11203685D01*
X722305Y-11259545D01*
X722302Y-11259547D01*
X579115Y-11349518D01*
X579109Y-11349523D01*
X459523Y-11469109D01*
X459518Y-11469115D01*
X369547Y-11612302D01*
X369545Y-11612305D01*
X313685Y-11771943D01*
X294751Y-11939997D01*
X-4780472Y-11939997D01*
X-4780472Y-8115000D01*
X-4480862Y-8115000D01*
X-3677988Y-8115000D01*
X-3695205Y-8124940D01*
X-3751060Y-8180795D01*
X-3790556Y-8249204D01*
X-3811000Y-8325504D01*
X-3811000Y-8404496D01*
X-3790556Y-8480796D01*
X-3751060Y-8549205D01*
X-3695205Y-8605060D01*
X-3677988Y-8615000D01*
X-4480862Y-8615000D01*
X-4472570Y-8656690D01*
X-4472570Y-8656692D01*
X-4397193Y-8838671D01*
X-4397186Y-8838684D01*
X-4287752Y-9002462D01*
X-4287749Y-9002466D01*
X-4148467Y-9141748D01*
X-4148463Y-9141751D01*
X-3984685Y-9251185D01*
X-3984672Y-9251192D01*
X-3802694Y-9326569D01*
X-3802682Y-9326572D01*
X-3609496Y-9364999D01*
X-3609492Y-9365000D01*
X-3311000Y-9365000D01*
X-3311000Y-8665000D01*
X-2811000Y-8665000D01*
X-2811000Y-9365000D01*
X-2512508Y-9365000D01*
X-2512505Y-9364999D01*
X-2319319Y-9326572D01*
X-2319307Y-9326569D01*
X-2137329Y-9251192D01*
X-2137316Y-9251185D01*
X-1973538Y-9141751D01*
X-1973534Y-9141748D01*
X-1834252Y-9002466D01*
X-1834249Y-9002462D01*
X-1724815Y-8838684D01*
X-1724808Y-8838671D01*
X-1649431Y-8656692D01*
X-1649431Y-8656690D01*
X-1641138Y-8615000D01*
X-2444012Y-8615000D01*
X-2426795Y-8605060D01*
X-2370940Y-8549205D01*
X-2331444Y-8480796D01*
X-2311000Y-8404496D01*
X-2311000Y-8325504D01*
X-2331444Y-8249204D01*
X-2370940Y-8180795D01*
X-2426795Y-8124940D01*
X-2444012Y-8115000D01*
X-1641138Y-8115000D01*
X-380862Y-8115000D01*
X372012Y-8115000D01*
X354795Y-8124940D01*
X298940Y-8180795D01*
X259444Y-8249204D01*
X239000Y-8325504D01*
X239000Y-8404496D01*
X259444Y-8480796D01*
X298940Y-8549205D01*
X354795Y-8605060D01*
X372012Y-8615000D01*
X-380862Y-8615000D01*
X-372570Y-8656690D01*
X-372570Y-8656692D01*
X-297193Y-8838671D01*
X-297186Y-8838684D01*
X-187752Y-9002462D01*
X-187749Y-9002466D01*
X-48467Y-9141748D01*
X-48463Y-9141751D01*
X115315Y-9251185D01*
X115328Y-9251192D01*
X176732Y-9276626D01*
X231136Y-9320466D01*
X253201Y-9386760D01*
X235922Y-9454460D01*
X223265Y-9470755D01*
X223441Y-9470890D01*
X218492Y-9477338D01*
X149313Y-9597161D01*
X149312Y-9597164D01*
X113500Y-9730817D01*
X113500Y-9869183D01*
X137539Y-9958896D01*
X149312Y-10002835D01*
X149313Y-10002838D01*
X218492Y-10122661D01*
X218494Y-10122664D01*
X218495Y-10122665D01*
X316335Y-10220505D01*
X316336Y-10220506D01*
X316338Y-10220507D01*
X333768Y-10230570D01*
X436164Y-10289688D01*
X569817Y-10325500D01*
X569819Y-10325500D01*
X708181Y-10325500D01*
X708183Y-10325500D01*
X840672Y-10290000D01*
X2304901Y-10290000D01*
X2309017Y-10331787D01*
X2323253Y-10476331D01*
X2348838Y-10560677D01*
X2352465Y-10579743D01*
X2352887Y-10579679D01*
X2353560Y-10584055D01*
X2353561Y-10584063D01*
X2353562Y-10584064D01*
X2506403Y-11255192D01*
X2506404Y-11255194D01*
X2509500Y-11282726D01*
X2509500Y-15163918D01*
X2509500Y-15163920D01*
X2509499Y-15163920D01*
X2538340Y-15308907D01*
X2538343Y-15308917D01*
X2594913Y-15445490D01*
X2594914Y-15445492D01*
X2621534Y-15485331D01*
X2621535Y-15485333D01*
X2677043Y-15568410D01*
X2677047Y-15568415D01*
X3537352Y-16428720D01*
X3554633Y-16450379D01*
X3921094Y-17032977D01*
X3929652Y-17046261D01*
X3929567Y-17046315D01*
X3936973Y-17057866D01*
X3937712Y-17059247D01*
X3975862Y-17130623D01*
X3975864Y-17130626D01*
X4094642Y-17275357D01*
X4239373Y-17394135D01*
X4239376Y-17394137D01*
X4404497Y-17482395D01*
X4404499Y-17482396D01*
X4534762Y-17521911D01*
X4583666Y-17536746D01*
X4583668Y-17536747D01*
X4600374Y-17538392D01*
X4770000Y-17555099D01*
X4956331Y-17536747D01*
X5135501Y-17482396D01*
X5300625Y-17394136D01*
X5445357Y-17275357D01*
X5564136Y-17130625D01*
X5652396Y-16965501D01*
X5706747Y-16786331D01*
X5725099Y-16600000D01*
X5706747Y-16413669D01*
X5652396Y-16234499D01*
X5629735Y-16192103D01*
X5564137Y-16069376D01*
X5564135Y-16069373D01*
X5445357Y-15924642D01*
X5300626Y-15805864D01*
X5300619Y-15805860D01*
X5222890Y-15764313D01*
X5206836Y-15753390D01*
X5206583Y-15753736D01*
X5203018Y-15751121D01*
X5203013Y-15751117D01*
X5203007Y-15751113D01*
X5203004Y-15751111D01*
X4620379Y-15384633D01*
X4598720Y-15367352D01*
X4046819Y-14815451D01*
X4013334Y-14754128D01*
X4010500Y-14727770D01*
X4010500Y-11282726D01*
X4013596Y-11255192D01*
X4016574Y-11242118D01*
X4130531Y-10741727D01*
X4166422Y-10584129D01*
X4166422Y-10584126D01*
X4166437Y-10584063D01*
X4168750Y-10573374D01*
X4168750Y-10573371D01*
X4169759Y-10568710D01*
X4169854Y-10568730D01*
X4172792Y-10555295D01*
X4196747Y-10476331D01*
X4215099Y-10290000D01*
X4196747Y-10103669D01*
X4142396Y-9924499D01*
X4140667Y-9921264D01*
X4054137Y-9759376D01*
X4054135Y-9759373D01*
X3935357Y-9614642D01*
X3790626Y-9495864D01*
X3790623Y-9495862D01*
X3625502Y-9407604D01*
X3446333Y-9353253D01*
X3446331Y-9353252D01*
X3260000Y-9334901D01*
X3073668Y-9353252D01*
X3073666Y-9353253D01*
X2894497Y-9407604D01*
X2729376Y-9495862D01*
X2729373Y-9495864D01*
X2584642Y-9614642D01*
X2465864Y-9759373D01*
X2465862Y-9759376D01*
X2377604Y-9924497D01*
X2323253Y-10103666D01*
X2323252Y-10103668D01*
X2305918Y-10279677D01*
X2304901Y-10290000D01*
X840672Y-10290000D01*
X841836Y-10289688D01*
X961665Y-10220505D01*
X1059505Y-10122665D01*
X1128688Y-10002836D01*
X1164500Y-9869183D01*
X1164500Y-9730817D01*
X1128688Y-9597164D01*
X1059505Y-9477335D01*
X961665Y-9379495D01*
X961664Y-9379494D01*
X950999Y-9373337D01*
X902784Y-9322769D01*
X889000Y-9265950D01*
X889000Y-8665000D01*
X1389000Y-8665000D01*
X1389000Y-9365000D01*
X1787492Y-9365000D01*
X1787495Y-9364999D01*
X1980681Y-9326572D01*
X1980693Y-9326569D01*
X2162671Y-9251192D01*
X2162684Y-9251185D01*
X2326462Y-9141751D01*
X2326466Y-9141748D01*
X2465748Y-9002466D01*
X2465751Y-9002462D01*
X2575185Y-8838684D01*
X2575192Y-8838671D01*
X2650569Y-8656692D01*
X2650569Y-8656690D01*
X2658862Y-8615000D01*
X1905988Y-8615000D01*
X1923205Y-8605060D01*
X1979060Y-8549205D01*
X2018556Y-8480796D01*
X2039000Y-8404496D01*
X2039000Y-8325504D01*
X2018556Y-8249204D01*
X1979060Y-8180795D01*
X1923205Y-8124940D01*
X1905988Y-8115000D01*
X2658862Y-8115000D01*
X2650569Y-8073309D01*
X2650569Y-8073307D01*
X2575192Y-7891328D01*
X2575185Y-7891315D01*
X2465751Y-7727537D01*
X2465748Y-7727533D01*
X2326466Y-7588251D01*
X2326462Y-7588248D01*
X2162684Y-7478814D01*
X2162671Y-7478807D01*
X1980693Y-7403430D01*
X1980681Y-7403427D01*
X1787495Y-7365000D01*
X1389000Y-7365000D01*
X1389000Y-8065000D01*
X889000Y-8065000D01*
X889000Y-7365000D01*
X490504Y-7365000D01*
X297318Y-7403427D01*
X297306Y-7403430D01*
X115328Y-7478807D01*
X115315Y-7478814D01*
X-48463Y-7588248D01*
X-48467Y-7588251D01*
X-187749Y-7727533D01*
X-187752Y-7727537D01*
X-297186Y-7891315D01*
X-297193Y-7891328D01*
X-372570Y-8073307D01*
X-372570Y-8073309D01*
X-380862Y-8115000D01*
X-1641138Y-8115000D01*
X-1649431Y-8073309D01*
X-1649431Y-8073307D01*
X-1724808Y-7891328D01*
X-1724815Y-7891315D01*
X-1834249Y-7727537D01*
X-1834252Y-7727533D01*
X-1973534Y-7588251D01*
X-1973538Y-7588248D01*
X-2137316Y-7478814D01*
X-2137329Y-7478807D01*
X-2319307Y-7403430D01*
X-2319319Y-7403427D01*
X-2512505Y-7365000D01*
X-2811000Y-7365000D01*
X-2811000Y-8065000D01*
X-3311000Y-8065000D01*
X-3311000Y-7365000D01*
X-3609496Y-7365000D01*
X-3802682Y-7403427D01*
X-3802694Y-7403430D01*
X-3984672Y-7478807D01*
X-3984685Y-7478814D01*
X-4148463Y-7588248D01*
X-4148467Y-7588251D01*
X-4287749Y-7727533D01*
X-4287752Y-7727537D01*
X-4397186Y-7891315D01*
X-4397193Y-7891328D01*
X-4472570Y-8073307D01*
X-4472570Y-8073309D01*
X-4480862Y-8115000D01*
X-4780472Y-8115000D01*
X-4780472Y-3057648D01*
X-3080500Y-3057648D01*
X-3080500Y-3262351D01*
X-3048478Y-3464534D01*
X-2985219Y-3659223D01*
X-2892285Y-3841613D01*
X-2771972Y-4007213D01*
X-2627214Y-4151971D01*
X-2472251Y-4264556D01*
X-2461610Y-4272287D01*
X-2345393Y-4331503D01*
X-2279224Y-4365218D01*
X-2279222Y-4365218D01*
X-2279219Y-4365220D01*
X-2174863Y-4399127D01*
X-2084535Y-4428477D01*
X-1983443Y-4444488D01*
X-1882352Y-4460500D01*
X-1882351Y-4460500D01*
X-1677649Y-4460500D01*
X-1677648Y-4460500D01*
X-1475466Y-4428477D01*
X-1280781Y-4365220D01*
X-1098390Y-4272287D01*
X-1005410Y-4204732D01*
X-932787Y-4151971D01*
X-932785Y-4151968D01*
X-932781Y-4151966D01*
X-788034Y-4007219D01*
X-788032Y-4007215D01*
X-788029Y-4007213D01*
X-735268Y-3934590D01*
X-667713Y-3841610D01*
X-574780Y-3659219D01*
X-511523Y-3464534D01*
X-479500Y-3262352D01*
X-479500Y-3057648D01*
X-487952Y-3004286D01*
X-511523Y-2855465D01*
X-562327Y-2699107D01*
X-574780Y-2660781D01*
X-574782Y-2660778D01*
X-574782Y-2660776D01*
X-632658Y-2547190D01*
X-667713Y-2478390D01*
X-701349Y-2432093D01*
X-788029Y-2312786D01*
X-932787Y-2168028D01*
X-1098387Y-2047715D01*
X-1098388Y-2047714D01*
X-1098390Y-2047713D01*
X-1165623Y-2013456D01*
X-1280777Y-1954781D01*
X-1475466Y-1891522D01*
X-1657590Y-1862677D01*
X-1677648Y-1859500D01*
X-1882352Y-1859500D01*
X-1902410Y-1862677D01*
X-2084535Y-1891522D01*
X-2279224Y-1954781D01*
X-2461614Y-2047715D01*
X-2627214Y-2168028D01*
X-2771972Y-2312786D01*
X-2892285Y-2478386D01*
X-2985219Y-2660776D01*
X-3048478Y-2855465D01*
X-3080500Y-3057648D01*
X-4780472Y-3057648D01*
X-4780472Y-3003480D01*
X-4780277Y-2996528D01*
X-4774121Y-2886900D01*
X-4763574Y-2699097D01*
X-4762018Y-2685290D01*
X-4712703Y-2395041D01*
X-4709609Y-2381489D01*
X-4689814Y-2312781D01*
X-4628105Y-2098582D01*
X-4623513Y-2085462D01*
X-4590645Y-2006110D01*
X-4510849Y-1813463D01*
X-4504827Y-1800957D01*
X-4362406Y-1543267D01*
X-4355011Y-1531499D01*
X-4348469Y-1522279D01*
X-4184642Y-1291385D01*
X-4175987Y-1280531D01*
X-3979793Y-1060991D01*
X-3969981Y-1051179D01*
X-3750441Y-854985D01*
X-3739587Y-846330D01*
X-3499468Y-675957D01*
X-3487705Y-668566D01*
X-3230015Y-526145D01*
X-3217509Y-520123D01*
X-2945510Y-407459D01*
X-2932390Y-402867D01*
X-2649478Y-321361D01*
X-2635931Y-318269D01*
X-2345674Y-268952D01*
X-2331875Y-267398D01*
X-2071410Y-252770D01*
X-2034443Y-250695D01*
X-2027491Y-250500D01*
X-1986802Y-250500D01*
X332561Y-250500D01*
X399600Y-270185D01*
G37*
%TD.AperFunction*%
%TA.AperFunction,Conductor*%
G36*
X46772626Y-9842634D02*
G01*
X46776615Y-9843383D01*
X46776621Y-9843385D01*
X47404819Y-9915588D01*
X47416428Y-9917485D01*
X47421721Y-9918610D01*
X47430608Y-9920500D01*
X47430609Y-9920500D01*
X47441610Y-9920500D01*
X47452349Y-9920965D01*
X47477181Y-9923125D01*
X47478484Y-9923202D01*
X47478491Y-9923201D01*
X47478494Y-9923202D01*
X47520462Y-9922252D01*
X47560912Y-9921337D01*
X47560912Y-9921336D01*
X47564128Y-9921264D01*
X47575457Y-9920500D01*
X47581949Y-9920500D01*
X47585466Y-9920549D01*
X47590719Y-9920699D01*
X47590720Y-9920698D01*
X47590726Y-9920699D01*
X47592685Y-9920615D01*
X47598018Y-9920500D01*
X47609390Y-9920500D01*
X47609391Y-9920500D01*
X47623578Y-9917484D01*
X47635177Y-9915588D01*
X48263379Y-9843385D01*
X48275368Y-9841703D01*
X48292596Y-9840500D01*
X53697202Y-9840500D01*
X53750538Y-9852556D01*
X54475106Y-10197792D01*
X54568370Y-10230119D01*
X54571000Y-10231066D01*
X54579740Y-10234325D01*
X54589078Y-10237808D01*
X54645013Y-10279677D01*
X54669433Y-10345140D01*
X54654583Y-10413414D01*
X54633431Y-10441672D01*
X54511503Y-10563600D01*
X54375965Y-10757169D01*
X54375964Y-10757171D01*
X54276098Y-10971335D01*
X54276094Y-10971344D01*
X54214938Y-11199586D01*
X54214936Y-11199596D01*
X54194341Y-11434999D01*
X54194341Y-11435000D01*
X54214936Y-11670403D01*
X54214938Y-11670413D01*
X54276094Y-11898655D01*
X54276096Y-11898659D01*
X54276097Y-11898663D01*
X54295373Y-11940000D01*
X54375965Y-12112830D01*
X54375967Y-12112834D01*
X54511501Y-12306395D01*
X54511506Y-12306402D01*
X54678597Y-12473493D01*
X54678603Y-12473498D01*
X54864158Y-12603425D01*
X54907783Y-12658002D01*
X54914977Y-12727500D01*
X54883454Y-12789855D01*
X54864158Y-12806575D01*
X54678597Y-12936505D01*
X54511505Y-13103597D01*
X54375965Y-13297169D01*
X54375964Y-13297171D01*
X54276098Y-13511335D01*
X54276094Y-13511344D01*
X54214938Y-13739586D01*
X54214936Y-13739596D01*
X54194341Y-13974999D01*
X54194341Y-13975000D01*
X54214936Y-14210403D01*
X54214938Y-14210413D01*
X54276094Y-14438655D01*
X54276096Y-14438659D01*
X54276097Y-14438663D01*
X54375965Y-14652830D01*
X54375967Y-14652834D01*
X54467444Y-14783475D01*
X54511505Y-14846401D01*
X54678599Y-15013495D01*
X54783106Y-15086672D01*
X54864594Y-15143730D01*
X54908219Y-15198307D01*
X54915413Y-15267805D01*
X54883890Y-15330160D01*
X54864595Y-15346880D01*
X54678922Y-15476890D01*
X54678920Y-15476891D01*
X54511891Y-15643920D01*
X54511886Y-15643926D01*
X54376400Y-15837420D01*
X54376399Y-15837422D01*
X54276570Y-16051507D01*
X54276567Y-16051513D01*
X54219364Y-16264999D01*
X54219364Y-16265000D01*
X55116988Y-16265000D01*
X55084075Y-16322007D01*
X55050000Y-16449174D01*
X55050000Y-16580826D01*
X55084075Y-16707993D01*
X55116988Y-16765000D01*
X54219364Y-16765000D01*
X54276567Y-16978486D01*
X54276570Y-16978492D01*
X54376399Y-17192578D01*
X54511894Y-17386082D01*
X54678917Y-17553105D01*
X54872421Y-17688600D01*
X55086507Y-17788429D01*
X55086516Y-17788433D01*
X55300000Y-17845634D01*
X55300000Y-16948012D01*
X55357007Y-16980925D01*
X55484174Y-17015000D01*
X55615826Y-17015000D01*
X55742993Y-16980925D01*
X55800000Y-16948012D01*
X55800000Y-17845633D01*
X56013483Y-17788433D01*
X56013492Y-17788429D01*
X56227578Y-17688600D01*
X56421087Y-17553101D01*
X56425228Y-17549628D01*
X56426524Y-17551173D01*
X56480115Y-17521911D01*
X56549807Y-17526895D01*
X56605740Y-17568767D01*
X56630157Y-17634231D01*
X56630473Y-17643077D01*
X56630473Y-22396519D01*
X56630278Y-22403472D01*
X56613575Y-22700896D01*
X56612018Y-22714714D01*
X56562703Y-23004960D01*
X56559609Y-23018516D01*
X56478107Y-23301420D01*
X56473514Y-23314545D01*
X56360854Y-23586533D01*
X56354821Y-23599061D01*
X56212410Y-23856738D01*
X56205012Y-23868513D01*
X56034646Y-24108624D01*
X56025976Y-24119496D01*
X55829807Y-24339011D01*
X55819975Y-24348843D01*
X55600450Y-24545027D01*
X55589578Y-24553697D01*
X55349474Y-24724063D01*
X55337700Y-24731461D01*
X55080036Y-24873870D01*
X55067508Y-24879903D01*
X54795503Y-24992575D01*
X54782378Y-24997168D01*
X54499490Y-25078670D01*
X54485933Y-25081765D01*
X54195681Y-25131085D01*
X54181864Y-25132642D01*
X53885241Y-25149305D01*
X53878286Y-25149500D01*
X51179050Y-25149500D01*
X51112011Y-25129815D01*
X51066256Y-25077011D01*
X51056312Y-25007853D01*
X51085337Y-24944297D01*
X51091369Y-24937819D01*
X51098105Y-24931082D01*
X51233600Y-24737578D01*
X51333429Y-24523492D01*
X51333432Y-24523486D01*
X51390636Y-24310000D01*
X50493012Y-24310000D01*
X50525925Y-24252993D01*
X50560000Y-24125826D01*
X50560000Y-23994174D01*
X50525925Y-23867007D01*
X50493012Y-23810000D01*
X51390636Y-23810000D01*
X51390635Y-23809999D01*
X51333432Y-23596513D01*
X51333429Y-23596507D01*
X51233600Y-23382422D01*
X51233599Y-23382420D01*
X51098113Y-23188926D01*
X51098108Y-23188920D01*
X50931082Y-23021894D01*
X50737578Y-22886399D01*
X50523492Y-22786570D01*
X50523486Y-22786567D01*
X50310000Y-22729364D01*
X50310000Y-23626988D01*
X50252993Y-23594075D01*
X50125826Y-23560000D01*
X49994174Y-23560000D01*
X49867007Y-23594075D01*
X49810000Y-23626988D01*
X49810000Y-22729364D01*
X49809999Y-22729364D01*
X49596513Y-22786567D01*
X49596507Y-22786570D01*
X49382422Y-22886399D01*
X49382420Y-22886400D01*
X49188926Y-23021886D01*
X49188920Y-23021891D01*
X49021891Y-23188920D01*
X49021890Y-23188922D01*
X48891880Y-23374595D01*
X48837303Y-23418219D01*
X48767804Y-23425412D01*
X48705450Y-23393890D01*
X48688730Y-23374594D01*
X48558494Y-23188597D01*
X48391402Y-23021506D01*
X48391395Y-23021501D01*
X48387123Y-23018510D01*
X48248741Y-22921613D01*
X48197834Y-22885967D01*
X48197830Y-22885965D01*
X48126727Y-22852809D01*
X47983663Y-22786097D01*
X47983659Y-22786096D01*
X47983655Y-22786094D01*
X47755413Y-22724938D01*
X47755403Y-22724936D01*
X47520001Y-22704341D01*
X47519999Y-22704341D01*
X47284596Y-22724936D01*
X47284586Y-22724938D01*
X47056344Y-22786094D01*
X47056335Y-22786098D01*
X46842171Y-22885964D01*
X46842169Y-22885965D01*
X46648597Y-23021505D01*
X46481505Y-23188597D01*
X46351575Y-23374158D01*
X46296998Y-23417783D01*
X46227500Y-23424977D01*
X46165145Y-23393454D01*
X46148425Y-23374158D01*
X46018494Y-23188597D01*
X45851402Y-23021506D01*
X45851395Y-23021501D01*
X45847123Y-23018510D01*
X45708741Y-22921613D01*
X45657834Y-22885967D01*
X45657830Y-22885965D01*
X45586727Y-22852809D01*
X45443663Y-22786097D01*
X45443659Y-22786096D01*
X45443655Y-22786094D01*
X45215413Y-22724938D01*
X45215403Y-22724936D01*
X44980001Y-22704341D01*
X44979999Y-22704341D01*
X44744596Y-22724936D01*
X44744586Y-22724938D01*
X44516344Y-22786094D01*
X44516335Y-22786098D01*
X44302171Y-22885964D01*
X44302169Y-22885965D01*
X44108597Y-23021505D01*
X43941505Y-23188597D01*
X43811575Y-23374158D01*
X43756998Y-23417783D01*
X43687500Y-23424977D01*
X43625145Y-23393454D01*
X43608425Y-23374158D01*
X43478494Y-23188597D01*
X43311402Y-23021506D01*
X43311395Y-23021501D01*
X43307123Y-23018510D01*
X43168741Y-22921613D01*
X43117834Y-22885967D01*
X43117830Y-22885965D01*
X43046727Y-22852809D01*
X42903663Y-22786097D01*
X42903659Y-22786096D01*
X42903655Y-22786094D01*
X42675413Y-22724938D01*
X42675403Y-22724936D01*
X42440001Y-22704341D01*
X42439999Y-22704341D01*
X42204596Y-22724936D01*
X42204586Y-22724938D01*
X41976344Y-22786094D01*
X41976335Y-22786098D01*
X41762171Y-22885964D01*
X41762169Y-22885965D01*
X41568597Y-23021505D01*
X41401505Y-23188597D01*
X41271575Y-23374158D01*
X41216998Y-23417783D01*
X41147500Y-23424977D01*
X41085145Y-23393454D01*
X41068425Y-23374158D01*
X40938494Y-23188597D01*
X40771402Y-23021506D01*
X40771395Y-23021501D01*
X40767123Y-23018510D01*
X40628741Y-22921613D01*
X40577834Y-22885967D01*
X40577830Y-22885965D01*
X40506727Y-22852809D01*
X40363663Y-22786097D01*
X40363659Y-22786096D01*
X40363655Y-22786094D01*
X40135413Y-22724938D01*
X40135403Y-22724936D01*
X39900001Y-22704341D01*
X39899999Y-22704341D01*
X39664596Y-22724936D01*
X39664586Y-22724938D01*
X39436344Y-22786094D01*
X39436335Y-22786098D01*
X39222171Y-22885964D01*
X39222169Y-22885965D01*
X39028597Y-23021505D01*
X38861505Y-23188597D01*
X38731575Y-23374158D01*
X38676998Y-23417783D01*
X38607500Y-23424977D01*
X38545145Y-23393454D01*
X38528425Y-23374158D01*
X38398494Y-23188597D01*
X38231402Y-23021506D01*
X38231395Y-23021501D01*
X38227123Y-23018510D01*
X38088741Y-22921613D01*
X38037834Y-22885967D01*
X38037830Y-22885965D01*
X37966727Y-22852809D01*
X37823663Y-22786097D01*
X37823659Y-22786096D01*
X37823655Y-22786094D01*
X37595413Y-22724938D01*
X37595403Y-22724936D01*
X37360001Y-22704341D01*
X37359999Y-22704341D01*
X37124596Y-22724936D01*
X37124586Y-22724938D01*
X36896344Y-22786094D01*
X36896335Y-22786098D01*
X36682171Y-22885964D01*
X36682169Y-22885965D01*
X36488597Y-23021505D01*
X36321505Y-23188597D01*
X36191575Y-23374158D01*
X36136998Y-23417783D01*
X36067500Y-23424977D01*
X36005145Y-23393454D01*
X35988425Y-23374158D01*
X35858494Y-23188597D01*
X35691402Y-23021506D01*
X35691395Y-23021501D01*
X35687123Y-23018510D01*
X35548741Y-22921613D01*
X35497834Y-22885967D01*
X35497830Y-22885965D01*
X35426727Y-22852809D01*
X35283663Y-22786097D01*
X35283659Y-22786096D01*
X35283655Y-22786094D01*
X35055413Y-22724938D01*
X35055403Y-22724936D01*
X34820001Y-22704341D01*
X34819999Y-22704341D01*
X34584596Y-22724936D01*
X34584586Y-22724938D01*
X34356344Y-22786094D01*
X34356335Y-22786098D01*
X34142171Y-22885964D01*
X34142169Y-22885965D01*
X33948597Y-23021505D01*
X33781505Y-23188597D01*
X33651575Y-23374158D01*
X33596998Y-23417783D01*
X33527500Y-23424977D01*
X33465145Y-23393454D01*
X33448425Y-23374158D01*
X33318494Y-23188597D01*
X33151402Y-23021506D01*
X33151395Y-23021501D01*
X33147123Y-23018510D01*
X33008741Y-22921613D01*
X32957834Y-22885967D01*
X32957830Y-22885965D01*
X32886727Y-22852809D01*
X32743663Y-22786097D01*
X32743659Y-22786096D01*
X32743655Y-22786094D01*
X32515413Y-22724938D01*
X32515403Y-22724936D01*
X32280001Y-22704341D01*
X32279999Y-22704341D01*
X32044596Y-22724936D01*
X32044586Y-22724938D01*
X31816344Y-22786094D01*
X31816335Y-22786098D01*
X31602171Y-22885964D01*
X31602169Y-22885965D01*
X31408597Y-23021505D01*
X31241505Y-23188597D01*
X31111575Y-23374158D01*
X31056998Y-23417783D01*
X30987500Y-23424977D01*
X30925145Y-23393454D01*
X30908425Y-23374158D01*
X30778494Y-23188597D01*
X30611402Y-23021506D01*
X30611395Y-23021501D01*
X30607123Y-23018510D01*
X30468741Y-22921613D01*
X30417834Y-22885967D01*
X30417830Y-22885965D01*
X30346727Y-22852809D01*
X30203663Y-22786097D01*
X30203659Y-22786096D01*
X30203655Y-22786094D01*
X29975413Y-22724938D01*
X29975403Y-22724936D01*
X29740001Y-22704341D01*
X29739999Y-22704341D01*
X29504596Y-22724936D01*
X29504586Y-22724938D01*
X29276344Y-22786094D01*
X29276335Y-22786098D01*
X29062171Y-22885964D01*
X29062169Y-22885965D01*
X28868597Y-23021505D01*
X28701505Y-23188597D01*
X28571575Y-23374158D01*
X28516998Y-23417783D01*
X28447500Y-23424977D01*
X28385145Y-23393454D01*
X28368425Y-23374158D01*
X28238494Y-23188597D01*
X28071402Y-23021506D01*
X28071395Y-23021501D01*
X28067123Y-23018510D01*
X27928741Y-22921613D01*
X27877834Y-22885967D01*
X27877830Y-22885965D01*
X27806727Y-22852809D01*
X27663663Y-22786097D01*
X27663659Y-22786096D01*
X27663655Y-22786094D01*
X27435413Y-22724938D01*
X27435403Y-22724936D01*
X27200001Y-22704341D01*
X27199999Y-22704341D01*
X26964596Y-22724936D01*
X26964586Y-22724938D01*
X26736344Y-22786094D01*
X26736335Y-22786098D01*
X26522171Y-22885964D01*
X26522169Y-22885965D01*
X26328597Y-23021505D01*
X26161505Y-23188597D01*
X26031575Y-23374158D01*
X25976998Y-23417783D01*
X25907500Y-23424977D01*
X25845145Y-23393454D01*
X25828425Y-23374158D01*
X25698494Y-23188597D01*
X25531402Y-23021506D01*
X25531395Y-23021501D01*
X25527123Y-23018510D01*
X25388741Y-22921613D01*
X25337834Y-22885967D01*
X25337830Y-22885965D01*
X25266727Y-22852809D01*
X25123663Y-22786097D01*
X25123659Y-22786096D01*
X25123655Y-22786094D01*
X24895413Y-22724938D01*
X24895403Y-22724936D01*
X24660001Y-22704341D01*
X24659999Y-22704341D01*
X24424596Y-22724936D01*
X24424586Y-22724938D01*
X24196344Y-22786094D01*
X24196335Y-22786098D01*
X23982171Y-22885964D01*
X23982169Y-22885965D01*
X23788597Y-23021505D01*
X23621505Y-23188597D01*
X23491575Y-23374158D01*
X23436998Y-23417783D01*
X23367500Y-23424977D01*
X23305145Y-23393454D01*
X23288425Y-23374158D01*
X23158494Y-23188597D01*
X22991402Y-23021506D01*
X22991395Y-23021501D01*
X22987123Y-23018510D01*
X22848741Y-22921613D01*
X22797834Y-22885967D01*
X22797830Y-22885965D01*
X22726727Y-22852809D01*
X22583663Y-22786097D01*
X22583659Y-22786096D01*
X22583655Y-22786094D01*
X22355413Y-22724938D01*
X22355403Y-22724936D01*
X22120001Y-22704341D01*
X22119999Y-22704341D01*
X21884596Y-22724936D01*
X21884586Y-22724938D01*
X21656344Y-22786094D01*
X21656335Y-22786098D01*
X21442171Y-22885964D01*
X21442169Y-22885965D01*
X21248597Y-23021505D01*
X21081505Y-23188597D01*
X20951575Y-23374158D01*
X20896998Y-23417783D01*
X20827500Y-23424977D01*
X20765145Y-23393454D01*
X20748425Y-23374158D01*
X20618494Y-23188597D01*
X20451402Y-23021506D01*
X20451395Y-23021501D01*
X20447123Y-23018510D01*
X20308741Y-22921613D01*
X20257834Y-22885967D01*
X20257830Y-22885965D01*
X20186727Y-22852809D01*
X20043663Y-22786097D01*
X20043659Y-22786096D01*
X20043655Y-22786094D01*
X19815413Y-22724938D01*
X19815403Y-22724936D01*
X19580001Y-22704341D01*
X19579999Y-22704341D01*
X19344596Y-22724936D01*
X19344586Y-22724938D01*
X19116344Y-22786094D01*
X19116335Y-22786098D01*
X18902171Y-22885964D01*
X18902169Y-22885965D01*
X18708597Y-23021505D01*
X18541505Y-23188597D01*
X18411575Y-23374158D01*
X18356998Y-23417783D01*
X18287500Y-23424977D01*
X18225145Y-23393454D01*
X18208425Y-23374158D01*
X18078494Y-23188597D01*
X17911402Y-23021506D01*
X17911395Y-23021501D01*
X17907123Y-23018510D01*
X17768741Y-22921613D01*
X17717834Y-22885967D01*
X17717830Y-22885965D01*
X17646727Y-22852809D01*
X17503663Y-22786097D01*
X17503659Y-22786096D01*
X17503655Y-22786094D01*
X17275413Y-22724938D01*
X17275403Y-22724936D01*
X17040001Y-22704341D01*
X17039999Y-22704341D01*
X16804596Y-22724936D01*
X16804586Y-22724938D01*
X16576344Y-22786094D01*
X16576335Y-22786098D01*
X16362171Y-22885964D01*
X16362169Y-22885965D01*
X16168597Y-23021505D01*
X16001505Y-23188597D01*
X15871575Y-23374158D01*
X15816998Y-23417783D01*
X15747500Y-23424977D01*
X15685145Y-23393454D01*
X15668425Y-23374158D01*
X15538494Y-23188597D01*
X15371402Y-23021506D01*
X15371395Y-23021501D01*
X15367123Y-23018510D01*
X15228741Y-22921613D01*
X15177834Y-22885967D01*
X15177830Y-22885965D01*
X15106727Y-22852809D01*
X14963663Y-22786097D01*
X14963659Y-22786096D01*
X14963655Y-22786094D01*
X14735413Y-22724938D01*
X14735403Y-22724936D01*
X14500001Y-22704341D01*
X14499999Y-22704341D01*
X14264596Y-22724936D01*
X14264586Y-22724938D01*
X14036344Y-22786094D01*
X14036335Y-22786098D01*
X13822171Y-22885964D01*
X13822169Y-22885965D01*
X13628597Y-23021505D01*
X13461505Y-23188597D01*
X13331575Y-23374158D01*
X13276998Y-23417783D01*
X13207500Y-23424977D01*
X13145145Y-23393454D01*
X13128425Y-23374158D01*
X12998494Y-23188597D01*
X12831402Y-23021506D01*
X12831395Y-23021501D01*
X12827123Y-23018510D01*
X12688741Y-22921613D01*
X12637834Y-22885967D01*
X12637830Y-22885965D01*
X12566727Y-22852809D01*
X12423663Y-22786097D01*
X12423659Y-22786096D01*
X12423655Y-22786094D01*
X12195413Y-22724938D01*
X12195403Y-22724936D01*
X11960001Y-22704341D01*
X11959999Y-22704341D01*
X11724596Y-22724936D01*
X11724586Y-22724938D01*
X11496344Y-22786094D01*
X11496335Y-22786098D01*
X11282171Y-22885964D01*
X11282169Y-22885965D01*
X11088597Y-23021505D01*
X10921505Y-23188597D01*
X10791575Y-23374158D01*
X10736998Y-23417783D01*
X10667500Y-23424977D01*
X10605145Y-23393454D01*
X10588425Y-23374158D01*
X10458494Y-23188597D01*
X10291402Y-23021506D01*
X10291395Y-23021501D01*
X10287123Y-23018510D01*
X10148741Y-22921613D01*
X10097834Y-22885967D01*
X10097830Y-22885965D01*
X10026727Y-22852809D01*
X9883663Y-22786097D01*
X9883659Y-22786096D01*
X9883655Y-22786094D01*
X9655413Y-22724938D01*
X9655403Y-22724936D01*
X9420001Y-22704341D01*
X9419999Y-22704341D01*
X9184596Y-22724936D01*
X9184586Y-22724938D01*
X8956344Y-22786094D01*
X8956335Y-22786098D01*
X8742171Y-22885964D01*
X8742169Y-22885965D01*
X8548597Y-23021505D01*
X8381505Y-23188597D01*
X8251575Y-23374158D01*
X8196998Y-23417783D01*
X8127500Y-23424977D01*
X8065145Y-23393454D01*
X8048425Y-23374158D01*
X7918494Y-23188597D01*
X7751402Y-23021506D01*
X7751395Y-23021501D01*
X7747123Y-23018510D01*
X7608741Y-22921613D01*
X7557834Y-22885967D01*
X7557830Y-22885965D01*
X7486727Y-22852809D01*
X7343663Y-22786097D01*
X7343659Y-22786096D01*
X7343655Y-22786094D01*
X7115413Y-22724938D01*
X7115403Y-22724936D01*
X7076906Y-22721568D01*
X7011837Y-22696114D01*
X6970860Y-22639523D01*
X6966983Y-22569761D01*
X7000032Y-22510361D01*
X7372746Y-22137648D01*
X52329500Y-22137648D01*
X52329500Y-22342351D01*
X52361522Y-22544534D01*
X52424781Y-22739223D01*
X52482657Y-22852809D01*
X52512619Y-22911613D01*
X52517715Y-22921613D01*
X52638028Y-23087213D01*
X52782786Y-23231971D01*
X52896431Y-23314537D01*
X52948390Y-23352287D01*
X53064607Y-23411503D01*
X53130776Y-23445218D01*
X53130778Y-23445218D01*
X53130781Y-23445220D01*
X53235137Y-23479127D01*
X53325465Y-23508477D01*
X53426557Y-23524488D01*
X53527648Y-23540500D01*
X53527649Y-23540500D01*
X53732351Y-23540500D01*
X53732352Y-23540500D01*
X53934534Y-23508477D01*
X54129219Y-23445220D01*
X54311610Y-23352287D01*
X54404590Y-23284732D01*
X54477213Y-23231971D01*
X54477215Y-23231968D01*
X54477219Y-23231966D01*
X54621966Y-23087219D01*
X54621968Y-23087215D01*
X54621971Y-23087213D01*
X54708651Y-22967906D01*
X54742287Y-22921610D01*
X54835220Y-22739219D01*
X54898477Y-22544534D01*
X54930500Y-22342352D01*
X54930500Y-22137648D01*
X54898477Y-21935466D01*
X54895227Y-21925465D01*
X54835218Y-21740776D01*
X54801503Y-21674607D01*
X54742287Y-21558390D01*
X54734556Y-21547749D01*
X54621971Y-21392786D01*
X54477213Y-21248028D01*
X54311613Y-21127715D01*
X54311612Y-21127714D01*
X54311610Y-21127713D01*
X54204876Y-21073329D01*
X54129223Y-21034781D01*
X53934534Y-20971522D01*
X53759995Y-20943878D01*
X53732352Y-20939500D01*
X53527648Y-20939500D01*
X53503329Y-20943351D01*
X53325465Y-20971522D01*
X53130776Y-21034781D01*
X52948386Y-21127715D01*
X52782786Y-21248028D01*
X52638028Y-21392786D01*
X52517715Y-21558386D01*
X52424781Y-21740776D01*
X52361522Y-21935465D01*
X52329500Y-22137648D01*
X7372746Y-22137648D01*
X8463576Y-21046819D01*
X8524899Y-21013334D01*
X8551257Y-21010500D01*
X9825110Y-21010500D01*
X9972945Y-21010500D01*
X39660262Y-21010500D01*
X39677798Y-21011746D01*
X39678553Y-21011853D01*
X39678557Y-21011855D01*
X40308628Y-21101863D01*
X40316837Y-21103321D01*
X40350609Y-21110500D01*
X40366960Y-21110500D01*
X40380233Y-21111212D01*
X40390005Y-21112265D01*
X40391627Y-21112383D01*
X40391640Y-21112382D01*
X40391644Y-21112383D01*
X40486929Y-21110875D01*
X40492632Y-21110500D01*
X40529389Y-21110500D01*
X40529391Y-21110500D01*
X40704267Y-21073329D01*
X40867593Y-21000612D01*
X41012230Y-20895526D01*
X41131859Y-20762665D01*
X41221250Y-20607835D01*
X41276497Y-20437803D01*
X41295185Y-20260000D01*
X41276497Y-20082197D01*
X41221250Y-19912165D01*
X41131859Y-19757335D01*
X41059568Y-19677048D01*
X41012235Y-19624478D01*
X41012232Y-19624476D01*
X41012231Y-19624475D01*
X41012230Y-19624474D01*
X40867593Y-19519388D01*
X40772399Y-19477005D01*
X40704266Y-19446670D01*
X40669789Y-19439342D01*
X40608308Y-19406148D01*
X40574532Y-19344985D01*
X40579186Y-19275270D01*
X40607889Y-19230373D01*
X44881637Y-14956625D01*
X44914782Y-14932944D01*
X45207164Y-14789781D01*
X45211955Y-14787211D01*
X45220447Y-14783475D01*
X45226710Y-14780458D01*
X45226718Y-14780456D01*
X45235750Y-14774780D01*
X45238312Y-14773291D01*
X45240078Y-14772127D01*
X45240089Y-14772122D01*
X45240098Y-14772114D01*
X45241197Y-14771391D01*
X45243389Y-14769980D01*
X45369918Y-14690477D01*
X45489505Y-14570890D01*
X45489509Y-14570884D01*
X45579480Y-14427697D01*
X45579482Y-14427694D01*
X45579482Y-14427692D01*
X45579484Y-14427690D01*
X45635341Y-14268059D01*
X45635341Y-14268058D01*
X45635342Y-14268056D01*
X45654277Y-14100002D01*
X45654277Y-14099997D01*
X45635342Y-13931943D01*
X45604888Y-13844913D01*
X45579484Y-13772310D01*
X45579483Y-13772309D01*
X45579482Y-13772305D01*
X45579480Y-13772302D01*
X45489509Y-13629115D01*
X45489504Y-13629109D01*
X45369918Y-13509523D01*
X45369912Y-13509518D01*
X45226725Y-13419547D01*
X45226722Y-13419545D01*
X45067084Y-13363685D01*
X44899031Y-13344751D01*
X44899025Y-13344751D01*
X44730971Y-13363685D01*
X44571333Y-13419545D01*
X44571330Y-13419547D01*
X44428143Y-13509518D01*
X44428137Y-13509523D01*
X44308551Y-13629109D01*
X44218567Y-13772317D01*
X44216102Y-13777436D01*
X44213969Y-13781657D01*
X44060360Y-14071685D01*
X44038461Y-14101329D01*
X40206168Y-17933623D01*
X40144845Y-17967108D01*
X40075153Y-17962124D01*
X40019220Y-17920252D01*
X39994803Y-17854788D01*
X39997081Y-17821723D01*
X39996884Y-17821684D01*
X40015500Y-17728099D01*
X40015500Y-17095558D01*
X40020936Y-17059247D01*
X40024790Y-17046664D01*
X40168594Y-16577103D01*
X40176365Y-16548823D01*
X40176365Y-16548816D01*
X40177331Y-16543582D01*
X40177575Y-16543627D01*
X40181745Y-16523591D01*
X40201497Y-16462803D01*
X40220185Y-16285000D01*
X40201497Y-16107197D01*
X40146250Y-15937165D01*
X40056859Y-15782335D01*
X40002706Y-15722192D01*
X39937235Y-15649478D01*
X39937232Y-15649476D01*
X39937231Y-15649475D01*
X39937230Y-15649474D01*
X39792593Y-15544388D01*
X39629267Y-15471671D01*
X39629265Y-15471670D01*
X39501594Y-15444533D01*
X39454391Y-15434500D01*
X39275609Y-15434500D01*
X39244954Y-15441015D01*
X39100733Y-15471670D01*
X39100728Y-15471672D01*
X38937408Y-15544387D01*
X38792768Y-15649475D01*
X38673140Y-15782336D01*
X38583750Y-15937164D01*
X38583747Y-15937170D01*
X38528504Y-16107192D01*
X38528503Y-16107194D01*
X38511917Y-16264999D01*
X38509815Y-16285000D01*
X38528503Y-16462803D01*
X38528503Y-16462805D01*
X38528504Y-16462807D01*
X38529320Y-16466646D01*
X38529146Y-16468918D01*
X38529183Y-16469266D01*
X38529119Y-16469272D01*
X38524002Y-16536313D01*
X38481864Y-16592045D01*
X38446241Y-16610390D01*
X38282387Y-16663466D01*
X38244175Y-16669500D01*
X33320097Y-16669500D01*
X33253058Y-16649815D01*
X33232416Y-16633181D01*
X26651416Y-10052181D01*
X26617931Y-9990858D01*
X26622915Y-9921166D01*
X26664787Y-9865233D01*
X26730251Y-9840816D01*
X26739097Y-9840500D01*
X29186082Y-9840500D01*
X37826082Y-9840500D01*
X46749720Y-9840500D01*
X46772626Y-9842634D01*
G37*
%TD.AperFunction*%
%TA.AperFunction,Conductor*%
G36*
X23507798Y-9841746D02*
G01*
X23508553Y-9841853D01*
X23508557Y-9841855D01*
X24138628Y-9931863D01*
X24146837Y-9933321D01*
X24180609Y-9940500D01*
X24196960Y-9940500D01*
X24210233Y-9941212D01*
X24220005Y-9942265D01*
X24221627Y-9942383D01*
X24221640Y-9942382D01*
X24221644Y-9942383D01*
X24316929Y-9940875D01*
X24322632Y-9940500D01*
X24359388Y-9940500D01*
X24359391Y-9940500D01*
X24393167Y-9933320D01*
X24401367Y-9931864D01*
X24993465Y-9847280D01*
X25062612Y-9857286D01*
X25115375Y-9903089D01*
X25128040Y-9929078D01*
X25132695Y-9942382D01*
X25169545Y-10047692D01*
X25174745Y-10055969D01*
X25182092Y-10069448D01*
X25183820Y-10073147D01*
X25248193Y-10188674D01*
X25259649Y-10216937D01*
X25290423Y-10331787D01*
X25305744Y-10358322D01*
X25305746Y-10358324D01*
X25305747Y-10358326D01*
X25337552Y-10413414D01*
X25369479Y-10468715D01*
X25488349Y-10587585D01*
X25488355Y-10587590D01*
X32535139Y-17634374D01*
X32535160Y-17634397D01*
X32538582Y-17637819D01*
X32539023Y-17638627D01*
X32542717Y-17642672D01*
X32542727Y-17642684D01*
X32541704Y-17643536D01*
X32572067Y-17699142D01*
X32567083Y-17768834D01*
X32525211Y-17824767D01*
X32459747Y-17849184D01*
X32450901Y-17849500D01*
X27894500Y-17849500D01*
X27827461Y-17829815D01*
X27781706Y-17777011D01*
X27770500Y-17725500D01*
X27770500Y-16710558D01*
X27775936Y-16674247D01*
X27923594Y-16192103D01*
X27931365Y-16163823D01*
X27931365Y-16163816D01*
X27932331Y-16158582D01*
X27932575Y-16158627D01*
X27936745Y-16138591D01*
X27956497Y-16077803D01*
X27975185Y-15900000D01*
X27956497Y-15722197D01*
X27928873Y-15637181D01*
X27901252Y-15552170D01*
X27901249Y-15552164D01*
X27811859Y-15397335D01*
X27765003Y-15345296D01*
X27692235Y-15264478D01*
X27692232Y-15264476D01*
X27692231Y-15264475D01*
X27692230Y-15264474D01*
X27547593Y-15159388D01*
X27384267Y-15086671D01*
X27384265Y-15086670D01*
X27232914Y-15054500D01*
X27209391Y-15049500D01*
X27030609Y-15049500D01*
X27007086Y-15054500D01*
X26855733Y-15086670D01*
X26855728Y-15086672D01*
X26692408Y-15159387D01*
X26547768Y-15264475D01*
X26428140Y-15397336D01*
X26338750Y-15552164D01*
X26338747Y-15552170D01*
X26283504Y-15722192D01*
X26283503Y-15722194D01*
X26264815Y-15900000D01*
X26283503Y-16077805D01*
X26283504Y-16077807D01*
X26309444Y-16157642D01*
X26314038Y-16176888D01*
X26316406Y-16192107D01*
X26464064Y-16674246D01*
X26469500Y-16710557D01*
X26469500Y-17625500D01*
X26449815Y-17692539D01*
X26397011Y-17738294D01*
X26345500Y-17749500D01*
X16752729Y-17749500D01*
X16725194Y-17746404D01*
X16149041Y-17615191D01*
X16110554Y-17599249D01*
X15610380Y-17284634D01*
X15588721Y-17267353D01*
X12272644Y-13951276D01*
X12255363Y-13929617D01*
X11940745Y-13429438D01*
X11924807Y-13390959D01*
X11793596Y-12814806D01*
X11790500Y-12787272D01*
X11790500Y-10082726D01*
X11793594Y-10055199D01*
X11815526Y-9958890D01*
X11849603Y-9897901D01*
X11908891Y-9865526D01*
X12005198Y-9843594D01*
X12032724Y-9840500D01*
X20946082Y-9840500D01*
X20946083Y-9840500D01*
X21093917Y-9840500D01*
X21596083Y-9840500D01*
X21616082Y-9840500D01*
X21763917Y-9840500D01*
X23490262Y-9840500D01*
X23507798Y-9841746D01*
G37*
%TD.AperFunction*%
%TA.AperFunction,Conductor*%
G36*
X7089241Y-11085312D02*
G01*
X7140716Y-11132557D01*
X7158528Y-11196589D01*
X7158528Y-14183410D01*
X7138843Y-14250449D01*
X7086039Y-14296204D01*
X7016881Y-14306148D01*
X6953325Y-14277123D01*
X6916597Y-14221728D01*
X6900553Y-14172350D01*
X6895959Y-14153099D01*
X6893594Y-14137903D01*
X6893593Y-14137897D01*
X6893593Y-14137895D01*
X6745936Y-13655752D01*
X6740500Y-13619442D01*
X6740500Y-11760558D01*
X6745936Y-11724247D01*
X6893594Y-11242103D01*
X6901365Y-11213823D01*
X6901365Y-11213816D01*
X6902331Y-11208582D01*
X6902575Y-11208627D01*
X6906745Y-11188591D01*
X6916598Y-11158268D01*
X6956036Y-11100595D01*
X7020394Y-11073397D01*
X7089241Y-11085312D01*
G37*
%TD.AperFunction*%
%TD*%
%TA.AperFunction,Conductor*%
%TO.N,GND*%
G36*
X37890000Y-10050000D02*
G01*
X37890000Y-10250000D01*
X37485671Y-10380970D01*
X37389000Y-10150000D01*
X37485671Y-9919030D01*
X37890000Y-10050000D01*
G37*
%TD.AperFunction*%
%TD*%
%TA.AperFunction,Conductor*%
%TO.N,GND*%
G36*
X38051000Y-10150000D02*
G01*
X37954329Y-10380970D01*
X37550000Y-10250000D01*
X37550000Y-10050000D01*
X37954329Y-9919030D01*
X38051000Y-10150000D01*
G37*
%TD.AperFunction*%
%TD*%
%TA.AperFunction,Conductor*%
%TO.N,/VDD_3.3V*%
G36*
X15308282Y-17691798D02*
G01*
X15923866Y-18079007D01*
X15929044Y-18086313D01*
X15928455Y-18093366D01*
X15762563Y-18496199D01*
X15756244Y-18502544D01*
X15756199Y-18502563D01*
X15353366Y-18668455D01*
X15344411Y-18668436D01*
X15339007Y-18663866D01*
X14951798Y-18048282D01*
X14950294Y-18039454D01*
X14953427Y-18033781D01*
X15293780Y-17693428D01*
X15302052Y-17690002D01*
X15308282Y-17691798D01*
G37*
%TD.AperFunction*%
%TD*%
%TA.AperFunction,Conductor*%
%TO.N,/VDD_3.3V*%
G36*
X11455588Y-13611563D02*
G01*
X11460992Y-13616133D01*
X11848201Y-14231717D01*
X11849705Y-14240545D01*
X11846570Y-14246220D01*
X11506220Y-14586570D01*
X11497947Y-14589997D01*
X11491717Y-14588201D01*
X10876133Y-14200992D01*
X10870955Y-14193686D01*
X10871543Y-14186635D01*
X11037437Y-13783798D01*
X11043754Y-13777455D01*
X11446635Y-13611544D01*
X11455588Y-13611563D01*
G37*
%TD.AperFunction*%
%TD*%
%TA.AperFunction,Conductor*%
%TO.N,/VDD_3.3V*%
G36*
X24265358Y-8744124D02*
G01*
X24269920Y-8751829D01*
X24270038Y-8753451D01*
X24271000Y-9090000D01*
X24271000Y-9090066D01*
X24270038Y-9426548D01*
X24266587Y-9434812D01*
X24258305Y-9438215D01*
X24256683Y-9438097D01*
X23580045Y-9341435D01*
X23572340Y-9336873D01*
X23570000Y-9329853D01*
X23570000Y-8850147D01*
X23573427Y-8841874D01*
X23580045Y-8838565D01*
X24256684Y-8741902D01*
X24265358Y-8744124D01*
G37*
%TD.AperFunction*%
%TD*%
%TA.AperFunction,Conductor*%
%TO.N,/VDD_3.3V*%
G36*
X34914834Y-18180601D02*
G01*
X34920144Y-18186428D01*
X35049119Y-18495494D01*
X35049142Y-18504449D01*
X35049119Y-18504506D01*
X34920144Y-18813571D01*
X34913795Y-18819886D01*
X34905920Y-18820252D01*
X34358274Y-18652533D01*
X34351367Y-18646834D01*
X34350000Y-18641346D01*
X34350000Y-18358653D01*
X34353427Y-18350380D01*
X34358274Y-18347466D01*
X34905921Y-18179747D01*
X34914834Y-18180601D01*
G37*
%TD.AperFunction*%
%TD*%
%TA.AperFunction,Conductor*%
%TO.N,/VDD_3.3V*%
G36*
X35741726Y-18347466D02*
G01*
X35748633Y-18353165D01*
X35750000Y-18358653D01*
X35750000Y-18637800D01*
X35746573Y-18646073D01*
X35738300Y-18649500D01*
X35733853Y-18649500D01*
X35707619Y-18656529D01*
X35706422Y-18656784D01*
X35670339Y-18662499D01*
X35659300Y-18668124D01*
X35654793Y-18670420D01*
X35652513Y-18671295D01*
X35644714Y-18673384D01*
X35613183Y-18691588D01*
X35610759Y-18692642D01*
X35194079Y-18820252D01*
X35185165Y-18819398D01*
X35179855Y-18813571D01*
X35140344Y-18718891D01*
X35050879Y-18504505D01*
X35050857Y-18495551D01*
X35050880Y-18495494D01*
X35111596Y-18350000D01*
X35179855Y-18186427D01*
X35186204Y-18180113D01*
X35194077Y-18179747D01*
X35741726Y-18347466D01*
G37*
%TD.AperFunction*%
%TD*%
%TA.AperFunction,Conductor*%
%TO.N,/VDD_3.3V*%
G36*
X16650898Y-18247927D02*
G01*
X16658204Y-18253105D01*
X16660000Y-18259335D01*
X16660000Y-18740664D01*
X16656573Y-18748937D01*
X16650898Y-18752072D01*
X15941816Y-18913557D01*
X15932988Y-18912053D01*
X15928418Y-18906649D01*
X15859265Y-18740664D01*
X15760873Y-18504498D01*
X15760855Y-18495547D01*
X15928418Y-18093349D01*
X15934763Y-18087031D01*
X15941816Y-18086442D01*
X16650898Y-18247927D01*
G37*
%TD.AperFunction*%
%TD*%
%TA.AperFunction,Conductor*%
%TO.N,/VDD_3.3V*%
G36*
X11446649Y-9258418D02*
G01*
X11452968Y-9264763D01*
X11453557Y-9271816D01*
X11292073Y-9980898D01*
X11286895Y-9988204D01*
X11280665Y-9990000D01*
X10799335Y-9990000D01*
X10791062Y-9986573D01*
X10787927Y-9980898D01*
X10626442Y-9271816D01*
X10627946Y-9262988D01*
X10633349Y-9258418D01*
X11035501Y-9090873D01*
X11044452Y-9090855D01*
X11446649Y-9258418D01*
G37*
%TD.AperFunction*%
%TD*%
%TA.AperFunction,Conductor*%
%TO.N,/VDD_3.3V*%
G36*
X11288938Y-12883427D02*
G01*
X11292073Y-12889102D01*
X11453557Y-13598183D01*
X11452053Y-13607011D01*
X11446649Y-13611581D01*
X11044500Y-13779125D01*
X11035545Y-13779144D01*
X11035500Y-13779125D01*
X10633350Y-13611581D01*
X10627031Y-13605236D01*
X10626442Y-13598183D01*
X10787927Y-12889102D01*
X10793105Y-12881796D01*
X10799335Y-12880000D01*
X11280665Y-12880000D01*
X11288938Y-12883427D01*
G37*
%TD.AperFunction*%
%TD*%
%TA.AperFunction,Conductor*%
%TO.N,/VDD_3.3V*%
G36*
X38142135Y-8596973D02*
G01*
X38148443Y-8603328D01*
X38149089Y-8610062D01*
X38071883Y-8995597D01*
X38066899Y-9003037D01*
X38060411Y-9005000D01*
X37779589Y-9005000D01*
X37771316Y-9001573D01*
X37768117Y-8995597D01*
X37765326Y-8981662D01*
X37690910Y-8610060D01*
X37692645Y-8601277D01*
X37697862Y-8596974D01*
X37915484Y-8505889D01*
X37924436Y-8505857D01*
X38142135Y-8596973D01*
G37*
%TD.AperFunction*%
%TD*%
%TA.AperFunction,Conductor*%
%TO.N,/VDD_3.3V*%
G36*
X54707499Y-8143670D02*
G01*
X55541738Y-8886750D01*
X55545637Y-8894812D01*
X55542693Y-8903269D01*
X55542224Y-8903765D01*
X54705843Y-9739162D01*
X54697568Y-9742584D01*
X54692542Y-9741446D01*
X53856667Y-9343176D01*
X53850673Y-9336524D01*
X53850000Y-9332614D01*
X53850000Y-8845506D01*
X53853427Y-8837233D01*
X53854234Y-8836498D01*
X54692261Y-8143390D01*
X54700819Y-8140759D01*
X54707499Y-8143670D01*
G37*
%TD.AperFunction*%
%TD*%
%TA.AperFunction,Conductor*%
%TO.N,/VDD_3.3V*%
G36*
X47533647Y-8722352D02*
G01*
X48206311Y-8838325D01*
X48213880Y-8843108D01*
X48216022Y-8849855D01*
X48216022Y-9329568D01*
X48212595Y-9337841D01*
X48205658Y-9341191D01*
X47532998Y-9418505D01*
X47524388Y-9416046D01*
X47520039Y-9408218D01*
X47519962Y-9406925D01*
X47519000Y-9070000D01*
X47519960Y-8733848D01*
X47523411Y-8725586D01*
X47531693Y-8722183D01*
X47533647Y-8722352D01*
G37*
%TD.AperFunction*%
%TD*%
%TA.AperFunction,Conductor*%
%TO.N,/VDD_3.3V*%
G36*
X27124478Y-15900868D02*
G01*
X27338891Y-15990344D01*
X27433571Y-16029855D01*
X27439886Y-16036204D01*
X27440252Y-16044079D01*
X27272534Y-16591726D01*
X27266835Y-16598633D01*
X27261347Y-16600000D01*
X26978653Y-16600000D01*
X26970380Y-16596573D01*
X26967466Y-16591726D01*
X26799747Y-16044079D01*
X26800601Y-16035165D01*
X26806427Y-16029855D01*
X27115494Y-15900879D01*
X27124449Y-15900857D01*
X27124478Y-15900868D01*
G37*
%TD.AperFunction*%
%TD*%
%TA.AperFunction,Conductor*%
%TO.N,/VDD_3.3V*%
G36*
X28984478Y-7840868D02*
G01*
X29198891Y-7930344D01*
X29293571Y-7969855D01*
X29299886Y-7976204D01*
X29300252Y-7984079D01*
X29132534Y-8531726D01*
X29126835Y-8538633D01*
X29121347Y-8540000D01*
X28838653Y-8540000D01*
X28830380Y-8536573D01*
X28827466Y-8531726D01*
X28659747Y-7984079D01*
X28660601Y-7975165D01*
X28666427Y-7969855D01*
X28975494Y-7840879D01*
X28984449Y-7840857D01*
X28984478Y-7840868D01*
G37*
%TD.AperFunction*%
%TD*%
%TA.AperFunction,Conductor*%
%TO.N,/VDD_3.3V*%
G36*
X39369478Y-16285868D02*
G01*
X39583891Y-16375344D01*
X39678571Y-16414855D01*
X39684886Y-16421204D01*
X39685252Y-16429079D01*
X39517534Y-16976726D01*
X39511835Y-16983633D01*
X39506347Y-16985000D01*
X39223653Y-16985000D01*
X39215380Y-16981573D01*
X39212466Y-16976726D01*
X39044747Y-16429079D01*
X39045601Y-16420165D01*
X39051427Y-16414855D01*
X39360494Y-16285879D01*
X39369449Y-16285857D01*
X39369478Y-16285868D01*
G37*
%TD.AperFunction*%
%TD*%
%TA.AperFunction,Conductor*%
%TO.N,/VDD_3.3V*%
G36*
X47515086Y-8724325D02*
G01*
X47519869Y-8731895D01*
X47520039Y-8733850D01*
X47521000Y-9070000D01*
X47521000Y-9070066D01*
X47520037Y-9406915D01*
X47516586Y-9415179D01*
X47508304Y-9418582D01*
X47507001Y-9418505D01*
X46834342Y-9341191D01*
X46826514Y-9336842D01*
X46823978Y-9329568D01*
X46823978Y-8849855D01*
X46827405Y-8841582D01*
X46833688Y-8838325D01*
X47506351Y-8722353D01*
X47515086Y-8724325D01*
G37*
%TD.AperFunction*%
%TD*%
%TA.AperFunction,Conductor*%
%TO.N,/VDD_3.3V*%
G36*
X24283311Y-8741901D02*
G01*
X24959955Y-8838565D01*
X24967660Y-8843127D01*
X24970000Y-8850147D01*
X24970000Y-9329853D01*
X24966573Y-9338126D01*
X24959955Y-9341435D01*
X24283316Y-9438097D01*
X24274641Y-9435875D01*
X24270079Y-9428170D01*
X24269961Y-9426556D01*
X24269000Y-9090000D01*
X24269961Y-8753449D01*
X24273412Y-8745187D01*
X24281694Y-8741784D01*
X24283311Y-8741901D01*
G37*
%TD.AperFunction*%
%TD*%
%TA.AperFunction,Conductor*%
%TO.N,/VDD_3.3V*%
G36*
X11930898Y-8837927D02*
G01*
X11938204Y-8843105D01*
X11940000Y-8849335D01*
X11940000Y-9330664D01*
X11936573Y-9338937D01*
X11930898Y-9342072D01*
X11221816Y-9503557D01*
X11212988Y-9502053D01*
X11208418Y-9496649D01*
X11139265Y-9330664D01*
X11040873Y-9094498D01*
X11040855Y-9085547D01*
X11208418Y-8683349D01*
X11214763Y-8677031D01*
X11221816Y-8676442D01*
X11930898Y-8837927D01*
G37*
%TD.AperFunction*%
%TD*%
%TA.AperFunction,Conductor*%
%TO.N,/VDD_5V*%
G36*
X40435358Y-19914124D02*
G01*
X40439920Y-19921829D01*
X40440038Y-19923451D01*
X40441000Y-20260000D01*
X40441000Y-20260066D01*
X40440038Y-20596548D01*
X40436587Y-20604812D01*
X40428305Y-20608215D01*
X40426683Y-20608097D01*
X39750045Y-20511435D01*
X39742340Y-20506873D01*
X39740000Y-20499853D01*
X39740000Y-20020147D01*
X39743427Y-20011874D01*
X39750045Y-20008565D01*
X40426684Y-19911902D01*
X40435358Y-19914124D01*
G37*
%TD.AperFunction*%
%TD*%
%TA.AperFunction,Conductor*%
%TO.N,/VDD_5V*%
G36*
X10285677Y-19473418D02*
G01*
X10291996Y-19479763D01*
X10292585Y-19486816D01*
X10131101Y-20195898D01*
X10125923Y-20203204D01*
X10119693Y-20205000D01*
X9638363Y-20205000D01*
X9630090Y-20201573D01*
X9626955Y-20195898D01*
X9465470Y-19486816D01*
X9466974Y-19477988D01*
X9472377Y-19473418D01*
X9874529Y-19305873D01*
X9883480Y-19305855D01*
X10285677Y-19473418D01*
G37*
%TD.AperFunction*%
%TD*%
%TA.AperFunction,Conductor*%
%TO.N,/VDD_5V*%
G36*
X5386685Y-22713520D02*
G01*
X5390458Y-22716047D01*
X5732713Y-23058302D01*
X5736140Y-23066575D01*
X5735053Y-23071501D01*
X5130016Y-24375114D01*
X5123424Y-24381175D01*
X5114937Y-24381002D01*
X4343785Y-24062562D01*
X4337447Y-24056238D01*
X4019189Y-23285526D01*
X4019198Y-23276573D01*
X4025537Y-23270248D01*
X4025540Y-23270246D01*
X5377732Y-22713501D01*
X5386685Y-22713520D01*
G37*
%TD.AperFunction*%
%TD*%
%TA.AperFunction,Conductor*%
%TO.N,/GPIO25*%
G36*
X25581906Y-6767378D02*
G01*
X25588720Y-6773187D01*
X25590000Y-6778508D01*
X25590000Y-6961491D01*
X25586573Y-6969764D01*
X25581905Y-6972622D01*
X25195912Y-7097652D01*
X25186986Y-7096941D01*
X25181514Y-7091038D01*
X25090889Y-6874515D01*
X25090857Y-6865563D01*
X25181514Y-6648960D01*
X25187870Y-6642652D01*
X25195911Y-6642347D01*
X25581906Y-6767378D01*
G37*
%TD.AperFunction*%
%TD*%
%TA.AperFunction,Conductor*%
%TO.N,/GPIO25*%
G36*
X27178013Y-6643058D02*
G01*
X27183485Y-6648961D01*
X27274109Y-6865483D01*
X27274142Y-6874437D01*
X27274109Y-6874517D01*
X27183485Y-7091038D01*
X27177129Y-7097347D01*
X27169087Y-7097652D01*
X26783095Y-6972622D01*
X26776280Y-6966812D01*
X26775000Y-6961491D01*
X26775000Y-6778508D01*
X26778427Y-6770235D01*
X26783091Y-6767378D01*
X27169088Y-6642347D01*
X27178013Y-6643058D01*
G37*
%TD.AperFunction*%
%TD*%
%TA.AperFunction,Conductor*%
%TO.N,/LDO_EN*%
G36*
X7958648Y-17603427D02*
G01*
X7961562Y-17608274D01*
X8129280Y-18155920D01*
X8128426Y-18164834D01*
X8122599Y-18170144D01*
X7813534Y-18299119D01*
X7804579Y-18299142D01*
X7804522Y-18299119D01*
X7495456Y-18170144D01*
X7489141Y-18163795D01*
X7488775Y-18155922D01*
X7656494Y-17608273D01*
X7662193Y-17601367D01*
X7667681Y-17600000D01*
X7950375Y-17600000D01*
X7958648Y-17603427D01*
G37*
%TD.AperFunction*%
%TD*%
%TA.AperFunction,Conductor*%
%TO.N,/LDO_EN*%
G36*
X8645948Y-1019363D02*
G01*
X8662355Y-1026138D01*
X9416215Y-1337438D01*
X9422552Y-1343761D01*
X9422562Y-1343785D01*
X9740636Y-2114051D01*
X9740627Y-2123006D01*
X9734288Y-2129331D01*
X9733861Y-2129498D01*
X8331006Y-2645564D01*
X8322059Y-2645204D01*
X8318694Y-2642856D01*
X8117143Y-2441305D01*
X8113716Y-2433032D01*
X8114433Y-2428999D01*
X8630501Y-1026137D01*
X8636574Y-1019556D01*
X8645521Y-1019196D01*
X8645948Y-1019363D01*
G37*
%TD.AperFunction*%
%TD*%
%TA.AperFunction,Conductor*%
%TO.N,/RUN*%
G36*
X44984484Y-1340863D02*
G01*
X45754117Y-1660635D01*
X45760442Y-1666974D01*
X45760433Y-1675929D01*
X45760273Y-1676296D01*
X45142150Y-3031360D01*
X45135599Y-3037465D01*
X45131505Y-3038204D01*
X44846462Y-3038204D01*
X44838189Y-3034777D01*
X44835870Y-3031475D01*
X44199901Y-1676360D01*
X44199489Y-1667414D01*
X44205522Y-1660797D01*
X44205959Y-1660603D01*
X44975511Y-1340864D01*
X44984466Y-1340856D01*
X44984484Y-1340863D01*
G37*
%TD.AperFunction*%
%TD*%
%TA.AperFunction,Conductor*%
%TO.N,/RUN*%
G36*
X45137712Y-6143427D02*
G01*
X45140911Y-6149403D01*
X45218117Y-6534937D01*
X45216382Y-6543722D01*
X45211162Y-6548027D01*
X44993545Y-6639109D01*
X44984591Y-6639142D01*
X44984511Y-6639109D01*
X44766893Y-6548027D01*
X44760584Y-6541672D01*
X44759938Y-6534939D01*
X44837145Y-6149403D01*
X44842129Y-6141963D01*
X44848617Y-6140000D01*
X45129439Y-6140000D01*
X45137712Y-6143427D01*
G37*
%TD.AperFunction*%
%TD*%
%TA.AperFunction,Conductor*%
%TO.N,/GPIO29_ADC3*%
G36*
X38762041Y-17043058D02*
G01*
X38767513Y-17048961D01*
X38858137Y-17265483D01*
X38858170Y-17274437D01*
X38858137Y-17274517D01*
X38767513Y-17491038D01*
X38761157Y-17497347D01*
X38753115Y-17497652D01*
X38367123Y-17372622D01*
X38360308Y-17366812D01*
X38359028Y-17361491D01*
X38359028Y-17178508D01*
X38362455Y-17170235D01*
X38367119Y-17167378D01*
X38753116Y-17042347D01*
X38762041Y-17043058D01*
G37*
%TD.AperFunction*%
%TD*%
%TA.AperFunction,Conductor*%
%TO.N,/GPIO29_ADC3*%
G36*
X25853800Y-9721168D02*
G01*
X26070198Y-9811190D01*
X26071646Y-9811792D01*
X26077968Y-9818134D01*
X26078496Y-9825461D01*
X26006352Y-10111016D01*
X26003281Y-10116423D01*
X25875095Y-10244609D01*
X25866822Y-10248036D01*
X25858549Y-10244609D01*
X25856602Y-10242031D01*
X25625401Y-9827105D01*
X25624367Y-9818210D01*
X25629926Y-9811190D01*
X25631098Y-9810619D01*
X25844789Y-9721177D01*
X25853743Y-9721145D01*
X25853800Y-9721168D01*
G37*
%TD.AperFunction*%
%TD*%
%TA.AperFunction,Conductor*%
%TO.N,Net-(USB1-CC2)*%
G36*
X6094478Y-10950868D02*
G01*
X6308891Y-11040344D01*
X6403571Y-11079855D01*
X6409886Y-11086204D01*
X6410252Y-11094079D01*
X6242534Y-11641726D01*
X6236835Y-11648633D01*
X6231347Y-11650000D01*
X5948653Y-11650000D01*
X5940380Y-11646573D01*
X5937466Y-11641726D01*
X5769747Y-11094079D01*
X5770601Y-11085165D01*
X5776427Y-11079855D01*
X6085494Y-10950879D01*
X6094449Y-10950857D01*
X6094478Y-10950868D01*
G37*
%TD.AperFunction*%
%TD*%
%TA.AperFunction,Conductor*%
%TO.N,Net-(USB1-CC2)*%
G36*
X6239620Y-13733427D02*
G01*
X6242534Y-13738274D01*
X6410252Y-14285920D01*
X6409398Y-14294834D01*
X6403571Y-14300144D01*
X6094506Y-14429119D01*
X6085551Y-14429142D01*
X6085494Y-14429119D01*
X5776428Y-14300144D01*
X5770113Y-14293795D01*
X5769747Y-14285922D01*
X5937466Y-13738273D01*
X5943165Y-13731367D01*
X5948653Y-13730000D01*
X6231347Y-13730000D01*
X6239620Y-13733427D01*
G37*
%TD.AperFunction*%
%TD*%
%TA.AperFunction,Conductor*%
%TO.N,/Boot_Select*%
G36*
X17490180Y-19417256D02*
G01*
X17496854Y-19423226D01*
X17498011Y-19428298D01*
X17498011Y-19611299D01*
X17494584Y-19619572D01*
X17489680Y-19622504D01*
X17105763Y-19737935D01*
X17096853Y-19737035D01*
X17091601Y-19731248D01*
X17000889Y-19514515D01*
X17000857Y-19505563D01*
X17091414Y-19289199D01*
X17097770Y-19282891D01*
X17106074Y-19282675D01*
X17490180Y-19417256D01*
G37*
%TD.AperFunction*%
%TD*%
%TA.AperFunction,Conductor*%
%TO.N,/Boot_Select*%
G36*
X44677870Y-14008351D02*
G01*
X44895203Y-14097435D01*
X44901559Y-14103744D01*
X44901592Y-14103824D01*
X44990546Y-14320839D01*
X44990513Y-14329793D01*
X44984865Y-14335784D01*
X44619687Y-14514593D01*
X44610750Y-14515153D01*
X44606269Y-14512358D01*
X44476870Y-14382959D01*
X44473443Y-14374686D01*
X44474804Y-14369210D01*
X44495058Y-14330970D01*
X44663094Y-14013700D01*
X44669994Y-14007994D01*
X44677870Y-14008351D01*
G37*
%TD.AperFunction*%
%TD*%
%TA.AperFunction,Conductor*%
%TO.N,/USB_5V*%
G36*
X3666649Y-10458418D02*
G01*
X3672968Y-10464763D01*
X3673557Y-10471816D01*
X3512073Y-11180898D01*
X3506895Y-11188204D01*
X3500665Y-11190000D01*
X3019335Y-11190000D01*
X3011062Y-11186573D01*
X3007927Y-11180898D01*
X2846442Y-10471816D01*
X2847946Y-10462988D01*
X2853349Y-10458418D01*
X3255501Y-10290873D01*
X3264452Y-10290855D01*
X3666649Y-10458418D01*
G37*
%TD.AperFunction*%
%TD*%
%TA.AperFunction,Conductor*%
%TO.N,/USB_5V*%
G36*
X4318282Y-15791798D02*
G01*
X4933866Y-16179007D01*
X4939044Y-16186313D01*
X4938455Y-16193366D01*
X4772563Y-16596199D01*
X4766244Y-16602544D01*
X4766199Y-16602563D01*
X4363366Y-16768455D01*
X4354411Y-16768436D01*
X4349007Y-16763866D01*
X3961798Y-16148282D01*
X3960294Y-16139454D01*
X3963427Y-16133781D01*
X4303780Y-15793428D01*
X4312052Y-15790002D01*
X4318282Y-15791798D01*
G37*
%TD.AperFunction*%
%TD*%
%TA.AperFunction,Conductor*%
%TO.N,Net-(USB1-DN1)*%
G36*
X1270477Y-12031279D02*
G01*
X1276786Y-12037635D01*
X1276876Y-12046283D01*
X1127889Y-12432511D01*
X1121714Y-12438996D01*
X1116973Y-12440000D01*
X983027Y-12440000D01*
X974754Y-12436573D01*
X972111Y-12432511D01*
X823123Y-12046281D01*
X823343Y-12037331D01*
X829520Y-12031280D01*
X1045484Y-11940889D01*
X1054437Y-11940857D01*
X1270477Y-12031279D01*
G37*
%TD.AperFunction*%
%TD*%
%TA.AperFunction,Conductor*%
%TO.N,Net-(USB1-DN1)*%
G36*
X1125295Y-12451437D02*
G01*
X1127914Y-12455436D01*
X1279276Y-12841195D01*
X1279107Y-12850149D01*
X1272901Y-12856262D01*
X1057002Y-12946625D01*
X1048048Y-12946658D01*
X1047968Y-12946625D01*
X831956Y-12856215D01*
X825647Y-12849859D01*
X825536Y-12841265D01*
X972133Y-12455553D01*
X978276Y-12449037D01*
X983070Y-12448010D01*
X1117022Y-12448010D01*
X1125295Y-12451437D01*
G37*
%TD.AperFunction*%
%TD*%
M02*
