%TF.GenerationSoftware,KiCad,Pcbnew,8.0.4*%
%TF.CreationDate,2024-09-04T11:41:35+08:00*%
%TF.ProjectId,UINIO-MCU-RP2040,55494e49-4f2d-44d4-9355-2d5250323034,Version 3.0.0*%
%TF.SameCoordinates,PX73394ecPY5396ed0*%
%TF.FileFunction,Soldermask,Bot*%
%TF.FilePolarity,Negative*%
%FSLAX46Y46*%
G04 Gerber Fmt 4.6, Leading zero omitted, Abs format (unit mm)*
G04 Created by KiCad (PCBNEW 8.0.4) date 2024-09-04 11:41:35*
%MOMM*%
%LPD*%
G01*
G04 APERTURE LIST*
%ADD10C,2.200000*%
%ADD11C,0.650000*%
%ADD12O,2.100000X1.000000*%
%ADD13O,1.900000X1.000000*%
%ADD14R,1.700000X1.700000*%
%ADD15O,1.700000X1.700000*%
G04 APERTURE END LIST*
D10*
%TO.C,HOLE\u002A\u002A*%
X-1780000Y-22230000D03*
%TD*%
%TO.C,HOLE\u002A\u002A*%
X-1780000Y-3160000D03*
%TD*%
%TO.C,HOLE\u002A\u002A*%
X53630000Y-3160000D03*
%TD*%
%TO.C,HOLE\u002A\u002A*%
X53630000Y-22240000D03*
%TD*%
D11*
%TO.C,USB1*%
X639000Y-9800000D03*
X639000Y-15580000D03*
D12*
X1139000Y-8365000D03*
X1139000Y-17015000D03*
D13*
X-3061000Y-8365000D03*
X-3061000Y-17015000D03*
%TD*%
D14*
%TO.C,J3*%
X55550000Y-8895000D03*
D15*
X55550000Y-11435000D03*
X55550000Y-13975000D03*
X55550000Y-16515000D03*
%TD*%
D14*
%TO.C,J2*%
X1800000Y-1340000D03*
D15*
X4340000Y-1340000D03*
X6880000Y-1340000D03*
X9420000Y-1340000D03*
X11960000Y-1340000D03*
X14500000Y-1340000D03*
X17040000Y-1340000D03*
X19580000Y-1340000D03*
X22120000Y-1340000D03*
X24660000Y-1340000D03*
X27200000Y-1340000D03*
X29740000Y-1340000D03*
X32280000Y-1340000D03*
X34820000Y-1340000D03*
X37360000Y-1340000D03*
X39900000Y-1340000D03*
X42440000Y-1340000D03*
X44980000Y-1340000D03*
X47520000Y-1340000D03*
X50060000Y-1340000D03*
%TD*%
D14*
%TO.C,J1*%
X1800000Y-24060000D03*
D15*
X4340000Y-24060000D03*
X6880000Y-24060000D03*
X9420000Y-24060000D03*
X11960000Y-24060000D03*
X14500000Y-24060000D03*
X17040000Y-24060000D03*
X19580000Y-24060000D03*
X22120000Y-24060000D03*
X24660000Y-24060000D03*
X27200000Y-24060000D03*
X29740000Y-24060000D03*
X32280000Y-24060000D03*
X34820000Y-24060000D03*
X37360000Y-24060000D03*
X39900000Y-24060000D03*
X42440000Y-24060000D03*
X44980000Y-24060000D03*
X47520000Y-24060000D03*
X50060000Y-24060000D03*
%TD*%
M02*
