%TF.GenerationSoftware,KiCad,Pcbnew,7.0.11*%
%TF.CreationDate,2024-04-18T21:43:45+08:00*%
%TF.ProjectId,UINIO-MCU-RP2040,55494e49-4f2d-44d4-9355-2d5250323034,Version 2.2.0*%
%TF.SameCoordinates,PX73394ecPY5396ed0*%
%TF.FileFunction,Legend,Bot*%
%TF.FilePolarity,Positive*%
%FSLAX46Y46*%
G04 Gerber Fmt 4.6, Leading zero omitted, Abs format (unit mm)*
G04 Created by KiCad (PCBNEW 7.0.11) date 2024-04-18 21:43:45*
%MOMM*%
%LPD*%
G01*
G04 APERTURE LIST*
%ADD10C,0.300000*%
%ADD11C,0.325000*%
%ADD12C,0.100000*%
%ADD13C,0.650000*%
%ADD14O,2.100000X1.000000*%
%ADD15O,1.900000X1.000000*%
%ADD16R,1.700000X1.700000*%
%ADD17O,1.700000X1.700000*%
%ADD18C,2.200000*%
G04 APERTURE END LIST*
D10*
G36*
X26637983Y-15016585D02*
G01*
X26687414Y-15024648D01*
X26731452Y-15038086D01*
X26770097Y-15056899D01*
X26803351Y-15081088D01*
X26831212Y-15110652D01*
X26853680Y-15145591D01*
X26870756Y-15185905D01*
X26882440Y-15231595D01*
X26888731Y-15282660D01*
X26889929Y-15319689D01*
X26889929Y-17121225D01*
X26887233Y-17175873D01*
X26879144Y-17225146D01*
X26865663Y-17269044D01*
X26846790Y-17307567D01*
X26822524Y-17340714D01*
X26792865Y-17368486D01*
X26757815Y-17390883D01*
X26717372Y-17407905D01*
X26671536Y-17419551D01*
X26620308Y-17425822D01*
X26583160Y-17427017D01*
X25626705Y-17427017D01*
X25571882Y-17424329D01*
X25522452Y-17416266D01*
X25478413Y-17402828D01*
X25439768Y-17384015D01*
X25406514Y-17359826D01*
X25378654Y-17330262D01*
X25356185Y-17295323D01*
X25339109Y-17255009D01*
X25327426Y-17209319D01*
X25321134Y-17158254D01*
X25319936Y-17121225D01*
X25319936Y-15319689D01*
X25322632Y-15265041D01*
X25330721Y-15215768D01*
X25344202Y-15171870D01*
X25363075Y-15133347D01*
X25387341Y-15100200D01*
X25417000Y-15072428D01*
X25452050Y-15050031D01*
X25492494Y-15033009D01*
X25538329Y-15021363D01*
X25589557Y-15015092D01*
X25626705Y-15013897D01*
X26583160Y-15013897D01*
X26637983Y-15016585D01*
G37*
G36*
X34717821Y-14988588D02*
G01*
X34757113Y-14997655D01*
X34797728Y-15017490D01*
X34828898Y-15046771D01*
X34850622Y-15085497D01*
X34861201Y-15123278D01*
X34865735Y-15167104D01*
X34865924Y-15179005D01*
X34865924Y-16304476D01*
X34862901Y-16350043D01*
X34853833Y-16389534D01*
X34833998Y-16430354D01*
X34804718Y-16461681D01*
X34765992Y-16483515D01*
X34728211Y-16494147D01*
X34684384Y-16498704D01*
X34672483Y-16498894D01*
X33997396Y-16498894D01*
X33951829Y-16495856D01*
X33912338Y-16486743D01*
X33871518Y-16466807D01*
X33840191Y-16437379D01*
X33818357Y-16398457D01*
X33807725Y-16360485D01*
X33803169Y-16316438D01*
X33802979Y-16304476D01*
X33802979Y-15179005D01*
X33806016Y-15133668D01*
X33815130Y-15094375D01*
X33835065Y-15053760D01*
X33864493Y-15022591D01*
X33903415Y-15000867D01*
X33941387Y-14990288D01*
X33985435Y-14985754D01*
X33997396Y-14985565D01*
X34672483Y-14985565D01*
X34717821Y-14988588D01*
G37*
G36*
X41670430Y-18849388D02*
G01*
X11925758Y-18849388D01*
X11925758Y-18221294D01*
X12497187Y-18221294D01*
X13571855Y-18221294D01*
X13571855Y-15319689D01*
X13574551Y-15265041D01*
X13582640Y-15215768D01*
X13596121Y-15171870D01*
X13614995Y-15133347D01*
X13639260Y-15100200D01*
X13668919Y-15072428D01*
X13703970Y-15050031D01*
X13744413Y-15033009D01*
X13790248Y-15021363D01*
X13841476Y-15015092D01*
X13878624Y-15013897D01*
X14722727Y-15013897D01*
X14777550Y-15016585D01*
X14826981Y-15024648D01*
X14871019Y-15038086D01*
X14909665Y-15056899D01*
X14942918Y-15081088D01*
X14970779Y-15110652D01*
X14993247Y-15145591D01*
X15010323Y-15185905D01*
X15022007Y-15231595D01*
X15028298Y-15282660D01*
X15029496Y-15319689D01*
X15029496Y-18221294D01*
X16104165Y-18221294D01*
X16104165Y-17427017D01*
X16890627Y-17427017D01*
X16890627Y-18277959D01*
X17937940Y-18277959D01*
X17937940Y-17427017D01*
X16890627Y-17427017D01*
X16104165Y-17427017D01*
X16104165Y-17152488D01*
X16468575Y-17152488D01*
X17937940Y-17152488D01*
X17937940Y-14219620D01*
X18427403Y-14219620D01*
X18427403Y-17264839D01*
X19356503Y-17264839D01*
X19408282Y-17003988D01*
X19451794Y-17031606D01*
X19496233Y-17058038D01*
X19541599Y-17083286D01*
X19587892Y-17107348D01*
X19635113Y-17130226D01*
X19683261Y-17151919D01*
X19732337Y-17172427D01*
X19782340Y-17191750D01*
X19833270Y-17209888D01*
X19885128Y-17226840D01*
X19920215Y-17237484D01*
X19972574Y-17252325D01*
X20023404Y-17265706D01*
X20072706Y-17277627D01*
X20120479Y-17288088D01*
X20166724Y-17297090D01*
X20211440Y-17304632D01*
X20254629Y-17310714D01*
X20296288Y-17315337D01*
X20336419Y-17318499D01*
X20387550Y-17320446D01*
X20399908Y-17320527D01*
X20652944Y-17320527D01*
X20701792Y-17319588D01*
X20749420Y-17316771D01*
X20795826Y-17312077D01*
X20841011Y-17305506D01*
X20884974Y-17297056D01*
X20927717Y-17286730D01*
X20969238Y-17274525D01*
X21009538Y-17260443D01*
X21048617Y-17244483D01*
X21086475Y-17226646D01*
X21123111Y-17206931D01*
X21158526Y-17185338D01*
X21192720Y-17161868D01*
X21225693Y-17136520D01*
X21257445Y-17109295D01*
X21287975Y-17080192D01*
X21317078Y-17049661D01*
X21344304Y-17017910D01*
X21369651Y-16984937D01*
X21393122Y-16950743D01*
X21414714Y-16915328D01*
X21434429Y-16878691D01*
X21452267Y-16840834D01*
X21468226Y-16801755D01*
X21482309Y-16761455D01*
X21494513Y-16719934D01*
X21504840Y-16677191D01*
X21513289Y-16633227D01*
X21519861Y-16588042D01*
X21524555Y-16541636D01*
X21527371Y-16494009D01*
X21528310Y-16445160D01*
X21528310Y-14219620D01*
X21839964Y-14219620D01*
X21839964Y-15069585D01*
X22346035Y-15069585D01*
X22346035Y-17371329D01*
X21839964Y-17371329D01*
X21839964Y-18221294D01*
X23927752Y-18221294D01*
X23927752Y-17371329D01*
X23421681Y-17371329D01*
X23421681Y-17121225D01*
X24244291Y-17121225D01*
X24245371Y-17195299D01*
X24248611Y-17266824D01*
X24254011Y-17335799D01*
X24261571Y-17402226D01*
X24271291Y-17466103D01*
X24283171Y-17527431D01*
X24297211Y-17586209D01*
X24313411Y-17642439D01*
X24331771Y-17696119D01*
X24352292Y-17747249D01*
X24374972Y-17795831D01*
X24399812Y-17841863D01*
X24426812Y-17885346D01*
X24455973Y-17926279D01*
X24487293Y-17964664D01*
X24520773Y-18000499D01*
X24556727Y-18034097D01*
X24595222Y-18065528D01*
X24636258Y-18094792D01*
X24679837Y-18121887D01*
X24725957Y-18146816D01*
X24774618Y-18169576D01*
X24825821Y-18190169D01*
X24879566Y-18208594D01*
X24935853Y-18224851D01*
X24994681Y-18238941D01*
X25056051Y-18250863D01*
X25119962Y-18260617D01*
X25186415Y-18268204D01*
X25255410Y-18273623D01*
X25326947Y-18276875D01*
X25401025Y-18277959D01*
X26807864Y-18277959D01*
X26882056Y-18276875D01*
X26953692Y-18273623D01*
X27022770Y-18268204D01*
X27089292Y-18260617D01*
X27153257Y-18250863D01*
X27214665Y-18238941D01*
X27273516Y-18224851D01*
X27329810Y-18208594D01*
X27383548Y-18190169D01*
X27434728Y-18169576D01*
X27483351Y-18146816D01*
X27529418Y-18121887D01*
X27572928Y-18094792D01*
X27613880Y-18065528D01*
X27652276Y-18034097D01*
X27688115Y-18000499D01*
X27721595Y-17964664D01*
X27752915Y-17926279D01*
X27782076Y-17885346D01*
X27809076Y-17841863D01*
X27833916Y-17795831D01*
X27856596Y-17747249D01*
X27877117Y-17696119D01*
X27895477Y-17642439D01*
X27911677Y-17586209D01*
X27925717Y-17527431D01*
X27937597Y-17466103D01*
X27947317Y-17402226D01*
X27954878Y-17335799D01*
X27960278Y-17266824D01*
X27963518Y-17195299D01*
X27964598Y-17121225D01*
X27964598Y-16332809D01*
X29676251Y-16332809D01*
X29677221Y-16386424D01*
X29680129Y-16438581D01*
X29684976Y-16489281D01*
X29691761Y-16538522D01*
X29700485Y-16586306D01*
X29711148Y-16632632D01*
X29723749Y-16677500D01*
X29738289Y-16720910D01*
X29754768Y-16762863D01*
X29773185Y-16803358D01*
X29793541Y-16842395D01*
X29815836Y-16879974D01*
X29840070Y-16916095D01*
X29866242Y-16950758D01*
X29894353Y-16983964D01*
X29924402Y-17015712D01*
X29956268Y-17045879D01*
X29989585Y-17074101D01*
X30024351Y-17100376D01*
X30060568Y-17124705D01*
X30098234Y-17147088D01*
X30137351Y-17167524D01*
X30177919Y-17186014D01*
X30219936Y-17202557D01*
X30263404Y-17217155D01*
X30308321Y-17229806D01*
X30354689Y-17240510D01*
X30402508Y-17249269D01*
X30451776Y-17256081D01*
X30502495Y-17260947D01*
X30554663Y-17263866D01*
X30608282Y-17264839D01*
X32440104Y-17264839D01*
X32440104Y-16442229D01*
X30917982Y-16442229D01*
X30872416Y-16439207D01*
X30832925Y-16430139D01*
X30792105Y-16410304D01*
X30769818Y-16389473D01*
X32755665Y-16389473D01*
X32756635Y-16443088D01*
X32759543Y-16495245D01*
X32764389Y-16545945D01*
X32771175Y-16595186D01*
X32779899Y-16642970D01*
X32790562Y-16689296D01*
X32803163Y-16734164D01*
X32817703Y-16777575D01*
X32834182Y-16819527D01*
X32852599Y-16860022D01*
X32872955Y-16899059D01*
X32895250Y-16936638D01*
X32919484Y-16972759D01*
X32945656Y-17007423D01*
X32973767Y-17040628D01*
X33003816Y-17072376D01*
X33035682Y-17102425D01*
X33068998Y-17130536D01*
X33103765Y-17156708D01*
X33139981Y-17180942D01*
X33177648Y-17203237D01*
X33216765Y-17223593D01*
X33257332Y-17242010D01*
X33299350Y-17258489D01*
X33342817Y-17273029D01*
X33387735Y-17285630D01*
X33434103Y-17296293D01*
X33481921Y-17305017D01*
X33531190Y-17311803D01*
X33581908Y-17316649D01*
X33634077Y-17319557D01*
X33687696Y-17320527D01*
X34982183Y-17320527D01*
X35035798Y-17319557D01*
X35087956Y-17316649D01*
X35138655Y-17311803D01*
X35187897Y-17305017D01*
X35235680Y-17296293D01*
X35282006Y-17285630D01*
X35326875Y-17273029D01*
X35370285Y-17258489D01*
X35412238Y-17242010D01*
X35452732Y-17223593D01*
X35491769Y-17203237D01*
X35529348Y-17180942D01*
X35565469Y-17156708D01*
X35600133Y-17130536D01*
X35633338Y-17102425D01*
X35665086Y-17072376D01*
X35695136Y-17040628D01*
X35723246Y-17007423D01*
X35749419Y-16972759D01*
X35773652Y-16936638D01*
X35795947Y-16899059D01*
X35816303Y-16860022D01*
X35834720Y-16819527D01*
X35851199Y-16777575D01*
X35865739Y-16734164D01*
X35878341Y-16689296D01*
X35889003Y-16642970D01*
X35897727Y-16595186D01*
X35904513Y-16545945D01*
X35909359Y-16495245D01*
X35912268Y-16443088D01*
X35913237Y-16389473D01*
X35913237Y-15094986D01*
X35912268Y-15041367D01*
X35909359Y-14989198D01*
X35904513Y-14938480D01*
X35897727Y-14889211D01*
X35889003Y-14841393D01*
X35878341Y-14795025D01*
X35865739Y-14750107D01*
X35851199Y-14706640D01*
X35834720Y-14664622D01*
X35816303Y-14624055D01*
X35795947Y-14584938D01*
X35773652Y-14547271D01*
X35749419Y-14511055D01*
X35723246Y-14476288D01*
X35695136Y-14442972D01*
X35665086Y-14411106D01*
X35633338Y-14381056D01*
X35600133Y-14352946D01*
X35565469Y-14326773D01*
X35529348Y-14302540D01*
X35491769Y-14280245D01*
X35452732Y-14259889D01*
X35412238Y-14241472D01*
X35370285Y-14224993D01*
X35354244Y-14219620D01*
X36337242Y-14219620D01*
X36337242Y-17264839D01*
X37266342Y-17264839D01*
X37318122Y-17003988D01*
X37361633Y-17031606D01*
X37406072Y-17058038D01*
X37451438Y-17083286D01*
X37497732Y-17107348D01*
X37544953Y-17130226D01*
X37593101Y-17151919D01*
X37642177Y-17172427D01*
X37692180Y-17191750D01*
X37743110Y-17209888D01*
X37794968Y-17226840D01*
X37830055Y-17237484D01*
X37882413Y-17252325D01*
X37933243Y-17265706D01*
X37982545Y-17277627D01*
X38030319Y-17288088D01*
X38076563Y-17297090D01*
X38121280Y-17304632D01*
X38164468Y-17310714D01*
X38206128Y-17315337D01*
X38246259Y-17318499D01*
X38297390Y-17320446D01*
X38309748Y-17320527D01*
X38366412Y-17320527D01*
X38424374Y-17319256D01*
X38480534Y-17315443D01*
X38534894Y-17309089D01*
X38587452Y-17300193D01*
X38638208Y-17288756D01*
X38687164Y-17274777D01*
X38734318Y-17258256D01*
X38779671Y-17239194D01*
X38823222Y-17217590D01*
X38864973Y-17193444D01*
X38904922Y-17166757D01*
X38943069Y-17137528D01*
X38979416Y-17105757D01*
X39013961Y-17071445D01*
X39046705Y-17034591D01*
X39077647Y-16995195D01*
X39122928Y-17024550D01*
X39169376Y-17052531D01*
X39216992Y-17079138D01*
X39265775Y-17104372D01*
X39315727Y-17128231D01*
X39366846Y-17150717D01*
X39419133Y-17171829D01*
X39472588Y-17191566D01*
X39527210Y-17209930D01*
X39583001Y-17226921D01*
X39620843Y-17237484D01*
X39658812Y-17247540D01*
X39714805Y-17261408D01*
X39769648Y-17273815D01*
X39823341Y-17284763D01*
X39875882Y-17294252D01*
X39927274Y-17302280D01*
X39977514Y-17308849D01*
X40026604Y-17313958D01*
X40074543Y-17317607D01*
X40121332Y-17319797D01*
X40166970Y-17320527D01*
X40223635Y-17320527D01*
X40272369Y-17319588D01*
X40319897Y-17316771D01*
X40366219Y-17312077D01*
X40411335Y-17305506D01*
X40455246Y-17297056D01*
X40497950Y-17286730D01*
X40539448Y-17274525D01*
X40579741Y-17260443D01*
X40618827Y-17244483D01*
X40656708Y-17226646D01*
X40693382Y-17206931D01*
X40728851Y-17185338D01*
X40763114Y-17161868D01*
X40796170Y-17136520D01*
X40828021Y-17109295D01*
X40858666Y-17080192D01*
X40887769Y-17049661D01*
X40914995Y-17017910D01*
X40940342Y-16984937D01*
X40963813Y-16950743D01*
X40985405Y-16915328D01*
X41005120Y-16878691D01*
X41022957Y-16840834D01*
X41038917Y-16801755D01*
X41052999Y-16761455D01*
X41065204Y-16719934D01*
X41075531Y-16677191D01*
X41083980Y-16633227D01*
X41090552Y-16588042D01*
X41095246Y-16541636D01*
X41098062Y-16494009D01*
X41099001Y-16445160D01*
X41099001Y-14219620D01*
X40051688Y-14219620D01*
X40051688Y-16277121D01*
X40047013Y-16319310D01*
X40032988Y-16356729D01*
X40009613Y-16389378D01*
X40003816Y-16395335D01*
X39972122Y-16420064D01*
X39935657Y-16435635D01*
X39894422Y-16442046D01*
X39885603Y-16442229D01*
X39857270Y-16442229D01*
X39809528Y-16441311D01*
X39759726Y-16438554D01*
X39707862Y-16433960D01*
X39653938Y-16427529D01*
X39597953Y-16419260D01*
X39539907Y-16409154D01*
X39500065Y-16401395D01*
X39459307Y-16392820D01*
X39417633Y-16383428D01*
X39375043Y-16373219D01*
X39331538Y-16362194D01*
X39287116Y-16350352D01*
X39241778Y-16337693D01*
X39241778Y-14219620D01*
X38194465Y-14219620D01*
X38194465Y-16277121D01*
X38189885Y-16319310D01*
X38176147Y-16356729D01*
X38153249Y-16389378D01*
X38147570Y-16395335D01*
X38115781Y-16420064D01*
X38079030Y-16435635D01*
X38037318Y-16442046D01*
X38028380Y-16442229D01*
X38000048Y-16442229D01*
X37952306Y-16441311D01*
X37902503Y-16438554D01*
X37850640Y-16433960D01*
X37796716Y-16427529D01*
X37740731Y-16419260D01*
X37682685Y-16409154D01*
X37642843Y-16401395D01*
X37602085Y-16392820D01*
X37560411Y-16383428D01*
X37517821Y-16373219D01*
X37474315Y-16362194D01*
X37429893Y-16350352D01*
X37384556Y-16337693D01*
X37384556Y-14219620D01*
X36337242Y-14219620D01*
X35354244Y-14219620D01*
X35326875Y-14210453D01*
X35282006Y-14197851D01*
X35235680Y-14187189D01*
X35187897Y-14178465D01*
X35138655Y-14171679D01*
X35087956Y-14166833D01*
X35035798Y-14163924D01*
X34982183Y-14162955D01*
X33687696Y-14162955D01*
X33634077Y-14163924D01*
X33581908Y-14166833D01*
X33531190Y-14171679D01*
X33481921Y-14178465D01*
X33434103Y-14187189D01*
X33387735Y-14197851D01*
X33342817Y-14210453D01*
X33299350Y-14224993D01*
X33257332Y-14241472D01*
X33216765Y-14259889D01*
X33177648Y-14280245D01*
X33139981Y-14302540D01*
X33103765Y-14326773D01*
X33068998Y-14352946D01*
X33035682Y-14381056D01*
X33003816Y-14411106D01*
X32973767Y-14442972D01*
X32945656Y-14476288D01*
X32919484Y-14511055D01*
X32895250Y-14547271D01*
X32872955Y-14584938D01*
X32852599Y-14624055D01*
X32834182Y-14664622D01*
X32817703Y-14706640D01*
X32803163Y-14750107D01*
X32790562Y-14795025D01*
X32779899Y-14841393D01*
X32771175Y-14889211D01*
X32764389Y-14938480D01*
X32759543Y-14989198D01*
X32756635Y-15041367D01*
X32755665Y-15094986D01*
X32755665Y-16304476D01*
X32755665Y-16389473D01*
X30769818Y-16389473D01*
X30760778Y-16381024D01*
X30738944Y-16342298D01*
X30728311Y-16304517D01*
X30723755Y-16260690D01*
X30723565Y-16248789D01*
X30723565Y-15151650D01*
X30728144Y-15108946D01*
X30741883Y-15071203D01*
X30764781Y-15038421D01*
X30770459Y-15032460D01*
X30802669Y-15007730D01*
X30839458Y-14992160D01*
X30880827Y-14985748D01*
X30889650Y-14985565D01*
X30954897Y-14985905D01*
X31024365Y-14986924D01*
X31098054Y-14988622D01*
X31175964Y-14990999D01*
X31216501Y-14992443D01*
X31258094Y-14994056D01*
X31300742Y-14995839D01*
X31344445Y-14997792D01*
X31389204Y-14999915D01*
X31435018Y-15002208D01*
X31481886Y-15004670D01*
X31529810Y-15007303D01*
X31578790Y-15010105D01*
X31628824Y-15013077D01*
X31679914Y-15016219D01*
X31732059Y-15019530D01*
X31785259Y-15023012D01*
X31839514Y-15026663D01*
X31894825Y-15030484D01*
X31951190Y-15034475D01*
X32008611Y-15038635D01*
X32067087Y-15042966D01*
X32126619Y-15047466D01*
X32187205Y-15052137D01*
X32248847Y-15056977D01*
X32311544Y-15061986D01*
X32375296Y-15067166D01*
X32440104Y-15072516D01*
X32440104Y-14279215D01*
X32372777Y-14272062D01*
X32305988Y-14265136D01*
X32239734Y-14258438D01*
X32174016Y-14251966D01*
X32108835Y-14245722D01*
X32044190Y-14239705D01*
X31980081Y-14233914D01*
X31916508Y-14228351D01*
X31853471Y-14223015D01*
X31790971Y-14217906D01*
X31729007Y-14213024D01*
X31667579Y-14208369D01*
X31606687Y-14203941D01*
X31546331Y-14199740D01*
X31486512Y-14195767D01*
X31427228Y-14192020D01*
X31368481Y-14188500D01*
X31310270Y-14185208D01*
X31252596Y-14182143D01*
X31195457Y-14179304D01*
X31138855Y-14176693D01*
X31082789Y-14174309D01*
X31027259Y-14172151D01*
X30972265Y-14170221D01*
X30917808Y-14168518D01*
X30863886Y-14167042D01*
X30810501Y-14165794D01*
X30757652Y-14164772D01*
X30705339Y-14163977D01*
X30653563Y-14163409D01*
X30602322Y-14163069D01*
X30551618Y-14162955D01*
X30502884Y-14163894D01*
X30455356Y-14166710D01*
X30409033Y-14171404D01*
X30363917Y-14177976D01*
X30320007Y-14186425D01*
X30277303Y-14196752D01*
X30235804Y-14208957D01*
X30195512Y-14223039D01*
X30156425Y-14238999D01*
X30118545Y-14256836D01*
X30081870Y-14276551D01*
X30046402Y-14298144D01*
X30012139Y-14321614D01*
X29979082Y-14346962D01*
X29947231Y-14374187D01*
X29916586Y-14403290D01*
X29887483Y-14433935D01*
X29860258Y-14465786D01*
X29834910Y-14498843D01*
X29811440Y-14533105D01*
X29789847Y-14568574D01*
X29770132Y-14605248D01*
X29752295Y-14643129D01*
X29736335Y-14682215D01*
X29722253Y-14722508D01*
X29710049Y-14764006D01*
X29699722Y-14806711D01*
X29691272Y-14850621D01*
X29684701Y-14895737D01*
X29680007Y-14942059D01*
X29677190Y-14989587D01*
X29676251Y-15038322D01*
X29676251Y-16332809D01*
X27964598Y-16332809D01*
X27964598Y-15319689D01*
X27963518Y-15245611D01*
X27960278Y-15174075D01*
X27954878Y-15105080D01*
X27947317Y-15038627D01*
X27937597Y-14974715D01*
X27925717Y-14913346D01*
X27911677Y-14854517D01*
X27895477Y-14798231D01*
X27877117Y-14744486D01*
X27856596Y-14693283D01*
X27833916Y-14644621D01*
X27809076Y-14598501D01*
X27782076Y-14554923D01*
X27752915Y-14513886D01*
X27721595Y-14475391D01*
X27688115Y-14439438D01*
X27652276Y-14405958D01*
X27613880Y-14374637D01*
X27572928Y-14345477D01*
X27529418Y-14318477D01*
X27483351Y-14293637D01*
X27434728Y-14270956D01*
X27383548Y-14250436D01*
X27329810Y-14232076D01*
X27286526Y-14219620D01*
X28276251Y-14219620D01*
X28276251Y-15126249D01*
X29351897Y-15126249D01*
X29351897Y-14219620D01*
X28276251Y-14219620D01*
X27286526Y-14219620D01*
X27273516Y-14215876D01*
X27214665Y-14201836D01*
X27153257Y-14189955D01*
X27089292Y-14180235D01*
X27022770Y-14172675D01*
X26953692Y-14167275D01*
X26882056Y-14164035D01*
X26807864Y-14162955D01*
X25401025Y-14162955D01*
X25326947Y-14164035D01*
X25255410Y-14167275D01*
X25186415Y-14172675D01*
X25119962Y-14180235D01*
X25056051Y-14189955D01*
X24994681Y-14201836D01*
X24935853Y-14215876D01*
X24879566Y-14232076D01*
X24825821Y-14250436D01*
X24774618Y-14270956D01*
X24725957Y-14293637D01*
X24679837Y-14318477D01*
X24636258Y-14345477D01*
X24595222Y-14374637D01*
X24556727Y-14405958D01*
X24520773Y-14439438D01*
X24487293Y-14475391D01*
X24455973Y-14513886D01*
X24426812Y-14554923D01*
X24399812Y-14598501D01*
X24374972Y-14644621D01*
X24352292Y-14693283D01*
X24331771Y-14744486D01*
X24313411Y-14798231D01*
X24297211Y-14854517D01*
X24283171Y-14913346D01*
X24271291Y-14974715D01*
X24261571Y-15038627D01*
X24254011Y-15105080D01*
X24248611Y-15174075D01*
X24245371Y-15245611D01*
X24244291Y-15319689D01*
X24244291Y-17121225D01*
X23421681Y-17121225D01*
X23421681Y-15069585D01*
X23927752Y-15069585D01*
X23927752Y-14219620D01*
X21839964Y-14219620D01*
X21528310Y-14219620D01*
X20480997Y-14219620D01*
X20480997Y-16277121D01*
X20476417Y-16319310D01*
X20462679Y-16356729D01*
X20439781Y-16389378D01*
X20434102Y-16395335D01*
X20402408Y-16420064D01*
X20365943Y-16435635D01*
X20324708Y-16442046D01*
X20315889Y-16442229D01*
X20118540Y-16442229D01*
X20063079Y-16441311D01*
X20006605Y-16438554D01*
X19949117Y-16433960D01*
X19910229Y-16429877D01*
X19870891Y-16424977D01*
X19831102Y-16419260D01*
X19790863Y-16412727D01*
X19750174Y-16405376D01*
X19709034Y-16397210D01*
X19667444Y-16388226D01*
X19625404Y-16378426D01*
X19582913Y-16367809D01*
X19539972Y-16356375D01*
X19496581Y-16344125D01*
X19474716Y-16337693D01*
X19474716Y-14219620D01*
X18427403Y-14219620D01*
X17937940Y-14219620D01*
X16890627Y-14219620D01*
X16890627Y-16329878D01*
X16468575Y-16329878D01*
X16468575Y-17152488D01*
X16104165Y-17152488D01*
X16104165Y-15319689D01*
X16103085Y-15245611D01*
X16099845Y-15174075D01*
X16094445Y-15105080D01*
X16086885Y-15038627D01*
X16077165Y-14974715D01*
X16065285Y-14913346D01*
X16051244Y-14854517D01*
X16035044Y-14798231D01*
X16016684Y-14744486D01*
X15996164Y-14693283D01*
X15973484Y-14644621D01*
X15948643Y-14598501D01*
X15921643Y-14554923D01*
X15892483Y-14513886D01*
X15861162Y-14475391D01*
X15827682Y-14439438D01*
X15791843Y-14405958D01*
X15753448Y-14374637D01*
X15712495Y-14345477D01*
X15668985Y-14318477D01*
X15622919Y-14293637D01*
X15574295Y-14270956D01*
X15523115Y-14250436D01*
X15469378Y-14232076D01*
X15413084Y-14215876D01*
X15354233Y-14201836D01*
X15292825Y-14189955D01*
X15228860Y-14180235D01*
X15162338Y-14172675D01*
X15093259Y-14167275D01*
X15021623Y-14164035D01*
X14947431Y-14162955D01*
X13653921Y-14162955D01*
X13579728Y-14164035D01*
X13508092Y-14167275D01*
X13439014Y-14172675D01*
X13372492Y-14180235D01*
X13308527Y-14189955D01*
X13247119Y-14201836D01*
X13188268Y-14215876D01*
X13131974Y-14232076D01*
X13078237Y-14250436D01*
X13027056Y-14270956D01*
X12978433Y-14293637D01*
X12932366Y-14318477D01*
X12888857Y-14345477D01*
X12847904Y-14374637D01*
X12809508Y-14405958D01*
X12773670Y-14439438D01*
X12740189Y-14475391D01*
X12708869Y-14513886D01*
X12679709Y-14554923D01*
X12652708Y-14598501D01*
X12627868Y-14644621D01*
X12605188Y-14693283D01*
X12584668Y-14744486D01*
X12566307Y-14798231D01*
X12550107Y-14854517D01*
X12536067Y-14913346D01*
X12524187Y-14974715D01*
X12514467Y-15038627D01*
X12506907Y-15105080D01*
X12501507Y-15174075D01*
X12498267Y-15245611D01*
X12497187Y-15319689D01*
X12497187Y-18221294D01*
X11925758Y-18221294D01*
X11925758Y-13591526D01*
X41670430Y-13591526D01*
X41670430Y-18849388D01*
G37*
D11*
G36*
X21009001Y-6701747D02*
G01*
X21343760Y-7666702D01*
X21727759Y-7666702D01*
X21205958Y-6288000D01*
X20812043Y-6288000D01*
X20289901Y-7666702D01*
X20674242Y-7666702D01*
X21009001Y-6701747D01*
G37*
G36*
X22035424Y-6268206D02*
G01*
X22054971Y-6268322D01*
X22074656Y-6268516D01*
X22094479Y-6268787D01*
X22114439Y-6269135D01*
X22134536Y-6269561D01*
X22154772Y-6270065D01*
X22175144Y-6270646D01*
X22195655Y-6271305D01*
X22216303Y-6272041D01*
X22237088Y-6272854D01*
X22258011Y-6273745D01*
X22279072Y-6274713D01*
X22300270Y-6275759D01*
X22321606Y-6276882D01*
X22343080Y-6278083D01*
X22364691Y-6279362D01*
X22386439Y-6280717D01*
X22408325Y-6282150D01*
X22430349Y-6283661D01*
X22452510Y-6285249D01*
X22474809Y-6286915D01*
X22497246Y-6288658D01*
X22519820Y-6290479D01*
X22542531Y-6292377D01*
X22565381Y-6294352D01*
X22588367Y-6296405D01*
X22611492Y-6298536D01*
X22634754Y-6300743D01*
X22658153Y-6303029D01*
X22681690Y-6305392D01*
X22705365Y-6307832D01*
X22705365Y-6554029D01*
X22682034Y-6552199D01*
X22659056Y-6550426D01*
X22636433Y-6548712D01*
X22614163Y-6547056D01*
X22592248Y-6545459D01*
X22570686Y-6543919D01*
X22549478Y-6542437D01*
X22528625Y-6541014D01*
X22508125Y-6539648D01*
X22487979Y-6538341D01*
X22468188Y-6537092D01*
X22448750Y-6535901D01*
X22429666Y-6534768D01*
X22410936Y-6533693D01*
X22392560Y-6532676D01*
X22374538Y-6531717D01*
X22356870Y-6530817D01*
X22339556Y-6529974D01*
X22322596Y-6529190D01*
X22305990Y-6528463D01*
X22289738Y-6527795D01*
X22273839Y-6527185D01*
X22258295Y-6526633D01*
X22243105Y-6526139D01*
X22228269Y-6525704D01*
X22213786Y-6525326D01*
X22199658Y-6525006D01*
X22185883Y-6524745D01*
X22159396Y-6524396D01*
X22134325Y-6524280D01*
X22125369Y-6524756D01*
X22110427Y-6528011D01*
X22096999Y-6534349D01*
X22085086Y-6543771D01*
X22078346Y-6551556D01*
X22070851Y-6564542D01*
X22066493Y-6579097D01*
X22065253Y-6593352D01*
X22065253Y-6671998D01*
X22745030Y-6671998D01*
X22745030Y-7036506D01*
X22744703Y-7054720D01*
X22743721Y-7072431D01*
X22742085Y-7089640D01*
X22739794Y-7106347D01*
X22736849Y-7122552D01*
X22733249Y-7138255D01*
X22728995Y-7153455D01*
X22724086Y-7168153D01*
X22718523Y-7182349D01*
X22712305Y-7196043D01*
X22705433Y-7209234D01*
X22697906Y-7221923D01*
X22689725Y-7234110D01*
X22680890Y-7245795D01*
X22671399Y-7256977D01*
X22661255Y-7267658D01*
X22650533Y-7277802D01*
X22639312Y-7287292D01*
X22627591Y-7296128D01*
X22615371Y-7304309D01*
X22602651Y-7311836D01*
X22589431Y-7318708D01*
X22575712Y-7324926D01*
X22561494Y-7330489D01*
X22546776Y-7335398D01*
X22531558Y-7339652D01*
X22515841Y-7343252D01*
X22499624Y-7346197D01*
X22482908Y-7348488D01*
X22465692Y-7350124D01*
X22447976Y-7351106D01*
X22429761Y-7351433D01*
X22035847Y-7351433D01*
X22017632Y-7351106D01*
X21999916Y-7350124D01*
X21982700Y-7348488D01*
X21965984Y-7346197D01*
X21949767Y-7343252D01*
X21934050Y-7339652D01*
X21918832Y-7335398D01*
X21904114Y-7330489D01*
X21889896Y-7324926D01*
X21876177Y-7318708D01*
X21862957Y-7311836D01*
X21850237Y-7304309D01*
X21838017Y-7296128D01*
X21826296Y-7287292D01*
X21815075Y-7277802D01*
X21804353Y-7267658D01*
X21794209Y-7256977D01*
X21784718Y-7245795D01*
X21775883Y-7234110D01*
X21767701Y-7221923D01*
X21760175Y-7209234D01*
X21753303Y-7196043D01*
X21747085Y-7182349D01*
X21741522Y-7168153D01*
X21736613Y-7153455D01*
X21732359Y-7138255D01*
X21728759Y-7122552D01*
X21725814Y-7106347D01*
X21723523Y-7089640D01*
X21721887Y-7072431D01*
X21720905Y-7054720D01*
X21720578Y-7036506D01*
X21720578Y-6918195D01*
X22065253Y-6918195D01*
X22065253Y-7026590D01*
X22065331Y-7031428D01*
X22067182Y-7049247D01*
X22071501Y-7064607D01*
X22078290Y-7077510D01*
X22087546Y-7087955D01*
X22099271Y-7095943D01*
X22113464Y-7101473D01*
X22130125Y-7104545D01*
X22144242Y-7105236D01*
X22321366Y-7105236D01*
X22326226Y-7105159D01*
X22344122Y-7103316D01*
X22359549Y-7099015D01*
X22372508Y-7092256D01*
X22382999Y-7083040D01*
X22391021Y-7071366D01*
X22396575Y-7057234D01*
X22399660Y-7040645D01*
X22400355Y-7026590D01*
X22400355Y-6918195D01*
X22065253Y-6918195D01*
X21720578Y-6918195D01*
X21720578Y-6563603D01*
X21720893Y-6547097D01*
X21721839Y-6531001D01*
X21723415Y-6515317D01*
X21725621Y-6500045D01*
X21728459Y-6485184D01*
X21731926Y-6470734D01*
X21736024Y-6456696D01*
X21740752Y-6443069D01*
X21746111Y-6429854D01*
X21752100Y-6417050D01*
X21758720Y-6404657D01*
X21765970Y-6392676D01*
X21773851Y-6381106D01*
X21782362Y-6369948D01*
X21791504Y-6359200D01*
X21801276Y-6348865D01*
X21811611Y-6339093D01*
X21822358Y-6329951D01*
X21833517Y-6321440D01*
X21845087Y-6313560D01*
X21857068Y-6306309D01*
X21869461Y-6299690D01*
X21882265Y-6293700D01*
X21895480Y-6288341D01*
X21909107Y-6283613D01*
X21923145Y-6279515D01*
X21937595Y-6276048D01*
X21952456Y-6273211D01*
X21967728Y-6271004D01*
X21983412Y-6269428D01*
X21999507Y-6268482D01*
X22016014Y-6268167D01*
X22035424Y-6268206D01*
G37*
G36*
X23516105Y-7046422D02*
G01*
X23500559Y-7046191D01*
X23484951Y-7045498D01*
X23469282Y-7044343D01*
X23453551Y-7042725D01*
X23437759Y-7040645D01*
X23421906Y-7038104D01*
X23405991Y-7035100D01*
X23390014Y-7031633D01*
X23373977Y-7027705D01*
X23357877Y-7023315D01*
X23341717Y-7018462D01*
X23325495Y-7013147D01*
X23309211Y-7007370D01*
X23292866Y-7001131D01*
X23276460Y-6994430D01*
X23259992Y-6987267D01*
X23259992Y-6288000D01*
X22915316Y-6288000D01*
X22915316Y-7331942D01*
X23220669Y-7331942D01*
X23240159Y-7203715D01*
X23250774Y-7212803D01*
X23261420Y-7221603D01*
X23282800Y-7238336D01*
X23304301Y-7253916D01*
X23325922Y-7268341D01*
X23347663Y-7281613D01*
X23369525Y-7293730D01*
X23391506Y-7304694D01*
X23413608Y-7314503D01*
X23435830Y-7323159D01*
X23458173Y-7330660D01*
X23480635Y-7337007D01*
X23503218Y-7342200D01*
X23525921Y-7346240D01*
X23548744Y-7349125D01*
X23571687Y-7350856D01*
X23594751Y-7351433D01*
X23683313Y-7351433D01*
X23683313Y-7046422D01*
X23516105Y-7046422D01*
G37*
G36*
X23777347Y-6563603D02*
G01*
X23802165Y-6561794D01*
X23826652Y-6560042D01*
X23850808Y-6558348D01*
X23874634Y-6556711D01*
X23898130Y-6555131D01*
X23921294Y-6553609D01*
X23944128Y-6552145D01*
X23966632Y-6550738D01*
X23988805Y-6549388D01*
X24010647Y-6548096D01*
X24032159Y-6546861D01*
X24053341Y-6545683D01*
X24074191Y-6544563D01*
X24094711Y-6543501D01*
X24114901Y-6542496D01*
X24134760Y-6541548D01*
X24154288Y-6540658D01*
X24173486Y-6539825D01*
X24192353Y-6539050D01*
X24210889Y-6538332D01*
X24229095Y-6537671D01*
X24246971Y-6537068D01*
X24264516Y-6536522D01*
X24281730Y-6536034D01*
X24298613Y-6535603D01*
X24315166Y-6535230D01*
X24331389Y-6534914D01*
X24347281Y-6534656D01*
X24362842Y-6534455D01*
X24378073Y-6534311D01*
X24392973Y-6534225D01*
X24407542Y-6534196D01*
X24421647Y-6535414D01*
X24436085Y-6539697D01*
X24449008Y-6547063D01*
X24456782Y-6553687D01*
X24466369Y-6565627D01*
X24472818Y-6579136D01*
X24475917Y-6592461D01*
X24476614Y-6603268D01*
X24476614Y-6671998D01*
X24052951Y-6671998D01*
X24036444Y-6672313D01*
X24020349Y-6673259D01*
X24004665Y-6674835D01*
X23989392Y-6677042D01*
X23974531Y-6679879D01*
X23960082Y-6683346D01*
X23946044Y-6687444D01*
X23932417Y-6692173D01*
X23919201Y-6697531D01*
X23906397Y-6703521D01*
X23894005Y-6710140D01*
X23882023Y-6717391D01*
X23870453Y-6725271D01*
X23859295Y-6733782D01*
X23848548Y-6742924D01*
X23838212Y-6752696D01*
X23828440Y-6763032D01*
X23819299Y-6773779D01*
X23810788Y-6784937D01*
X23802907Y-6796507D01*
X23795657Y-6808488D01*
X23789037Y-6820881D01*
X23783048Y-6833685D01*
X23777689Y-6846900D01*
X23772960Y-6860527D01*
X23768863Y-6874565D01*
X23765395Y-6889015D01*
X23762558Y-6903876D01*
X23760351Y-6919149D01*
X23758775Y-6934832D01*
X23757830Y-6950928D01*
X23757514Y-6967434D01*
X23757514Y-7036506D01*
X23757830Y-7053011D01*
X23758775Y-7069103D01*
X23760351Y-7084780D01*
X23762558Y-7100043D01*
X23765395Y-7114892D01*
X23768863Y-7129327D01*
X23772960Y-7143348D01*
X23777689Y-7156954D01*
X23783048Y-7170147D01*
X23789037Y-7182926D01*
X23795657Y-7195291D01*
X23802907Y-7207241D01*
X23810788Y-7218778D01*
X23819299Y-7229900D01*
X23828440Y-7240608D01*
X23838212Y-7250903D01*
X23848548Y-7260716D01*
X23859295Y-7269896D01*
X23870453Y-7278443D01*
X23882023Y-7286357D01*
X23894005Y-7293638D01*
X23906397Y-7300286D01*
X23919201Y-7306301D01*
X23932417Y-7311682D01*
X23946044Y-7316431D01*
X23960082Y-7320546D01*
X23974531Y-7324028D01*
X23989392Y-7326877D01*
X24004665Y-7329093D01*
X24020349Y-7330676D01*
X24036444Y-7331626D01*
X24052951Y-7331942D01*
X24722811Y-7331942D01*
X24722811Y-7075829D01*
X24171262Y-7075829D01*
X24157007Y-7074590D01*
X24142452Y-7070232D01*
X24129466Y-7062737D01*
X24121680Y-7055997D01*
X24112259Y-7044222D01*
X24105921Y-7030824D01*
X24102666Y-7015803D01*
X24102190Y-7006757D01*
X24103408Y-6992652D01*
X24107691Y-6978215D01*
X24115057Y-6965292D01*
X24121680Y-6957518D01*
X24133621Y-6948096D01*
X24147130Y-6941758D01*
X24162207Y-6938503D01*
X24171262Y-6938027D01*
X24525854Y-6938027D01*
X24542359Y-6937711D01*
X24558450Y-6936761D01*
X24574127Y-6935178D01*
X24589390Y-6932962D01*
X24604239Y-6930113D01*
X24618674Y-6926631D01*
X24632695Y-6922516D01*
X24646302Y-6917767D01*
X24659495Y-6912386D01*
X24672273Y-6906371D01*
X24684638Y-6899723D01*
X24696588Y-6892443D01*
X24708125Y-6884528D01*
X24719247Y-6875981D01*
X24729956Y-6866801D01*
X24740250Y-6856988D01*
X24750063Y-6846693D01*
X24759244Y-6835985D01*
X24767791Y-6824863D01*
X24775705Y-6813326D01*
X24782986Y-6801376D01*
X24789634Y-6789011D01*
X24795648Y-6776232D01*
X24801030Y-6763040D01*
X24805778Y-6749433D01*
X24809893Y-6735412D01*
X24813376Y-6720977D01*
X24816225Y-6706128D01*
X24818441Y-6690865D01*
X24820023Y-6675188D01*
X24820973Y-6659097D01*
X24821290Y-6642591D01*
X24821290Y-6563603D01*
X24820973Y-6547097D01*
X24820023Y-6531001D01*
X24818441Y-6515317D01*
X24816225Y-6500045D01*
X24813376Y-6485184D01*
X24809893Y-6470734D01*
X24805778Y-6456696D01*
X24801030Y-6443069D01*
X24795648Y-6429854D01*
X24789634Y-6417050D01*
X24782986Y-6404657D01*
X24775705Y-6392676D01*
X24767791Y-6381106D01*
X24759244Y-6369948D01*
X24750063Y-6359200D01*
X24740250Y-6348865D01*
X24729956Y-6339093D01*
X24719247Y-6329951D01*
X24708125Y-6321440D01*
X24696588Y-6313560D01*
X24684638Y-6306309D01*
X24672273Y-6299690D01*
X24659495Y-6293700D01*
X24646302Y-6288341D01*
X24632695Y-6283613D01*
X24618674Y-6279515D01*
X24604239Y-6276048D01*
X24589390Y-6273211D01*
X24574127Y-6271004D01*
X24558450Y-6269428D01*
X24542359Y-6268482D01*
X24525854Y-6268167D01*
X24504005Y-6268206D01*
X24482057Y-6268322D01*
X24460010Y-6268516D01*
X24437863Y-6268787D01*
X24415616Y-6269135D01*
X24393270Y-6269561D01*
X24370825Y-6270065D01*
X24348280Y-6270646D01*
X24325635Y-6271305D01*
X24302891Y-6272041D01*
X24280048Y-6272854D01*
X24257105Y-6273745D01*
X24234062Y-6274713D01*
X24210920Y-6275759D01*
X24187679Y-6276882D01*
X24164337Y-6278083D01*
X24140897Y-6279362D01*
X24117357Y-6280717D01*
X24093717Y-6282150D01*
X24069978Y-6283661D01*
X24046139Y-6285249D01*
X24022201Y-6286915D01*
X23998164Y-6288658D01*
X23974027Y-6290479D01*
X23949790Y-6292377D01*
X23925454Y-6294352D01*
X23901018Y-6296405D01*
X23876483Y-6298536D01*
X23851848Y-6300743D01*
X23827114Y-6303029D01*
X23802280Y-6305392D01*
X23777347Y-6307832D01*
X23777347Y-6563603D01*
G37*
G36*
X25367368Y-7292619D02*
G01*
X25367368Y-6288000D01*
X25022692Y-6288000D01*
X25022692Y-7026590D01*
X24874974Y-7026590D01*
X24874974Y-7292619D01*
X25367368Y-7292619D01*
G37*
G36*
X25022692Y-7686534D02*
G01*
X25367368Y-7686534D01*
X25367368Y-7410588D01*
X25022692Y-7410588D01*
X25022692Y-7686534D01*
G37*
G36*
X26327284Y-6268494D02*
G01*
X26344996Y-6269476D01*
X26362205Y-6271112D01*
X26378912Y-6273403D01*
X26395117Y-6276348D01*
X26410819Y-6279948D01*
X26426019Y-6284202D01*
X26440717Y-6289111D01*
X26454913Y-6294674D01*
X26468607Y-6300892D01*
X26481798Y-6307764D01*
X26494488Y-6315291D01*
X26506674Y-6323472D01*
X26518359Y-6332307D01*
X26529542Y-6341798D01*
X26540222Y-6351942D01*
X26550367Y-6362664D01*
X26559857Y-6373885D01*
X26568692Y-6385606D01*
X26576874Y-6397826D01*
X26584400Y-6410546D01*
X26591273Y-6423766D01*
X26597490Y-6437485D01*
X26603053Y-6451703D01*
X26607962Y-6466421D01*
X26612216Y-6481639D01*
X26615816Y-6497356D01*
X26618761Y-6513573D01*
X26621052Y-6530289D01*
X26622688Y-6547505D01*
X26623670Y-6565221D01*
X26623997Y-6583436D01*
X26623997Y-7036506D01*
X26623670Y-7054720D01*
X26622688Y-7072431D01*
X26621052Y-7089640D01*
X26618761Y-7106347D01*
X26615816Y-7122552D01*
X26612216Y-7138255D01*
X26607962Y-7153455D01*
X26603053Y-7168153D01*
X26597490Y-7182349D01*
X26591273Y-7196043D01*
X26584400Y-7209234D01*
X26576874Y-7221923D01*
X26568692Y-7234110D01*
X26559857Y-7245795D01*
X26550367Y-7256977D01*
X26540222Y-7267658D01*
X26529542Y-7277802D01*
X26518359Y-7287292D01*
X26506674Y-7296128D01*
X26494488Y-7304309D01*
X26481798Y-7311836D01*
X26468607Y-7318708D01*
X26454913Y-7324926D01*
X26440717Y-7330489D01*
X26426019Y-7335398D01*
X26410819Y-7339652D01*
X26395117Y-7343252D01*
X26378912Y-7346197D01*
X26362205Y-7348488D01*
X26344996Y-7350124D01*
X26327284Y-7351106D01*
X26309071Y-7351433D01*
X25856000Y-7351433D01*
X25837785Y-7351106D01*
X25820070Y-7350124D01*
X25802854Y-7348488D01*
X25786137Y-7346197D01*
X25769921Y-7343252D01*
X25754203Y-7339652D01*
X25738986Y-7335398D01*
X25724268Y-7330489D01*
X25710049Y-7324926D01*
X25696330Y-7318708D01*
X25683111Y-7311836D01*
X25670391Y-7304309D01*
X25658170Y-7296128D01*
X25646450Y-7287292D01*
X25635228Y-7277802D01*
X25624507Y-7267658D01*
X25614362Y-7256977D01*
X25604872Y-7245795D01*
X25596036Y-7234110D01*
X25587855Y-7221923D01*
X25580328Y-7209234D01*
X25573456Y-7196043D01*
X25567238Y-7182349D01*
X25561675Y-7168153D01*
X25556767Y-7153455D01*
X25552512Y-7138255D01*
X25548913Y-7122552D01*
X25545967Y-7106347D01*
X25543677Y-7089640D01*
X25542040Y-7072431D01*
X25541059Y-7054720D01*
X25540731Y-7036506D01*
X25540731Y-7006757D01*
X25885407Y-7006757D01*
X25885484Y-7011617D01*
X25887335Y-7029513D01*
X25891655Y-7044940D01*
X25898443Y-7057899D01*
X25907699Y-7068390D01*
X25919424Y-7076412D01*
X25933617Y-7081966D01*
X25950279Y-7085051D01*
X25964395Y-7085745D01*
X26200676Y-7085745D01*
X26205514Y-7085668D01*
X26223332Y-7083817D01*
X26238693Y-7079497D01*
X26251596Y-7072709D01*
X26262041Y-7063453D01*
X26270029Y-7051728D01*
X26275558Y-7037535D01*
X26278631Y-7020873D01*
X26279322Y-7006757D01*
X26279322Y-6612842D01*
X26279245Y-6608004D01*
X26277402Y-6590186D01*
X26273101Y-6574825D01*
X26266342Y-6561922D01*
X26257126Y-6551477D01*
X26245452Y-6543489D01*
X26231320Y-6537960D01*
X26214731Y-6534888D01*
X26200676Y-6534196D01*
X25964395Y-6534196D01*
X25959535Y-6534273D01*
X25941640Y-6536116D01*
X25926212Y-6540417D01*
X25913253Y-6547176D01*
X25902763Y-6556392D01*
X25894740Y-6568066D01*
X25889187Y-6582198D01*
X25886101Y-6598788D01*
X25885407Y-6612842D01*
X25885407Y-7006757D01*
X25540731Y-7006757D01*
X25540731Y-6583436D01*
X25541059Y-6565221D01*
X25542040Y-6547505D01*
X25543677Y-6530289D01*
X25545967Y-6513573D01*
X25548913Y-6497356D01*
X25552512Y-6481639D01*
X25556767Y-6466421D01*
X25561675Y-6451703D01*
X25567238Y-6437485D01*
X25573456Y-6423766D01*
X25580328Y-6410546D01*
X25587855Y-6397826D01*
X25596036Y-6385606D01*
X25604872Y-6373885D01*
X25614362Y-6362664D01*
X25624507Y-6351942D01*
X25635228Y-6341798D01*
X25646450Y-6332307D01*
X25658170Y-6323472D01*
X25670391Y-6315291D01*
X25683111Y-6307764D01*
X25696330Y-6300892D01*
X25710049Y-6294674D01*
X25724268Y-6289111D01*
X25738986Y-6284202D01*
X25754203Y-6279948D01*
X25769921Y-6276348D01*
X25786137Y-6273403D01*
X25802854Y-6271112D01*
X25820070Y-6269476D01*
X25837785Y-6268494D01*
X25856000Y-6268167D01*
X26309071Y-6268167D01*
X26327284Y-6268494D01*
G37*
G36*
X27375239Y-7065913D02*
G01*
X27355441Y-7065567D01*
X27335156Y-7064531D01*
X27321363Y-7063455D01*
X27307352Y-7062073D01*
X27293126Y-7060383D01*
X27278683Y-7058386D01*
X27264023Y-7056082D01*
X27249148Y-7053471D01*
X27234056Y-7050552D01*
X27218747Y-7047327D01*
X27203222Y-7043794D01*
X27187481Y-7039954D01*
X27171523Y-7035806D01*
X27155349Y-7031352D01*
X27138959Y-7026590D01*
X27138959Y-6288000D01*
X26794283Y-6288000D01*
X26794283Y-7331942D01*
X27099636Y-7331942D01*
X27119126Y-7233464D01*
X27130728Y-7240945D01*
X27142368Y-7248172D01*
X27159897Y-7258538D01*
X27177510Y-7268332D01*
X27195207Y-7277555D01*
X27212989Y-7286208D01*
X27230855Y-7294289D01*
X27248804Y-7301799D01*
X27266838Y-7308739D01*
X27284957Y-7315107D01*
X27303159Y-7320904D01*
X27309245Y-7322710D01*
X27327250Y-7327843D01*
X27344720Y-7332471D01*
X27361655Y-7336595D01*
X27378055Y-7340213D01*
X27393920Y-7343326D01*
X27409250Y-7345935D01*
X27424046Y-7348039D01*
X27438306Y-7349638D01*
X27452031Y-7350732D01*
X27469500Y-7351405D01*
X27473718Y-7351433D01*
X27562281Y-7351433D01*
X27578827Y-7351118D01*
X27594957Y-7350172D01*
X27610670Y-7348596D01*
X27625967Y-7346389D01*
X27640847Y-7343552D01*
X27655310Y-7340085D01*
X27669356Y-7335987D01*
X27682985Y-7331258D01*
X27696198Y-7325900D01*
X27708994Y-7319910D01*
X27721374Y-7313291D01*
X27733336Y-7306040D01*
X27744882Y-7298160D01*
X27756011Y-7289649D01*
X27766723Y-7280507D01*
X27777019Y-7270735D01*
X27786791Y-7260439D01*
X27795932Y-7249727D01*
X27804444Y-7238598D01*
X27812324Y-7227052D01*
X27819574Y-7215090D01*
X27826194Y-7202710D01*
X27832183Y-7189914D01*
X27837542Y-7176702D01*
X27842271Y-7163072D01*
X27846369Y-7149026D01*
X27849836Y-7134563D01*
X27852673Y-7119683D01*
X27854880Y-7104387D01*
X27856456Y-7088673D01*
X27857402Y-7072543D01*
X27857717Y-7055997D01*
X27857717Y-6288000D01*
X27513041Y-6288000D01*
X27513041Y-6997183D01*
X27511802Y-7011267D01*
X27507444Y-7025629D01*
X27499949Y-7038423D01*
X27493209Y-7046080D01*
X27481461Y-7055667D01*
X27468144Y-7062117D01*
X27453259Y-7065429D01*
X27444311Y-7065913D01*
X27375239Y-7065913D01*
G37*
G36*
X29620759Y-7233464D02*
G01*
X29620205Y-7212697D01*
X29618542Y-7192287D01*
X29615770Y-7172231D01*
X29611890Y-7152531D01*
X29606901Y-7133186D01*
X29600804Y-7114196D01*
X29593598Y-7095562D01*
X29585283Y-7077282D01*
X29575860Y-7059359D01*
X29565328Y-7041790D01*
X29553687Y-7024577D01*
X29540938Y-7007719D01*
X29527080Y-6991216D01*
X29512113Y-6975069D01*
X29496038Y-6959277D01*
X29478854Y-6943840D01*
X29467875Y-6934517D01*
X29456649Y-6925183D01*
X29445178Y-6915839D01*
X29433462Y-6906483D01*
X29421499Y-6897117D01*
X29409291Y-6887741D01*
X29396837Y-6878354D01*
X29384137Y-6868956D01*
X28960815Y-6563603D01*
X29620759Y-6563603D01*
X29620759Y-6288000D01*
X28556984Y-6288000D01*
X28556984Y-6662082D01*
X29266168Y-7174308D01*
X29266168Y-7272787D01*
X29265705Y-7287113D01*
X29263279Y-7306870D01*
X29258773Y-7324548D01*
X29252187Y-7340145D01*
X29243522Y-7353663D01*
X29232777Y-7365102D01*
X29219952Y-7374460D01*
X29205048Y-7381739D01*
X29188064Y-7386939D01*
X29169000Y-7390058D01*
X29155135Y-7390982D01*
X29147856Y-7391098D01*
X28596307Y-7391098D01*
X28596307Y-7666702D01*
X29226844Y-7666702D01*
X29252220Y-7666336D01*
X29276714Y-7665238D01*
X29300327Y-7663408D01*
X29323058Y-7660846D01*
X29344907Y-7657552D01*
X29365875Y-7653526D01*
X29385961Y-7648768D01*
X29405166Y-7643279D01*
X29423489Y-7637057D01*
X29440931Y-7630103D01*
X29457491Y-7622418D01*
X29473169Y-7614000D01*
X29487966Y-7604850D01*
X29501882Y-7594969D01*
X29514916Y-7584355D01*
X29527068Y-7573010D01*
X29538413Y-7560898D01*
X29549027Y-7547899D01*
X29558908Y-7534013D01*
X29568058Y-7519240D01*
X29576475Y-7503580D01*
X29584161Y-7487033D01*
X29591115Y-7469600D01*
X29597336Y-7451279D01*
X29602826Y-7432072D01*
X29607584Y-7411978D01*
X29611610Y-7390996D01*
X29614904Y-7369128D01*
X29617465Y-7346373D01*
X29619295Y-7322731D01*
X29620393Y-7298202D01*
X29620759Y-7272787D01*
X29620759Y-7233464D01*
G37*
G36*
X29732574Y-6583436D02*
G01*
X30087165Y-6583436D01*
X30087165Y-6288000D01*
X29732574Y-6288000D01*
X29732574Y-6583436D01*
G37*
G36*
X31247026Y-7233464D02*
G01*
X31246472Y-7212697D01*
X31244809Y-7192287D01*
X31242037Y-7172231D01*
X31238157Y-7152531D01*
X31233168Y-7133186D01*
X31227070Y-7114196D01*
X31219864Y-7095562D01*
X31211550Y-7077282D01*
X31202126Y-7059359D01*
X31191594Y-7041790D01*
X31179954Y-7024577D01*
X31167204Y-7007719D01*
X31153346Y-6991216D01*
X31138380Y-6975069D01*
X31122305Y-6959277D01*
X31105121Y-6943840D01*
X31094141Y-6934517D01*
X31082916Y-6925183D01*
X31071445Y-6915839D01*
X31059728Y-6906483D01*
X31047766Y-6897117D01*
X31035557Y-6887741D01*
X31023103Y-6878354D01*
X31010403Y-6868956D01*
X30587082Y-6563603D01*
X31247026Y-6563603D01*
X31247026Y-6288000D01*
X30183251Y-6288000D01*
X30183251Y-6662082D01*
X30892434Y-7174308D01*
X30892434Y-7272787D01*
X30891972Y-7287113D01*
X30889546Y-7306870D01*
X30885040Y-7324548D01*
X30878454Y-7340145D01*
X30869789Y-7353663D01*
X30859044Y-7365102D01*
X30846219Y-7374460D01*
X30831314Y-7381739D01*
X30814330Y-7386939D01*
X30795266Y-7390058D01*
X30781402Y-7390982D01*
X30774123Y-7391098D01*
X30222574Y-7391098D01*
X30222574Y-7666702D01*
X30853111Y-7666702D01*
X30878487Y-7666336D01*
X30902981Y-7665238D01*
X30926593Y-7663408D01*
X30949324Y-7660846D01*
X30971174Y-7657552D01*
X30992142Y-7653526D01*
X31012228Y-7648768D01*
X31031433Y-7643279D01*
X31049756Y-7637057D01*
X31067198Y-7630103D01*
X31083758Y-7622418D01*
X31099436Y-7614000D01*
X31114233Y-7604850D01*
X31128148Y-7594969D01*
X31141182Y-7584355D01*
X31153334Y-7573010D01*
X31164680Y-7560898D01*
X31175293Y-7547899D01*
X31185175Y-7534013D01*
X31194324Y-7519240D01*
X31202742Y-7503580D01*
X31210428Y-7487033D01*
X31217381Y-7469600D01*
X31223603Y-7451279D01*
X31229093Y-7432072D01*
X31233851Y-7411978D01*
X31237876Y-7390996D01*
X31241170Y-7369128D01*
X31243732Y-7346373D01*
X31245562Y-7322731D01*
X31246660Y-7298202D01*
X31247026Y-7272787D01*
X31247026Y-7233464D01*
G37*
G36*
X31358840Y-6583436D02*
G01*
X31713432Y-6583436D01*
X31713432Y-6288000D01*
X31358840Y-6288000D01*
X31358840Y-6583436D01*
G37*
G36*
X32642595Y-6268533D02*
G01*
X32667124Y-6269631D01*
X32690766Y-6271461D01*
X32713521Y-6274023D01*
X32735389Y-6277317D01*
X32756370Y-6281342D01*
X32776465Y-6286100D01*
X32795672Y-6291590D01*
X32813993Y-6297812D01*
X32831426Y-6304765D01*
X32847973Y-6312451D01*
X32863633Y-6320868D01*
X32878406Y-6330018D01*
X32892292Y-6339900D01*
X32905291Y-6350513D01*
X32917403Y-6361859D01*
X32928748Y-6374011D01*
X32939362Y-6387045D01*
X32949243Y-6400960D01*
X32958393Y-6415757D01*
X32966810Y-6431435D01*
X32974496Y-6447995D01*
X32981450Y-6465437D01*
X32987671Y-6483760D01*
X32993161Y-6502965D01*
X32997919Y-6523051D01*
X33001945Y-6544019D01*
X33005239Y-6565868D01*
X33007800Y-6588599D01*
X33009630Y-6612212D01*
X33010728Y-6636706D01*
X33011094Y-6662082D01*
X33011094Y-7292619D01*
X33010728Y-7317995D01*
X33009630Y-7342489D01*
X33007800Y-7366102D01*
X33005239Y-7388833D01*
X33001945Y-7410682D01*
X32997919Y-7431650D01*
X32993161Y-7451736D01*
X32987671Y-7470941D01*
X32981450Y-7489264D01*
X32974496Y-7506706D01*
X32966810Y-7523266D01*
X32958393Y-7538944D01*
X32949243Y-7553741D01*
X32939362Y-7567656D01*
X32928748Y-7580690D01*
X32917403Y-7592842D01*
X32905291Y-7604188D01*
X32892292Y-7614801D01*
X32878406Y-7624683D01*
X32863633Y-7633833D01*
X32847973Y-7642250D01*
X32831426Y-7649936D01*
X32813993Y-7656889D01*
X32795672Y-7663111D01*
X32776465Y-7668601D01*
X32756370Y-7673359D01*
X32735389Y-7677384D01*
X32713521Y-7680678D01*
X32690766Y-7683240D01*
X32667124Y-7685070D01*
X32642595Y-7686168D01*
X32617179Y-7686534D01*
X32242755Y-7686534D01*
X32217379Y-7686168D01*
X32192885Y-7685070D01*
X32169273Y-7683240D01*
X32146542Y-7680678D01*
X32124692Y-7677384D01*
X32103724Y-7673359D01*
X32083638Y-7668601D01*
X32064433Y-7663111D01*
X32046110Y-7656889D01*
X32028669Y-7649936D01*
X32012109Y-7642250D01*
X31996430Y-7633833D01*
X31981633Y-7624683D01*
X31967718Y-7614801D01*
X31954684Y-7604188D01*
X31942532Y-7592842D01*
X31931186Y-7580690D01*
X31920573Y-7567656D01*
X31910691Y-7553741D01*
X31901542Y-7538944D01*
X31893124Y-7523266D01*
X31885439Y-7506706D01*
X31878485Y-7489264D01*
X31872263Y-7470941D01*
X31866773Y-7451736D01*
X31862016Y-7431650D01*
X31857990Y-7410682D01*
X31854696Y-7388833D01*
X31852134Y-7366102D01*
X31850304Y-7342489D01*
X31849206Y-7317995D01*
X31848840Y-7292619D01*
X32203432Y-7292619D01*
X32203548Y-7299877D01*
X32204472Y-7313702D01*
X32207591Y-7332710D01*
X32212791Y-7349645D01*
X32220070Y-7364507D01*
X32229428Y-7377294D01*
X32240866Y-7388008D01*
X32254384Y-7396649D01*
X32269982Y-7403215D01*
X32287659Y-7407708D01*
X32307417Y-7410128D01*
X32321743Y-7410588D01*
X32538191Y-7410588D01*
X32545470Y-7410473D01*
X32559335Y-7409552D01*
X32578399Y-7406441D01*
X32595383Y-7401257D01*
X32610287Y-7393999D01*
X32623112Y-7384667D01*
X32633857Y-7373262D01*
X32642522Y-7359783D01*
X32649108Y-7344231D01*
X32653614Y-7326604D01*
X32656040Y-7306905D01*
X32656503Y-7292619D01*
X32656503Y-6662082D01*
X32656387Y-6654824D01*
X32655463Y-6640999D01*
X32652343Y-6621991D01*
X32647144Y-6605056D01*
X32639865Y-6590194D01*
X32630506Y-6577407D01*
X32619068Y-6566693D01*
X32605550Y-6558052D01*
X32589952Y-6551486D01*
X32572275Y-6546993D01*
X32552518Y-6544573D01*
X32538191Y-6544113D01*
X32321743Y-6544113D01*
X32314464Y-6544228D01*
X32300600Y-6545149D01*
X32281536Y-6548260D01*
X32264552Y-6553444D01*
X32249647Y-6560702D01*
X32236823Y-6570034D01*
X32226078Y-6581439D01*
X32217412Y-6594918D01*
X32210826Y-6610470D01*
X32206320Y-6628097D01*
X32203894Y-6647797D01*
X32203432Y-6662082D01*
X32203432Y-7292619D01*
X31848840Y-7292619D01*
X31848840Y-6662082D01*
X31849206Y-6636706D01*
X31850304Y-6612212D01*
X31852134Y-6588599D01*
X31854696Y-6565868D01*
X31857990Y-6544019D01*
X31862016Y-6523051D01*
X31866773Y-6502965D01*
X31872263Y-6483760D01*
X31878485Y-6465437D01*
X31885439Y-6447995D01*
X31893124Y-6431435D01*
X31901542Y-6415757D01*
X31910691Y-6400960D01*
X31920573Y-6387045D01*
X31931186Y-6374011D01*
X31942532Y-6361859D01*
X31954684Y-6350513D01*
X31967718Y-6339900D01*
X31981633Y-6330018D01*
X31996430Y-6320868D01*
X32012109Y-6312451D01*
X32028669Y-6304765D01*
X32046110Y-6297812D01*
X32064433Y-6291590D01*
X32083638Y-6286100D01*
X32103724Y-6281342D01*
X32124692Y-6277317D01*
X32146542Y-6274023D01*
X32169273Y-6271461D01*
X32192885Y-6269631D01*
X32217379Y-6268533D01*
X32242755Y-6268167D01*
X32617179Y-6268167D01*
X32642595Y-6268533D01*
G37*
D10*
G36*
X13761387Y-11650457D02*
G01*
X14298722Y-11650457D01*
X14298722Y-10199654D01*
X14298182Y-10162615D01*
X14296562Y-10126847D01*
X14293862Y-10092350D01*
X14290082Y-10059123D01*
X14285222Y-10027167D01*
X14279282Y-9996483D01*
X14272261Y-9967068D01*
X14264161Y-9938925D01*
X14254981Y-9912053D01*
X14244721Y-9886451D01*
X14233381Y-9862120D01*
X14220961Y-9839060D01*
X14207461Y-9817271D01*
X14192881Y-9796753D01*
X14177220Y-9777505D01*
X14160480Y-9759529D01*
X14142561Y-9742789D01*
X14123363Y-9727128D01*
X14102887Y-9712548D01*
X14081132Y-9699048D01*
X14058099Y-9686628D01*
X14033787Y-9675288D01*
X14008197Y-9665028D01*
X13981328Y-9655848D01*
X13953181Y-9647748D01*
X13923756Y-9640728D01*
X13893052Y-9634787D01*
X13861069Y-9629927D01*
X13827808Y-9626147D01*
X13793269Y-9623447D01*
X13757451Y-9621827D01*
X13720355Y-9621287D01*
X13073600Y-9621287D01*
X13036503Y-9621827D01*
X13000685Y-9623447D01*
X12966146Y-9626147D01*
X12932885Y-9629927D01*
X12900903Y-9634787D01*
X12870199Y-9640728D01*
X12840773Y-9647748D01*
X12812626Y-9655848D01*
X12785758Y-9665028D01*
X12760167Y-9675288D01*
X12735856Y-9686628D01*
X12712822Y-9699048D01*
X12691068Y-9712548D01*
X12670591Y-9727128D01*
X12651393Y-9742789D01*
X12633474Y-9759529D01*
X12616734Y-9777505D01*
X12601074Y-9796753D01*
X12586494Y-9817271D01*
X12572993Y-9839060D01*
X12560573Y-9862120D01*
X12549233Y-9886451D01*
X12538973Y-9912053D01*
X12529793Y-9938925D01*
X12521693Y-9967068D01*
X12514673Y-9996483D01*
X12508733Y-10027167D01*
X12503873Y-10059123D01*
X12500093Y-10092350D01*
X12497393Y-10126847D01*
X12495773Y-10162615D01*
X12495233Y-10199654D01*
X12495233Y-11650457D01*
X13032567Y-11650457D01*
X13032567Y-10199654D01*
X13033915Y-10172330D01*
X13037959Y-10147694D01*
X13044700Y-10125745D01*
X13054137Y-10106483D01*
X13066269Y-10089910D01*
X13081099Y-10076024D01*
X13098624Y-10064825D01*
X13118846Y-10056314D01*
X13141763Y-10050491D01*
X13167377Y-10047356D01*
X13185951Y-10046758D01*
X13608003Y-10046758D01*
X13635414Y-10048102D01*
X13660130Y-10052134D01*
X13682149Y-10058853D01*
X13701472Y-10068259D01*
X13718098Y-10080354D01*
X13732029Y-10095136D01*
X13743263Y-10112605D01*
X13751801Y-10132762D01*
X13757643Y-10155607D01*
X13760788Y-10181140D01*
X13761387Y-10199654D01*
X13761387Y-11650457D01*
G37*
G36*
X15553153Y-9649620D02*
G01*
X14509259Y-9649620D01*
X14509259Y-10074602D01*
X14762295Y-10074602D01*
X14762295Y-11225474D01*
X14509259Y-11225474D01*
X14509259Y-11650457D01*
X15553153Y-11650457D01*
X15553153Y-11225474D01*
X15300117Y-11225474D01*
X15300117Y-10074602D01*
X15553153Y-10074602D01*
X15553153Y-9649620D01*
G37*
G36*
X17515400Y-9649620D02*
G01*
X16956084Y-9649620D01*
X16305421Y-10788280D01*
X16305421Y-9649620D01*
X15768087Y-9649620D01*
X15768087Y-11650457D01*
X16327403Y-11650457D01*
X16977577Y-10512285D01*
X16977577Y-11650457D01*
X17515400Y-11650457D01*
X17515400Y-9649620D01*
G37*
G36*
X18771297Y-9649620D02*
G01*
X17727403Y-9649620D01*
X17727403Y-10074602D01*
X17980438Y-10074602D01*
X17980438Y-11225474D01*
X17727403Y-11225474D01*
X17727403Y-11650457D01*
X18771297Y-11650457D01*
X18771297Y-11225474D01*
X18518261Y-11225474D01*
X18518261Y-10074602D01*
X18771297Y-10074602D01*
X18771297Y-9649620D01*
G37*
G36*
X20248449Y-9621827D02*
G01*
X20284267Y-9623447D01*
X20318806Y-9626147D01*
X20352067Y-9629927D01*
X20384049Y-9634787D01*
X20414753Y-9640728D01*
X20444179Y-9647748D01*
X20472326Y-9655848D01*
X20499195Y-9665028D01*
X20524785Y-9675288D01*
X20549097Y-9686628D01*
X20572130Y-9699048D01*
X20593885Y-9712548D01*
X20614361Y-9727128D01*
X20633559Y-9742789D01*
X20651478Y-9759529D01*
X20668218Y-9777505D01*
X20683879Y-9796753D01*
X20698459Y-9817271D01*
X20711959Y-9839060D01*
X20724379Y-9862120D01*
X20735719Y-9886451D01*
X20745979Y-9912053D01*
X20755159Y-9938925D01*
X20763259Y-9967068D01*
X20770279Y-9996483D01*
X20776219Y-10027167D01*
X20781080Y-10059123D01*
X20784860Y-10092350D01*
X20787560Y-10126847D01*
X20789180Y-10162615D01*
X20789720Y-10199654D01*
X20789720Y-11100422D01*
X20789180Y-11137459D01*
X20787560Y-11173222D01*
X20784860Y-11207709D01*
X20781080Y-11240923D01*
X20776219Y-11272861D01*
X20770279Y-11303525D01*
X20763259Y-11332914D01*
X20755159Y-11361029D01*
X20745979Y-11387869D01*
X20735719Y-11413434D01*
X20724379Y-11437725D01*
X20711959Y-11460741D01*
X20698459Y-11482483D01*
X20683879Y-11502949D01*
X20668218Y-11522142D01*
X20651478Y-11540059D01*
X20633559Y-11556858D01*
X20614361Y-11572574D01*
X20593885Y-11587206D01*
X20572130Y-11600753D01*
X20549097Y-11613218D01*
X20524785Y-11624598D01*
X20499195Y-11634894D01*
X20472326Y-11644107D01*
X20444179Y-11652235D01*
X20414753Y-11659280D01*
X20384049Y-11665241D01*
X20352067Y-11670118D01*
X20318806Y-11673912D01*
X20284267Y-11676621D01*
X20248449Y-11678247D01*
X20211353Y-11678789D01*
X19507933Y-11678789D01*
X19470894Y-11678247D01*
X19435126Y-11676621D01*
X19400629Y-11673912D01*
X19367402Y-11670118D01*
X19335446Y-11665241D01*
X19304761Y-11659280D01*
X19275347Y-11652235D01*
X19247204Y-11644107D01*
X19220332Y-11634894D01*
X19194730Y-11624598D01*
X19170399Y-11613218D01*
X19147339Y-11600753D01*
X19125550Y-11587206D01*
X19105032Y-11572574D01*
X19085784Y-11556858D01*
X19067808Y-11540059D01*
X19051067Y-11522142D01*
X19035407Y-11502949D01*
X19020827Y-11482483D01*
X19007327Y-11460741D01*
X18994907Y-11437725D01*
X18983567Y-11413434D01*
X18973307Y-11387869D01*
X18964126Y-11361029D01*
X18956026Y-11332914D01*
X18949006Y-11303525D01*
X18943066Y-11272861D01*
X18938206Y-11240923D01*
X18934426Y-11207709D01*
X18931726Y-11173222D01*
X18930106Y-11137459D01*
X18929566Y-11100422D01*
X19467389Y-11100422D01*
X19467988Y-11118937D01*
X19471134Y-11144469D01*
X19476975Y-11167314D01*
X19485513Y-11187471D01*
X19496748Y-11204941D01*
X19510678Y-11219723D01*
X19527305Y-11231817D01*
X19546628Y-11241224D01*
X19568647Y-11247943D01*
X19593362Y-11251974D01*
X19620773Y-11253318D01*
X20099001Y-11253318D01*
X20117575Y-11252721D01*
X20143189Y-11249585D01*
X20166107Y-11243762D01*
X20186328Y-11235251D01*
X20203854Y-11224053D01*
X20218683Y-11210167D01*
X20230816Y-11193593D01*
X20240252Y-11174332D01*
X20246993Y-11152383D01*
X20251037Y-11127746D01*
X20252385Y-11100422D01*
X20252385Y-10199654D01*
X20251786Y-10181140D01*
X20248641Y-10155607D01*
X20242799Y-10132762D01*
X20234261Y-10112605D01*
X20223027Y-10095136D01*
X20209096Y-10080354D01*
X20192470Y-10068259D01*
X20173147Y-10058853D01*
X20151128Y-10052134D01*
X20126412Y-10048102D01*
X20099001Y-10046758D01*
X19620773Y-10046758D01*
X19602199Y-10047356D01*
X19576585Y-10050491D01*
X19553668Y-10056314D01*
X19533446Y-10064825D01*
X19515921Y-10076024D01*
X19501092Y-10089910D01*
X19488959Y-10106483D01*
X19479522Y-10125745D01*
X19472781Y-10147694D01*
X19468737Y-10172330D01*
X19467389Y-10199654D01*
X19467389Y-11100422D01*
X18929566Y-11100422D01*
X18929566Y-10199654D01*
X18930106Y-10162615D01*
X18931726Y-10126847D01*
X18934426Y-10092350D01*
X18938206Y-10059123D01*
X18943066Y-10027167D01*
X18949006Y-9996483D01*
X18956026Y-9967068D01*
X18964126Y-9938925D01*
X18973307Y-9912053D01*
X18983567Y-9886451D01*
X18994907Y-9862120D01*
X19007327Y-9839060D01*
X19020827Y-9817271D01*
X19035407Y-9796753D01*
X19051067Y-9777505D01*
X19067808Y-9759529D01*
X19085784Y-9742789D01*
X19105032Y-9727128D01*
X19125550Y-9712548D01*
X19147339Y-9699048D01*
X19170399Y-9686628D01*
X19194730Y-9675288D01*
X19220332Y-9665028D01*
X19247204Y-9655848D01*
X19275347Y-9647748D01*
X19304761Y-9640728D01*
X19335446Y-9634787D01*
X19367402Y-9629927D01*
X19400629Y-9626147D01*
X19435126Y-9623447D01*
X19470894Y-9621827D01*
X19507933Y-9621287D01*
X20211353Y-9621287D01*
X20248449Y-9621827D01*
G37*
G36*
X20945547Y-10437547D02*
G01*
X20945547Y-10862529D01*
X22130124Y-10862529D01*
X22130124Y-10437547D01*
X20945547Y-10437547D01*
G37*
G36*
X24033265Y-10702306D02*
G01*
X23663969Y-10043339D01*
X23251688Y-10043339D01*
X22882392Y-10702306D01*
X22882392Y-9649620D01*
X22345058Y-9649620D01*
X22345058Y-11650457D01*
X22904374Y-11650457D01*
X23457829Y-10626591D01*
X24011283Y-11650457D01*
X24570599Y-11650457D01*
X24570599Y-9649620D01*
X24033265Y-9649620D01*
X24033265Y-10702306D01*
G37*
G36*
X26414144Y-9679417D02*
G01*
X26374219Y-9675841D01*
X26334740Y-9672378D01*
X26295707Y-9669029D01*
X26257119Y-9665793D01*
X26218976Y-9662671D01*
X26181279Y-9659662D01*
X26144028Y-9656767D01*
X26107222Y-9653985D01*
X26070862Y-9651317D01*
X26034947Y-9648763D01*
X25999478Y-9646322D01*
X25964455Y-9643994D01*
X25929877Y-9641780D01*
X25895744Y-9639680D01*
X25862057Y-9637693D01*
X25828816Y-9635820D01*
X25796020Y-9634060D01*
X25763670Y-9632414D01*
X25731765Y-9630881D01*
X25700306Y-9629462D01*
X25669292Y-9628156D01*
X25638724Y-9626964D01*
X25608602Y-9625885D01*
X25578925Y-9624920D01*
X25549694Y-9624069D01*
X25520908Y-9623331D01*
X25492567Y-9622707D01*
X25464673Y-9622196D01*
X25437224Y-9621798D01*
X25410220Y-9621514D01*
X25383662Y-9621344D01*
X25357549Y-9621287D01*
X25322834Y-9621810D01*
X25289276Y-9623379D01*
X25256874Y-9625993D01*
X25225628Y-9629653D01*
X25195538Y-9634358D01*
X25166605Y-9640109D01*
X25138828Y-9646906D01*
X25112207Y-9654749D01*
X25086743Y-9663637D01*
X25062435Y-9673571D01*
X25039284Y-9684550D01*
X25017289Y-9696575D01*
X24996450Y-9709646D01*
X24976767Y-9723762D01*
X24958241Y-9738925D01*
X24940871Y-9755132D01*
X24924663Y-9772502D01*
X24909501Y-9791028D01*
X24895385Y-9810711D01*
X24882314Y-9831550D01*
X24870289Y-9853545D01*
X24859309Y-9876697D01*
X24849375Y-9901005D01*
X24840487Y-9926469D01*
X24832645Y-9953089D01*
X24825848Y-9980866D01*
X24820097Y-10009799D01*
X24815391Y-10039889D01*
X24811731Y-10071135D01*
X24809117Y-10103537D01*
X24807549Y-10137096D01*
X24807026Y-10171811D01*
X24807026Y-11072090D01*
X24807566Y-11109186D01*
X24809186Y-11145004D01*
X24811886Y-11179543D01*
X24815666Y-11212804D01*
X24820526Y-11244787D01*
X24826466Y-11275491D01*
X24833486Y-11304916D01*
X24841586Y-11333063D01*
X24850766Y-11359932D01*
X24861027Y-11385522D01*
X24872367Y-11409834D01*
X24884787Y-11432867D01*
X24898287Y-11454622D01*
X24912867Y-11475098D01*
X24928527Y-11494296D01*
X24945267Y-11512215D01*
X24963244Y-11528956D01*
X24982492Y-11544616D01*
X25003010Y-11559196D01*
X25024799Y-11572696D01*
X25047859Y-11585116D01*
X25072190Y-11596456D01*
X25097791Y-11606716D01*
X25124664Y-11615897D01*
X25152807Y-11623997D01*
X25182221Y-11631017D01*
X25212906Y-11636957D01*
X25244862Y-11641817D01*
X25278088Y-11645597D01*
X25312586Y-11648297D01*
X25348354Y-11649917D01*
X25385393Y-11650457D01*
X26414144Y-11650457D01*
X26414144Y-11225474D01*
X25498233Y-11225474D01*
X25470822Y-11224126D01*
X25446106Y-11220082D01*
X25424087Y-11213341D01*
X25404765Y-11203905D01*
X25388138Y-11191772D01*
X25374207Y-11176943D01*
X25362973Y-11159417D01*
X25354435Y-11139196D01*
X25348593Y-11116278D01*
X25345448Y-11090664D01*
X25344849Y-11072090D01*
X25344849Y-10171811D01*
X25346017Y-10150722D01*
X25349520Y-10131419D01*
X25356559Y-10111156D01*
X25366777Y-10093325D01*
X25378066Y-10079975D01*
X25393864Y-10067032D01*
X25411766Y-10057268D01*
X25431771Y-10050683D01*
X25453880Y-10047277D01*
X25467459Y-10046758D01*
X25489005Y-10046810D01*
X25511514Y-10046964D01*
X25534984Y-10047222D01*
X25555277Y-10047515D01*
X25576238Y-10047880D01*
X25593488Y-10048224D01*
X25615601Y-10048706D01*
X25637976Y-10049235D01*
X25660614Y-10049812D01*
X25683514Y-10050437D01*
X25706677Y-10051110D01*
X25730102Y-10051830D01*
X25739545Y-10052132D01*
X25763371Y-10053048D01*
X25787220Y-10053964D01*
X25811094Y-10054879D01*
X25834991Y-10055795D01*
X25858912Y-10056711D01*
X25882857Y-10057627D01*
X25892441Y-10057994D01*
X25912446Y-10058810D01*
X25933871Y-10059795D01*
X25956715Y-10060947D01*
X25980979Y-10062268D01*
X26006663Y-10063756D01*
X26026857Y-10064983D01*
X26047850Y-10066304D01*
X26069642Y-10067719D01*
X26092232Y-10069229D01*
X26115895Y-10070820D01*
X26140907Y-10072480D01*
X26167266Y-10074209D01*
X26194974Y-10076006D01*
X26224030Y-10077873D01*
X26244149Y-10079155D01*
X26264868Y-10080468D01*
X26286186Y-10081811D01*
X26308103Y-10083185D01*
X26330619Y-10084589D01*
X26353734Y-10086024D01*
X26377449Y-10087490D01*
X26401762Y-10088986D01*
X26414144Y-10089745D01*
X26414144Y-9679417D01*
G37*
G36*
X27864946Y-11650457D02*
G01*
X28402281Y-11650457D01*
X28402281Y-10199654D01*
X28401741Y-10162615D01*
X28400121Y-10126847D01*
X28397421Y-10092350D01*
X28393641Y-10059123D01*
X28388781Y-10027167D01*
X28382840Y-9996483D01*
X28375820Y-9967068D01*
X28367720Y-9938925D01*
X28358540Y-9912053D01*
X28348280Y-9886451D01*
X28336940Y-9862120D01*
X28324520Y-9839060D01*
X28311020Y-9817271D01*
X28296440Y-9796753D01*
X28280779Y-9777505D01*
X28264039Y-9759529D01*
X28246120Y-9742789D01*
X28226922Y-9727128D01*
X28206446Y-9712548D01*
X28184691Y-9699048D01*
X28161658Y-9686628D01*
X28137346Y-9675288D01*
X28111756Y-9665028D01*
X28084887Y-9655848D01*
X28056740Y-9647748D01*
X28027315Y-9640728D01*
X27996611Y-9634787D01*
X27964628Y-9629927D01*
X27931367Y-9626147D01*
X27896828Y-9623447D01*
X27861010Y-9621827D01*
X27823914Y-9621287D01*
X27177159Y-9621287D01*
X27140062Y-9621827D01*
X27104244Y-9623447D01*
X27069705Y-9626147D01*
X27036444Y-9629927D01*
X27004462Y-9634787D01*
X26973758Y-9640728D01*
X26944332Y-9647748D01*
X26916185Y-9655848D01*
X26889316Y-9665028D01*
X26863726Y-9675288D01*
X26839415Y-9686628D01*
X26816381Y-9699048D01*
X26794627Y-9712548D01*
X26774150Y-9727128D01*
X26754952Y-9742789D01*
X26737033Y-9759529D01*
X26720293Y-9777505D01*
X26704633Y-9796753D01*
X26690052Y-9817271D01*
X26676552Y-9839060D01*
X26664132Y-9862120D01*
X26652792Y-9886451D01*
X26642532Y-9912053D01*
X26633352Y-9938925D01*
X26625252Y-9967068D01*
X26618232Y-9996483D01*
X26612292Y-10027167D01*
X26607432Y-10059123D01*
X26603652Y-10092350D01*
X26600952Y-10126847D01*
X26599332Y-10162615D01*
X26598792Y-10199654D01*
X26598792Y-11650457D01*
X27136126Y-11650457D01*
X27136126Y-10199654D01*
X27137474Y-10172330D01*
X27141518Y-10147694D01*
X27148259Y-10125745D01*
X27157695Y-10106483D01*
X27169828Y-10089910D01*
X27184658Y-10076024D01*
X27202183Y-10064825D01*
X27222405Y-10056314D01*
X27245322Y-10050491D01*
X27270936Y-10047356D01*
X27289510Y-10046758D01*
X27711562Y-10046758D01*
X27738973Y-10048102D01*
X27763689Y-10052134D01*
X27785708Y-10058853D01*
X27805031Y-10068259D01*
X27821657Y-10080354D01*
X27835588Y-10095136D01*
X27846822Y-10112605D01*
X27855360Y-10132762D01*
X27861202Y-10155607D01*
X27864347Y-10181140D01*
X27864946Y-10199654D01*
X27864946Y-11650457D01*
G37*
G36*
X28612818Y-10437547D02*
G01*
X28612818Y-10862529D01*
X29797396Y-10862529D01*
X29797396Y-10437547D01*
X28612818Y-10437547D01*
G37*
G36*
X30549664Y-10240687D02*
G01*
X30918959Y-10240687D01*
X31242337Y-9649620D01*
X31827054Y-9649620D01*
X31472413Y-10273904D01*
X31491537Y-10279159D01*
X31519120Y-10288430D01*
X31545381Y-10299367D01*
X31570319Y-10311969D01*
X31593936Y-10326237D01*
X31616229Y-10342171D01*
X31637201Y-10359771D01*
X31656850Y-10379036D01*
X31675177Y-10399968D01*
X31692181Y-10422565D01*
X31707863Y-10446828D01*
X31717564Y-10464024D01*
X31726640Y-10482030D01*
X31735089Y-10500844D01*
X31742912Y-10520467D01*
X31750110Y-10540900D01*
X31756681Y-10562141D01*
X31762627Y-10584192D01*
X31767947Y-10607051D01*
X31772641Y-10630720D01*
X31776709Y-10655198D01*
X31780152Y-10680485D01*
X31782968Y-10706580D01*
X31785159Y-10733485D01*
X31786723Y-10761199D01*
X31787662Y-10789722D01*
X31787975Y-10819054D01*
X31787975Y-11072090D01*
X31787435Y-11109186D01*
X31785815Y-11145004D01*
X31783115Y-11179543D01*
X31779335Y-11212804D01*
X31774475Y-11244787D01*
X31768535Y-11275491D01*
X31761515Y-11304916D01*
X31753415Y-11333063D01*
X31744235Y-11359932D01*
X31733974Y-11385522D01*
X31722634Y-11409834D01*
X31710214Y-11432867D01*
X31696714Y-11454622D01*
X31682134Y-11475098D01*
X31666474Y-11494296D01*
X31649734Y-11512215D01*
X31631814Y-11528956D01*
X31612616Y-11544616D01*
X31592140Y-11559196D01*
X31570385Y-11572696D01*
X31547352Y-11585116D01*
X31523040Y-11596456D01*
X31497450Y-11606716D01*
X31470581Y-11615897D01*
X31442434Y-11623997D01*
X31413009Y-11631017D01*
X31382305Y-11636957D01*
X31350322Y-11641817D01*
X31317061Y-11645597D01*
X31282522Y-11648297D01*
X31246704Y-11649917D01*
X31209608Y-11650457D01*
X30012330Y-11650457D01*
X30012330Y-10665670D01*
X30549664Y-10665670D01*
X30549664Y-11225474D01*
X31096768Y-11225474D01*
X31115342Y-11224875D01*
X31140956Y-11221730D01*
X31163874Y-11215888D01*
X31184095Y-11207350D01*
X31201620Y-11196116D01*
X31216450Y-11182185D01*
X31228583Y-11165559D01*
X31238019Y-11146236D01*
X31244760Y-11124217D01*
X31248804Y-11099501D01*
X31250152Y-11072090D01*
X31250152Y-10819054D01*
X31249553Y-10800480D01*
X31246408Y-10774866D01*
X31240566Y-10751949D01*
X31232028Y-10731727D01*
X31220794Y-10714202D01*
X31206863Y-10699372D01*
X31190236Y-10687239D01*
X31170914Y-10677803D01*
X31148895Y-10671062D01*
X31124179Y-10667018D01*
X31096768Y-10665670D01*
X30549664Y-10665670D01*
X30012330Y-10665670D01*
X30012330Y-9649620D01*
X30549664Y-9649620D01*
X30549664Y-10240687D01*
G37*
G36*
X32564179Y-10212355D02*
G01*
X33224123Y-10212355D01*
X33261219Y-10212895D01*
X33297037Y-10214515D01*
X33331576Y-10217215D01*
X33364837Y-10220995D01*
X33396820Y-10225855D01*
X33427524Y-10231795D01*
X33456949Y-10238815D01*
X33485096Y-10246915D01*
X33511965Y-10256095D01*
X33537555Y-10266356D01*
X33561867Y-10277696D01*
X33584900Y-10290116D01*
X33606655Y-10303616D01*
X33627131Y-10318196D01*
X33646329Y-10333856D01*
X33664249Y-10350596D01*
X33680989Y-10368516D01*
X33696649Y-10387714D01*
X33711229Y-10408190D01*
X33724729Y-10429945D01*
X33737149Y-10452978D01*
X33748489Y-10477290D01*
X33758750Y-10502880D01*
X33767930Y-10529749D01*
X33776030Y-10557896D01*
X33783050Y-10587321D01*
X33788990Y-10618025D01*
X33793850Y-10650008D01*
X33797630Y-10683269D01*
X33800330Y-10717808D01*
X33801950Y-10753626D01*
X33802490Y-10790722D01*
X33802490Y-11072090D01*
X33801950Y-11109186D01*
X33800330Y-11145004D01*
X33797630Y-11179543D01*
X33793850Y-11212804D01*
X33788990Y-11244787D01*
X33783050Y-11275491D01*
X33776030Y-11304916D01*
X33767930Y-11333063D01*
X33758750Y-11359932D01*
X33748489Y-11385522D01*
X33737149Y-11409834D01*
X33724729Y-11432867D01*
X33711229Y-11454622D01*
X33696649Y-11475098D01*
X33680989Y-11494296D01*
X33664249Y-11512215D01*
X33646329Y-11528956D01*
X33627131Y-11544616D01*
X33606655Y-11559196D01*
X33584900Y-11572696D01*
X33561867Y-11585116D01*
X33537555Y-11596456D01*
X33511965Y-11606716D01*
X33485096Y-11615897D01*
X33456949Y-11623997D01*
X33427524Y-11631017D01*
X33396820Y-11636957D01*
X33364837Y-11641817D01*
X33331576Y-11645597D01*
X33297037Y-11648297D01*
X33261219Y-11649917D01*
X33224123Y-11650457D01*
X32026845Y-11650457D01*
X32026845Y-10637338D01*
X32564179Y-10637338D01*
X32564179Y-11225474D01*
X33111283Y-11225474D01*
X33129857Y-11224875D01*
X33155471Y-11221730D01*
X33178389Y-11215888D01*
X33198610Y-11207350D01*
X33216135Y-11196116D01*
X33230965Y-11182185D01*
X33243098Y-11165559D01*
X33252534Y-11146236D01*
X33259275Y-11124217D01*
X33263319Y-11099501D01*
X33264667Y-11072090D01*
X33264667Y-10790722D01*
X33264068Y-10772148D01*
X33260923Y-10746534D01*
X33255081Y-10723616D01*
X33246543Y-10703395D01*
X33235309Y-10685869D01*
X33221378Y-10671040D01*
X33204751Y-10658907D01*
X33185429Y-10649471D01*
X33163410Y-10642730D01*
X33138694Y-10638686D01*
X33111283Y-10637338D01*
X32564179Y-10637338D01*
X32026845Y-10637338D01*
X32026845Y-9649620D01*
X32564179Y-9649620D01*
X32564179Y-10212355D01*
G37*
G36*
X35452106Y-11015914D02*
G01*
X35451293Y-10985344D01*
X35448855Y-10955304D01*
X35444790Y-10925794D01*
X35439100Y-10896815D01*
X35431784Y-10868367D01*
X35422843Y-10840448D01*
X35412276Y-10813061D01*
X35400083Y-10786204D01*
X35386264Y-10759877D01*
X35370819Y-10734081D01*
X35353749Y-10708815D01*
X35335053Y-10684080D01*
X35314731Y-10659875D01*
X35292784Y-10636200D01*
X35269210Y-10613056D01*
X35244011Y-10590443D01*
X35228204Y-10577002D01*
X35212046Y-10563546D01*
X35195537Y-10550074D01*
X35178676Y-10536587D01*
X35161465Y-10523085D01*
X35143902Y-10509568D01*
X35125989Y-10496035D01*
X35107724Y-10482488D01*
X34542057Y-10074602D01*
X35452106Y-10074602D01*
X35452106Y-9649620D01*
X33901164Y-9649620D01*
X33901164Y-10207470D01*
X34914283Y-10939222D01*
X34914283Y-11072090D01*
X34912935Y-11099501D01*
X34908891Y-11124217D01*
X34902151Y-11146236D01*
X34892714Y-11165559D01*
X34880581Y-11182185D01*
X34865752Y-11196116D01*
X34848226Y-11207350D01*
X34828005Y-11215888D01*
X34805087Y-11221730D01*
X34779473Y-11224875D01*
X34760899Y-11225474D01*
X33957340Y-11225474D01*
X33957340Y-11650457D01*
X34873739Y-11650457D01*
X34910776Y-11649917D01*
X34946539Y-11648297D01*
X34981027Y-11645597D01*
X35014240Y-11641817D01*
X35046178Y-11636957D01*
X35076842Y-11631017D01*
X35106232Y-11623997D01*
X35134346Y-11615897D01*
X35161186Y-11606716D01*
X35186752Y-11596456D01*
X35211042Y-11585116D01*
X35234058Y-11572696D01*
X35255800Y-11559196D01*
X35276267Y-11544616D01*
X35295459Y-11528956D01*
X35313376Y-11512215D01*
X35330176Y-11494296D01*
X35345891Y-11475098D01*
X35360523Y-11454622D01*
X35374071Y-11432867D01*
X35386535Y-11409834D01*
X35397915Y-11385522D01*
X35408211Y-11359932D01*
X35417424Y-11333063D01*
X35425552Y-11304916D01*
X35432597Y-11275491D01*
X35438558Y-11244787D01*
X35443436Y-11212804D01*
X35447229Y-11179543D01*
X35449939Y-11145004D01*
X35451564Y-11109186D01*
X35452106Y-11072090D01*
X35452106Y-11015914D01*
G37*
G36*
X36758777Y-9621827D02*
G01*
X36794595Y-9623447D01*
X36829134Y-9626147D01*
X36862395Y-9629927D01*
X36894377Y-9634787D01*
X36925081Y-9640728D01*
X36954507Y-9647748D01*
X36982654Y-9655848D01*
X37009523Y-9665028D01*
X37035113Y-9675288D01*
X37059425Y-9686628D01*
X37082458Y-9699048D01*
X37104213Y-9712548D01*
X37124689Y-9727128D01*
X37143887Y-9742789D01*
X37161806Y-9759529D01*
X37178546Y-9777505D01*
X37194207Y-9796753D01*
X37208787Y-9817271D01*
X37222287Y-9839060D01*
X37234707Y-9862120D01*
X37246047Y-9886451D01*
X37256307Y-9912053D01*
X37265487Y-9938925D01*
X37273587Y-9967068D01*
X37280607Y-9996483D01*
X37286547Y-10027167D01*
X37291408Y-10059123D01*
X37295188Y-10092350D01*
X37297888Y-10126847D01*
X37299508Y-10162615D01*
X37300048Y-10199654D01*
X37300048Y-11100422D01*
X37299508Y-11137459D01*
X37297888Y-11173222D01*
X37295188Y-11207709D01*
X37291408Y-11240923D01*
X37286547Y-11272861D01*
X37280607Y-11303525D01*
X37273587Y-11332914D01*
X37265487Y-11361029D01*
X37256307Y-11387869D01*
X37246047Y-11413434D01*
X37234707Y-11437725D01*
X37222287Y-11460741D01*
X37208787Y-11482483D01*
X37194207Y-11502949D01*
X37178546Y-11522142D01*
X37161806Y-11540059D01*
X37143887Y-11556858D01*
X37124689Y-11572574D01*
X37104213Y-11587206D01*
X37082458Y-11600753D01*
X37059425Y-11613218D01*
X37035113Y-11624598D01*
X37009523Y-11634894D01*
X36982654Y-11644107D01*
X36954507Y-11652235D01*
X36925081Y-11659280D01*
X36894377Y-11665241D01*
X36862395Y-11670118D01*
X36829134Y-11673912D01*
X36794595Y-11676621D01*
X36758777Y-11678247D01*
X36721681Y-11678789D01*
X36186789Y-11678789D01*
X36149750Y-11678247D01*
X36113981Y-11676621D01*
X36079484Y-11673912D01*
X36046257Y-11670118D01*
X36014302Y-11665241D01*
X35983617Y-11659280D01*
X35954203Y-11652235D01*
X35926059Y-11644107D01*
X35899187Y-11634894D01*
X35873585Y-11624598D01*
X35849255Y-11613218D01*
X35826195Y-11600753D01*
X35804406Y-11587206D01*
X35783887Y-11572574D01*
X35764640Y-11556858D01*
X35746663Y-11540059D01*
X35729923Y-11522142D01*
X35714263Y-11502949D01*
X35699683Y-11482483D01*
X35686182Y-11460741D01*
X35673762Y-11437725D01*
X35662422Y-11413434D01*
X35652162Y-11387869D01*
X35642982Y-11361029D01*
X35634882Y-11332914D01*
X35627862Y-11303525D01*
X35621922Y-11272861D01*
X35617062Y-11240923D01*
X35613282Y-11207709D01*
X35610582Y-11173222D01*
X35608962Y-11137459D01*
X35608422Y-11100422D01*
X36146244Y-11100422D01*
X36146844Y-11118937D01*
X36149989Y-11144469D01*
X36155831Y-11167314D01*
X36164369Y-11187471D01*
X36175603Y-11204941D01*
X36189534Y-11219723D01*
X36206160Y-11231817D01*
X36225483Y-11241224D01*
X36247502Y-11247943D01*
X36272217Y-11251974D01*
X36299629Y-11253318D01*
X36608840Y-11253318D01*
X36627414Y-11252721D01*
X36653028Y-11249585D01*
X36675946Y-11243762D01*
X36696168Y-11235251D01*
X36713693Y-11224053D01*
X36728522Y-11210167D01*
X36740655Y-11193593D01*
X36750092Y-11174332D01*
X36756832Y-11152383D01*
X36760877Y-11127746D01*
X36762225Y-11100422D01*
X36762225Y-10199654D01*
X36761626Y-10181140D01*
X36758480Y-10155607D01*
X36752638Y-10132762D01*
X36744100Y-10112605D01*
X36732866Y-10095136D01*
X36718936Y-10080354D01*
X36702309Y-10068259D01*
X36682986Y-10058853D01*
X36660967Y-10052134D01*
X36636252Y-10048102D01*
X36608840Y-10046758D01*
X36299629Y-10046758D01*
X36281055Y-10047356D01*
X36255441Y-10050491D01*
X36232523Y-10056314D01*
X36212302Y-10064825D01*
X36194776Y-10076024D01*
X36179947Y-10089910D01*
X36167814Y-10106483D01*
X36158377Y-10125745D01*
X36151637Y-10147694D01*
X36147593Y-10172330D01*
X36146244Y-10199654D01*
X36146244Y-11100422D01*
X35608422Y-11100422D01*
X35608422Y-10199654D01*
X35608962Y-10162615D01*
X35610582Y-10126847D01*
X35613282Y-10092350D01*
X35617062Y-10059123D01*
X35621922Y-10027167D01*
X35627862Y-9996483D01*
X35634882Y-9967068D01*
X35642982Y-9938925D01*
X35652162Y-9912053D01*
X35662422Y-9886451D01*
X35673762Y-9862120D01*
X35686182Y-9839060D01*
X35699683Y-9817271D01*
X35714263Y-9796753D01*
X35729923Y-9777505D01*
X35746663Y-9759529D01*
X35764640Y-9742789D01*
X35783887Y-9727128D01*
X35804406Y-9712548D01*
X35826195Y-9699048D01*
X35849255Y-9686628D01*
X35873585Y-9675288D01*
X35899187Y-9665028D01*
X35926059Y-9655848D01*
X35954203Y-9647748D01*
X35983617Y-9640728D01*
X36014302Y-9634787D01*
X36046257Y-9629927D01*
X36079484Y-9626147D01*
X36113981Y-9623447D01*
X36149750Y-9621827D01*
X36186789Y-9621287D01*
X36721681Y-9621287D01*
X36758777Y-9621827D01*
G37*
G36*
X38468994Y-10043339D02*
G01*
X37428031Y-10043339D01*
X37428031Y-10457575D01*
X38109957Y-11650457D01*
X38708840Y-11650457D01*
X38033265Y-10468810D01*
X38468994Y-10468810D01*
X38468994Y-10890862D01*
X39006817Y-10890862D01*
X39006817Y-10468810D01*
X39203676Y-10468810D01*
X39203676Y-10043339D01*
X39006817Y-10043339D01*
X39006817Y-9649620D01*
X38468994Y-9649620D01*
X38468994Y-10043339D01*
G37*
G36*
X40453683Y-9621827D02*
G01*
X40489500Y-9623447D01*
X40524040Y-9626147D01*
X40557301Y-9629927D01*
X40589283Y-9634787D01*
X40619987Y-9640728D01*
X40649413Y-9647748D01*
X40677560Y-9655848D01*
X40704428Y-9665028D01*
X40730019Y-9675288D01*
X40754330Y-9686628D01*
X40777364Y-9699048D01*
X40799118Y-9712548D01*
X40819595Y-9727128D01*
X40838793Y-9742789D01*
X40856712Y-9759529D01*
X40873452Y-9777505D01*
X40889112Y-9796753D01*
X40903692Y-9817271D01*
X40917193Y-9839060D01*
X40929613Y-9862120D01*
X40940953Y-9886451D01*
X40951213Y-9912053D01*
X40960393Y-9938925D01*
X40968493Y-9967068D01*
X40975513Y-9996483D01*
X40981453Y-10027167D01*
X40986313Y-10059123D01*
X40990093Y-10092350D01*
X40992793Y-10126847D01*
X40994413Y-10162615D01*
X40994953Y-10199654D01*
X40994953Y-11100422D01*
X40994413Y-11137459D01*
X40992793Y-11173222D01*
X40990093Y-11207709D01*
X40986313Y-11240923D01*
X40981453Y-11272861D01*
X40975513Y-11303525D01*
X40968493Y-11332914D01*
X40960393Y-11361029D01*
X40951213Y-11387869D01*
X40940953Y-11413434D01*
X40929613Y-11437725D01*
X40917193Y-11460741D01*
X40903692Y-11482483D01*
X40889112Y-11502949D01*
X40873452Y-11522142D01*
X40856712Y-11540059D01*
X40838793Y-11556858D01*
X40819595Y-11572574D01*
X40799118Y-11587206D01*
X40777364Y-11600753D01*
X40754330Y-11613218D01*
X40730019Y-11624598D01*
X40704428Y-11634894D01*
X40677560Y-11644107D01*
X40649413Y-11652235D01*
X40619987Y-11659280D01*
X40589283Y-11665241D01*
X40557301Y-11670118D01*
X40524040Y-11673912D01*
X40489500Y-11676621D01*
X40453683Y-11678247D01*
X40416586Y-11678789D01*
X39881695Y-11678789D01*
X39844655Y-11678247D01*
X39808887Y-11676621D01*
X39774390Y-11673912D01*
X39741163Y-11670118D01*
X39709208Y-11665241D01*
X39678523Y-11659280D01*
X39649109Y-11652235D01*
X39620965Y-11644107D01*
X39594093Y-11634894D01*
X39568491Y-11624598D01*
X39544160Y-11613218D01*
X39521100Y-11600753D01*
X39499311Y-11587206D01*
X39478793Y-11572574D01*
X39459546Y-11556858D01*
X39441569Y-11540059D01*
X39424829Y-11522142D01*
X39409169Y-11502949D01*
X39394588Y-11482483D01*
X39381088Y-11460741D01*
X39368668Y-11437725D01*
X39357328Y-11413434D01*
X39347068Y-11387869D01*
X39337888Y-11361029D01*
X39329788Y-11332914D01*
X39322768Y-11303525D01*
X39316828Y-11272861D01*
X39311968Y-11240923D01*
X39308188Y-11207709D01*
X39305487Y-11173222D01*
X39303867Y-11137459D01*
X39303327Y-11100422D01*
X39841150Y-11100422D01*
X39841749Y-11118937D01*
X39844895Y-11144469D01*
X39850737Y-11167314D01*
X39859275Y-11187471D01*
X39870509Y-11204941D01*
X39884439Y-11219723D01*
X39901066Y-11231817D01*
X39920389Y-11241224D01*
X39942408Y-11247943D01*
X39967123Y-11251974D01*
X39994535Y-11253318D01*
X40303746Y-11253318D01*
X40322320Y-11252721D01*
X40347934Y-11249585D01*
X40370852Y-11243762D01*
X40391073Y-11235251D01*
X40408599Y-11224053D01*
X40423428Y-11210167D01*
X40435561Y-11193593D01*
X40444998Y-11174332D01*
X40451738Y-11152383D01*
X40455783Y-11127746D01*
X40457131Y-11100422D01*
X40457131Y-10199654D01*
X40456532Y-10181140D01*
X40453386Y-10155607D01*
X40447544Y-10132762D01*
X40439006Y-10112605D01*
X40427772Y-10095136D01*
X40413841Y-10080354D01*
X40397215Y-10068259D01*
X40377892Y-10058853D01*
X40355873Y-10052134D01*
X40331158Y-10048102D01*
X40303746Y-10046758D01*
X39994535Y-10046758D01*
X39975961Y-10047356D01*
X39950347Y-10050491D01*
X39927429Y-10056314D01*
X39907207Y-10064825D01*
X39889682Y-10076024D01*
X39874853Y-10089910D01*
X39862720Y-10106483D01*
X39853283Y-10125745D01*
X39846543Y-10147694D01*
X39842498Y-10172330D01*
X39841150Y-10199654D01*
X39841150Y-11100422D01*
X39303327Y-11100422D01*
X39303327Y-10199654D01*
X39303867Y-10162615D01*
X39305487Y-10126847D01*
X39308188Y-10092350D01*
X39311968Y-10059123D01*
X39316828Y-10027167D01*
X39322768Y-9996483D01*
X39329788Y-9967068D01*
X39337888Y-9938925D01*
X39347068Y-9912053D01*
X39357328Y-9886451D01*
X39368668Y-9862120D01*
X39381088Y-9839060D01*
X39394588Y-9817271D01*
X39409169Y-9796753D01*
X39424829Y-9777505D01*
X39441569Y-9759529D01*
X39459546Y-9742789D01*
X39478793Y-9727128D01*
X39499311Y-9712548D01*
X39521100Y-9699048D01*
X39544160Y-9686628D01*
X39568491Y-9675288D01*
X39594093Y-9665028D01*
X39620965Y-9655848D01*
X39649109Y-9647748D01*
X39678523Y-9640728D01*
X39709208Y-9634787D01*
X39741163Y-9629927D01*
X39774390Y-9626147D01*
X39808887Y-9623447D01*
X39844655Y-9621827D01*
X39881695Y-9621287D01*
X40416586Y-9621287D01*
X40453683Y-9621827D01*
G37*
D12*
%TO.C,HOLE\u002A\u002A*%
X20000Y-22230000D02*
G75*
G03*
X-3580000Y-22230000I-1800000J0D01*
G01*
X-3580000Y-22230000D02*
G75*
G03*
X20000Y-22230000I1800000J0D01*
G01*
X20000Y-3160000D02*
G75*
G03*
X-3580000Y-3160000I-1800000J0D01*
G01*
X-3580000Y-3160000D02*
G75*
G03*
X20000Y-3160000I1800000J0D01*
G01*
X55430000Y-3160000D02*
G75*
G03*
X51830000Y-3160000I-1800000J0D01*
G01*
X51830000Y-3160000D02*
G75*
G03*
X55430000Y-3160000I1800000J0D01*
G01*
X55430000Y-22240000D02*
G75*
G03*
X51830000Y-22240000I-1800000J0D01*
G01*
X51830000Y-22240000D02*
G75*
G03*
X55430000Y-22240000I1800000J0D01*
G01*
%TD*%
%LPC*%
D13*
%TO.C,USB1*%
X639000Y-9800000D03*
X639000Y-15580000D03*
D14*
X1139000Y-8365000D03*
X1139000Y-17015000D03*
D15*
X-3061000Y-8365000D03*
X-3061000Y-17015000D03*
%TD*%
D16*
%TO.C,J3*%
X55550000Y-8895000D03*
D17*
X55550000Y-11435000D03*
X55550000Y-13975000D03*
X55550000Y-16515000D03*
%TD*%
D16*
%TO.C,J2*%
X1800000Y-1340000D03*
D17*
X4340000Y-1340000D03*
X6880000Y-1340000D03*
X9420000Y-1340000D03*
X11960000Y-1340000D03*
X14500000Y-1340000D03*
X17040000Y-1340000D03*
X19580000Y-1340000D03*
X22120000Y-1340000D03*
X24660000Y-1340000D03*
X27200000Y-1340000D03*
X29740000Y-1340000D03*
X32280000Y-1340000D03*
X34820000Y-1340000D03*
X37360000Y-1340000D03*
X39900000Y-1340000D03*
X42440000Y-1340000D03*
X44980000Y-1340000D03*
X47520000Y-1340000D03*
X50060000Y-1340000D03*
%TD*%
D18*
%TO.C,HOLE\u002A\u002A*%
X-1780000Y-22230000D03*
%TD*%
%TO.C,HOLE\u002A\u002A*%
X-1780000Y-3160000D03*
%TD*%
%TO.C,HOLE\u002A\u002A*%
X53630000Y-3160000D03*
%TD*%
D16*
%TO.C,J1*%
X1800000Y-24060000D03*
D17*
X4340000Y-24060000D03*
X6880000Y-24060000D03*
X9420000Y-24060000D03*
X11960000Y-24060000D03*
X14500000Y-24060000D03*
X17040000Y-24060000D03*
X19580000Y-24060000D03*
X22120000Y-24060000D03*
X24660000Y-24060000D03*
X27200000Y-24060000D03*
X29740000Y-24060000D03*
X32280000Y-24060000D03*
X34820000Y-24060000D03*
X37360000Y-24060000D03*
X39900000Y-24060000D03*
X42440000Y-24060000D03*
X44980000Y-24060000D03*
X47520000Y-24060000D03*
X50060000Y-24060000D03*
%TD*%
D18*
%TO.C,HOLE\u002A\u002A*%
X53630000Y-22240000D03*
%TD*%
%LPD*%
M02*
