%TF.GenerationSoftware,KiCad,Pcbnew,7.0.11*%
%TF.CreationDate,2024-04-18T21:43:45+08:00*%
%TF.ProjectId,UINIO-MCU-RP2040,55494e49-4f2d-44d4-9355-2d5250323034,Version 2.2.0*%
%TF.SameCoordinates,PX73394ecPY5396ed0*%
%TF.FileFunction,Soldermask,Top*%
%TF.FilePolarity,Negative*%
%FSLAX46Y46*%
G04 Gerber Fmt 4.6, Leading zero omitted, Abs format (unit mm)*
G04 Created by KiCad (PCBNEW 7.0.11) date 2024-04-18 21:43:45*
%MOMM*%
%LPD*%
G01*
G04 APERTURE LIST*
G04 Aperture macros list*
%AMRoundRect*
0 Rectangle with rounded corners*
0 $1 Rounding radius*
0 $2 $3 $4 $5 $6 $7 $8 $9 X,Y pos of 4 corners*
0 Add a 4 corners polygon primitive as box body*
4,1,4,$2,$3,$4,$5,$6,$7,$8,$9,$2,$3,0*
0 Add four circle primitives for the rounded corners*
1,1,$1+$1,$2,$3*
1,1,$1+$1,$4,$5*
1,1,$1+$1,$6,$7*
1,1,$1+$1,$8,$9*
0 Add four rect primitives between the rounded corners*
20,1,$1+$1,$2,$3,$4,$5,0*
20,1,$1+$1,$4,$5,$6,$7,0*
20,1,$1+$1,$6,$7,$8,$9,0*
20,1,$1+$1,$8,$9,$2,$3,0*%
%AMRotRect*
0 Rectangle, with rotation*
0 The origin of the aperture is its center*
0 $1 length*
0 $2 width*
0 $3 Rotation angle, in degrees counterclockwise*
0 Add horizontal line*
21,1,$1,$2,0,0,$3*%
G04 Aperture macros list end*
%ADD10C,0.650000*%
%ADD11O,2.100000X1.000000*%
%ADD12O,1.900000X1.000000*%
%ADD13R,1.150000X0.600000*%
%ADD14R,1.150000X0.300000*%
%ADD15RoundRect,0.225000X-0.225000X-0.250000X0.225000X-0.250000X0.225000X0.250000X-0.225000X0.250000X0*%
%ADD16RoundRect,0.135000X-0.135000X-0.185000X0.135000X-0.185000X0.135000X0.185000X-0.135000X0.185000X0*%
%ADD17RoundRect,0.135000X0.135000X0.185000X-0.135000X0.185000X-0.135000X-0.185000X0.135000X-0.185000X0*%
%ADD18RoundRect,0.125000X0.125000X-0.250000X0.125000X0.250000X-0.125000X0.250000X-0.125000X-0.250000X0*%
%ADD19R,4.300000X3.400000*%
%ADD20RoundRect,0.140000X-0.170000X0.140000X-0.170000X-0.140000X0.170000X-0.140000X0.170000X0.140000X0*%
%ADD21RoundRect,0.140000X0.140000X0.170000X-0.140000X0.170000X-0.140000X-0.170000X0.140000X-0.170000X0*%
%ADD22RoundRect,0.135000X-0.185000X0.135000X-0.185000X-0.135000X0.185000X-0.135000X0.185000X0.135000X0*%
%ADD23RoundRect,0.225000X0.225000X0.250000X-0.225000X0.250000X-0.225000X-0.250000X0.225000X-0.250000X0*%
%ADD24R,1.200000X0.650000*%
%ADD25RoundRect,0.050000X0.309359X-0.238649X-0.238649X0.309359X-0.309359X0.238649X0.238649X-0.309359X0*%
%ADD26RoundRect,0.050000X0.309359X0.238649X0.238649X0.309359X-0.309359X-0.238649X-0.238649X-0.309359X0*%
%ADD27RotRect,3.200000X3.200000X135.000000*%
%ADD28R,1.700000X1.700000*%
%ADD29O,1.700000X1.700000*%
%ADD30RoundRect,0.140000X-0.140000X-0.170000X0.140000X-0.170000X0.140000X0.170000X-0.140000X0.170000X0*%
%ADD31R,1.200000X1.400000*%
%ADD32R,0.510000X0.400000*%
%ADD33C,2.200000*%
%ADD34RoundRect,0.200000X0.200000X0.275000X-0.200000X0.275000X-0.200000X-0.275000X0.200000X-0.275000X0*%
%ADD35RoundRect,0.200000X-0.200000X-0.275000X0.200000X-0.275000X0.200000X0.275000X-0.200000X0.275000X0*%
%ADD36R,0.600000X1.000000*%
%ADD37RoundRect,0.225000X0.225000X0.375000X-0.225000X0.375000X-0.225000X-0.375000X0.225000X-0.375000X0*%
%ADD38RoundRect,0.218750X-0.218750X-0.256250X0.218750X-0.256250X0.218750X0.256250X-0.218750X0.256250X0*%
G04 APERTURE END LIST*
D10*
%TO.C,USB1*%
X639000Y-9800000D03*
X639000Y-15580000D03*
D11*
X1139000Y-8365000D03*
X1139000Y-17015000D03*
D12*
X-3061000Y-8365000D03*
X-3061000Y-17015000D03*
D13*
X1901000Y-9490000D03*
X1901000Y-10290000D03*
D14*
X1901000Y-11440000D03*
X1901000Y-12440000D03*
X1901000Y-12940000D03*
X1901000Y-13940000D03*
D13*
X1901000Y-15890000D03*
X1901000Y-15090000D03*
D14*
X1901000Y-14440000D03*
X1901000Y-13440000D03*
X1901000Y-11940000D03*
X1901000Y-10940000D03*
%TD*%
D15*
%TO.C,C3*%
X12495000Y-12230000D03*
X14045000Y-12230000D03*
%TD*%
D16*
%TO.C,R11*%
X20100000Y-10537500D03*
X21120000Y-10537500D03*
%TD*%
D17*
%TO.C,R14*%
X49019028Y-11450000D03*
X47999028Y-11450000D03*
%TD*%
D18*
%TO.C,U2*%
X19405000Y-19400000D03*
X20675000Y-19400000D03*
X21945000Y-19400000D03*
X23215000Y-19400000D03*
X23215000Y-14000000D03*
X21945000Y-14000000D03*
X20675000Y-14000000D03*
X19405000Y-14000000D03*
D19*
X21310000Y-16700000D03*
%TD*%
D20*
%TO.C,C10*%
X35780000Y-16710000D03*
X35780000Y-17670000D03*
%TD*%
D21*
%TO.C,C12*%
X23410000Y-8102500D03*
X22450000Y-8102500D03*
%TD*%
D17*
%TO.C,R10*%
X41460000Y-18545000D03*
X40440000Y-18545000D03*
%TD*%
D22*
%TO.C,R5*%
X18080000Y-18500000D03*
X18080000Y-19520000D03*
%TD*%
D23*
%TO.C,C1*%
X14045000Y-19305000D03*
X12495000Y-19305000D03*
%TD*%
D21*
%TO.C,C4*%
X41440000Y-11620000D03*
X40480000Y-11620000D03*
%TD*%
D24*
%TO.C,SW1*%
X45100000Y-7847720D03*
X49400000Y-7847720D03*
X45100000Y-9997720D03*
X49400000Y-9997720D03*
%TD*%
D21*
%TO.C,C9*%
X26360000Y-17050000D03*
X25400000Y-17050000D03*
%TD*%
D25*
%TO.C,U3*%
X32149236Y-16964157D03*
X32432079Y-16681314D03*
X32714921Y-16398472D03*
X32997764Y-16115629D03*
X33280607Y-15832786D03*
X33563449Y-15549944D03*
X33846292Y-15267101D03*
X34129135Y-14984258D03*
X34411978Y-14701415D03*
X34694820Y-14418573D03*
X34977663Y-14135730D03*
X35260506Y-13852887D03*
X35543348Y-13570045D03*
X35826191Y-13287202D03*
D26*
X35826191Y-12102798D03*
X35543348Y-11819955D03*
X35260506Y-11537113D03*
X34977663Y-11254270D03*
X34694820Y-10971427D03*
X34411978Y-10688585D03*
X34129135Y-10405742D03*
X33846292Y-10122899D03*
X33563449Y-9840056D03*
X33280607Y-9557214D03*
X32997764Y-9274371D03*
X32714921Y-8991528D03*
X32432079Y-8708686D03*
X32149236Y-8425843D03*
D25*
X30964832Y-8425843D03*
X30681989Y-8708686D03*
X30399147Y-8991528D03*
X30116304Y-9274371D03*
X29833461Y-9557214D03*
X29550619Y-9840056D03*
X29267776Y-10122899D03*
X28984933Y-10405742D03*
X28702090Y-10688585D03*
X28419248Y-10971427D03*
X28136405Y-11254270D03*
X27853562Y-11537113D03*
X27570720Y-11819955D03*
X27287877Y-12102798D03*
D26*
X27287877Y-13287202D03*
X27570720Y-13570045D03*
X27853562Y-13852887D03*
X28136405Y-14135730D03*
X28419248Y-14418573D03*
X28702090Y-14701415D03*
X28984933Y-14984258D03*
X29267776Y-15267101D03*
X29550619Y-15549944D03*
X29833461Y-15832786D03*
X30116304Y-16115629D03*
X30399147Y-16398472D03*
X30681989Y-16681314D03*
X30964832Y-16964157D03*
D27*
X31557034Y-12695000D03*
%TD*%
D28*
%TO.C,J3*%
X55550000Y-8895000D03*
D29*
X55550000Y-11435000D03*
X55550000Y-13975000D03*
X55550000Y-16515000D03*
%TD*%
D28*
%TO.C,J2*%
X1800000Y-1340000D03*
D29*
X4340000Y-1340000D03*
X6880000Y-1340000D03*
X9420000Y-1340000D03*
X11960000Y-1340000D03*
X14500000Y-1340000D03*
X17040000Y-1340000D03*
X19580000Y-1340000D03*
X22120000Y-1340000D03*
X24660000Y-1340000D03*
X27200000Y-1340000D03*
X29740000Y-1340000D03*
X32280000Y-1340000D03*
X34820000Y-1340000D03*
X37360000Y-1340000D03*
X39900000Y-1340000D03*
X42440000Y-1340000D03*
X44980000Y-1340000D03*
X47520000Y-1340000D03*
X50060000Y-1340000D03*
%TD*%
D30*
%TO.C,C17*%
X35869028Y-7910000D03*
X36829028Y-7910000D03*
%TD*%
D17*
%TO.C,R7*%
X8320000Y-11940000D03*
X7300000Y-11940000D03*
%TD*%
D24*
%TO.C,SW2*%
X45100000Y-15552569D03*
X49400000Y-15552569D03*
X45100000Y-17702569D03*
X49400000Y-17702569D03*
%TD*%
D30*
%TO.C,C7*%
X35869028Y-6880000D03*
X36829028Y-6880000D03*
%TD*%
D31*
%TO.C,Y1*%
X39320000Y-7960000D03*
X39320000Y-10160000D03*
X41020000Y-10160000D03*
X41020000Y-7960000D03*
%TD*%
D30*
%TO.C,C5*%
X40480000Y-6500000D03*
X41440000Y-6500000D03*
%TD*%
D21*
%TO.C,C15*%
X23410000Y-9325000D03*
X22450000Y-9325000D03*
%TD*%
%TO.C,C8*%
X23410000Y-10547500D03*
X22450000Y-10547500D03*
%TD*%
D16*
%TO.C,R8*%
X22420000Y-6870000D03*
X23440000Y-6870000D03*
%TD*%
D32*
%TO.C,Q1*%
X40165000Y-16283332D03*
X40165000Y-17283332D03*
X41455000Y-16783332D03*
%TD*%
D33*
%TO.C,HOLE\u002A\u002A*%
X-1780000Y-22230000D03*
%TD*%
D34*
%TO.C,R1*%
X8645000Y-19305000D03*
X6995000Y-19305000D03*
%TD*%
D23*
%TO.C,C2*%
X14045000Y-13790000D03*
X12495000Y-13790000D03*
%TD*%
D35*
%TO.C,R3*%
X6995000Y-9090000D03*
X8645000Y-9090000D03*
%TD*%
D33*
%TO.C,HOLE\u002A\u002A*%
X-1780000Y-3160000D03*
%TD*%
D36*
%TO.C,U1*%
X12500000Y-17910000D03*
X13450000Y-17910000D03*
X14400000Y-17910000D03*
X14400000Y-15310000D03*
X12500000Y-15310000D03*
%TD*%
D37*
%TO.C,D1*%
X9870000Y-16600000D03*
X6570000Y-16600000D03*
%TD*%
D20*
%TO.C,C6*%
X18070000Y-13920000D03*
X18070000Y-14880000D03*
%TD*%
D38*
%TO.C,D3*%
X19422500Y-7130000D03*
X20997500Y-7130000D03*
%TD*%
D16*
%TO.C,R13*%
X47999028Y-14100000D03*
X49019028Y-14100000D03*
%TD*%
D38*
%TO.C,D2*%
X12482500Y-7130000D03*
X14057500Y-7130000D03*
%TD*%
D17*
%TO.C,R6*%
X8320000Y-13440000D03*
X7300000Y-13440000D03*
%TD*%
D16*
%TO.C,R9*%
X40440000Y-13860000D03*
X41460000Y-13860000D03*
%TD*%
D33*
%TO.C,HOLE\u002A\u002A*%
X53630000Y-3160000D03*
%TD*%
D34*
%TO.C,R12*%
X21015000Y-8983750D03*
X19365000Y-8983750D03*
%TD*%
D28*
%TO.C,J1*%
X1800000Y-24060000D03*
D29*
X4340000Y-24060000D03*
X6880000Y-24060000D03*
X9420000Y-24060000D03*
X11960000Y-24060000D03*
X14500000Y-24060000D03*
X17040000Y-24060000D03*
X19580000Y-24060000D03*
X22120000Y-24060000D03*
X24660000Y-24060000D03*
X27200000Y-24060000D03*
X29740000Y-24060000D03*
X32280000Y-24060000D03*
X34820000Y-24060000D03*
X37360000Y-24060000D03*
X39900000Y-24060000D03*
X42440000Y-24060000D03*
X44980000Y-24060000D03*
X47520000Y-24060000D03*
X50060000Y-24060000D03*
%TD*%
D35*
%TO.C,R2*%
X6995000Y-7090000D03*
X8645000Y-7090000D03*
%TD*%
D34*
%TO.C,R4*%
X14095000Y-9090000D03*
X12445000Y-9090000D03*
%TD*%
D30*
%TO.C,C16*%
X40490000Y-15031666D03*
X41450000Y-15031666D03*
%TD*%
D21*
%TO.C,C11*%
X26360000Y-15900000D03*
X25400000Y-15900000D03*
%TD*%
D33*
%TO.C,HOLE\u002A\u002A*%
X53630000Y-22240000D03*
%TD*%
M02*
