%TF.GenerationSoftware,KiCad,Pcbnew,7.0.11*%
%TF.CreationDate,2024-04-13T19:51:53+08:00*%
%TF.ProjectId,UINIO-MCU-RP2040,55494e49-4f2d-44d4-9355-2d5250323034,Version 2.2.0*%
%TF.SameCoordinates,PX73394ecPY5396ed0*%
%TF.FileFunction,Legend,Bot*%
%TF.FilePolarity,Positive*%
%FSLAX46Y46*%
G04 Gerber Fmt 4.6, Leading zero omitted, Abs format (unit mm)*
G04 Created by KiCad (PCBNEW 7.0.11) date 2024-04-13 19:51:53*
%MOMM*%
%LPD*%
G01*
G04 APERTURE LIST*
%ADD10C,0.300000*%
%ADD11C,0.325000*%
%ADD12C,0.100000*%
%ADD13C,0.650000*%
%ADD14O,2.100000X1.000000*%
%ADD15O,1.900000X1.000000*%
%ADD16R,1.700000X1.700000*%
%ADD17O,1.700000X1.700000*%
%ADD18C,2.200000*%
G04 APERTURE END LIST*
D10*
G36*
X18951616Y-9353763D02*
G01*
X18991107Y-9362876D01*
X19031927Y-9382812D01*
X19063254Y-9412240D01*
X19085088Y-9451162D01*
X19095720Y-9489134D01*
X19100276Y-9533181D01*
X19100466Y-9545143D01*
X19100466Y-10670614D01*
X19097429Y-10715951D01*
X19088315Y-10755244D01*
X19068380Y-10795859D01*
X19038952Y-10827028D01*
X19000030Y-10848752D01*
X18962058Y-10859331D01*
X18918010Y-10863865D01*
X18906049Y-10864054D01*
X18230962Y-10864054D01*
X18185624Y-10861031D01*
X18146332Y-10851964D01*
X18105717Y-10832129D01*
X18074547Y-10802848D01*
X18052823Y-10764122D01*
X18042244Y-10726341D01*
X18037710Y-10682515D01*
X18037521Y-10670614D01*
X18037521Y-9545143D01*
X18040544Y-9499576D01*
X18049612Y-9460085D01*
X18069447Y-9419265D01*
X18098727Y-9387938D01*
X18137453Y-9366104D01*
X18175234Y-9355472D01*
X18219061Y-9350915D01*
X18230962Y-9350725D01*
X18906049Y-9350725D01*
X18951616Y-9353763D01*
G37*
G36*
X27331563Y-8425290D02*
G01*
X27380993Y-8433353D01*
X27425032Y-8446791D01*
X27463677Y-8465604D01*
X27496931Y-8489793D01*
X27524791Y-8519357D01*
X27547260Y-8554296D01*
X27564336Y-8594610D01*
X27576019Y-8640300D01*
X27582311Y-8691365D01*
X27583509Y-8728394D01*
X27583509Y-10529930D01*
X27580813Y-10584578D01*
X27572724Y-10633851D01*
X27559243Y-10677749D01*
X27540370Y-10716272D01*
X27516104Y-10749419D01*
X27486445Y-10777191D01*
X27451395Y-10799588D01*
X27410951Y-10816610D01*
X27365116Y-10828256D01*
X27313888Y-10834527D01*
X27276740Y-10835722D01*
X26320285Y-10835722D01*
X26265462Y-10833034D01*
X26216031Y-10824971D01*
X26171993Y-10811533D01*
X26133348Y-10792720D01*
X26100094Y-10768531D01*
X26072233Y-10738967D01*
X26049765Y-10704028D01*
X26032689Y-10663714D01*
X26021005Y-10618024D01*
X26014714Y-10566959D01*
X26013516Y-10529930D01*
X26013516Y-8728394D01*
X26016212Y-8673746D01*
X26024301Y-8624473D01*
X26037782Y-8580575D01*
X26056655Y-8542052D01*
X26080921Y-8508905D01*
X26110580Y-8481133D01*
X26145630Y-8458736D01*
X26186073Y-8441714D01*
X26231909Y-8430068D01*
X26283137Y-8423797D01*
X26320285Y-8422602D01*
X27276740Y-8422602D01*
X27331563Y-8425290D01*
G37*
G36*
X40977687Y-12258093D02*
G01*
X11233015Y-12258093D01*
X11233015Y-11630000D01*
X11804444Y-11630000D01*
X12851757Y-11630000D01*
X12851757Y-9572498D01*
X12856432Y-9530309D01*
X12870457Y-9492890D01*
X12893832Y-9460241D01*
X12899629Y-9454284D01*
X12931323Y-9429555D01*
X12967788Y-9413984D01*
X13009023Y-9407573D01*
X13017842Y-9407390D01*
X13046175Y-9407390D01*
X13093917Y-9408308D01*
X13143719Y-9411065D01*
X13195583Y-9415659D01*
X13249507Y-9422090D01*
X13305492Y-9430359D01*
X13363538Y-9440465D01*
X13403380Y-9448224D01*
X13444138Y-9456799D01*
X13485812Y-9466191D01*
X13528402Y-9476400D01*
X13571907Y-9487425D01*
X13616329Y-9499267D01*
X13661667Y-9511926D01*
X13661667Y-11630000D01*
X14708980Y-11630000D01*
X14708980Y-9572498D01*
X14713560Y-9530309D01*
X14727298Y-9492890D01*
X14750196Y-9460241D01*
X14755875Y-9454284D01*
X14787664Y-9429555D01*
X14824415Y-9413984D01*
X14866127Y-9407573D01*
X14875065Y-9407390D01*
X14903397Y-9407390D01*
X14951139Y-9408308D01*
X15000942Y-9411065D01*
X15052805Y-9415659D01*
X15106729Y-9422090D01*
X15162714Y-9430359D01*
X15220760Y-9440465D01*
X15260602Y-9448224D01*
X15301360Y-9456799D01*
X15343034Y-9466191D01*
X15385624Y-9476400D01*
X15429130Y-9487425D01*
X15473552Y-9499267D01*
X15518889Y-9511926D01*
X15518889Y-11630000D01*
X16566203Y-11630000D01*
X16566203Y-10754633D01*
X16990208Y-10754633D01*
X16991177Y-10808252D01*
X16994086Y-10860421D01*
X16998932Y-10911139D01*
X17005718Y-10960408D01*
X17014442Y-11008226D01*
X17025104Y-11054594D01*
X17037706Y-11099512D01*
X17052246Y-11142979D01*
X17068725Y-11184997D01*
X17087142Y-11225564D01*
X17107498Y-11264681D01*
X17129793Y-11302348D01*
X17154026Y-11338564D01*
X17180199Y-11373331D01*
X17208309Y-11406647D01*
X17238359Y-11438513D01*
X17270107Y-11468563D01*
X17303312Y-11496673D01*
X17337976Y-11522846D01*
X17374097Y-11547079D01*
X17411676Y-11569374D01*
X17450713Y-11589730D01*
X17491207Y-11608147D01*
X17533160Y-11624626D01*
X17576570Y-11639166D01*
X17621439Y-11651768D01*
X17667765Y-11662430D01*
X17715548Y-11671154D01*
X17764790Y-11677940D01*
X17815489Y-11682786D01*
X17867647Y-11685695D01*
X17921262Y-11686664D01*
X19215749Y-11686664D01*
X19269368Y-11685695D01*
X19321537Y-11682786D01*
X19372255Y-11677940D01*
X19421524Y-11671154D01*
X19469342Y-11662430D01*
X19515710Y-11651768D01*
X19560628Y-11639166D01*
X19604095Y-11624626D01*
X19646113Y-11608147D01*
X19686680Y-11589730D01*
X19725797Y-11569374D01*
X19763464Y-11547079D01*
X19799680Y-11522846D01*
X19834447Y-11496673D01*
X19867763Y-11468563D01*
X19899629Y-11438513D01*
X19929678Y-11406647D01*
X19957789Y-11373331D01*
X19983961Y-11338564D01*
X20008195Y-11302348D01*
X20030490Y-11264681D01*
X20050846Y-11225564D01*
X20069263Y-11184997D01*
X20085742Y-11142979D01*
X20100282Y-11099512D01*
X20112883Y-11054594D01*
X20123546Y-11008226D01*
X20132270Y-10960408D01*
X20139056Y-10911139D01*
X20143902Y-10860421D01*
X20146810Y-10808252D01*
X20147780Y-10754633D01*
X20147780Y-9460146D01*
X20146810Y-9406531D01*
X20143902Y-9354374D01*
X20139056Y-9303674D01*
X20132270Y-9254433D01*
X20123546Y-9206649D01*
X20112883Y-9160323D01*
X20100282Y-9115455D01*
X20085742Y-9072044D01*
X20069263Y-9030092D01*
X20050846Y-8989597D01*
X20030490Y-8950560D01*
X20008195Y-8912981D01*
X19983961Y-8876860D01*
X19957789Y-8842196D01*
X19929678Y-8808991D01*
X19899629Y-8777243D01*
X19867763Y-8747194D01*
X19834447Y-8719083D01*
X19799680Y-8692911D01*
X19763464Y-8668677D01*
X19725797Y-8646382D01*
X19686680Y-8626026D01*
X19646113Y-8607609D01*
X19604095Y-8591130D01*
X19585112Y-8584780D01*
X20463341Y-8584780D01*
X20463341Y-9407390D01*
X21985463Y-9407390D01*
X22031029Y-9410412D01*
X22070520Y-9419480D01*
X22111340Y-9439315D01*
X22142667Y-9468595D01*
X22164501Y-9507321D01*
X22175134Y-9545102D01*
X22179690Y-9588929D01*
X22179880Y-9600830D01*
X22179880Y-10697969D01*
X22175301Y-10740673D01*
X22161562Y-10778416D01*
X22138664Y-10811198D01*
X22132986Y-10817159D01*
X22100776Y-10841889D01*
X22063987Y-10857459D01*
X22022618Y-10863871D01*
X22013795Y-10864054D01*
X21948548Y-10863714D01*
X21879080Y-10862695D01*
X21805391Y-10860997D01*
X21727481Y-10858620D01*
X21686944Y-10857176D01*
X21645351Y-10855563D01*
X21602703Y-10853780D01*
X21559000Y-10851827D01*
X21514241Y-10849704D01*
X21468427Y-10847411D01*
X21421559Y-10844949D01*
X21373635Y-10842316D01*
X21324655Y-10839514D01*
X21274621Y-10836542D01*
X21223531Y-10833400D01*
X21171386Y-10830089D01*
X21118186Y-10826607D01*
X21063931Y-10822956D01*
X21008620Y-10819135D01*
X20952255Y-10815144D01*
X20894834Y-10810984D01*
X20836358Y-10806653D01*
X20776826Y-10802153D01*
X20716240Y-10797482D01*
X20654598Y-10792642D01*
X20591901Y-10787633D01*
X20528149Y-10782453D01*
X20463341Y-10777103D01*
X20463341Y-11570404D01*
X20530668Y-11577557D01*
X20597457Y-11584483D01*
X20663711Y-11591181D01*
X20729429Y-11597653D01*
X20794610Y-11603897D01*
X20859255Y-11609914D01*
X20923364Y-11615705D01*
X20986937Y-11621268D01*
X21049974Y-11626604D01*
X21112474Y-11631713D01*
X21174438Y-11636595D01*
X21235866Y-11641250D01*
X21296758Y-11645678D01*
X21357114Y-11649879D01*
X21416933Y-11653852D01*
X21476217Y-11657599D01*
X21534964Y-11661119D01*
X21593175Y-11664411D01*
X21650849Y-11667476D01*
X21707988Y-11670315D01*
X21764590Y-11672926D01*
X21820656Y-11675310D01*
X21876186Y-11677468D01*
X21931180Y-11679398D01*
X21985637Y-11681101D01*
X22039559Y-11682577D01*
X22092944Y-11683825D01*
X22145793Y-11684847D01*
X22198106Y-11685642D01*
X22249882Y-11686210D01*
X22301123Y-11686550D01*
X22351827Y-11686664D01*
X22400561Y-11685725D01*
X22448089Y-11682909D01*
X22494412Y-11678215D01*
X22539528Y-11671643D01*
X22583438Y-11663194D01*
X22626142Y-11652867D01*
X22667641Y-11640662D01*
X22707933Y-11626580D01*
X22747020Y-11610620D01*
X22784900Y-11592783D01*
X22821575Y-11573068D01*
X22857043Y-11551475D01*
X22891306Y-11528005D01*
X22924363Y-11502657D01*
X22956214Y-11475432D01*
X22986859Y-11446329D01*
X23015962Y-11415684D01*
X23043187Y-11383833D01*
X23068535Y-11350776D01*
X23092005Y-11316514D01*
X23113598Y-11281045D01*
X23133313Y-11244371D01*
X23151150Y-11206490D01*
X23167110Y-11167404D01*
X23181192Y-11127111D01*
X23193396Y-11085613D01*
X23203723Y-11042908D01*
X23212173Y-10998998D01*
X23218744Y-10953882D01*
X23223438Y-10907560D01*
X23226255Y-10860032D01*
X23227194Y-10811297D01*
X23227194Y-10723370D01*
X23551548Y-10723370D01*
X23551548Y-11630000D01*
X24627194Y-11630000D01*
X24627194Y-10723370D01*
X23551548Y-10723370D01*
X23227194Y-10723370D01*
X23227194Y-10529930D01*
X24938847Y-10529930D01*
X24939927Y-10604008D01*
X24943167Y-10675544D01*
X24948567Y-10744539D01*
X24956128Y-10810992D01*
X24965848Y-10874904D01*
X24977728Y-10936273D01*
X24991768Y-10995102D01*
X25007968Y-11051388D01*
X25026328Y-11105133D01*
X25046849Y-11156336D01*
X25069529Y-11204998D01*
X25094369Y-11251118D01*
X25121369Y-11294696D01*
X25150530Y-11335733D01*
X25181850Y-11374228D01*
X25215330Y-11410181D01*
X25251169Y-11443661D01*
X25289565Y-11474982D01*
X25330517Y-11504142D01*
X25374027Y-11531142D01*
X25420094Y-11555982D01*
X25468717Y-11578663D01*
X25519897Y-11599183D01*
X25573635Y-11617543D01*
X25629929Y-11633743D01*
X25688780Y-11647783D01*
X25750188Y-11659664D01*
X25814153Y-11669384D01*
X25880675Y-11676944D01*
X25949753Y-11682344D01*
X26021389Y-11685584D01*
X26095581Y-11686664D01*
X27502420Y-11686664D01*
X27576498Y-11685584D01*
X27648035Y-11682344D01*
X27717030Y-11676944D01*
X27783483Y-11669384D01*
X27847394Y-11659664D01*
X27908764Y-11647783D01*
X27967592Y-11633743D01*
X28023879Y-11617543D01*
X28077624Y-11599183D01*
X28128827Y-11578663D01*
X28177488Y-11555982D01*
X28223608Y-11531142D01*
X28267187Y-11504142D01*
X28308223Y-11474982D01*
X28346718Y-11443661D01*
X28382672Y-11410181D01*
X28416152Y-11374228D01*
X28447472Y-11335733D01*
X28476633Y-11294696D01*
X28503633Y-11251118D01*
X28528473Y-11204998D01*
X28551153Y-11156336D01*
X28571674Y-11105133D01*
X28590034Y-11051388D01*
X28606234Y-10995102D01*
X28620274Y-10936273D01*
X28632154Y-10874904D01*
X28641874Y-10810992D01*
X28649434Y-10744539D01*
X28654834Y-10675544D01*
X28658074Y-10604008D01*
X28659154Y-10529930D01*
X28659154Y-8728394D01*
X28658074Y-8654320D01*
X28654834Y-8582795D01*
X28649434Y-8513820D01*
X28641874Y-8447393D01*
X28632154Y-8383516D01*
X28620274Y-8322188D01*
X28606234Y-8263410D01*
X28590034Y-8207180D01*
X28571674Y-8153500D01*
X28551153Y-8102370D01*
X28528473Y-8053788D01*
X28503633Y-8007756D01*
X28476633Y-7964273D01*
X28447472Y-7923340D01*
X28416152Y-7884955D01*
X28382672Y-7849120D01*
X28346718Y-7815522D01*
X28308223Y-7784091D01*
X28267187Y-7754827D01*
X28223608Y-7727732D01*
X28177488Y-7702803D01*
X28128827Y-7680043D01*
X28077624Y-7659450D01*
X28023879Y-7641025D01*
X27979907Y-7628325D01*
X28975693Y-7628325D01*
X28975693Y-8478290D01*
X29481764Y-8478290D01*
X29481764Y-10780034D01*
X28975693Y-10780034D01*
X28975693Y-11630000D01*
X31063481Y-11630000D01*
X31375135Y-11630000D01*
X32422448Y-11630000D01*
X32422448Y-9572498D01*
X32427028Y-9530309D01*
X32440766Y-9492890D01*
X32463664Y-9460241D01*
X32469343Y-9454284D01*
X32501037Y-9429555D01*
X32537502Y-9413984D01*
X32578737Y-9407573D01*
X32587556Y-9407390D01*
X32784905Y-9407390D01*
X32840366Y-9408308D01*
X32896840Y-9411065D01*
X32954328Y-9415659D01*
X32993216Y-9419742D01*
X33032554Y-9424642D01*
X33072343Y-9430359D01*
X33112582Y-9436892D01*
X33153271Y-9444243D01*
X33194411Y-9452409D01*
X33236001Y-9461393D01*
X33278041Y-9471193D01*
X33320532Y-9481810D01*
X33363473Y-9493244D01*
X33406864Y-9505494D01*
X33428729Y-9511926D01*
X33428729Y-11630000D01*
X34476042Y-11630000D01*
X34476042Y-8697131D01*
X34965505Y-8697131D01*
X34965505Y-11630000D01*
X36012818Y-11630000D01*
X36012818Y-9519741D01*
X36434870Y-9519741D01*
X36434870Y-8697131D01*
X34965505Y-8697131D01*
X34476042Y-8697131D01*
X34476042Y-8584780D01*
X33546942Y-8584780D01*
X33495163Y-8845631D01*
X33451651Y-8818013D01*
X33407212Y-8791581D01*
X33361846Y-8766333D01*
X33315553Y-8742271D01*
X33268332Y-8719393D01*
X33220184Y-8697700D01*
X33171108Y-8677192D01*
X33121105Y-8657869D01*
X33070175Y-8639731D01*
X33018317Y-8622779D01*
X32983230Y-8612135D01*
X32930871Y-8597294D01*
X32880041Y-8583913D01*
X32830739Y-8571992D01*
X32782966Y-8561531D01*
X32736721Y-8552529D01*
X32692005Y-8544987D01*
X32648816Y-8538905D01*
X32607157Y-8534282D01*
X32567026Y-8531120D01*
X32515895Y-8529173D01*
X32503537Y-8529092D01*
X32250501Y-8529092D01*
X32201653Y-8530031D01*
X32154025Y-8532848D01*
X32107619Y-8537542D01*
X32062434Y-8544113D01*
X32018471Y-8552563D01*
X31975728Y-8562889D01*
X31934207Y-8575094D01*
X31893907Y-8589176D01*
X31854828Y-8605136D01*
X31816970Y-8622973D01*
X31780334Y-8642688D01*
X31744919Y-8664281D01*
X31710725Y-8687751D01*
X31677752Y-8713099D01*
X31646000Y-8740324D01*
X31615470Y-8769427D01*
X31586367Y-8799958D01*
X31559141Y-8831709D01*
X31533794Y-8864682D01*
X31510323Y-8898876D01*
X31488731Y-8934291D01*
X31469016Y-8970928D01*
X31451178Y-9008785D01*
X31435219Y-9047864D01*
X31421136Y-9088164D01*
X31408932Y-9129685D01*
X31398605Y-9172428D01*
X31390156Y-9216392D01*
X31383584Y-9261577D01*
X31378890Y-9307983D01*
X31376074Y-9355610D01*
X31375135Y-9404459D01*
X31375135Y-11630000D01*
X31063481Y-11630000D01*
X31063481Y-10780034D01*
X30557410Y-10780034D01*
X30557410Y-8478290D01*
X31063481Y-8478290D01*
X31063481Y-7628325D01*
X28975693Y-7628325D01*
X27979907Y-7628325D01*
X27967592Y-7624768D01*
X27908764Y-7610678D01*
X27847394Y-7598756D01*
X27783483Y-7589002D01*
X27717030Y-7581415D01*
X27648035Y-7575996D01*
X27576498Y-7572744D01*
X27502420Y-7571660D01*
X34965505Y-7571660D01*
X34965505Y-8422602D01*
X36012818Y-8422602D01*
X36012818Y-7628325D01*
X36799280Y-7628325D01*
X36799280Y-10529930D01*
X36800360Y-10604008D01*
X36803600Y-10675544D01*
X36809000Y-10744539D01*
X36816560Y-10810992D01*
X36826280Y-10874904D01*
X36838160Y-10936273D01*
X36852201Y-10995102D01*
X36868401Y-11051388D01*
X36886761Y-11105133D01*
X36907281Y-11156336D01*
X36929961Y-11204998D01*
X36954802Y-11251118D01*
X36981802Y-11294696D01*
X37010962Y-11335733D01*
X37042283Y-11374228D01*
X37075763Y-11410181D01*
X37111602Y-11443661D01*
X37149997Y-11474982D01*
X37190950Y-11504142D01*
X37234460Y-11531142D01*
X37280526Y-11555982D01*
X37329150Y-11578663D01*
X37380330Y-11599183D01*
X37434067Y-11617543D01*
X37490361Y-11633743D01*
X37549212Y-11647783D01*
X37610620Y-11659664D01*
X37674585Y-11669384D01*
X37741107Y-11676944D01*
X37810186Y-11682344D01*
X37881822Y-11685584D01*
X37956014Y-11686664D01*
X39249524Y-11686664D01*
X39323717Y-11685584D01*
X39395353Y-11682344D01*
X39464431Y-11676944D01*
X39530953Y-11669384D01*
X39594918Y-11659664D01*
X39656326Y-11647783D01*
X39715177Y-11633743D01*
X39771471Y-11617543D01*
X39825208Y-11599183D01*
X39876389Y-11578663D01*
X39925012Y-11555982D01*
X39971079Y-11531142D01*
X40014588Y-11504142D01*
X40055541Y-11474982D01*
X40093937Y-11443661D01*
X40129775Y-11410181D01*
X40163256Y-11374228D01*
X40194576Y-11335733D01*
X40223736Y-11294696D01*
X40250737Y-11251118D01*
X40275577Y-11204998D01*
X40298257Y-11156336D01*
X40318777Y-11105133D01*
X40337138Y-11051388D01*
X40353338Y-10995102D01*
X40367378Y-10936273D01*
X40379258Y-10874904D01*
X40388978Y-10810992D01*
X40396538Y-10744539D01*
X40401938Y-10675544D01*
X40405178Y-10604008D01*
X40406258Y-10529930D01*
X40406258Y-7628325D01*
X39331590Y-7628325D01*
X39331590Y-10529930D01*
X39328894Y-10584578D01*
X39320805Y-10633851D01*
X39307324Y-10677749D01*
X39288450Y-10716272D01*
X39264185Y-10749419D01*
X39234526Y-10777191D01*
X39199475Y-10799588D01*
X39159032Y-10816610D01*
X39113197Y-10828256D01*
X39061969Y-10834527D01*
X39024821Y-10835722D01*
X38180718Y-10835722D01*
X38125895Y-10833034D01*
X38076464Y-10824971D01*
X38032426Y-10811533D01*
X37993780Y-10792720D01*
X37960527Y-10768531D01*
X37932666Y-10738967D01*
X37910198Y-10704028D01*
X37893122Y-10663714D01*
X37881438Y-10618024D01*
X37875147Y-10566959D01*
X37873949Y-10529930D01*
X37873949Y-7628325D01*
X36799280Y-7628325D01*
X36012818Y-7628325D01*
X36012818Y-7571660D01*
X34965505Y-7571660D01*
X27502420Y-7571660D01*
X26095581Y-7571660D01*
X26021389Y-7572744D01*
X25949753Y-7575996D01*
X25880675Y-7581415D01*
X25814153Y-7589002D01*
X25750188Y-7598756D01*
X25688780Y-7610678D01*
X25629929Y-7624768D01*
X25573635Y-7641025D01*
X25519897Y-7659450D01*
X25468717Y-7680043D01*
X25420094Y-7702803D01*
X25374027Y-7727732D01*
X25330517Y-7754827D01*
X25289565Y-7784091D01*
X25251169Y-7815522D01*
X25215330Y-7849120D01*
X25181850Y-7884955D01*
X25150530Y-7923340D01*
X25121369Y-7964273D01*
X25094369Y-8007756D01*
X25069529Y-8053788D01*
X25046849Y-8102370D01*
X25026328Y-8153500D01*
X25007968Y-8207180D01*
X24991768Y-8263410D01*
X24977728Y-8322188D01*
X24965848Y-8383516D01*
X24956128Y-8447393D01*
X24948567Y-8513820D01*
X24943167Y-8582795D01*
X24939927Y-8654320D01*
X24938847Y-8728394D01*
X24938847Y-10529930D01*
X23227194Y-10529930D01*
X23227194Y-9516810D01*
X23226224Y-9463195D01*
X23223316Y-9411038D01*
X23218469Y-9360338D01*
X23211684Y-9311097D01*
X23202960Y-9263313D01*
X23192297Y-9216987D01*
X23179696Y-9172119D01*
X23165156Y-9128709D01*
X23148677Y-9086756D01*
X23130260Y-9046261D01*
X23109904Y-9007224D01*
X23087609Y-8969645D01*
X23063375Y-8933524D01*
X23037203Y-8898861D01*
X23009092Y-8865655D01*
X22979043Y-8833907D01*
X22947177Y-8803740D01*
X22913860Y-8775518D01*
X22879094Y-8749243D01*
X22842877Y-8724914D01*
X22805211Y-8702531D01*
X22766094Y-8682095D01*
X22725526Y-8663605D01*
X22683509Y-8647062D01*
X22640041Y-8632464D01*
X22595124Y-8619813D01*
X22548756Y-8609109D01*
X22500937Y-8600350D01*
X22451669Y-8593538D01*
X22400950Y-8588672D01*
X22348782Y-8585753D01*
X22295163Y-8584780D01*
X20463341Y-8584780D01*
X19585112Y-8584780D01*
X19560628Y-8576590D01*
X19515710Y-8563989D01*
X19469342Y-8553326D01*
X19421524Y-8544602D01*
X19372255Y-8537816D01*
X19321537Y-8532970D01*
X19269368Y-8530062D01*
X19215749Y-8529092D01*
X17921262Y-8529092D01*
X17867647Y-8530062D01*
X17815489Y-8532970D01*
X17764790Y-8537816D01*
X17715548Y-8544602D01*
X17667765Y-8553326D01*
X17621439Y-8563989D01*
X17576570Y-8576590D01*
X17533160Y-8591130D01*
X17491207Y-8607609D01*
X17450713Y-8626026D01*
X17411676Y-8646382D01*
X17374097Y-8668677D01*
X17337976Y-8692911D01*
X17303312Y-8719083D01*
X17270107Y-8747194D01*
X17238359Y-8777243D01*
X17208309Y-8808991D01*
X17180199Y-8842196D01*
X17154026Y-8876860D01*
X17129793Y-8912981D01*
X17107498Y-8950560D01*
X17087142Y-8989597D01*
X17068725Y-9030092D01*
X17052246Y-9072044D01*
X17037706Y-9115455D01*
X17025104Y-9160323D01*
X17014442Y-9206649D01*
X17005718Y-9254433D01*
X16998932Y-9303674D01*
X16994086Y-9354374D01*
X16991177Y-9406531D01*
X16990208Y-9460146D01*
X16990208Y-10670614D01*
X16990208Y-10754633D01*
X16566203Y-10754633D01*
X16566203Y-8584780D01*
X15637103Y-8584780D01*
X15585323Y-8845631D01*
X15541812Y-8818013D01*
X15497373Y-8791581D01*
X15452007Y-8766333D01*
X15405713Y-8742271D01*
X15358492Y-8719393D01*
X15310344Y-8697700D01*
X15261268Y-8677192D01*
X15211265Y-8657869D01*
X15160335Y-8639731D01*
X15108477Y-8622779D01*
X15073390Y-8612135D01*
X15021032Y-8597294D01*
X14970202Y-8583913D01*
X14920900Y-8571992D01*
X14873126Y-8561531D01*
X14826882Y-8552529D01*
X14782165Y-8544987D01*
X14738977Y-8538905D01*
X14697317Y-8534282D01*
X14657186Y-8531120D01*
X14606055Y-8529173D01*
X14593697Y-8529092D01*
X14537033Y-8529092D01*
X14479071Y-8530363D01*
X14422911Y-8534176D01*
X14368551Y-8540530D01*
X14315993Y-8549426D01*
X14265237Y-8560863D01*
X14216281Y-8574842D01*
X14169127Y-8591363D01*
X14123774Y-8610425D01*
X14080223Y-8632029D01*
X14038472Y-8656175D01*
X13998523Y-8682862D01*
X13960376Y-8712091D01*
X13924029Y-8743862D01*
X13889484Y-8778174D01*
X13856740Y-8815028D01*
X13825798Y-8854424D01*
X13780517Y-8825069D01*
X13734069Y-8797088D01*
X13686453Y-8770481D01*
X13637670Y-8745247D01*
X13587718Y-8721388D01*
X13536599Y-8698902D01*
X13484312Y-8677790D01*
X13430857Y-8658053D01*
X13376235Y-8639689D01*
X13320444Y-8622698D01*
X13282602Y-8612135D01*
X13244633Y-8602079D01*
X13188640Y-8588211D01*
X13133797Y-8575804D01*
X13080104Y-8564856D01*
X13027563Y-8555367D01*
X12976171Y-8547339D01*
X12925931Y-8540770D01*
X12876841Y-8535661D01*
X12828902Y-8532012D01*
X12782113Y-8529822D01*
X12736475Y-8529092D01*
X12679810Y-8529092D01*
X12631076Y-8530031D01*
X12583548Y-8532848D01*
X12537226Y-8537542D01*
X12492110Y-8544113D01*
X12448199Y-8552563D01*
X12405495Y-8562889D01*
X12363997Y-8575094D01*
X12323704Y-8589176D01*
X12284618Y-8605136D01*
X12246737Y-8622973D01*
X12210063Y-8642688D01*
X12174594Y-8664281D01*
X12140331Y-8687751D01*
X12107275Y-8713099D01*
X12075424Y-8740324D01*
X12044779Y-8769427D01*
X12015676Y-8799958D01*
X11988450Y-8831709D01*
X11963103Y-8864682D01*
X11939632Y-8898876D01*
X11918040Y-8934291D01*
X11898325Y-8970928D01*
X11880488Y-9008785D01*
X11864528Y-9047864D01*
X11850446Y-9088164D01*
X11838241Y-9129685D01*
X11827914Y-9172428D01*
X11819465Y-9216392D01*
X11812893Y-9261577D01*
X11808199Y-9307983D01*
X11805383Y-9355610D01*
X11804444Y-9404459D01*
X11804444Y-11630000D01*
X11233015Y-11630000D01*
X11233015Y-7000231D01*
X40977687Y-7000231D01*
X40977687Y-12258093D01*
G37*
D11*
G36*
X32384958Y-19131699D02*
G01*
X32026287Y-18097819D01*
X31614860Y-18097819D01*
X32173932Y-19575000D01*
X32595983Y-19575000D01*
X33155422Y-18097819D01*
X32743628Y-18097819D01*
X32384958Y-19131699D01*
G37*
G36*
X31304282Y-18435957D02*
G01*
X31323263Y-18437009D01*
X31341708Y-18438762D01*
X31359618Y-18441217D01*
X31376994Y-18444372D01*
X31393833Y-18448229D01*
X31410138Y-18452787D01*
X31425907Y-18458046D01*
X31441142Y-18464007D01*
X31455841Y-18470669D01*
X31470004Y-18478032D01*
X31483633Y-18486096D01*
X31496726Y-18494862D01*
X31509284Y-18504329D01*
X31521307Y-18514497D01*
X31532794Y-18525366D01*
X31543664Y-18536809D01*
X31553832Y-18548790D01*
X31563298Y-18561310D01*
X31572064Y-18574367D01*
X31580128Y-18587963D01*
X31587491Y-18602096D01*
X31594153Y-18616768D01*
X31600114Y-18631978D01*
X31605373Y-18647726D01*
X31609931Y-18664012D01*
X31613788Y-18680836D01*
X31616944Y-18698198D01*
X31619398Y-18716099D01*
X31621151Y-18734537D01*
X31622203Y-18753513D01*
X31622554Y-18773028D01*
X31622554Y-19279710D01*
X31622216Y-19297396D01*
X31621203Y-19314640D01*
X31619514Y-19331445D01*
X31617150Y-19347808D01*
X31614110Y-19363730D01*
X31610395Y-19379212D01*
X31606004Y-19394253D01*
X31600938Y-19408853D01*
X31595196Y-19423013D01*
X31588779Y-19436731D01*
X31581687Y-19450009D01*
X31573919Y-19462846D01*
X31565475Y-19475243D01*
X31556356Y-19487198D01*
X31546562Y-19498713D01*
X31536092Y-19509787D01*
X31525018Y-19520257D01*
X31513503Y-19530051D01*
X31501547Y-19539170D01*
X31489151Y-19547614D01*
X31476314Y-19555382D01*
X31463036Y-19562474D01*
X31449318Y-19568892D01*
X31435158Y-19574633D01*
X31420558Y-19579699D01*
X31405517Y-19584090D01*
X31390035Y-19587805D01*
X31374113Y-19590845D01*
X31357749Y-19593209D01*
X31340945Y-19594898D01*
X31323700Y-19595911D01*
X31306015Y-19596249D01*
X31285219Y-19596207D01*
X31264275Y-19596083D01*
X31243184Y-19595875D01*
X31221946Y-19595585D01*
X31200560Y-19595211D01*
X31179027Y-19594755D01*
X31157346Y-19594215D01*
X31135518Y-19593592D01*
X31113543Y-19592887D01*
X31091420Y-19592098D01*
X31069150Y-19591227D01*
X31046732Y-19590272D01*
X31024167Y-19589235D01*
X31001454Y-19588114D01*
X30978595Y-19586911D01*
X30955587Y-19585624D01*
X30932433Y-19584254D01*
X30909131Y-19582802D01*
X30885681Y-19581266D01*
X30862084Y-19579648D01*
X30838340Y-19577946D01*
X30814448Y-19576162D01*
X30790409Y-19574294D01*
X30766223Y-19572343D01*
X30741889Y-19570310D01*
X30717408Y-19568193D01*
X30692779Y-19565994D01*
X30668003Y-19563711D01*
X30643079Y-19561345D01*
X30618008Y-19558897D01*
X30592790Y-19556365D01*
X30567424Y-19553750D01*
X30567424Y-19289968D01*
X30592422Y-19291929D01*
X30617041Y-19293828D01*
X30641280Y-19295664D01*
X30665141Y-19297438D01*
X30688622Y-19299150D01*
X30711723Y-19300800D01*
X30734446Y-19302388D01*
X30756789Y-19303913D01*
X30778753Y-19305376D01*
X30800338Y-19306776D01*
X30821543Y-19308115D01*
X30842369Y-19309391D01*
X30862816Y-19310605D01*
X30882884Y-19311757D01*
X30902573Y-19312846D01*
X30921882Y-19313873D01*
X30940812Y-19314838D01*
X30959363Y-19315741D01*
X30977534Y-19316581D01*
X30995326Y-19317360D01*
X31012739Y-19318075D01*
X31029773Y-19318729D01*
X31046428Y-19319321D01*
X31062703Y-19319850D01*
X31078599Y-19320317D01*
X31094116Y-19320721D01*
X31109254Y-19321064D01*
X31124012Y-19321344D01*
X31152391Y-19321717D01*
X31179253Y-19321842D01*
X31188848Y-19321332D01*
X31204858Y-19317845D01*
X31219245Y-19311054D01*
X31232009Y-19300959D01*
X31239231Y-19292617D01*
X31247261Y-19278703D01*
X31251930Y-19263109D01*
X31253258Y-19247836D01*
X31253258Y-19163572D01*
X30524926Y-19163572D01*
X30524926Y-18899790D01*
X30894221Y-18899790D01*
X31253258Y-18899790D01*
X31253258Y-18783653D01*
X31253176Y-18778468D01*
X31251192Y-18759377D01*
X31246564Y-18742920D01*
X31239291Y-18729095D01*
X31229373Y-18717904D01*
X31216811Y-18709346D01*
X31201604Y-18703421D01*
X31183753Y-18700129D01*
X31168628Y-18699389D01*
X30978851Y-18699389D01*
X30973645Y-18699471D01*
X30954471Y-18701446D01*
X30937941Y-18706054D01*
X30924057Y-18713296D01*
X30912817Y-18723170D01*
X30904222Y-18735678D01*
X30898271Y-18750819D01*
X30894965Y-18768594D01*
X30894221Y-18783653D01*
X30894221Y-18899790D01*
X30524926Y-18899790D01*
X30524926Y-18773028D01*
X30525277Y-18753513D01*
X30526329Y-18734537D01*
X30528082Y-18716099D01*
X30530536Y-18698198D01*
X30533692Y-18680836D01*
X30537549Y-18664012D01*
X30542107Y-18647726D01*
X30547366Y-18631978D01*
X30553327Y-18616768D01*
X30559988Y-18602096D01*
X30567351Y-18587963D01*
X30575416Y-18574367D01*
X30584181Y-18561310D01*
X30593648Y-18548790D01*
X30603816Y-18536809D01*
X30614685Y-18525366D01*
X30626173Y-18514497D01*
X30638196Y-18504329D01*
X30650754Y-18494862D01*
X30663847Y-18486096D01*
X30677475Y-18478032D01*
X30691639Y-18470669D01*
X30706338Y-18464007D01*
X30721572Y-18458046D01*
X30737342Y-18452787D01*
X30753646Y-18448229D01*
X30770486Y-18444372D01*
X30787861Y-18441217D01*
X30805772Y-18438762D01*
X30824217Y-18437009D01*
X30843198Y-18435957D01*
X30862714Y-18435607D01*
X31284766Y-18435607D01*
X31304282Y-18435957D01*
G37*
G36*
X29698775Y-18762404D02*
G01*
X29715431Y-18762651D01*
X29732154Y-18763394D01*
X29748942Y-18764632D01*
X29765796Y-18766365D01*
X29782717Y-18768593D01*
X29799702Y-18771317D01*
X29816754Y-18774535D01*
X29833872Y-18778249D01*
X29851055Y-18782458D01*
X29868304Y-18787162D01*
X29885619Y-18792361D01*
X29903000Y-18798055D01*
X29920447Y-18804245D01*
X29937959Y-18810930D01*
X29955537Y-18818110D01*
X29973182Y-18825785D01*
X29973182Y-19575000D01*
X30342477Y-19575000D01*
X30342477Y-18456489D01*
X30015313Y-18456489D01*
X29994431Y-18593876D01*
X29983057Y-18584139D01*
X29971652Y-18574711D01*
X29948744Y-18556782D01*
X29925707Y-18540089D01*
X29902542Y-18524633D01*
X29879248Y-18510414D01*
X29855825Y-18497431D01*
X29832273Y-18485684D01*
X29808592Y-18475174D01*
X29784783Y-18465900D01*
X29760845Y-18457863D01*
X29736778Y-18451063D01*
X29712582Y-18445498D01*
X29688258Y-18441171D01*
X29663804Y-18438080D01*
X29639222Y-18436225D01*
X29614511Y-18435607D01*
X29519623Y-18435607D01*
X29519623Y-18762404D01*
X29698775Y-18762404D01*
G37*
G36*
X29418872Y-19279710D02*
G01*
X29392282Y-19281648D01*
X29366046Y-19283525D01*
X29340164Y-19285341D01*
X29314636Y-19287094D01*
X29289462Y-19288787D01*
X29264643Y-19290417D01*
X29240178Y-19291987D01*
X29216067Y-19293494D01*
X29192310Y-19294940D01*
X29168908Y-19296325D01*
X29145859Y-19297648D01*
X29123165Y-19298910D01*
X29100825Y-19300110D01*
X29078839Y-19301248D01*
X29057208Y-19302325D01*
X29035930Y-19303340D01*
X29015007Y-19304294D01*
X28994438Y-19305187D01*
X28974223Y-19306017D01*
X28954363Y-19306787D01*
X28934856Y-19307494D01*
X28915704Y-19308140D01*
X28896906Y-19308725D01*
X28878462Y-19309248D01*
X28860373Y-19309710D01*
X28842637Y-19310110D01*
X28825256Y-19310448D01*
X28808229Y-19310725D01*
X28791556Y-19310940D01*
X28775238Y-19311094D01*
X28759273Y-19311186D01*
X28743663Y-19311217D01*
X28728551Y-19309912D01*
X28713082Y-19305324D01*
X28699236Y-19297431D01*
X28690907Y-19290334D01*
X28680635Y-19277541D01*
X28673725Y-19263068D01*
X28670405Y-19248791D01*
X28669657Y-19237212D01*
X28669657Y-19163572D01*
X29123583Y-19163572D01*
X29141268Y-19163235D01*
X29158513Y-19162221D01*
X29175317Y-19160533D01*
X29191681Y-19158169D01*
X29207603Y-19155129D01*
X29223085Y-19151414D01*
X29238126Y-19147023D01*
X29252726Y-19141957D01*
X29266886Y-19136215D01*
X29280604Y-19129798D01*
X29293882Y-19122706D01*
X29306719Y-19114938D01*
X29319115Y-19106494D01*
X29331071Y-19097375D01*
X29342586Y-19087580D01*
X29353660Y-19077110D01*
X29364130Y-19066037D01*
X29373924Y-19054522D01*
X29383043Y-19042566D01*
X29391487Y-19030170D01*
X29399255Y-19017333D01*
X29406347Y-19004055D01*
X29412764Y-18990337D01*
X29418506Y-18976177D01*
X29423572Y-18961577D01*
X29427963Y-18946536D01*
X29431678Y-18931054D01*
X29434718Y-18915132D01*
X29437082Y-18898768D01*
X29438771Y-18881964D01*
X29439784Y-18864719D01*
X29440122Y-18847034D01*
X29440122Y-18773028D01*
X29439784Y-18755344D01*
X29438771Y-18738103D01*
X29437082Y-18721306D01*
X29434718Y-18704953D01*
X29431678Y-18689043D01*
X29427963Y-18673577D01*
X29423572Y-18658555D01*
X29418506Y-18643976D01*
X29412764Y-18629841D01*
X29406347Y-18616150D01*
X29399255Y-18602902D01*
X29391487Y-18590098D01*
X29383043Y-18577737D01*
X29373924Y-18565820D01*
X29364130Y-18554347D01*
X29353660Y-18543318D01*
X29342586Y-18532803D01*
X29331071Y-18522967D01*
X29319115Y-18513810D01*
X29306719Y-18505330D01*
X29293882Y-18497529D01*
X29280604Y-18490407D01*
X29266886Y-18483962D01*
X29252726Y-18478196D01*
X29238126Y-18473109D01*
X29223085Y-18468700D01*
X29207603Y-18464969D01*
X29191681Y-18461916D01*
X29175317Y-18459542D01*
X29158513Y-18457846D01*
X29141268Y-18456829D01*
X29123583Y-18456489D01*
X28405875Y-18456489D01*
X28405875Y-18730896D01*
X28996821Y-18730896D01*
X29012094Y-18732224D01*
X29027688Y-18736893D01*
X29041602Y-18744924D01*
X29049944Y-18752145D01*
X29060038Y-18764761D01*
X29066829Y-18779116D01*
X29070317Y-18795210D01*
X29070826Y-18804902D01*
X29069521Y-18820014D01*
X29064933Y-18835483D01*
X29057040Y-18849329D01*
X29049944Y-18857658D01*
X29037151Y-18867753D01*
X29022677Y-18874544D01*
X29006522Y-18878031D01*
X28996821Y-18878541D01*
X28616901Y-18878541D01*
X28599217Y-18878880D01*
X28581976Y-18879898D01*
X28565179Y-18881594D01*
X28548826Y-18883968D01*
X28532916Y-18887020D01*
X28517450Y-18890751D01*
X28502428Y-18895161D01*
X28487849Y-18900248D01*
X28473714Y-18906014D01*
X28460023Y-18912458D01*
X28446775Y-18919581D01*
X28433971Y-18927382D01*
X28421610Y-18935861D01*
X28409693Y-18945019D01*
X28398220Y-18954855D01*
X28387191Y-18965369D01*
X28376676Y-18976399D01*
X28366840Y-18987872D01*
X28357683Y-18999789D01*
X28349203Y-19012149D01*
X28341402Y-19024954D01*
X28334280Y-19038201D01*
X28327835Y-19051893D01*
X28322069Y-19066028D01*
X28316982Y-19080607D01*
X28312573Y-19095629D01*
X28308842Y-19111095D01*
X28305789Y-19127005D01*
X28303415Y-19143358D01*
X28301719Y-19160155D01*
X28300701Y-19177396D01*
X28300362Y-19195080D01*
X28300362Y-19279710D01*
X28300701Y-19297396D01*
X28301719Y-19314640D01*
X28303415Y-19331445D01*
X28305789Y-19347808D01*
X28308842Y-19363730D01*
X28312573Y-19379212D01*
X28316982Y-19394253D01*
X28322069Y-19408853D01*
X28327835Y-19423013D01*
X28334280Y-19436731D01*
X28341402Y-19450009D01*
X28349203Y-19462846D01*
X28357683Y-19475243D01*
X28366840Y-19487198D01*
X28376676Y-19498713D01*
X28387191Y-19509787D01*
X28398220Y-19520257D01*
X28409693Y-19530051D01*
X28421610Y-19539170D01*
X28433971Y-19547614D01*
X28446775Y-19555382D01*
X28460023Y-19562474D01*
X28473714Y-19568892D01*
X28487849Y-19574633D01*
X28502428Y-19579699D01*
X28517450Y-19584090D01*
X28532916Y-19587805D01*
X28548826Y-19590845D01*
X28565179Y-19593209D01*
X28581976Y-19594898D01*
X28599217Y-19595911D01*
X28616901Y-19596249D01*
X28640310Y-19596207D01*
X28663826Y-19596083D01*
X28687448Y-19595875D01*
X28711177Y-19595585D01*
X28735012Y-19595211D01*
X28758954Y-19594755D01*
X28783003Y-19594215D01*
X28807159Y-19593592D01*
X28831421Y-19592887D01*
X28855789Y-19592098D01*
X28880264Y-19591227D01*
X28904846Y-19590272D01*
X28929535Y-19589235D01*
X28954330Y-19588114D01*
X28979231Y-19586911D01*
X29004240Y-19585624D01*
X29029355Y-19584254D01*
X29054576Y-19582802D01*
X29079904Y-19581266D01*
X29105339Y-19579648D01*
X29130880Y-19577946D01*
X29156528Y-19576162D01*
X29182283Y-19574294D01*
X29208144Y-19572343D01*
X29234112Y-19570310D01*
X29260187Y-19568193D01*
X29286368Y-19565994D01*
X29312655Y-19563711D01*
X29339050Y-19561345D01*
X29365551Y-19558897D01*
X29392158Y-19556365D01*
X29418872Y-19553750D01*
X29418872Y-19279710D01*
G37*
G36*
X27715279Y-18498621D02*
G01*
X27715279Y-19575000D01*
X28084574Y-19575000D01*
X28084574Y-18783653D01*
X28242843Y-18783653D01*
X28242843Y-18498621D01*
X27715279Y-18498621D01*
G37*
G36*
X28084574Y-18076570D02*
G01*
X27715279Y-18076570D01*
X27715279Y-18372226D01*
X28084574Y-18372226D01*
X28084574Y-18076570D01*
G37*
G36*
X27211260Y-18435957D02*
G01*
X27230241Y-18437009D01*
X27248686Y-18438762D01*
X27266597Y-18441217D01*
X27283972Y-18444372D01*
X27300812Y-18448229D01*
X27317116Y-18452787D01*
X27332886Y-18458046D01*
X27348120Y-18464007D01*
X27362819Y-18470669D01*
X27376983Y-18478032D01*
X27390611Y-18486096D01*
X27403704Y-18494862D01*
X27416262Y-18504329D01*
X27428285Y-18514497D01*
X27439773Y-18525366D01*
X27450642Y-18536809D01*
X27460810Y-18548790D01*
X27470277Y-18561310D01*
X27479042Y-18574367D01*
X27487107Y-18587963D01*
X27494470Y-18602096D01*
X27501131Y-18616768D01*
X27507092Y-18631978D01*
X27512351Y-18647726D01*
X27516909Y-18664012D01*
X27520766Y-18680836D01*
X27523922Y-18698198D01*
X27526376Y-18716099D01*
X27528129Y-18734537D01*
X27529181Y-18753513D01*
X27529532Y-18773028D01*
X27529532Y-19258461D01*
X27529181Y-19277977D01*
X27528129Y-19296958D01*
X27526376Y-19315403D01*
X27523922Y-19333314D01*
X27520766Y-19350689D01*
X27516909Y-19367529D01*
X27512351Y-19383833D01*
X27507092Y-19399603D01*
X27501131Y-19414837D01*
X27494470Y-19429536D01*
X27487107Y-19443699D01*
X27479042Y-19457328D01*
X27470277Y-19470421D01*
X27460810Y-19482979D01*
X27450642Y-19495002D01*
X27439773Y-19506489D01*
X27428285Y-19517359D01*
X27416262Y-19527527D01*
X27403704Y-19536994D01*
X27390611Y-19545759D01*
X27376983Y-19553823D01*
X27362819Y-19561186D01*
X27348120Y-19567848D01*
X27332886Y-19573809D01*
X27317116Y-19579068D01*
X27300812Y-19583626D01*
X27283972Y-19587483D01*
X27266597Y-19590639D01*
X27248686Y-19593093D01*
X27230241Y-19594846D01*
X27211260Y-19595898D01*
X27191744Y-19596249D01*
X26706311Y-19596249D01*
X26686797Y-19595898D01*
X26667820Y-19594846D01*
X26649382Y-19593093D01*
X26631481Y-19590639D01*
X26614119Y-19587483D01*
X26597295Y-19583626D01*
X26581009Y-19579068D01*
X26565261Y-19573809D01*
X26550051Y-19567848D01*
X26535380Y-19561186D01*
X26521246Y-19553823D01*
X26507650Y-19545759D01*
X26494593Y-19536994D01*
X26482074Y-19527527D01*
X26470092Y-19517359D01*
X26458649Y-19506489D01*
X26447780Y-19495002D01*
X26437612Y-19482979D01*
X26428145Y-19470421D01*
X26419379Y-19457328D01*
X26411315Y-19443699D01*
X26403952Y-19429536D01*
X26397290Y-19414837D01*
X26391330Y-19399603D01*
X26386070Y-19383833D01*
X26381512Y-19367529D01*
X26377655Y-19350689D01*
X26374500Y-19333314D01*
X26372045Y-19315403D01*
X26370292Y-19296958D01*
X26369240Y-19277977D01*
X26368890Y-19258461D01*
X26368890Y-19226953D01*
X26738185Y-19226953D01*
X26738267Y-19232138D01*
X26740242Y-19251229D01*
X26744850Y-19267686D01*
X26752092Y-19281511D01*
X26761967Y-19292702D01*
X26774474Y-19301260D01*
X26789616Y-19307185D01*
X26807390Y-19310477D01*
X26822449Y-19311217D01*
X27075607Y-19311217D01*
X27080813Y-19311135D01*
X27099987Y-19309160D01*
X27116517Y-19304552D01*
X27130401Y-19297310D01*
X27141641Y-19287436D01*
X27150236Y-19274928D01*
X27156187Y-19259787D01*
X27159493Y-19242012D01*
X27160237Y-19226953D01*
X27160237Y-18804902D01*
X27160154Y-18799695D01*
X27158171Y-18780521D01*
X27153542Y-18763992D01*
X27146269Y-18750107D01*
X27136352Y-18738867D01*
X27123790Y-18730272D01*
X27108583Y-18724321D01*
X27090731Y-18721015D01*
X27075607Y-18720272D01*
X26822449Y-18720272D01*
X26817265Y-18720354D01*
X26798174Y-18722338D01*
X26781716Y-18726966D01*
X26767891Y-18734239D01*
X26756700Y-18744157D01*
X26748142Y-18756719D01*
X26742217Y-18771926D01*
X26738926Y-18789777D01*
X26738185Y-18804902D01*
X26738185Y-19226953D01*
X26368890Y-19226953D01*
X26368890Y-18773028D01*
X26369240Y-18753513D01*
X26370292Y-18734537D01*
X26372045Y-18716099D01*
X26374500Y-18698198D01*
X26377655Y-18680836D01*
X26381512Y-18664012D01*
X26386070Y-18647726D01*
X26391330Y-18631978D01*
X26397290Y-18616768D01*
X26403952Y-18602096D01*
X26411315Y-18587963D01*
X26419379Y-18574367D01*
X26428145Y-18561310D01*
X26437612Y-18548790D01*
X26447780Y-18536809D01*
X26458649Y-18525366D01*
X26470092Y-18514497D01*
X26482074Y-18504329D01*
X26494593Y-18494862D01*
X26507650Y-18486096D01*
X26521246Y-18478032D01*
X26535380Y-18470669D01*
X26550051Y-18464007D01*
X26565261Y-18458046D01*
X26581009Y-18452787D01*
X26597295Y-18448229D01*
X26614119Y-18444372D01*
X26631481Y-18441217D01*
X26649382Y-18438762D01*
X26667820Y-18437009D01*
X26686797Y-18435957D01*
X26706311Y-18435607D01*
X27191744Y-18435607D01*
X27211260Y-18435957D01*
G37*
G36*
X25563988Y-18741521D02*
G01*
X25585200Y-18741891D01*
X25606934Y-18743002D01*
X25621713Y-18744154D01*
X25636724Y-18745635D01*
X25651967Y-18747446D01*
X25667441Y-18749585D01*
X25683148Y-18752054D01*
X25699086Y-18754852D01*
X25715256Y-18757979D01*
X25731658Y-18761435D01*
X25748292Y-18765220D01*
X25765157Y-18769334D01*
X25782255Y-18773778D01*
X25799584Y-18778551D01*
X25817145Y-18783653D01*
X25817145Y-19575000D01*
X26186440Y-19575000D01*
X26186440Y-18456489D01*
X25859277Y-18456489D01*
X25838394Y-18562002D01*
X25825964Y-18553987D01*
X25813493Y-18546243D01*
X25794712Y-18535137D01*
X25775841Y-18524643D01*
X25756879Y-18514761D01*
X25737827Y-18505491D01*
X25718686Y-18496832D01*
X25699454Y-18488785D01*
X25680131Y-18481350D01*
X25660719Y-18474527D01*
X25641217Y-18468316D01*
X25634696Y-18466381D01*
X25615405Y-18460881D01*
X25596687Y-18455923D01*
X25578542Y-18451505D01*
X25560971Y-18447628D01*
X25543972Y-18444292D01*
X25527547Y-18441497D01*
X25511695Y-18439243D01*
X25496416Y-18437530D01*
X25481711Y-18436358D01*
X25462994Y-18435637D01*
X25458475Y-18435607D01*
X25363586Y-18435607D01*
X25345858Y-18435944D01*
X25328576Y-18436958D01*
X25311740Y-18438646D01*
X25295351Y-18441010D01*
X25279408Y-18444050D01*
X25263912Y-18447765D01*
X25248863Y-18452156D01*
X25234260Y-18457222D01*
X25220103Y-18462964D01*
X25206393Y-18469381D01*
X25193130Y-18476473D01*
X25180313Y-18484241D01*
X25167942Y-18492685D01*
X25156018Y-18501804D01*
X25144541Y-18511599D01*
X25133510Y-18522069D01*
X25123040Y-18533100D01*
X25113245Y-18544577D01*
X25104126Y-18556501D01*
X25095682Y-18568872D01*
X25087914Y-18581689D01*
X25080822Y-18594952D01*
X25074405Y-18608662D01*
X25068663Y-18622819D01*
X25063597Y-18637422D01*
X25059206Y-18652471D01*
X25055491Y-18667967D01*
X25052451Y-18683910D01*
X25050087Y-18700299D01*
X25048399Y-18717135D01*
X25047385Y-18734417D01*
X25047048Y-18752145D01*
X25047048Y-19575000D01*
X25416343Y-19575000D01*
X25416343Y-18815160D01*
X25417671Y-18800070D01*
X25422340Y-18784682D01*
X25430371Y-18770974D01*
X25437592Y-18762770D01*
X25450179Y-18752498D01*
X25464447Y-18745588D01*
X25480395Y-18742040D01*
X25489982Y-18741521D01*
X25563988Y-18741521D01*
G37*
G36*
X23158073Y-18562002D02*
G01*
X23158667Y-18584252D01*
X23160449Y-18606121D01*
X23163419Y-18627609D01*
X23167576Y-18648716D01*
X23172921Y-18669443D01*
X23179454Y-18689789D01*
X23187175Y-18709754D01*
X23196084Y-18729339D01*
X23206180Y-18748543D01*
X23217464Y-18767367D01*
X23229937Y-18785809D01*
X23243597Y-18803871D01*
X23258444Y-18821553D01*
X23274480Y-18838853D01*
X23291703Y-18855773D01*
X23310115Y-18872313D01*
X23321878Y-18882302D01*
X23333905Y-18892303D01*
X23346196Y-18902315D01*
X23358749Y-18912338D01*
X23371566Y-18922373D01*
X23384647Y-18932419D01*
X23397990Y-18942477D01*
X23411597Y-18952547D01*
X23865156Y-19279710D01*
X23158073Y-19279710D01*
X23158073Y-19575000D01*
X24297833Y-19575000D01*
X24297833Y-19174197D01*
X23537993Y-18625383D01*
X23537993Y-18519870D01*
X23538488Y-18504520D01*
X23541088Y-18483352D01*
X23545916Y-18464412D01*
X23552972Y-18447700D01*
X23562256Y-18433217D01*
X23573769Y-18420961D01*
X23587510Y-18410934D01*
X23603479Y-18403135D01*
X23621676Y-18397565D01*
X23642101Y-18394222D01*
X23656956Y-18393232D01*
X23664755Y-18393108D01*
X24255701Y-18393108D01*
X24255701Y-18097819D01*
X23580125Y-18097819D01*
X23552937Y-18098211D01*
X23526693Y-18099387D01*
X23501394Y-18101348D01*
X23477039Y-18104093D01*
X23453629Y-18107622D01*
X23431164Y-18111935D01*
X23409643Y-18117033D01*
X23389066Y-18122915D01*
X23369434Y-18129581D01*
X23350747Y-18137031D01*
X23333004Y-18145266D01*
X23316205Y-18154285D01*
X23300352Y-18164088D01*
X23285442Y-18174675D01*
X23271477Y-18186047D01*
X23258457Y-18198203D01*
X23246301Y-18211180D01*
X23234930Y-18225107D01*
X23224342Y-18239985D01*
X23214539Y-18255813D01*
X23205520Y-18272592D01*
X23197286Y-18290320D01*
X23189835Y-18308999D01*
X23183169Y-18328628D01*
X23177287Y-18349208D01*
X23172190Y-18370737D01*
X23167877Y-18393217D01*
X23164347Y-18416647D01*
X23161603Y-18441028D01*
X23159642Y-18466358D01*
X23158466Y-18492639D01*
X23158073Y-18519870D01*
X23158073Y-18562002D01*
G37*
G36*
X23038272Y-19258461D02*
G01*
X22658353Y-19258461D01*
X22658353Y-19575000D01*
X23038272Y-19575000D01*
X23038272Y-19258461D01*
G37*
G36*
X21415645Y-18562002D02*
G01*
X21416239Y-18584252D01*
X21418021Y-18606121D01*
X21420990Y-18627609D01*
X21425148Y-18648716D01*
X21430493Y-18669443D01*
X21437026Y-18689789D01*
X21444747Y-18709754D01*
X21453655Y-18729339D01*
X21463752Y-18748543D01*
X21475036Y-18767367D01*
X21487508Y-18785809D01*
X21501168Y-18803871D01*
X21516016Y-18821553D01*
X21532051Y-18838853D01*
X21549275Y-18855773D01*
X21567686Y-18872313D01*
X21579450Y-18882302D01*
X21591477Y-18892303D01*
X21603767Y-18902315D01*
X21616321Y-18912338D01*
X21629138Y-18922373D01*
X21642218Y-18932419D01*
X21655562Y-18942477D01*
X21669169Y-18952547D01*
X22122728Y-19279710D01*
X21415645Y-19279710D01*
X21415645Y-19575000D01*
X22555404Y-19575000D01*
X22555404Y-19174197D01*
X21795565Y-18625383D01*
X21795565Y-18519870D01*
X21796060Y-18504520D01*
X21798659Y-18483352D01*
X21803487Y-18464412D01*
X21810543Y-18447700D01*
X21819828Y-18433217D01*
X21831340Y-18420961D01*
X21845081Y-18410934D01*
X21861050Y-18403135D01*
X21879247Y-18397565D01*
X21899673Y-18394222D01*
X21914528Y-18393232D01*
X21922327Y-18393108D01*
X22513272Y-18393108D01*
X22513272Y-18097819D01*
X21837697Y-18097819D01*
X21810508Y-18098211D01*
X21784265Y-18099387D01*
X21758965Y-18101348D01*
X21734611Y-18104093D01*
X21711201Y-18107622D01*
X21688735Y-18111935D01*
X21667214Y-18117033D01*
X21646638Y-18122915D01*
X21627006Y-18129581D01*
X21608318Y-18137031D01*
X21590575Y-18145266D01*
X21573777Y-18154285D01*
X21557923Y-18164088D01*
X21543014Y-18174675D01*
X21529049Y-18186047D01*
X21516029Y-18198203D01*
X21503873Y-18211180D01*
X21492501Y-18225107D01*
X21481914Y-18239985D01*
X21472111Y-18255813D01*
X21463092Y-18272592D01*
X21454857Y-18290320D01*
X21447407Y-18308999D01*
X21440741Y-18328628D01*
X21434859Y-18349208D01*
X21429761Y-18370737D01*
X21425448Y-18393217D01*
X21421919Y-18416647D01*
X21419174Y-18441028D01*
X21417213Y-18466358D01*
X21416037Y-18492639D01*
X21415645Y-18519870D01*
X21415645Y-18562002D01*
G37*
G36*
X21295844Y-19258461D02*
G01*
X20915924Y-19258461D01*
X20915924Y-19575000D01*
X21295844Y-19575000D01*
X21295844Y-19258461D01*
G37*
G36*
X20375980Y-18076962D02*
G01*
X20402224Y-18078138D01*
X20427523Y-18080099D01*
X20451878Y-18082844D01*
X20475288Y-18086373D01*
X20497754Y-18090686D01*
X20519275Y-18095784D01*
X20539851Y-18101666D01*
X20559483Y-18108332D01*
X20578171Y-18115782D01*
X20595913Y-18124017D01*
X20612712Y-18133036D01*
X20628566Y-18142839D01*
X20643475Y-18153426D01*
X20657440Y-18164798D01*
X20670460Y-18176953D01*
X20682616Y-18189974D01*
X20693987Y-18203938D01*
X20704575Y-18218848D01*
X20714378Y-18234702D01*
X20723397Y-18251500D01*
X20731631Y-18269243D01*
X20739082Y-18287930D01*
X20745748Y-18307562D01*
X20751630Y-18328139D01*
X20756727Y-18349660D01*
X20761041Y-18372125D01*
X20764570Y-18395536D01*
X20767315Y-18419890D01*
X20769275Y-18445189D01*
X20770452Y-18471433D01*
X20770844Y-18498621D01*
X20770844Y-19174197D01*
X20770452Y-19201385D01*
X20769275Y-19227629D01*
X20767315Y-19252928D01*
X20764570Y-19277283D01*
X20761041Y-19300693D01*
X20756727Y-19323158D01*
X20751630Y-19344679D01*
X20745748Y-19365256D01*
X20739082Y-19384888D01*
X20731631Y-19403575D01*
X20723397Y-19421318D01*
X20714378Y-19438117D01*
X20704575Y-19453970D01*
X20693987Y-19468880D01*
X20682616Y-19482845D01*
X20670460Y-19495865D01*
X20657440Y-19508021D01*
X20643475Y-19519392D01*
X20628566Y-19529980D01*
X20612712Y-19539783D01*
X20595913Y-19548802D01*
X20578171Y-19557036D01*
X20559483Y-19564487D01*
X20539851Y-19571153D01*
X20519275Y-19577035D01*
X20497754Y-19582132D01*
X20475288Y-19586446D01*
X20451878Y-19589975D01*
X20427523Y-19592720D01*
X20402224Y-19594680D01*
X20375980Y-19595857D01*
X20348792Y-19596249D01*
X19947623Y-19596249D01*
X19920392Y-19595857D01*
X19894111Y-19594680D01*
X19868781Y-19592720D01*
X19844400Y-19589975D01*
X19820970Y-19586446D01*
X19798490Y-19582132D01*
X19776961Y-19577035D01*
X19756381Y-19571153D01*
X19736752Y-19564487D01*
X19718073Y-19557036D01*
X19700345Y-19548802D01*
X19683566Y-19539783D01*
X19667738Y-19529980D01*
X19652860Y-19519392D01*
X19638933Y-19508021D01*
X19625955Y-19495865D01*
X19613800Y-19482845D01*
X19602428Y-19468880D01*
X19591841Y-19453970D01*
X19582038Y-19438117D01*
X19573019Y-19421318D01*
X19564784Y-19403575D01*
X19557334Y-19384888D01*
X19550668Y-19365256D01*
X19544786Y-19344679D01*
X19539688Y-19323158D01*
X19535375Y-19300693D01*
X19531846Y-19277283D01*
X19529101Y-19252928D01*
X19527140Y-19227629D01*
X19525964Y-19201385D01*
X19525572Y-19174197D01*
X19905491Y-19174197D01*
X19905615Y-19181973D01*
X19906606Y-19196785D01*
X19909948Y-19217152D01*
X19915518Y-19235296D01*
X19923317Y-19251219D01*
X19933344Y-19264920D01*
X19945600Y-19276400D01*
X19960083Y-19285657D01*
X19976795Y-19292693D01*
X19995735Y-19297507D01*
X20016903Y-19300099D01*
X20032253Y-19300593D01*
X20264162Y-19300593D01*
X20271961Y-19300469D01*
X20286816Y-19299482D01*
X20307241Y-19296149D01*
X20325439Y-19290595D01*
X20341408Y-19282818D01*
X20355148Y-19272820D01*
X20366661Y-19260600D01*
X20375945Y-19246159D01*
X20383001Y-19229495D01*
X20387829Y-19210610D01*
X20390429Y-19189503D01*
X20390924Y-19174197D01*
X20390924Y-18498621D01*
X20390800Y-18490845D01*
X20389810Y-18476033D01*
X20386468Y-18455666D01*
X20380897Y-18437522D01*
X20373098Y-18421599D01*
X20363071Y-18407898D01*
X20350816Y-18396419D01*
X20336332Y-18387161D01*
X20319620Y-18380125D01*
X20300680Y-18375311D01*
X20279512Y-18372719D01*
X20264162Y-18372226D01*
X20032253Y-18372226D01*
X20024455Y-18372349D01*
X20009600Y-18373336D01*
X19989174Y-18376669D01*
X19970977Y-18382224D01*
X19955008Y-18390000D01*
X19941267Y-18399998D01*
X19929754Y-18412218D01*
X19920470Y-18426660D01*
X19913414Y-18443323D01*
X19908586Y-18462208D01*
X19905987Y-18483316D01*
X19905491Y-18498621D01*
X19905491Y-19174197D01*
X19525572Y-19174197D01*
X19525572Y-18498621D01*
X19525964Y-18471433D01*
X19527140Y-18445189D01*
X19529101Y-18419890D01*
X19531846Y-18395536D01*
X19535375Y-18372125D01*
X19539688Y-18349660D01*
X19544786Y-18328139D01*
X19550668Y-18307562D01*
X19557334Y-18287930D01*
X19564784Y-18269243D01*
X19573019Y-18251500D01*
X19582038Y-18234702D01*
X19591841Y-18218848D01*
X19602428Y-18203938D01*
X19613800Y-18189974D01*
X19625955Y-18176953D01*
X19638933Y-18164798D01*
X19652860Y-18153426D01*
X19667738Y-18142839D01*
X19683566Y-18133036D01*
X19700345Y-18124017D01*
X19718073Y-18115782D01*
X19736752Y-18108332D01*
X19756381Y-18101666D01*
X19776961Y-18095784D01*
X19798490Y-18090686D01*
X19820970Y-18086373D01*
X19844400Y-18082844D01*
X19868781Y-18080099D01*
X19894111Y-18078138D01*
X19920392Y-18076962D01*
X19947623Y-18076570D01*
X20348792Y-18076570D01*
X20375980Y-18076962D01*
G37*
D10*
G36*
X39788813Y-14082120D02*
G01*
X39224612Y-14082120D01*
X39224612Y-15605463D01*
X39225179Y-15644354D01*
X39226880Y-15681910D01*
X39229715Y-15718133D01*
X39233684Y-15753021D01*
X39238787Y-15786574D01*
X39245024Y-15818793D01*
X39252395Y-15849678D01*
X39260900Y-15879229D01*
X39270539Y-15907445D01*
X39281313Y-15934326D01*
X39293220Y-15959874D01*
X39306261Y-15984087D01*
X39320436Y-16006965D01*
X39335745Y-16028509D01*
X39352188Y-16048719D01*
X39369766Y-16067595D01*
X39388581Y-16085172D01*
X39408739Y-16101615D01*
X39430239Y-16116924D01*
X39453081Y-16131099D01*
X39477266Y-16144141D01*
X39502794Y-16156048D01*
X39529663Y-16166821D01*
X39557875Y-16176460D01*
X39587430Y-16184965D01*
X39618327Y-16192336D01*
X39650566Y-16198573D01*
X39684147Y-16203676D01*
X39719071Y-16207645D01*
X39755338Y-16210480D01*
X39792946Y-16212181D01*
X39831897Y-16212748D01*
X40510990Y-16212748D01*
X40549941Y-16212181D01*
X40587550Y-16210480D01*
X40623816Y-16207645D01*
X40658740Y-16203676D01*
X40692322Y-16198573D01*
X40724561Y-16192336D01*
X40755458Y-16184965D01*
X40785012Y-16176460D01*
X40813224Y-16166821D01*
X40840094Y-16156048D01*
X40865621Y-16144141D01*
X40889806Y-16131099D01*
X40912649Y-16116924D01*
X40934149Y-16101615D01*
X40954307Y-16085172D01*
X40973122Y-16067595D01*
X40990699Y-16048719D01*
X41007142Y-16028509D01*
X41022452Y-16006965D01*
X41036627Y-15984087D01*
X41049668Y-15959874D01*
X41061575Y-15934326D01*
X41072348Y-15907445D01*
X41081987Y-15879229D01*
X41090492Y-15849678D01*
X41097863Y-15818793D01*
X41104100Y-15786574D01*
X41109204Y-15753021D01*
X41113173Y-15718133D01*
X41116008Y-15681910D01*
X41117709Y-15644354D01*
X41118276Y-15605463D01*
X41118276Y-14082120D01*
X40554075Y-14082120D01*
X40554075Y-15605463D01*
X40552659Y-15634153D01*
X40548413Y-15660022D01*
X40541335Y-15683068D01*
X40531426Y-15703292D01*
X40518687Y-15720695D01*
X40503116Y-15735275D01*
X40484715Y-15747034D01*
X40463482Y-15755970D01*
X40439418Y-15762084D01*
X40412524Y-15765377D01*
X40393021Y-15766004D01*
X39949867Y-15766004D01*
X39921085Y-15764593D01*
X39895134Y-15760360D01*
X39872014Y-15753305D01*
X39851725Y-15743428D01*
X39834267Y-15730729D01*
X39819640Y-15715208D01*
X39807844Y-15696865D01*
X39798879Y-15675699D01*
X39792745Y-15651712D01*
X39789442Y-15624903D01*
X39788813Y-15605463D01*
X39788813Y-14082120D01*
G37*
G36*
X37907459Y-16183000D02*
G01*
X39003548Y-16183000D01*
X39003548Y-15736768D01*
X38737860Y-15736768D01*
X38737860Y-14528352D01*
X39003548Y-14528352D01*
X39003548Y-14082120D01*
X37907459Y-14082120D01*
X37907459Y-14528352D01*
X38173147Y-14528352D01*
X38173147Y-15736768D01*
X37907459Y-15736768D01*
X37907459Y-16183000D01*
G37*
G36*
X35847100Y-16183000D02*
G01*
X36434382Y-16183000D01*
X37117578Y-14987406D01*
X37117578Y-16183000D01*
X37681779Y-16183000D01*
X37681779Y-14082120D01*
X37094497Y-14082120D01*
X36411814Y-15277200D01*
X36411814Y-14082120D01*
X35847100Y-14082120D01*
X35847100Y-16183000D01*
G37*
G36*
X34528408Y-16183000D02*
G01*
X35624497Y-16183000D01*
X35624497Y-15736768D01*
X35358809Y-15736768D01*
X35358809Y-14528352D01*
X35624497Y-14528352D01*
X35624497Y-14082120D01*
X34528408Y-14082120D01*
X34528408Y-14528352D01*
X34794096Y-14528352D01*
X34794096Y-15736768D01*
X34528408Y-15736768D01*
X34528408Y-16183000D01*
G37*
G36*
X33793831Y-14052940D02*
G01*
X33831388Y-14054647D01*
X33867610Y-14057493D01*
X33902498Y-14061476D01*
X33936051Y-14066597D01*
X33968270Y-14072856D01*
X33999155Y-14080253D01*
X34028706Y-14088788D01*
X34056922Y-14098461D01*
X34083803Y-14109272D01*
X34109351Y-14121222D01*
X34133564Y-14134309D01*
X34156442Y-14148534D01*
X34177987Y-14163897D01*
X34198196Y-14180399D01*
X34217072Y-14198038D01*
X34234649Y-14216851D01*
X34251092Y-14237003D01*
X34266401Y-14258493D01*
X34280577Y-14281322D01*
X34293618Y-14305489D01*
X34305525Y-14330994D01*
X34316298Y-14357837D01*
X34325937Y-14386019D01*
X34334442Y-14415540D01*
X34341813Y-14446399D01*
X34348050Y-14478596D01*
X34353153Y-14512131D01*
X34357122Y-14547005D01*
X34359957Y-14583217D01*
X34361658Y-14620768D01*
X34362225Y-14659657D01*
X34362225Y-15605463D01*
X34361658Y-15644354D01*
X34359957Y-15681910D01*
X34357122Y-15718133D01*
X34353153Y-15753021D01*
X34348050Y-15786574D01*
X34341813Y-15818793D01*
X34334442Y-15849678D01*
X34325937Y-15879229D01*
X34316298Y-15907445D01*
X34305525Y-15934326D01*
X34293618Y-15959874D01*
X34280577Y-15984087D01*
X34266401Y-16006965D01*
X34251092Y-16028509D01*
X34234649Y-16048719D01*
X34217072Y-16067595D01*
X34198196Y-16085172D01*
X34177987Y-16101615D01*
X34156442Y-16116924D01*
X34133564Y-16131099D01*
X34109351Y-16144141D01*
X34083803Y-16156048D01*
X34056922Y-16166821D01*
X34028706Y-16176460D01*
X33999155Y-16184965D01*
X33968270Y-16192336D01*
X33936051Y-16198573D01*
X33902498Y-16203676D01*
X33867610Y-16207645D01*
X33831388Y-16210480D01*
X33793831Y-16212181D01*
X33754940Y-16212748D01*
X33016350Y-16212748D01*
X32977399Y-16212181D01*
X32939790Y-16210480D01*
X32903523Y-16207645D01*
X32868599Y-16203676D01*
X32835018Y-16198573D01*
X32802779Y-16192336D01*
X32771882Y-16184965D01*
X32742327Y-16176460D01*
X32714115Y-16166821D01*
X32687246Y-16156048D01*
X32661718Y-16144141D01*
X32637534Y-16131099D01*
X32614691Y-16116924D01*
X32593191Y-16101615D01*
X32573033Y-16085172D01*
X32554218Y-16067595D01*
X32536641Y-16048719D01*
X32520197Y-16028509D01*
X32504888Y-16006965D01*
X32490713Y-15984087D01*
X32477672Y-15959874D01*
X32465765Y-15934326D01*
X32454992Y-15907445D01*
X32445353Y-15879229D01*
X32436847Y-15849678D01*
X32429476Y-15818793D01*
X32423239Y-15786574D01*
X32418136Y-15753021D01*
X32414167Y-15718133D01*
X32411332Y-15681910D01*
X32409631Y-15644354D01*
X32409064Y-15605463D01*
X32973265Y-15605463D01*
X32973894Y-15624903D01*
X32977197Y-15651712D01*
X32983331Y-15675699D01*
X32992296Y-15696865D01*
X33004092Y-15715208D01*
X33018719Y-15730729D01*
X33036177Y-15743428D01*
X33056466Y-15753305D01*
X33079586Y-15760360D01*
X33105537Y-15764593D01*
X33134319Y-15766004D01*
X33636458Y-15766004D01*
X33655960Y-15765377D01*
X33682855Y-15762084D01*
X33706919Y-15755970D01*
X33728151Y-15747034D01*
X33746553Y-15735275D01*
X33762124Y-15720695D01*
X33774863Y-15703292D01*
X33784772Y-15683068D01*
X33791849Y-15660022D01*
X33796096Y-15634153D01*
X33797512Y-15605463D01*
X33797512Y-14659657D01*
X33796882Y-14640216D01*
X33793580Y-14613407D01*
X33787446Y-14589420D01*
X33778481Y-14568255D01*
X33766685Y-14549912D01*
X33752058Y-14534391D01*
X33734600Y-14521692D01*
X33714311Y-14511815D01*
X33691191Y-14504760D01*
X33665240Y-14500527D01*
X33636458Y-14499116D01*
X33134319Y-14499116D01*
X33114816Y-14499743D01*
X33087922Y-14503035D01*
X33063858Y-14509150D01*
X33042625Y-14518086D01*
X33024224Y-14529845D01*
X33008653Y-14544425D01*
X32995913Y-14561827D01*
X32986005Y-14582052D01*
X32978927Y-14605098D01*
X32974681Y-14630966D01*
X32973265Y-14659657D01*
X32973265Y-15605463D01*
X32409064Y-15605463D01*
X32409064Y-14659657D01*
X32409631Y-14620768D01*
X32411332Y-14583217D01*
X32414167Y-14547005D01*
X32418136Y-14512131D01*
X32423239Y-14478596D01*
X32429476Y-14446399D01*
X32436847Y-14415540D01*
X32445353Y-14386019D01*
X32454992Y-14357837D01*
X32465765Y-14330994D01*
X32477672Y-14305489D01*
X32490713Y-14281322D01*
X32504888Y-14258493D01*
X32520197Y-14237003D01*
X32536641Y-14216851D01*
X32554218Y-14198038D01*
X32573033Y-14180399D01*
X32593191Y-14163897D01*
X32614691Y-14148534D01*
X32637534Y-14134309D01*
X32661718Y-14121222D01*
X32687246Y-14109272D01*
X32714115Y-14098461D01*
X32742327Y-14088788D01*
X32771882Y-14080253D01*
X32802779Y-14072856D01*
X32835018Y-14066597D01*
X32868599Y-14061476D01*
X32903523Y-14057493D01*
X32939790Y-14054647D01*
X32977399Y-14052940D01*
X33016350Y-14052371D01*
X33754940Y-14052371D01*
X33793831Y-14052940D01*
G37*
G36*
X32245446Y-15355676D02*
G01*
X32245446Y-14909444D01*
X31001639Y-14909444D01*
X31001639Y-15355676D01*
X32245446Y-15355676D01*
G37*
G36*
X29003342Y-15077678D02*
G01*
X29391102Y-15769594D01*
X29823998Y-15769594D01*
X30211758Y-15077678D01*
X30211758Y-16183000D01*
X30775959Y-16183000D01*
X30775959Y-14082120D01*
X30188677Y-14082120D01*
X29607550Y-15157180D01*
X29026423Y-14082120D01*
X28439141Y-14082120D01*
X28439141Y-16183000D01*
X29003342Y-16183000D01*
X29003342Y-15077678D01*
G37*
G36*
X26503419Y-16151712D02*
G01*
X26545340Y-16155467D01*
X26586793Y-16159103D01*
X26627778Y-16162620D01*
X26668295Y-16166017D01*
X26708345Y-16169296D01*
X26747926Y-16172455D01*
X26787040Y-16175495D01*
X26825686Y-16178415D01*
X26863865Y-16181217D01*
X26901575Y-16183899D01*
X26938818Y-16186462D01*
X26975592Y-16188906D01*
X27011899Y-16191231D01*
X27047738Y-16193436D01*
X27083110Y-16195522D01*
X27118013Y-16197489D01*
X27152449Y-16199337D01*
X27186416Y-16201066D01*
X27219916Y-16202675D01*
X27252948Y-16204165D01*
X27285513Y-16205536D01*
X27317609Y-16206788D01*
X27349238Y-16207920D01*
X27380399Y-16208934D01*
X27411092Y-16209828D01*
X27441317Y-16210602D01*
X27471074Y-16211258D01*
X27500363Y-16211795D01*
X27529185Y-16212212D01*
X27557539Y-16212510D01*
X27585425Y-16212689D01*
X27612843Y-16212748D01*
X27649294Y-16212199D01*
X27684530Y-16210552D01*
X27718553Y-16207808D01*
X27751361Y-16203965D01*
X27782955Y-16199024D01*
X27813335Y-16192985D01*
X27842500Y-16185849D01*
X27870452Y-16177614D01*
X27897189Y-16168281D01*
X27922713Y-16157851D01*
X27947022Y-16146322D01*
X27970117Y-16133696D01*
X27991998Y-16119972D01*
X28012664Y-16105149D01*
X28032117Y-16089229D01*
X28050355Y-16072211D01*
X28067373Y-16053973D01*
X28083294Y-16034520D01*
X28098116Y-16013853D01*
X28111840Y-15991973D01*
X28124467Y-15968878D01*
X28135995Y-15944568D01*
X28146426Y-15919045D01*
X28155758Y-15892308D01*
X28163993Y-15864356D01*
X28171129Y-15835190D01*
X28177168Y-15804811D01*
X28182109Y-15773216D01*
X28185952Y-15740408D01*
X28188697Y-15706386D01*
X28190344Y-15671149D01*
X28190893Y-15634699D01*
X28190893Y-14689406D01*
X28190326Y-14650455D01*
X28188625Y-14612846D01*
X28185789Y-14576579D01*
X28181820Y-14541656D01*
X28176717Y-14508074D01*
X28170480Y-14475835D01*
X28163109Y-14444938D01*
X28154604Y-14415383D01*
X28144965Y-14387171D01*
X28134192Y-14360302D01*
X28122285Y-14334774D01*
X28109244Y-14310590D01*
X28095069Y-14287747D01*
X28079759Y-14266247D01*
X28063316Y-14246089D01*
X28045739Y-14227274D01*
X28026864Y-14209697D01*
X28006654Y-14193253D01*
X27985109Y-14177944D01*
X27962231Y-14163769D01*
X27938018Y-14150728D01*
X27912471Y-14138821D01*
X27885589Y-14128048D01*
X27857373Y-14118409D01*
X27827822Y-14109904D01*
X27796938Y-14102532D01*
X27764718Y-14096295D01*
X27731165Y-14091192D01*
X27696277Y-14087223D01*
X27660055Y-14084388D01*
X27622498Y-14082687D01*
X27583607Y-14082120D01*
X26503419Y-14082120D01*
X26503419Y-14528352D01*
X27465125Y-14528352D01*
X27493907Y-14529767D01*
X27519858Y-14534014D01*
X27542978Y-14541092D01*
X27563267Y-14551000D01*
X27580725Y-14563740D01*
X27595352Y-14579310D01*
X27607148Y-14597712D01*
X27616113Y-14618945D01*
X27622247Y-14643008D01*
X27625550Y-14669903D01*
X27626179Y-14689406D01*
X27626179Y-15634699D01*
X27624952Y-15656842D01*
X27621274Y-15677110D01*
X27613883Y-15698386D01*
X27603154Y-15717109D01*
X27591301Y-15731126D01*
X27574713Y-15744716D01*
X27555916Y-15754968D01*
X27534910Y-15761882D01*
X27511696Y-15765459D01*
X27497438Y-15766004D01*
X27474814Y-15765950D01*
X27451180Y-15765787D01*
X27426536Y-15765517D01*
X27405229Y-15765209D01*
X27383220Y-15764826D01*
X27365107Y-15764465D01*
X27341889Y-15763959D01*
X27318395Y-15763403D01*
X27294625Y-15762797D01*
X27270580Y-15762141D01*
X27246259Y-15761435D01*
X27221663Y-15760678D01*
X27211747Y-15760362D01*
X27186731Y-15759400D01*
X27161689Y-15758438D01*
X27136622Y-15757477D01*
X27111530Y-15756515D01*
X27086413Y-15755553D01*
X27061270Y-15754591D01*
X27051207Y-15754207D01*
X27030201Y-15753349D01*
X27007705Y-15752315D01*
X26983719Y-15751105D01*
X26958242Y-15749719D01*
X26931274Y-15748156D01*
X26910070Y-15746868D01*
X26888027Y-15745481D01*
X26865146Y-15743995D01*
X26841426Y-15742410D01*
X26816580Y-15740739D01*
X26790318Y-15738996D01*
X26762640Y-15737181D01*
X26733547Y-15735293D01*
X26703038Y-15733334D01*
X26681913Y-15731987D01*
X26660158Y-15730609D01*
X26637775Y-15729198D01*
X26614762Y-15727756D01*
X26591120Y-15726281D01*
X26566849Y-15724775D01*
X26541949Y-15723236D01*
X26516419Y-15721665D01*
X26503419Y-15720868D01*
X26503419Y-16151712D01*
G37*
G36*
X24980076Y-14082120D02*
G01*
X24415875Y-14082120D01*
X24415875Y-15605463D01*
X24416442Y-15644354D01*
X24418143Y-15681910D01*
X24420978Y-15718133D01*
X24424947Y-15753021D01*
X24430050Y-15786574D01*
X24436287Y-15818793D01*
X24443658Y-15849678D01*
X24452163Y-15879229D01*
X24461803Y-15907445D01*
X24472576Y-15934326D01*
X24484483Y-15959874D01*
X24497524Y-15984087D01*
X24511699Y-16006965D01*
X24527008Y-16028509D01*
X24543451Y-16048719D01*
X24561029Y-16067595D01*
X24579844Y-16085172D01*
X24600002Y-16101615D01*
X24621502Y-16116924D01*
X24644344Y-16131099D01*
X24668529Y-16144141D01*
X24694057Y-16156048D01*
X24720926Y-16166821D01*
X24749138Y-16176460D01*
X24778693Y-16184965D01*
X24809590Y-16192336D01*
X24841829Y-16198573D01*
X24875410Y-16203676D01*
X24910334Y-16207645D01*
X24946601Y-16210480D01*
X24984209Y-16212181D01*
X25023161Y-16212748D01*
X25702253Y-16212748D01*
X25741204Y-16212181D01*
X25778813Y-16210480D01*
X25815079Y-16207645D01*
X25850003Y-16203676D01*
X25883585Y-16198573D01*
X25915824Y-16192336D01*
X25946721Y-16184965D01*
X25976275Y-16176460D01*
X26004488Y-16166821D01*
X26031357Y-16156048D01*
X26056884Y-16144141D01*
X26081069Y-16131099D01*
X26103912Y-16116924D01*
X26125412Y-16101615D01*
X26145570Y-16085172D01*
X26164385Y-16067595D01*
X26181962Y-16048719D01*
X26198406Y-16028509D01*
X26213715Y-16006965D01*
X26227890Y-15984087D01*
X26240931Y-15959874D01*
X26252838Y-15934326D01*
X26263611Y-15907445D01*
X26273250Y-15879229D01*
X26281755Y-15849678D01*
X26289127Y-15818793D01*
X26295364Y-15786574D01*
X26300467Y-15753021D01*
X26304436Y-15718133D01*
X26307271Y-15681910D01*
X26308972Y-15644354D01*
X26309539Y-15605463D01*
X26309539Y-14082120D01*
X25745338Y-14082120D01*
X25745338Y-15605463D01*
X25743922Y-15634153D01*
X25739676Y-15660022D01*
X25732598Y-15683068D01*
X25722690Y-15703292D01*
X25709950Y-15720695D01*
X25694379Y-15735275D01*
X25675978Y-15747034D01*
X25654745Y-15755970D01*
X25630681Y-15762084D01*
X25603787Y-15765377D01*
X25584284Y-15766004D01*
X25141130Y-15766004D01*
X25112348Y-15764593D01*
X25086397Y-15760360D01*
X25063277Y-15753305D01*
X25042988Y-15743428D01*
X25025530Y-15730729D01*
X25010903Y-15715208D01*
X24999107Y-15696865D01*
X24990142Y-15675699D01*
X24984008Y-15651712D01*
X24980705Y-15624903D01*
X24980076Y-15605463D01*
X24980076Y-14082120D01*
G37*
G36*
X24194811Y-15355676D02*
G01*
X24194811Y-14909444D01*
X22951004Y-14909444D01*
X22951004Y-15355676D01*
X24194811Y-15355676D01*
G37*
G36*
X22725324Y-16183000D02*
G01*
X22161123Y-16183000D01*
X22161123Y-15562378D01*
X21773363Y-15562378D01*
X21433816Y-16183000D01*
X20819863Y-16183000D01*
X21192236Y-15527501D01*
X21172156Y-15521983D01*
X21143194Y-15512248D01*
X21115620Y-15500765D01*
X21089434Y-15487533D01*
X21064637Y-15472551D01*
X21041229Y-15455820D01*
X21019209Y-15437341D01*
X20998577Y-15417112D01*
X20979334Y-15395134D01*
X20961479Y-15371407D01*
X20945013Y-15345930D01*
X20934827Y-15327874D01*
X20925298Y-15308969D01*
X20916427Y-15289214D01*
X20908212Y-15268609D01*
X20900655Y-15247155D01*
X20893754Y-15224852D01*
X20887511Y-15201699D01*
X20881925Y-15177696D01*
X20876997Y-15152844D01*
X20872725Y-15127142D01*
X20869111Y-15100591D01*
X20866153Y-15073191D01*
X20863853Y-15044940D01*
X20862210Y-15015841D01*
X20861225Y-14985892D01*
X20860896Y-14955093D01*
X21425610Y-14955093D01*
X21426239Y-14974596D01*
X21429542Y-15001490D01*
X21435676Y-15025554D01*
X21444641Y-15046787D01*
X21456437Y-15065188D01*
X21471064Y-15080759D01*
X21488522Y-15093499D01*
X21508811Y-15103407D01*
X21531931Y-15110485D01*
X21557882Y-15114731D01*
X21586664Y-15116147D01*
X22161123Y-15116147D01*
X22161123Y-14528352D01*
X21586664Y-14528352D01*
X21567161Y-14528981D01*
X21540266Y-14532284D01*
X21516203Y-14538418D01*
X21494970Y-14547383D01*
X21476568Y-14559179D01*
X21460998Y-14573806D01*
X21448258Y-14591264D01*
X21438350Y-14611553D01*
X21431272Y-14634673D01*
X21427025Y-14660624D01*
X21425610Y-14689406D01*
X21425610Y-14955093D01*
X20860896Y-14955093D01*
X20860896Y-14689406D01*
X20861463Y-14650455D01*
X20863164Y-14612846D01*
X20865999Y-14576579D01*
X20869968Y-14541656D01*
X20875071Y-14508074D01*
X20881308Y-14475835D01*
X20888679Y-14444938D01*
X20897184Y-14415383D01*
X20906824Y-14387171D01*
X20917597Y-14360302D01*
X20929504Y-14334774D01*
X20942545Y-14310590D01*
X20956720Y-14287747D01*
X20972029Y-14266247D01*
X20988472Y-14246089D01*
X21006050Y-14227274D01*
X21024865Y-14209697D01*
X21045023Y-14193253D01*
X21066523Y-14177944D01*
X21089365Y-14163769D01*
X21113550Y-14150728D01*
X21139078Y-14138821D01*
X21165947Y-14128048D01*
X21194159Y-14118409D01*
X21223714Y-14109904D01*
X21254611Y-14102532D01*
X21286850Y-14096295D01*
X21320431Y-14091192D01*
X21355355Y-14087223D01*
X21391622Y-14084388D01*
X21429230Y-14082687D01*
X21468181Y-14082120D01*
X22725324Y-14082120D01*
X22725324Y-16183000D01*
G37*
G36*
X20610083Y-16183000D02*
G01*
X20045882Y-16183000D01*
X20045882Y-15592127D01*
X19352941Y-15592127D01*
X19313990Y-15591560D01*
X19276381Y-15589859D01*
X19240115Y-15587024D01*
X19205191Y-15583055D01*
X19171609Y-15577952D01*
X19139370Y-15571715D01*
X19108473Y-15564344D01*
X19078919Y-15555839D01*
X19050706Y-15546200D01*
X19023837Y-15535427D01*
X18998310Y-15523519D01*
X18974125Y-15510478D01*
X18951282Y-15496303D01*
X18929782Y-15480994D01*
X18909624Y-15464551D01*
X18890809Y-15446974D01*
X18873232Y-15428158D01*
X18856788Y-15408001D01*
X18841479Y-15386500D01*
X18827304Y-15363658D01*
X18814263Y-15339473D01*
X18802356Y-15313946D01*
X18791583Y-15287076D01*
X18781944Y-15258864D01*
X18773439Y-15229310D01*
X18766067Y-15198413D01*
X18759830Y-15166173D01*
X18754727Y-15132592D01*
X18750758Y-15097668D01*
X18747923Y-15061402D01*
X18746222Y-15023793D01*
X18745655Y-14984842D01*
X19310369Y-14984842D01*
X19310998Y-15004344D01*
X19314301Y-15031239D01*
X19320435Y-15055303D01*
X19329400Y-15076535D01*
X19341196Y-15094937D01*
X19355823Y-15110508D01*
X19373281Y-15123247D01*
X19393570Y-15133156D01*
X19416690Y-15140233D01*
X19442641Y-15144480D01*
X19471423Y-15145896D01*
X20045882Y-15145896D01*
X20045882Y-14528352D01*
X19471423Y-14528352D01*
X19451920Y-14528981D01*
X19425026Y-14532284D01*
X19400962Y-14538418D01*
X19379729Y-14547383D01*
X19361328Y-14559179D01*
X19345757Y-14573806D01*
X19333017Y-14591264D01*
X19323109Y-14611553D01*
X19316031Y-14634673D01*
X19311785Y-14660624D01*
X19310369Y-14689406D01*
X19310369Y-14984842D01*
X18745655Y-14984842D01*
X18745655Y-14689406D01*
X18746222Y-14650455D01*
X18747923Y-14612846D01*
X18750758Y-14576579D01*
X18754727Y-14541656D01*
X18759830Y-14508074D01*
X18766067Y-14475835D01*
X18773439Y-14444938D01*
X18781944Y-14415383D01*
X18791583Y-14387171D01*
X18802356Y-14360302D01*
X18814263Y-14334774D01*
X18827304Y-14310590D01*
X18841479Y-14287747D01*
X18856788Y-14266247D01*
X18873232Y-14246089D01*
X18890809Y-14227274D01*
X18909624Y-14209697D01*
X18929782Y-14193253D01*
X18951282Y-14177944D01*
X18974125Y-14163769D01*
X18998310Y-14150728D01*
X19023837Y-14138821D01*
X19050706Y-14128048D01*
X19078919Y-14118409D01*
X19108473Y-14109904D01*
X19139370Y-14102532D01*
X19171609Y-14096295D01*
X19205191Y-14091192D01*
X19240115Y-14087223D01*
X19276381Y-14084388D01*
X19313990Y-14082687D01*
X19352941Y-14082120D01*
X20610083Y-14082120D01*
X20610083Y-16183000D01*
G37*
G36*
X17013558Y-14748390D02*
G01*
X17014412Y-14780489D01*
X17016972Y-14812031D01*
X17021240Y-14843016D01*
X17027214Y-14873444D01*
X17034896Y-14903315D01*
X17044285Y-14932629D01*
X17055380Y-14961386D01*
X17068183Y-14989586D01*
X17082693Y-15017229D01*
X17098910Y-15044315D01*
X17116833Y-15070844D01*
X17136464Y-15096816D01*
X17157802Y-15122232D01*
X17180847Y-15147090D01*
X17205599Y-15171391D01*
X17232058Y-15195135D01*
X17248655Y-15209248D01*
X17265621Y-15223377D01*
X17282956Y-15237522D01*
X17300660Y-15251683D01*
X17318732Y-15265860D01*
X17337172Y-15280054D01*
X17355982Y-15294263D01*
X17375160Y-15308488D01*
X17969110Y-15736768D01*
X17013558Y-15736768D01*
X17013558Y-16183000D01*
X18642047Y-16183000D01*
X18642047Y-15597256D01*
X17578272Y-14828917D01*
X17578272Y-14689406D01*
X17579688Y-14660624D01*
X17583934Y-14634673D01*
X17591012Y-14611553D01*
X17600920Y-14591264D01*
X17613660Y-14573806D01*
X17629231Y-14559179D01*
X17647632Y-14547383D01*
X17668865Y-14538418D01*
X17692929Y-14532284D01*
X17719823Y-14528981D01*
X17739326Y-14528352D01*
X18583063Y-14528352D01*
X18583063Y-14082120D01*
X17620844Y-14082120D01*
X17581955Y-14082687D01*
X17544404Y-14084388D01*
X17508192Y-14087223D01*
X17473318Y-14091192D01*
X17439782Y-14096295D01*
X17407585Y-14102532D01*
X17376727Y-14109904D01*
X17347206Y-14118409D01*
X17319024Y-14128048D01*
X17292181Y-14138821D01*
X17266675Y-14150728D01*
X17242508Y-14163769D01*
X17219680Y-14177944D01*
X17198190Y-14193253D01*
X17178038Y-14209697D01*
X17159225Y-14227274D01*
X17141585Y-14246089D01*
X17125084Y-14266247D01*
X17109721Y-14287747D01*
X17095496Y-14310590D01*
X17082408Y-14334774D01*
X17070459Y-14360302D01*
X17059648Y-14387171D01*
X17049975Y-14415383D01*
X17041440Y-14444938D01*
X17034043Y-14475835D01*
X17027784Y-14508074D01*
X17022662Y-14541656D01*
X17018679Y-14576579D01*
X17015834Y-14612846D01*
X17014127Y-14650455D01*
X17013558Y-14689406D01*
X17013558Y-14748390D01*
G37*
G36*
X16281033Y-14052940D02*
G01*
X16318589Y-14054647D01*
X16354812Y-14057493D01*
X16389699Y-14061476D01*
X16423253Y-14066597D01*
X16455472Y-14072856D01*
X16486357Y-14080253D01*
X16515907Y-14088788D01*
X16544123Y-14098461D01*
X16571005Y-14109272D01*
X16596552Y-14121222D01*
X16620765Y-14134309D01*
X16643644Y-14148534D01*
X16665188Y-14163897D01*
X16685398Y-14180399D01*
X16704274Y-14198038D01*
X16721851Y-14216851D01*
X16738294Y-14237003D01*
X16753603Y-14258493D01*
X16767778Y-14281322D01*
X16780819Y-14305489D01*
X16792726Y-14330994D01*
X16803500Y-14357837D01*
X16813139Y-14386019D01*
X16821644Y-14415540D01*
X16829015Y-14446399D01*
X16835252Y-14478596D01*
X16840355Y-14512131D01*
X16844324Y-14547005D01*
X16847159Y-14583217D01*
X16848860Y-14620768D01*
X16849427Y-14659657D01*
X16849427Y-15605463D01*
X16848860Y-15644354D01*
X16847159Y-15681910D01*
X16844324Y-15718133D01*
X16840355Y-15753021D01*
X16835252Y-15786574D01*
X16829015Y-15818793D01*
X16821644Y-15849678D01*
X16813139Y-15879229D01*
X16803500Y-15907445D01*
X16792726Y-15934326D01*
X16780819Y-15959874D01*
X16767778Y-15984087D01*
X16753603Y-16006965D01*
X16738294Y-16028509D01*
X16721851Y-16048719D01*
X16704274Y-16067595D01*
X16685398Y-16085172D01*
X16665188Y-16101615D01*
X16643644Y-16116924D01*
X16620765Y-16131099D01*
X16596552Y-16144141D01*
X16571005Y-16156048D01*
X16544123Y-16166821D01*
X16515907Y-16176460D01*
X16486357Y-16184965D01*
X16455472Y-16192336D01*
X16423253Y-16198573D01*
X16389699Y-16203676D01*
X16354812Y-16207645D01*
X16318589Y-16210480D01*
X16281033Y-16212181D01*
X16242142Y-16212748D01*
X15680505Y-16212748D01*
X15641554Y-16212181D01*
X15603945Y-16210480D01*
X15567679Y-16207645D01*
X15532755Y-16203676D01*
X15499174Y-16198573D01*
X15466934Y-16192336D01*
X15436038Y-16184965D01*
X15406483Y-16176460D01*
X15378271Y-16166821D01*
X15351401Y-16156048D01*
X15325874Y-16144141D01*
X15301689Y-16131099D01*
X15278847Y-16116924D01*
X15257346Y-16101615D01*
X15237189Y-16085172D01*
X15218373Y-16067595D01*
X15200796Y-16048719D01*
X15184353Y-16028509D01*
X15169044Y-16006965D01*
X15154869Y-15984087D01*
X15141828Y-15959874D01*
X15129920Y-15934326D01*
X15119147Y-15907445D01*
X15109508Y-15879229D01*
X15101003Y-15849678D01*
X15093632Y-15818793D01*
X15087395Y-15786574D01*
X15082292Y-15753021D01*
X15078323Y-15718133D01*
X15075488Y-15681910D01*
X15073787Y-15644354D01*
X15073220Y-15605463D01*
X15637934Y-15605463D01*
X15638563Y-15624903D01*
X15641866Y-15651712D01*
X15648000Y-15675699D01*
X15656964Y-15696865D01*
X15668760Y-15715208D01*
X15683387Y-15730729D01*
X15700845Y-15743428D01*
X15721134Y-15753305D01*
X15744254Y-15760360D01*
X15770205Y-15764593D01*
X15798987Y-15766004D01*
X16123659Y-15766004D01*
X16143162Y-15765377D01*
X16170057Y-15762084D01*
X16194120Y-15755970D01*
X16215353Y-15747034D01*
X16233755Y-15735275D01*
X16249325Y-15720695D01*
X16262065Y-15703292D01*
X16271974Y-15683068D01*
X16279051Y-15660022D01*
X16283298Y-15634153D01*
X16284713Y-15605463D01*
X16284713Y-14659657D01*
X16284084Y-14640216D01*
X16280781Y-14613407D01*
X16274647Y-14589420D01*
X16265682Y-14568255D01*
X16253886Y-14549912D01*
X16239260Y-14534391D01*
X16221802Y-14521692D01*
X16201513Y-14511815D01*
X16178393Y-14504760D01*
X16152442Y-14500527D01*
X16123659Y-14499116D01*
X15798987Y-14499116D01*
X15779485Y-14499743D01*
X15752590Y-14503035D01*
X15728526Y-14509150D01*
X15707294Y-14518086D01*
X15688892Y-14529845D01*
X15673321Y-14544425D01*
X15660582Y-14561827D01*
X15650673Y-14582052D01*
X15643596Y-14605098D01*
X15639349Y-14630966D01*
X15637934Y-14659657D01*
X15637934Y-15605463D01*
X15073220Y-15605463D01*
X15073220Y-14659657D01*
X15073787Y-14620768D01*
X15075488Y-14583217D01*
X15078323Y-14547005D01*
X15082292Y-14512131D01*
X15087395Y-14478596D01*
X15093632Y-14446399D01*
X15101003Y-14415540D01*
X15109508Y-14386019D01*
X15119147Y-14357837D01*
X15129920Y-14330994D01*
X15141828Y-14305489D01*
X15154869Y-14281322D01*
X15169044Y-14258493D01*
X15184353Y-14237003D01*
X15200796Y-14216851D01*
X15218373Y-14198038D01*
X15237189Y-14180399D01*
X15257346Y-14163897D01*
X15278847Y-14148534D01*
X15301689Y-14134309D01*
X15325874Y-14121222D01*
X15351401Y-14109272D01*
X15378271Y-14098461D01*
X15406483Y-14088788D01*
X15436038Y-14080253D01*
X15466934Y-14072856D01*
X15499174Y-14066597D01*
X15532755Y-14061476D01*
X15567679Y-14057493D01*
X15603945Y-14054647D01*
X15641554Y-14052940D01*
X15680505Y-14052371D01*
X16242142Y-14052371D01*
X16281033Y-14052940D01*
G37*
G36*
X13845826Y-15769594D02*
G01*
X14938837Y-15769594D01*
X14938837Y-15334646D01*
X14222815Y-14082120D01*
X13593987Y-14082120D01*
X14303342Y-15322849D01*
X13845826Y-15322849D01*
X13845826Y-14879695D01*
X13281112Y-14879695D01*
X13281112Y-15322849D01*
X13074410Y-15322849D01*
X13074410Y-15769594D01*
X13281112Y-15769594D01*
X13281112Y-16183000D01*
X13845826Y-16183000D01*
X13845826Y-15769594D01*
G37*
G36*
X12401382Y-14052940D02*
G01*
X12438938Y-14054647D01*
X12475160Y-14057493D01*
X12510048Y-14061476D01*
X12543602Y-14066597D01*
X12575821Y-14072856D01*
X12606706Y-14080253D01*
X12636256Y-14088788D01*
X12664472Y-14098461D01*
X12691354Y-14109272D01*
X12716901Y-14121222D01*
X12741114Y-14134309D01*
X12763993Y-14148534D01*
X12785537Y-14163897D01*
X12805747Y-14180399D01*
X12824622Y-14198038D01*
X12842200Y-14216851D01*
X12858643Y-14237003D01*
X12873952Y-14258493D01*
X12888127Y-14281322D01*
X12901168Y-14305489D01*
X12913075Y-14330994D01*
X12923849Y-14357837D01*
X12933488Y-14386019D01*
X12941993Y-14415540D01*
X12949364Y-14446399D01*
X12955601Y-14478596D01*
X12960704Y-14512131D01*
X12964673Y-14547005D01*
X12967508Y-14583217D01*
X12969209Y-14620768D01*
X12969776Y-14659657D01*
X12969776Y-15605463D01*
X12969209Y-15644354D01*
X12967508Y-15681910D01*
X12964673Y-15718133D01*
X12960704Y-15753021D01*
X12955601Y-15786574D01*
X12949364Y-15818793D01*
X12941993Y-15849678D01*
X12933488Y-15879229D01*
X12923849Y-15907445D01*
X12913075Y-15934326D01*
X12901168Y-15959874D01*
X12888127Y-15984087D01*
X12873952Y-16006965D01*
X12858643Y-16028509D01*
X12842200Y-16048719D01*
X12824622Y-16067595D01*
X12805747Y-16085172D01*
X12785537Y-16101615D01*
X12763993Y-16116924D01*
X12741114Y-16131099D01*
X12716901Y-16144141D01*
X12691354Y-16156048D01*
X12664472Y-16166821D01*
X12636256Y-16176460D01*
X12606706Y-16184965D01*
X12575821Y-16192336D01*
X12543602Y-16198573D01*
X12510048Y-16203676D01*
X12475160Y-16207645D01*
X12438938Y-16210480D01*
X12401382Y-16212181D01*
X12362491Y-16212748D01*
X11800854Y-16212748D01*
X11761903Y-16212181D01*
X11724294Y-16210480D01*
X11688028Y-16207645D01*
X11653104Y-16203676D01*
X11619522Y-16198573D01*
X11587283Y-16192336D01*
X11556386Y-16184965D01*
X11526832Y-16176460D01*
X11498620Y-16166821D01*
X11471750Y-16156048D01*
X11446223Y-16144141D01*
X11422038Y-16131099D01*
X11399196Y-16116924D01*
X11377695Y-16101615D01*
X11357538Y-16085172D01*
X11338722Y-16067595D01*
X11321145Y-16048719D01*
X11304702Y-16028509D01*
X11289393Y-16006965D01*
X11275218Y-15984087D01*
X11262176Y-15959874D01*
X11250269Y-15934326D01*
X11239496Y-15907445D01*
X11229857Y-15879229D01*
X11221352Y-15849678D01*
X11213981Y-15818793D01*
X11207744Y-15786574D01*
X11202641Y-15753021D01*
X11198672Y-15718133D01*
X11195837Y-15681910D01*
X11194136Y-15644354D01*
X11193569Y-15605463D01*
X11758283Y-15605463D01*
X11758912Y-15624903D01*
X11762215Y-15651712D01*
X11768348Y-15675699D01*
X11777313Y-15696865D01*
X11789109Y-15715208D01*
X11803736Y-15730729D01*
X11821194Y-15743428D01*
X11841483Y-15753305D01*
X11864603Y-15760360D01*
X11890554Y-15764593D01*
X11919336Y-15766004D01*
X12244008Y-15766004D01*
X12263511Y-15765377D01*
X12290406Y-15762084D01*
X12314469Y-15755970D01*
X12335702Y-15747034D01*
X12354104Y-15735275D01*
X12369674Y-15720695D01*
X12382414Y-15703292D01*
X12392323Y-15683068D01*
X12399400Y-15660022D01*
X12403647Y-15634153D01*
X12405062Y-15605463D01*
X12405062Y-14659657D01*
X12404433Y-14640216D01*
X12401130Y-14613407D01*
X12394996Y-14589420D01*
X12386031Y-14568255D01*
X12374235Y-14549912D01*
X12359608Y-14534391D01*
X12342150Y-14521692D01*
X12321861Y-14511815D01*
X12298741Y-14504760D01*
X12272790Y-14500527D01*
X12244008Y-14499116D01*
X11919336Y-14499116D01*
X11899834Y-14499743D01*
X11872939Y-14503035D01*
X11848875Y-14509150D01*
X11827643Y-14518086D01*
X11809241Y-14529845D01*
X11793670Y-14544425D01*
X11780931Y-14561827D01*
X11771022Y-14582052D01*
X11763945Y-14605098D01*
X11759698Y-14630966D01*
X11758283Y-14659657D01*
X11758283Y-15605463D01*
X11193569Y-15605463D01*
X11193569Y-14659657D01*
X11194136Y-14620768D01*
X11195837Y-14583217D01*
X11198672Y-14547005D01*
X11202641Y-14512131D01*
X11207744Y-14478596D01*
X11213981Y-14446399D01*
X11221352Y-14415540D01*
X11229857Y-14386019D01*
X11239496Y-14357837D01*
X11250269Y-14330994D01*
X11262176Y-14305489D01*
X11275218Y-14281322D01*
X11289393Y-14258493D01*
X11304702Y-14237003D01*
X11321145Y-14216851D01*
X11338722Y-14198038D01*
X11357538Y-14180399D01*
X11377695Y-14163897D01*
X11399196Y-14148534D01*
X11422038Y-14134309D01*
X11446223Y-14121222D01*
X11471750Y-14109272D01*
X11498620Y-14098461D01*
X11526832Y-14088788D01*
X11556386Y-14080253D01*
X11587283Y-14072856D01*
X11619522Y-14066597D01*
X11653104Y-14061476D01*
X11688028Y-14057493D01*
X11724294Y-14054647D01*
X11761903Y-14052940D01*
X11800854Y-14052371D01*
X12362491Y-14052371D01*
X12401382Y-14052940D01*
G37*
D12*
%TO.C,HOLE\u002A\u002A*%
X20000Y-22230000D02*
G75*
G03*
X-3580000Y-22230000I-1800000J0D01*
G01*
X-3580000Y-22230000D02*
G75*
G03*
X20000Y-22230000I1800000J0D01*
G01*
X20000Y-3160000D02*
G75*
G03*
X-3580000Y-3160000I-1800000J0D01*
G01*
X-3580000Y-3160000D02*
G75*
G03*
X20000Y-3160000I1800000J0D01*
G01*
X55430000Y-3160000D02*
G75*
G03*
X51830000Y-3160000I-1800000J0D01*
G01*
X51830000Y-3160000D02*
G75*
G03*
X55430000Y-3160000I1800000J0D01*
G01*
X55430000Y-22240000D02*
G75*
G03*
X51830000Y-22240000I-1800000J0D01*
G01*
X51830000Y-22240000D02*
G75*
G03*
X55430000Y-22240000I1800000J0D01*
G01*
%TD*%
%LPC*%
D13*
%TO.C,USB1*%
X639000Y-9800000D03*
X639000Y-15580000D03*
D14*
X1139000Y-8365000D03*
X1139000Y-17015000D03*
D15*
X-3061000Y-8365000D03*
X-3061000Y-17015000D03*
%TD*%
D16*
%TO.C,J3*%
X55550000Y-8895000D03*
D17*
X55550000Y-11435000D03*
X55550000Y-13975000D03*
X55550000Y-16515000D03*
%TD*%
D16*
%TO.C,J2*%
X1800000Y-1340000D03*
D17*
X4340000Y-1340000D03*
X6880000Y-1340000D03*
X9420000Y-1340000D03*
X11960000Y-1340000D03*
X14500000Y-1340000D03*
X17040000Y-1340000D03*
X19580000Y-1340000D03*
X22120000Y-1340000D03*
X24660000Y-1340000D03*
X27200000Y-1340000D03*
X29740000Y-1340000D03*
X32280000Y-1340000D03*
X34820000Y-1340000D03*
X37360000Y-1340000D03*
X39900000Y-1340000D03*
X42440000Y-1340000D03*
X44980000Y-1340000D03*
X47520000Y-1340000D03*
X50060000Y-1340000D03*
%TD*%
D18*
%TO.C,HOLE\u002A\u002A*%
X-1780000Y-22230000D03*
%TD*%
%TO.C,HOLE\u002A\u002A*%
X-1780000Y-3160000D03*
%TD*%
%TO.C,HOLE\u002A\u002A*%
X53630000Y-3160000D03*
%TD*%
D16*
%TO.C,J1*%
X1800000Y-24060000D03*
D17*
X4340000Y-24060000D03*
X6880000Y-24060000D03*
X9420000Y-24060000D03*
X11960000Y-24060000D03*
X14500000Y-24060000D03*
X17040000Y-24060000D03*
X19580000Y-24060000D03*
X22120000Y-24060000D03*
X24660000Y-24060000D03*
X27200000Y-24060000D03*
X29740000Y-24060000D03*
X32280000Y-24060000D03*
X34820000Y-24060000D03*
X37360000Y-24060000D03*
X39900000Y-24060000D03*
X42440000Y-24060000D03*
X44980000Y-24060000D03*
X47520000Y-24060000D03*
X50060000Y-24060000D03*
%TD*%
D18*
%TO.C,HOLE\u002A\u002A*%
X53630000Y-22240000D03*
%TD*%
%LPD*%
M02*
