%TF.GenerationSoftware,KiCad,Pcbnew,8.0.4*%
%TF.CreationDate,2024-09-04T11:41:35+08:00*%
%TF.ProjectId,UINIO-MCU-RP2040,55494e49-4f2d-44d4-9355-2d5250323034,Version 3.0.0*%
%TF.SameCoordinates,PX73394ecPY5396ed0*%
%TF.FileFunction,Legend,Bot*%
%TF.FilePolarity,Positive*%
%FSLAX46Y46*%
G04 Gerber Fmt 4.6, Leading zero omitted, Abs format (unit mm)*
G04 Created by KiCad (PCBNEW 8.0.4) date 2024-09-04 11:41:35*
%MOMM*%
%LPD*%
G01*
G04 APERTURE LIST*
%ADD10C,0.300000*%
%ADD11C,0.325000*%
%ADD12C,0.100000*%
%ADD13C,2.200000*%
%ADD14C,0.650000*%
%ADD15O,2.100000X1.000000*%
%ADD16O,1.900000X1.000000*%
%ADD17R,1.700000X1.700000*%
%ADD18O,1.700000X1.700000*%
G04 APERTURE END LIST*
D10*
G36*
X26781781Y-15064365D02*
G01*
X26885136Y-15248019D01*
X26889929Y-15319689D01*
X26889929Y-17121225D01*
X26839300Y-17319213D01*
X26671536Y-17419551D01*
X26583160Y-17427017D01*
X25626705Y-17427017D01*
X25428084Y-17376549D01*
X25324729Y-17192895D01*
X25319936Y-17121225D01*
X25319936Y-15319689D01*
X25370565Y-15121701D01*
X25538329Y-15021363D01*
X25626705Y-15013897D01*
X26583160Y-15013897D01*
X26781781Y-15064365D01*
G37*
G36*
X34847033Y-15076996D02*
G01*
X34865924Y-15179005D01*
X34865924Y-16304476D01*
X34774493Y-16479908D01*
X34672483Y-16498894D01*
X33997396Y-16498894D01*
X33821965Y-16407001D01*
X33802979Y-16304476D01*
X33802979Y-15179005D01*
X33894871Y-15004456D01*
X33997396Y-14985565D01*
X34672483Y-14985565D01*
X34847033Y-15076996D01*
G37*
G36*
X41543445Y-18722403D02*
G01*
X12052743Y-18722403D01*
X12052743Y-18277959D01*
X16890627Y-18277959D01*
X17937940Y-18277959D01*
X17937940Y-17427017D01*
X16890627Y-17427017D01*
X16890627Y-18277959D01*
X12052743Y-18277959D01*
X12052743Y-15319689D01*
X12497187Y-15319689D01*
X12497187Y-18221294D01*
X13571855Y-18221294D01*
X13571855Y-15319689D01*
X13622484Y-15121701D01*
X13790248Y-15021363D01*
X13878624Y-15013897D01*
X14722727Y-15013897D01*
X14921348Y-15064365D01*
X15024703Y-15248019D01*
X15029496Y-15319689D01*
X15029496Y-18221294D01*
X16104165Y-18221294D01*
X16104165Y-17264839D01*
X18427403Y-17264839D01*
X19356503Y-17264839D01*
X19408282Y-17003988D01*
X19587892Y-17107348D01*
X19782340Y-17191750D01*
X19920215Y-17237484D01*
X20120479Y-17288088D01*
X20323212Y-17317607D01*
X20399908Y-17320527D01*
X20652944Y-17320527D01*
X20863145Y-17301516D01*
X21067699Y-17235799D01*
X21241722Y-17123142D01*
X21287975Y-17080192D01*
X21414714Y-16915328D01*
X21494513Y-16719934D01*
X21526198Y-16517975D01*
X21528310Y-16445160D01*
X21528310Y-15069585D01*
X21839964Y-15069585D01*
X22346035Y-15069585D01*
X22346035Y-17371329D01*
X21839964Y-17371329D01*
X21839964Y-18221294D01*
X23927752Y-18221294D01*
X23927752Y-17371329D01*
X23421681Y-17371329D01*
X23421681Y-15319689D01*
X24244291Y-15319689D01*
X24244291Y-17121225D01*
X24254011Y-17335799D01*
X24289921Y-17557139D01*
X24352292Y-17747249D01*
X24455973Y-17926279D01*
X24520773Y-18000499D01*
X24679837Y-18121887D01*
X24879566Y-18208594D01*
X25087689Y-18256011D01*
X25290861Y-18275520D01*
X25401025Y-18277959D01*
X26807864Y-18277959D01*
X27022770Y-18268204D01*
X27244410Y-18232167D01*
X27434728Y-18169576D01*
X27613880Y-18065528D01*
X27688115Y-18000499D01*
X27809076Y-17841863D01*
X27895477Y-17642439D01*
X27942727Y-17434483D01*
X27962168Y-17231380D01*
X27964598Y-17121225D01*
X27964598Y-15319689D01*
X27955837Y-15126249D01*
X28276251Y-15126249D01*
X29351897Y-15126249D01*
X29351897Y-15038322D01*
X29676251Y-15038322D01*
X29676251Y-16332809D01*
X29691761Y-16538522D01*
X29746286Y-16742069D01*
X29840070Y-16916095D01*
X29924402Y-17015712D01*
X30079220Y-17136140D01*
X30263404Y-17217155D01*
X30476954Y-17258757D01*
X30608282Y-17264839D01*
X32440104Y-17264839D01*
X32440104Y-16442229D01*
X30917982Y-16442229D01*
X30742551Y-16350799D01*
X30723565Y-16248789D01*
X30723565Y-15151650D01*
X30745859Y-15094986D01*
X32755665Y-15094986D01*
X32755665Y-15179005D01*
X32755665Y-16389473D01*
X32771175Y-16595186D01*
X32825700Y-16798733D01*
X32919484Y-16972759D01*
X33003816Y-17072376D01*
X33158634Y-17192332D01*
X33342817Y-17273029D01*
X33556368Y-17314468D01*
X33687696Y-17320527D01*
X34982183Y-17320527D01*
X35187897Y-17305017D01*
X35337885Y-17264839D01*
X36337242Y-17264839D01*
X37266342Y-17264839D01*
X37318122Y-17003988D01*
X37497732Y-17107348D01*
X37692180Y-17191750D01*
X37830055Y-17237484D01*
X38030319Y-17288088D01*
X38233052Y-17317607D01*
X38309748Y-17320527D01*
X38366412Y-17320527D01*
X38561398Y-17304959D01*
X38757220Y-17249043D01*
X38943069Y-17137528D01*
X39077647Y-16995195D01*
X39249384Y-17096113D01*
X39436822Y-17178561D01*
X39620843Y-17237484D01*
X39823341Y-17284763D01*
X40026604Y-17313958D01*
X40166970Y-17320527D01*
X40223635Y-17320527D01*
X40433441Y-17301516D01*
X40637918Y-17235799D01*
X40812247Y-17123142D01*
X40858666Y-17080192D01*
X40985405Y-16915328D01*
X41065204Y-16719934D01*
X41096889Y-16517975D01*
X41099001Y-16445160D01*
X41099001Y-14219620D01*
X40051688Y-14219620D01*
X40051688Y-16277121D01*
X40003816Y-16395335D01*
X39885603Y-16442229D01*
X39857270Y-16442229D01*
X39653938Y-16427529D01*
X39459307Y-16392820D01*
X39264562Y-16344125D01*
X39241778Y-16337693D01*
X39241778Y-14219620D01*
X38194465Y-14219620D01*
X38194465Y-16277121D01*
X38147570Y-16395335D01*
X38028380Y-16442229D01*
X38000048Y-16442229D01*
X37796716Y-16427529D01*
X37602085Y-16392820D01*
X37407339Y-16344125D01*
X37384556Y-16337693D01*
X37384556Y-14219620D01*
X36337242Y-14219620D01*
X36337242Y-17264839D01*
X35337885Y-17264839D01*
X35391443Y-17250492D01*
X35565469Y-17156708D01*
X35665086Y-17072376D01*
X35785042Y-16918031D01*
X35865739Y-16734164D01*
X35907178Y-16520777D01*
X35913237Y-16389473D01*
X35913237Y-15094986D01*
X35897727Y-14889211D01*
X35843202Y-14685450D01*
X35749419Y-14511055D01*
X35665086Y-14411106D01*
X35510741Y-14291150D01*
X35326875Y-14210453D01*
X35113487Y-14169014D01*
X34982183Y-14162955D01*
X33687696Y-14162955D01*
X33481921Y-14178465D01*
X33278160Y-14232990D01*
X33103765Y-14326773D01*
X33003816Y-14411106D01*
X32883860Y-14565923D01*
X32803163Y-14750107D01*
X32761724Y-14963658D01*
X32755665Y-15094986D01*
X30745859Y-15094986D01*
X30770459Y-15032460D01*
X30889650Y-14985565D01*
X31098054Y-14988622D01*
X31300742Y-14995839D01*
X31529810Y-15007303D01*
X31732059Y-15019530D01*
X31951190Y-15034475D01*
X32187205Y-15052137D01*
X32440104Y-15072516D01*
X32440104Y-14279215D01*
X32239734Y-14258438D01*
X32044190Y-14239705D01*
X31790971Y-14217906D01*
X31546331Y-14199740D01*
X31310270Y-14185208D01*
X31082789Y-14174309D01*
X30863886Y-14167042D01*
X30653563Y-14163409D01*
X30551618Y-14162955D01*
X30341811Y-14181966D01*
X30137334Y-14247683D01*
X29963006Y-14360340D01*
X29916586Y-14403290D01*
X29789847Y-14568574D01*
X29710049Y-14764006D01*
X29678364Y-14965673D01*
X29676251Y-15038322D01*
X29351897Y-15038322D01*
X29351897Y-14219620D01*
X28276251Y-14219620D01*
X28276251Y-15126249D01*
X27955837Y-15126249D01*
X27954878Y-15105080D01*
X27918967Y-14883614D01*
X27856596Y-14693283D01*
X27752915Y-14513886D01*
X27688115Y-14439438D01*
X27529418Y-14318477D01*
X27329810Y-14232076D01*
X27121594Y-14184825D01*
X26918194Y-14165385D01*
X26807864Y-14162955D01*
X25401025Y-14162955D01*
X25186415Y-14172675D01*
X24964949Y-14208586D01*
X24774618Y-14270956D01*
X24595222Y-14374637D01*
X24520773Y-14439438D01*
X24399812Y-14598501D01*
X24313411Y-14798231D01*
X24266161Y-15006353D01*
X24246721Y-15209525D01*
X24244291Y-15319689D01*
X23421681Y-15319689D01*
X23421681Y-15069585D01*
X23927752Y-15069585D01*
X23927752Y-14219620D01*
X21839964Y-14219620D01*
X21839964Y-15069585D01*
X21528310Y-15069585D01*
X21528310Y-14219620D01*
X20480997Y-14219620D01*
X20480997Y-16277121D01*
X20434102Y-16395335D01*
X20315889Y-16442229D01*
X20118540Y-16442229D01*
X19910229Y-16429877D01*
X19709034Y-16397210D01*
X19518333Y-16350352D01*
X19474716Y-16337693D01*
X19474716Y-14219620D01*
X18427403Y-14219620D01*
X18427403Y-17264839D01*
X16104165Y-17264839D01*
X16104165Y-16329878D01*
X16468575Y-16329878D01*
X16468575Y-17152488D01*
X17937940Y-17152488D01*
X17937940Y-14219620D01*
X16890627Y-14219620D01*
X16890627Y-16329878D01*
X16468575Y-16329878D01*
X16104165Y-16329878D01*
X16104165Y-15319689D01*
X16094445Y-15105080D01*
X16058534Y-14883614D01*
X15996164Y-14693283D01*
X15892483Y-14513886D01*
X15827682Y-14439438D01*
X15668985Y-14318477D01*
X15469378Y-14232076D01*
X15261162Y-14184825D01*
X15057761Y-14165385D01*
X14947431Y-14162955D01*
X13653921Y-14162955D01*
X13439014Y-14172675D01*
X13217374Y-14208586D01*
X13027056Y-14270956D01*
X12847904Y-14374637D01*
X12773670Y-14439438D01*
X12652708Y-14598501D01*
X12566307Y-14798231D01*
X12519057Y-15006353D01*
X12499617Y-15209525D01*
X12497187Y-15319689D01*
X12052743Y-15319689D01*
X12052743Y-13718511D01*
X41543445Y-13718511D01*
X41543445Y-18722403D01*
G37*
D11*
G36*
X20910523Y-6701747D02*
G01*
X21245282Y-7666702D01*
X21629281Y-7666702D01*
X21107480Y-6288000D01*
X20713565Y-6288000D01*
X20191423Y-7666702D01*
X20575764Y-7666702D01*
X20910523Y-6701747D01*
G37*
G36*
X21956493Y-6268322D02*
G01*
X22036058Y-6269561D01*
X22117825Y-6272041D01*
X22201792Y-6275759D01*
X22287961Y-6280717D01*
X22376331Y-6286915D01*
X22466903Y-6294352D01*
X22536276Y-6300743D01*
X22606887Y-6307832D01*
X22606887Y-6554029D01*
X22515685Y-6547056D01*
X22430147Y-6541014D01*
X22350272Y-6535901D01*
X22276060Y-6531717D01*
X22191260Y-6527795D01*
X22115308Y-6525326D01*
X22035847Y-6524280D01*
X21986608Y-6543771D01*
X21966775Y-6593352D01*
X21966775Y-6671998D01*
X22646552Y-6671998D01*
X22646552Y-7036506D01*
X22645816Y-7063638D01*
X22634771Y-7138255D01*
X22606955Y-7209234D01*
X22562777Y-7267658D01*
X22535036Y-7291792D01*
X22470188Y-7327789D01*
X22401146Y-7346197D01*
X22331283Y-7351433D01*
X21937369Y-7351433D01*
X21901438Y-7350124D01*
X21827901Y-7337607D01*
X21764479Y-7311836D01*
X21705875Y-7267658D01*
X21681741Y-7240015D01*
X21645743Y-7175314D01*
X21627336Y-7106347D01*
X21622100Y-7036506D01*
X21622100Y-7026590D01*
X21966775Y-7026590D01*
X21981894Y-7080352D01*
X22045764Y-7105236D01*
X22222888Y-7105236D01*
X22274030Y-7092256D01*
X22301877Y-7026590D01*
X22301877Y-6918195D01*
X21966775Y-6918195D01*
X21966775Y-7026590D01*
X21622100Y-7026590D01*
X21622100Y-6563603D01*
X21622809Y-6538997D01*
X21633448Y-6470734D01*
X21660242Y-6404657D01*
X21702798Y-6348865D01*
X21718455Y-6334443D01*
X21777333Y-6296616D01*
X21846496Y-6274550D01*
X21917536Y-6268167D01*
X21956493Y-6268322D01*
G37*
G36*
X23417627Y-7046422D02*
G01*
X23347185Y-7041743D01*
X23275499Y-7027705D01*
X23202568Y-7004309D01*
X23161514Y-6987267D01*
X23161514Y-6288000D01*
X22816838Y-6288000D01*
X22816838Y-7331942D01*
X23122191Y-7331942D01*
X23141681Y-7203715D01*
X23205823Y-7253916D01*
X23271047Y-7293730D01*
X23337352Y-7323159D01*
X23404740Y-7342200D01*
X23473209Y-7350856D01*
X23496273Y-7351433D01*
X23584835Y-7351433D01*
X23584835Y-7046422D01*
X23417627Y-7046422D01*
G37*
G36*
X23678869Y-6563603D02*
G01*
X23752330Y-6558348D01*
X23822816Y-6553609D01*
X23912169Y-6548096D01*
X23996233Y-6543501D01*
X24075008Y-6539825D01*
X24148493Y-6537068D01*
X24232911Y-6534914D01*
X24309064Y-6534196D01*
X24358304Y-6553687D01*
X24378136Y-6603268D01*
X24378136Y-6671998D01*
X23954473Y-6671998D01*
X23883432Y-6678381D01*
X23814270Y-6700447D01*
X23755392Y-6738274D01*
X23739734Y-6752696D01*
X23697179Y-6808488D01*
X23670385Y-6874565D01*
X23659746Y-6942829D01*
X23659036Y-6967434D01*
X23659036Y-7036506D01*
X23665420Y-7107519D01*
X23687486Y-7176588D01*
X23725313Y-7235306D01*
X23739734Y-7250903D01*
X23795527Y-7293638D01*
X23861604Y-7320546D01*
X23929867Y-7331230D01*
X23954473Y-7331942D01*
X24624333Y-7331942D01*
X24624333Y-7075829D01*
X24072784Y-7075829D01*
X24023202Y-7055997D01*
X24003712Y-7006757D01*
X24023202Y-6957518D01*
X24072784Y-6938027D01*
X24427376Y-6938027D01*
X24498389Y-6931617D01*
X24567458Y-6909458D01*
X24626175Y-6871470D01*
X24641772Y-6856988D01*
X24684508Y-6801376D01*
X24711415Y-6735412D01*
X24722099Y-6667194D01*
X24722812Y-6642591D01*
X24722812Y-6563603D01*
X24716401Y-6492563D01*
X24694242Y-6423400D01*
X24656255Y-6364523D01*
X24641772Y-6348865D01*
X24586160Y-6306309D01*
X24520196Y-6279515D01*
X24451978Y-6268876D01*
X24427376Y-6268167D01*
X24339385Y-6268787D01*
X24249802Y-6270646D01*
X24158627Y-6273745D01*
X24089201Y-6276882D01*
X24018879Y-6280717D01*
X23947661Y-6285249D01*
X23875549Y-6290479D01*
X23802540Y-6296405D01*
X23728636Y-6303029D01*
X23678869Y-6307832D01*
X23678869Y-6563603D01*
G37*
G36*
X25268890Y-7292619D02*
G01*
X25268890Y-6288000D01*
X24924214Y-6288000D01*
X24924214Y-7026590D01*
X24776496Y-7026590D01*
X24776496Y-7292619D01*
X25268890Y-7292619D01*
G37*
G36*
X24924214Y-7686534D02*
G01*
X25268890Y-7686534D01*
X25268890Y-7410588D01*
X24924214Y-7410588D01*
X24924214Y-7686534D01*
G37*
G36*
X26237725Y-6268903D02*
G01*
X26312341Y-6279948D01*
X26383320Y-6307764D01*
X26441744Y-6351942D01*
X26465878Y-6379683D01*
X26501876Y-6444532D01*
X26520283Y-6513573D01*
X26525519Y-6583436D01*
X26525519Y-7036506D01*
X26524783Y-7063638D01*
X26513738Y-7138255D01*
X26485922Y-7209234D01*
X26441744Y-7267658D01*
X26414102Y-7291792D01*
X26349400Y-7327789D01*
X26280434Y-7346197D01*
X26210593Y-7351433D01*
X25757522Y-7351433D01*
X25721592Y-7350124D01*
X25648054Y-7337607D01*
X25584633Y-7311836D01*
X25526029Y-7267658D01*
X25501894Y-7240015D01*
X25465897Y-7175314D01*
X25447489Y-7106347D01*
X25442253Y-7036506D01*
X25442253Y-6612842D01*
X25786929Y-6612842D01*
X25786929Y-7006757D01*
X25802048Y-7060753D01*
X25865917Y-7085745D01*
X26102198Y-7085745D01*
X26155960Y-7070627D01*
X26180844Y-7006757D01*
X26180844Y-6612842D01*
X26167864Y-6561922D01*
X26102198Y-6534196D01*
X25865917Y-6534196D01*
X25814775Y-6547176D01*
X25786929Y-6612842D01*
X25442253Y-6612842D01*
X25442253Y-6583436D01*
X25443562Y-6547505D01*
X25456080Y-6473968D01*
X25481850Y-6410546D01*
X25526029Y-6351942D01*
X25553770Y-6327808D01*
X25618618Y-6291811D01*
X25687659Y-6273403D01*
X25757522Y-6268167D01*
X26210593Y-6268167D01*
X26237725Y-6268903D01*
G37*
G36*
X27276761Y-7065913D02*
G01*
X27201788Y-7061266D01*
X27127950Y-7048978D01*
X27056871Y-7031352D01*
X27040481Y-7026590D01*
X27040481Y-6288000D01*
X26695805Y-6288000D01*
X26695805Y-7331942D01*
X27001158Y-7331942D01*
X27020648Y-7233464D01*
X27084922Y-7271470D01*
X27150326Y-7301799D01*
X27210767Y-7322710D01*
X27279577Y-7340213D01*
X27349038Y-7350423D01*
X27375240Y-7351433D01*
X27463803Y-7351433D01*
X27534981Y-7345050D01*
X27604170Y-7322984D01*
X27662941Y-7285157D01*
X27678541Y-7270735D01*
X27721096Y-7215090D01*
X27747891Y-7149026D01*
X27758529Y-7080660D01*
X27759239Y-7055997D01*
X27759239Y-6288000D01*
X27414563Y-6288000D01*
X27414563Y-6997183D01*
X27394731Y-7046080D01*
X27345833Y-7065913D01*
X27276761Y-7065913D01*
G37*
G36*
X29187180Y-6268167D02*
G01*
X29103838Y-6268787D01*
X29018283Y-6270646D01*
X28930517Y-6273745D01*
X28840538Y-6278083D01*
X28771603Y-6282150D01*
X28701424Y-6286915D01*
X28630000Y-6292377D01*
X28557332Y-6298536D01*
X28483420Y-6305392D01*
X28458506Y-6307832D01*
X28458506Y-6573519D01*
X28538184Y-6568264D01*
X28613986Y-6563526D01*
X28685910Y-6559304D01*
X28775779Y-6554480D01*
X28858756Y-6550574D01*
X28934840Y-6547587D01*
X29004032Y-6545520D01*
X29080830Y-6544227D01*
X29108534Y-6544113D01*
X29175178Y-6565737D01*
X29180341Y-6570442D01*
X29206778Y-6634229D01*
X29207013Y-6642591D01*
X29207013Y-6721237D01*
X29193033Y-6788596D01*
X29134801Y-6833887D01*
X29088701Y-6839549D01*
X28675296Y-6839549D01*
X28675296Y-7115152D01*
X29049378Y-7115152D01*
X29116737Y-7129132D01*
X29162028Y-7187364D01*
X29167690Y-7233464D01*
X29167690Y-7272787D01*
X29153709Y-7340145D01*
X29095478Y-7385437D01*
X29049378Y-7391098D01*
X28478339Y-7391098D01*
X28478339Y-7666702D01*
X29147857Y-7666702D01*
X29216699Y-7663612D01*
X29287899Y-7652198D01*
X29357249Y-7628855D01*
X29419940Y-7589464D01*
X29431667Y-7578823D01*
X29475470Y-7522335D01*
X29504937Y-7451349D01*
X29519096Y-7376079D01*
X29522281Y-7312110D01*
X29516972Y-7242687D01*
X29498867Y-7176272D01*
X29467913Y-7120281D01*
X29418317Y-7067551D01*
X29357321Y-7029380D01*
X29325324Y-7016674D01*
X29390145Y-6991653D01*
X29452244Y-6948312D01*
X29501564Y-6889242D01*
X29534235Y-6824653D01*
X29541772Y-6803987D01*
X29557247Y-6733624D01*
X29561604Y-6662082D01*
X29561604Y-6642591D01*
X29558419Y-6573749D01*
X29546650Y-6502549D01*
X29522580Y-6433200D01*
X29481963Y-6370509D01*
X29470990Y-6358781D01*
X29411905Y-6314978D01*
X29345761Y-6288077D01*
X29277367Y-6273830D01*
X29199155Y-6268255D01*
X29187180Y-6268167D01*
G37*
G36*
X29673761Y-6583436D02*
G01*
X30028352Y-6583436D01*
X30028352Y-6288000D01*
X29673761Y-6288000D01*
X29673761Y-6583436D01*
G37*
G36*
X30957516Y-6268533D02*
G01*
X31028441Y-6274023D01*
X31101100Y-6288754D01*
X31170834Y-6316568D01*
X31232323Y-6361859D01*
X31249067Y-6380417D01*
X31285665Y-6439605D01*
X31310552Y-6512898D01*
X31322721Y-6588599D01*
X31326015Y-6662082D01*
X31326015Y-7292619D01*
X31325649Y-7317995D01*
X31320159Y-7388833D01*
X31305428Y-7461449D01*
X31277614Y-7531215D01*
X31232323Y-7592842D01*
X31213822Y-7609586D01*
X31154731Y-7646184D01*
X31081449Y-7671071D01*
X31005686Y-7683240D01*
X30932100Y-7686534D01*
X30557676Y-7686534D01*
X30532300Y-7686168D01*
X30461462Y-7680678D01*
X30388846Y-7665948D01*
X30319080Y-7638133D01*
X30257452Y-7592842D01*
X30240709Y-7574284D01*
X30204110Y-7515096D01*
X30179224Y-7441803D01*
X30167055Y-7366102D01*
X30163761Y-7292619D01*
X30163761Y-6662082D01*
X30518352Y-6662082D01*
X30518352Y-7292619D01*
X30524014Y-7338586D01*
X30569305Y-7396649D01*
X30636664Y-7410588D01*
X30853112Y-7410588D01*
X30899212Y-7404943D01*
X30957443Y-7359783D01*
X30971423Y-7292619D01*
X30971423Y-6662082D01*
X30965762Y-6616115D01*
X30920471Y-6558052D01*
X30853112Y-6544113D01*
X30636664Y-6544113D01*
X30590564Y-6549758D01*
X30532333Y-6594918D01*
X30518352Y-6662082D01*
X30163761Y-6662082D01*
X30164127Y-6636706D01*
X30169616Y-6565868D01*
X30184347Y-6493252D01*
X30212162Y-6423486D01*
X30257452Y-6361859D01*
X30276011Y-6345115D01*
X30335199Y-6308517D01*
X30408492Y-6283630D01*
X30484193Y-6271461D01*
X30557676Y-6268167D01*
X30932100Y-6268167D01*
X30957516Y-6268533D01*
G37*
G36*
X31457320Y-6583436D02*
G01*
X31811911Y-6583436D01*
X31811911Y-6288000D01*
X31457320Y-6288000D01*
X31457320Y-6583436D01*
G37*
G36*
X32741075Y-6268533D02*
G01*
X32812000Y-6274023D01*
X32884659Y-6288754D01*
X32954393Y-6316568D01*
X33015882Y-6361859D01*
X33032626Y-6380417D01*
X33069224Y-6439605D01*
X33094111Y-6512898D01*
X33106280Y-6588599D01*
X33109574Y-6662082D01*
X33109574Y-7292619D01*
X33109208Y-7317995D01*
X33103718Y-7388833D01*
X33088987Y-7461449D01*
X33061173Y-7531215D01*
X33015882Y-7592842D01*
X32997381Y-7609586D01*
X32938290Y-7646184D01*
X32865008Y-7671071D01*
X32789245Y-7683240D01*
X32715659Y-7686534D01*
X32341235Y-7686534D01*
X32315859Y-7686168D01*
X32245021Y-7680678D01*
X32172405Y-7665948D01*
X32102639Y-7638133D01*
X32041011Y-7592842D01*
X32024268Y-7574284D01*
X31987669Y-7515096D01*
X31962782Y-7441803D01*
X31950614Y-7366102D01*
X31947320Y-7292619D01*
X31947320Y-6662082D01*
X32301911Y-6662082D01*
X32301911Y-7292619D01*
X32307573Y-7338586D01*
X32352864Y-7396649D01*
X32420223Y-7410588D01*
X32636671Y-7410588D01*
X32682771Y-7404943D01*
X32741002Y-7359783D01*
X32754982Y-7292619D01*
X32754982Y-6662082D01*
X32749321Y-6616115D01*
X32704030Y-6558052D01*
X32636671Y-6544113D01*
X32420223Y-6544113D01*
X32374123Y-6549758D01*
X32315892Y-6594918D01*
X32301911Y-6662082D01*
X31947320Y-6662082D01*
X31947686Y-6636706D01*
X31953175Y-6565868D01*
X31967906Y-6493252D01*
X31995721Y-6423486D01*
X32041011Y-6361859D01*
X32059570Y-6345115D01*
X32118758Y-6308517D01*
X32192051Y-6283630D01*
X32267752Y-6271461D01*
X32341235Y-6268167D01*
X32715659Y-6268167D01*
X32741075Y-6268533D01*
G37*
D10*
G36*
X13761387Y-11650457D02*
G01*
X14298722Y-11650457D01*
X14298722Y-10199654D01*
X14293862Y-10092350D01*
X14275906Y-9981617D01*
X14244721Y-9886451D01*
X14192881Y-9796753D01*
X14160480Y-9759529D01*
X14081132Y-9699048D01*
X13981328Y-9655848D01*
X13877220Y-9632222D01*
X13775520Y-9622502D01*
X13720355Y-9621287D01*
X13073600Y-9621287D01*
X12966146Y-9626147D01*
X12855326Y-9644103D01*
X12760167Y-9675288D01*
X12670591Y-9727128D01*
X12633474Y-9759529D01*
X12572993Y-9839060D01*
X12529793Y-9938925D01*
X12506168Y-10042986D01*
X12496448Y-10144572D01*
X12495233Y-10199654D01*
X12495233Y-11650457D01*
X13032567Y-11650457D01*
X13032567Y-10199654D01*
X13057881Y-10100660D01*
X13141763Y-10050491D01*
X13185951Y-10046758D01*
X13608003Y-10046758D01*
X13707313Y-10071992D01*
X13758991Y-10163819D01*
X13761387Y-10199654D01*
X13761387Y-11650457D01*
G37*
G36*
X15553153Y-9649620D02*
G01*
X14509259Y-9649620D01*
X14509259Y-10074602D01*
X14762295Y-10074602D01*
X14762295Y-11225474D01*
X14509259Y-11225474D01*
X14509259Y-11650457D01*
X15553153Y-11650457D01*
X15553153Y-11225474D01*
X15300117Y-11225474D01*
X15300117Y-10074602D01*
X15553153Y-10074602D01*
X15553153Y-9649620D01*
G37*
G36*
X17515400Y-9649620D02*
G01*
X16956084Y-9649620D01*
X16305421Y-10788280D01*
X16305421Y-9649620D01*
X15768087Y-9649620D01*
X15768087Y-11650457D01*
X16327403Y-11650457D01*
X16977577Y-10512285D01*
X16977577Y-11650457D01*
X17515400Y-11650457D01*
X17515400Y-9649620D01*
G37*
G36*
X18771297Y-9649620D02*
G01*
X17727403Y-9649620D01*
X17727403Y-10074602D01*
X17980438Y-10074602D01*
X17980438Y-11225474D01*
X17727403Y-11225474D01*
X17727403Y-11650457D01*
X18771297Y-11650457D01*
X18771297Y-11225474D01*
X18518261Y-11225474D01*
X18518261Y-10074602D01*
X18771297Y-10074602D01*
X18771297Y-9649620D01*
G37*
G36*
X20266518Y-9622502D02*
G01*
X20368218Y-9632222D01*
X20472326Y-9655848D01*
X20572130Y-9699048D01*
X20651478Y-9759529D01*
X20683879Y-9796753D01*
X20735719Y-9886451D01*
X20766904Y-9981617D01*
X20784860Y-10092350D01*
X20789720Y-10199654D01*
X20789720Y-11100422D01*
X20788505Y-11155500D01*
X20778785Y-11257051D01*
X20755159Y-11361029D01*
X20711959Y-11460741D01*
X20651478Y-11540059D01*
X20614361Y-11572574D01*
X20524785Y-11624598D01*
X20429626Y-11655893D01*
X20318806Y-11673912D01*
X20211353Y-11678789D01*
X19507933Y-11678789D01*
X19452851Y-11677570D01*
X19351265Y-11667815D01*
X19247204Y-11644107D01*
X19147339Y-11600753D01*
X19067808Y-11540059D01*
X19035407Y-11502949D01*
X18983567Y-11413434D01*
X18952381Y-11318379D01*
X18934426Y-11207709D01*
X18929566Y-11100422D01*
X18929566Y-10199654D01*
X19467389Y-10199654D01*
X19467389Y-11100422D01*
X19469785Y-11136257D01*
X19521463Y-11228084D01*
X19620773Y-11253318D01*
X20099001Y-11253318D01*
X20143189Y-11249585D01*
X20227071Y-11199416D01*
X20252385Y-11100422D01*
X20252385Y-10199654D01*
X20249989Y-10163819D01*
X20198311Y-10071992D01*
X20099001Y-10046758D01*
X19620773Y-10046758D01*
X19576585Y-10050491D01*
X19492703Y-10100660D01*
X19467389Y-10199654D01*
X18929566Y-10199654D01*
X18930781Y-10144572D01*
X18940501Y-10042986D01*
X18964126Y-9938925D01*
X19007327Y-9839060D01*
X19067808Y-9759529D01*
X19105032Y-9727128D01*
X19194730Y-9675288D01*
X19289895Y-9644103D01*
X19400629Y-9626147D01*
X19507933Y-9621287D01*
X20211353Y-9621287D01*
X20266518Y-9622502D01*
G37*
G36*
X20945547Y-10437547D02*
G01*
X20945547Y-10862529D01*
X22130124Y-10862529D01*
X22130124Y-10437547D01*
X20945547Y-10437547D01*
G37*
G36*
X24033265Y-10702306D02*
G01*
X23663969Y-10043339D01*
X23251688Y-10043339D01*
X22882392Y-10702306D01*
X22882392Y-9649620D01*
X22345058Y-9649620D01*
X22345058Y-11650457D01*
X22904374Y-11650457D01*
X23457829Y-10626591D01*
X24011283Y-11650457D01*
X24570599Y-11650457D01*
X24570599Y-9649620D01*
X24033265Y-9649620D01*
X24033265Y-10702306D01*
G37*
G36*
X26414144Y-9679417D02*
G01*
X26295707Y-9669029D01*
X26181279Y-9659662D01*
X26070862Y-9651317D01*
X25964455Y-9643994D01*
X25862057Y-9637693D01*
X25763670Y-9632414D01*
X25638724Y-9626964D01*
X25520908Y-9623331D01*
X25410220Y-9621514D01*
X25357549Y-9621287D01*
X25256874Y-9625993D01*
X25152572Y-9643377D01*
X25050715Y-9678930D01*
X24967359Y-9731213D01*
X24940871Y-9755132D01*
X24876171Y-9842403D01*
X24836435Y-9939635D01*
X24815391Y-10039889D01*
X24807157Y-10154309D01*
X24807026Y-10171811D01*
X24807026Y-11072090D01*
X24811886Y-11179543D01*
X24829841Y-11290363D01*
X24861027Y-11385522D01*
X24912867Y-11475098D01*
X24945267Y-11512215D01*
X25024799Y-11572696D01*
X25124664Y-11615897D01*
X25228725Y-11639522D01*
X25330311Y-11649242D01*
X25385393Y-11650457D01*
X26414144Y-11650457D01*
X26414144Y-11225474D01*
X25498233Y-11225474D01*
X25398923Y-11200160D01*
X25348593Y-11116278D01*
X25344849Y-11072090D01*
X25344849Y-10171811D01*
X25378066Y-10079975D01*
X25467459Y-10046758D01*
X25567774Y-10047726D01*
X25593488Y-10048224D01*
X25692748Y-10050701D01*
X25739545Y-10052132D01*
X25839773Y-10055979D01*
X25892441Y-10057994D01*
X25993644Y-10062991D01*
X26092232Y-10069229D01*
X26194974Y-10076006D01*
X26297070Y-10082494D01*
X26401762Y-10088986D01*
X26414144Y-10089745D01*
X26414144Y-9679417D01*
G37*
G36*
X27864946Y-11650457D02*
G01*
X28402281Y-11650457D01*
X28402281Y-10199654D01*
X28397421Y-10092350D01*
X28379465Y-9981617D01*
X28348280Y-9886451D01*
X28296440Y-9796753D01*
X28264039Y-9759529D01*
X28184691Y-9699048D01*
X28084887Y-9655848D01*
X27980779Y-9632222D01*
X27879079Y-9622502D01*
X27823914Y-9621287D01*
X27177159Y-9621287D01*
X27069705Y-9626147D01*
X26958885Y-9644103D01*
X26863726Y-9675288D01*
X26774150Y-9727128D01*
X26737033Y-9759529D01*
X26676552Y-9839060D01*
X26633352Y-9938925D01*
X26609727Y-10042986D01*
X26600007Y-10144572D01*
X26598792Y-10199654D01*
X26598792Y-11650457D01*
X27136126Y-11650457D01*
X27136126Y-10199654D01*
X27161440Y-10100660D01*
X27245322Y-10050491D01*
X27289510Y-10046758D01*
X27711562Y-10046758D01*
X27810872Y-10071992D01*
X27862550Y-10163819D01*
X27864946Y-10199654D01*
X27864946Y-11650457D01*
G37*
G36*
X28612818Y-10437547D02*
G01*
X28612818Y-10862529D01*
X29797396Y-10862529D01*
X29797396Y-10437547D01*
X28612818Y-10437547D01*
G37*
G36*
X30549664Y-10240687D02*
G01*
X30918959Y-10240687D01*
X31242337Y-9649620D01*
X31827054Y-9649620D01*
X31472413Y-10273904D01*
X31562153Y-10307583D01*
X31643898Y-10366008D01*
X31707863Y-10446828D01*
X31742912Y-10520467D01*
X31770372Y-10618785D01*
X31784142Y-10719932D01*
X31787975Y-10819054D01*
X31787975Y-11072090D01*
X31786760Y-11127255D01*
X31777040Y-11228955D01*
X31753415Y-11333063D01*
X31710214Y-11432867D01*
X31649734Y-11512215D01*
X31612616Y-11544616D01*
X31523040Y-11596456D01*
X31427881Y-11627642D01*
X31317061Y-11645597D01*
X31209608Y-11650457D01*
X30012330Y-11650457D01*
X30012330Y-11225474D01*
X30549664Y-11225474D01*
X31096768Y-11225474D01*
X31140956Y-11221730D01*
X31224838Y-11171400D01*
X31250152Y-11072090D01*
X31250152Y-10819054D01*
X31246408Y-10774866D01*
X31196078Y-10690984D01*
X31096768Y-10665670D01*
X30549664Y-10665670D01*
X30549664Y-11225474D01*
X30012330Y-11225474D01*
X30012330Y-9649620D01*
X30549664Y-9649620D01*
X30549664Y-10240687D01*
G37*
G36*
X32564179Y-10212355D02*
G01*
X33224123Y-10212355D01*
X33279288Y-10213570D01*
X33380988Y-10223290D01*
X33485096Y-10246915D01*
X33584900Y-10290116D01*
X33664249Y-10350596D01*
X33696649Y-10387714D01*
X33748489Y-10477290D01*
X33779675Y-10572449D01*
X33797630Y-10683269D01*
X33802490Y-10790722D01*
X33802490Y-11072090D01*
X33801275Y-11127255D01*
X33791555Y-11228955D01*
X33767930Y-11333063D01*
X33724729Y-11432867D01*
X33664249Y-11512215D01*
X33627131Y-11544616D01*
X33537555Y-11596456D01*
X33442396Y-11627642D01*
X33331576Y-11645597D01*
X33224123Y-11650457D01*
X32026845Y-11650457D01*
X32026845Y-11225474D01*
X32564179Y-11225474D01*
X33111283Y-11225474D01*
X33155471Y-11221730D01*
X33239353Y-11171400D01*
X33264667Y-11072090D01*
X33264667Y-10790722D01*
X33260923Y-10746534D01*
X33210593Y-10662652D01*
X33111283Y-10637338D01*
X32564179Y-10637338D01*
X32564179Y-11225474D01*
X32026845Y-11225474D01*
X32026845Y-9649620D01*
X32564179Y-9649620D01*
X32564179Y-10212355D01*
G37*
G36*
X35452106Y-11015914D02*
G01*
X35442149Y-10911238D01*
X35412276Y-10813061D01*
X35362487Y-10721381D01*
X35292784Y-10636200D01*
X35244011Y-10590443D01*
X35165801Y-10526462D01*
X35107724Y-10482488D01*
X34542057Y-10074602D01*
X35452106Y-10074602D01*
X35452106Y-9649620D01*
X33901164Y-9649620D01*
X33901164Y-10207470D01*
X34914283Y-10939222D01*
X34914283Y-11072090D01*
X34888969Y-11171400D01*
X34805087Y-11221730D01*
X34760899Y-11225474D01*
X33957340Y-11225474D01*
X33957340Y-11650457D01*
X34873739Y-11650457D01*
X34981027Y-11645597D01*
X35091696Y-11627642D01*
X35186752Y-11596456D01*
X35276267Y-11544616D01*
X35313376Y-11512215D01*
X35374071Y-11432867D01*
X35417424Y-11333063D01*
X35441132Y-11228955D01*
X35450887Y-11127255D01*
X35452106Y-11072090D01*
X35452106Y-11015914D01*
G37*
G36*
X36776846Y-9622502D02*
G01*
X36878546Y-9632222D01*
X36982654Y-9655848D01*
X37082458Y-9699048D01*
X37161806Y-9759529D01*
X37194207Y-9796753D01*
X37246047Y-9886451D01*
X37277232Y-9981617D01*
X37295188Y-10092350D01*
X37300048Y-10199654D01*
X37300048Y-11100422D01*
X37298833Y-11155500D01*
X37289113Y-11257051D01*
X37265487Y-11361029D01*
X37222287Y-11460741D01*
X37161806Y-11540059D01*
X37124689Y-11572574D01*
X37035113Y-11624598D01*
X36939954Y-11655893D01*
X36829134Y-11673912D01*
X36721681Y-11678789D01*
X36186789Y-11678789D01*
X36131707Y-11677570D01*
X36030121Y-11667815D01*
X35926059Y-11644107D01*
X35826195Y-11600753D01*
X35746663Y-11540059D01*
X35714263Y-11502949D01*
X35662422Y-11413434D01*
X35631237Y-11318379D01*
X35613282Y-11207709D01*
X35608422Y-11100422D01*
X35608422Y-10199654D01*
X36146244Y-10199654D01*
X36146244Y-11100422D01*
X36148641Y-11136257D01*
X36200318Y-11228084D01*
X36299629Y-11253318D01*
X36608840Y-11253318D01*
X36653028Y-11249585D01*
X36736910Y-11199416D01*
X36762225Y-11100422D01*
X36762225Y-10199654D01*
X36759828Y-10163819D01*
X36708151Y-10071992D01*
X36608840Y-10046758D01*
X36299629Y-10046758D01*
X36255441Y-10050491D01*
X36171559Y-10100660D01*
X36146244Y-10199654D01*
X35608422Y-10199654D01*
X35609637Y-10144572D01*
X35619357Y-10042986D01*
X35642982Y-9938925D01*
X35686182Y-9839060D01*
X35746663Y-9759529D01*
X35783887Y-9727128D01*
X35873585Y-9675288D01*
X35968751Y-9644103D01*
X36079484Y-9626147D01*
X36186789Y-9621287D01*
X36721681Y-9621287D01*
X36776846Y-9622502D01*
G37*
G36*
X38468994Y-10043339D02*
G01*
X37428031Y-10043339D01*
X37428031Y-10457575D01*
X38109957Y-11650457D01*
X38708840Y-11650457D01*
X38033265Y-10468810D01*
X38468994Y-10468810D01*
X38468994Y-10890862D01*
X39006817Y-10890862D01*
X39006817Y-10468810D01*
X39203676Y-10468810D01*
X39203676Y-10043339D01*
X39006817Y-10043339D01*
X39006817Y-9649620D01*
X38468994Y-9649620D01*
X38468994Y-10043339D01*
G37*
G36*
X40471751Y-9622502D02*
G01*
X40573452Y-9632222D01*
X40677560Y-9655848D01*
X40777364Y-9699048D01*
X40856712Y-9759529D01*
X40889112Y-9796753D01*
X40940953Y-9886451D01*
X40972138Y-9981617D01*
X40990093Y-10092350D01*
X40994953Y-10199654D01*
X40994953Y-11100422D01*
X40993738Y-11155500D01*
X40984018Y-11257051D01*
X40960393Y-11361029D01*
X40917193Y-11460741D01*
X40856712Y-11540059D01*
X40819595Y-11572574D01*
X40730019Y-11624598D01*
X40634860Y-11655893D01*
X40524040Y-11673912D01*
X40416586Y-11678789D01*
X39881695Y-11678789D01*
X39826613Y-11677570D01*
X39725027Y-11667815D01*
X39620965Y-11644107D01*
X39521100Y-11600753D01*
X39441569Y-11540059D01*
X39409169Y-11502949D01*
X39357328Y-11413434D01*
X39326143Y-11318379D01*
X39308188Y-11207709D01*
X39303327Y-11100422D01*
X39303327Y-10199654D01*
X39841150Y-10199654D01*
X39841150Y-11100422D01*
X39843547Y-11136257D01*
X39895224Y-11228084D01*
X39994535Y-11253318D01*
X40303746Y-11253318D01*
X40347934Y-11249585D01*
X40431816Y-11199416D01*
X40457131Y-11100422D01*
X40457131Y-10199654D01*
X40454734Y-10163819D01*
X40403057Y-10071992D01*
X40303746Y-10046758D01*
X39994535Y-10046758D01*
X39950347Y-10050491D01*
X39866465Y-10100660D01*
X39841150Y-10199654D01*
X39303327Y-10199654D01*
X39304542Y-10144572D01*
X39314263Y-10042986D01*
X39337888Y-9938925D01*
X39381088Y-9839060D01*
X39441569Y-9759529D01*
X39478793Y-9727128D01*
X39568491Y-9675288D01*
X39663657Y-9644103D01*
X39774390Y-9626147D01*
X39881695Y-9621287D01*
X40416586Y-9621287D01*
X40471751Y-9622502D01*
G37*
D12*
%TO.C,HOLE\u002A\u002A*%
X20000Y-22230000D02*
G75*
G02*
X-3580000Y-22230000I-1800000J0D01*
G01*
X-3580000Y-22230000D02*
G75*
G02*
X20000Y-22230000I1800000J0D01*
G01*
X20000Y-3160000D02*
G75*
G02*
X-3580000Y-3160000I-1800000J0D01*
G01*
X-3580000Y-3160000D02*
G75*
G02*
X20000Y-3160000I1800000J0D01*
G01*
X55430000Y-3160000D02*
G75*
G02*
X51830000Y-3160000I-1800000J0D01*
G01*
X51830000Y-3160000D02*
G75*
G02*
X55430000Y-3160000I1800000J0D01*
G01*
X55430000Y-22240000D02*
G75*
G02*
X51830000Y-22240000I-1800000J0D01*
G01*
X51830000Y-22240000D02*
G75*
G02*
X55430000Y-22240000I1800000J0D01*
G01*
%TD*%
%LPC*%
D13*
%TO.C,HOLE\u002A\u002A*%
X-1780000Y-22230000D03*
%TD*%
%TO.C,HOLE\u002A\u002A*%
X-1780000Y-3160000D03*
%TD*%
%TO.C,HOLE\u002A\u002A*%
X53630000Y-3160000D03*
%TD*%
%TO.C,HOLE\u002A\u002A*%
X53630000Y-22240000D03*
%TD*%
D14*
%TO.C,USB1*%
X639000Y-9800000D03*
X639000Y-15580000D03*
D15*
X1139000Y-8365000D03*
X1139000Y-17015000D03*
D16*
X-3061000Y-8365000D03*
X-3061000Y-17015000D03*
%TD*%
D17*
%TO.C,J3*%
X55550000Y-8895000D03*
D18*
X55550000Y-11435000D03*
X55550000Y-13975000D03*
X55550000Y-16515000D03*
%TD*%
D17*
%TO.C,J2*%
X1800000Y-1340000D03*
D18*
X4340000Y-1340000D03*
X6880000Y-1340000D03*
X9420000Y-1340000D03*
X11960000Y-1340000D03*
X14500000Y-1340000D03*
X17040000Y-1340000D03*
X19580000Y-1340000D03*
X22120000Y-1340000D03*
X24660000Y-1340000D03*
X27200000Y-1340000D03*
X29740000Y-1340000D03*
X32280000Y-1340000D03*
X34820000Y-1340000D03*
X37360000Y-1340000D03*
X39900000Y-1340000D03*
X42440000Y-1340000D03*
X44980000Y-1340000D03*
X47520000Y-1340000D03*
X50060000Y-1340000D03*
%TD*%
D17*
%TO.C,J1*%
X1800000Y-24060000D03*
D18*
X4340000Y-24060000D03*
X6880000Y-24060000D03*
X9420000Y-24060000D03*
X11960000Y-24060000D03*
X14500000Y-24060000D03*
X17040000Y-24060000D03*
X19580000Y-24060000D03*
X22120000Y-24060000D03*
X24660000Y-24060000D03*
X27200000Y-24060000D03*
X29740000Y-24060000D03*
X32280000Y-24060000D03*
X34820000Y-24060000D03*
X37360000Y-24060000D03*
X39900000Y-24060000D03*
X42440000Y-24060000D03*
X44980000Y-24060000D03*
X47520000Y-24060000D03*
X50060000Y-24060000D03*
%TD*%
%LPD*%
M02*
