%TF.GenerationSoftware,KiCad,Pcbnew,7.0.10*%
%TF.CreationDate,2024-01-30T20:43:06+08:00*%
%TF.ProjectId,UINIO-MCU-RP2040,55494e49-4f2d-44d4-9355-2d5250323034,Version 1.0.0*%
%TF.SameCoordinates,PX73394ecPY5396ed0*%
%TF.FileFunction,Copper,L2,Bot*%
%TF.FilePolarity,Positive*%
%FSLAX46Y46*%
G04 Gerber Fmt 4.6, Leading zero omitted, Abs format (unit mm)*
G04 Created by KiCad (PCBNEW 7.0.10) date 2024-01-30 20:43:06*
%MOMM*%
%LPD*%
G01*
G04 APERTURE LIST*
%TA.AperFunction,ComponentPad*%
%ADD10O,2.100000X1.000000*%
%TD*%
%TA.AperFunction,ComponentPad*%
%ADD11O,1.900000X1.000000*%
%TD*%
%TA.AperFunction,ComponentPad*%
%ADD12R,1.700000X1.700000*%
%TD*%
%TA.AperFunction,ComponentPad*%
%ADD13O,1.700000X1.700000*%
%TD*%
%TA.AperFunction,ComponentPad*%
%ADD14C,2.200000*%
%TD*%
%TA.AperFunction,ViaPad*%
%ADD15C,0.500000*%
%TD*%
%TA.AperFunction,ViaPad*%
%ADD16C,0.700000*%
%TD*%
%TA.AperFunction,ViaPad*%
%ADD17C,0.900000*%
%TD*%
%TA.AperFunction,Conductor*%
%ADD18C,0.500000*%
%TD*%
%TA.AperFunction,Conductor*%
%ADD19C,0.200000*%
%TD*%
%TA.AperFunction,Conductor*%
%ADD20C,0.300000*%
%TD*%
%TA.AperFunction,Conductor*%
%ADD21C,0.400000*%
%TD*%
%TA.AperFunction,Conductor*%
%ADD22C,0.150000*%
%TD*%
G04 APERTURE END LIST*
D10*
%TO.P,USB1,13,GND*%
%TO.N,GND*%
X1139000Y-8365000D03*
%TO.P,USB1,14,GND*%
X1139000Y-17015000D03*
D11*
%TO.P,USB1,15,GND*%
X-3061000Y-8365000D03*
%TO.P,USB1,16,GND*%
X-3061000Y-17015000D03*
%TD*%
D12*
%TO.P,J3,1,Pin_1*%
%TO.N,/VDD_3.3V*%
X55550000Y-8895000D03*
D13*
%TO.P,J3,2,Pin_2*%
%TO.N,Net-(J3-Pin_2)*%
X55550000Y-11435000D03*
%TO.P,J3,3,Pin_3*%
%TO.N,Net-(J3-Pin_3)*%
X55550000Y-13975000D03*
%TO.P,J3,4,Pin_4*%
%TO.N,GND*%
X55550000Y-16515000D03*
%TD*%
D12*
%TO.P,J2,1,Pin_1*%
%TO.N,GND*%
X1800000Y-1340000D03*
D13*
%TO.P,J2,2,Pin_2*%
%TO.N,/VDD_3.3V*%
X4340000Y-1340000D03*
%TO.P,J2,3,Pin_3*%
%TO.N,GND*%
X6880000Y-1340000D03*
%TO.P,J2,4,Pin_4*%
%TO.N,/LDO_EN*%
X9420000Y-1340000D03*
%TO.P,J2,5,Pin_5*%
%TO.N,/ADC_VREF*%
X11960000Y-1340000D03*
%TO.P,J2,6,Pin_6*%
%TO.N,/GPIO28_ADC2*%
X14500000Y-1340000D03*
%TO.P,J2,7,Pin_7*%
%TO.N,/GPIO27_ADC1*%
X17040000Y-1340000D03*
%TO.P,J2,8,Pin_8*%
%TO.N,/GPIO26_ADC0*%
X19580000Y-1340000D03*
%TO.P,J2,9,Pin_9*%
%TO.N,/GPIO24*%
X22120000Y-1340000D03*
%TO.P,J2,10,Pin_10*%
%TO.N,/GPIO23*%
X24660000Y-1340000D03*
%TO.P,J2,11,Pin_11*%
%TO.N,/GPIO22*%
X27200000Y-1340000D03*
%TO.P,J2,12,Pin_12*%
%TO.N,/GPIO21*%
X29740000Y-1340000D03*
%TO.P,J2,13,Pin_13*%
%TO.N,/GPIO20*%
X32280000Y-1340000D03*
%TO.P,J2,14,Pin_14*%
%TO.N,/GPIO19*%
X34820000Y-1340000D03*
%TO.P,J2,15,Pin_15*%
%TO.N,/GPIO18*%
X37360000Y-1340000D03*
%TO.P,J2,16,Pin_16*%
%TO.N,/GPIO17*%
X39900000Y-1340000D03*
%TO.P,J2,17,Pin_17*%
%TO.N,/GPIO16*%
X42440000Y-1340000D03*
%TO.P,J2,18,Pin_18*%
%TO.N,/RUN*%
X44980000Y-1340000D03*
%TO.P,J2,19,Pin_19*%
%TO.N,/VDD_3.3V*%
X47520000Y-1340000D03*
%TO.P,J2,20,Pin_20*%
%TO.N,GND*%
X50060000Y-1340000D03*
%TD*%
D14*
%TO.P,HOLE\u002A\u002A,*%
%TO.N,*%
X-1780000Y-22230000D03*
%TD*%
%TO.P,HOLE\u002A\u002A,*%
%TO.N,*%
X-1780000Y-3160000D03*
%TD*%
%TO.P,HOLE\u002A\u002A,*%
%TO.N,*%
X53630000Y-3160000D03*
%TD*%
D12*
%TO.P,J1,1,Pin_1*%
%TO.N,GND*%
X1800000Y-24060000D03*
D13*
%TO.P,J1,2,Pin_2*%
%TO.N,/VDD_5V*%
X4340000Y-24060000D03*
%TO.P,J1,3,Pin_3*%
%TO.N,/GPIO0*%
X6880000Y-24060000D03*
%TO.P,J1,4,Pin_4*%
%TO.N,/GPIO1*%
X9420000Y-24060000D03*
%TO.P,J1,5,Pin_5*%
%TO.N,/GPIO2*%
X11960000Y-24060000D03*
%TO.P,J1,6,Pin_6*%
%TO.N,/GPIO3*%
X14500000Y-24060000D03*
%TO.P,J1,7,Pin_7*%
%TO.N,/GPIO4*%
X17040000Y-24060000D03*
%TO.P,J1,8,Pin_8*%
%TO.N,/GPIO5*%
X19580000Y-24060000D03*
%TO.P,J1,9,Pin_9*%
%TO.N,/GPIO6*%
X22120000Y-24060000D03*
%TO.P,J1,10,Pin_10*%
%TO.N,/GPIO7*%
X24660000Y-24060000D03*
%TO.P,J1,11,Pin_11*%
%TO.N,/GPIO8*%
X27200000Y-24060000D03*
%TO.P,J1,12,Pin_12*%
%TO.N,/GPIO9*%
X29740000Y-24060000D03*
%TO.P,J1,13,Pin_13*%
%TO.N,/GPIO10*%
X32280000Y-24060000D03*
%TO.P,J1,14,Pin_14*%
%TO.N,/GPIO11*%
X34820000Y-24060000D03*
%TO.P,J1,15,Pin_15*%
%TO.N,/GPIO12*%
X37360000Y-24060000D03*
%TO.P,J1,16,Pin_16*%
%TO.N,/GPIO13*%
X39900000Y-24060000D03*
%TO.P,J1,17,Pin_17*%
%TO.N,/GPIO14*%
X42440000Y-24060000D03*
%TO.P,J1,18,Pin_18*%
%TO.N,/GPIO15*%
X44980000Y-24060000D03*
%TO.P,J1,19,Pin_19*%
%TO.N,/VDD_3.3V*%
X47520000Y-24060000D03*
%TO.P,J1,20,Pin_20*%
%TO.N,GND*%
X50060000Y-24060000D03*
%TD*%
D14*
%TO.P,HOLE\u002A\u002A,*%
%TO.N,*%
X53630000Y-22240000D03*
%TD*%
D15*
%TO.N,GND*%
X25390000Y-15010000D03*
X31090000Y-3810000D03*
X16990000Y-17480000D03*
X25830000Y-8030000D03*
X18770000Y-10240000D03*
X33528000Y-3810000D03*
X41190000Y-4540000D03*
X43730000Y-6650000D03*
X17000000Y-8000000D03*
X16310000Y-10240000D03*
X17950000Y-12690000D03*
X13000000Y-5000000D03*
X21000000Y-5000000D03*
X16980000Y-16690000D03*
X20320000Y-22098000D03*
X38029028Y-6500000D03*
X38720000Y-4540000D03*
X37390000Y-10150000D03*
X11820000Y-16530000D03*
X4680000Y-12700000D03*
X35780000Y-19000000D03*
X39260000Y-19000000D03*
X38050000Y-10150000D03*
X38769028Y-6500000D03*
X17720000Y-16690000D03*
X14000000Y-5000000D03*
X17120000Y-12690000D03*
X43730000Y-4540000D03*
X28956000Y-3810000D03*
X11040000Y-15120000D03*
X18000000Y-5000000D03*
X13270000Y-13020000D03*
X17950000Y-10240000D03*
X17130000Y-10240000D03*
X12700000Y-22098000D03*
X10160000Y-22098000D03*
X32766000Y-21500000D03*
X21900000Y-10540000D03*
X17780000Y-22098000D03*
X42780000Y-6640000D03*
X16000000Y-8000000D03*
X21900000Y-8100000D03*
X18760000Y-12690000D03*
X24000000Y-5000000D03*
X16310000Y-12690000D03*
X36068000Y-21500000D03*
X15240000Y-22098000D03*
D16*
%TO.N,/VDD_3.3V*%
X35050000Y-18500000D03*
D17*
X11040000Y-9090000D03*
D16*
X28980000Y-7840000D03*
D15*
X21015000Y-8140000D03*
D17*
X15760000Y-18500000D03*
D15*
X37920000Y-8505000D03*
D16*
X24270000Y-9090000D03*
X39360000Y-16280000D03*
D17*
X11040000Y-13780000D03*
D16*
X27120000Y-15900000D03*
D17*
%TO.N,/VDD_5V*%
X10500000Y-17910000D03*
D16*
X40440000Y-20260000D03*
D15*
%TO.N,/GPIO25*%
X27275000Y-6870000D03*
X25090000Y-6870000D03*
D16*
%TO.N,/LDO_EN*%
X6990000Y-20210000D03*
D15*
%TO.N,/RUN*%
X46890000Y-7847720D03*
%TO.N,/GPIO29_ADC3*%
X38859028Y-17270000D03*
X25850000Y-9720000D03*
%TO.N,Net-(USB1-CC2)*%
X6090000Y-14430000D03*
X6090000Y-10950000D03*
%TO.N,/Boot_Select*%
X17000000Y-19510000D03*
X44760000Y-14170000D03*
D17*
%TO.N,/USB_5V*%
X3265000Y-15095000D03*
X3260000Y-10290000D03*
D15*
%TO.N,Net-(USB1-DN1)*%
X1052485Y-12947516D03*
X1050000Y-11940000D03*
%TD*%
D18*
%TO.N,GND*%
X18770000Y-10240000D02*
X18770000Y-12700000D01*
X35780000Y-19000000D02*
X39260000Y-19000000D01*
X17130000Y-10240000D02*
X17130000Y-12700000D01*
D19*
X37390000Y-10150000D02*
X38050000Y-10150000D01*
D18*
X16310000Y-12690000D02*
X16310000Y-10240000D01*
X17950000Y-12690000D02*
X17950000Y-10240000D01*
%TO.N,/VDD_3.3V*%
X15760000Y-18500000D02*
X11040000Y-13780000D01*
X21015000Y-8140000D02*
X21015000Y-9085000D01*
X21690000Y-9090000D02*
X24410000Y-9090000D01*
D20*
X27040000Y-18500000D02*
X35050000Y-18500000D01*
X35050000Y-18500000D02*
X38860000Y-18500000D01*
D18*
X15760000Y-18500000D02*
X27040000Y-18500000D01*
X47540000Y-9090000D02*
X55355000Y-9090000D01*
D20*
X37920000Y-9070000D02*
X37900000Y-9090000D01*
D18*
X11040000Y-13780000D02*
X11040000Y-9090000D01*
D20*
X38860000Y-18500000D02*
X39365000Y-17995000D01*
X37920000Y-8505000D02*
X37920000Y-9070000D01*
D18*
X21680000Y-9080000D02*
X21690000Y-9090000D01*
X21020000Y-9090000D02*
X21670000Y-9090000D01*
D20*
X27120000Y-18420000D02*
X27120000Y-15900000D01*
X28980000Y-7840000D02*
X28980000Y-9080000D01*
X39365000Y-17995000D02*
X39365000Y-16285000D01*
D18*
X21015000Y-9085000D02*
X21020000Y-9090000D01*
D20*
X27040000Y-18500000D02*
X27120000Y-18420000D01*
D18*
X21670000Y-9090000D02*
X21680000Y-9080000D01*
D20*
X39365000Y-16285000D02*
X39360000Y-16280000D01*
D18*
X47540000Y-9090000D02*
X47520000Y-9110000D01*
X47540000Y-9090000D02*
X47520000Y-9070000D01*
X47520000Y-9110000D02*
X47520000Y-24060000D01*
X37900000Y-9090000D02*
X47540000Y-9090000D01*
X29260000Y-9090000D02*
X37900000Y-9090000D01*
X24410000Y-9090000D02*
X29260000Y-9090000D01*
X11040000Y-9090000D02*
X21020000Y-9090000D01*
X47520000Y-9070000D02*
X47520000Y-1340000D01*
%TO.N,/VDD_5V*%
X12840000Y-20260000D02*
X40440000Y-20260000D01*
X10500000Y-17910000D02*
X10500000Y-17920000D01*
X10500000Y-17920000D02*
X12840000Y-20260000D01*
X10500000Y-17910000D02*
X4350000Y-24060000D01*
D19*
%TO.N,/GPIO25*%
X25090000Y-6870000D02*
X27275000Y-6870000D01*
D21*
%TO.N,/LDO_EN*%
X6990000Y-20200000D02*
X9420000Y-17770000D01*
X9420000Y-17770000D02*
X9420000Y-1340000D01*
X6990000Y-20210000D02*
X6990000Y-20200000D01*
D19*
%TO.N,/RUN*%
X46900000Y-7837720D02*
X46900000Y-3260000D01*
X46890000Y-7847720D02*
X46900000Y-7837720D01*
X46900000Y-3260000D02*
X44980000Y-1340000D01*
%TO.N,/GPIO29_ADC3*%
X33020000Y-17270000D02*
X25850000Y-10100000D01*
X38859028Y-17270000D02*
X33020000Y-17270000D01*
X25850000Y-10100000D02*
X25850000Y-9720000D01*
%TO.N,Net-(USB1-CC2)*%
X6090000Y-10950000D02*
X6090000Y-14430000D01*
%TO.N,/Boot_Select*%
X41296397Y-19520000D02*
X44760000Y-16056397D01*
X17000000Y-19510000D02*
X17010000Y-19520000D01*
X44760000Y-16056397D02*
X44760000Y-14170000D01*
X17010000Y-19520000D02*
X41296397Y-19520000D01*
%TO.N,/USB_5V*%
X3260000Y-15090000D02*
X3265000Y-15095000D01*
D18*
X3260000Y-10290000D02*
X3260000Y-15090000D01*
D19*
%TO.N,Net-(USB1-DN1)*%
X1052485Y-12947516D02*
X1050000Y-12945031D01*
D22*
X1050000Y-12945031D02*
X1050000Y-11940000D01*
%TD*%
%TA.AperFunction,Conductor*%
%TO.N,GND*%
G36*
X399600Y-270185D02*
G01*
X445355Y-322989D01*
X455850Y-387756D01*
X450000Y-442155D01*
X450000Y-1090000D01*
X1366314Y-1090000D01*
X1340507Y-1130156D01*
X1300000Y-1268111D01*
X1300000Y-1411889D01*
X1340507Y-1549844D01*
X1366314Y-1590000D01*
X450000Y-1590000D01*
X450000Y-2237844D01*
X456401Y-2297372D01*
X456403Y-2297379D01*
X506645Y-2432086D01*
X506649Y-2432093D01*
X592809Y-2547187D01*
X592812Y-2547190D01*
X707906Y-2633350D01*
X707913Y-2633354D01*
X842620Y-2683596D01*
X842627Y-2683598D01*
X902155Y-2689999D01*
X902172Y-2690000D01*
X1550000Y-2690000D01*
X1550000Y-1775501D01*
X1657685Y-1824680D01*
X1764237Y-1840000D01*
X1835763Y-1840000D01*
X1942315Y-1824680D01*
X2050000Y-1775501D01*
X2050000Y-2690000D01*
X2697828Y-2690000D01*
X2697844Y-2689999D01*
X2757372Y-2683598D01*
X2757379Y-2683596D01*
X2892086Y-2633354D01*
X2892093Y-2633350D01*
X3007187Y-2547190D01*
X3007190Y-2547187D01*
X3093350Y-2432093D01*
X3093354Y-2432086D01*
X3142422Y-2300529D01*
X3184293Y-2244595D01*
X3249757Y-2220178D01*
X3318030Y-2235030D01*
X3346285Y-2256181D01*
X3468599Y-2378495D01*
X3492248Y-2395054D01*
X3662165Y-2514032D01*
X3662167Y-2514033D01*
X3662170Y-2514035D01*
X3876337Y-2613903D01*
X4104592Y-2675063D01*
X4275319Y-2690000D01*
X4339999Y-2695659D01*
X4340000Y-2695659D01*
X4340001Y-2695659D01*
X4404681Y-2690000D01*
X4575408Y-2675063D01*
X4803663Y-2613903D01*
X5017830Y-2514035D01*
X5211401Y-2378495D01*
X5378495Y-2211401D01*
X5508730Y-2025405D01*
X5563307Y-1981781D01*
X5632805Y-1974587D01*
X5695160Y-2006110D01*
X5711879Y-2025405D01*
X5841890Y-2211078D01*
X6008917Y-2378105D01*
X6202421Y-2513600D01*
X6416507Y-2613429D01*
X6416516Y-2613433D01*
X6630000Y-2670634D01*
X6630000Y-1775501D01*
X6737685Y-1824680D01*
X6844237Y-1840000D01*
X6915763Y-1840000D01*
X7022315Y-1824680D01*
X7130000Y-1775501D01*
X7130000Y-2670633D01*
X7343483Y-2613433D01*
X7343492Y-2613429D01*
X7557578Y-2513600D01*
X7751082Y-2378105D01*
X7918108Y-2211079D01*
X8038439Y-2039229D01*
X8093016Y-1995604D01*
X8162514Y-1988410D01*
X8224869Y-2019933D01*
X8254104Y-2061777D01*
X8492867Y-2622571D01*
X8709589Y-3131596D01*
X8709590Y-3131597D01*
X8719500Y-3180172D01*
X8719500Y-17428480D01*
X8699815Y-17495519D01*
X8683181Y-17516161D01*
X7046175Y-19153166D01*
X7026687Y-19169050D01*
X6596069Y-19452591D01*
X6578317Y-19462303D01*
X6562412Y-19469384D01*
X6417768Y-19574475D01*
X6298140Y-19707336D01*
X6208750Y-19862164D01*
X6208747Y-19862170D01*
X6153504Y-20032192D01*
X6153503Y-20032194D01*
X6134815Y-20210000D01*
X6153503Y-20387805D01*
X6153504Y-20387807D01*
X6208747Y-20557829D01*
X6208750Y-20557835D01*
X6298141Y-20712665D01*
X6379464Y-20802983D01*
X6409694Y-20865974D01*
X6401069Y-20935309D01*
X6374995Y-20973636D01*
X5109068Y-22239563D01*
X5070731Y-22265641D01*
X3824122Y-22806368D01*
X3779534Y-22828371D01*
X3774474Y-22831505D01*
X3774377Y-22831349D01*
X3757736Y-22841400D01*
X3662176Y-22885961D01*
X3662169Y-22885965D01*
X3468600Y-23021503D01*
X3346284Y-23143819D01*
X3284961Y-23177303D01*
X3215269Y-23172319D01*
X3159336Y-23130447D01*
X3142421Y-23099470D01*
X3093354Y-22967913D01*
X3093350Y-22967906D01*
X3007190Y-22852812D01*
X3007187Y-22852809D01*
X2892093Y-22766649D01*
X2892086Y-22766645D01*
X2757379Y-22716403D01*
X2757372Y-22716401D01*
X2697844Y-22710000D01*
X2050000Y-22710000D01*
X2050000Y-23624498D01*
X1942315Y-23575320D01*
X1835763Y-23560000D01*
X1764237Y-23560000D01*
X1657685Y-23575320D01*
X1550000Y-23624498D01*
X1550000Y-22710000D01*
X902155Y-22710000D01*
X842627Y-22716401D01*
X842620Y-22716403D01*
X707913Y-22766645D01*
X707906Y-22766649D01*
X592812Y-22852809D01*
X592809Y-22852812D01*
X506649Y-22967906D01*
X506645Y-22967913D01*
X456403Y-23102620D01*
X456401Y-23102627D01*
X450000Y-23162155D01*
X450000Y-23810000D01*
X1366314Y-23810000D01*
X1340507Y-23850156D01*
X1300000Y-23988111D01*
X1300000Y-24131889D01*
X1340507Y-24269844D01*
X1366314Y-24310000D01*
X450000Y-24310000D01*
X450000Y-24957844D01*
X455850Y-25012244D01*
X443445Y-25081003D01*
X395836Y-25132141D01*
X332561Y-25149500D01*
X-2027491Y-25149500D01*
X-2034444Y-25149305D01*
X-2331866Y-25132602D01*
X-2345684Y-25131045D01*
X-2635926Y-25081730D01*
X-2649483Y-25078636D01*
X-2932386Y-24997133D01*
X-2945510Y-24992540D01*
X-3217500Y-24879879D01*
X-3230029Y-24873846D01*
X-3487699Y-24731436D01*
X-3499473Y-24724038D01*
X-3739577Y-24553676D01*
X-3750449Y-24545006D01*
X-3969970Y-24348830D01*
X-3979803Y-24338997D01*
X-4015731Y-24298794D01*
X-4175979Y-24119476D01*
X-4184649Y-24108604D01*
X-4355011Y-23868500D01*
X-4362409Y-23856726D01*
X-4465352Y-23670466D01*
X-4504823Y-23599049D01*
X-4510852Y-23586527D01*
X-4623513Y-23314537D01*
X-4628106Y-23301413D01*
X-4709609Y-23018510D01*
X-4712703Y-23004953D01*
X-4732846Y-22886400D01*
X-4762019Y-22714703D01*
X-4763575Y-22700900D01*
X-4780277Y-22403471D01*
X-4780472Y-22396519D01*
X-4780472Y-22230000D01*
X-3385449Y-22230000D01*
X-3365683Y-22481151D01*
X-3306874Y-22726110D01*
X-3210467Y-22958859D01*
X-3078840Y-23173653D01*
X-3078839Y-23173656D01*
X-3066078Y-23188597D01*
X-2915224Y-23365224D01*
X-2853685Y-23417783D01*
X-2723657Y-23528838D01*
X-2723654Y-23528839D01*
X-2508860Y-23660466D01*
X-2342915Y-23729202D01*
X-2276111Y-23756873D01*
X-2031148Y-23815683D01*
X-1780000Y-23835449D01*
X-1528852Y-23815683D01*
X-1283889Y-23756873D01*
X-1051141Y-23660466D01*
X-836341Y-23528836D01*
X-644776Y-23365224D01*
X-481164Y-23173659D01*
X-349534Y-22958859D01*
X-253127Y-22726111D01*
X-194317Y-22481148D01*
X-174551Y-22230000D01*
X-194317Y-21978852D01*
X-253127Y-21733889D01*
X-349534Y-21501140D01*
X-481161Y-21286346D01*
X-481162Y-21286343D01*
X-518125Y-21243066D01*
X-644776Y-21094776D01*
X-790825Y-20970038D01*
X-836344Y-20931161D01*
X-836347Y-20931160D01*
X-1051141Y-20799533D01*
X-1283890Y-20703126D01*
X-1528849Y-20644317D01*
X-1780000Y-20624551D01*
X-2031152Y-20644317D01*
X-2276111Y-20703126D01*
X-2508860Y-20799533D01*
X-2723654Y-20931160D01*
X-2723657Y-20931161D01*
X-2915224Y-21094776D01*
X-3078839Y-21286343D01*
X-3078840Y-21286346D01*
X-3210467Y-21501140D01*
X-3306874Y-21733889D01*
X-3365683Y-21978848D01*
X-3385449Y-22230000D01*
X-4780472Y-22230000D01*
X-4780472Y-17265000D01*
X-4484366Y-17265000D01*
X-4484069Y-17266946D01*
X-4484067Y-17266952D01*
X-4413438Y-17457657D01*
X-4413435Y-17457664D01*
X-4305851Y-17630267D01*
X-4165736Y-17777668D01*
X-4165734Y-17777669D01*
X-3998805Y-17893856D01*
X-3811908Y-17974059D01*
X-3612690Y-18015000D01*
X-3311000Y-18015000D01*
X-3311000Y-17315000D01*
X-2811000Y-17315000D01*
X-2811000Y-18015000D01*
X-2560287Y-18015000D01*
X-2408662Y-17999581D01*
X-2214619Y-17938700D01*
X-2214609Y-17938695D01*
X-2036785Y-17839994D01*
X-2036784Y-17839994D01*
X-1882470Y-17707521D01*
X-1882469Y-17707520D01*
X-1757982Y-17546695D01*
X-1668412Y-17364093D01*
X-1642754Y-17265000D01*
X-384366Y-17265000D01*
X-384069Y-17266946D01*
X-384067Y-17266952D01*
X-313438Y-17457657D01*
X-313435Y-17457664D01*
X-205851Y-17630267D01*
X-65736Y-17777668D01*
X-65734Y-17777669D01*
X101195Y-17893856D01*
X288092Y-17974059D01*
X487310Y-18015000D01*
X889000Y-18015000D01*
X889000Y-17315000D01*
X1389000Y-17315000D01*
X1389000Y-18015000D01*
X1739713Y-18015000D01*
X1891338Y-17999581D01*
X2085381Y-17938700D01*
X2085391Y-17938695D01*
X2263215Y-17839994D01*
X2263216Y-17839994D01*
X2417530Y-17707521D01*
X2417531Y-17707520D01*
X2542018Y-17546695D01*
X2631588Y-17364093D01*
X2657246Y-17265000D01*
X1905111Y-17265000D01*
X1944610Y-17240543D01*
X2012201Y-17151038D01*
X2042895Y-17043160D01*
X2032546Y-16931479D01*
X1982552Y-16831078D01*
X1910069Y-16765000D01*
X2662366Y-16765000D01*
X2662068Y-16763053D01*
X2662066Y-16763047D01*
X2591437Y-16572342D01*
X2591434Y-16572335D01*
X2483850Y-16399732D01*
X2343735Y-16252331D01*
X2343733Y-16252330D01*
X2176804Y-16136143D01*
X1989907Y-16055940D01*
X1790690Y-16015000D01*
X1389000Y-16015000D01*
X1389000Y-16715000D01*
X889000Y-16715000D01*
X889000Y-16113024D01*
X908685Y-16045985D01*
X934742Y-16016839D01*
X1026665Y-15942054D01*
X1109971Y-15824037D01*
X1134044Y-15756300D01*
X1158345Y-15687925D01*
X1158345Y-15687923D01*
X1158346Y-15687921D01*
X1168204Y-15543801D01*
X1138814Y-15402366D01*
X1072354Y-15274105D01*
X1072351Y-15274102D01*
X1072350Y-15274100D01*
X973754Y-15168530D01*
X850330Y-15093475D01*
X850329Y-15093474D01*
X850328Y-15093474D01*
X711228Y-15054500D01*
X603051Y-15054500D01*
X603050Y-15054500D01*
X495889Y-15069229D01*
X363389Y-15126781D01*
X363389Y-15126782D01*
X251338Y-15217943D01*
X251333Y-15217948D01*
X168028Y-15335963D01*
X119654Y-15472074D01*
X119654Y-15472077D01*
X114176Y-15552170D01*
X109796Y-15616199D01*
X124700Y-15687921D01*
X139186Y-15757634D01*
X139187Y-15757636D01*
X205645Y-15885893D01*
X205649Y-15885899D01*
X219188Y-15900396D01*
X250559Y-15962827D01*
X243197Y-16032308D01*
X199439Y-16086778D01*
X188741Y-16093450D01*
X14784Y-16190004D01*
X14783Y-16190005D01*
X-139531Y-16322478D01*
X-139532Y-16322479D01*
X-264019Y-16483304D01*
X-353589Y-16665906D01*
X-379246Y-16765000D01*
X372889Y-16765000D01*
X333390Y-16789457D01*
X265799Y-16878962D01*
X235105Y-16986840D01*
X245454Y-17098521D01*
X295448Y-17198922D01*
X367931Y-17265000D01*
X-384366Y-17265000D01*
X-1642754Y-17265000D01*
X-2444889Y-17265000D01*
X-2405390Y-17240543D01*
X-2337799Y-17151038D01*
X-2307105Y-17043160D01*
X-2317454Y-16931479D01*
X-2367448Y-16831078D01*
X-2439931Y-16765000D01*
X-1637634Y-16765000D01*
X-1637932Y-16763053D01*
X-1637934Y-16763047D01*
X-1708563Y-16572342D01*
X-1708566Y-16572335D01*
X-1816150Y-16399732D01*
X-1956265Y-16252331D01*
X-1956267Y-16252330D01*
X-2123196Y-16136143D01*
X-2310093Y-16055940D01*
X-2509310Y-16015000D01*
X-2811000Y-16015000D01*
X-2811000Y-16715000D01*
X-3311000Y-16715000D01*
X-3311000Y-16015000D01*
X-3561713Y-16015000D01*
X-3713339Y-16030418D01*
X-3907382Y-16091299D01*
X-3907392Y-16091304D01*
X-4085216Y-16190005D01*
X-4085217Y-16190005D01*
X-4239531Y-16322478D01*
X-4239532Y-16322479D01*
X-4364019Y-16483304D01*
X-4453589Y-16665906D01*
X-4479246Y-16765000D01*
X-3677111Y-16765000D01*
X-3716610Y-16789457D01*
X-3784201Y-16878962D01*
X-3814895Y-16986840D01*
X-3804546Y-17098521D01*
X-3754552Y-17198922D01*
X-3682069Y-17265000D01*
X-4484366Y-17265000D01*
X-4780472Y-17265000D01*
X-4780472Y-11940002D01*
X294751Y-11940002D01*
X313686Y-12108056D01*
X341172Y-12186609D01*
X344994Y-12199850D01*
X351498Y-12228218D01*
X351499Y-12228220D01*
X418155Y-12401018D01*
X423917Y-12470649D01*
X418375Y-12489698D01*
X353014Y-12661672D01*
X353014Y-12661674D01*
X338712Y-12705126D01*
X338710Y-12705136D01*
X338309Y-12708207D01*
X332399Y-12733079D01*
X316172Y-12779457D01*
X316170Y-12779462D01*
X297236Y-12947513D01*
X297236Y-12947518D01*
X316170Y-13115572D01*
X372030Y-13275210D01*
X372032Y-13275213D01*
X462003Y-13418400D01*
X462008Y-13418406D01*
X581594Y-13537992D01*
X581600Y-13537997D01*
X724787Y-13627968D01*
X724790Y-13627970D01*
X724794Y-13627971D01*
X724795Y-13627972D01*
X797398Y-13653376D01*
X884428Y-13683830D01*
X1052482Y-13702765D01*
X1052485Y-13702765D01*
X1052488Y-13702765D01*
X1220541Y-13683830D01*
X1220544Y-13683829D01*
X1380175Y-13627972D01*
X1380177Y-13627970D01*
X1380179Y-13627970D01*
X1380182Y-13627968D01*
X1523369Y-13537997D01*
X1523370Y-13537996D01*
X1523375Y-13537993D01*
X1642962Y-13418406D01*
X1647266Y-13411557D01*
X1732937Y-13275213D01*
X1732939Y-13275210D01*
X1732939Y-13275208D01*
X1732941Y-13275206D01*
X1788798Y-13115575D01*
X1788798Y-13115574D01*
X1788799Y-13115572D01*
X1807734Y-12947518D01*
X1807734Y-12947513D01*
X1788799Y-12779461D01*
X1788798Y-12779457D01*
X1762789Y-12705126D01*
X1760336Y-12698118D01*
X1756677Y-12685571D01*
X1749848Y-12656555D01*
X1749846Y-12656550D01*
X1735562Y-12620145D01*
X1683470Y-12487386D01*
X1677308Y-12417791D01*
X1683213Y-12397466D01*
X1748490Y-12228246D01*
X1748498Y-12228225D01*
X1748500Y-12228220D01*
X1748503Y-12228213D01*
X1763355Y-12183644D01*
X1763821Y-12180136D01*
X1769694Y-12155550D01*
X1786313Y-12108059D01*
X1805249Y-11940000D01*
X1805249Y-11939997D01*
X1786314Y-11771943D01*
X1750785Y-11670408D01*
X1730456Y-11612310D01*
X1730455Y-11612309D01*
X1730454Y-11612305D01*
X1730452Y-11612302D01*
X1640481Y-11469115D01*
X1640476Y-11469109D01*
X1520890Y-11349523D01*
X1520884Y-11349518D01*
X1377697Y-11259547D01*
X1377694Y-11259545D01*
X1218056Y-11203685D01*
X1050003Y-11184751D01*
X1049997Y-11184751D01*
X881943Y-11203685D01*
X722305Y-11259545D01*
X722302Y-11259547D01*
X579115Y-11349518D01*
X579109Y-11349523D01*
X459523Y-11469109D01*
X459518Y-11469115D01*
X369547Y-11612302D01*
X369545Y-11612305D01*
X313685Y-11771943D01*
X294751Y-11939997D01*
X294751Y-11940002D01*
X-4780472Y-11940002D01*
X-4780472Y-8615000D01*
X-4484366Y-8615000D01*
X-4484069Y-8616946D01*
X-4484067Y-8616952D01*
X-4413438Y-8807657D01*
X-4413435Y-8807664D01*
X-4305851Y-8980267D01*
X-4165736Y-9127668D01*
X-4165734Y-9127669D01*
X-3998805Y-9243856D01*
X-3811908Y-9324059D01*
X-3612690Y-9365000D01*
X-3311000Y-9365000D01*
X-3311000Y-8665000D01*
X-2811000Y-8665000D01*
X-2811000Y-9365000D01*
X-2560287Y-9365000D01*
X-2408662Y-9349581D01*
X-2214619Y-9288700D01*
X-2214609Y-9288695D01*
X-2036785Y-9189994D01*
X-2036784Y-9189994D01*
X-1882470Y-9057521D01*
X-1882469Y-9057520D01*
X-1757982Y-8896695D01*
X-1668412Y-8714093D01*
X-1642754Y-8615000D01*
X-384366Y-8615000D01*
X-384069Y-8616946D01*
X-384067Y-8616952D01*
X-313438Y-8807657D01*
X-313435Y-8807664D01*
X-205851Y-8980267D01*
X-65736Y-9127668D01*
X-65734Y-9127669D01*
X101196Y-9243857D01*
X180882Y-9278052D01*
X234726Y-9322578D01*
X255950Y-9389146D01*
X237815Y-9456621D01*
X233288Y-9463511D01*
X168028Y-9555963D01*
X119654Y-9692074D01*
X119654Y-9692077D01*
X119654Y-9692079D01*
X109796Y-9836199D01*
X135292Y-9958896D01*
X139186Y-9977634D01*
X139187Y-9977636D01*
X205645Y-10105893D01*
X205649Y-10105899D01*
X291470Y-10197790D01*
X304245Y-10211469D01*
X427672Y-10286526D01*
X566772Y-10325500D01*
X566773Y-10325500D01*
X674950Y-10325500D01*
X686502Y-10323911D01*
X782111Y-10310771D01*
X829931Y-10290000D01*
X2304901Y-10290000D01*
X2310332Y-10345140D01*
X2323253Y-10476331D01*
X2348838Y-10560677D01*
X2352465Y-10579743D01*
X2352887Y-10579679D01*
X2353560Y-10584055D01*
X2353561Y-10584063D01*
X2353562Y-10584064D01*
X2506403Y-11255192D01*
X2506404Y-11255194D01*
X2509500Y-11282729D01*
X2509500Y-14104604D01*
X2506574Y-14131382D01*
X2357798Y-14804054D01*
X2354882Y-14817844D01*
X2354694Y-14817804D01*
X2351880Y-14830775D01*
X2328253Y-14908666D01*
X2328252Y-14908669D01*
X2309901Y-15095000D01*
X2328252Y-15281331D01*
X2328253Y-15281333D01*
X2382604Y-15460502D01*
X2470862Y-15625623D01*
X2470864Y-15625626D01*
X2589642Y-15770357D01*
X2734373Y-15889135D01*
X2734376Y-15889137D01*
X2833378Y-15942054D01*
X2899499Y-15977396D01*
X3073965Y-16030320D01*
X3078666Y-16031746D01*
X3078668Y-16031747D01*
X3093614Y-16033219D01*
X3265000Y-16050099D01*
X3451331Y-16031747D01*
X3630501Y-15977396D01*
X3795625Y-15889136D01*
X3940357Y-15770357D01*
X4059136Y-15625625D01*
X4147396Y-15460501D01*
X4201747Y-15281331D01*
X4220099Y-15095000D01*
X4201747Y-14908669D01*
X4201747Y-14908667D01*
X4182858Y-14846402D01*
X4175353Y-14821663D01*
X4171521Y-14801861D01*
X4171282Y-14801900D01*
X4170579Y-14797531D01*
X4170578Y-14797529D01*
X4170578Y-14797522D01*
X4084237Y-14430002D01*
X5334751Y-14430002D01*
X5353685Y-14598056D01*
X5409545Y-14757694D01*
X5409547Y-14757697D01*
X5499518Y-14900884D01*
X5499523Y-14900890D01*
X5619109Y-15020476D01*
X5619115Y-15020481D01*
X5762302Y-15110452D01*
X5762305Y-15110454D01*
X5762309Y-15110455D01*
X5762310Y-15110456D01*
X5834913Y-15135860D01*
X5921943Y-15166314D01*
X6089997Y-15185249D01*
X6090000Y-15185249D01*
X6090003Y-15185249D01*
X6258056Y-15166314D01*
X6274817Y-15160449D01*
X6417690Y-15110456D01*
X6417692Y-15110454D01*
X6417694Y-15110454D01*
X6417697Y-15110452D01*
X6560884Y-15020481D01*
X6560885Y-15020480D01*
X6560890Y-15020477D01*
X6680477Y-14900890D01*
X6680481Y-14900884D01*
X6770452Y-14757697D01*
X6770454Y-14757694D01*
X6770454Y-14757692D01*
X6770456Y-14757690D01*
X6826313Y-14598059D01*
X6826313Y-14598058D01*
X6826314Y-14598056D01*
X6845249Y-14430002D01*
X6845249Y-14429997D01*
X6826313Y-14261940D01*
X6826313Y-14261939D01*
X6806803Y-14206183D01*
X6801642Y-14186267D01*
X6798552Y-14168314D01*
X6696534Y-13853364D01*
X6690500Y-13815153D01*
X6690500Y-11564844D01*
X6696534Y-11526633D01*
X6715165Y-11469115D01*
X6798552Y-11211684D01*
X6807725Y-11179844D01*
X6807725Y-11179837D01*
X6808769Y-11174493D01*
X6809145Y-11174566D01*
X6813797Y-11153825D01*
X6826313Y-11118059D01*
X6845249Y-10950000D01*
X6845249Y-10949997D01*
X6826314Y-10781943D01*
X6770454Y-10622305D01*
X6770452Y-10622302D01*
X6680481Y-10479115D01*
X6680476Y-10479109D01*
X6560890Y-10359523D01*
X6560884Y-10359518D01*
X6417697Y-10269547D01*
X6417694Y-10269545D01*
X6258056Y-10213685D01*
X6090003Y-10194751D01*
X6089997Y-10194751D01*
X5921943Y-10213685D01*
X5762305Y-10269545D01*
X5762302Y-10269547D01*
X5619115Y-10359518D01*
X5619109Y-10359523D01*
X5499523Y-10479109D01*
X5499518Y-10479115D01*
X5409547Y-10622302D01*
X5409545Y-10622305D01*
X5353685Y-10781943D01*
X5334751Y-10949997D01*
X5334751Y-10950002D01*
X5353685Y-11118055D01*
X5373195Y-11173812D01*
X5378356Y-11193729D01*
X5381443Y-11211666D01*
X5381447Y-11211685D01*
X5464834Y-11469115D01*
X5483466Y-11526635D01*
X5489500Y-11564846D01*
X5489500Y-13815153D01*
X5483465Y-13853364D01*
X5381447Y-14168315D01*
X5380962Y-14170000D01*
X5372273Y-14200161D01*
X5371230Y-14205509D01*
X5370857Y-14205436D01*
X5366204Y-14226167D01*
X5353686Y-14261943D01*
X5334751Y-14429997D01*
X5334751Y-14430002D01*
X4084237Y-14430002D01*
X4013786Y-14130119D01*
X4010500Y-14101760D01*
X4010500Y-11282726D01*
X4013596Y-11255192D01*
X4023509Y-11211666D01*
X4166437Y-10584063D01*
X4168750Y-10573374D01*
X4168750Y-10573371D01*
X4169759Y-10568710D01*
X4169854Y-10568730D01*
X4172792Y-10555295D01*
X4196747Y-10476331D01*
X4215099Y-10290000D01*
X4196747Y-10103669D01*
X4142396Y-9924499D01*
X4142395Y-9924497D01*
X4054137Y-9759376D01*
X4054135Y-9759373D01*
X3935357Y-9614642D01*
X3790626Y-9495864D01*
X3790623Y-9495862D01*
X3625502Y-9407604D01*
X3446333Y-9353253D01*
X3446331Y-9353252D01*
X3260000Y-9334901D01*
X3073668Y-9353252D01*
X3073666Y-9353253D01*
X2894497Y-9407604D01*
X2729376Y-9495862D01*
X2729373Y-9495864D01*
X2584642Y-9614642D01*
X2465864Y-9759373D01*
X2465862Y-9759376D01*
X2377604Y-9924497D01*
X2323253Y-10103666D01*
X2323252Y-10103668D01*
X2306915Y-10269547D01*
X2304901Y-10290000D01*
X829931Y-10290000D01*
X914609Y-10253219D01*
X1026665Y-10162054D01*
X1109971Y-10044037D01*
X1140230Y-9958896D01*
X1158345Y-9907925D01*
X1158345Y-9907923D01*
X1158346Y-9907921D01*
X1168204Y-9763801D01*
X1138814Y-9622366D01*
X1072354Y-9494105D01*
X1072351Y-9494102D01*
X1072350Y-9494100D01*
X973755Y-9388531D01*
X948571Y-9373216D01*
X901519Y-9321564D01*
X889000Y-9267268D01*
X889000Y-8665000D01*
X1389000Y-8665000D01*
X1389000Y-9365000D01*
X1739713Y-9365000D01*
X1891338Y-9349581D01*
X2085381Y-9288700D01*
X2085391Y-9288695D01*
X2263215Y-9189994D01*
X2263216Y-9189994D01*
X2417530Y-9057521D01*
X2417531Y-9057520D01*
X2542018Y-8896695D01*
X2631588Y-8714093D01*
X2657246Y-8615000D01*
X1905111Y-8615000D01*
X1944610Y-8590543D01*
X2012201Y-8501038D01*
X2042895Y-8393160D01*
X2032546Y-8281479D01*
X1982552Y-8181078D01*
X1910069Y-8115000D01*
X2662366Y-8115000D01*
X2662068Y-8113053D01*
X2662066Y-8113047D01*
X2591437Y-7922342D01*
X2591434Y-7922335D01*
X2483850Y-7749732D01*
X2343735Y-7602331D01*
X2343733Y-7602330D01*
X2176804Y-7486143D01*
X1989907Y-7405940D01*
X1790690Y-7365000D01*
X1389000Y-7365000D01*
X1389000Y-8065000D01*
X889000Y-8065000D01*
X889000Y-7365000D01*
X538287Y-7365000D01*
X386661Y-7380418D01*
X192618Y-7441299D01*
X192608Y-7441304D01*
X14784Y-7540005D01*
X14783Y-7540005D01*
X-139531Y-7672478D01*
X-139532Y-7672479D01*
X-264019Y-7833304D01*
X-353589Y-8015906D01*
X-379246Y-8115000D01*
X372889Y-8115000D01*
X333390Y-8139457D01*
X265799Y-8228962D01*
X235105Y-8336840D01*
X245454Y-8448521D01*
X295448Y-8548922D01*
X367931Y-8615000D01*
X-384366Y-8615000D01*
X-1642754Y-8615000D01*
X-2444889Y-8615000D01*
X-2405390Y-8590543D01*
X-2337799Y-8501038D01*
X-2307105Y-8393160D01*
X-2317454Y-8281479D01*
X-2367448Y-8181078D01*
X-2439931Y-8115000D01*
X-1637634Y-8115000D01*
X-1637932Y-8113053D01*
X-1637934Y-8113047D01*
X-1708563Y-7922342D01*
X-1708566Y-7922335D01*
X-1816150Y-7749732D01*
X-1956265Y-7602331D01*
X-1956267Y-7602330D01*
X-2123196Y-7486143D01*
X-2310093Y-7405940D01*
X-2509310Y-7365000D01*
X-2811000Y-7365000D01*
X-2811000Y-8065000D01*
X-3311000Y-8065000D01*
X-3311000Y-7365000D01*
X-3561713Y-7365000D01*
X-3713339Y-7380418D01*
X-3907382Y-7441299D01*
X-3907392Y-7441304D01*
X-4085216Y-7540005D01*
X-4085217Y-7540005D01*
X-4239531Y-7672478D01*
X-4239532Y-7672479D01*
X-4364019Y-7833304D01*
X-4453589Y-8015906D01*
X-4479246Y-8115000D01*
X-3677111Y-8115000D01*
X-3716610Y-8139457D01*
X-3784201Y-8228962D01*
X-3814895Y-8336840D01*
X-3804546Y-8448521D01*
X-3754552Y-8548922D01*
X-3682069Y-8615000D01*
X-4484366Y-8615000D01*
X-4780472Y-8615000D01*
X-4780472Y-3160000D01*
X-3385449Y-3160000D01*
X-3365683Y-3411151D01*
X-3306874Y-3656110D01*
X-3210467Y-3888859D01*
X-3078840Y-4103653D01*
X-3078839Y-4103656D01*
X-3078836Y-4103659D01*
X-2915224Y-4295224D01*
X-2766934Y-4421875D01*
X-2723657Y-4458838D01*
X-2723654Y-4458839D01*
X-2508860Y-4590466D01*
X-2276111Y-4686873D01*
X-2031148Y-4745683D01*
X-1780000Y-4765449D01*
X-1528852Y-4745683D01*
X-1283889Y-4686873D01*
X-1051141Y-4590466D01*
X-836341Y-4458836D01*
X-644776Y-4295224D01*
X-481164Y-4103659D01*
X-349534Y-3888859D01*
X-253127Y-3656111D01*
X-194317Y-3411148D01*
X-174551Y-3160000D01*
X-194317Y-2908852D01*
X-253127Y-2663889D01*
X-315198Y-2514035D01*
X-349534Y-2431140D01*
X-481161Y-2216346D01*
X-481162Y-2216343D01*
X-581733Y-2098590D01*
X-644776Y-2024776D01*
X-771429Y-1916604D01*
X-836344Y-1861161D01*
X-836347Y-1861160D01*
X-1051141Y-1729533D01*
X-1283890Y-1633126D01*
X-1528849Y-1574317D01*
X-1780000Y-1554551D01*
X-2031152Y-1574317D01*
X-2276111Y-1633126D01*
X-2508860Y-1729533D01*
X-2723654Y-1861160D01*
X-2723657Y-1861161D01*
X-2915224Y-2024776D01*
X-3078839Y-2216343D01*
X-3078840Y-2216346D01*
X-3210467Y-2431140D01*
X-3306874Y-2663889D01*
X-3365683Y-2908848D01*
X-3385449Y-3160000D01*
X-4780472Y-3160000D01*
X-4780472Y-3003480D01*
X-4780277Y-2996528D01*
X-4775353Y-2908848D01*
X-4763574Y-2699097D01*
X-4762018Y-2685290D01*
X-4712703Y-2395041D01*
X-4709609Y-2381489D01*
X-4686284Y-2300529D01*
X-4628105Y-2098582D01*
X-4623513Y-2085462D01*
X-4595395Y-2017578D01*
X-4510849Y-1813463D01*
X-4504827Y-1800957D01*
X-4362406Y-1543267D01*
X-4355011Y-1531499D01*
X-4348469Y-1522279D01*
X-4184642Y-1291385D01*
X-4175987Y-1280531D01*
X-3979793Y-1060991D01*
X-3969981Y-1051179D01*
X-3750441Y-854985D01*
X-3739587Y-846330D01*
X-3499468Y-675957D01*
X-3487705Y-668566D01*
X-3230015Y-526145D01*
X-3217509Y-520123D01*
X-2945510Y-407459D01*
X-2932390Y-402867D01*
X-2649478Y-321361D01*
X-2635931Y-318269D01*
X-2345674Y-268952D01*
X-2331875Y-267398D01*
X-2071410Y-252770D01*
X-2034443Y-250695D01*
X-2027491Y-250500D01*
X-1986802Y-250500D01*
X332561Y-250500D01*
X399600Y-270185D01*
G37*
%TD.AperFunction*%
%TA.AperFunction,Conductor*%
G36*
X53750538Y-9852556D02*
G01*
X54475106Y-10197792D01*
X54568370Y-10230119D01*
X54571000Y-10231066D01*
X54579740Y-10234325D01*
X54589078Y-10237808D01*
X54645013Y-10279677D01*
X54669433Y-10345140D01*
X54654583Y-10413414D01*
X54633431Y-10441672D01*
X54511503Y-10563600D01*
X54375965Y-10757169D01*
X54375964Y-10757171D01*
X54276098Y-10971335D01*
X54276094Y-10971344D01*
X54214938Y-11199586D01*
X54214936Y-11199596D01*
X54194341Y-11434999D01*
X54194341Y-11435000D01*
X54214936Y-11670403D01*
X54214938Y-11670413D01*
X54276094Y-11898655D01*
X54276096Y-11898659D01*
X54276097Y-11898663D01*
X54295373Y-11940000D01*
X54375965Y-12112830D01*
X54375967Y-12112834D01*
X54511501Y-12306395D01*
X54511506Y-12306402D01*
X54678597Y-12473493D01*
X54678603Y-12473498D01*
X54864158Y-12603425D01*
X54907783Y-12658002D01*
X54914977Y-12727500D01*
X54883454Y-12789855D01*
X54864158Y-12806575D01*
X54678597Y-12936505D01*
X54511505Y-13103597D01*
X54375965Y-13297169D01*
X54375964Y-13297171D01*
X54276098Y-13511335D01*
X54276094Y-13511344D01*
X54214938Y-13739586D01*
X54214936Y-13739596D01*
X54194341Y-13974999D01*
X54194341Y-13975000D01*
X54214936Y-14210403D01*
X54214938Y-14210413D01*
X54276094Y-14438655D01*
X54276096Y-14438659D01*
X54276097Y-14438663D01*
X54350425Y-14598059D01*
X54375965Y-14652830D01*
X54375967Y-14652834D01*
X54477286Y-14797531D01*
X54511505Y-14846401D01*
X54678599Y-15013495D01*
X54840389Y-15126782D01*
X54864594Y-15143730D01*
X54908219Y-15198307D01*
X54915413Y-15267805D01*
X54883890Y-15330160D01*
X54864595Y-15346880D01*
X54678922Y-15476890D01*
X54678920Y-15476891D01*
X54511891Y-15643920D01*
X54511886Y-15643926D01*
X54376400Y-15837420D01*
X54376399Y-15837422D01*
X54276570Y-16051507D01*
X54276567Y-16051513D01*
X54219364Y-16264999D01*
X54219364Y-16265000D01*
X55116314Y-16265000D01*
X55090507Y-16305156D01*
X55050000Y-16443111D01*
X55050000Y-16586889D01*
X55090507Y-16724844D01*
X55116314Y-16765000D01*
X54219364Y-16765000D01*
X54276567Y-16978486D01*
X54276570Y-16978492D01*
X54376399Y-17192578D01*
X54511894Y-17386082D01*
X54678917Y-17553105D01*
X54872421Y-17688600D01*
X55086507Y-17788429D01*
X55086516Y-17788433D01*
X55300000Y-17845634D01*
X55300000Y-16950501D01*
X55407685Y-16999680D01*
X55514237Y-17015000D01*
X55585763Y-17015000D01*
X55692315Y-16999680D01*
X55800000Y-16950501D01*
X55800000Y-17845633D01*
X56013483Y-17788433D01*
X56013492Y-17788429D01*
X56227578Y-17688600D01*
X56421087Y-17553101D01*
X56425228Y-17549628D01*
X56426524Y-17551173D01*
X56480115Y-17521911D01*
X56549807Y-17526895D01*
X56605740Y-17568767D01*
X56630157Y-17634231D01*
X56630473Y-17643077D01*
X56630473Y-22396519D01*
X56630278Y-22403472D01*
X56613575Y-22700896D01*
X56612018Y-22714714D01*
X56562703Y-23004960D01*
X56559609Y-23018516D01*
X56478107Y-23301420D01*
X56473514Y-23314545D01*
X56360854Y-23586533D01*
X56354821Y-23599061D01*
X56212410Y-23856738D01*
X56205012Y-23868513D01*
X56034646Y-24108624D01*
X56025976Y-24119496D01*
X55829807Y-24339011D01*
X55819975Y-24348843D01*
X55600450Y-24545027D01*
X55589578Y-24553697D01*
X55349474Y-24724063D01*
X55337700Y-24731461D01*
X55080036Y-24873870D01*
X55067508Y-24879903D01*
X54795503Y-24992575D01*
X54782378Y-24997168D01*
X54499490Y-25078670D01*
X54485933Y-25081765D01*
X54195681Y-25131085D01*
X54181864Y-25132642D01*
X53885241Y-25149305D01*
X53878286Y-25149500D01*
X51179050Y-25149500D01*
X51112011Y-25129815D01*
X51066256Y-25077011D01*
X51056312Y-25007853D01*
X51085337Y-24944297D01*
X51091369Y-24937819D01*
X51098105Y-24931082D01*
X51233600Y-24737578D01*
X51333429Y-24523492D01*
X51333432Y-24523486D01*
X51390636Y-24310000D01*
X50493686Y-24310000D01*
X50519493Y-24269844D01*
X50560000Y-24131889D01*
X50560000Y-23988111D01*
X50519493Y-23850156D01*
X50493686Y-23810000D01*
X51390636Y-23810000D01*
X51390635Y-23809999D01*
X51333432Y-23596513D01*
X51333429Y-23596507D01*
X51233600Y-23382422D01*
X51233599Y-23382420D01*
X51098113Y-23188926D01*
X51098108Y-23188920D01*
X50931082Y-23021894D01*
X50737578Y-22886399D01*
X50523492Y-22786570D01*
X50523486Y-22786567D01*
X50310000Y-22729364D01*
X50310000Y-23624498D01*
X50202315Y-23575320D01*
X50095763Y-23560000D01*
X50024237Y-23560000D01*
X49917685Y-23575320D01*
X49810000Y-23624498D01*
X49810000Y-22729364D01*
X49809999Y-22729364D01*
X49596513Y-22786567D01*
X49596507Y-22786570D01*
X49382422Y-22886399D01*
X49382420Y-22886400D01*
X49188926Y-23021886D01*
X49188920Y-23021891D01*
X49021891Y-23188920D01*
X49021890Y-23188922D01*
X48906409Y-23353845D01*
X48851832Y-23397470D01*
X48782333Y-23404662D01*
X48719979Y-23373140D01*
X48689285Y-23327714D01*
X48681648Y-23308102D01*
X48329398Y-22403472D01*
X48278951Y-22273917D01*
X48272580Y-22240000D01*
X52024551Y-22240000D01*
X52044317Y-22491151D01*
X52103126Y-22736110D01*
X52199533Y-22968859D01*
X52331160Y-23183653D01*
X52331161Y-23183656D01*
X52331164Y-23183659D01*
X52494776Y-23375224D01*
X52643066Y-23501875D01*
X52686343Y-23538838D01*
X52686346Y-23538839D01*
X52901140Y-23670466D01*
X53109747Y-23756873D01*
X53133889Y-23766873D01*
X53378852Y-23825683D01*
X53630000Y-23845449D01*
X53881148Y-23825683D01*
X54126111Y-23766873D01*
X54358859Y-23670466D01*
X54573659Y-23538836D01*
X54765224Y-23375224D01*
X54928836Y-23183659D01*
X55060466Y-22968859D01*
X55156873Y-22736111D01*
X55215683Y-22491148D01*
X55235449Y-22240000D01*
X55215683Y-21988852D01*
X55156873Y-21743889D01*
X55060466Y-21511141D01*
X55060466Y-21511140D01*
X54928839Y-21296346D01*
X54928838Y-21296343D01*
X54891875Y-21253066D01*
X54765224Y-21104776D01*
X54633676Y-20992423D01*
X54573656Y-20941161D01*
X54573653Y-20941160D01*
X54358859Y-20809533D01*
X54126110Y-20713126D01*
X53881151Y-20654317D01*
X53630000Y-20634551D01*
X53378848Y-20654317D01*
X53133889Y-20713126D01*
X52901140Y-20809533D01*
X52686346Y-20941160D01*
X52686343Y-20941161D01*
X52494776Y-21104776D01*
X52331161Y-21296343D01*
X52331160Y-21296346D01*
X52199533Y-21511140D01*
X52103126Y-21743889D01*
X52044317Y-21988848D01*
X52024551Y-22240000D01*
X48272580Y-22240000D01*
X48270500Y-22228924D01*
X48270500Y-9964500D01*
X48290185Y-9897461D01*
X48342989Y-9851706D01*
X48394500Y-9840500D01*
X53697202Y-9840500D01*
X53750538Y-9852556D01*
G37*
%TD.AperFunction*%
%TA.AperFunction,Conductor*%
G36*
X46712539Y-9860185D02*
G01*
X46758294Y-9912989D01*
X46769500Y-9964500D01*
X46769500Y-22228922D01*
X46761049Y-22273915D01*
X46350931Y-23327152D01*
X46308263Y-23382480D01*
X46242455Y-23405957D01*
X46174402Y-23390129D01*
X46133807Y-23353282D01*
X46018494Y-23188597D01*
X45851402Y-23021506D01*
X45851395Y-23021501D01*
X45847123Y-23018510D01*
X45774854Y-22967906D01*
X45657834Y-22885967D01*
X45657830Y-22885965D01*
X45562260Y-22841400D01*
X45443663Y-22786097D01*
X45443659Y-22786096D01*
X45443655Y-22786094D01*
X45215413Y-22724938D01*
X45215403Y-22724936D01*
X44980001Y-22704341D01*
X44979999Y-22704341D01*
X44744596Y-22724936D01*
X44744586Y-22724938D01*
X44516344Y-22786094D01*
X44516335Y-22786098D01*
X44302171Y-22885964D01*
X44302169Y-22885965D01*
X44108597Y-23021505D01*
X43941505Y-23188597D01*
X43811575Y-23374158D01*
X43756998Y-23417783D01*
X43687500Y-23424977D01*
X43625145Y-23393454D01*
X43608425Y-23374158D01*
X43478494Y-23188597D01*
X43311402Y-23021506D01*
X43311395Y-23021501D01*
X43307123Y-23018510D01*
X43234854Y-22967906D01*
X43117834Y-22885967D01*
X43117830Y-22885965D01*
X43022260Y-22841400D01*
X42903663Y-22786097D01*
X42903659Y-22786096D01*
X42903655Y-22786094D01*
X42675413Y-22724938D01*
X42675403Y-22724936D01*
X42440001Y-22704341D01*
X42439999Y-22704341D01*
X42204596Y-22724936D01*
X42204586Y-22724938D01*
X41976344Y-22786094D01*
X41976335Y-22786098D01*
X41762171Y-22885964D01*
X41762169Y-22885965D01*
X41568597Y-23021505D01*
X41401505Y-23188597D01*
X41271575Y-23374158D01*
X41216998Y-23417783D01*
X41147500Y-23424977D01*
X41085145Y-23393454D01*
X41068425Y-23374158D01*
X40938494Y-23188597D01*
X40771402Y-23021506D01*
X40771395Y-23021501D01*
X40767123Y-23018510D01*
X40694854Y-22967906D01*
X40577834Y-22885967D01*
X40577830Y-22885965D01*
X40482260Y-22841400D01*
X40363663Y-22786097D01*
X40363659Y-22786096D01*
X40363655Y-22786094D01*
X40135413Y-22724938D01*
X40135403Y-22724936D01*
X39900001Y-22704341D01*
X39899999Y-22704341D01*
X39664596Y-22724936D01*
X39664586Y-22724938D01*
X39436344Y-22786094D01*
X39436335Y-22786098D01*
X39222171Y-22885964D01*
X39222169Y-22885965D01*
X39028597Y-23021505D01*
X38861505Y-23188597D01*
X38731575Y-23374158D01*
X38676998Y-23417783D01*
X38607500Y-23424977D01*
X38545145Y-23393454D01*
X38528425Y-23374158D01*
X38398494Y-23188597D01*
X38231402Y-23021506D01*
X38231395Y-23021501D01*
X38227123Y-23018510D01*
X38154854Y-22967906D01*
X38037834Y-22885967D01*
X38037830Y-22885965D01*
X37942260Y-22841400D01*
X37823663Y-22786097D01*
X37823659Y-22786096D01*
X37823655Y-22786094D01*
X37595413Y-22724938D01*
X37595403Y-22724936D01*
X37360001Y-22704341D01*
X37359999Y-22704341D01*
X37124596Y-22724936D01*
X37124586Y-22724938D01*
X36896344Y-22786094D01*
X36896335Y-22786098D01*
X36682171Y-22885964D01*
X36682169Y-22885965D01*
X36488597Y-23021505D01*
X36321505Y-23188597D01*
X36191575Y-23374158D01*
X36136998Y-23417783D01*
X36067500Y-23424977D01*
X36005145Y-23393454D01*
X35988425Y-23374158D01*
X35858494Y-23188597D01*
X35691402Y-23021506D01*
X35691395Y-23021501D01*
X35687123Y-23018510D01*
X35614854Y-22967906D01*
X35497834Y-22885967D01*
X35497830Y-22885965D01*
X35402260Y-22841400D01*
X35283663Y-22786097D01*
X35283659Y-22786096D01*
X35283655Y-22786094D01*
X35055413Y-22724938D01*
X35055403Y-22724936D01*
X34820001Y-22704341D01*
X34819999Y-22704341D01*
X34584596Y-22724936D01*
X34584586Y-22724938D01*
X34356344Y-22786094D01*
X34356335Y-22786098D01*
X34142171Y-22885964D01*
X34142169Y-22885965D01*
X33948597Y-23021505D01*
X33781505Y-23188597D01*
X33651575Y-23374158D01*
X33596998Y-23417783D01*
X33527500Y-23424977D01*
X33465145Y-23393454D01*
X33448425Y-23374158D01*
X33318494Y-23188597D01*
X33151402Y-23021506D01*
X33151395Y-23021501D01*
X33147123Y-23018510D01*
X33074854Y-22967906D01*
X32957834Y-22885967D01*
X32957830Y-22885965D01*
X32862260Y-22841400D01*
X32743663Y-22786097D01*
X32743659Y-22786096D01*
X32743655Y-22786094D01*
X32515413Y-22724938D01*
X32515403Y-22724936D01*
X32280001Y-22704341D01*
X32279999Y-22704341D01*
X32044596Y-22724936D01*
X32044586Y-22724938D01*
X31816344Y-22786094D01*
X31816335Y-22786098D01*
X31602171Y-22885964D01*
X31602169Y-22885965D01*
X31408597Y-23021505D01*
X31241505Y-23188597D01*
X31111575Y-23374158D01*
X31056998Y-23417783D01*
X30987500Y-23424977D01*
X30925145Y-23393454D01*
X30908425Y-23374158D01*
X30778494Y-23188597D01*
X30611402Y-23021506D01*
X30611395Y-23021501D01*
X30607123Y-23018510D01*
X30534854Y-22967906D01*
X30417834Y-22885967D01*
X30417830Y-22885965D01*
X30322260Y-22841400D01*
X30203663Y-22786097D01*
X30203659Y-22786096D01*
X30203655Y-22786094D01*
X29975413Y-22724938D01*
X29975403Y-22724936D01*
X29740001Y-22704341D01*
X29739999Y-22704341D01*
X29504596Y-22724936D01*
X29504586Y-22724938D01*
X29276344Y-22786094D01*
X29276335Y-22786098D01*
X29062171Y-22885964D01*
X29062169Y-22885965D01*
X28868597Y-23021505D01*
X28701505Y-23188597D01*
X28571575Y-23374158D01*
X28516998Y-23417783D01*
X28447500Y-23424977D01*
X28385145Y-23393454D01*
X28368425Y-23374158D01*
X28238494Y-23188597D01*
X28071402Y-23021506D01*
X28071395Y-23021501D01*
X28067123Y-23018510D01*
X27994854Y-22967906D01*
X27877834Y-22885967D01*
X27877830Y-22885965D01*
X27782260Y-22841400D01*
X27663663Y-22786097D01*
X27663659Y-22786096D01*
X27663655Y-22786094D01*
X27435413Y-22724938D01*
X27435403Y-22724936D01*
X27200001Y-22704341D01*
X27199999Y-22704341D01*
X26964596Y-22724936D01*
X26964586Y-22724938D01*
X26736344Y-22786094D01*
X26736335Y-22786098D01*
X26522171Y-22885964D01*
X26522169Y-22885965D01*
X26328597Y-23021505D01*
X26161505Y-23188597D01*
X26031575Y-23374158D01*
X25976998Y-23417783D01*
X25907500Y-23424977D01*
X25845145Y-23393454D01*
X25828425Y-23374158D01*
X25698494Y-23188597D01*
X25531402Y-23021506D01*
X25531395Y-23021501D01*
X25527123Y-23018510D01*
X25454854Y-22967906D01*
X25337834Y-22885967D01*
X25337830Y-22885965D01*
X25242260Y-22841400D01*
X25123663Y-22786097D01*
X25123659Y-22786096D01*
X25123655Y-22786094D01*
X24895413Y-22724938D01*
X24895403Y-22724936D01*
X24660001Y-22704341D01*
X24659999Y-22704341D01*
X24424596Y-22724936D01*
X24424586Y-22724938D01*
X24196344Y-22786094D01*
X24196335Y-22786098D01*
X23982171Y-22885964D01*
X23982169Y-22885965D01*
X23788597Y-23021505D01*
X23621505Y-23188597D01*
X23491575Y-23374158D01*
X23436998Y-23417783D01*
X23367500Y-23424977D01*
X23305145Y-23393454D01*
X23288425Y-23374158D01*
X23158494Y-23188597D01*
X22991402Y-23021506D01*
X22991395Y-23021501D01*
X22987123Y-23018510D01*
X22914854Y-22967906D01*
X22797834Y-22885967D01*
X22797830Y-22885965D01*
X22702260Y-22841400D01*
X22583663Y-22786097D01*
X22583659Y-22786096D01*
X22583655Y-22786094D01*
X22355413Y-22724938D01*
X22355403Y-22724936D01*
X22120001Y-22704341D01*
X22119999Y-22704341D01*
X21884596Y-22724936D01*
X21884586Y-22724938D01*
X21656344Y-22786094D01*
X21656335Y-22786098D01*
X21442171Y-22885964D01*
X21442169Y-22885965D01*
X21248597Y-23021505D01*
X21081505Y-23188597D01*
X20951575Y-23374158D01*
X20896998Y-23417783D01*
X20827500Y-23424977D01*
X20765145Y-23393454D01*
X20748425Y-23374158D01*
X20618494Y-23188597D01*
X20451402Y-23021506D01*
X20451395Y-23021501D01*
X20447123Y-23018510D01*
X20374854Y-22967906D01*
X20257834Y-22885967D01*
X20257830Y-22885965D01*
X20162260Y-22841400D01*
X20043663Y-22786097D01*
X20043659Y-22786096D01*
X20043655Y-22786094D01*
X19815413Y-22724938D01*
X19815403Y-22724936D01*
X19580001Y-22704341D01*
X19579999Y-22704341D01*
X19344596Y-22724936D01*
X19344586Y-22724938D01*
X19116344Y-22786094D01*
X19116335Y-22786098D01*
X18902171Y-22885964D01*
X18902169Y-22885965D01*
X18708597Y-23021505D01*
X18541505Y-23188597D01*
X18411575Y-23374158D01*
X18356998Y-23417783D01*
X18287500Y-23424977D01*
X18225145Y-23393454D01*
X18208425Y-23374158D01*
X18078494Y-23188597D01*
X17911402Y-23021506D01*
X17911395Y-23021501D01*
X17907123Y-23018510D01*
X17834854Y-22967906D01*
X17717834Y-22885967D01*
X17717830Y-22885965D01*
X17622260Y-22841400D01*
X17503663Y-22786097D01*
X17503659Y-22786096D01*
X17503655Y-22786094D01*
X17275413Y-22724938D01*
X17275403Y-22724936D01*
X17040001Y-22704341D01*
X17039999Y-22704341D01*
X16804596Y-22724936D01*
X16804586Y-22724938D01*
X16576344Y-22786094D01*
X16576335Y-22786098D01*
X16362171Y-22885964D01*
X16362169Y-22885965D01*
X16168597Y-23021505D01*
X16001505Y-23188597D01*
X15871575Y-23374158D01*
X15816998Y-23417783D01*
X15747500Y-23424977D01*
X15685145Y-23393454D01*
X15668425Y-23374158D01*
X15538494Y-23188597D01*
X15371402Y-23021506D01*
X15371395Y-23021501D01*
X15367123Y-23018510D01*
X15294854Y-22967906D01*
X15177834Y-22885967D01*
X15177830Y-22885965D01*
X15082260Y-22841400D01*
X14963663Y-22786097D01*
X14963659Y-22786096D01*
X14963655Y-22786094D01*
X14735413Y-22724938D01*
X14735403Y-22724936D01*
X14500001Y-22704341D01*
X14499999Y-22704341D01*
X14264596Y-22724936D01*
X14264586Y-22724938D01*
X14036344Y-22786094D01*
X14036335Y-22786098D01*
X13822171Y-22885964D01*
X13822169Y-22885965D01*
X13628597Y-23021505D01*
X13461505Y-23188597D01*
X13331575Y-23374158D01*
X13276998Y-23417783D01*
X13207500Y-23424977D01*
X13145145Y-23393454D01*
X13128425Y-23374158D01*
X12998494Y-23188597D01*
X12831402Y-23021506D01*
X12831395Y-23021501D01*
X12827123Y-23018510D01*
X12754854Y-22967906D01*
X12637834Y-22885967D01*
X12637830Y-22885965D01*
X12542260Y-22841400D01*
X12423663Y-22786097D01*
X12423659Y-22786096D01*
X12423655Y-22786094D01*
X12195413Y-22724938D01*
X12195403Y-22724936D01*
X11960001Y-22704341D01*
X11959999Y-22704341D01*
X11724596Y-22724936D01*
X11724586Y-22724938D01*
X11496344Y-22786094D01*
X11496335Y-22786098D01*
X11282171Y-22885964D01*
X11282169Y-22885965D01*
X11088597Y-23021505D01*
X10921505Y-23188597D01*
X10791575Y-23374158D01*
X10736998Y-23417783D01*
X10667500Y-23424977D01*
X10605145Y-23393454D01*
X10588425Y-23374158D01*
X10458494Y-23188597D01*
X10291402Y-23021506D01*
X10291395Y-23021501D01*
X10287123Y-23018510D01*
X10214854Y-22967906D01*
X10097834Y-22885967D01*
X10097830Y-22885965D01*
X10002260Y-22841400D01*
X9883663Y-22786097D01*
X9883659Y-22786096D01*
X9883655Y-22786094D01*
X9655413Y-22724938D01*
X9655403Y-22724936D01*
X9420001Y-22704341D01*
X9419999Y-22704341D01*
X9184596Y-22724936D01*
X9184586Y-22724938D01*
X8956344Y-22786094D01*
X8956335Y-22786098D01*
X8742171Y-22885964D01*
X8742169Y-22885965D01*
X8548597Y-23021505D01*
X8381505Y-23188597D01*
X8251575Y-23374158D01*
X8196998Y-23417783D01*
X8127500Y-23424977D01*
X8065145Y-23393454D01*
X8048425Y-23374158D01*
X7918494Y-23188597D01*
X7751402Y-23021506D01*
X7751395Y-23021501D01*
X7747123Y-23018510D01*
X7674854Y-22967906D01*
X7557834Y-22885967D01*
X7557830Y-22885965D01*
X7462260Y-22841400D01*
X7343663Y-22786097D01*
X7343659Y-22786096D01*
X7343655Y-22786094D01*
X7115413Y-22724938D01*
X7115403Y-22724936D01*
X7041018Y-22718428D01*
X6975950Y-22692975D01*
X6934972Y-22636383D01*
X6931095Y-22566621D01*
X6964144Y-22507221D01*
X10328725Y-19142640D01*
X10350371Y-19125369D01*
X10428993Y-19075914D01*
X10496217Y-19056884D01*
X10561961Y-19076505D01*
X10643220Y-19128628D01*
X10663952Y-19145320D01*
X12264270Y-20745638D01*
X12276051Y-20759270D01*
X12290388Y-20778528D01*
X12328337Y-20810372D01*
X12336310Y-20817679D01*
X12340217Y-20821586D01*
X12340223Y-20821591D01*
X12364537Y-20840816D01*
X12367318Y-20843080D01*
X12370233Y-20845526D01*
X12424789Y-20891305D01*
X12430818Y-20895270D01*
X12430785Y-20895319D01*
X12437147Y-20899372D01*
X12437179Y-20899321D01*
X12443319Y-20903108D01*
X12443323Y-20903111D01*
X12481977Y-20921135D01*
X12511320Y-20934819D01*
X12514566Y-20936391D01*
X12581562Y-20970038D01*
X12588357Y-20972511D01*
X12588336Y-20972567D01*
X12595455Y-20975042D01*
X12595474Y-20974986D01*
X12602324Y-20977255D01*
X12602327Y-20977257D01*
X12675842Y-20992435D01*
X12679290Y-20993200D01*
X12710552Y-21000610D01*
X12752274Y-21010499D01*
X12752275Y-21010499D01*
X12752279Y-21010500D01*
X12752283Y-21010500D01*
X12759452Y-21011338D01*
X12759444Y-21011397D01*
X12766945Y-21012164D01*
X12766951Y-21012105D01*
X12774140Y-21012734D01*
X12774144Y-21012733D01*
X12774145Y-21012734D01*
X12849131Y-21010552D01*
X12852738Y-21010500D01*
X39660262Y-21010500D01*
X39677798Y-21011746D01*
X39678553Y-21011853D01*
X39678557Y-21011855D01*
X40308628Y-21101863D01*
X40316837Y-21103321D01*
X40350609Y-21110500D01*
X40366960Y-21110500D01*
X40380233Y-21111212D01*
X40390005Y-21112265D01*
X40391627Y-21112383D01*
X40391640Y-21112382D01*
X40391644Y-21112383D01*
X40486929Y-21110875D01*
X40492632Y-21110500D01*
X40529389Y-21110500D01*
X40529391Y-21110500D01*
X40704267Y-21073329D01*
X40867593Y-21000612D01*
X41012230Y-20895526D01*
X41012417Y-20895319D01*
X41061491Y-20840816D01*
X41131859Y-20762665D01*
X41221250Y-20607835D01*
X41276497Y-20437803D01*
X41295185Y-20260000D01*
X41293903Y-20247804D01*
X41306472Y-20179076D01*
X41354204Y-20128052D01*
X41401037Y-20111905D01*
X41453159Y-20105044D01*
X41535529Y-20070925D01*
X41599237Y-20044537D01*
X41599240Y-20044535D01*
X41611915Y-20034808D01*
X41611918Y-20034806D01*
X41724679Y-19948282D01*
X41743906Y-19923223D01*
X41754587Y-19911043D01*
X45151043Y-16514587D01*
X45163223Y-16503906D01*
X45188282Y-16484679D01*
X45284536Y-16359238D01*
X45345044Y-16213159D01*
X45359145Y-16106048D01*
X45365682Y-16056397D01*
X45361561Y-16025094D01*
X45360500Y-16008909D01*
X45360500Y-14784844D01*
X45366534Y-14746633D01*
X45396917Y-14652834D01*
X45468552Y-14431684D01*
X45477725Y-14399844D01*
X45477725Y-14399837D01*
X45478769Y-14394493D01*
X45479145Y-14394566D01*
X45483797Y-14373825D01*
X45496313Y-14338059D01*
X45499404Y-14310625D01*
X45515249Y-14170002D01*
X45515249Y-14169997D01*
X45496314Y-14001943D01*
X45440454Y-13842305D01*
X45440452Y-13842302D01*
X45350481Y-13699115D01*
X45350476Y-13699109D01*
X45230890Y-13579523D01*
X45230884Y-13579518D01*
X45087697Y-13489547D01*
X45087694Y-13489545D01*
X44928056Y-13433685D01*
X44760003Y-13414751D01*
X44759997Y-13414751D01*
X44591943Y-13433685D01*
X44432305Y-13489545D01*
X44432302Y-13489547D01*
X44289115Y-13579518D01*
X44289109Y-13579523D01*
X44169523Y-13699109D01*
X44169518Y-13699115D01*
X44079547Y-13842302D01*
X44079545Y-13842305D01*
X44023685Y-14001943D01*
X44004751Y-14169997D01*
X44004751Y-14170002D01*
X44023685Y-14338055D01*
X44043195Y-14393812D01*
X44048356Y-14413729D01*
X44051443Y-14431666D01*
X44051447Y-14431685D01*
X44115324Y-14628884D01*
X44153466Y-14746635D01*
X44159500Y-14784846D01*
X44159500Y-15756300D01*
X44139815Y-15823339D01*
X44123181Y-15843981D01*
X41083981Y-18883181D01*
X41022658Y-18916666D01*
X40996300Y-18919500D01*
X39659807Y-18919500D01*
X39592768Y-18899815D01*
X39547013Y-18847011D01*
X39537069Y-18777853D01*
X39566094Y-18714297D01*
X39572126Y-18707819D01*
X39764513Y-18515431D01*
X39777079Y-18505365D01*
X39776925Y-18505178D01*
X39782933Y-18500205D01*
X39782940Y-18500202D01*
X39806227Y-18475402D01*
X39830865Y-18449167D01*
X39833578Y-18446367D01*
X39853911Y-18426035D01*
X39856606Y-18422560D01*
X39864199Y-18413669D01*
X39895445Y-18380396D01*
X39895444Y-18380396D01*
X39895448Y-18380393D01*
X39905674Y-18361789D01*
X39916347Y-18345541D01*
X39929363Y-18328763D01*
X39947491Y-18286870D01*
X39952627Y-18276382D01*
X39974627Y-18236368D01*
X39979904Y-18215808D01*
X39986206Y-18197403D01*
X39994636Y-18177926D01*
X40001779Y-18132820D01*
X40004143Y-18121405D01*
X40015500Y-18077177D01*
X40015500Y-18055955D01*
X40017027Y-18036555D01*
X40020347Y-18015595D01*
X40016050Y-17970140D01*
X40015500Y-17958470D01*
X40015500Y-17087573D01*
X40020662Y-17052166D01*
X40041175Y-16983316D01*
X40164807Y-16568364D01*
X40171920Y-16541885D01*
X40171921Y-16541869D01*
X40172850Y-16536697D01*
X40173195Y-16536758D01*
X40177280Y-16516944D01*
X40196497Y-16457803D01*
X40215185Y-16280000D01*
X40196497Y-16102197D01*
X40151213Y-15962827D01*
X40141252Y-15932170D01*
X40141249Y-15932164D01*
X40122908Y-15900396D01*
X40051859Y-15777335D01*
X39971354Y-15687925D01*
X39932235Y-15644478D01*
X39932232Y-15644476D01*
X39932231Y-15644475D01*
X39932230Y-15644474D01*
X39787593Y-15539388D01*
X39624267Y-15466671D01*
X39624265Y-15466670D01*
X39496594Y-15439533D01*
X39449391Y-15429500D01*
X39270609Y-15429500D01*
X39239954Y-15436015D01*
X39095733Y-15466670D01*
X39095728Y-15466672D01*
X38932408Y-15539387D01*
X38787768Y-15644475D01*
X38668140Y-15777336D01*
X38578750Y-15932164D01*
X38578747Y-15932170D01*
X38523504Y-16102192D01*
X38523503Y-16102194D01*
X38511840Y-16213159D01*
X38504815Y-16280000D01*
X38517399Y-16399732D01*
X38523504Y-16457809D01*
X38524854Y-16464159D01*
X38522920Y-16464569D01*
X38524642Y-16525032D01*
X38488555Y-16584861D01*
X38442931Y-16611461D01*
X38282387Y-16663465D01*
X38244175Y-16669500D01*
X33320097Y-16669500D01*
X33253058Y-16649815D01*
X33232416Y-16633181D01*
X26651416Y-10052181D01*
X26617931Y-9990858D01*
X26622915Y-9921166D01*
X26664787Y-9865233D01*
X26730251Y-9840816D01*
X26739097Y-9840500D01*
X29172279Y-9840500D01*
X37812279Y-9840500D01*
X46645500Y-9840500D01*
X46712539Y-9860185D01*
G37*
%TD.AperFunction*%
%TA.AperFunction,Conductor*%
G36*
X10325703Y-14410712D02*
G01*
X10340354Y-14425761D01*
X10364643Y-14455357D01*
X10509372Y-14574134D01*
X10509373Y-14574134D01*
X10509375Y-14574136D01*
X10587112Y-14615686D01*
X10603162Y-14626613D01*
X10603418Y-14626265D01*
X10606988Y-14628884D01*
X11189617Y-14995363D01*
X11211276Y-15012644D01*
X14527353Y-18328721D01*
X14544634Y-18350380D01*
X14911094Y-18932977D01*
X14919652Y-18946261D01*
X14919567Y-18946315D01*
X14926973Y-18957866D01*
X14943343Y-18988492D01*
X14965862Y-19030623D01*
X14965864Y-19030626D01*
X15084642Y-19175357D01*
X15223905Y-19289647D01*
X15263239Y-19347392D01*
X15265110Y-19417237D01*
X15228922Y-19477005D01*
X15166167Y-19507721D01*
X15145240Y-19509500D01*
X13202229Y-19509500D01*
X13135190Y-19489815D01*
X13114548Y-19473181D01*
X11728166Y-18086799D01*
X11710252Y-18064124D01*
X11680377Y-18015595D01*
X11351430Y-17481261D01*
X11344258Y-17469950D01*
X11343968Y-17469563D01*
X11333841Y-17453657D01*
X11294137Y-17379376D01*
X11294135Y-17379373D01*
X11175357Y-17234642D01*
X11030626Y-17115864D01*
X11030623Y-17115862D01*
X10865502Y-17027604D01*
X10686333Y-16973253D01*
X10686331Y-16973252D01*
X10500000Y-16954901D01*
X10313668Y-16973252D01*
X10280494Y-16983316D01*
X10210627Y-16983939D01*
X10151515Y-16946690D01*
X10121924Y-16883396D01*
X10120500Y-16864655D01*
X10120500Y-14504425D01*
X10140185Y-14437386D01*
X10192989Y-14391631D01*
X10262147Y-14381687D01*
X10325703Y-14410712D01*
G37*
%TD.AperFunction*%
%TA.AperFunction,Conductor*%
G36*
X20946944Y-9842164D02*
G01*
X20946950Y-9842105D01*
X20954139Y-9842734D01*
X20954143Y-9842733D01*
X20954144Y-9842734D01*
X21029130Y-9840552D01*
X21032737Y-9840500D01*
X21600661Y-9840500D01*
X21616934Y-9842162D01*
X21616940Y-9842103D01*
X21624138Y-9842731D01*
X21624144Y-9842733D01*
X21624149Y-9842732D01*
X21631340Y-9843361D01*
X21631316Y-9843631D01*
X21640245Y-9844149D01*
X21648023Y-9845289D01*
X21697369Y-9840971D01*
X21708176Y-9840500D01*
X23490262Y-9840500D01*
X23507798Y-9841746D01*
X23508553Y-9841853D01*
X23508557Y-9841855D01*
X24138628Y-9931863D01*
X24146837Y-9933321D01*
X24180609Y-9940500D01*
X24196960Y-9940500D01*
X24210233Y-9941212D01*
X24220005Y-9942265D01*
X24221627Y-9942383D01*
X24221640Y-9942382D01*
X24221644Y-9942383D01*
X24316929Y-9940875D01*
X24322632Y-9940500D01*
X24359388Y-9940500D01*
X24359391Y-9940500D01*
X24393167Y-9933320D01*
X24401367Y-9931864D01*
X24993465Y-9847280D01*
X25062612Y-9857286D01*
X25115375Y-9903089D01*
X25128040Y-9929078D01*
X25168265Y-10044036D01*
X25169545Y-10047692D01*
X25174745Y-10055969D01*
X25182098Y-10069460D01*
X25183823Y-10073153D01*
X25246876Y-10186313D01*
X25261495Y-10230479D01*
X25264956Y-10256763D01*
X25325463Y-10402839D01*
X25325464Y-10402841D01*
X25383987Y-10479110D01*
X25421719Y-10528283D01*
X25446769Y-10547504D01*
X25458964Y-10558199D01*
X32538584Y-17637819D01*
X32572069Y-17699142D01*
X32567085Y-17768834D01*
X32525213Y-17824767D01*
X32459749Y-17849184D01*
X32450903Y-17849500D01*
X27894500Y-17849500D01*
X27827461Y-17829815D01*
X27781706Y-17777011D01*
X27770500Y-17725500D01*
X27770500Y-16710558D01*
X27775936Y-16674247D01*
X27923594Y-16192103D01*
X27931365Y-16163823D01*
X27931365Y-16163816D01*
X27932331Y-16158582D01*
X27932575Y-16158627D01*
X27936745Y-16138591D01*
X27956497Y-16077803D01*
X27975185Y-15900000D01*
X27956497Y-15722197D01*
X27901250Y-15552165D01*
X27811859Y-15397335D01*
X27756599Y-15335963D01*
X27692235Y-15264478D01*
X27692232Y-15264476D01*
X27692231Y-15264475D01*
X27692230Y-15264474D01*
X27547593Y-15159388D01*
X27384267Y-15086671D01*
X27384265Y-15086670D01*
X27232914Y-15054500D01*
X27209391Y-15049500D01*
X27030609Y-15049500D01*
X27007086Y-15054500D01*
X26855733Y-15086670D01*
X26855728Y-15086672D01*
X26692408Y-15159387D01*
X26547768Y-15264475D01*
X26428140Y-15397336D01*
X26338750Y-15552164D01*
X26338747Y-15552170D01*
X26283504Y-15722192D01*
X26283503Y-15722194D01*
X26264815Y-15900000D01*
X26283503Y-16077805D01*
X26283504Y-16077807D01*
X26309444Y-16157642D01*
X26314038Y-16176888D01*
X26316406Y-16192107D01*
X26464064Y-16674246D01*
X26469500Y-16710557D01*
X26469500Y-17625500D01*
X26449815Y-17692539D01*
X26397011Y-17738294D01*
X26345500Y-17749500D01*
X16752729Y-17749500D01*
X16725194Y-17746404D01*
X16149041Y-17615191D01*
X16110554Y-17599249D01*
X15610380Y-17284634D01*
X15588721Y-17267353D01*
X12272644Y-13951276D01*
X12255363Y-13929617D01*
X12135835Y-13739592D01*
X11940745Y-13429438D01*
X11924807Y-13390959D01*
X11793596Y-12814806D01*
X11790500Y-12787272D01*
X11790500Y-10082726D01*
X11793594Y-10055199D01*
X11815526Y-9958890D01*
X11849603Y-9897901D01*
X11908891Y-9865526D01*
X12005198Y-9843594D01*
X12032724Y-9840500D01*
X20930655Y-9840500D01*
X20946944Y-9842164D01*
G37*
%TD.AperFunction*%
%TA.AperFunction,Conductor*%
G36*
X43794855Y-2006546D02*
G01*
X43811575Y-2025842D01*
X43941500Y-2211395D01*
X43941505Y-2211401D01*
X44108599Y-2378495D01*
X44132248Y-2395054D01*
X44302165Y-2514032D01*
X44302167Y-2514033D01*
X44302170Y-2514035D01*
X44516337Y-2613903D01*
X44540557Y-2620392D01*
X44547792Y-2622569D01*
X45688375Y-3004286D01*
X45821026Y-3048680D01*
X45869354Y-3078589D01*
X46263181Y-3472416D01*
X46296666Y-3533739D01*
X46299500Y-3560097D01*
X46299500Y-7228346D01*
X46292525Y-7269348D01*
X46185613Y-7574485D01*
X46174110Y-7611894D01*
X46174045Y-7612455D01*
X46173443Y-7615062D01*
X46172952Y-7617396D01*
X46172907Y-7617386D01*
X46167935Y-7638939D01*
X46153687Y-7679661D01*
X46153685Y-7679666D01*
X46134751Y-7847717D01*
X46134751Y-7847722D01*
X46153686Y-8015779D01*
X46153686Y-8015781D01*
X46209241Y-8174545D01*
X46212803Y-8244324D01*
X46178075Y-8304951D01*
X46116081Y-8337179D01*
X46092200Y-8339500D01*
X38745192Y-8339500D01*
X38678153Y-8319815D01*
X38632398Y-8267011D01*
X38628151Y-8256455D01*
X38600457Y-8177313D01*
X38600452Y-8177302D01*
X38510481Y-8034115D01*
X38510476Y-8034109D01*
X38390890Y-7914523D01*
X38390884Y-7914518D01*
X38247697Y-7824547D01*
X38247694Y-7824545D01*
X38088056Y-7768685D01*
X37920003Y-7749751D01*
X37919997Y-7749751D01*
X37751943Y-7768685D01*
X37592305Y-7824545D01*
X37592302Y-7824547D01*
X37449115Y-7914518D01*
X37449109Y-7914523D01*
X37329523Y-8034109D01*
X37329518Y-8034115D01*
X37239547Y-8177302D01*
X37239542Y-8177313D01*
X37211849Y-8256455D01*
X37171128Y-8313231D01*
X37106175Y-8338978D01*
X37094808Y-8339500D01*
X29887738Y-8339500D01*
X29820699Y-8319815D01*
X29774944Y-8267011D01*
X29765000Y-8197853D01*
X29769174Y-8179189D01*
X29777117Y-8153252D01*
X29783594Y-8132103D01*
X29791365Y-8103823D01*
X29791365Y-8103816D01*
X29792331Y-8098582D01*
X29792575Y-8098627D01*
X29796745Y-8078591D01*
X29816497Y-8017803D01*
X29835185Y-7840000D01*
X29816497Y-7662197D01*
X29779888Y-7549526D01*
X29761252Y-7492170D01*
X29761249Y-7492164D01*
X29757773Y-7486143D01*
X29671859Y-7337335D01*
X29592719Y-7249441D01*
X29552235Y-7204478D01*
X29552232Y-7204476D01*
X29552231Y-7204475D01*
X29552230Y-7204474D01*
X29407593Y-7099388D01*
X29244267Y-7026671D01*
X29244265Y-7026670D01*
X29116594Y-6999533D01*
X29069391Y-6989500D01*
X28890609Y-6989500D01*
X28859954Y-6996015D01*
X28715733Y-7026670D01*
X28715728Y-7026672D01*
X28552408Y-7099387D01*
X28407768Y-7204475D01*
X28288140Y-7337336D01*
X28198750Y-7492164D01*
X28198747Y-7492170D01*
X28143504Y-7662192D01*
X28143503Y-7662194D01*
X28124815Y-7840000D01*
X28143503Y-8017805D01*
X28143504Y-8017807D01*
X28169444Y-8097642D01*
X28174038Y-8116888D01*
X28176406Y-8132105D01*
X28176407Y-8132108D01*
X28178658Y-8139457D01*
X28190251Y-8177313D01*
X28190826Y-8179188D01*
X28191636Y-8249053D01*
X28154546Y-8308265D01*
X28091331Y-8338025D01*
X28072262Y-8339500D01*
X25049731Y-8339500D01*
X25032194Y-8338254D01*
X25031449Y-8338147D01*
X25031444Y-8338146D01*
X24689759Y-8289333D01*
X24401386Y-8248136D01*
X24393145Y-8246673D01*
X24359394Y-8239500D01*
X24359391Y-8239500D01*
X24343008Y-8239500D01*
X24329756Y-8238790D01*
X24328765Y-8238683D01*
X24319780Y-8237717D01*
X24318184Y-8237602D01*
X24318168Y-8237601D01*
X24223035Y-8239126D01*
X24217360Y-8239500D01*
X24180605Y-8239500D01*
X24146847Y-8246674D01*
X24138608Y-8248137D01*
X23507800Y-8338254D01*
X23490263Y-8339500D01*
X21889500Y-8339500D01*
X21822461Y-8319815D01*
X21776706Y-8267011D01*
X21765500Y-8215500D01*
X21765500Y-8189108D01*
X21766280Y-8175223D01*
X21766357Y-8174545D01*
X21770249Y-8140000D01*
X21766060Y-8102829D01*
X21765510Y-8096377D01*
X21760644Y-8054753D01*
X21760612Y-8054483D01*
X21751313Y-7971941D01*
X21751312Y-7971938D01*
X21750953Y-7968751D01*
X21750241Y-7965747D01*
X21750241Y-7965745D01*
X21722092Y-7888405D01*
X21721603Y-7887035D01*
X21719690Y-7881567D01*
X21695456Y-7812310D01*
X21695451Y-7812303D01*
X21693803Y-7808879D01*
X21691460Y-7803319D01*
X21690235Y-7800880D01*
X21647027Y-7735187D01*
X21645633Y-7733019D01*
X21605477Y-7669110D01*
X21605476Y-7669109D01*
X21601136Y-7663667D01*
X21601459Y-7663408D01*
X21598519Y-7659799D01*
X21598474Y-7659838D01*
X21593831Y-7654305D01*
X21539272Y-7602831D01*
X21536685Y-7600318D01*
X21485892Y-7549525D01*
X21485890Y-7549523D01*
X21485887Y-7549521D01*
X21480446Y-7545182D01*
X21480450Y-7545176D01*
X21467708Y-7535313D01*
X21466220Y-7533909D01*
X21404410Y-7498223D01*
X21400437Y-7495829D01*
X21342695Y-7459547D01*
X21342693Y-7459546D01*
X21342690Y-7459544D01*
X21342686Y-7459542D01*
X21342685Y-7459542D01*
X21340259Y-7458693D01*
X21319236Y-7449048D01*
X21314285Y-7446190D01*
X21314282Y-7446189D01*
X21314281Y-7446188D01*
X21314278Y-7446187D01*
X21249404Y-7426764D01*
X21244018Y-7425016D01*
X21183063Y-7403688D01*
X21183059Y-7403687D01*
X21176870Y-7402989D01*
X21155203Y-7398562D01*
X21146210Y-7395870D01*
X21082215Y-7392142D01*
X21075544Y-7391572D01*
X21015004Y-7384751D01*
X21015001Y-7384751D01*
X21015000Y-7384751D01*
X21005173Y-7385858D01*
X20984088Y-7386427D01*
X20971068Y-7385668D01*
X20911525Y-7396167D01*
X20903882Y-7397270D01*
X20846936Y-7403687D01*
X20834148Y-7408162D01*
X20814738Y-7413233D01*
X20798295Y-7416132D01*
X20746120Y-7438638D01*
X20737963Y-7441819D01*
X20687318Y-7459540D01*
X20687306Y-7459546D01*
X20672739Y-7468698D01*
X20655896Y-7477555D01*
X20637198Y-7485621D01*
X20637189Y-7485626D01*
X20594534Y-7517382D01*
X20586462Y-7522911D01*
X20544106Y-7549525D01*
X20544104Y-7549526D01*
X20529360Y-7564271D01*
X20515733Y-7576048D01*
X20496468Y-7590391D01*
X20496465Y-7590393D01*
X20464625Y-7628339D01*
X20457319Y-7636312D01*
X20424527Y-7669104D01*
X20424520Y-7669113D01*
X20411479Y-7689866D01*
X20401482Y-7703591D01*
X20383698Y-7724786D01*
X20383695Y-7724790D01*
X20363101Y-7765797D01*
X20357285Y-7776116D01*
X20334544Y-7812307D01*
X20325241Y-7838893D01*
X20319014Y-7853580D01*
X20304959Y-7881567D01*
X20295215Y-7922680D01*
X20291600Y-7935033D01*
X20278688Y-7971935D01*
X20275125Y-8003547D01*
X20272564Y-8018250D01*
X20264500Y-8052280D01*
X20264500Y-8090890D01*
X20263720Y-8104774D01*
X20260326Y-8134901D01*
X20259751Y-8140000D01*
X20263643Y-8174545D01*
X20263720Y-8175223D01*
X20264500Y-8189108D01*
X20264500Y-8215500D01*
X20244815Y-8282539D01*
X20192011Y-8328294D01*
X20140500Y-8339500D01*
X12032729Y-8339500D01*
X12005194Y-8336404D01*
X11932352Y-8319815D01*
X11334064Y-8183562D01*
X11323374Y-8181249D01*
X11323373Y-8181248D01*
X11318720Y-8180242D01*
X11318740Y-8180148D01*
X11305298Y-8177206D01*
X11226331Y-8153253D01*
X11226321Y-8153252D01*
X11040000Y-8134901D01*
X11039999Y-8134901D01*
X10853668Y-8153252D01*
X10853666Y-8153253D01*
X10674497Y-8207604D01*
X10509376Y-8295862D01*
X10509373Y-8295864D01*
X10364641Y-8414643D01*
X10340352Y-8444240D01*
X10282606Y-8483574D01*
X10212762Y-8485443D01*
X10152994Y-8449256D01*
X10122278Y-8386499D01*
X10120500Y-8365574D01*
X10120500Y-6870002D01*
X24334751Y-6870002D01*
X24353685Y-7038056D01*
X24409545Y-7197694D01*
X24409547Y-7197697D01*
X24499518Y-7340884D01*
X24499523Y-7340890D01*
X24619109Y-7460476D01*
X24619115Y-7460481D01*
X24762302Y-7550452D01*
X24762305Y-7550454D01*
X24762309Y-7550455D01*
X24762310Y-7550456D01*
X24820039Y-7570656D01*
X24921943Y-7606314D01*
X25089997Y-7625249D01*
X25090000Y-7625249D01*
X25090003Y-7625249D01*
X25258052Y-7606314D01*
X25258052Y-7606313D01*
X25258059Y-7606313D01*
X25313831Y-7586797D01*
X25333734Y-7581641D01*
X25351684Y-7578552D01*
X25666634Y-7476534D01*
X25704845Y-7470500D01*
X26660153Y-7470500D01*
X26698364Y-7476534D01*
X26726424Y-7485623D01*
X27013314Y-7578552D01*
X27045155Y-7587725D01*
X27045165Y-7587726D01*
X27050507Y-7588769D01*
X27050433Y-7589144D01*
X27071163Y-7593793D01*
X27106941Y-7606313D01*
X27106945Y-7606313D01*
X27106947Y-7606314D01*
X27274997Y-7625249D01*
X27275000Y-7625249D01*
X27275003Y-7625249D01*
X27443056Y-7606314D01*
X27454442Y-7602330D01*
X27602690Y-7550456D01*
X27602692Y-7550454D01*
X27602694Y-7550454D01*
X27602697Y-7550452D01*
X27745884Y-7460481D01*
X27745885Y-7460480D01*
X27745890Y-7460477D01*
X27865477Y-7340890D01*
X27922939Y-7249441D01*
X27955452Y-7197697D01*
X27955454Y-7197694D01*
X27955454Y-7197692D01*
X27955456Y-7197690D01*
X28011313Y-7038059D01*
X28011313Y-7038058D01*
X28011314Y-7038056D01*
X28030249Y-6870002D01*
X28030249Y-6869997D01*
X28011314Y-6701943D01*
X27955454Y-6542305D01*
X27955452Y-6542302D01*
X27865481Y-6399115D01*
X27865476Y-6399109D01*
X27745890Y-6279523D01*
X27745884Y-6279518D01*
X27602697Y-6189547D01*
X27602694Y-6189545D01*
X27443056Y-6133685D01*
X27275003Y-6114751D01*
X27274997Y-6114751D01*
X27106946Y-6133685D01*
X27106940Y-6133687D01*
X27051188Y-6153194D01*
X27031280Y-6158352D01*
X27013322Y-6161444D01*
X26698359Y-6263466D01*
X26660148Y-6269500D01*
X25704848Y-6269500D01*
X25666637Y-6263466D01*
X25351690Y-6161449D01*
X25351691Y-6161449D01*
X25351684Y-6161447D01*
X25334868Y-6156603D01*
X25319834Y-6152272D01*
X25314491Y-6151230D01*
X25314563Y-6150857D01*
X25293831Y-6146203D01*
X25258058Y-6133686D01*
X25090003Y-6114751D01*
X25089997Y-6114751D01*
X24921943Y-6133685D01*
X24762305Y-6189545D01*
X24762302Y-6189547D01*
X24619115Y-6279518D01*
X24619109Y-6279523D01*
X24499523Y-6399109D01*
X24499518Y-6399115D01*
X24409547Y-6542302D01*
X24409545Y-6542305D01*
X24353685Y-6701943D01*
X24334751Y-6869997D01*
X24334751Y-6870002D01*
X10120500Y-6870002D01*
X10120500Y-3180171D01*
X10130410Y-3131596D01*
X10132758Y-3126081D01*
X10585664Y-2062317D01*
X10630036Y-2008349D01*
X10696543Y-1986936D01*
X10764070Y-2004878D01*
X10801328Y-2039771D01*
X10842511Y-2098586D01*
X10921505Y-2211401D01*
X11088599Y-2378495D01*
X11112248Y-2395054D01*
X11282165Y-2514032D01*
X11282167Y-2514033D01*
X11282170Y-2514035D01*
X11496337Y-2613903D01*
X11724592Y-2675063D01*
X11895319Y-2690000D01*
X11959999Y-2695659D01*
X11960000Y-2695659D01*
X11960001Y-2695659D01*
X12024681Y-2690000D01*
X12195408Y-2675063D01*
X12423663Y-2613903D01*
X12637830Y-2514035D01*
X12831401Y-2378495D01*
X12998495Y-2211401D01*
X13128425Y-2025842D01*
X13183002Y-1982217D01*
X13252500Y-1975023D01*
X13314855Y-2006546D01*
X13331575Y-2025842D01*
X13461500Y-2211395D01*
X13461505Y-2211401D01*
X13628599Y-2378495D01*
X13652248Y-2395054D01*
X13822165Y-2514032D01*
X13822167Y-2514033D01*
X13822170Y-2514035D01*
X14036337Y-2613903D01*
X14264592Y-2675063D01*
X14435319Y-2690000D01*
X14499999Y-2695659D01*
X14500000Y-2695659D01*
X14500001Y-2695659D01*
X14564681Y-2690000D01*
X14735408Y-2675063D01*
X14963663Y-2613903D01*
X15177830Y-2514035D01*
X15371401Y-2378495D01*
X15538495Y-2211401D01*
X15668425Y-2025842D01*
X15723002Y-1982217D01*
X15792500Y-1975023D01*
X15854855Y-2006546D01*
X15871575Y-2025842D01*
X16001500Y-2211395D01*
X16001505Y-2211401D01*
X16168599Y-2378495D01*
X16192248Y-2395054D01*
X16362165Y-2514032D01*
X16362167Y-2514033D01*
X16362170Y-2514035D01*
X16576337Y-2613903D01*
X16804592Y-2675063D01*
X16975319Y-2690000D01*
X17039999Y-2695659D01*
X17040000Y-2695659D01*
X17040001Y-2695659D01*
X17104681Y-2690000D01*
X17275408Y-2675063D01*
X17503663Y-2613903D01*
X17717830Y-2514035D01*
X17911401Y-2378495D01*
X18078495Y-2211401D01*
X18208425Y-2025842D01*
X18263002Y-1982217D01*
X18332500Y-1975023D01*
X18394855Y-2006546D01*
X18411575Y-2025842D01*
X18541500Y-2211395D01*
X18541505Y-2211401D01*
X18708599Y-2378495D01*
X18732248Y-2395054D01*
X18902165Y-2514032D01*
X18902167Y-2514033D01*
X18902170Y-2514035D01*
X19116337Y-2613903D01*
X19344592Y-2675063D01*
X19515319Y-2690000D01*
X19579999Y-2695659D01*
X19580000Y-2695659D01*
X19580001Y-2695659D01*
X19644681Y-2690000D01*
X19815408Y-2675063D01*
X20043663Y-2613903D01*
X20257830Y-2514035D01*
X20451401Y-2378495D01*
X20618495Y-2211401D01*
X20748425Y-2025842D01*
X20803002Y-1982217D01*
X20872500Y-1975023D01*
X20934855Y-2006546D01*
X20951575Y-2025842D01*
X21081500Y-2211395D01*
X21081505Y-2211401D01*
X21248599Y-2378495D01*
X21272248Y-2395054D01*
X21442165Y-2514032D01*
X21442167Y-2514033D01*
X21442170Y-2514035D01*
X21656337Y-2613903D01*
X21884592Y-2675063D01*
X22055319Y-2690000D01*
X22119999Y-2695659D01*
X22120000Y-2695659D01*
X22120001Y-2695659D01*
X22184681Y-2690000D01*
X22355408Y-2675063D01*
X22583663Y-2613903D01*
X22797830Y-2514035D01*
X22991401Y-2378495D01*
X23158495Y-2211401D01*
X23288425Y-2025842D01*
X23343002Y-1982217D01*
X23412500Y-1975023D01*
X23474855Y-2006546D01*
X23491575Y-2025842D01*
X23621500Y-2211395D01*
X23621505Y-2211401D01*
X23788599Y-2378495D01*
X23812248Y-2395054D01*
X23982165Y-2514032D01*
X23982167Y-2514033D01*
X23982170Y-2514035D01*
X24196337Y-2613903D01*
X24424592Y-2675063D01*
X24595319Y-2690000D01*
X24659999Y-2695659D01*
X24660000Y-2695659D01*
X24660001Y-2695659D01*
X24724681Y-2690000D01*
X24895408Y-2675063D01*
X25123663Y-2613903D01*
X25337830Y-2514035D01*
X25531401Y-2378495D01*
X25698495Y-2211401D01*
X25828425Y-2025842D01*
X25883002Y-1982217D01*
X25952500Y-1975023D01*
X26014855Y-2006546D01*
X26031575Y-2025842D01*
X26161500Y-2211395D01*
X26161505Y-2211401D01*
X26328599Y-2378495D01*
X26352248Y-2395054D01*
X26522165Y-2514032D01*
X26522167Y-2514033D01*
X26522170Y-2514035D01*
X26736337Y-2613903D01*
X26964592Y-2675063D01*
X27135319Y-2690000D01*
X27199999Y-2695659D01*
X27200000Y-2695659D01*
X27200001Y-2695659D01*
X27264681Y-2690000D01*
X27435408Y-2675063D01*
X27663663Y-2613903D01*
X27877830Y-2514035D01*
X28071401Y-2378495D01*
X28238495Y-2211401D01*
X28368425Y-2025842D01*
X28423002Y-1982217D01*
X28492500Y-1975023D01*
X28554855Y-2006546D01*
X28571575Y-2025842D01*
X28701500Y-2211395D01*
X28701505Y-2211401D01*
X28868599Y-2378495D01*
X28892248Y-2395054D01*
X29062165Y-2514032D01*
X29062167Y-2514033D01*
X29062170Y-2514035D01*
X29276337Y-2613903D01*
X29504592Y-2675063D01*
X29675319Y-2690000D01*
X29739999Y-2695659D01*
X29740000Y-2695659D01*
X29740001Y-2695659D01*
X29804681Y-2690000D01*
X29975408Y-2675063D01*
X30203663Y-2613903D01*
X30417830Y-2514035D01*
X30611401Y-2378495D01*
X30778495Y-2211401D01*
X30908425Y-2025842D01*
X30963002Y-1982217D01*
X31032500Y-1975023D01*
X31094855Y-2006546D01*
X31111575Y-2025842D01*
X31241500Y-2211395D01*
X31241505Y-2211401D01*
X31408599Y-2378495D01*
X31432248Y-2395054D01*
X31602165Y-2514032D01*
X31602167Y-2514033D01*
X31602170Y-2514035D01*
X31816337Y-2613903D01*
X32044592Y-2675063D01*
X32215319Y-2690000D01*
X32279999Y-2695659D01*
X32280000Y-2695659D01*
X32280001Y-2695659D01*
X32344681Y-2690000D01*
X32515408Y-2675063D01*
X32743663Y-2613903D01*
X32957830Y-2514035D01*
X33151401Y-2378495D01*
X33318495Y-2211401D01*
X33448425Y-2025842D01*
X33503002Y-1982217D01*
X33572500Y-1975023D01*
X33634855Y-2006546D01*
X33651575Y-2025842D01*
X33781500Y-2211395D01*
X33781505Y-2211401D01*
X33948599Y-2378495D01*
X33972248Y-2395054D01*
X34142165Y-2514032D01*
X34142167Y-2514033D01*
X34142170Y-2514035D01*
X34356337Y-2613903D01*
X34584592Y-2675063D01*
X34755319Y-2690000D01*
X34819999Y-2695659D01*
X34820000Y-2695659D01*
X34820001Y-2695659D01*
X34884681Y-2690000D01*
X35055408Y-2675063D01*
X35283663Y-2613903D01*
X35497830Y-2514035D01*
X35691401Y-2378495D01*
X35858495Y-2211401D01*
X35988425Y-2025842D01*
X36043002Y-1982217D01*
X36112500Y-1975023D01*
X36174855Y-2006546D01*
X36191575Y-2025842D01*
X36321500Y-2211395D01*
X36321505Y-2211401D01*
X36488599Y-2378495D01*
X36512248Y-2395054D01*
X36682165Y-2514032D01*
X36682167Y-2514033D01*
X36682170Y-2514035D01*
X36896337Y-2613903D01*
X37124592Y-2675063D01*
X37295319Y-2690000D01*
X37359999Y-2695659D01*
X37360000Y-2695659D01*
X37360001Y-2695659D01*
X37424681Y-2690000D01*
X37595408Y-2675063D01*
X37823663Y-2613903D01*
X38037830Y-2514035D01*
X38231401Y-2378495D01*
X38398495Y-2211401D01*
X38528425Y-2025842D01*
X38583002Y-1982217D01*
X38652500Y-1975023D01*
X38714855Y-2006546D01*
X38731575Y-2025842D01*
X38861500Y-2211395D01*
X38861505Y-2211401D01*
X39028599Y-2378495D01*
X39052248Y-2395054D01*
X39222165Y-2514032D01*
X39222167Y-2514033D01*
X39222170Y-2514035D01*
X39436337Y-2613903D01*
X39664592Y-2675063D01*
X39835319Y-2690000D01*
X39899999Y-2695659D01*
X39900000Y-2695659D01*
X39900001Y-2695659D01*
X39964681Y-2690000D01*
X40135408Y-2675063D01*
X40363663Y-2613903D01*
X40577830Y-2514035D01*
X40771401Y-2378495D01*
X40938495Y-2211401D01*
X41068425Y-2025842D01*
X41123002Y-1982217D01*
X41192500Y-1975023D01*
X41254855Y-2006546D01*
X41271575Y-2025842D01*
X41401500Y-2211395D01*
X41401505Y-2211401D01*
X41568599Y-2378495D01*
X41592248Y-2395054D01*
X41762165Y-2514032D01*
X41762167Y-2514033D01*
X41762170Y-2514035D01*
X41976337Y-2613903D01*
X42204592Y-2675063D01*
X42375319Y-2690000D01*
X42439999Y-2695659D01*
X42440000Y-2695659D01*
X42440001Y-2695659D01*
X42504681Y-2690000D01*
X42675408Y-2675063D01*
X42903663Y-2613903D01*
X43117830Y-2514035D01*
X43311401Y-2378495D01*
X43478495Y-2211401D01*
X43608425Y-2025842D01*
X43663002Y-1982217D01*
X43732500Y-1975023D01*
X43794855Y-2006546D01*
G37*
%TD.AperFunction*%
%TA.AperFunction,Conductor*%
G36*
X53884440Y-250695D02*
G01*
X54181866Y-267402D01*
X54195670Y-268958D01*
X54485926Y-318278D01*
X54499477Y-321372D01*
X54782380Y-402878D01*
X54795487Y-407464D01*
X55067451Y-520120D01*
X55067482Y-520133D01*
X55080009Y-526165D01*
X55326537Y-662420D01*
X55337676Y-668576D01*
X55349450Y-675974D01*
X55589551Y-846338D01*
X55600423Y-855008D01*
X55819944Y-1051187D01*
X55829776Y-1061020D01*
X56025941Y-1280532D01*
X56034605Y-1291395D01*
X56204966Y-1531499D01*
X56204974Y-1531510D01*
X56212372Y-1543285D01*
X56354780Y-1800957D01*
X56360813Y-1813485D01*
X56473470Y-2085466D01*
X56478063Y-2098590D01*
X56559567Y-2381496D01*
X56562661Y-2395054D01*
X56611973Y-2685290D01*
X56613530Y-2699107D01*
X56630278Y-2997333D01*
X56630473Y-3004286D01*
X56630473Y-7426086D01*
X56610788Y-7493125D01*
X56557984Y-7538880D01*
X56493220Y-7549375D01*
X56447873Y-7544500D01*
X56447864Y-7544500D01*
X54652129Y-7544500D01*
X54652123Y-7544501D01*
X54592516Y-7550908D01*
X54457671Y-7601202D01*
X54457664Y-7601206D01*
X54342455Y-7687452D01*
X54342452Y-7687455D01*
X54256205Y-7802665D01*
X54256204Y-7802667D01*
X54243319Y-7837214D01*
X54206167Y-7889432D01*
X53696392Y-8311053D01*
X53632187Y-8338611D01*
X53617363Y-8339500D01*
X48394500Y-8339500D01*
X48327461Y-8319815D01*
X48281706Y-8267011D01*
X48270500Y-8215500D01*
X48270500Y-3171074D01*
X48272580Y-3160000D01*
X52024551Y-3160000D01*
X52044317Y-3411151D01*
X52103126Y-3656110D01*
X52199533Y-3888859D01*
X52331160Y-4103653D01*
X52331161Y-4103656D01*
X52331164Y-4103659D01*
X52494776Y-4295224D01*
X52643066Y-4421875D01*
X52686343Y-4458838D01*
X52686346Y-4458839D01*
X52901140Y-4590466D01*
X53133889Y-4686873D01*
X53378852Y-4745683D01*
X53630000Y-4765449D01*
X53881148Y-4745683D01*
X54126111Y-4686873D01*
X54358859Y-4590466D01*
X54573659Y-4458836D01*
X54765224Y-4295224D01*
X54928836Y-4103659D01*
X55060466Y-3888859D01*
X55156873Y-3656111D01*
X55215683Y-3411148D01*
X55235449Y-3160000D01*
X55215683Y-2908852D01*
X55156873Y-2663889D01*
X55094802Y-2514035D01*
X55060466Y-2431140D01*
X54928839Y-2216346D01*
X54928838Y-2216343D01*
X54828267Y-2098590D01*
X54765224Y-2024776D01*
X54638571Y-1916604D01*
X54573656Y-1861161D01*
X54573653Y-1861160D01*
X54358859Y-1729533D01*
X54126110Y-1633126D01*
X53881151Y-1574317D01*
X53630000Y-1554551D01*
X53378848Y-1574317D01*
X53133889Y-1633126D01*
X52901140Y-1729533D01*
X52686346Y-1861160D01*
X52686343Y-1861161D01*
X52494776Y-2024776D01*
X52331161Y-2216343D01*
X52331160Y-2216346D01*
X52199533Y-2431140D01*
X52103126Y-2663889D01*
X52044317Y-2908848D01*
X52024551Y-3160000D01*
X48272580Y-3160000D01*
X48278951Y-3126081D01*
X48309090Y-3048680D01*
X48689285Y-2072284D01*
X48731953Y-2016957D01*
X48797760Y-1993480D01*
X48865814Y-2009308D01*
X48906409Y-2046154D01*
X49021894Y-2211082D01*
X49188917Y-2378105D01*
X49382421Y-2513600D01*
X49596507Y-2613429D01*
X49596516Y-2613433D01*
X49810000Y-2670634D01*
X49810000Y-1775501D01*
X49917685Y-1824680D01*
X50024237Y-1840000D01*
X50095763Y-1840000D01*
X50202315Y-1824680D01*
X50310000Y-1775501D01*
X50310000Y-2670633D01*
X50523483Y-2613433D01*
X50523492Y-2613429D01*
X50737578Y-2513600D01*
X50931082Y-2378105D01*
X51098105Y-2211082D01*
X51233600Y-2017578D01*
X51333429Y-1803492D01*
X51333432Y-1803486D01*
X51390636Y-1590000D01*
X50493686Y-1590000D01*
X50519493Y-1549844D01*
X50560000Y-1411889D01*
X50560000Y-1268111D01*
X50519493Y-1130156D01*
X50493686Y-1090000D01*
X51390636Y-1090000D01*
X51390635Y-1089999D01*
X51333432Y-876513D01*
X51333429Y-876507D01*
X51233600Y-662422D01*
X51233599Y-662420D01*
X51098113Y-468926D01*
X51098108Y-468920D01*
X51091369Y-462181D01*
X51057884Y-400858D01*
X51062868Y-331166D01*
X51104740Y-275233D01*
X51170204Y-250816D01*
X51179050Y-250500D01*
X53877485Y-250500D01*
X53884440Y-250695D01*
G37*
%TD.AperFunction*%
%TD*%
%TA.AperFunction,Conductor*%
%TO.N,/VDD_3.3V*%
G36*
X15308282Y-17691798D02*
G01*
X15923866Y-18079007D01*
X15929044Y-18086313D01*
X15928455Y-18093366D01*
X15762563Y-18496199D01*
X15756244Y-18502544D01*
X15756199Y-18502563D01*
X15353366Y-18668455D01*
X15344411Y-18668436D01*
X15339007Y-18663866D01*
X14951798Y-18048282D01*
X14950294Y-18039454D01*
X14953427Y-18033781D01*
X15293780Y-17693428D01*
X15302052Y-17690002D01*
X15308282Y-17691798D01*
G37*
%TD.AperFunction*%
%TD*%
%TA.AperFunction,Conductor*%
%TO.N,/VDD_3.3V*%
G36*
X11455588Y-13611563D02*
G01*
X11460992Y-13616133D01*
X11848201Y-14231717D01*
X11849705Y-14240545D01*
X11846570Y-14246220D01*
X11506220Y-14586570D01*
X11497947Y-14589997D01*
X11491717Y-14588201D01*
X10876133Y-14200992D01*
X10870955Y-14193686D01*
X10871543Y-14186635D01*
X11037437Y-13783798D01*
X11043754Y-13777455D01*
X11446635Y-13611544D01*
X11455588Y-13611563D01*
G37*
%TD.AperFunction*%
%TD*%
%TA.AperFunction,Conductor*%
%TO.N,/VDD_3.3V*%
G36*
X24265358Y-8744124D02*
G01*
X24269920Y-8751829D01*
X24270038Y-8753451D01*
X24271000Y-9090000D01*
X24271000Y-9090066D01*
X24270038Y-9426548D01*
X24266587Y-9434812D01*
X24258305Y-9438215D01*
X24256683Y-9438097D01*
X23580045Y-9341435D01*
X23572340Y-9336873D01*
X23570000Y-9329853D01*
X23570000Y-8850147D01*
X23573427Y-8841874D01*
X23580045Y-8838565D01*
X24256684Y-8741902D01*
X24265358Y-8744124D01*
G37*
%TD.AperFunction*%
%TD*%
%TA.AperFunction,Conductor*%
%TO.N,/VDD_3.3V*%
G36*
X34914834Y-18180601D02*
G01*
X34920144Y-18186428D01*
X35049119Y-18495494D01*
X35049142Y-18504449D01*
X35049119Y-18504506D01*
X34920144Y-18813571D01*
X34913795Y-18819886D01*
X34905920Y-18820252D01*
X34358274Y-18652533D01*
X34351367Y-18646834D01*
X34350000Y-18641346D01*
X34350000Y-18358653D01*
X34353427Y-18350380D01*
X34358274Y-18347466D01*
X34905921Y-18179747D01*
X34914834Y-18180601D01*
G37*
%TD.AperFunction*%
%TD*%
%TA.AperFunction,Conductor*%
%TO.N,/VDD_3.3V*%
G36*
X35741726Y-18347466D02*
G01*
X35748633Y-18353165D01*
X35750000Y-18358653D01*
X35750000Y-18639750D01*
X35746573Y-18648023D01*
X35740226Y-18651290D01*
X35723878Y-18654018D01*
X35723783Y-18654034D01*
X35670339Y-18662500D01*
X35669465Y-18662784D01*
X35669451Y-18662742D01*
X35667238Y-18663470D01*
X35664623Y-18663906D01*
X35664618Y-18663908D01*
X35617146Y-18689597D01*
X35616888Y-18689733D01*
X35612716Y-18691858D01*
X35610832Y-18692619D01*
X35194079Y-18820252D01*
X35185165Y-18819398D01*
X35179855Y-18813571D01*
X35113279Y-18654034D01*
X35050879Y-18504505D01*
X35050857Y-18495551D01*
X35050880Y-18495494D01*
X35111596Y-18350000D01*
X35179855Y-18186427D01*
X35186204Y-18180113D01*
X35194077Y-18179747D01*
X35741726Y-18347466D01*
G37*
%TD.AperFunction*%
%TD*%
%TA.AperFunction,Conductor*%
%TO.N,/VDD_3.3V*%
G36*
X16650898Y-18247927D02*
G01*
X16658204Y-18253105D01*
X16660000Y-18259335D01*
X16660000Y-18740664D01*
X16656573Y-18748937D01*
X16650898Y-18752072D01*
X15941816Y-18913557D01*
X15932988Y-18912053D01*
X15928418Y-18906649D01*
X15859265Y-18740664D01*
X15760873Y-18504498D01*
X15760855Y-18495547D01*
X15928418Y-18093349D01*
X15934763Y-18087031D01*
X15941816Y-18086442D01*
X16650898Y-18247927D01*
G37*
%TD.AperFunction*%
%TD*%
%TA.AperFunction,Conductor*%
%TO.N,/VDD_3.3V*%
G36*
X54707499Y-8143670D02*
G01*
X55541738Y-8886750D01*
X55545637Y-8894812D01*
X55542693Y-8903269D01*
X55542224Y-8903765D01*
X54705843Y-9739162D01*
X54697568Y-9742584D01*
X54692542Y-9741446D01*
X53856667Y-9343176D01*
X53850673Y-9336524D01*
X53850000Y-9332614D01*
X53850000Y-8845506D01*
X53853427Y-8837233D01*
X53854234Y-8836498D01*
X54692261Y-8143390D01*
X54700819Y-8140759D01*
X54707499Y-8143670D01*
G37*
%TD.AperFunction*%
%TD*%
%TA.AperFunction,Conductor*%
%TO.N,/VDD_3.3V*%
G36*
X11446649Y-9258418D02*
G01*
X11452968Y-9264763D01*
X11453557Y-9271816D01*
X11292073Y-9980898D01*
X11286895Y-9988204D01*
X11280665Y-9990000D01*
X10799335Y-9990000D01*
X10791062Y-9986573D01*
X10787927Y-9980898D01*
X10626442Y-9271816D01*
X10627946Y-9262988D01*
X10633349Y-9258418D01*
X11035501Y-9090873D01*
X11044452Y-9090855D01*
X11446649Y-9258418D01*
G37*
%TD.AperFunction*%
%TD*%
%TA.AperFunction,Conductor*%
%TO.N,/VDD_3.3V*%
G36*
X11288938Y-12883427D02*
G01*
X11292073Y-12889102D01*
X11453557Y-13598183D01*
X11452053Y-13607011D01*
X11446649Y-13611581D01*
X11044500Y-13779125D01*
X11035545Y-13779144D01*
X11035500Y-13779125D01*
X10633350Y-13611581D01*
X10627031Y-13605236D01*
X10626442Y-13598183D01*
X10787927Y-12889102D01*
X10793105Y-12881796D01*
X10799335Y-12880000D01*
X11280665Y-12880000D01*
X11288938Y-12883427D01*
G37*
%TD.AperFunction*%
%TD*%
%TA.AperFunction,Conductor*%
%TO.N,/VDD_3.3V*%
G36*
X38142135Y-8596973D02*
G01*
X38148443Y-8603328D01*
X38149089Y-8610062D01*
X38071883Y-8995597D01*
X38066899Y-9003037D01*
X38060411Y-9005000D01*
X37779589Y-9005000D01*
X37771316Y-9001573D01*
X37768117Y-8995597D01*
X37765326Y-8981662D01*
X37690910Y-8610060D01*
X37692645Y-8601277D01*
X37697862Y-8596974D01*
X37915484Y-8505889D01*
X37924436Y-8505857D01*
X38142135Y-8596973D01*
G37*
%TD.AperFunction*%
%TD*%
%TA.AperFunction,Conductor*%
%TO.N,/VDD_3.3V*%
G36*
X27124478Y-15900868D02*
G01*
X27338891Y-15990344D01*
X27433571Y-16029855D01*
X27439886Y-16036204D01*
X27440252Y-16044079D01*
X27272534Y-16591726D01*
X27266835Y-16598633D01*
X27261347Y-16600000D01*
X26978653Y-16600000D01*
X26970380Y-16596573D01*
X26967466Y-16591726D01*
X26799747Y-16044079D01*
X26800601Y-16035165D01*
X26806427Y-16029855D01*
X27115494Y-15900879D01*
X27124449Y-15900857D01*
X27124478Y-15900868D01*
G37*
%TD.AperFunction*%
%TD*%
%TA.AperFunction,Conductor*%
%TO.N,/VDD_3.3V*%
G36*
X28984478Y-7840868D02*
G01*
X29198891Y-7930344D01*
X29293571Y-7969855D01*
X29299886Y-7976204D01*
X29300252Y-7984079D01*
X29132534Y-8531726D01*
X29126835Y-8538633D01*
X29121347Y-8540000D01*
X28838653Y-8540000D01*
X28830380Y-8536573D01*
X28827466Y-8531726D01*
X28659747Y-7984079D01*
X28660601Y-7975165D01*
X28666427Y-7969855D01*
X28975494Y-7840879D01*
X28984449Y-7840857D01*
X28984478Y-7840868D01*
G37*
%TD.AperFunction*%
%TD*%
%TA.AperFunction,Conductor*%
%TO.N,/VDD_3.3V*%
G36*
X39364478Y-16280868D02*
G01*
X39540364Y-16354267D01*
X39673645Y-16409886D01*
X39679960Y-16416235D01*
X39680352Y-16424025D01*
X39517491Y-16970646D01*
X39511844Y-16977596D01*
X39506278Y-16979005D01*
X39223576Y-16979005D01*
X39215303Y-16975578D01*
X39212419Y-16970827D01*
X39149080Y-16770163D01*
X39039861Y-16424137D01*
X39040638Y-16415218D01*
X39046509Y-16409821D01*
X39355494Y-16280879D01*
X39364449Y-16280857D01*
X39364478Y-16280868D01*
G37*
%TD.AperFunction*%
%TD*%
%TA.AperFunction,Conductor*%
%TO.N,/VDD_3.3V*%
G36*
X47770273Y-22363427D02*
G01*
X47772903Y-22367455D01*
X48301146Y-23724058D01*
X48300954Y-23733010D01*
X48294732Y-23739108D01*
X47524489Y-24059134D01*
X47515534Y-24059143D01*
X47515511Y-24059134D01*
X46745267Y-23739108D01*
X46738942Y-23732769D01*
X46738853Y-23724058D01*
X47267097Y-22367455D01*
X47273293Y-22360989D01*
X47278000Y-22360000D01*
X47762000Y-22360000D01*
X47770273Y-22363427D01*
G37*
%TD.AperFunction*%
%TD*%
%TA.AperFunction,Conductor*%
%TO.N,/VDD_3.3V*%
G36*
X24283311Y-8741901D02*
G01*
X24959955Y-8838565D01*
X24967660Y-8843127D01*
X24970000Y-8850147D01*
X24970000Y-9329853D01*
X24966573Y-9338126D01*
X24959955Y-9341435D01*
X24283316Y-9438097D01*
X24274641Y-9435875D01*
X24270079Y-9428170D01*
X24269961Y-9426556D01*
X24269000Y-9090000D01*
X24269961Y-8753449D01*
X24273412Y-8745187D01*
X24281694Y-8741784D01*
X24283311Y-8741901D01*
G37*
%TD.AperFunction*%
%TD*%
%TA.AperFunction,Conductor*%
%TO.N,/VDD_3.3V*%
G36*
X11930898Y-8837927D02*
G01*
X11938204Y-8843105D01*
X11940000Y-8849335D01*
X11940000Y-9330664D01*
X11936573Y-9338937D01*
X11930898Y-9342072D01*
X11221816Y-9503557D01*
X11212988Y-9502053D01*
X11208418Y-9496649D01*
X11139265Y-9330664D01*
X11040873Y-9094498D01*
X11040855Y-9085547D01*
X11208418Y-8683349D01*
X11214763Y-8677031D01*
X11221816Y-8676442D01*
X11930898Y-8837927D01*
G37*
%TD.AperFunction*%
%TD*%
%TA.AperFunction,Conductor*%
%TO.N,/VDD_3.3V*%
G36*
X47524489Y-1340865D02*
G01*
X48294732Y-1660891D01*
X48301057Y-1667230D01*
X48301146Y-1675941D01*
X47772903Y-3032545D01*
X47766707Y-3039011D01*
X47762000Y-3040000D01*
X47278000Y-3040000D01*
X47269727Y-3036573D01*
X47267097Y-3032545D01*
X46738853Y-1675941D01*
X46739045Y-1666989D01*
X46745266Y-1660891D01*
X47515511Y-1340864D01*
X47524466Y-1340856D01*
X47524489Y-1340865D01*
G37*
%TD.AperFunction*%
%TD*%
%TA.AperFunction,Conductor*%
%TO.N,/VDD_5V*%
G36*
X40435358Y-19914124D02*
G01*
X40439920Y-19921829D01*
X40440038Y-19923451D01*
X40441000Y-20260000D01*
X40441000Y-20260066D01*
X40440038Y-20596548D01*
X40436587Y-20604812D01*
X40428305Y-20608215D01*
X40426683Y-20608097D01*
X39750045Y-20511435D01*
X39742340Y-20506873D01*
X39740000Y-20499853D01*
X39740000Y-20020147D01*
X39743427Y-20011874D01*
X39750045Y-20008565D01*
X40426684Y-19911902D01*
X40435358Y-19914124D01*
G37*
%TD.AperFunction*%
%TD*%
%TA.AperFunction,Conductor*%
%TO.N,/VDD_5V*%
G36*
X10915499Y-17741600D02*
G01*
X10920962Y-17746266D01*
X11302331Y-18365752D01*
X11303750Y-18374594D01*
X11300641Y-18380159D01*
X10960284Y-18720516D01*
X10952011Y-18723943D01*
X10945695Y-18722091D01*
X10336011Y-18331018D01*
X10330899Y-18323668D01*
X10331509Y-18316718D01*
X10497437Y-17913798D01*
X10503754Y-17907455D01*
X10906545Y-17741581D01*
X10915499Y-17741600D01*
G37*
%TD.AperFunction*%
%TD*%
%TA.AperFunction,Conductor*%
%TO.N,/VDD_5V*%
G36*
X10093364Y-17741543D02*
G01*
X10496199Y-17907436D01*
X10502544Y-17913755D01*
X10502563Y-17913800D01*
X10668455Y-18316633D01*
X10668436Y-18325588D01*
X10663866Y-18330992D01*
X10048282Y-18718201D01*
X10039454Y-18719705D01*
X10033779Y-18716570D01*
X9693429Y-18376220D01*
X9690002Y-18367947D01*
X9691798Y-18361717D01*
X9711125Y-18330992D01*
X10079007Y-17746132D01*
X10086313Y-17740955D01*
X10093364Y-17741543D01*
G37*
%TD.AperFunction*%
%TD*%
%TA.AperFunction,Conductor*%
%TO.N,/VDD_5V*%
G36*
X5374937Y-22692764D02*
G01*
X5717180Y-23035007D01*
X5720607Y-23043280D01*
X5719599Y-23048032D01*
X5129924Y-24374870D01*
X5123432Y-24381038D01*
X5114766Y-24380932D01*
X4343785Y-24062562D01*
X4337447Y-24056238D01*
X4019106Y-23285325D01*
X4019115Y-23276372D01*
X4025262Y-23270128D01*
X5362011Y-22690302D01*
X5370962Y-22690155D01*
X5374937Y-22692764D01*
G37*
%TD.AperFunction*%
%TD*%
%TA.AperFunction,Conductor*%
%TO.N,/GPIO25*%
G36*
X27178013Y-6643058D02*
G01*
X27183485Y-6648961D01*
X27274109Y-6865483D01*
X27274142Y-6874437D01*
X27274109Y-6874517D01*
X27183485Y-7091038D01*
X27177129Y-7097347D01*
X27169087Y-7097652D01*
X26783095Y-6972622D01*
X26776280Y-6966812D01*
X26775000Y-6961491D01*
X26775000Y-6778508D01*
X26778427Y-6770235D01*
X26783091Y-6767378D01*
X27169088Y-6642347D01*
X27178013Y-6643058D01*
G37*
%TD.AperFunction*%
%TD*%
%TA.AperFunction,Conductor*%
%TO.N,/GPIO25*%
G36*
X25581906Y-6767378D02*
G01*
X25588720Y-6773187D01*
X25590000Y-6778508D01*
X25590000Y-6961491D01*
X25586573Y-6969764D01*
X25581905Y-6972622D01*
X25195912Y-7097652D01*
X25186986Y-7096941D01*
X25181514Y-7091038D01*
X25090889Y-6874515D01*
X25090857Y-6865563D01*
X25181514Y-6648960D01*
X25187870Y-6642652D01*
X25195911Y-6642347D01*
X25581906Y-6767378D01*
G37*
%TD.AperFunction*%
%TD*%
%TA.AperFunction,Conductor*%
%TO.N,/LDO_EN*%
G36*
X7344300Y-19576342D02*
G01*
X7613819Y-19845861D01*
X7617246Y-19854134D01*
X7615469Y-19860333D01*
X7318592Y-20335560D01*
X7311302Y-20340761D01*
X7304220Y-20340182D01*
X6993808Y-20212563D01*
X6987460Y-20206249D01*
X6859727Y-19895558D01*
X6859750Y-19886605D01*
X6864113Y-19881340D01*
X7329596Y-19574842D01*
X7338387Y-19573155D01*
X7344300Y-19576342D01*
G37*
%TD.AperFunction*%
%TD*%
%TA.AperFunction,Conductor*%
%TO.N,/LDO_EN*%
G36*
X9424489Y-1340865D02*
G01*
X10194398Y-1660752D01*
X10200723Y-1667091D01*
X10200714Y-1676046D01*
X10200674Y-1676140D01*
X9623030Y-3032883D01*
X9616636Y-3039153D01*
X9612265Y-3040000D01*
X9227735Y-3040000D01*
X9219462Y-3036573D01*
X9216970Y-3032883D01*
X8639325Y-1676140D01*
X8639237Y-1667186D01*
X8645507Y-1660792D01*
X8645540Y-1660777D01*
X9415511Y-1340864D01*
X9424466Y-1340856D01*
X9424489Y-1340865D01*
G37*
%TD.AperFunction*%
%TD*%
%TA.AperFunction,Conductor*%
%TO.N,/RUN*%
G36*
X46999573Y-7353136D02*
G01*
X47002505Y-7358040D01*
X47117935Y-7741956D01*
X47117035Y-7750866D01*
X47111247Y-7756118D01*
X46894517Y-7846829D01*
X46885563Y-7846862D01*
X46885483Y-7846829D01*
X46669200Y-7756305D01*
X46662891Y-7749949D01*
X46662675Y-7741645D01*
X46797256Y-7357539D01*
X46803226Y-7350866D01*
X46808298Y-7349709D01*
X46991300Y-7349709D01*
X46999573Y-7353136D01*
G37*
%TD.AperFunction*%
%TD*%
%TA.AperFunction,Conductor*%
%TO.N,/RUN*%
G36*
X45762669Y-1019511D02*
G01*
X45768994Y-1025850D01*
X45769275Y-1026603D01*
X46136337Y-2123400D01*
X46250494Y-2464504D01*
X46249870Y-2473437D01*
X46247672Y-2476490D01*
X46116490Y-2607672D01*
X46108217Y-2611099D01*
X46104504Y-2610494D01*
X45694972Y-2473437D01*
X45440235Y-2388184D01*
X44666603Y-2129275D01*
X44659845Y-2123400D01*
X44659221Y-2114467D01*
X44659497Y-2113726D01*
X44977438Y-1343783D01*
X44983759Y-1337448D01*
X45753715Y-1019502D01*
X45762669Y-1019511D01*
G37*
%TD.AperFunction*%
%TD*%
%TA.AperFunction,Conductor*%
%TO.N,/GPIO29_ADC3*%
G36*
X38762041Y-17043058D02*
G01*
X38767513Y-17048961D01*
X38858137Y-17265483D01*
X38858170Y-17274437D01*
X38858137Y-17274517D01*
X38767513Y-17491038D01*
X38761157Y-17497347D01*
X38753115Y-17497652D01*
X38367123Y-17372622D01*
X38360308Y-17366812D01*
X38359028Y-17361491D01*
X38359028Y-17178508D01*
X38362455Y-17170235D01*
X38367119Y-17167378D01*
X38753116Y-17042347D01*
X38762041Y-17043058D01*
G37*
%TD.AperFunction*%
%TD*%
%TA.AperFunction,Conductor*%
%TO.N,/GPIO29_ADC3*%
G36*
X25853800Y-9721168D02*
G01*
X26070198Y-9811190D01*
X26071646Y-9811792D01*
X26077968Y-9818134D01*
X26078496Y-9825461D01*
X26006352Y-10111016D01*
X26003281Y-10116423D01*
X25875095Y-10244609D01*
X25866822Y-10248036D01*
X25858549Y-10244609D01*
X25856602Y-10242031D01*
X25625401Y-9827105D01*
X25624367Y-9818210D01*
X25629926Y-9811190D01*
X25631098Y-9810619D01*
X25844789Y-9721177D01*
X25853743Y-9721145D01*
X25853800Y-9721168D01*
G37*
%TD.AperFunction*%
%TD*%
%TA.AperFunction,Conductor*%
%TO.N,Net-(USB1-CC2)*%
G36*
X6189764Y-13933427D02*
G01*
X6192622Y-13938095D01*
X6317652Y-14324087D01*
X6316941Y-14333013D01*
X6311038Y-14338485D01*
X6094517Y-14429109D01*
X6085563Y-14429142D01*
X6085483Y-14429109D01*
X5868961Y-14338485D01*
X5862652Y-14332129D01*
X5862347Y-14324088D01*
X5987378Y-13938095D01*
X5993188Y-13931280D01*
X5998509Y-13930000D01*
X6181491Y-13930000D01*
X6189764Y-13933427D01*
G37*
%TD.AperFunction*%
%TD*%
%TA.AperFunction,Conductor*%
%TO.N,Net-(USB1-CC2)*%
G36*
X6311038Y-11041514D02*
G01*
X6317347Y-11047870D01*
X6317652Y-11055912D01*
X6192622Y-11441905D01*
X6186812Y-11448720D01*
X6181491Y-11450000D01*
X5998509Y-11450000D01*
X5990236Y-11446573D01*
X5987378Y-11441905D01*
X5862347Y-11055912D01*
X5863058Y-11046986D01*
X5868960Y-11041514D01*
X6085484Y-10950889D01*
X6094437Y-10950857D01*
X6311038Y-11041514D01*
G37*
%TD.AperFunction*%
%TD*%
%TA.AperFunction,Conductor*%
%TO.N,/Boot_Select*%
G36*
X44981038Y-14261514D02*
G01*
X44987347Y-14267870D01*
X44987652Y-14275912D01*
X44862622Y-14661905D01*
X44856812Y-14668720D01*
X44851491Y-14670000D01*
X44668509Y-14670000D01*
X44660236Y-14666573D01*
X44657378Y-14661905D01*
X44532347Y-14275912D01*
X44533058Y-14266986D01*
X44538960Y-14261514D01*
X44755484Y-14170889D01*
X44764437Y-14170857D01*
X44981038Y-14261514D01*
G37*
%TD.AperFunction*%
%TD*%
%TA.AperFunction,Conductor*%
%TO.N,/Boot_Select*%
G36*
X17490180Y-19417256D02*
G01*
X17496854Y-19423226D01*
X17498011Y-19428298D01*
X17498011Y-19611299D01*
X17494584Y-19619572D01*
X17489680Y-19622504D01*
X17105763Y-19737935D01*
X17096853Y-19737035D01*
X17091601Y-19731248D01*
X17000889Y-19514515D01*
X17000857Y-19505563D01*
X17091414Y-19289199D01*
X17097770Y-19282891D01*
X17106074Y-19282675D01*
X17490180Y-19417256D01*
G37*
%TD.AperFunction*%
%TD*%
%TA.AperFunction,Conductor*%
%TO.N,/USB_5V*%
G36*
X3509003Y-14199422D02*
G01*
X3512120Y-14205019D01*
X3678476Y-14913131D01*
X3677032Y-14921969D01*
X3671586Y-14926607D01*
X3269500Y-15094125D01*
X3260545Y-15094144D01*
X3260500Y-15094125D01*
X2858292Y-14926557D01*
X2851973Y-14920212D01*
X2851368Y-14913232D01*
X3007971Y-14205167D01*
X3013104Y-14197830D01*
X3019395Y-14195995D01*
X3500730Y-14195995D01*
X3509003Y-14199422D01*
G37*
%TD.AperFunction*%
%TD*%
%TA.AperFunction,Conductor*%
%TO.N,/USB_5V*%
G36*
X3666649Y-10458418D02*
G01*
X3672968Y-10464763D01*
X3673557Y-10471816D01*
X3512073Y-11180898D01*
X3506895Y-11188204D01*
X3500665Y-11190000D01*
X3019335Y-11190000D01*
X3011062Y-11186573D01*
X3007927Y-11180898D01*
X2846442Y-10471816D01*
X2847946Y-10462988D01*
X2853349Y-10458418D01*
X3255501Y-10290873D01*
X3264452Y-10290855D01*
X3666649Y-10458418D01*
G37*
%TD.AperFunction*%
%TD*%
%TA.AperFunction,Conductor*%
%TO.N,Net-(USB1-DN1)*%
G36*
X1125295Y-12451437D02*
G01*
X1127914Y-12455436D01*
X1279276Y-12841195D01*
X1279107Y-12850149D01*
X1272901Y-12856262D01*
X1057002Y-12946625D01*
X1048048Y-12946658D01*
X1047968Y-12946625D01*
X831956Y-12856215D01*
X825647Y-12849859D01*
X825536Y-12841265D01*
X972133Y-12455553D01*
X978276Y-12449037D01*
X983070Y-12448010D01*
X1117022Y-12448010D01*
X1125295Y-12451437D01*
G37*
%TD.AperFunction*%
%TD*%
%TA.AperFunction,Conductor*%
%TO.N,Net-(USB1-DN1)*%
G36*
X1270477Y-12031279D02*
G01*
X1276786Y-12037635D01*
X1276876Y-12046283D01*
X1127889Y-12432511D01*
X1121714Y-12438996D01*
X1116973Y-12440000D01*
X983027Y-12440000D01*
X974754Y-12436573D01*
X972111Y-12432511D01*
X823123Y-12046281D01*
X823343Y-12037331D01*
X829520Y-12031280D01*
X1045484Y-11940889D01*
X1054437Y-11940857D01*
X1270477Y-12031279D01*
G37*
%TD.AperFunction*%
%TD*%
M02*
