%TF.GenerationSoftware,KiCad,Pcbnew,7.0.10*%
%TF.CreationDate,2024-01-30T20:43:06+08:00*%
%TF.ProjectId,UINIO-MCU-RP2040,55494e49-4f2d-44d4-9355-2d5250323034,Version 1.0.0*%
%TF.SameCoordinates,PX73394ecPY5396ed0*%
%TF.FileFunction,Legend,Bot*%
%TF.FilePolarity,Positive*%
%FSLAX46Y46*%
G04 Gerber Fmt 4.6, Leading zero omitted, Abs format (unit mm)*
G04 Created by KiCad (PCBNEW 7.0.10) date 2024-01-30 20:43:06*
%MOMM*%
%LPD*%
G01*
G04 APERTURE LIST*
%ADD10C,0.300000*%
%ADD11C,0.325000*%
%ADD12C,0.100000*%
%ADD13C,0.650000*%
%ADD14O,2.100000X1.000000*%
%ADD15O,1.900000X1.000000*%
%ADD16R,1.700000X1.700000*%
%ADD17O,1.700000X1.700000*%
%ADD18C,2.200000*%
G04 APERTURE END LIST*
D10*
G36*
X18951616Y-9353763D02*
G01*
X18991107Y-9362876D01*
X19031927Y-9382812D01*
X19063254Y-9412240D01*
X19085088Y-9451162D01*
X19095720Y-9489134D01*
X19100276Y-9533181D01*
X19100466Y-9545143D01*
X19100466Y-10670614D01*
X19097429Y-10715951D01*
X19088315Y-10755244D01*
X19068380Y-10795859D01*
X19038952Y-10827028D01*
X19000030Y-10848752D01*
X18962058Y-10859331D01*
X18918010Y-10863865D01*
X18906049Y-10864054D01*
X18230962Y-10864054D01*
X18185624Y-10861031D01*
X18146332Y-10851964D01*
X18105717Y-10832129D01*
X18074547Y-10802848D01*
X18052823Y-10764122D01*
X18042244Y-10726341D01*
X18037710Y-10682515D01*
X18037521Y-10670614D01*
X18037521Y-9545143D01*
X18040544Y-9499576D01*
X18049612Y-9460085D01*
X18069447Y-9419265D01*
X18098727Y-9387938D01*
X18137453Y-9366104D01*
X18175234Y-9355472D01*
X18219061Y-9350915D01*
X18230962Y-9350725D01*
X18906049Y-9350725D01*
X18951616Y-9353763D01*
G37*
G36*
X27331563Y-8425290D02*
G01*
X27380993Y-8433353D01*
X27425032Y-8446791D01*
X27463677Y-8465604D01*
X27496931Y-8489793D01*
X27524791Y-8519357D01*
X27547260Y-8554296D01*
X27564336Y-8594610D01*
X27576019Y-8640300D01*
X27582311Y-8691365D01*
X27583509Y-8728394D01*
X27583509Y-10529930D01*
X27580813Y-10584578D01*
X27572724Y-10633851D01*
X27559243Y-10677749D01*
X27540370Y-10716272D01*
X27516104Y-10749419D01*
X27486445Y-10777191D01*
X27451395Y-10799588D01*
X27410951Y-10816610D01*
X27365116Y-10828256D01*
X27313888Y-10834527D01*
X27276740Y-10835722D01*
X26320285Y-10835722D01*
X26265462Y-10833034D01*
X26216031Y-10824971D01*
X26171993Y-10811533D01*
X26133348Y-10792720D01*
X26100094Y-10768531D01*
X26072233Y-10738967D01*
X26049765Y-10704028D01*
X26032689Y-10663714D01*
X26021005Y-10618024D01*
X26014714Y-10566959D01*
X26013516Y-10529930D01*
X26013516Y-8728394D01*
X26016212Y-8673746D01*
X26024301Y-8624473D01*
X26037782Y-8580575D01*
X26056655Y-8542052D01*
X26080921Y-8508905D01*
X26110580Y-8481133D01*
X26145630Y-8458736D01*
X26186073Y-8441714D01*
X26231909Y-8430068D01*
X26283137Y-8423797D01*
X26320285Y-8422602D01*
X27276740Y-8422602D01*
X27331563Y-8425290D01*
G37*
G36*
X40977687Y-12258093D02*
G01*
X11233015Y-12258093D01*
X11233015Y-11630000D01*
X11804444Y-11630000D01*
X12851757Y-11630000D01*
X12851757Y-9572498D01*
X12856432Y-9530309D01*
X12870457Y-9492890D01*
X12893832Y-9460241D01*
X12899629Y-9454284D01*
X12931323Y-9429555D01*
X12967788Y-9413984D01*
X13009023Y-9407573D01*
X13017842Y-9407390D01*
X13046175Y-9407390D01*
X13093917Y-9408308D01*
X13143719Y-9411065D01*
X13195583Y-9415659D01*
X13249507Y-9422090D01*
X13305492Y-9430359D01*
X13363538Y-9440465D01*
X13403380Y-9448224D01*
X13444138Y-9456799D01*
X13485812Y-9466191D01*
X13528402Y-9476400D01*
X13571907Y-9487425D01*
X13616329Y-9499267D01*
X13661667Y-9511926D01*
X13661667Y-11630000D01*
X14708980Y-11630000D01*
X14708980Y-9572498D01*
X14713560Y-9530309D01*
X14727298Y-9492890D01*
X14750196Y-9460241D01*
X14755875Y-9454284D01*
X14787664Y-9429555D01*
X14824415Y-9413984D01*
X14866127Y-9407573D01*
X14875065Y-9407390D01*
X14903397Y-9407390D01*
X14951139Y-9408308D01*
X15000942Y-9411065D01*
X15052805Y-9415659D01*
X15106729Y-9422090D01*
X15162714Y-9430359D01*
X15220760Y-9440465D01*
X15260602Y-9448224D01*
X15301360Y-9456799D01*
X15343034Y-9466191D01*
X15385624Y-9476400D01*
X15429130Y-9487425D01*
X15473552Y-9499267D01*
X15518889Y-9511926D01*
X15518889Y-11630000D01*
X16566203Y-11630000D01*
X16566203Y-10754633D01*
X16990208Y-10754633D01*
X16991177Y-10808252D01*
X16994086Y-10860421D01*
X16998932Y-10911139D01*
X17005718Y-10960408D01*
X17014442Y-11008226D01*
X17025104Y-11054594D01*
X17037706Y-11099512D01*
X17052246Y-11142979D01*
X17068725Y-11184997D01*
X17087142Y-11225564D01*
X17107498Y-11264681D01*
X17129793Y-11302348D01*
X17154026Y-11338564D01*
X17180199Y-11373331D01*
X17208309Y-11406647D01*
X17238359Y-11438513D01*
X17270107Y-11468563D01*
X17303312Y-11496673D01*
X17337976Y-11522846D01*
X17374097Y-11547079D01*
X17411676Y-11569374D01*
X17450713Y-11589730D01*
X17491207Y-11608147D01*
X17533160Y-11624626D01*
X17576570Y-11639166D01*
X17621439Y-11651768D01*
X17667765Y-11662430D01*
X17715548Y-11671154D01*
X17764790Y-11677940D01*
X17815489Y-11682786D01*
X17867647Y-11685695D01*
X17921262Y-11686664D01*
X19215749Y-11686664D01*
X19269368Y-11685695D01*
X19321537Y-11682786D01*
X19372255Y-11677940D01*
X19421524Y-11671154D01*
X19469342Y-11662430D01*
X19515710Y-11651768D01*
X19560628Y-11639166D01*
X19604095Y-11624626D01*
X19646113Y-11608147D01*
X19686680Y-11589730D01*
X19725797Y-11569374D01*
X19763464Y-11547079D01*
X19799680Y-11522846D01*
X19834447Y-11496673D01*
X19867763Y-11468563D01*
X19899629Y-11438513D01*
X19929678Y-11406647D01*
X19957789Y-11373331D01*
X19983961Y-11338564D01*
X20008195Y-11302348D01*
X20030490Y-11264681D01*
X20050846Y-11225564D01*
X20069263Y-11184997D01*
X20085742Y-11142979D01*
X20100282Y-11099512D01*
X20112883Y-11054594D01*
X20123546Y-11008226D01*
X20132270Y-10960408D01*
X20139056Y-10911139D01*
X20143902Y-10860421D01*
X20146810Y-10808252D01*
X20147780Y-10754633D01*
X20147780Y-9460146D01*
X20146810Y-9406531D01*
X20143902Y-9354374D01*
X20139056Y-9303674D01*
X20132270Y-9254433D01*
X20123546Y-9206649D01*
X20112883Y-9160323D01*
X20100282Y-9115455D01*
X20085742Y-9072044D01*
X20069263Y-9030092D01*
X20050846Y-8989597D01*
X20030490Y-8950560D01*
X20008195Y-8912981D01*
X19983961Y-8876860D01*
X19957789Y-8842196D01*
X19929678Y-8808991D01*
X19899629Y-8777243D01*
X19867763Y-8747194D01*
X19834447Y-8719083D01*
X19799680Y-8692911D01*
X19763464Y-8668677D01*
X19725797Y-8646382D01*
X19686680Y-8626026D01*
X19646113Y-8607609D01*
X19604095Y-8591130D01*
X19585112Y-8584780D01*
X20463341Y-8584780D01*
X20463341Y-9407390D01*
X21985463Y-9407390D01*
X22031029Y-9410412D01*
X22070520Y-9419480D01*
X22111340Y-9439315D01*
X22142667Y-9468595D01*
X22164501Y-9507321D01*
X22175134Y-9545102D01*
X22179690Y-9588929D01*
X22179880Y-9600830D01*
X22179880Y-10697969D01*
X22175301Y-10740673D01*
X22161562Y-10778416D01*
X22138664Y-10811198D01*
X22132986Y-10817159D01*
X22100776Y-10841889D01*
X22063987Y-10857459D01*
X22022618Y-10863871D01*
X22013795Y-10864054D01*
X21948548Y-10863714D01*
X21879080Y-10862695D01*
X21805391Y-10860997D01*
X21727481Y-10858620D01*
X21686944Y-10857176D01*
X21645351Y-10855563D01*
X21602703Y-10853780D01*
X21559000Y-10851827D01*
X21514241Y-10849704D01*
X21468427Y-10847411D01*
X21421559Y-10844949D01*
X21373635Y-10842316D01*
X21324655Y-10839514D01*
X21274621Y-10836542D01*
X21223531Y-10833400D01*
X21171386Y-10830089D01*
X21118186Y-10826607D01*
X21063931Y-10822956D01*
X21008620Y-10819135D01*
X20952255Y-10815144D01*
X20894834Y-10810984D01*
X20836358Y-10806653D01*
X20776826Y-10802153D01*
X20716240Y-10797482D01*
X20654598Y-10792642D01*
X20591901Y-10787633D01*
X20528149Y-10782453D01*
X20463341Y-10777103D01*
X20463341Y-11570404D01*
X20530668Y-11577557D01*
X20597457Y-11584483D01*
X20663711Y-11591181D01*
X20729429Y-11597653D01*
X20794610Y-11603897D01*
X20859255Y-11609914D01*
X20923364Y-11615705D01*
X20986937Y-11621268D01*
X21049974Y-11626604D01*
X21112474Y-11631713D01*
X21174438Y-11636595D01*
X21235866Y-11641250D01*
X21296758Y-11645678D01*
X21357114Y-11649879D01*
X21416933Y-11653852D01*
X21476217Y-11657599D01*
X21534964Y-11661119D01*
X21593175Y-11664411D01*
X21650849Y-11667476D01*
X21707988Y-11670315D01*
X21764590Y-11672926D01*
X21820656Y-11675310D01*
X21876186Y-11677468D01*
X21931180Y-11679398D01*
X21985637Y-11681101D01*
X22039559Y-11682577D01*
X22092944Y-11683825D01*
X22145793Y-11684847D01*
X22198106Y-11685642D01*
X22249882Y-11686210D01*
X22301123Y-11686550D01*
X22351827Y-11686664D01*
X22400561Y-11685725D01*
X22448089Y-11682909D01*
X22494412Y-11678215D01*
X22539528Y-11671643D01*
X22583438Y-11663194D01*
X22626142Y-11652867D01*
X22667641Y-11640662D01*
X22707933Y-11626580D01*
X22747020Y-11610620D01*
X22784900Y-11592783D01*
X22821575Y-11573068D01*
X22857043Y-11551475D01*
X22891306Y-11528005D01*
X22924363Y-11502657D01*
X22956214Y-11475432D01*
X22986859Y-11446329D01*
X23015962Y-11415684D01*
X23043187Y-11383833D01*
X23068535Y-11350776D01*
X23092005Y-11316514D01*
X23113598Y-11281045D01*
X23133313Y-11244371D01*
X23151150Y-11206490D01*
X23167110Y-11167404D01*
X23181192Y-11127111D01*
X23193396Y-11085613D01*
X23203723Y-11042908D01*
X23212173Y-10998998D01*
X23218744Y-10953882D01*
X23223438Y-10907560D01*
X23226255Y-10860032D01*
X23227194Y-10811297D01*
X23227194Y-10723370D01*
X23551548Y-10723370D01*
X23551548Y-11630000D01*
X24627194Y-11630000D01*
X24627194Y-10723370D01*
X23551548Y-10723370D01*
X23227194Y-10723370D01*
X23227194Y-10529930D01*
X24938847Y-10529930D01*
X24939927Y-10604008D01*
X24943167Y-10675544D01*
X24948567Y-10744539D01*
X24956128Y-10810992D01*
X24965848Y-10874904D01*
X24977728Y-10936273D01*
X24991768Y-10995102D01*
X25007968Y-11051388D01*
X25026328Y-11105133D01*
X25046849Y-11156336D01*
X25069529Y-11204998D01*
X25094369Y-11251118D01*
X25121369Y-11294696D01*
X25150530Y-11335733D01*
X25181850Y-11374228D01*
X25215330Y-11410181D01*
X25251169Y-11443661D01*
X25289565Y-11474982D01*
X25330517Y-11504142D01*
X25374027Y-11531142D01*
X25420094Y-11555982D01*
X25468717Y-11578663D01*
X25519897Y-11599183D01*
X25573635Y-11617543D01*
X25629929Y-11633743D01*
X25688780Y-11647783D01*
X25750188Y-11659664D01*
X25814153Y-11669384D01*
X25880675Y-11676944D01*
X25949753Y-11682344D01*
X26021389Y-11685584D01*
X26095581Y-11686664D01*
X27502420Y-11686664D01*
X27576498Y-11685584D01*
X27648035Y-11682344D01*
X27717030Y-11676944D01*
X27783483Y-11669384D01*
X27847394Y-11659664D01*
X27908764Y-11647783D01*
X27967592Y-11633743D01*
X28023879Y-11617543D01*
X28077624Y-11599183D01*
X28128827Y-11578663D01*
X28177488Y-11555982D01*
X28223608Y-11531142D01*
X28267187Y-11504142D01*
X28308223Y-11474982D01*
X28346718Y-11443661D01*
X28382672Y-11410181D01*
X28416152Y-11374228D01*
X28447472Y-11335733D01*
X28476633Y-11294696D01*
X28503633Y-11251118D01*
X28528473Y-11204998D01*
X28551153Y-11156336D01*
X28571674Y-11105133D01*
X28590034Y-11051388D01*
X28606234Y-10995102D01*
X28620274Y-10936273D01*
X28632154Y-10874904D01*
X28641874Y-10810992D01*
X28649434Y-10744539D01*
X28654834Y-10675544D01*
X28658074Y-10604008D01*
X28659154Y-10529930D01*
X28659154Y-8728394D01*
X28658074Y-8654320D01*
X28654834Y-8582795D01*
X28649434Y-8513820D01*
X28641874Y-8447393D01*
X28632154Y-8383516D01*
X28620274Y-8322188D01*
X28606234Y-8263410D01*
X28590034Y-8207180D01*
X28571674Y-8153500D01*
X28551153Y-8102370D01*
X28528473Y-8053788D01*
X28503633Y-8007756D01*
X28476633Y-7964273D01*
X28447472Y-7923340D01*
X28416152Y-7884955D01*
X28382672Y-7849120D01*
X28346718Y-7815522D01*
X28308223Y-7784091D01*
X28267187Y-7754827D01*
X28223608Y-7727732D01*
X28177488Y-7702803D01*
X28128827Y-7680043D01*
X28077624Y-7659450D01*
X28023879Y-7641025D01*
X27979907Y-7628325D01*
X28975693Y-7628325D01*
X28975693Y-8478290D01*
X29481764Y-8478290D01*
X29481764Y-10780034D01*
X28975693Y-10780034D01*
X28975693Y-11630000D01*
X31063481Y-11630000D01*
X31375135Y-11630000D01*
X32422448Y-11630000D01*
X32422448Y-9572498D01*
X32427028Y-9530309D01*
X32440766Y-9492890D01*
X32463664Y-9460241D01*
X32469343Y-9454284D01*
X32501037Y-9429555D01*
X32537502Y-9413984D01*
X32578737Y-9407573D01*
X32587556Y-9407390D01*
X32784905Y-9407390D01*
X32840366Y-9408308D01*
X32896840Y-9411065D01*
X32954328Y-9415659D01*
X32993216Y-9419742D01*
X33032554Y-9424642D01*
X33072343Y-9430359D01*
X33112582Y-9436892D01*
X33153271Y-9444243D01*
X33194411Y-9452409D01*
X33236001Y-9461393D01*
X33278041Y-9471193D01*
X33320532Y-9481810D01*
X33363473Y-9493244D01*
X33406864Y-9505494D01*
X33428729Y-9511926D01*
X33428729Y-11630000D01*
X34476042Y-11630000D01*
X34476042Y-8697131D01*
X34965505Y-8697131D01*
X34965505Y-11630000D01*
X36012818Y-11630000D01*
X36012818Y-9519741D01*
X36434870Y-9519741D01*
X36434870Y-8697131D01*
X34965505Y-8697131D01*
X34476042Y-8697131D01*
X34476042Y-8584780D01*
X33546942Y-8584780D01*
X33495163Y-8845631D01*
X33451651Y-8818013D01*
X33407212Y-8791581D01*
X33361846Y-8766333D01*
X33315553Y-8742271D01*
X33268332Y-8719393D01*
X33220184Y-8697700D01*
X33171108Y-8677192D01*
X33121105Y-8657869D01*
X33070175Y-8639731D01*
X33018317Y-8622779D01*
X32983230Y-8612135D01*
X32930871Y-8597294D01*
X32880041Y-8583913D01*
X32830739Y-8571992D01*
X32782966Y-8561531D01*
X32736721Y-8552529D01*
X32692005Y-8544987D01*
X32648816Y-8538905D01*
X32607157Y-8534282D01*
X32567026Y-8531120D01*
X32515895Y-8529173D01*
X32503537Y-8529092D01*
X32250501Y-8529092D01*
X32201653Y-8530031D01*
X32154025Y-8532848D01*
X32107619Y-8537542D01*
X32062434Y-8544113D01*
X32018471Y-8552563D01*
X31975728Y-8562889D01*
X31934207Y-8575094D01*
X31893907Y-8589176D01*
X31854828Y-8605136D01*
X31816970Y-8622973D01*
X31780334Y-8642688D01*
X31744919Y-8664281D01*
X31710725Y-8687751D01*
X31677752Y-8713099D01*
X31646000Y-8740324D01*
X31615470Y-8769427D01*
X31586367Y-8799958D01*
X31559141Y-8831709D01*
X31533794Y-8864682D01*
X31510323Y-8898876D01*
X31488731Y-8934291D01*
X31469016Y-8970928D01*
X31451178Y-9008785D01*
X31435219Y-9047864D01*
X31421136Y-9088164D01*
X31408932Y-9129685D01*
X31398605Y-9172428D01*
X31390156Y-9216392D01*
X31383584Y-9261577D01*
X31378890Y-9307983D01*
X31376074Y-9355610D01*
X31375135Y-9404459D01*
X31375135Y-11630000D01*
X31063481Y-11630000D01*
X31063481Y-10780034D01*
X30557410Y-10780034D01*
X30557410Y-8478290D01*
X31063481Y-8478290D01*
X31063481Y-7628325D01*
X28975693Y-7628325D01*
X27979907Y-7628325D01*
X27967592Y-7624768D01*
X27908764Y-7610678D01*
X27847394Y-7598756D01*
X27783483Y-7589002D01*
X27717030Y-7581415D01*
X27648035Y-7575996D01*
X27576498Y-7572744D01*
X27502420Y-7571660D01*
X34965505Y-7571660D01*
X34965505Y-8422602D01*
X36012818Y-8422602D01*
X36012818Y-7628325D01*
X36799280Y-7628325D01*
X36799280Y-10529930D01*
X36800360Y-10604008D01*
X36803600Y-10675544D01*
X36809000Y-10744539D01*
X36816560Y-10810992D01*
X36826280Y-10874904D01*
X36838160Y-10936273D01*
X36852201Y-10995102D01*
X36868401Y-11051388D01*
X36886761Y-11105133D01*
X36907281Y-11156336D01*
X36929961Y-11204998D01*
X36954802Y-11251118D01*
X36981802Y-11294696D01*
X37010962Y-11335733D01*
X37042283Y-11374228D01*
X37075763Y-11410181D01*
X37111602Y-11443661D01*
X37149997Y-11474982D01*
X37190950Y-11504142D01*
X37234460Y-11531142D01*
X37280526Y-11555982D01*
X37329150Y-11578663D01*
X37380330Y-11599183D01*
X37434067Y-11617543D01*
X37490361Y-11633743D01*
X37549212Y-11647783D01*
X37610620Y-11659664D01*
X37674585Y-11669384D01*
X37741107Y-11676944D01*
X37810186Y-11682344D01*
X37881822Y-11685584D01*
X37956014Y-11686664D01*
X39249524Y-11686664D01*
X39323717Y-11685584D01*
X39395353Y-11682344D01*
X39464431Y-11676944D01*
X39530953Y-11669384D01*
X39594918Y-11659664D01*
X39656326Y-11647783D01*
X39715177Y-11633743D01*
X39771471Y-11617543D01*
X39825208Y-11599183D01*
X39876389Y-11578663D01*
X39925012Y-11555982D01*
X39971079Y-11531142D01*
X40014588Y-11504142D01*
X40055541Y-11474982D01*
X40093937Y-11443661D01*
X40129775Y-11410181D01*
X40163256Y-11374228D01*
X40194576Y-11335733D01*
X40223736Y-11294696D01*
X40250737Y-11251118D01*
X40275577Y-11204998D01*
X40298257Y-11156336D01*
X40318777Y-11105133D01*
X40337138Y-11051388D01*
X40353338Y-10995102D01*
X40367378Y-10936273D01*
X40379258Y-10874904D01*
X40388978Y-10810992D01*
X40396538Y-10744539D01*
X40401938Y-10675544D01*
X40405178Y-10604008D01*
X40406258Y-10529930D01*
X40406258Y-7628325D01*
X39331590Y-7628325D01*
X39331590Y-10529930D01*
X39328894Y-10584578D01*
X39320805Y-10633851D01*
X39307324Y-10677749D01*
X39288450Y-10716272D01*
X39264185Y-10749419D01*
X39234526Y-10777191D01*
X39199475Y-10799588D01*
X39159032Y-10816610D01*
X39113197Y-10828256D01*
X39061969Y-10834527D01*
X39024821Y-10835722D01*
X38180718Y-10835722D01*
X38125895Y-10833034D01*
X38076464Y-10824971D01*
X38032426Y-10811533D01*
X37993780Y-10792720D01*
X37960527Y-10768531D01*
X37932666Y-10738967D01*
X37910198Y-10704028D01*
X37893122Y-10663714D01*
X37881438Y-10618024D01*
X37875147Y-10566959D01*
X37873949Y-10529930D01*
X37873949Y-7628325D01*
X36799280Y-7628325D01*
X36012818Y-7628325D01*
X36012818Y-7571660D01*
X34965505Y-7571660D01*
X27502420Y-7571660D01*
X26095581Y-7571660D01*
X26021389Y-7572744D01*
X25949753Y-7575996D01*
X25880675Y-7581415D01*
X25814153Y-7589002D01*
X25750188Y-7598756D01*
X25688780Y-7610678D01*
X25629929Y-7624768D01*
X25573635Y-7641025D01*
X25519897Y-7659450D01*
X25468717Y-7680043D01*
X25420094Y-7702803D01*
X25374027Y-7727732D01*
X25330517Y-7754827D01*
X25289565Y-7784091D01*
X25251169Y-7815522D01*
X25215330Y-7849120D01*
X25181850Y-7884955D01*
X25150530Y-7923340D01*
X25121369Y-7964273D01*
X25094369Y-8007756D01*
X25069529Y-8053788D01*
X25046849Y-8102370D01*
X25026328Y-8153500D01*
X25007968Y-8207180D01*
X24991768Y-8263410D01*
X24977728Y-8322188D01*
X24965848Y-8383516D01*
X24956128Y-8447393D01*
X24948567Y-8513820D01*
X24943167Y-8582795D01*
X24939927Y-8654320D01*
X24938847Y-8728394D01*
X24938847Y-10529930D01*
X23227194Y-10529930D01*
X23227194Y-9516810D01*
X23226224Y-9463195D01*
X23223316Y-9411038D01*
X23218469Y-9360338D01*
X23211684Y-9311097D01*
X23202960Y-9263313D01*
X23192297Y-9216987D01*
X23179696Y-9172119D01*
X23165156Y-9128709D01*
X23148677Y-9086756D01*
X23130260Y-9046261D01*
X23109904Y-9007224D01*
X23087609Y-8969645D01*
X23063375Y-8933524D01*
X23037203Y-8898861D01*
X23009092Y-8865655D01*
X22979043Y-8833907D01*
X22947177Y-8803740D01*
X22913860Y-8775518D01*
X22879094Y-8749243D01*
X22842877Y-8724914D01*
X22805211Y-8702531D01*
X22766094Y-8682095D01*
X22725526Y-8663605D01*
X22683509Y-8647062D01*
X22640041Y-8632464D01*
X22595124Y-8619813D01*
X22548756Y-8609109D01*
X22500937Y-8600350D01*
X22451669Y-8593538D01*
X22400950Y-8588672D01*
X22348782Y-8585753D01*
X22295163Y-8584780D01*
X20463341Y-8584780D01*
X19585112Y-8584780D01*
X19560628Y-8576590D01*
X19515710Y-8563989D01*
X19469342Y-8553326D01*
X19421524Y-8544602D01*
X19372255Y-8537816D01*
X19321537Y-8532970D01*
X19269368Y-8530062D01*
X19215749Y-8529092D01*
X17921262Y-8529092D01*
X17867647Y-8530062D01*
X17815489Y-8532970D01*
X17764790Y-8537816D01*
X17715548Y-8544602D01*
X17667765Y-8553326D01*
X17621439Y-8563989D01*
X17576570Y-8576590D01*
X17533160Y-8591130D01*
X17491207Y-8607609D01*
X17450713Y-8626026D01*
X17411676Y-8646382D01*
X17374097Y-8668677D01*
X17337976Y-8692911D01*
X17303312Y-8719083D01*
X17270107Y-8747194D01*
X17238359Y-8777243D01*
X17208309Y-8808991D01*
X17180199Y-8842196D01*
X17154026Y-8876860D01*
X17129793Y-8912981D01*
X17107498Y-8950560D01*
X17087142Y-8989597D01*
X17068725Y-9030092D01*
X17052246Y-9072044D01*
X17037706Y-9115455D01*
X17025104Y-9160323D01*
X17014442Y-9206649D01*
X17005718Y-9254433D01*
X16998932Y-9303674D01*
X16994086Y-9354374D01*
X16991177Y-9406531D01*
X16990208Y-9460146D01*
X16990208Y-10670614D01*
X16990208Y-10754633D01*
X16566203Y-10754633D01*
X16566203Y-8584780D01*
X15637103Y-8584780D01*
X15585323Y-8845631D01*
X15541812Y-8818013D01*
X15497373Y-8791581D01*
X15452007Y-8766333D01*
X15405713Y-8742271D01*
X15358492Y-8719393D01*
X15310344Y-8697700D01*
X15261268Y-8677192D01*
X15211265Y-8657869D01*
X15160335Y-8639731D01*
X15108477Y-8622779D01*
X15073390Y-8612135D01*
X15021032Y-8597294D01*
X14970202Y-8583913D01*
X14920900Y-8571992D01*
X14873126Y-8561531D01*
X14826882Y-8552529D01*
X14782165Y-8544987D01*
X14738977Y-8538905D01*
X14697317Y-8534282D01*
X14657186Y-8531120D01*
X14606055Y-8529173D01*
X14593697Y-8529092D01*
X14537033Y-8529092D01*
X14479071Y-8530363D01*
X14422911Y-8534176D01*
X14368551Y-8540530D01*
X14315993Y-8549426D01*
X14265237Y-8560863D01*
X14216281Y-8574842D01*
X14169127Y-8591363D01*
X14123774Y-8610425D01*
X14080223Y-8632029D01*
X14038472Y-8656175D01*
X13998523Y-8682862D01*
X13960376Y-8712091D01*
X13924029Y-8743862D01*
X13889484Y-8778174D01*
X13856740Y-8815028D01*
X13825798Y-8854424D01*
X13780517Y-8825069D01*
X13734069Y-8797088D01*
X13686453Y-8770481D01*
X13637670Y-8745247D01*
X13587718Y-8721388D01*
X13536599Y-8698902D01*
X13484312Y-8677790D01*
X13430857Y-8658053D01*
X13376235Y-8639689D01*
X13320444Y-8622698D01*
X13282602Y-8612135D01*
X13244633Y-8602079D01*
X13188640Y-8588211D01*
X13133797Y-8575804D01*
X13080104Y-8564856D01*
X13027563Y-8555367D01*
X12976171Y-8547339D01*
X12925931Y-8540770D01*
X12876841Y-8535661D01*
X12828902Y-8532012D01*
X12782113Y-8529822D01*
X12736475Y-8529092D01*
X12679810Y-8529092D01*
X12631076Y-8530031D01*
X12583548Y-8532848D01*
X12537226Y-8537542D01*
X12492110Y-8544113D01*
X12448199Y-8552563D01*
X12405495Y-8562889D01*
X12363997Y-8575094D01*
X12323704Y-8589176D01*
X12284618Y-8605136D01*
X12246737Y-8622973D01*
X12210063Y-8642688D01*
X12174594Y-8664281D01*
X12140331Y-8687751D01*
X12107275Y-8713099D01*
X12075424Y-8740324D01*
X12044779Y-8769427D01*
X12015676Y-8799958D01*
X11988450Y-8831709D01*
X11963103Y-8864682D01*
X11939632Y-8898876D01*
X11918040Y-8934291D01*
X11898325Y-8970928D01*
X11880488Y-9008785D01*
X11864528Y-9047864D01*
X11850446Y-9088164D01*
X11838241Y-9129685D01*
X11827914Y-9172428D01*
X11819465Y-9216392D01*
X11812893Y-9261577D01*
X11808199Y-9307983D01*
X11805383Y-9355610D01*
X11804444Y-9404459D01*
X11804444Y-11630000D01*
X11233015Y-11630000D01*
X11233015Y-7000231D01*
X40977687Y-7000231D01*
X40977687Y-12258093D01*
G37*
D11*
G36*
X32190785Y-19131699D02*
G01*
X31832114Y-18097819D01*
X31420687Y-18097819D01*
X31979759Y-19575000D01*
X32401810Y-19575000D01*
X32961249Y-18097819D01*
X32549455Y-18097819D01*
X32190785Y-19131699D01*
G37*
G36*
X31110109Y-18435957D02*
G01*
X31129090Y-18437009D01*
X31147535Y-18438762D01*
X31165445Y-18441217D01*
X31182821Y-18444372D01*
X31199660Y-18448229D01*
X31215965Y-18452787D01*
X31231734Y-18458046D01*
X31246969Y-18464007D01*
X31261668Y-18470669D01*
X31275831Y-18478032D01*
X31289460Y-18486096D01*
X31302553Y-18494862D01*
X31315111Y-18504329D01*
X31327134Y-18514497D01*
X31338621Y-18525366D01*
X31349491Y-18536809D01*
X31359659Y-18548790D01*
X31369125Y-18561310D01*
X31377891Y-18574367D01*
X31385955Y-18587963D01*
X31393318Y-18602096D01*
X31399980Y-18616768D01*
X31405941Y-18631978D01*
X31411200Y-18647726D01*
X31415758Y-18664012D01*
X31419615Y-18680836D01*
X31422771Y-18698198D01*
X31425225Y-18716099D01*
X31426978Y-18734537D01*
X31428030Y-18753513D01*
X31428381Y-18773028D01*
X31428381Y-19279710D01*
X31428043Y-19297396D01*
X31427030Y-19314640D01*
X31425341Y-19331445D01*
X31422977Y-19347808D01*
X31419937Y-19363730D01*
X31416222Y-19379212D01*
X31411831Y-19394253D01*
X31406765Y-19408853D01*
X31401023Y-19423013D01*
X31394606Y-19436731D01*
X31387514Y-19450009D01*
X31379746Y-19462846D01*
X31371302Y-19475243D01*
X31362183Y-19487198D01*
X31352389Y-19498713D01*
X31341919Y-19509787D01*
X31330845Y-19520257D01*
X31319330Y-19530051D01*
X31307374Y-19539170D01*
X31294978Y-19547614D01*
X31282141Y-19555382D01*
X31268863Y-19562474D01*
X31255145Y-19568892D01*
X31240985Y-19574633D01*
X31226385Y-19579699D01*
X31211344Y-19584090D01*
X31195862Y-19587805D01*
X31179940Y-19590845D01*
X31163576Y-19593209D01*
X31146772Y-19594898D01*
X31129527Y-19595911D01*
X31111842Y-19596249D01*
X31091046Y-19596207D01*
X31070102Y-19596083D01*
X31049011Y-19595875D01*
X31027773Y-19595585D01*
X31006387Y-19595211D01*
X30984854Y-19594755D01*
X30963173Y-19594215D01*
X30941345Y-19593592D01*
X30919370Y-19592887D01*
X30897247Y-19592098D01*
X30874977Y-19591227D01*
X30852559Y-19590272D01*
X30829994Y-19589235D01*
X30807281Y-19588114D01*
X30784422Y-19586911D01*
X30761414Y-19585624D01*
X30738260Y-19584254D01*
X30714958Y-19582802D01*
X30691508Y-19581266D01*
X30667911Y-19579648D01*
X30644167Y-19577946D01*
X30620275Y-19576162D01*
X30596236Y-19574294D01*
X30572050Y-19572343D01*
X30547716Y-19570310D01*
X30523235Y-19568193D01*
X30498606Y-19565994D01*
X30473830Y-19563711D01*
X30448906Y-19561345D01*
X30423835Y-19558897D01*
X30398617Y-19556365D01*
X30373251Y-19553750D01*
X30373251Y-19289968D01*
X30398249Y-19291929D01*
X30422868Y-19293828D01*
X30447107Y-19295664D01*
X30470968Y-19297438D01*
X30494449Y-19299150D01*
X30517550Y-19300800D01*
X30540273Y-19302388D01*
X30562616Y-19303913D01*
X30584580Y-19305376D01*
X30606165Y-19306776D01*
X30627370Y-19308115D01*
X30648196Y-19309391D01*
X30668643Y-19310605D01*
X30688711Y-19311757D01*
X30708400Y-19312846D01*
X30727709Y-19313873D01*
X30746639Y-19314838D01*
X30765190Y-19315741D01*
X30783361Y-19316581D01*
X30801153Y-19317360D01*
X30818566Y-19318075D01*
X30835600Y-19318729D01*
X30852255Y-19319321D01*
X30868530Y-19319850D01*
X30884426Y-19320317D01*
X30899943Y-19320721D01*
X30915081Y-19321064D01*
X30929839Y-19321344D01*
X30958218Y-19321717D01*
X30985080Y-19321842D01*
X30994675Y-19321332D01*
X31010685Y-19317845D01*
X31025072Y-19311054D01*
X31037836Y-19300959D01*
X31045058Y-19292617D01*
X31053088Y-19278703D01*
X31057757Y-19263109D01*
X31059085Y-19247836D01*
X31059085Y-19163572D01*
X30330753Y-19163572D01*
X30330753Y-18899790D01*
X30700048Y-18899790D01*
X31059085Y-18899790D01*
X31059085Y-18783653D01*
X31059003Y-18778468D01*
X31057019Y-18759377D01*
X31052391Y-18742920D01*
X31045118Y-18729095D01*
X31035200Y-18717904D01*
X31022638Y-18709346D01*
X31007431Y-18703421D01*
X30989580Y-18700129D01*
X30974455Y-18699389D01*
X30784678Y-18699389D01*
X30779472Y-18699471D01*
X30760298Y-18701446D01*
X30743768Y-18706054D01*
X30729884Y-18713296D01*
X30718644Y-18723170D01*
X30710049Y-18735678D01*
X30704098Y-18750819D01*
X30700792Y-18768594D01*
X30700048Y-18783653D01*
X30700048Y-18899790D01*
X30330753Y-18899790D01*
X30330753Y-18773028D01*
X30331104Y-18753513D01*
X30332156Y-18734537D01*
X30333909Y-18716099D01*
X30336363Y-18698198D01*
X30339519Y-18680836D01*
X30343376Y-18664012D01*
X30347934Y-18647726D01*
X30353193Y-18631978D01*
X30359154Y-18616768D01*
X30365815Y-18602096D01*
X30373178Y-18587963D01*
X30381243Y-18574367D01*
X30390008Y-18561310D01*
X30399475Y-18548790D01*
X30409643Y-18536809D01*
X30420512Y-18525366D01*
X30432000Y-18514497D01*
X30444023Y-18504329D01*
X30456581Y-18494862D01*
X30469674Y-18486096D01*
X30483302Y-18478032D01*
X30497466Y-18470669D01*
X30512165Y-18464007D01*
X30527399Y-18458046D01*
X30543169Y-18452787D01*
X30559473Y-18448229D01*
X30576313Y-18444372D01*
X30593688Y-18441217D01*
X30611599Y-18438762D01*
X30630044Y-18437009D01*
X30649025Y-18435957D01*
X30668541Y-18435607D01*
X31090593Y-18435607D01*
X31110109Y-18435957D01*
G37*
G36*
X29504602Y-18762404D02*
G01*
X29521258Y-18762651D01*
X29537981Y-18763394D01*
X29554769Y-18764632D01*
X29571623Y-18766365D01*
X29588544Y-18768593D01*
X29605529Y-18771317D01*
X29622581Y-18774535D01*
X29639699Y-18778249D01*
X29656882Y-18782458D01*
X29674131Y-18787162D01*
X29691446Y-18792361D01*
X29708827Y-18798055D01*
X29726274Y-18804245D01*
X29743786Y-18810930D01*
X29761364Y-18818110D01*
X29779009Y-18825785D01*
X29779009Y-19575000D01*
X30148304Y-19575000D01*
X30148304Y-18456489D01*
X29821140Y-18456489D01*
X29800258Y-18593876D01*
X29788884Y-18584139D01*
X29777479Y-18574711D01*
X29754571Y-18556782D01*
X29731534Y-18540089D01*
X29708369Y-18524633D01*
X29685075Y-18510414D01*
X29661652Y-18497431D01*
X29638100Y-18485684D01*
X29614419Y-18475174D01*
X29590610Y-18465900D01*
X29566672Y-18457863D01*
X29542605Y-18451063D01*
X29518409Y-18445498D01*
X29494085Y-18441171D01*
X29469631Y-18438080D01*
X29445049Y-18436225D01*
X29420338Y-18435607D01*
X29325450Y-18435607D01*
X29325450Y-18762404D01*
X29504602Y-18762404D01*
G37*
G36*
X29224699Y-19279710D02*
G01*
X29198109Y-19281648D01*
X29171873Y-19283525D01*
X29145991Y-19285341D01*
X29120463Y-19287094D01*
X29095289Y-19288787D01*
X29070470Y-19290417D01*
X29046005Y-19291987D01*
X29021894Y-19293494D01*
X28998137Y-19294940D01*
X28974735Y-19296325D01*
X28951686Y-19297648D01*
X28928992Y-19298910D01*
X28906652Y-19300110D01*
X28884666Y-19301248D01*
X28863035Y-19302325D01*
X28841757Y-19303340D01*
X28820834Y-19304294D01*
X28800265Y-19305187D01*
X28780050Y-19306017D01*
X28760190Y-19306787D01*
X28740683Y-19307494D01*
X28721531Y-19308140D01*
X28702733Y-19308725D01*
X28684289Y-19309248D01*
X28666200Y-19309710D01*
X28648464Y-19310110D01*
X28631083Y-19310448D01*
X28614056Y-19310725D01*
X28597383Y-19310940D01*
X28581065Y-19311094D01*
X28565100Y-19311186D01*
X28549490Y-19311217D01*
X28534378Y-19309912D01*
X28518909Y-19305324D01*
X28505063Y-19297431D01*
X28496734Y-19290334D01*
X28486462Y-19277541D01*
X28479552Y-19263068D01*
X28476232Y-19248791D01*
X28475484Y-19237212D01*
X28475484Y-19163572D01*
X28929410Y-19163572D01*
X28947095Y-19163235D01*
X28964340Y-19162221D01*
X28981144Y-19160533D01*
X28997508Y-19158169D01*
X29013430Y-19155129D01*
X29028912Y-19151414D01*
X29043953Y-19147023D01*
X29058553Y-19141957D01*
X29072713Y-19136215D01*
X29086431Y-19129798D01*
X29099709Y-19122706D01*
X29112546Y-19114938D01*
X29124942Y-19106494D01*
X29136898Y-19097375D01*
X29148413Y-19087580D01*
X29159487Y-19077110D01*
X29169957Y-19066037D01*
X29179751Y-19054522D01*
X29188870Y-19042566D01*
X29197314Y-19030170D01*
X29205082Y-19017333D01*
X29212174Y-19004055D01*
X29218591Y-18990337D01*
X29224333Y-18976177D01*
X29229399Y-18961577D01*
X29233790Y-18946536D01*
X29237505Y-18931054D01*
X29240545Y-18915132D01*
X29242909Y-18898768D01*
X29244598Y-18881964D01*
X29245611Y-18864719D01*
X29245949Y-18847034D01*
X29245949Y-18773028D01*
X29245611Y-18755344D01*
X29244598Y-18738103D01*
X29242909Y-18721306D01*
X29240545Y-18704953D01*
X29237505Y-18689043D01*
X29233790Y-18673577D01*
X29229399Y-18658555D01*
X29224333Y-18643976D01*
X29218591Y-18629841D01*
X29212174Y-18616150D01*
X29205082Y-18602902D01*
X29197314Y-18590098D01*
X29188870Y-18577737D01*
X29179751Y-18565820D01*
X29169957Y-18554347D01*
X29159487Y-18543318D01*
X29148413Y-18532803D01*
X29136898Y-18522967D01*
X29124942Y-18513810D01*
X29112546Y-18505330D01*
X29099709Y-18497529D01*
X29086431Y-18490407D01*
X29072713Y-18483962D01*
X29058553Y-18478196D01*
X29043953Y-18473109D01*
X29028912Y-18468700D01*
X29013430Y-18464969D01*
X28997508Y-18461916D01*
X28981144Y-18459542D01*
X28964340Y-18457846D01*
X28947095Y-18456829D01*
X28929410Y-18456489D01*
X28211702Y-18456489D01*
X28211702Y-18730896D01*
X28802648Y-18730896D01*
X28817921Y-18732224D01*
X28833515Y-18736893D01*
X28847429Y-18744924D01*
X28855771Y-18752145D01*
X28865865Y-18764761D01*
X28872656Y-18779116D01*
X28876144Y-18795210D01*
X28876653Y-18804902D01*
X28875348Y-18820014D01*
X28870760Y-18835483D01*
X28862867Y-18849329D01*
X28855771Y-18857658D01*
X28842978Y-18867753D01*
X28828504Y-18874544D01*
X28812349Y-18878031D01*
X28802648Y-18878541D01*
X28422728Y-18878541D01*
X28405044Y-18878880D01*
X28387803Y-18879898D01*
X28371006Y-18881594D01*
X28354653Y-18883968D01*
X28338743Y-18887020D01*
X28323277Y-18890751D01*
X28308255Y-18895161D01*
X28293676Y-18900248D01*
X28279541Y-18906014D01*
X28265850Y-18912458D01*
X28252602Y-18919581D01*
X28239798Y-18927382D01*
X28227437Y-18935861D01*
X28215520Y-18945019D01*
X28204047Y-18954855D01*
X28193018Y-18965369D01*
X28182503Y-18976399D01*
X28172667Y-18987872D01*
X28163510Y-18999789D01*
X28155030Y-19012149D01*
X28147229Y-19024954D01*
X28140107Y-19038201D01*
X28133662Y-19051893D01*
X28127896Y-19066028D01*
X28122809Y-19080607D01*
X28118400Y-19095629D01*
X28114669Y-19111095D01*
X28111616Y-19127005D01*
X28109242Y-19143358D01*
X28107546Y-19160155D01*
X28106528Y-19177396D01*
X28106189Y-19195080D01*
X28106189Y-19279710D01*
X28106528Y-19297396D01*
X28107546Y-19314640D01*
X28109242Y-19331445D01*
X28111616Y-19347808D01*
X28114669Y-19363730D01*
X28118400Y-19379212D01*
X28122809Y-19394253D01*
X28127896Y-19408853D01*
X28133662Y-19423013D01*
X28140107Y-19436731D01*
X28147229Y-19450009D01*
X28155030Y-19462846D01*
X28163510Y-19475243D01*
X28172667Y-19487198D01*
X28182503Y-19498713D01*
X28193018Y-19509787D01*
X28204047Y-19520257D01*
X28215520Y-19530051D01*
X28227437Y-19539170D01*
X28239798Y-19547614D01*
X28252602Y-19555382D01*
X28265850Y-19562474D01*
X28279541Y-19568892D01*
X28293676Y-19574633D01*
X28308255Y-19579699D01*
X28323277Y-19584090D01*
X28338743Y-19587805D01*
X28354653Y-19590845D01*
X28371006Y-19593209D01*
X28387803Y-19594898D01*
X28405044Y-19595911D01*
X28422728Y-19596249D01*
X28446137Y-19596207D01*
X28469653Y-19596083D01*
X28493275Y-19595875D01*
X28517004Y-19595585D01*
X28540839Y-19595211D01*
X28564781Y-19594755D01*
X28588830Y-19594215D01*
X28612986Y-19593592D01*
X28637248Y-19592887D01*
X28661616Y-19592098D01*
X28686091Y-19591227D01*
X28710673Y-19590272D01*
X28735362Y-19589235D01*
X28760157Y-19588114D01*
X28785058Y-19586911D01*
X28810067Y-19585624D01*
X28835182Y-19584254D01*
X28860403Y-19582802D01*
X28885731Y-19581266D01*
X28911166Y-19579648D01*
X28936707Y-19577946D01*
X28962355Y-19576162D01*
X28988110Y-19574294D01*
X29013971Y-19572343D01*
X29039939Y-19570310D01*
X29066014Y-19568193D01*
X29092195Y-19565994D01*
X29118482Y-19563711D01*
X29144877Y-19561345D01*
X29171378Y-19558897D01*
X29197985Y-19556365D01*
X29224699Y-19553750D01*
X29224699Y-19279710D01*
G37*
G36*
X27521106Y-18498621D02*
G01*
X27521106Y-19575000D01*
X27890401Y-19575000D01*
X27890401Y-18783653D01*
X28048670Y-18783653D01*
X28048670Y-18498621D01*
X27521106Y-18498621D01*
G37*
G36*
X27890401Y-18076570D02*
G01*
X27521106Y-18076570D01*
X27521106Y-18372226D01*
X27890401Y-18372226D01*
X27890401Y-18076570D01*
G37*
G36*
X27017087Y-18435957D02*
G01*
X27036068Y-18437009D01*
X27054513Y-18438762D01*
X27072424Y-18441217D01*
X27089799Y-18444372D01*
X27106639Y-18448229D01*
X27122943Y-18452787D01*
X27138713Y-18458046D01*
X27153947Y-18464007D01*
X27168646Y-18470669D01*
X27182810Y-18478032D01*
X27196438Y-18486096D01*
X27209531Y-18494862D01*
X27222089Y-18504329D01*
X27234112Y-18514497D01*
X27245600Y-18525366D01*
X27256469Y-18536809D01*
X27266637Y-18548790D01*
X27276104Y-18561310D01*
X27284869Y-18574367D01*
X27292934Y-18587963D01*
X27300297Y-18602096D01*
X27306958Y-18616768D01*
X27312919Y-18631978D01*
X27318178Y-18647726D01*
X27322736Y-18664012D01*
X27326593Y-18680836D01*
X27329749Y-18698198D01*
X27332203Y-18716099D01*
X27333956Y-18734537D01*
X27335008Y-18753513D01*
X27335359Y-18773028D01*
X27335359Y-19258461D01*
X27335008Y-19277977D01*
X27333956Y-19296958D01*
X27332203Y-19315403D01*
X27329749Y-19333314D01*
X27326593Y-19350689D01*
X27322736Y-19367529D01*
X27318178Y-19383833D01*
X27312919Y-19399603D01*
X27306958Y-19414837D01*
X27300297Y-19429536D01*
X27292934Y-19443699D01*
X27284869Y-19457328D01*
X27276104Y-19470421D01*
X27266637Y-19482979D01*
X27256469Y-19495002D01*
X27245600Y-19506489D01*
X27234112Y-19517359D01*
X27222089Y-19527527D01*
X27209531Y-19536994D01*
X27196438Y-19545759D01*
X27182810Y-19553823D01*
X27168646Y-19561186D01*
X27153947Y-19567848D01*
X27138713Y-19573809D01*
X27122943Y-19579068D01*
X27106639Y-19583626D01*
X27089799Y-19587483D01*
X27072424Y-19590639D01*
X27054513Y-19593093D01*
X27036068Y-19594846D01*
X27017087Y-19595898D01*
X26997571Y-19596249D01*
X26512138Y-19596249D01*
X26492624Y-19595898D01*
X26473647Y-19594846D01*
X26455209Y-19593093D01*
X26437308Y-19590639D01*
X26419946Y-19587483D01*
X26403122Y-19583626D01*
X26386836Y-19579068D01*
X26371088Y-19573809D01*
X26355878Y-19567848D01*
X26341207Y-19561186D01*
X26327073Y-19553823D01*
X26313477Y-19545759D01*
X26300420Y-19536994D01*
X26287901Y-19527527D01*
X26275919Y-19517359D01*
X26264476Y-19506489D01*
X26253607Y-19495002D01*
X26243439Y-19482979D01*
X26233972Y-19470421D01*
X26225206Y-19457328D01*
X26217142Y-19443699D01*
X26209779Y-19429536D01*
X26203117Y-19414837D01*
X26197157Y-19399603D01*
X26191897Y-19383833D01*
X26187339Y-19367529D01*
X26183482Y-19350689D01*
X26180327Y-19333314D01*
X26177872Y-19315403D01*
X26176119Y-19296958D01*
X26175067Y-19277977D01*
X26174717Y-19258461D01*
X26174717Y-19226953D01*
X26544012Y-19226953D01*
X26544094Y-19232138D01*
X26546069Y-19251229D01*
X26550677Y-19267686D01*
X26557919Y-19281511D01*
X26567794Y-19292702D01*
X26580301Y-19301260D01*
X26595443Y-19307185D01*
X26613217Y-19310477D01*
X26628276Y-19311217D01*
X26881434Y-19311217D01*
X26886640Y-19311135D01*
X26905814Y-19309160D01*
X26922344Y-19304552D01*
X26936228Y-19297310D01*
X26947468Y-19287436D01*
X26956063Y-19274928D01*
X26962014Y-19259787D01*
X26965320Y-19242012D01*
X26966064Y-19226953D01*
X26966064Y-18804902D01*
X26965981Y-18799695D01*
X26963998Y-18780521D01*
X26959369Y-18763992D01*
X26952096Y-18750107D01*
X26942179Y-18738867D01*
X26929617Y-18730272D01*
X26914410Y-18724321D01*
X26896558Y-18721015D01*
X26881434Y-18720272D01*
X26628276Y-18720272D01*
X26623092Y-18720354D01*
X26604001Y-18722338D01*
X26587543Y-18726966D01*
X26573718Y-18734239D01*
X26562527Y-18744157D01*
X26553969Y-18756719D01*
X26548044Y-18771926D01*
X26544753Y-18789777D01*
X26544012Y-18804902D01*
X26544012Y-19226953D01*
X26174717Y-19226953D01*
X26174717Y-18773028D01*
X26175067Y-18753513D01*
X26176119Y-18734537D01*
X26177872Y-18716099D01*
X26180327Y-18698198D01*
X26183482Y-18680836D01*
X26187339Y-18664012D01*
X26191897Y-18647726D01*
X26197157Y-18631978D01*
X26203117Y-18616768D01*
X26209779Y-18602096D01*
X26217142Y-18587963D01*
X26225206Y-18574367D01*
X26233972Y-18561310D01*
X26243439Y-18548790D01*
X26253607Y-18536809D01*
X26264476Y-18525366D01*
X26275919Y-18514497D01*
X26287901Y-18504329D01*
X26300420Y-18494862D01*
X26313477Y-18486096D01*
X26327073Y-18478032D01*
X26341207Y-18470669D01*
X26355878Y-18464007D01*
X26371088Y-18458046D01*
X26386836Y-18452787D01*
X26403122Y-18448229D01*
X26419946Y-18444372D01*
X26437308Y-18441217D01*
X26455209Y-18438762D01*
X26473647Y-18437009D01*
X26492624Y-18435957D01*
X26512138Y-18435607D01*
X26997571Y-18435607D01*
X27017087Y-18435957D01*
G37*
G36*
X25369815Y-18741521D02*
G01*
X25391027Y-18741891D01*
X25412761Y-18743002D01*
X25427540Y-18744154D01*
X25442551Y-18745635D01*
X25457794Y-18747446D01*
X25473268Y-18749585D01*
X25488975Y-18752054D01*
X25504913Y-18754852D01*
X25521083Y-18757979D01*
X25537485Y-18761435D01*
X25554119Y-18765220D01*
X25570984Y-18769334D01*
X25588082Y-18773778D01*
X25605411Y-18778551D01*
X25622972Y-18783653D01*
X25622972Y-19575000D01*
X25992267Y-19575000D01*
X25992267Y-18456489D01*
X25665104Y-18456489D01*
X25644221Y-18562002D01*
X25631791Y-18553987D01*
X25619320Y-18546243D01*
X25600539Y-18535137D01*
X25581668Y-18524643D01*
X25562706Y-18514761D01*
X25543654Y-18505491D01*
X25524513Y-18496832D01*
X25505281Y-18488785D01*
X25485958Y-18481350D01*
X25466546Y-18474527D01*
X25447044Y-18468316D01*
X25440523Y-18466381D01*
X25421232Y-18460881D01*
X25402514Y-18455923D01*
X25384369Y-18451505D01*
X25366798Y-18447628D01*
X25349799Y-18444292D01*
X25333374Y-18441497D01*
X25317522Y-18439243D01*
X25302243Y-18437530D01*
X25287538Y-18436358D01*
X25268821Y-18435637D01*
X25264302Y-18435607D01*
X25169413Y-18435607D01*
X25151685Y-18435944D01*
X25134403Y-18436958D01*
X25117567Y-18438646D01*
X25101178Y-18441010D01*
X25085235Y-18444050D01*
X25069739Y-18447765D01*
X25054690Y-18452156D01*
X25040087Y-18457222D01*
X25025930Y-18462964D01*
X25012220Y-18469381D01*
X24998957Y-18476473D01*
X24986140Y-18484241D01*
X24973769Y-18492685D01*
X24961845Y-18501804D01*
X24950368Y-18511599D01*
X24939337Y-18522069D01*
X24928867Y-18533100D01*
X24919072Y-18544577D01*
X24909953Y-18556501D01*
X24901509Y-18568872D01*
X24893741Y-18581689D01*
X24886649Y-18594952D01*
X24880232Y-18608662D01*
X24874490Y-18622819D01*
X24869424Y-18637422D01*
X24865033Y-18652471D01*
X24861318Y-18667967D01*
X24858278Y-18683910D01*
X24855914Y-18700299D01*
X24854226Y-18717135D01*
X24853212Y-18734417D01*
X24852875Y-18752145D01*
X24852875Y-19575000D01*
X25222170Y-19575000D01*
X25222170Y-18815160D01*
X25223498Y-18800070D01*
X25228167Y-18784682D01*
X25236198Y-18770974D01*
X25243419Y-18762770D01*
X25256006Y-18752498D01*
X25270274Y-18745588D01*
X25286222Y-18742040D01*
X25295809Y-18741521D01*
X25369815Y-18741521D01*
G37*
G36*
X23797745Y-19575000D02*
G01*
X23797745Y-18424982D01*
X24040279Y-18509246D01*
X24145792Y-18266713D01*
X23755247Y-18097819D01*
X23417826Y-18097819D01*
X23417826Y-19575000D01*
X23797745Y-19575000D01*
G37*
G36*
X23232445Y-19258461D02*
G01*
X22852526Y-19258461D01*
X22852526Y-19575000D01*
X23232445Y-19575000D01*
X23232445Y-19258461D01*
G37*
G36*
X22312582Y-18076962D02*
G01*
X22338826Y-18078138D01*
X22364125Y-18080099D01*
X22388480Y-18082844D01*
X22411890Y-18086373D01*
X22434355Y-18090686D01*
X22455876Y-18095784D01*
X22476453Y-18101666D01*
X22496085Y-18108332D01*
X22514772Y-18115782D01*
X22532515Y-18124017D01*
X22549313Y-18133036D01*
X22565167Y-18142839D01*
X22580077Y-18153426D01*
X22594041Y-18164798D01*
X22607062Y-18176953D01*
X22619217Y-18189974D01*
X22630589Y-18203938D01*
X22641176Y-18218848D01*
X22650980Y-18234702D01*
X22659998Y-18251500D01*
X22668233Y-18269243D01*
X22675683Y-18287930D01*
X22682349Y-18307562D01*
X22688231Y-18328139D01*
X22693329Y-18349660D01*
X22697642Y-18372125D01*
X22701171Y-18395536D01*
X22703916Y-18419890D01*
X22705877Y-18445189D01*
X22707053Y-18471433D01*
X22707445Y-18498621D01*
X22707445Y-19174197D01*
X22707053Y-19201385D01*
X22705877Y-19227629D01*
X22703916Y-19252928D01*
X22701171Y-19277283D01*
X22697642Y-19300693D01*
X22693329Y-19323158D01*
X22688231Y-19344679D01*
X22682349Y-19365256D01*
X22675683Y-19384888D01*
X22668233Y-19403575D01*
X22659998Y-19421318D01*
X22650980Y-19438117D01*
X22641176Y-19453970D01*
X22630589Y-19468880D01*
X22619217Y-19482845D01*
X22607062Y-19495865D01*
X22594041Y-19508021D01*
X22580077Y-19519392D01*
X22565167Y-19529980D01*
X22549313Y-19539783D01*
X22532515Y-19548802D01*
X22514772Y-19557036D01*
X22496085Y-19564487D01*
X22476453Y-19571153D01*
X22455876Y-19577035D01*
X22434355Y-19582132D01*
X22411890Y-19586446D01*
X22388480Y-19589975D01*
X22364125Y-19592720D01*
X22338826Y-19594680D01*
X22312582Y-19595857D01*
X22285394Y-19596249D01*
X21884225Y-19596249D01*
X21856994Y-19595857D01*
X21830713Y-19594680D01*
X21805382Y-19592720D01*
X21781002Y-19589975D01*
X21757572Y-19586446D01*
X21735092Y-19582132D01*
X21713562Y-19577035D01*
X21692983Y-19571153D01*
X21673354Y-19564487D01*
X21654675Y-19557036D01*
X21636946Y-19548802D01*
X21620168Y-19539783D01*
X21604340Y-19529980D01*
X21589462Y-19519392D01*
X21575534Y-19508021D01*
X21562557Y-19495865D01*
X21550401Y-19482845D01*
X21539030Y-19468880D01*
X21528442Y-19453970D01*
X21518639Y-19438117D01*
X21509620Y-19421318D01*
X21501386Y-19403575D01*
X21493935Y-19384888D01*
X21487269Y-19365256D01*
X21481387Y-19344679D01*
X21476290Y-19323158D01*
X21471976Y-19300693D01*
X21468447Y-19277283D01*
X21465702Y-19252928D01*
X21463742Y-19227629D01*
X21462565Y-19201385D01*
X21462173Y-19174197D01*
X21842093Y-19174197D01*
X21842217Y-19181973D01*
X21843207Y-19196785D01*
X21846549Y-19217152D01*
X21852120Y-19235296D01*
X21859919Y-19251219D01*
X21869946Y-19264920D01*
X21882201Y-19276400D01*
X21896685Y-19285657D01*
X21913397Y-19292693D01*
X21932337Y-19297507D01*
X21953505Y-19300099D01*
X21968855Y-19300593D01*
X22200764Y-19300593D01*
X22208562Y-19300469D01*
X22223417Y-19299482D01*
X22243843Y-19296149D01*
X22262040Y-19290595D01*
X22278009Y-19282818D01*
X22291750Y-19272820D01*
X22303263Y-19260600D01*
X22312547Y-19246159D01*
X22319603Y-19229495D01*
X22324431Y-19210610D01*
X22327031Y-19189503D01*
X22327526Y-19174197D01*
X22327526Y-18498621D01*
X22327402Y-18490845D01*
X22326412Y-18476033D01*
X22323069Y-18455666D01*
X22317499Y-18437522D01*
X22309700Y-18421599D01*
X22299673Y-18407898D01*
X22287417Y-18396419D01*
X22272934Y-18387161D01*
X22256222Y-18380125D01*
X22237282Y-18375311D01*
X22216114Y-18372719D01*
X22200764Y-18372226D01*
X21968855Y-18372226D01*
X21961056Y-18372349D01*
X21946201Y-18373336D01*
X21925776Y-18376669D01*
X21907578Y-18382224D01*
X21891609Y-18390000D01*
X21877869Y-18399998D01*
X21866356Y-18412218D01*
X21857072Y-18426660D01*
X21850016Y-18443323D01*
X21845188Y-18462208D01*
X21842588Y-18483316D01*
X21842093Y-18498621D01*
X21842093Y-19174197D01*
X21462173Y-19174197D01*
X21462173Y-18498621D01*
X21462565Y-18471433D01*
X21463742Y-18445189D01*
X21465702Y-18419890D01*
X21468447Y-18395536D01*
X21471976Y-18372125D01*
X21476290Y-18349660D01*
X21481387Y-18328139D01*
X21487269Y-18307562D01*
X21493935Y-18287930D01*
X21501386Y-18269243D01*
X21509620Y-18251500D01*
X21518639Y-18234702D01*
X21528442Y-18218848D01*
X21539030Y-18203938D01*
X21550401Y-18189974D01*
X21562557Y-18176953D01*
X21575534Y-18164798D01*
X21589462Y-18153426D01*
X21604340Y-18142839D01*
X21620168Y-18133036D01*
X21636946Y-18124017D01*
X21654675Y-18115782D01*
X21673354Y-18108332D01*
X21692983Y-18101666D01*
X21713562Y-18095784D01*
X21735092Y-18090686D01*
X21757572Y-18086373D01*
X21781002Y-18082844D01*
X21805382Y-18080099D01*
X21830713Y-18078138D01*
X21856994Y-18076962D01*
X21884225Y-18076570D01*
X22285394Y-18076570D01*
X22312582Y-18076962D01*
G37*
G36*
X21321489Y-19258461D02*
G01*
X20941570Y-19258461D01*
X20941570Y-19575000D01*
X21321489Y-19575000D01*
X21321489Y-19258461D01*
G37*
G36*
X20401626Y-18076962D02*
G01*
X20427870Y-18078138D01*
X20453169Y-18080099D01*
X20477523Y-18082844D01*
X20500934Y-18086373D01*
X20523399Y-18090686D01*
X20544920Y-18095784D01*
X20565497Y-18101666D01*
X20585129Y-18108332D01*
X20603816Y-18115782D01*
X20621559Y-18124017D01*
X20638357Y-18133036D01*
X20654211Y-18142839D01*
X20669121Y-18153426D01*
X20683085Y-18164798D01*
X20696106Y-18176953D01*
X20708261Y-18189974D01*
X20719633Y-18203938D01*
X20730220Y-18218848D01*
X20740023Y-18234702D01*
X20749042Y-18251500D01*
X20757277Y-18269243D01*
X20764727Y-18287930D01*
X20771393Y-18307562D01*
X20777275Y-18328139D01*
X20782373Y-18349660D01*
X20786686Y-18372125D01*
X20790215Y-18395536D01*
X20792960Y-18419890D01*
X20794921Y-18445189D01*
X20796097Y-18471433D01*
X20796489Y-18498621D01*
X20796489Y-19174197D01*
X20796097Y-19201385D01*
X20794921Y-19227629D01*
X20792960Y-19252928D01*
X20790215Y-19277283D01*
X20786686Y-19300693D01*
X20782373Y-19323158D01*
X20777275Y-19344679D01*
X20771393Y-19365256D01*
X20764727Y-19384888D01*
X20757277Y-19403575D01*
X20749042Y-19421318D01*
X20740023Y-19438117D01*
X20730220Y-19453970D01*
X20719633Y-19468880D01*
X20708261Y-19482845D01*
X20696106Y-19495865D01*
X20683085Y-19508021D01*
X20669121Y-19519392D01*
X20654211Y-19529980D01*
X20638357Y-19539783D01*
X20621559Y-19548802D01*
X20603816Y-19557036D01*
X20585129Y-19564487D01*
X20565497Y-19571153D01*
X20544920Y-19577035D01*
X20523399Y-19582132D01*
X20500934Y-19586446D01*
X20477523Y-19589975D01*
X20453169Y-19592720D01*
X20427870Y-19594680D01*
X20401626Y-19595857D01*
X20374438Y-19596249D01*
X19973269Y-19596249D01*
X19946038Y-19595857D01*
X19919757Y-19594680D01*
X19894426Y-19592720D01*
X19870046Y-19589975D01*
X19846616Y-19586446D01*
X19824136Y-19582132D01*
X19802606Y-19577035D01*
X19782027Y-19571153D01*
X19762398Y-19564487D01*
X19743719Y-19557036D01*
X19725990Y-19548802D01*
X19709212Y-19539783D01*
X19693384Y-19529980D01*
X19678506Y-19519392D01*
X19664578Y-19508021D01*
X19651601Y-19495865D01*
X19639445Y-19482845D01*
X19628074Y-19468880D01*
X19617486Y-19453970D01*
X19607683Y-19438117D01*
X19598664Y-19421318D01*
X19590430Y-19403575D01*
X19582979Y-19384888D01*
X19576313Y-19365256D01*
X19570431Y-19344679D01*
X19565334Y-19323158D01*
X19561020Y-19300693D01*
X19557491Y-19277283D01*
X19554746Y-19252928D01*
X19552786Y-19227629D01*
X19551609Y-19201385D01*
X19551217Y-19174197D01*
X19931137Y-19174197D01*
X19931261Y-19181973D01*
X19932251Y-19196785D01*
X19935593Y-19217152D01*
X19941164Y-19235296D01*
X19948963Y-19251219D01*
X19958990Y-19264920D01*
X19971245Y-19276400D01*
X19985729Y-19285657D01*
X20002441Y-19292693D01*
X20021381Y-19297507D01*
X20042549Y-19300099D01*
X20057899Y-19300593D01*
X20289808Y-19300593D01*
X20297606Y-19300469D01*
X20312461Y-19299482D01*
X20332887Y-19296149D01*
X20351084Y-19290595D01*
X20367053Y-19282818D01*
X20380794Y-19272820D01*
X20392307Y-19260600D01*
X20401591Y-19246159D01*
X20408647Y-19229495D01*
X20413475Y-19210610D01*
X20416074Y-19189503D01*
X20416570Y-19174197D01*
X20416570Y-18498621D01*
X20416446Y-18490845D01*
X20415456Y-18476033D01*
X20412113Y-18455666D01*
X20406543Y-18437522D01*
X20398744Y-18421599D01*
X20388717Y-18407898D01*
X20376461Y-18396419D01*
X20361978Y-18387161D01*
X20345266Y-18380125D01*
X20326326Y-18375311D01*
X20305158Y-18372719D01*
X20289808Y-18372226D01*
X20057899Y-18372226D01*
X20050100Y-18372349D01*
X20035245Y-18373336D01*
X20014820Y-18376669D01*
X19996622Y-18382224D01*
X19980653Y-18390000D01*
X19966913Y-18399998D01*
X19955400Y-18412218D01*
X19946116Y-18426660D01*
X19939060Y-18443323D01*
X19934232Y-18462208D01*
X19931632Y-18483316D01*
X19931137Y-18498621D01*
X19931137Y-19174197D01*
X19551217Y-19174197D01*
X19551217Y-18498621D01*
X19551609Y-18471433D01*
X19552786Y-18445189D01*
X19554746Y-18419890D01*
X19557491Y-18395536D01*
X19561020Y-18372125D01*
X19565334Y-18349660D01*
X19570431Y-18328139D01*
X19576313Y-18307562D01*
X19582979Y-18287930D01*
X19590430Y-18269243D01*
X19598664Y-18251500D01*
X19607683Y-18234702D01*
X19617486Y-18218848D01*
X19628074Y-18203938D01*
X19639445Y-18189974D01*
X19651601Y-18176953D01*
X19664578Y-18164798D01*
X19678506Y-18153426D01*
X19693384Y-18142839D01*
X19709212Y-18133036D01*
X19725990Y-18124017D01*
X19743719Y-18115782D01*
X19762398Y-18108332D01*
X19782027Y-18101666D01*
X19802606Y-18095784D01*
X19824136Y-18090686D01*
X19846616Y-18086373D01*
X19870046Y-18082844D01*
X19894426Y-18080099D01*
X19919757Y-18078138D01*
X19946038Y-18076962D01*
X19973269Y-18076570D01*
X20374438Y-18076570D01*
X20401626Y-18076962D01*
G37*
D10*
G36*
X39788813Y-14082120D02*
G01*
X39224612Y-14082120D01*
X39224612Y-15605463D01*
X39225179Y-15644354D01*
X39226880Y-15681910D01*
X39229715Y-15718133D01*
X39233684Y-15753021D01*
X39238787Y-15786574D01*
X39245024Y-15818793D01*
X39252395Y-15849678D01*
X39260900Y-15879229D01*
X39270539Y-15907445D01*
X39281313Y-15934326D01*
X39293220Y-15959874D01*
X39306261Y-15984087D01*
X39320436Y-16006965D01*
X39335745Y-16028509D01*
X39352188Y-16048719D01*
X39369766Y-16067595D01*
X39388581Y-16085172D01*
X39408739Y-16101615D01*
X39430239Y-16116924D01*
X39453081Y-16131099D01*
X39477266Y-16144141D01*
X39502794Y-16156048D01*
X39529663Y-16166821D01*
X39557875Y-16176460D01*
X39587430Y-16184965D01*
X39618327Y-16192336D01*
X39650566Y-16198573D01*
X39684147Y-16203676D01*
X39719071Y-16207645D01*
X39755338Y-16210480D01*
X39792946Y-16212181D01*
X39831897Y-16212748D01*
X40510990Y-16212748D01*
X40549941Y-16212181D01*
X40587550Y-16210480D01*
X40623816Y-16207645D01*
X40658740Y-16203676D01*
X40692322Y-16198573D01*
X40724561Y-16192336D01*
X40755458Y-16184965D01*
X40785012Y-16176460D01*
X40813224Y-16166821D01*
X40840094Y-16156048D01*
X40865621Y-16144141D01*
X40889806Y-16131099D01*
X40912649Y-16116924D01*
X40934149Y-16101615D01*
X40954307Y-16085172D01*
X40973122Y-16067595D01*
X40990699Y-16048719D01*
X41007142Y-16028509D01*
X41022452Y-16006965D01*
X41036627Y-15984087D01*
X41049668Y-15959874D01*
X41061575Y-15934326D01*
X41072348Y-15907445D01*
X41081987Y-15879229D01*
X41090492Y-15849678D01*
X41097863Y-15818793D01*
X41104100Y-15786574D01*
X41109204Y-15753021D01*
X41113173Y-15718133D01*
X41116008Y-15681910D01*
X41117709Y-15644354D01*
X41118276Y-15605463D01*
X41118276Y-14082120D01*
X40554075Y-14082120D01*
X40554075Y-15605463D01*
X40552659Y-15634153D01*
X40548413Y-15660022D01*
X40541335Y-15683068D01*
X40531426Y-15703292D01*
X40518687Y-15720695D01*
X40503116Y-15735275D01*
X40484715Y-15747034D01*
X40463482Y-15755970D01*
X40439418Y-15762084D01*
X40412524Y-15765377D01*
X40393021Y-15766004D01*
X39949867Y-15766004D01*
X39921085Y-15764593D01*
X39895134Y-15760360D01*
X39872014Y-15753305D01*
X39851725Y-15743428D01*
X39834267Y-15730729D01*
X39819640Y-15715208D01*
X39807844Y-15696865D01*
X39798879Y-15675699D01*
X39792745Y-15651712D01*
X39789442Y-15624903D01*
X39788813Y-15605463D01*
X39788813Y-14082120D01*
G37*
G36*
X37907459Y-16183000D02*
G01*
X39003548Y-16183000D01*
X39003548Y-15736768D01*
X38737860Y-15736768D01*
X38737860Y-14528352D01*
X39003548Y-14528352D01*
X39003548Y-14082120D01*
X37907459Y-14082120D01*
X37907459Y-14528352D01*
X38173147Y-14528352D01*
X38173147Y-15736768D01*
X37907459Y-15736768D01*
X37907459Y-16183000D01*
G37*
G36*
X35847100Y-16183000D02*
G01*
X36434382Y-16183000D01*
X37117578Y-14987406D01*
X37117578Y-16183000D01*
X37681779Y-16183000D01*
X37681779Y-14082120D01*
X37094497Y-14082120D01*
X36411814Y-15277200D01*
X36411814Y-14082120D01*
X35847100Y-14082120D01*
X35847100Y-16183000D01*
G37*
G36*
X34528408Y-16183000D02*
G01*
X35624497Y-16183000D01*
X35624497Y-15736768D01*
X35358809Y-15736768D01*
X35358809Y-14528352D01*
X35624497Y-14528352D01*
X35624497Y-14082120D01*
X34528408Y-14082120D01*
X34528408Y-14528352D01*
X34794096Y-14528352D01*
X34794096Y-15736768D01*
X34528408Y-15736768D01*
X34528408Y-16183000D01*
G37*
G36*
X33793831Y-14052940D02*
G01*
X33831388Y-14054647D01*
X33867610Y-14057493D01*
X33902498Y-14061476D01*
X33936051Y-14066597D01*
X33968270Y-14072856D01*
X33999155Y-14080253D01*
X34028706Y-14088788D01*
X34056922Y-14098461D01*
X34083803Y-14109272D01*
X34109351Y-14121222D01*
X34133564Y-14134309D01*
X34156442Y-14148534D01*
X34177987Y-14163897D01*
X34198196Y-14180399D01*
X34217072Y-14198038D01*
X34234649Y-14216851D01*
X34251092Y-14237003D01*
X34266401Y-14258493D01*
X34280577Y-14281322D01*
X34293618Y-14305489D01*
X34305525Y-14330994D01*
X34316298Y-14357837D01*
X34325937Y-14386019D01*
X34334442Y-14415540D01*
X34341813Y-14446399D01*
X34348050Y-14478596D01*
X34353153Y-14512131D01*
X34357122Y-14547005D01*
X34359957Y-14583217D01*
X34361658Y-14620768D01*
X34362225Y-14659657D01*
X34362225Y-15605463D01*
X34361658Y-15644354D01*
X34359957Y-15681910D01*
X34357122Y-15718133D01*
X34353153Y-15753021D01*
X34348050Y-15786574D01*
X34341813Y-15818793D01*
X34334442Y-15849678D01*
X34325937Y-15879229D01*
X34316298Y-15907445D01*
X34305525Y-15934326D01*
X34293618Y-15959874D01*
X34280577Y-15984087D01*
X34266401Y-16006965D01*
X34251092Y-16028509D01*
X34234649Y-16048719D01*
X34217072Y-16067595D01*
X34198196Y-16085172D01*
X34177987Y-16101615D01*
X34156442Y-16116924D01*
X34133564Y-16131099D01*
X34109351Y-16144141D01*
X34083803Y-16156048D01*
X34056922Y-16166821D01*
X34028706Y-16176460D01*
X33999155Y-16184965D01*
X33968270Y-16192336D01*
X33936051Y-16198573D01*
X33902498Y-16203676D01*
X33867610Y-16207645D01*
X33831388Y-16210480D01*
X33793831Y-16212181D01*
X33754940Y-16212748D01*
X33016350Y-16212748D01*
X32977399Y-16212181D01*
X32939790Y-16210480D01*
X32903523Y-16207645D01*
X32868599Y-16203676D01*
X32835018Y-16198573D01*
X32802779Y-16192336D01*
X32771882Y-16184965D01*
X32742327Y-16176460D01*
X32714115Y-16166821D01*
X32687246Y-16156048D01*
X32661718Y-16144141D01*
X32637534Y-16131099D01*
X32614691Y-16116924D01*
X32593191Y-16101615D01*
X32573033Y-16085172D01*
X32554218Y-16067595D01*
X32536641Y-16048719D01*
X32520197Y-16028509D01*
X32504888Y-16006965D01*
X32490713Y-15984087D01*
X32477672Y-15959874D01*
X32465765Y-15934326D01*
X32454992Y-15907445D01*
X32445353Y-15879229D01*
X32436847Y-15849678D01*
X32429476Y-15818793D01*
X32423239Y-15786574D01*
X32418136Y-15753021D01*
X32414167Y-15718133D01*
X32411332Y-15681910D01*
X32409631Y-15644354D01*
X32409064Y-15605463D01*
X32973265Y-15605463D01*
X32973894Y-15624903D01*
X32977197Y-15651712D01*
X32983331Y-15675699D01*
X32992296Y-15696865D01*
X33004092Y-15715208D01*
X33018719Y-15730729D01*
X33036177Y-15743428D01*
X33056466Y-15753305D01*
X33079586Y-15760360D01*
X33105537Y-15764593D01*
X33134319Y-15766004D01*
X33636458Y-15766004D01*
X33655960Y-15765377D01*
X33682855Y-15762084D01*
X33706919Y-15755970D01*
X33728151Y-15747034D01*
X33746553Y-15735275D01*
X33762124Y-15720695D01*
X33774863Y-15703292D01*
X33784772Y-15683068D01*
X33791849Y-15660022D01*
X33796096Y-15634153D01*
X33797512Y-15605463D01*
X33797512Y-14659657D01*
X33796882Y-14640216D01*
X33793580Y-14613407D01*
X33787446Y-14589420D01*
X33778481Y-14568255D01*
X33766685Y-14549912D01*
X33752058Y-14534391D01*
X33734600Y-14521692D01*
X33714311Y-14511815D01*
X33691191Y-14504760D01*
X33665240Y-14500527D01*
X33636458Y-14499116D01*
X33134319Y-14499116D01*
X33114816Y-14499743D01*
X33087922Y-14503035D01*
X33063858Y-14509150D01*
X33042625Y-14518086D01*
X33024224Y-14529845D01*
X33008653Y-14544425D01*
X32995913Y-14561827D01*
X32986005Y-14582052D01*
X32978927Y-14605098D01*
X32974681Y-14630966D01*
X32973265Y-14659657D01*
X32973265Y-15605463D01*
X32409064Y-15605463D01*
X32409064Y-14659657D01*
X32409631Y-14620768D01*
X32411332Y-14583217D01*
X32414167Y-14547005D01*
X32418136Y-14512131D01*
X32423239Y-14478596D01*
X32429476Y-14446399D01*
X32436847Y-14415540D01*
X32445353Y-14386019D01*
X32454992Y-14357837D01*
X32465765Y-14330994D01*
X32477672Y-14305489D01*
X32490713Y-14281322D01*
X32504888Y-14258493D01*
X32520197Y-14237003D01*
X32536641Y-14216851D01*
X32554218Y-14198038D01*
X32573033Y-14180399D01*
X32593191Y-14163897D01*
X32614691Y-14148534D01*
X32637534Y-14134309D01*
X32661718Y-14121222D01*
X32687246Y-14109272D01*
X32714115Y-14098461D01*
X32742327Y-14088788D01*
X32771882Y-14080253D01*
X32802779Y-14072856D01*
X32835018Y-14066597D01*
X32868599Y-14061476D01*
X32903523Y-14057493D01*
X32939790Y-14054647D01*
X32977399Y-14052940D01*
X33016350Y-14052371D01*
X33754940Y-14052371D01*
X33793831Y-14052940D01*
G37*
G36*
X32245446Y-15355676D02*
G01*
X32245446Y-14909444D01*
X31001639Y-14909444D01*
X31001639Y-15355676D01*
X32245446Y-15355676D01*
G37*
G36*
X29003342Y-15077678D02*
G01*
X29391102Y-15769594D01*
X29823998Y-15769594D01*
X30211758Y-15077678D01*
X30211758Y-16183000D01*
X30775959Y-16183000D01*
X30775959Y-14082120D01*
X30188677Y-14082120D01*
X29607550Y-15157180D01*
X29026423Y-14082120D01*
X28439141Y-14082120D01*
X28439141Y-16183000D01*
X29003342Y-16183000D01*
X29003342Y-15077678D01*
G37*
G36*
X26503419Y-16151712D02*
G01*
X26545340Y-16155467D01*
X26586793Y-16159103D01*
X26627778Y-16162620D01*
X26668295Y-16166017D01*
X26708345Y-16169296D01*
X26747926Y-16172455D01*
X26787040Y-16175495D01*
X26825686Y-16178415D01*
X26863865Y-16181217D01*
X26901575Y-16183899D01*
X26938818Y-16186462D01*
X26975592Y-16188906D01*
X27011899Y-16191231D01*
X27047738Y-16193436D01*
X27083110Y-16195522D01*
X27118013Y-16197489D01*
X27152449Y-16199337D01*
X27186416Y-16201066D01*
X27219916Y-16202675D01*
X27252948Y-16204165D01*
X27285513Y-16205536D01*
X27317609Y-16206788D01*
X27349238Y-16207920D01*
X27380399Y-16208934D01*
X27411092Y-16209828D01*
X27441317Y-16210602D01*
X27471074Y-16211258D01*
X27500363Y-16211795D01*
X27529185Y-16212212D01*
X27557539Y-16212510D01*
X27585425Y-16212689D01*
X27612843Y-16212748D01*
X27649294Y-16212199D01*
X27684530Y-16210552D01*
X27718553Y-16207808D01*
X27751361Y-16203965D01*
X27782955Y-16199024D01*
X27813335Y-16192985D01*
X27842500Y-16185849D01*
X27870452Y-16177614D01*
X27897189Y-16168281D01*
X27922713Y-16157851D01*
X27947022Y-16146322D01*
X27970117Y-16133696D01*
X27991998Y-16119972D01*
X28012664Y-16105149D01*
X28032117Y-16089229D01*
X28050355Y-16072211D01*
X28067373Y-16053973D01*
X28083294Y-16034520D01*
X28098116Y-16013853D01*
X28111840Y-15991973D01*
X28124467Y-15968878D01*
X28135995Y-15944568D01*
X28146426Y-15919045D01*
X28155758Y-15892308D01*
X28163993Y-15864356D01*
X28171129Y-15835190D01*
X28177168Y-15804811D01*
X28182109Y-15773216D01*
X28185952Y-15740408D01*
X28188697Y-15706386D01*
X28190344Y-15671149D01*
X28190893Y-15634699D01*
X28190893Y-14689406D01*
X28190326Y-14650455D01*
X28188625Y-14612846D01*
X28185789Y-14576579D01*
X28181820Y-14541656D01*
X28176717Y-14508074D01*
X28170480Y-14475835D01*
X28163109Y-14444938D01*
X28154604Y-14415383D01*
X28144965Y-14387171D01*
X28134192Y-14360302D01*
X28122285Y-14334774D01*
X28109244Y-14310590D01*
X28095069Y-14287747D01*
X28079759Y-14266247D01*
X28063316Y-14246089D01*
X28045739Y-14227274D01*
X28026864Y-14209697D01*
X28006654Y-14193253D01*
X27985109Y-14177944D01*
X27962231Y-14163769D01*
X27938018Y-14150728D01*
X27912471Y-14138821D01*
X27885589Y-14128048D01*
X27857373Y-14118409D01*
X27827822Y-14109904D01*
X27796938Y-14102532D01*
X27764718Y-14096295D01*
X27731165Y-14091192D01*
X27696277Y-14087223D01*
X27660055Y-14084388D01*
X27622498Y-14082687D01*
X27583607Y-14082120D01*
X26503419Y-14082120D01*
X26503419Y-14528352D01*
X27465125Y-14528352D01*
X27493907Y-14529767D01*
X27519858Y-14534014D01*
X27542978Y-14541092D01*
X27563267Y-14551000D01*
X27580725Y-14563740D01*
X27595352Y-14579310D01*
X27607148Y-14597712D01*
X27616113Y-14618945D01*
X27622247Y-14643008D01*
X27625550Y-14669903D01*
X27626179Y-14689406D01*
X27626179Y-15634699D01*
X27624952Y-15656842D01*
X27621274Y-15677110D01*
X27613883Y-15698386D01*
X27603154Y-15717109D01*
X27591301Y-15731126D01*
X27574713Y-15744716D01*
X27555916Y-15754968D01*
X27534910Y-15761882D01*
X27511696Y-15765459D01*
X27497438Y-15766004D01*
X27474814Y-15765950D01*
X27451180Y-15765787D01*
X27426536Y-15765517D01*
X27405229Y-15765209D01*
X27383220Y-15764826D01*
X27365107Y-15764465D01*
X27341889Y-15763959D01*
X27318395Y-15763403D01*
X27294625Y-15762797D01*
X27270580Y-15762141D01*
X27246259Y-15761435D01*
X27221663Y-15760678D01*
X27211747Y-15760362D01*
X27186731Y-15759400D01*
X27161689Y-15758438D01*
X27136622Y-15757477D01*
X27111530Y-15756515D01*
X27086413Y-15755553D01*
X27061270Y-15754591D01*
X27051207Y-15754207D01*
X27030201Y-15753349D01*
X27007705Y-15752315D01*
X26983719Y-15751105D01*
X26958242Y-15749719D01*
X26931274Y-15748156D01*
X26910070Y-15746868D01*
X26888027Y-15745481D01*
X26865146Y-15743995D01*
X26841426Y-15742410D01*
X26816580Y-15740739D01*
X26790318Y-15738996D01*
X26762640Y-15737181D01*
X26733547Y-15735293D01*
X26703038Y-15733334D01*
X26681913Y-15731987D01*
X26660158Y-15730609D01*
X26637775Y-15729198D01*
X26614762Y-15727756D01*
X26591120Y-15726281D01*
X26566849Y-15724775D01*
X26541949Y-15723236D01*
X26516419Y-15721665D01*
X26503419Y-15720868D01*
X26503419Y-16151712D01*
G37*
G36*
X24980076Y-14082120D02*
G01*
X24415875Y-14082120D01*
X24415875Y-15605463D01*
X24416442Y-15644354D01*
X24418143Y-15681910D01*
X24420978Y-15718133D01*
X24424947Y-15753021D01*
X24430050Y-15786574D01*
X24436287Y-15818793D01*
X24443658Y-15849678D01*
X24452163Y-15879229D01*
X24461803Y-15907445D01*
X24472576Y-15934326D01*
X24484483Y-15959874D01*
X24497524Y-15984087D01*
X24511699Y-16006965D01*
X24527008Y-16028509D01*
X24543451Y-16048719D01*
X24561029Y-16067595D01*
X24579844Y-16085172D01*
X24600002Y-16101615D01*
X24621502Y-16116924D01*
X24644344Y-16131099D01*
X24668529Y-16144141D01*
X24694057Y-16156048D01*
X24720926Y-16166821D01*
X24749138Y-16176460D01*
X24778693Y-16184965D01*
X24809590Y-16192336D01*
X24841829Y-16198573D01*
X24875410Y-16203676D01*
X24910334Y-16207645D01*
X24946601Y-16210480D01*
X24984209Y-16212181D01*
X25023161Y-16212748D01*
X25702253Y-16212748D01*
X25741204Y-16212181D01*
X25778813Y-16210480D01*
X25815079Y-16207645D01*
X25850003Y-16203676D01*
X25883585Y-16198573D01*
X25915824Y-16192336D01*
X25946721Y-16184965D01*
X25976275Y-16176460D01*
X26004488Y-16166821D01*
X26031357Y-16156048D01*
X26056884Y-16144141D01*
X26081069Y-16131099D01*
X26103912Y-16116924D01*
X26125412Y-16101615D01*
X26145570Y-16085172D01*
X26164385Y-16067595D01*
X26181962Y-16048719D01*
X26198406Y-16028509D01*
X26213715Y-16006965D01*
X26227890Y-15984087D01*
X26240931Y-15959874D01*
X26252838Y-15934326D01*
X26263611Y-15907445D01*
X26273250Y-15879229D01*
X26281755Y-15849678D01*
X26289127Y-15818793D01*
X26295364Y-15786574D01*
X26300467Y-15753021D01*
X26304436Y-15718133D01*
X26307271Y-15681910D01*
X26308972Y-15644354D01*
X26309539Y-15605463D01*
X26309539Y-14082120D01*
X25745338Y-14082120D01*
X25745338Y-15605463D01*
X25743922Y-15634153D01*
X25739676Y-15660022D01*
X25732598Y-15683068D01*
X25722690Y-15703292D01*
X25709950Y-15720695D01*
X25694379Y-15735275D01*
X25675978Y-15747034D01*
X25654745Y-15755970D01*
X25630681Y-15762084D01*
X25603787Y-15765377D01*
X25584284Y-15766004D01*
X25141130Y-15766004D01*
X25112348Y-15764593D01*
X25086397Y-15760360D01*
X25063277Y-15753305D01*
X25042988Y-15743428D01*
X25025530Y-15730729D01*
X25010903Y-15715208D01*
X24999107Y-15696865D01*
X24990142Y-15675699D01*
X24984008Y-15651712D01*
X24980705Y-15624903D01*
X24980076Y-15605463D01*
X24980076Y-14082120D01*
G37*
G36*
X24194811Y-15355676D02*
G01*
X24194811Y-14909444D01*
X22951004Y-14909444D01*
X22951004Y-15355676D01*
X24194811Y-15355676D01*
G37*
G36*
X22725324Y-16183000D02*
G01*
X22161123Y-16183000D01*
X22161123Y-15562378D01*
X21773363Y-15562378D01*
X21433816Y-16183000D01*
X20819863Y-16183000D01*
X21192236Y-15527501D01*
X21172156Y-15521983D01*
X21143194Y-15512248D01*
X21115620Y-15500765D01*
X21089434Y-15487533D01*
X21064637Y-15472551D01*
X21041229Y-15455820D01*
X21019209Y-15437341D01*
X20998577Y-15417112D01*
X20979334Y-15395134D01*
X20961479Y-15371407D01*
X20945013Y-15345930D01*
X20934827Y-15327874D01*
X20925298Y-15308969D01*
X20916427Y-15289214D01*
X20908212Y-15268609D01*
X20900655Y-15247155D01*
X20893754Y-15224852D01*
X20887511Y-15201699D01*
X20881925Y-15177696D01*
X20876997Y-15152844D01*
X20872725Y-15127142D01*
X20869111Y-15100591D01*
X20866153Y-15073191D01*
X20863853Y-15044940D01*
X20862210Y-15015841D01*
X20861225Y-14985892D01*
X20860896Y-14955093D01*
X21425610Y-14955093D01*
X21426239Y-14974596D01*
X21429542Y-15001490D01*
X21435676Y-15025554D01*
X21444641Y-15046787D01*
X21456437Y-15065188D01*
X21471064Y-15080759D01*
X21488522Y-15093499D01*
X21508811Y-15103407D01*
X21531931Y-15110485D01*
X21557882Y-15114731D01*
X21586664Y-15116147D01*
X22161123Y-15116147D01*
X22161123Y-14528352D01*
X21586664Y-14528352D01*
X21567161Y-14528981D01*
X21540266Y-14532284D01*
X21516203Y-14538418D01*
X21494970Y-14547383D01*
X21476568Y-14559179D01*
X21460998Y-14573806D01*
X21448258Y-14591264D01*
X21438350Y-14611553D01*
X21431272Y-14634673D01*
X21427025Y-14660624D01*
X21425610Y-14689406D01*
X21425610Y-14955093D01*
X20860896Y-14955093D01*
X20860896Y-14689406D01*
X20861463Y-14650455D01*
X20863164Y-14612846D01*
X20865999Y-14576579D01*
X20869968Y-14541656D01*
X20875071Y-14508074D01*
X20881308Y-14475835D01*
X20888679Y-14444938D01*
X20897184Y-14415383D01*
X20906824Y-14387171D01*
X20917597Y-14360302D01*
X20929504Y-14334774D01*
X20942545Y-14310590D01*
X20956720Y-14287747D01*
X20972029Y-14266247D01*
X20988472Y-14246089D01*
X21006050Y-14227274D01*
X21024865Y-14209697D01*
X21045023Y-14193253D01*
X21066523Y-14177944D01*
X21089365Y-14163769D01*
X21113550Y-14150728D01*
X21139078Y-14138821D01*
X21165947Y-14128048D01*
X21194159Y-14118409D01*
X21223714Y-14109904D01*
X21254611Y-14102532D01*
X21286850Y-14096295D01*
X21320431Y-14091192D01*
X21355355Y-14087223D01*
X21391622Y-14084388D01*
X21429230Y-14082687D01*
X21468181Y-14082120D01*
X22725324Y-14082120D01*
X22725324Y-16183000D01*
G37*
G36*
X20610083Y-16183000D02*
G01*
X20045882Y-16183000D01*
X20045882Y-15592127D01*
X19352941Y-15592127D01*
X19313990Y-15591560D01*
X19276381Y-15589859D01*
X19240115Y-15587024D01*
X19205191Y-15583055D01*
X19171609Y-15577952D01*
X19139370Y-15571715D01*
X19108473Y-15564344D01*
X19078919Y-15555839D01*
X19050706Y-15546200D01*
X19023837Y-15535427D01*
X18998310Y-15523519D01*
X18974125Y-15510478D01*
X18951282Y-15496303D01*
X18929782Y-15480994D01*
X18909624Y-15464551D01*
X18890809Y-15446974D01*
X18873232Y-15428158D01*
X18856788Y-15408001D01*
X18841479Y-15386500D01*
X18827304Y-15363658D01*
X18814263Y-15339473D01*
X18802356Y-15313946D01*
X18791583Y-15287076D01*
X18781944Y-15258864D01*
X18773439Y-15229310D01*
X18766067Y-15198413D01*
X18759830Y-15166173D01*
X18754727Y-15132592D01*
X18750758Y-15097668D01*
X18747923Y-15061402D01*
X18746222Y-15023793D01*
X18745655Y-14984842D01*
X19310369Y-14984842D01*
X19310998Y-15004344D01*
X19314301Y-15031239D01*
X19320435Y-15055303D01*
X19329400Y-15076535D01*
X19341196Y-15094937D01*
X19355823Y-15110508D01*
X19373281Y-15123247D01*
X19393570Y-15133156D01*
X19416690Y-15140233D01*
X19442641Y-15144480D01*
X19471423Y-15145896D01*
X20045882Y-15145896D01*
X20045882Y-14528352D01*
X19471423Y-14528352D01*
X19451920Y-14528981D01*
X19425026Y-14532284D01*
X19400962Y-14538418D01*
X19379729Y-14547383D01*
X19361328Y-14559179D01*
X19345757Y-14573806D01*
X19333017Y-14591264D01*
X19323109Y-14611553D01*
X19316031Y-14634673D01*
X19311785Y-14660624D01*
X19310369Y-14689406D01*
X19310369Y-14984842D01*
X18745655Y-14984842D01*
X18745655Y-14689406D01*
X18746222Y-14650455D01*
X18747923Y-14612846D01*
X18750758Y-14576579D01*
X18754727Y-14541656D01*
X18759830Y-14508074D01*
X18766067Y-14475835D01*
X18773439Y-14444938D01*
X18781944Y-14415383D01*
X18791583Y-14387171D01*
X18802356Y-14360302D01*
X18814263Y-14334774D01*
X18827304Y-14310590D01*
X18841479Y-14287747D01*
X18856788Y-14266247D01*
X18873232Y-14246089D01*
X18890809Y-14227274D01*
X18909624Y-14209697D01*
X18929782Y-14193253D01*
X18951282Y-14177944D01*
X18974125Y-14163769D01*
X18998310Y-14150728D01*
X19023837Y-14138821D01*
X19050706Y-14128048D01*
X19078919Y-14118409D01*
X19108473Y-14109904D01*
X19139370Y-14102532D01*
X19171609Y-14096295D01*
X19205191Y-14091192D01*
X19240115Y-14087223D01*
X19276381Y-14084388D01*
X19313990Y-14082687D01*
X19352941Y-14082120D01*
X20610083Y-14082120D01*
X20610083Y-16183000D01*
G37*
G36*
X17013558Y-14748390D02*
G01*
X17014412Y-14780489D01*
X17016972Y-14812031D01*
X17021240Y-14843016D01*
X17027214Y-14873444D01*
X17034896Y-14903315D01*
X17044285Y-14932629D01*
X17055380Y-14961386D01*
X17068183Y-14989586D01*
X17082693Y-15017229D01*
X17098910Y-15044315D01*
X17116833Y-15070844D01*
X17136464Y-15096816D01*
X17157802Y-15122232D01*
X17180847Y-15147090D01*
X17205599Y-15171391D01*
X17232058Y-15195135D01*
X17248655Y-15209248D01*
X17265621Y-15223377D01*
X17282956Y-15237522D01*
X17300660Y-15251683D01*
X17318732Y-15265860D01*
X17337172Y-15280054D01*
X17355982Y-15294263D01*
X17375160Y-15308488D01*
X17969110Y-15736768D01*
X17013558Y-15736768D01*
X17013558Y-16183000D01*
X18642047Y-16183000D01*
X18642047Y-15597256D01*
X17578272Y-14828917D01*
X17578272Y-14689406D01*
X17579688Y-14660624D01*
X17583934Y-14634673D01*
X17591012Y-14611553D01*
X17600920Y-14591264D01*
X17613660Y-14573806D01*
X17629231Y-14559179D01*
X17647632Y-14547383D01*
X17668865Y-14538418D01*
X17692929Y-14532284D01*
X17719823Y-14528981D01*
X17739326Y-14528352D01*
X18583063Y-14528352D01*
X18583063Y-14082120D01*
X17620844Y-14082120D01*
X17581955Y-14082687D01*
X17544404Y-14084388D01*
X17508192Y-14087223D01*
X17473318Y-14091192D01*
X17439782Y-14096295D01*
X17407585Y-14102532D01*
X17376727Y-14109904D01*
X17347206Y-14118409D01*
X17319024Y-14128048D01*
X17292181Y-14138821D01*
X17266675Y-14150728D01*
X17242508Y-14163769D01*
X17219680Y-14177944D01*
X17198190Y-14193253D01*
X17178038Y-14209697D01*
X17159225Y-14227274D01*
X17141585Y-14246089D01*
X17125084Y-14266247D01*
X17109721Y-14287747D01*
X17095496Y-14310590D01*
X17082408Y-14334774D01*
X17070459Y-14360302D01*
X17059648Y-14387171D01*
X17049975Y-14415383D01*
X17041440Y-14444938D01*
X17034043Y-14475835D01*
X17027784Y-14508074D01*
X17022662Y-14541656D01*
X17018679Y-14576579D01*
X17015834Y-14612846D01*
X17014127Y-14650455D01*
X17013558Y-14689406D01*
X17013558Y-14748390D01*
G37*
G36*
X16281033Y-14052940D02*
G01*
X16318589Y-14054647D01*
X16354812Y-14057493D01*
X16389699Y-14061476D01*
X16423253Y-14066597D01*
X16455472Y-14072856D01*
X16486357Y-14080253D01*
X16515907Y-14088788D01*
X16544123Y-14098461D01*
X16571005Y-14109272D01*
X16596552Y-14121222D01*
X16620765Y-14134309D01*
X16643644Y-14148534D01*
X16665188Y-14163897D01*
X16685398Y-14180399D01*
X16704274Y-14198038D01*
X16721851Y-14216851D01*
X16738294Y-14237003D01*
X16753603Y-14258493D01*
X16767778Y-14281322D01*
X16780819Y-14305489D01*
X16792726Y-14330994D01*
X16803500Y-14357837D01*
X16813139Y-14386019D01*
X16821644Y-14415540D01*
X16829015Y-14446399D01*
X16835252Y-14478596D01*
X16840355Y-14512131D01*
X16844324Y-14547005D01*
X16847159Y-14583217D01*
X16848860Y-14620768D01*
X16849427Y-14659657D01*
X16849427Y-15605463D01*
X16848860Y-15644354D01*
X16847159Y-15681910D01*
X16844324Y-15718133D01*
X16840355Y-15753021D01*
X16835252Y-15786574D01*
X16829015Y-15818793D01*
X16821644Y-15849678D01*
X16813139Y-15879229D01*
X16803500Y-15907445D01*
X16792726Y-15934326D01*
X16780819Y-15959874D01*
X16767778Y-15984087D01*
X16753603Y-16006965D01*
X16738294Y-16028509D01*
X16721851Y-16048719D01*
X16704274Y-16067595D01*
X16685398Y-16085172D01*
X16665188Y-16101615D01*
X16643644Y-16116924D01*
X16620765Y-16131099D01*
X16596552Y-16144141D01*
X16571005Y-16156048D01*
X16544123Y-16166821D01*
X16515907Y-16176460D01*
X16486357Y-16184965D01*
X16455472Y-16192336D01*
X16423253Y-16198573D01*
X16389699Y-16203676D01*
X16354812Y-16207645D01*
X16318589Y-16210480D01*
X16281033Y-16212181D01*
X16242142Y-16212748D01*
X15680505Y-16212748D01*
X15641554Y-16212181D01*
X15603945Y-16210480D01*
X15567679Y-16207645D01*
X15532755Y-16203676D01*
X15499174Y-16198573D01*
X15466934Y-16192336D01*
X15436038Y-16184965D01*
X15406483Y-16176460D01*
X15378271Y-16166821D01*
X15351401Y-16156048D01*
X15325874Y-16144141D01*
X15301689Y-16131099D01*
X15278847Y-16116924D01*
X15257346Y-16101615D01*
X15237189Y-16085172D01*
X15218373Y-16067595D01*
X15200796Y-16048719D01*
X15184353Y-16028509D01*
X15169044Y-16006965D01*
X15154869Y-15984087D01*
X15141828Y-15959874D01*
X15129920Y-15934326D01*
X15119147Y-15907445D01*
X15109508Y-15879229D01*
X15101003Y-15849678D01*
X15093632Y-15818793D01*
X15087395Y-15786574D01*
X15082292Y-15753021D01*
X15078323Y-15718133D01*
X15075488Y-15681910D01*
X15073787Y-15644354D01*
X15073220Y-15605463D01*
X15637934Y-15605463D01*
X15638563Y-15624903D01*
X15641866Y-15651712D01*
X15648000Y-15675699D01*
X15656964Y-15696865D01*
X15668760Y-15715208D01*
X15683387Y-15730729D01*
X15700845Y-15743428D01*
X15721134Y-15753305D01*
X15744254Y-15760360D01*
X15770205Y-15764593D01*
X15798987Y-15766004D01*
X16123659Y-15766004D01*
X16143162Y-15765377D01*
X16170057Y-15762084D01*
X16194120Y-15755970D01*
X16215353Y-15747034D01*
X16233755Y-15735275D01*
X16249325Y-15720695D01*
X16262065Y-15703292D01*
X16271974Y-15683068D01*
X16279051Y-15660022D01*
X16283298Y-15634153D01*
X16284713Y-15605463D01*
X16284713Y-14659657D01*
X16284084Y-14640216D01*
X16280781Y-14613407D01*
X16274647Y-14589420D01*
X16265682Y-14568255D01*
X16253886Y-14549912D01*
X16239260Y-14534391D01*
X16221802Y-14521692D01*
X16201513Y-14511815D01*
X16178393Y-14504760D01*
X16152442Y-14500527D01*
X16123659Y-14499116D01*
X15798987Y-14499116D01*
X15779485Y-14499743D01*
X15752590Y-14503035D01*
X15728526Y-14509150D01*
X15707294Y-14518086D01*
X15688892Y-14529845D01*
X15673321Y-14544425D01*
X15660582Y-14561827D01*
X15650673Y-14582052D01*
X15643596Y-14605098D01*
X15639349Y-14630966D01*
X15637934Y-14659657D01*
X15637934Y-15605463D01*
X15073220Y-15605463D01*
X15073220Y-14659657D01*
X15073787Y-14620768D01*
X15075488Y-14583217D01*
X15078323Y-14547005D01*
X15082292Y-14512131D01*
X15087395Y-14478596D01*
X15093632Y-14446399D01*
X15101003Y-14415540D01*
X15109508Y-14386019D01*
X15119147Y-14357837D01*
X15129920Y-14330994D01*
X15141828Y-14305489D01*
X15154869Y-14281322D01*
X15169044Y-14258493D01*
X15184353Y-14237003D01*
X15200796Y-14216851D01*
X15218373Y-14198038D01*
X15237189Y-14180399D01*
X15257346Y-14163897D01*
X15278847Y-14148534D01*
X15301689Y-14134309D01*
X15325874Y-14121222D01*
X15351401Y-14109272D01*
X15378271Y-14098461D01*
X15406483Y-14088788D01*
X15436038Y-14080253D01*
X15466934Y-14072856D01*
X15499174Y-14066597D01*
X15532755Y-14061476D01*
X15567679Y-14057493D01*
X15603945Y-14054647D01*
X15641554Y-14052940D01*
X15680505Y-14052371D01*
X16242142Y-14052371D01*
X16281033Y-14052940D01*
G37*
G36*
X13845826Y-15769594D02*
G01*
X14938837Y-15769594D01*
X14938837Y-15334646D01*
X14222815Y-14082120D01*
X13593987Y-14082120D01*
X14303342Y-15322849D01*
X13845826Y-15322849D01*
X13845826Y-14879695D01*
X13281112Y-14879695D01*
X13281112Y-15322849D01*
X13074410Y-15322849D01*
X13074410Y-15769594D01*
X13281112Y-15769594D01*
X13281112Y-16183000D01*
X13845826Y-16183000D01*
X13845826Y-15769594D01*
G37*
G36*
X12401382Y-14052940D02*
G01*
X12438938Y-14054647D01*
X12475160Y-14057493D01*
X12510048Y-14061476D01*
X12543602Y-14066597D01*
X12575821Y-14072856D01*
X12606706Y-14080253D01*
X12636256Y-14088788D01*
X12664472Y-14098461D01*
X12691354Y-14109272D01*
X12716901Y-14121222D01*
X12741114Y-14134309D01*
X12763993Y-14148534D01*
X12785537Y-14163897D01*
X12805747Y-14180399D01*
X12824622Y-14198038D01*
X12842200Y-14216851D01*
X12858643Y-14237003D01*
X12873952Y-14258493D01*
X12888127Y-14281322D01*
X12901168Y-14305489D01*
X12913075Y-14330994D01*
X12923849Y-14357837D01*
X12933488Y-14386019D01*
X12941993Y-14415540D01*
X12949364Y-14446399D01*
X12955601Y-14478596D01*
X12960704Y-14512131D01*
X12964673Y-14547005D01*
X12967508Y-14583217D01*
X12969209Y-14620768D01*
X12969776Y-14659657D01*
X12969776Y-15605463D01*
X12969209Y-15644354D01*
X12967508Y-15681910D01*
X12964673Y-15718133D01*
X12960704Y-15753021D01*
X12955601Y-15786574D01*
X12949364Y-15818793D01*
X12941993Y-15849678D01*
X12933488Y-15879229D01*
X12923849Y-15907445D01*
X12913075Y-15934326D01*
X12901168Y-15959874D01*
X12888127Y-15984087D01*
X12873952Y-16006965D01*
X12858643Y-16028509D01*
X12842200Y-16048719D01*
X12824622Y-16067595D01*
X12805747Y-16085172D01*
X12785537Y-16101615D01*
X12763993Y-16116924D01*
X12741114Y-16131099D01*
X12716901Y-16144141D01*
X12691354Y-16156048D01*
X12664472Y-16166821D01*
X12636256Y-16176460D01*
X12606706Y-16184965D01*
X12575821Y-16192336D01*
X12543602Y-16198573D01*
X12510048Y-16203676D01*
X12475160Y-16207645D01*
X12438938Y-16210480D01*
X12401382Y-16212181D01*
X12362491Y-16212748D01*
X11800854Y-16212748D01*
X11761903Y-16212181D01*
X11724294Y-16210480D01*
X11688028Y-16207645D01*
X11653104Y-16203676D01*
X11619522Y-16198573D01*
X11587283Y-16192336D01*
X11556386Y-16184965D01*
X11526832Y-16176460D01*
X11498620Y-16166821D01*
X11471750Y-16156048D01*
X11446223Y-16144141D01*
X11422038Y-16131099D01*
X11399196Y-16116924D01*
X11377695Y-16101615D01*
X11357538Y-16085172D01*
X11338722Y-16067595D01*
X11321145Y-16048719D01*
X11304702Y-16028509D01*
X11289393Y-16006965D01*
X11275218Y-15984087D01*
X11262176Y-15959874D01*
X11250269Y-15934326D01*
X11239496Y-15907445D01*
X11229857Y-15879229D01*
X11221352Y-15849678D01*
X11213981Y-15818793D01*
X11207744Y-15786574D01*
X11202641Y-15753021D01*
X11198672Y-15718133D01*
X11195837Y-15681910D01*
X11194136Y-15644354D01*
X11193569Y-15605463D01*
X11758283Y-15605463D01*
X11758912Y-15624903D01*
X11762215Y-15651712D01*
X11768348Y-15675699D01*
X11777313Y-15696865D01*
X11789109Y-15715208D01*
X11803736Y-15730729D01*
X11821194Y-15743428D01*
X11841483Y-15753305D01*
X11864603Y-15760360D01*
X11890554Y-15764593D01*
X11919336Y-15766004D01*
X12244008Y-15766004D01*
X12263511Y-15765377D01*
X12290406Y-15762084D01*
X12314469Y-15755970D01*
X12335702Y-15747034D01*
X12354104Y-15735275D01*
X12369674Y-15720695D01*
X12382414Y-15703292D01*
X12392323Y-15683068D01*
X12399400Y-15660022D01*
X12403647Y-15634153D01*
X12405062Y-15605463D01*
X12405062Y-14659657D01*
X12404433Y-14640216D01*
X12401130Y-14613407D01*
X12394996Y-14589420D01*
X12386031Y-14568255D01*
X12374235Y-14549912D01*
X12359608Y-14534391D01*
X12342150Y-14521692D01*
X12321861Y-14511815D01*
X12298741Y-14504760D01*
X12272790Y-14500527D01*
X12244008Y-14499116D01*
X11919336Y-14499116D01*
X11899834Y-14499743D01*
X11872939Y-14503035D01*
X11848875Y-14509150D01*
X11827643Y-14518086D01*
X11809241Y-14529845D01*
X11793670Y-14544425D01*
X11780931Y-14561827D01*
X11771022Y-14582052D01*
X11763945Y-14605098D01*
X11759698Y-14630966D01*
X11758283Y-14659657D01*
X11758283Y-15605463D01*
X11193569Y-15605463D01*
X11193569Y-14659657D01*
X11194136Y-14620768D01*
X11195837Y-14583217D01*
X11198672Y-14547005D01*
X11202641Y-14512131D01*
X11207744Y-14478596D01*
X11213981Y-14446399D01*
X11221352Y-14415540D01*
X11229857Y-14386019D01*
X11239496Y-14357837D01*
X11250269Y-14330994D01*
X11262176Y-14305489D01*
X11275218Y-14281322D01*
X11289393Y-14258493D01*
X11304702Y-14237003D01*
X11321145Y-14216851D01*
X11338722Y-14198038D01*
X11357538Y-14180399D01*
X11377695Y-14163897D01*
X11399196Y-14148534D01*
X11422038Y-14134309D01*
X11446223Y-14121222D01*
X11471750Y-14109272D01*
X11498620Y-14098461D01*
X11526832Y-14088788D01*
X11556386Y-14080253D01*
X11587283Y-14072856D01*
X11619522Y-14066597D01*
X11653104Y-14061476D01*
X11688028Y-14057493D01*
X11724294Y-14054647D01*
X11761903Y-14052940D01*
X11800854Y-14052371D01*
X12362491Y-14052371D01*
X12401382Y-14052940D01*
G37*
D12*
%TO.C,HOLE\u002A\u002A*%
X20000Y-22230000D02*
G75*
G03*
X-3580000Y-22230000I-1800000J0D01*
G01*
X-3580000Y-22230000D02*
G75*
G03*
X20000Y-22230000I1800000J0D01*
G01*
X20000Y-3160000D02*
G75*
G03*
X-3580000Y-3160000I-1800000J0D01*
G01*
X-3580000Y-3160000D02*
G75*
G03*
X20000Y-3160000I1800000J0D01*
G01*
X55430000Y-3160000D02*
G75*
G03*
X51830000Y-3160000I-1800000J0D01*
G01*
X51830000Y-3160000D02*
G75*
G03*
X55430000Y-3160000I1800000J0D01*
G01*
X55430000Y-22240000D02*
G75*
G03*
X51830000Y-22240000I-1800000J0D01*
G01*
X51830000Y-22240000D02*
G75*
G03*
X55430000Y-22240000I1800000J0D01*
G01*
%TD*%
%LPC*%
D13*
%TO.C,USB1*%
X639000Y-9800000D03*
X639000Y-15580000D03*
D14*
X1139000Y-8365000D03*
X1139000Y-17015000D03*
D15*
X-3061000Y-8365000D03*
X-3061000Y-17015000D03*
%TD*%
D16*
%TO.C,J3*%
X55550000Y-8895000D03*
D17*
X55550000Y-11435000D03*
X55550000Y-13975000D03*
X55550000Y-16515000D03*
%TD*%
D16*
%TO.C,J2*%
X1800000Y-1340000D03*
D17*
X4340000Y-1340000D03*
X6880000Y-1340000D03*
X9420000Y-1340000D03*
X11960000Y-1340000D03*
X14500000Y-1340000D03*
X17040000Y-1340000D03*
X19580000Y-1340000D03*
X22120000Y-1340000D03*
X24660000Y-1340000D03*
X27200000Y-1340000D03*
X29740000Y-1340000D03*
X32280000Y-1340000D03*
X34820000Y-1340000D03*
X37360000Y-1340000D03*
X39900000Y-1340000D03*
X42440000Y-1340000D03*
X44980000Y-1340000D03*
X47520000Y-1340000D03*
X50060000Y-1340000D03*
%TD*%
D18*
%TO.C,HOLE\u002A\u002A*%
X-1780000Y-22230000D03*
%TD*%
%TO.C,HOLE\u002A\u002A*%
X-1780000Y-3160000D03*
%TD*%
%TO.C,HOLE\u002A\u002A*%
X53630000Y-3160000D03*
%TD*%
D16*
%TO.C,J1*%
X1800000Y-24060000D03*
D17*
X4340000Y-24060000D03*
X6880000Y-24060000D03*
X9420000Y-24060000D03*
X11960000Y-24060000D03*
X14500000Y-24060000D03*
X17040000Y-24060000D03*
X19580000Y-24060000D03*
X22120000Y-24060000D03*
X24660000Y-24060000D03*
X27200000Y-24060000D03*
X29740000Y-24060000D03*
X32280000Y-24060000D03*
X34820000Y-24060000D03*
X37360000Y-24060000D03*
X39900000Y-24060000D03*
X42440000Y-24060000D03*
X44980000Y-24060000D03*
X47520000Y-24060000D03*
X50060000Y-24060000D03*
%TD*%
D18*
%TO.C,HOLE\u002A\u002A*%
X53630000Y-22240000D03*
%TD*%
%LPD*%
M02*
