M48
; DRILL file {KiCad 7.0.11} date Sat Apr 13 19:51:54 2024
; FORMAT={-:-/ absolute / metric / decimal}
; #@! TF.CreationDate,2024-04-13T19:51:54+08:00
; #@! TF.GenerationSoftware,Kicad,Pcbnew,7.0.11
; #@! TF.FileFunction,MixedPlating,1,2
FMAT,2
METRIC
; #@! TA.AperFunction,Plated,PTH,ViaDrill
T1C0.300
; #@! TA.AperFunction,Plated,PTH,ViaDrill
T2C0.400
; #@! TA.AperFunction,Plated,PTH,ComponentDrill
T3C0.600
; #@! TA.AperFunction,Plated,PTH,ComponentDrill
T4C1.000
; #@! TA.AperFunction,Plated,PTH,ComponentDrill
T5C2.200
; #@! TA.AperFunction,NonPlated,NPTH,ComponentDrill
T6C0.650
%
G90
G05
T1
X1.05Y-11.94
X1.052Y-12.948
X4.68Y-12.7
X6.09Y-10.95
X6.09Y-14.43
X7.089Y-10.95
X7.089Y-14.43
X7.809Y-18.3
X8.659Y-10.95
X8.659Y-14.43
X10.16Y-22.098
X10.179Y-10.01
X10.179Y-10.95
X11.04Y-15.12
X11.82Y-16.53
X12.119Y-10.38
X12.7Y-22.098
X13.0Y-5.0
X13.219Y-10.38
X13.27Y-13.02
X14.0Y-5.0
X14.319Y-10.38
X15.24Y-22.098
X15.419Y-10.38
X16.0Y-8.0
X16.299Y-12.3
X16.519Y-10.38
X16.98Y-16.69
X16.99Y-17.48
X17.0Y-8.0
X17.0Y-19.51
X17.399Y-12.3
X17.619Y-10.38
X17.72Y-16.69
X17.78Y-22.098
X18.0Y-5.0
X18.499Y-12.3
X18.719Y-10.38
X19.599Y-12.3
X20.32Y-22.098
X20.699Y-12.3
X21.0Y-5.0
X21.015Y-8.14
X21.799Y-12.3
X21.9Y-8.1
X21.9Y-10.54
X22.899Y-12.3
X24.0Y-5.0
X24.27Y-9.09
X25.09Y-6.87
X25.39Y-15.01
X25.83Y-8.03
X25.85Y-9.72
X27.12Y-15.9
X27.275Y-6.87
X28.956Y-3.81
X28.98Y-7.84
X31.09Y-3.81
X32.766Y-21.5
X33.528Y-3.81
X35.05Y-18.5
X35.78Y-19.0
X36.068Y-21.5
X37.339Y-4.95
X37.39Y-10.15
X37.669Y-6.49
X37.92Y-8.505
X38.05Y-10.15
X38.599Y-6.5
X38.617Y-4.95
X38.859Y-17.27
X39.226Y-18.997
X39.365Y-16.285
X39.559Y-6.5
X39.895Y-4.95
X40.44Y-20.26
X41.174Y-4.95
X42.452Y-4.95
X42.78Y-6.64
X43.73Y-4.95
X43.73Y-6.65
X44.899Y-14.1
X44.989Y-6.64
X46.049Y-4.95
X46.049Y-6.65
X47.099Y-4.95
X47.099Y-6.65
X47.52Y-9.07
X48.149Y-4.95
X48.149Y-6.65
X49.199Y-4.95
X49.199Y-6.65
X50.199Y-5.12
X50.679Y-7.68
X50.679Y-8.41
X50.679Y-9.8
X50.679Y-10.885
X50.679Y-11.97
X50.789Y-5.7
X51.349Y-12.62
X51.439Y-6.35
X52.019Y-13.34
X52.109Y-7.07
X52.849Y-7.92
X52.849Y-9.75
X52.849Y-10.62
T2
X3.26Y-10.29
X3.265Y-15.095
X9.879Y-19.305
X11.04Y-9.09
X11.04Y-13.78
X15.76Y-18.5
T4
X1.8Y-1.34
X1.8Y-24.06
X4.34Y-1.34
X4.34Y-24.06
X6.88Y-1.34
X6.88Y-24.06
X9.42Y-1.34
X9.42Y-24.06
X11.96Y-1.34
X11.96Y-24.06
X14.5Y-1.34
X14.5Y-24.06
X17.04Y-1.34
X17.04Y-24.06
X19.58Y-1.34
X19.58Y-24.06
X22.12Y-1.34
X22.12Y-24.06
X24.66Y-1.34
X24.66Y-24.06
X27.2Y-1.34
X27.2Y-24.06
X29.74Y-1.34
X29.74Y-24.06
X32.28Y-1.34
X32.28Y-24.06
X34.82Y-1.34
X34.82Y-24.06
X37.36Y-1.34
X37.36Y-24.06
X39.9Y-1.34
X39.9Y-24.06
X42.44Y-1.34
X42.44Y-24.06
X44.98Y-1.34
X44.98Y-24.06
X47.52Y-1.34
X47.52Y-24.06
X50.06Y-1.34
X50.06Y-24.06
X55.55Y-8.895
X55.55Y-11.435
X55.55Y-13.975
X55.55Y-16.515
T5
X-1.78Y-3.16
X-1.78Y-22.23
X53.63Y-3.16
X53.63Y-22.24
T6
X0.639Y-9.8
X0.639Y-15.58
T3
G00X-2.611Y-8.365
M15
G01X-3.511Y-8.365
M16
G05
G00X-2.611Y-17.015
M15
G01X-3.511Y-17.015
M16
G05
G00X1.739Y-8.365
M15
G01X0.539Y-8.365
M16
G05
G00X1.739Y-17.015
M15
G01X0.539Y-17.015
M16
G05
M30
